<?xml version="1.0" encoding="UTF-8" standalone="no"?>
<!-- Created with Inkscape (http://www.inkscape.org/) -->

<svg
   xmlns:dc="http://purl.org/dc/elements/1.1/"
   xmlns:cc="http://creativecommons.org/ns#"
   xmlns:rdf="http://www.w3.org/1999/02/22-rdf-syntax-ns#"
   xmlns:svg="http://www.w3.org/2000/svg"
   xmlns="http://www.w3.org/2000/svg"
   xmlns:sodipodi="http://sodipodi.sourceforge.net/DTD/sodipodi-0.dtd"
   xmlns:inkscape="http://www.inkscape.org/namespaces/inkscape"
   width="263.40302"
   height="179.18219"
   id="svg3305"
   version="1.1"
   inkscape:version="0.48.4 r9939"
   sodipodi:docname="New document 14">
  <defs
     id="defs3307" />
  <sodipodi:namedview
     id="base"
     pagecolor="#ffffff"
     bordercolor="#666666"
     borderopacity="1.0"
     inkscape:pageopacity="0.0"
     inkscape:pageshadow="2"
     inkscape:zoom="0.35"
     inkscape:cx="112.41579"
     inkscape:cy="83.876814"
     inkscape:document-units="px"
     inkscape:current-layer="layer1"
     showgrid="false"
     fit-margin-top="0"
     fit-margin-left="0"
     fit-margin-right="0"
     fit-margin-bottom="0"
     inkscape:window-width="457"
     inkscape:window-height="414"
     inkscape:window-x="0"
     inkscape:window-y="25"
     inkscape:window-maximized="0" />
  <metadata
     id="metadata3310">
    <rdf:RDF>
      <cc:Work
         rdf:about="">
        <dc:format>image/svg+xml</dc:format>
        <dc:type
           rdf:resource="http://purl.org/dc/dcmitype/StillImage" />
        <dc:title></dc:title>
      </cc:Work>
    </rdf:RDF>
  </metadata>
  <g
     inkscape:label="Layer 1"
     inkscape:groupmode="layer"
     id="layer1"
     transform="translate(-262.58421,-437.0568)">
    <g
       id="g3271"
       transform="translate(242.21675,425.62979)">
      <path
         style="fill:#d4d4d4"
         d="m 138.5,190.46168 c -0.55,-0.25005 -7.29889,-1.32708 -14.99754,-2.39339 -13.28686,-1.84033 -14.13728,-2.09516 -16.75,-5.0193 -3.70592,-4.14765 -3.70685,-8.7796 -0.002,-12.25429 2.10218,-1.97183 6.87164,-3.6837 20.24648,-7.26691 9.62306,-2.57808 17.61299,-4.80392 17.75538,-4.94632 0.1424,-0.14239 -0.64295,-10.1612 -1.74521,-22.26401 -1.39301,-15.29511 -2.51908,-23.03737 -3.69291,-25.39037 -0.92883,-1.86189 -1.65782,-5.43812 -1.61997,-7.94718 l 0.0688,-4.561914 -19.13129,-2.306719 C 108.10908,94.842581 90.360234,92.499988 79.189408,90.905514 68.018583,89.311041 53.172681,87.303121 46.198516,86.443472 39.224351,85.583822 31.672652,84.064092 29.416963,83.066293 18.777987,78.360169 17.061036,63.61563 26.721741,59.920732 c 2.027338,-0.775389 39.25367,-6.048198 63.870864,-9.046791 l 10.092605,-1.229369 1.07872,-13.344038 c 1.35178,-16.721872 3.80838,-22.853262 9.90414,-24.719529 1.58769,-0.486084 3.09046,0.146092 5.61372,2.361545 4.21304,3.699101 6.30314,10.525478 7.28935,23.80745 l 0.68683,9.25 3.12101,-0.01101 c 1.71656,-0.0061 4.80852,-0.289932 6.87102,-0.630842 3.21477,-0.531368 3.75245,-0.993667 3.76714,-3.238994 0.0217,-3.319311 3.27329,-15.924799 4.88423,-18.934864 2.38347,-4.453566 10.94629,-5.298765 14.33286,-1.414736 1.7569,2.01497 4.15204,9.278348 5.78528,17.544104 0.63179,3.197515 1.67337,5.977694 2.3146,6.178176 0.64124,0.200483 3.64326,0.537224 6.67115,0.748315 l 5.50527,0.383801 0.23195,-8.561977 c 0.45642,-16.847617 4.70818,-27.39531 11.043,-27.39531 3.93159,0 6.06691,1.76739 8.34638,6.90825 1.82466,4.115131 3.84482,18.017696 3.85994,26.563792 0.009,5.313826 -1.19697,4.793921 16.0082,6.899044 35.06835,4.290759 58.64746,8.084971 61,9.815765 7.42173,5.460254 5.97084,16.320268 -2.87224,21.498877 -2.26204,1.324677 -9.63925,2.67092 -25.89547,4.725578 -29.95061,3.785521 -77.9867,9.746048 -81.58266,10.12313 -2.6836,0.281409 -2.86169,0.591444 -3.04384,5.298901 -0.10641,2.75 -0.92359,6.575 -1.81595,8.5 -0.92103,1.98683 -1.88775,7.60717 -2.23606,13 -0.33747,5.225 -1.11488,14.79775 -1.72757,21.27277 -0.6127,6.47503 -0.88018,12.00659 -0.59442,12.29236 0.28577,0.28577 8.33802,2.53987 17.8939,5.00912 15.07237,3.89472 17.73866,4.88488 20.12431,7.47342 1.71226,1.85789 2.75,4.10406 2.75,5.95233 0,1.82636 -1.05805,4.15126 -2.75,6.04274 -2.63186,2.94222 -3.43737,3.17428 -18.75,5.40162 -14.0846,2.04871 -16.40178,2.16222 -19.35623,0.94812 -1.84593,-0.75856 -3.87093,-1.04469 -4.5,-0.63584 -0.62908,0.40885 -2.94377,0.78187 -5.14377,0.82894 -2.2,0.0471 -5.35,0.36574 -7,0.70816 -1.65,0.34242 -3.45,0.41799 -4,0.16794 z"
         id="path3285"
         inkscape:connector-curvature="0" />
      <path
         style="fill:#acacac"
         d="m 135,189.00977 c -1.925,-0.47598 -8.1888,-1.42241 -13.91955,-2.10318 -8.8503,-1.05135 -10.84046,-1.627 -13.21431,-3.82218 -4.24435,-3.92491 -4.60493,-7.23505 -1.19768,-10.99491 2.49951,-2.75819 4.88361,-3.66794 20.33154,-7.75828 9.625,-2.54854 17.82207,-4.91021 18.21571,-5.24817 0.39363,-0.33795 -0.16489,-10.50739 -1.24116,-22.59876 -1.42447,-16.00306 -2.41885,-22.79358 -3.65491,-24.95888 -0.98824,-1.73117 -1.73416,-5.28427 -1.78445,-8.5 -0.074,-4.732962 -0.36957,-5.5545 -2.0608,-5.728241 C 126.51794,96.274334 94.895139,92.247302 75,89.468662 61.525,87.586685 46.466091,85.5617 41.535757,84.968696 30.780701,83.675112 26.683018,81.899043 23.438935,77.124947 19.485709,71.307252 20.618952,63.87985 25.890253,61.058735 27.476502,60.2098 61.967271,55.25278 91,51.701149 l 10.5,-1.284486 1.17674,-14.245457 c 1.01663,-12.307329 1.53177,-14.851291 3.78633,-18.698399 3.45028,-5.887466 6.60089,-6.743776 10.62552,-2.887936 3.85473,3.693067 5.60782,9.879882 6.47721,22.858678 L 124.27294,48 l 2.72396,0 c 1.49818,0 4.81878,-0.287128 7.37913,-0.638062 3.67927,-0.5043 4.73823,-1.080806 5.05138,-2.75 C 143.10746,24.996103 145.10489,21 151.22974,21 c 6.58558,0 9.2141,4.248107 11.90266,19.236653 1.34091,7.475465 0.76929,7.087117 11.8676,8.06258 l 4.5,0.395518 0.23312,-9.597376 c 0.47898,-19.719384 5.72449,-30.1339414 13.17047,-26.14897 4.74924,2.541712 8.06417,15.723795 8.08821,32.163353 l 0.008,5.611757 13.75,1.726542 c 7.5625,0.949598 24.775,3.258502 38.25,5.130899 24.16547,3.357873 24.53755,3.445636 27.25,6.427477 4.70958,5.177321 3.21002,13.391626 -3.28959,18.01976 -3.26759,2.326728 -7.55814,2.960366 -77.96041,11.513371 -16.225,1.971136 -30.5125,3.789232 -31.75,4.040212 -1.9466,0.394794 -2.25,1.085417 -2.25,5.121554 0,2.56587 -0.85264,6.4948 -1.89476,8.73095 -1.38914,2.9808 -2.20007,8.33526 -3.03893,20.06572 -0.6293,8.8 -1.40091,18.7 -1.71469,22 l -0.5705,6 17.82873,4.49908 c 20.41714,5.15227 23.39015,6.7939 23.39015,12.9155 0,6.76183 -2.56999,8.07298 -21.0609,10.74481 -14.3388,2.07187 -16.37624,2.16592 -18.87947,0.87144 -1.54333,-0.79808 -3.12573,-1.13151 -3.51643,-0.74095 -0.3907,0.39057 -2.81026,0.80066 -5.37679,0.91133 -2.56652,0.11066 -6.24141,0.42008 -8.16641,0.68759 -1.925,0.26751 -5.075,0.0969 -7,-0.37903 z"
         id="path3283"
         inkscape:connector-curvature="0" />
      <path
         style="fill:#939393"
         d="m 135.90027,188.56693 c -0.23819,-0.23818 -5.82569,-1.15385 -12.41667,-2.03482 -13.33838,-1.78284 -15.75834,-2.64493 -17.37314,-6.18903 -3.39498,-7.45116 -0.12526,-9.93129 20.08133,-15.23196 8.96951,-2.35292 17.05414,-4.48261 17.96583,-4.73264 0.91169,-0.25004 1.84981,-0.99998 2.0847,-1.66655 0.2349,-0.66656 -0.42333,-10.62856 -1.46272,-22.13776 -1.39889,-15.48988 -2.39505,-22.03489 -3.83471,-25.19514 C 139.84535,108.96538 139,104.93232 139,102.10018 139,96.240071 141.75953,97.173797 115,93.979451 105.375,92.830494 86.475,90.351387 73,88.470325 59.525,86.589264 44.790231,84.601884 40.25607,84.053926 35.721908,83.505967 30.694885,82.376459 29.084908,81.543908 24.619494,79.234753 22,74.881579 22,69.769944 22,62.209932 23.698253,61.364839 44.584829,58.53118 80.593735,53.645889 93.563714,52.011924 96.5,51.990878 c 5.52251,-0.03958 5.8192,-0.728542 7.0773,-16.434426 1.04185,-13.006152 1.45119,-15.001117 3.80918,-18.56428 3.15013,-4.760168 6.5195,-5.275682 9.99201,-1.528779 3.1947,3.447133 4.43138,8.36484 5.22727,20.786384 0.43124,6.730442 1.1657,11.145591 1.96433,11.808389 1.6617,1.379093 13.02692,0.13233 14.45255,-1.585442 0.58096,-0.700013 1.48386,-3.905245 2.00644,-7.122737 1.2479,-7.683135 2.55196,-12.061627 4.45936,-14.972682 2.00416,-3.058742 9.27777,-3.398113 11.85255,-0.553015 C 159.02657,25.686845 163,39.52831 163,43.537518 c 0,3.413846 2.41357,4.687563 9.89708,5.223006 l 6.86787,0.491393 0.69632,-11.375958 c 0.79326,-12.959835 1.90416,-18.176045 4.71022,-22.116791 3.97508,-5.582495 10.41591,-2.511323 12.80659,6.106557 0.5545,1.998851 1.30496,9.148677 1.66768,15.888501 0.37188,6.909897 1.13808,12.628072 1.75687,13.111432 0.60355,0.471464 7.39737,1.63394 15.09737,2.58328 17.91005,2.208147 56.32114,7.454766 59.22232,8.089253 6.42701,1.405582 8.64714,11.492419 3.79793,17.255376 -4.17683,4.963879 1.27178,4.006069 -78.02025,13.71516 -15.4,1.885688 -30.025,3.780142 -32.5,4.209898 L 164.5,97.5 163.87675,104 c -0.34279,3.575 -1.30675,7.85 -2.14214,9.5 -0.91913,1.81541 -1.77102,7.34351 -2.15742,14 -0.3512,6.05 -1.10113,15.42209 -1.66651,20.82687 C 156.83783,158.58275 157.38742,161 160.79206,161 c 4.11925,0 33.29667,8.43401 35.14967,10.16034 2.7917,2.60086 2.81232,9.05924 0.0372,11.64467 -2.9239,2.72403 -32.7702,6.9383 -36.9314,5.21467 -2.13369,-0.8838 -3.40031,-0.90124 -4.95679,-0.0682 -1.49859,0.80202 -2.65718,0.81577 -4.09073,0.0486 -1.38849,-0.7431 -2.59141,-0.75386 -3.93426,-0.0352 -1.8971,1.01529 -9.31304,1.45455 -10.16547,0.60211 z"
         id="path3281"
         inkscape:connector-curvature="0" />
      <path
         style="fill:#6a6a6a"
         d="m 135,188.00977 c -1.925,-0.47598 -8.17168,-1.42038 -13.8815,-2.09867 -7.94272,-0.94355 -10.92906,-1.72398 -12.71235,-3.32218 -3.55255,-3.18381 -3.9986,-6.79792 -1.22924,-9.95985 1.90047,-2.16986 5.35906,-3.46892 19.01134,-7.14073 C 135.36678,163.01975 143.55273,161 144.37923,161 c 0.8265,0 1.75317,-0.40522 2.05926,-0.90048 0.30609,-0.49526 -0.37219,-11.13163 -1.50728,-23.63637 -1.4996,-16.52029 -2.50698,-23.41225 -3.68485,-25.20991 -0.96197,-1.46816 -1.65779,-4.72974 -1.71143,-8.02214 -0.062,-3.806508 -0.55255,-5.784621 -1.56266,-6.301543 C 137.16252,96.515171 127.95,95.189911 117.5,93.984537 107.05,92.779162 89.360234,90.490989 78.189408,88.899709 67.018583,87.308428 52.182456,85.304326 45.220237,84.446149 38.258018,83.587972 31.092377,82.188608 29.296591,81.336452 21.536386,77.653994 19.373039,65.546642 25.855376,62.0774 27.780671,61.047014 81.135335,53.613452 100,51.747307 c 2.48244,-0.245569 2.50808,-0.350088 3.65022,-14.876609 1.15689,-14.714056 1.88036,-17.48301 5.64906,-21.620698 2.62715,-2.88437 4.79103,-2.847222 7.58824,0.130272 3.19516,3.401094 4.86323,9.895696 5.68237,22.124263 0.53129,7.931307 1.08829,10.810802 2.17164,11.226524 0.8014,0.307523 4.44256,0.15634 8.09148,-0.335963 7.49962,-1.01183 6.76831,0.03496 9.7074,-13.895096 1.00864,-4.780532 2.51699,-8.905475 3.74806,-10.25 2.19437,-2.39658 6.51916,-2.958505 9.69374,-1.259519 2.13355,1.141842 4.40966,7.544153 6.17058,17.356803 1.41603,7.890827 1.89519,8.248156 11.79842,8.798696 l 6.3682,0.35402 0.37292,-10.494331 c 0.63293,-17.811581 4.54046,-27.167996 10.70049,-25.621925 5.10182,1.280475 7.76055,11.221654 8.85683,33.116256 l 0.25035,5 13.5,1.791801 c 59.62109,7.91327 63.38131,8.556996 65.75,11.255983 4.061,4.627274 2.37124,13.17708 -3.34445,16.922142 -2.78967,1.827868 -13.16595,3.307356 -77.90555,11.108073 -16.5,1.988146 -31.0125,4.011782 -32.25,4.496967 -1.8896,0.740853 -2.25,1.635917 -2.25,5.587874 0,2.58814 -0.85468,6.53529 -1.8993,8.77144 -1.40845,3.01501 -2.23787,8.58828 -3.20943,21.56572 -0.72057,9.625 -1.32839,19.70084 -1.3507,22.39077 l -0.0406,4.89076 18.28646,4.73724 c 10.31379,2.67186 19.14253,5.51198 20.25,6.51422 2.67723,2.42286 2.64642,8.53904 -0.0553,10.98409 -1.47846,1.33799 -6.31468,2.44778 -18.06715,4.14594 -14.31562,2.06853 -16.35124,2.16222 -18.85434,0.86781 -1.54333,-0.79808 -3.12573,-1.13151 -3.51643,-0.74095 -0.3907,0.39057 -2.81026,0.80066 -5.37679,0.91133 -2.56652,0.11066 -6.24141,0.42008 -8.16641,0.68759 -1.925,0.26751 -5.075,0.0969 -7,-0.37903 z"
         id="path3279"
         inkscape:connector-curvature="0" />
      <path
         style="fill:#525252"
         d="m 139.5,188.42457 c -0.55,-0.22964 -7.22977,-1.28038 -14.84392,-2.33497 C 109.47122,183.98643 106,182.29519 106,177 c 0,-4.71964 3.44771,-6.5214 22,-11.49714 9.625,-2.58143 17.87515,-5.04826 18.33367,-5.48185 1.32517,-1.25313 -2.96437,-44.90713 -4.85702,-49.42925 -0.89965,-2.14954 -1.71243,-6.18558 -1.80619,-8.96898 L 139.5,96.562039 l -25,-3.14438 C 85.025153,89.710454 46.300392,84.4816 36.710381,82.914028 28.688563,81.602792 24.581235,78.67203 22.899671,73.059469 21.518558,68.449723 23.159025,64.169662 27.015389,62.321355 29.1503,61.298118 53.10374,57.788197 92.5,52.72583 l 10,-1.284987 1.19688,-13.830345 c 1.38598,-16.0154 3.83098,-22.880441 8.33608,-23.405977 5.8087,-0.677606 9.29334,7.553817 10.51953,24.849229 L 123.25764,49 l 4.62118,-0.01101 c 8.91398,-0.02123 12.0964,-0.992799 12.68345,-3.872169 0.29343,-1.439254 1.52446,-6.663324 2.73562,-11.609045 1.89701,-7.746355 2.57638,-9.170815 4.90348,-10.281257 3.42785,-1.635699 7.47533,-0.649575 9.40184,2.290653 0.8186,1.249345 2.44857,6.830783 3.62214,12.403195 2.39092,11.352642 1.48001,10.538791 12.90953,11.534011 l 6.63489,0.577729 0.0963,-9.549234 c 0.0985,-9.758701 2.13851,-20.209124 4.73058,-24.232877 0.97204,-1.508942 2.43475,-2.25 4.44107,-2.25 5.67906,0 8.42333,7.7113 9.592,26.9532 0.36901,6.07574 0.94078,11.045647 1.27059,11.044238 1.2628,-0.0054 26.61405,3.337672 50.09966,6.60664 26.48058,3.685838 28.7195,4.435477 30.36305,10.166201 1.06095,3.699328 -1.48614,9.598286 -5.36305,12.420606 -2.58758,1.883711 -10.14935,2.971821 -78.5,11.295845 -15.95,1.942457 -30.11195,3.871332 -31.471,4.286389 -2.21703,0.677085 -2.48177,1.318522 -2.57567,6.240765 -0.0576,3.01737 -0.80016,6.83612 -1.65021,8.48612 -1.42686,2.76963 -1.98615,7.93706 -4.49781,41.55606 l -0.56451,7.55606 18.3796,4.69833 c 15.10116,3.86027 18.78094,5.15343 20.6296,7.24971 2.85067,3.23249 2.8451,5.63647 -0.0207,8.96822 -2.0747,2.41198 -3.5842,2.8232 -17.48292,4.76283 -12.81509,1.7884 -15.76118,1.9244 -18.6963,0.86304 -2.56522,-0.92759 -4.02032,-0.97293 -5.51709,-0.17188 -1.40312,0.75093 -2.62453,0.77139 -3.94248,0.066 -1.37974,-0.73841 -2.8968,-0.60945 -5.46788,0.46482 -1.95709,0.81772 -3.6853,1.45124 -3.84046,1.40782 -0.15517,-0.0434 -0.73212,-0.26683 -1.28212,-0.49648 z"
         id="path3277"
         inkscape:connector-curvature="0" />
      <path
         style="fill:#2a2a2a"
         d="m 135,186.96981 c -1.925,-0.454 -8.14882,-1.37771 -13.83071,-2.05269 -10.99714,-1.30641 -13.6477,-2.56605 -14.68818,-6.98035 -1.16776,-4.95425 1.62791,-6.57778 19.70714,-11.44449 C 135.36678,164.02153 143.52418,162 144.3158,162 c 3.60005,0 3.73733,-2.16075 1.61958,-25.49086 -1.48793,-16.39176 -2.5164,-23.46625 -3.66667,-25.22178 -0.94806,-1.44693 -1.6669,-4.88633 -1.76631,-8.45116 -0.1796,-6.440773 -1.13223,-7.794132 -5.50514,-7.820887 -3.29474,-0.02016 -36.799569,-4.242641 -63.351006,-7.98388 C 60.015814,85.392642 46.466091,83.565519 41.535757,82.971159 31.073368,81.709901 27.06157,80.067105 24.706063,76.07955 22.36733,72.120392 22.504196,66.495804 25,64 c 1.1,-1.1 2.338254,-2 2.751675,-2 0.413421,0 12.000921,-1.527048 25.75,-3.39344 C 67.250754,56.740168 83.45,54.674589 89.5,54.016385 95.55,53.35818 101.175,52.474122 102,52.05181 c 1.14253,-0.584854 1.77644,-4.258023 2.65998,-15.413304 0.85688,-10.81862 1.64078,-15.466191 3,-17.786412 2.47223,-4.220143 4.8375,-5.647334 7.09002,-4.278071 3.51767,2.138325 5.49378,8.328536 6.63681,20.789958 0.61226,6.67481 1.51357,12.757294 2.00293,13.516631 0.68691,1.065881 2.51063,1.23521 8,0.742786 C 139.16176,48.92621 142,46.979168 142,42.344732 c 0,-4.05011 3.18419,-15.727739 4.79764,-17.594732 1.54931,-1.792786 6.72512,-2.340284 8.92292,-0.943868 1.68601,1.071243 3.7676,7.329003 5.3077,15.956162 0.71304,3.994261 1.9134,7.774324 2.66746,8.40014 1.71615,1.424277 15.47931,2.845979 16.72246,1.72739 0.505,-0.454401 1.08218,-5.450452 1.28262,-11.102335 0.60696,-17.114387 3.99747,-25.832985 9.50815,-24.449895 1.43068,0.359078 3.07004,2.024247 4.08191,4.146164 1.80193,3.778687 3.68739,17.352478 3.70094,26.643797 0.005,3.286078 0.52829,6.048787 1.2582,6.639951 0.6875,0.556817 7.325,1.778963 14.75,2.71588 7.425,0.936917 24.525,3.235498 38,5.107957 21.33959,2.965308 24.72574,3.677025 26.25,5.517349 2.00692,2.423066 2.28087,7.632077 0.59587,11.330232 -2.6111,5.730742 -0.5001,5.335611 -80.34587,15.038959 -39.62466,4.815431 -35.87938,3.619677 -36.5723,11.676447 -0.31477,3.65988 -1.2588,7.70988 -2.09785,9 -0.97607,1.50081 -1.7655,6.12754 -2.19178,12.84567 -0.36644,5.775 -1.17661,15.81723 -1.80039,22.31606 -0.95017,9.89944 -0.90734,12.02314 0.26409,13.09276 0.76903,0.70218 9.04823,3.19863 18.39823,5.54765 9.35,2.34902 18.0125,4.90515 19.25,5.68029 2.74305,1.71818 3.17589,8.34993 0.68016,10.4212 -0.86341,0.71657 -8.62591,2.32772 -17.25,3.58034 -12.80195,1.85944 -16.2841,2.06212 -18.97038,1.10417 -2.54914,-0.90906 -3.73163,-0.89767 -5.25,0.0506 -1.53029,0.95568 -2.38185,0.96032 -3.88569,0.0212 -1.49518,-0.93376 -2.51212,-0.93565 -4.54705,-0.008 -2.9341,1.33686 -5.39197,1.37517 -10.52704,0.16408 z"
         id="path3275"
         inkscape:connector-curvature="0" />
      <path
         style="fill:#010101"
         d="m 136.87638,186.54305 c -0.25132,-0.25133 -6.25518,-1.23018 -13.3419,-2.17524 C 110.03583,182.56769 107,181.21491 107,177 c 0,-4.48323 1.74142,-5.15149 38.25106,-14.67852 3.45277,-0.90098 3.6177,-3.42991 1.65295,-25.34619 -1.4674,-16.36854 -2.42372,-22.64859 -4.02159,-26.40936 -1.4101,-3.31882 -1.93109,-6.16639 -1.59147,-8.69845 0.6346,-4.731302 -0.82955,-6.778093 -5.29423,-7.401022 C 134.07352,94.198126 121.7,92.632111 108.5,90.986423 95.3,89.340736 75.05,86.687921 63.5,85.09128 51.95,83.494638 39.824071,81.8775 36.553492,81.497639 31.64879,80.927984 30.028223,80.228223 27.303492,77.503492 24.658857,74.858857 24,73.396531 24,70.171429 24,63.023791 22.497249,63.532089 57,59.00934 69.925,57.315083 83.511199,55.494876 87.191553,54.964436 90.871907,54.433996 95.398399,54 97.250423,54 c 6.458667,0 7.023817,-1.176432 8.316297,-17.311431 0.88443,-11.041022 1.63243,-15.344789 3.10523,-17.866572 2.58461,-4.425468 6.03039,-4.495836 8.55408,-0.174685 1.83854,3.148016 3.75191,15.610216 3.76638,24.531259 0.0113,6.996582 1.70523,8.208181 10.2925,7.362013 10.58859,-1.043373 9.5542,0.262287 13.1832,-16.640482 0.89743,-4.179943 2.14923,-8.117443 2.78179,-8.75 C 147.88245,24.517546 149.87463,24 151.67695,24 c 4.31976,0 5.86759,2.475438 7.84275,12.542852 0.85862,4.376432 1.77145,8.949465 2.02851,10.162296 0.32412,1.529228 1.61444,2.523706 4.20958,3.244423 4.30929,1.196763 16.22038,1.416475 16.28693,0.300429 0.0246,-0.4125 0.25994,-5.7 0.52298,-11.75 0.70664,-16.253115 3.46529,-24.218041 8.08012,-23.329307 4.26545,0.82145 7.32445,13.111405 7.34459,29.507878 0.005,3.931045 0.51297,6.683955 1.39691,7.567896 0.85752,0.857513 7.07775,2.086343 16.25,3.210245 40.2141,4.927548 61.78831,8.40762 63.08094,10.175398 1.55866,2.131598 1.66274,7.433193 0.20858,10.624733 -2.29831,5.044228 -2.0618,5.001547 -78.92884,14.243858 -16.225,1.950855 -31.3,4.098775 -33.5,4.773154 l -4,1.226145 -0.52525,6.5 c -0.28888,3.575 -1.23532,7.85 -2.10318,9.5 -1.06525,2.02528 -1.95751,8.36095 -2.74621,19.5 -0.64255,9.075 -1.40635,18.975 -1.69732,22 -0.29097,3.025 -0.15681,6.03895 0.29814,6.69767 0.45495,0.65872 8.78493,3.2209 18.51107,5.69372 9.72615,2.47282 18.60164,4.9872 19.72332,5.58751 1.52896,0.81827 2.03943,2.08924 2.03943,5.07772 0,5.09444 -0.54763,5.32403 -18.90055,7.92394 -11.93011,1.69005 -14.98205,1.82974 -17.79022,0.8143 -2.67356,-0.96678 -3.80369,-0.96716 -5.34945,-0.002 -1.53029,0.95568 -2.38185,0.96032 -3.88569,0.0212 -1.49518,-0.93376 -2.51212,-0.93565 -4.54705,-0.008 -2.59145,1.18074 -7.76618,1.6218 -8.65066,0.73732 z"
         id="path3273"
         inkscape:connector-curvature="0" />
    </g>
  </g>
</svg>
