<?xml version="1.0" encoding="UTF-8" standalone="no"?>
<!-- Created with Inkscape (http://www.inkscape.org/) -->

<svg
   xmlns:dc="http://purl.org/dc/elements/1.1/"
   xmlns:cc="http://creativecommons.org/ns#"
   xmlns:rdf="http://www.w3.org/1999/02/22-rdf-syntax-ns#"
   xmlns:svg="http://www.w3.org/2000/svg"
   xmlns="http://www.w3.org/2000/svg"
   xmlns:sodipodi="http://sodipodi.sourceforge.net/DTD/sodipodi-0.dtd"
   xmlns:inkscape="http://www.inkscape.org/namespaces/inkscape"
   width="266.19278"
   height="205.79797"
   id="svg3083"
   version="1.1"
   inkscape:version="0.48.4 r9939"
   sodipodi:docname="New document 7">
  <defs
     id="defs3085" />
  <sodipodi:namedview
     id="base"
     pagecolor="#ffffff"
     bordercolor="#666666"
     borderopacity="1.0"
     inkscape:pageopacity="0.0"
     inkscape:pageshadow="2"
     inkscape:zoom="0.35"
     inkscape:cx="42.382103"
     inkscape:cy="97.184697"
     inkscape:document-units="px"
     inkscape:current-layer="layer1"
     showgrid="false"
     fit-margin-top="0"
     fit-margin-left="0"
     fit-margin-right="0"
     fit-margin-bottom="0"
     inkscape:window-width="457"
     inkscape:window-height="414"
     inkscape:window-x="0"
     inkscape:window-y="25"
     inkscape:window-maximized="0" />
  <metadata
     id="metadata3088">
    <rdf:RDF>
      <cc:Work
         rdf:about="">
        <dc:format>image/svg+xml</dc:format>
        <dc:type
           rdf:resource="http://purl.org/dc/dcmitype/StillImage" />
        <dc:title></dc:title>
      </cc:Work>
    </rdf:RDF>
  </metadata>
  <g
     inkscape:label="Layer 1"
     inkscape:groupmode="layer"
     id="layer1"
     transform="translate(-332.6179,-423.74891)">
    <g
       id="g3049"
       transform="translate(325.29023,412.62391)">
      <path
         style="fill:#d3d3d3"
         d="m 134.8857,215.10853 c -1.99854,-1.61832 -2.39142,-2.99148 -2.72052,-9.50849 -0.34314,-6.79521 -0.61555,-7.67271 -2.52491,-8.13324 -1.17715,-0.28393 -10.59779,-1.14147 -20.93477,-1.90566 -19.86051,-1.46824 -22.031412,-2.07653 -25.319272,-7.09443 -1.983759,-3.0276 -1.337587,-8.75327 1.321028,-11.7055 2.407931,-2.67386 3.84823,-3.16741 25.657484,-8.79209 10.37561,-2.6759 19.10476,-5.10529 19.39812,-5.39864 0.29335,-0.29336 0.0154,-7.62922 -0.61765,-16.30193 -0.63305,-8.6727 -1.1497,-20.10597 -1.14811,-25.40726 l 0.003,-9.63871 -3.25,-0.58724 c -1.7875,-0.32299 -10,-1.276 -18.25,-2.11781 C 75.181588,105.32188 28.293152,99.911267 23.311678,98.918159 16.271353,97.514597 11.955466,94.415114 9.1401653,88.740793 6.2324521,82.880211 6.7912043,78.446335 11.048501,73.597541 14.763533,69.366354 15.9518,69.083789 49.646735,64.419059 L 76.79347,60.660863 77.167277,54.045394 C 77.505307,48.0631 77.918304,46.978649 81.482305,42.714962 83.649976,40.121733 86.056173,38 86.829409,38 c 0.773237,0 3.230459,1.824574 5.460494,4.054609 3.536342,3.536342 4.11233,4.750648 4.506183,9.5 0.423038,5.101277 0.617531,5.444528 3.077744,5.431736 C 106.4543,56.95213 107,56.341962 107,49.018227 c 0,-5.062025 0.46543,-7.344497 1.86244,-9.133368 1.02434,-1.311673 2.17982,-3.397837 2.56772,-4.63592 0.83302,-2.658728 3.80016,-4.481524 5.95131,-3.656049 1.35735,0.520864 3.42569,3.290052 7.35379,9.845605 0.67939,1.133828 1.24189,4.514005 1.25,7.511505 0.0262,9.671862 1.87268,4.163472 2.91379,-8.692162 1.26407,-15.608919 3.42218,-23.508902 7.31753,-26.786622 3.74265,-3.149238 6.84759,-3.129543 10.64711,0.06754 3.78509,3.184947 6.03571,12.407252 6.98259,28.612388 0.44246,7.57241 1.05768,11.321759 1.90372,11.601789 0.87921,0.291008 1.25,-0.955361 1.25,-4.201715 C 157,44.779988 159.22364,38 160.78846,38 c 0.48978,0 1.40309,-1.125 2.02959,-2.5 1.47481,-3.236865 5.62841,-3.402816 7.29359,-0.291404 0.6501,1.214727 2.12309,2.970646 3.27332,3.902041 1.74139,1.410097 2.15285,3.048398 2.45906,9.791404 0.34029,7.49318 0.52788,8.098979 2.51187,8.111614 1.17926,0.0075 3.09781,0.269617 4.26344,0.58246 1.94016,0.520718 2.15885,0.09225 2.58679,-5.068138 0.37826,-4.561295 1.02336,-6.180243 3.38067,-8.484101 1.60227,-1.565936 3.49345,-3.566419 4.20264,-4.445516 1.63749,-2.029821 3.76913,-2.040313 5.42114,-0.02668 0.70919,0.864421 2.11637,2.478863 3.12708,3.587648 C 204.17158,46.26826 206,51.479962 206,56.448829 c 0,5.193643 -1.13439,4.661019 15,7.04288 43.8889,6.479156 44.32664,6.572284 48.22688,10.259933 6.01621,5.688281 5.69846,13.004591 -0.88109,20.287366 -4.21627,4.666906 -6.62717,5.266355 -31.84579,7.918152 -10.45,1.09884 -22.6,2.46771 -27,3.04192 C 201.6593,106.02231 155.71098,111 154.10641,111 c -0.44832,0 -1.1467,8.4375 -1.55196,18.75 -0.40525,10.3125 -1.0535,22.04298 -1.44055,26.06773 -0.38705,4.02476 -0.45851,7.46765 -0.15881,7.65088 0.2997,0.18323 8.64491,2.43168 18.54491,4.99654 21.53479,5.57919 24.41467,6.8375 26.79558,11.70787 1.60051,3.27398 1.64266,4.03448 0.38802,7 -2.99753,7.08507 -4.62666,7.54887 -33.98888,9.67638 -7.04291,0.51031 -13.10252,1.22507 -13.4658,1.58835 -0.36329,0.36328 -0.95487,3.87186 -1.31464,7.79684 -0.52323,5.70837 -1.10251,7.49941 -2.89498,8.95087 -2.89651,2.34545 -7.18227,2.31291 -10.1336,-0.0769 z"
         id="path3063"
         inkscape:connector-curvature="0" />
      <path
         style="fill:#ababab"
         d="M 134.5567,213.77749 C 133.51815,212.29476 133,209.29084 133,204.75274 c 0,-6.28499 -0.18494,-6.87256 -2.43216,-7.72695 -1.33768,-0.50858 -11.28614,-1.58468 -22.10768,-2.39132 -19.240934,-1.43422 -19.739406,-1.52782 -22.567841,-4.23763 -3.570415,-3.42068 -3.928579,-8.80973 -0.845963,-12.72864 2.320039,-2.94945 6.626614,-4.40357 30.424784,-10.27296 l 15.7806,-3.892 -0.62671,-8.00162 c -0.34469,-4.40089 -0.9211,-16.23068 -1.28091,-26.28842 -0.35981,-10.05775 -0.9763,-18.48588 -1.36998,-18.72918 C 127.18498,109.99629 113.80343,108.40463 77.5,104.48038 21.389566,98.415091 16.585765,97.586751 12.850287,93.332554 9.4763323,89.490083 7.769927,84.751989 8.3099694,80.725672 8.8736987,76.522757 12.791228,71.520416 16.426068,70.362126 17.566731,69.998639 31.775,67.837894 48,65.56047 L 77.5,61.4197 78,54.435301 c 0.440008,-6.14638 0.919946,-7.489225 4,-11.191824 1.925,-2.314084 4.193515,-4.215537 5.041145,-4.225451 0.84763,-0.0099 3.21013,1.797183 5.25,4.015772 3.334167,3.626283 3.708855,4.586023 3.708855,9.5 0,6.067084 0.161201,6.16135 8.25,4.824354 l 3.75,-0.619837 0,-7.71417 c 0,-6.370287 0.33869,-8.020677 1.94413,-9.473587 1.06928,-0.967679 2.08178,-2.678966 2.25,-3.80286 0.6762,-4.517571 6.76135,-4.801273 7.63584,-0.355998 0.18149,0.922534 1.41899,2.766347 2.75,4.097362 C 124.60627,41.51536 125,42.892668 125,47.954545 125,53.333333 125.22055,54 127,54 c 1.40272,0 2.00473,-0.671943 2.01583,-2.25 0.0519,-7.3843 2.14751,-25.986075 3.3931,-30.119728 C 134.31783,15.295388 137.4287,12 141.5,12 c 7.04848,0 10.14395,8.099766 11.17839,29.25 0.34298,7.0125 0.96884,12.75 1.39081,12.75 0.42198,0 1.47903,0.273145 2.34901,0.606989 C 157.74371,55.115631 158,54.313133 158,49.654042 158,44.235869 159.5264,39 161.10595,39 c 0.4317,0 1.37804,-1.2375 2.10296,-2.75 1.56188,-3.258753 4.78075,-3.634783 6.26156,-0.731479 0.56624,1.110186 2.04203,3.022686 3.27953,4.25 1.93664,1.920698 2.25,3.280385 2.25,9.762864 0,8.183487 -0.19671,7.92421 6.75,8.89706 l 4.25,0.59519 0,-5.511817 c 0,-4.178485 0.48381,-5.995627 2,-7.511818 1.1,-1.1 2.34329,-2 2.76287,-2 0.41958,0 1.20708,-1.0125 1.75,-2.25 1.22339,-2.788518 4.39574,-2.923439 5.87814,-0.25 0.60995,1.1 1.6715,2.359866 2.35901,2.799702 C 203.20931,45.873035 205,50.992591 205,56.45034 c 0,3.052313 0.3375,5.560002 0.75,5.572642 0.4125,0.01264 6.6,0.921124 13.75,2.018853 7.15,1.097728 19.075,2.907692 26.5,4.022142 17.92896,2.691035 20.39831,3.432237 23.42729,7.031982 4.50099,5.349121 4.59589,9.634401 0.35149,15.871496 -4.84826,7.124469 -4.98375,7.159093 -44.77878,11.442785 -48.52403,5.22332 -70.64115,7.70527 -71.60183,8.03504 -1.01416,0.34814 -2.76095,29.30973 -2.86238,47.45795 l -0.0358,6.40324 18.65785,4.83648 c 23.18699,6.01052 23.3958,6.09187 25.8805,10.08212 2.60003,4.17548 1.93708,8.3896 -1.86559,11.85869 -2.6343,2.40321 -3.90975,2.66776 -18.25248,3.7858 -28.31335,2.20708 -26.61935,1.87581 -27.31241,5.34111 C 147.27354,201.8823 147,205.11862 147,207.40249 147,213.32537 144.82235,216 140,216 c -2.88268,0 -4.28869,-0.57408 -5.4433,-2.22251 z"
         id="path3061"
         inkscape:connector-curvature="0" />
      <path
         style="fill:#939393"
         d="m 136.22251,214.4433 c -1.85068,-1.29627 -2.22479,-2.50922 -2.23616,-7.25 -0.0205,-8.53754 -0.67501,-10.0379 -4.85097,-11.1197 C 127.13592,195.55563 118.525,194.636 110,194.02997 c -19.781685,-1.40624 -21.702511,-1.73248 -24.055777,-4.08575 -2.849302,-2.8493 -2.66333,-9.92003 0.335,-12.73681 2.230891,-2.09581 17.556817,-6.77275 35.220777,-10.74814 4.4,-0.99025 8.6049,-2.34466 9.34422,-3.0098 1.10439,-0.99357 1.14899,-3.69404 0.25,-15.13596 C 130.4924,140.65386 130,129.38197 130,123.26487 c 0,-8.77759 -0.33124,-11.45326 -1.57143,-12.69344 -0.86428,-0.86429 -1.87678,-1.56697 -2.25,-1.56151 -0.37321,0.005 -6.75357,-0.67272 -14.17857,-1.50705 -7.425,-0.83434 -29.925,-3.32256 -50,-5.52938 C 22.06523,97.583506 20.944325,97.41796 16.363362,95.233451 8.0486006,91.268418 6.4767825,77.193746 13.811996,72.387529 c 2.287086,-1.498556 51.8763,-9.326603 59.366575,-9.371481 4.332671,-0.02596 5.81611,-2.388069 5.864066,-9.337477 0.03959,-5.737353 0.323378,-6.498377 3.97396,-10.656947 l 3.931322,-4.478375 4.02604,3.931323 c 3.643164,3.557454 4.027497,4.411298 4.041354,8.978376 0.0216,7.120093 0.713762,7.855143 6.594557,7.003194 2.68957,-0.389637 5.45263,-1.156766 6.14013,-1.704731 0.79538,-0.633948 1.25,-3.658035 1.25,-8.314839 0,-4.252069 0.46175,-7.603917 1.10203,-7.999632 0.60612,-0.374602 1.73716,-2.20116 2.51342,-4.059017 1.77255,-4.242298 4.75997,-4.486417 6.79293,-0.55509 0.80286,1.552558 2.16442,3.407658 3.02568,4.122444 1.12317,0.932149 1.56594,3.11173 1.56594,7.708553 0,4.798324 0.38016,6.554821 1.51273,6.98943 3.20025,1.22805 4.28623,-1.494685 4.96115,-12.438394 1.20303,-19.507007 3.39194,-27.078219 8.43216,-29.165947 3.7008,-1.53292 7.51788,0.221188 9.46517,4.349638 C 150.30819,21.495144 152,34.111673 152,44.449915 c 0,8.748919 1.05106,11.067699 4.70196,10.373203 1.45965,-0.277663 1.89214,-1.625932 2.29804,-7.164081 0.33863,-4.62034 1.01207,-7.199161 2.08666,-7.990542 0.87266,-0.642672 2.12599,-2.180995 2.78518,-3.418495 1.53107,-2.874285 3.72654,-2.874285 5.25168,0 0.65663,1.2375 2.02246,2.838017 3.03518,3.556704 1.49378,1.060078 1.84419,2.664357 1.85661,8.5 0.008,3.956313 0.42916,7.847506 0.93497,8.647095 0.60911,0.962869 2.71448,1.469401 6.23469,1.5 L 186.5,58.5 l 0.29891,-5.716734 c 0.26276,-5.025278 0.65586,-5.970899 3.25,-7.818094 C 191.67201,43.809424 193,42.219454 193,41.431906 193,40.571206 193.99728,40 195.5,40 c 1.5119,0 2.5,0.570447 2.5,1.443296 0,0.793813 0.82859,2.031313 1.8413,2.75 2.96121,2.10146 4.1587,5.303026 4.1587,11.118518 0,3.137501 0.5295,5.88051 1.25,6.475428 1.16526,0.962163 6.81883,1.920557 43.25,7.33175 7.7,1.143696 15.36977,2.71707 17.04394,3.496386 3.75007,1.74564 6.45606,6.126095 6.45606,10.451057 0,4.543127 -4.24848,11.359468 -8.2159,13.181723 -1.86633,0.857216 -12.13412,2.431157 -23.7841,3.645845 -11.275,1.175587 -23.875,2.593837 -28,3.151657 -4.125,0.55782 -18.075,2.12555 -31,3.48384 -28.69938,3.01603 -28.88334,3.05226 -29.44734,5.80016 -0.45596,2.22151 -1.94853,36.77541 -2.01548,46.65953 l -0.0372,5.4892 20,5.2812 c 11,2.90466 21.125,6.10548 22.5,7.11295 4.73009,3.46575 5.17295,10.02513 0.94292,13.96601 -1.64556,1.53307 -4.73921,2.11454 -16.23789,3.05199 -7.81277,0.63695 -17.22377,1.41594 -20.91334,1.73108 -3.68957,0.31514 -7.2,1.16544 -7.80096,1.88955 -0.60096,0.72411 -1.36179,4.52678 -1.69073,8.45038 -0.47504,5.66636 -1.02459,7.43257 -2.67154,8.58613 -2.66065,1.86359 -4.63602,1.83575 -7.40595,-0.10438 z"
         id="path3059"
         inkscape:connector-curvature="0" />
      <path
         style="fill:#6b6b6b"
         d="m 137.27992,214.97058 c -2.5371,-1.01023 -3.16066,-3.03921 -3.52252,-11.46182 -0.22717,-5.28762 -0.551,-6.12918 -2.7574,-7.16579 -1.375,-0.646 -11.43552,-1.85411 -22.35671,-2.68469 -18.084533,-1.37537 -20.07031,-1.71082 -22.250002,-3.75853 -2.827441,-2.65624 -3.233853,-8.25466 -0.846655,-11.66287 1.730513,-2.47065 5.141919,-3.59609 29.453367,-9.7168 l 16.5,-4.15408 -0.0824,-6.433 c -0.19654,-15.33945 -1.79103,-48.04578 -2.35944,-48.39707 C 128.38699,109.12114 120.05654,108.1495 64,101.94778 20.813514,97.169907 21.456881,97.262969 17.029511,95.15353 9.492126,91.56231 6.746928,80.091639 12.069051,74.426499 15.131151,71.167043 17.027305,70.758449 49,66.468418 64.125,64.438976 77.0625,62.617479 77.75,62.420647 78.595171,62.178673 79,59.820586 79,55.139523 c 0,-6.312068 0.286907,-7.281353 3.25,-10.979771 1.7875,-2.231088 3.871865,-4.07975 4.631923,-4.108138 0.760058,-0.02839 2.897558,1.555427 4.75,3.519588 C 94.694044,46.817996 95,47.693917 95,53.213658 l 0,6.071255 6.08507,-0.636016 c 3.34679,-0.349809 6.49679,-0.890472 7,-1.201473 C 108.58828,57.136422 109,53.378268 109,49.095971 c 0,-6.441425 0.33573,-8.089831 1.94413,-9.545413 1.06928,-0.967679 2.08178,-2.724924 2.25,-3.904987 0.41498,-2.910956 5.10744,-3.03369 5.66315,-0.148123 0.21157,1.098597 1.45524,2.98961 2.7637,4.202251 C 123.66432,41.593404 124,42.837762 124,48.518673 l 0,6.614172 2.75,-0.316423 c 2.73495,-0.314691 2.75429,-0.371139 3.53332,-10.316422 1.10483,-14.104423 3.31376,-25.48142 5.52508,-28.456684 2.51109,-3.378587 8.04637,-3.966264 10.6158,-1.127072 2.74734,3.035771 4.56024,12.144331 5.25791,26.417327 0.60659,12.409741 0.70753,12.864072 3.05651,13.757154 3.58994,1.36489 4.26138,0.407999 4.26138,-6.073017 0,-4.665446 0.47627,-6.442116 2.32981,-8.690983 1.28139,-1.554699 2.61727,-3.614225 2.96861,-4.576725 0.90044,-2.466731 3.58843,-2.17529 4.61157,0.5 0.47327,1.2375 1.81213,3.107244 2.97525,4.154988 1.78198,1.605216 2.11476,3.04154 2.11476,9.127555 0,4.565576 0.45984,7.599048 1.25,8.245963 0.6875,0.562868 3.5,1.180468 6.25,1.372445 l 5,0.349049 0.26372,-4.5 c 0.40501,-6.910934 1.06259,-8.810096 3.29589,-9.518919 1.13023,-0.35872 2.46804,-1.738713 2.97292,-3.06665 1.19202,-3.135244 3.75974,-3.091012 4.96747,0.08557 0.52277,1.375 1.40008,2.5 1.94957,2.5 1.93164,0 4.05043,5.958838 4.05043,11.391323 0,3.019854 0.40183,5.738989 0.89296,6.042524 0.84201,0.520388 8.35161,1.730221 41.60704,6.703096 17.72007,2.649783 20.37019,3.535798 23.21344,7.76094 2.86383,4.255722 2.86909,7.52587 0.0201,12.5081 -4.04824,7.079477 -5.18021,7.476145 -28.80628,10.094435 -11.785,1.306031 -25.02727,2.835691 -29.42727,3.399231 -4.4,0.56354 -19.25,2.21428 -33,3.66832 -13.75,1.45403 -25.5625,3.10117 -26.25,3.66031 -0.80177,0.65207 -1.25,3.75006 -1.25,8.63959 0,4.19264 -0.50434,16.08321 -1.12074,26.42348 -0.61641,10.34027 -0.89063,19.03061 -0.60937,19.31187 0.28125,0.28126 9.08219,2.73593 19.55763,5.45483 10.47543,2.7189 20.1781,5.37379 21.56147,5.89974 3.3578,1.27664 5.92065,6.35594 5.09766,10.10301 -1.23241,5.61109 -3.81761,6.54969 -21.69921,7.87826 -24.61726,1.82902 -26.06952,2.10244 -26.89322,5.06325 -0.38217,1.37373 -0.73972,4.77418 -0.79454,7.55656 -0.14353,7.28452 -3.53274,10.51692 -8.81976,8.41171 z"
         id="path3057"
         inkscape:connector-curvature="0" />
      <path
         style="fill:#525252"
         d="m 135.88487,213.36128 c -0.78131,-0.94143 -1.51976,-4.80205 -1.73542,-9.07292 -0.32533,-6.44246 -0.6605,-7.55842 -2.51243,-8.36538 -1.17536,-0.51215 -10.74613,-1.55993 -21.26837,-2.3284 -10.522246,-0.76847 -20.084746,-1.90746 -21.250003,-2.53108 -5.534134,-2.96178 -6.38464,-10.13591 -1.643733,-13.86511 1.289141,-1.01404 11.764993,-4.2082 23.559206,-7.18337 l 21.23784,-5.35739 -0.64272,-10.07882 c -0.3535,-5.54334 -0.93329,-17.85715 -1.28843,-27.36401 -0.35514,-9.50686 -1.02363,-17.51877 -1.48554,-17.80425 C 127.90372,108.82246 119.00768,107.77044 66,101.97748 27.265009,97.744309 17.965664,96.157998 14.647829,93.217663 11.583129,90.501662 8.8451408,83.489977 9.5997197,80.290013 10.451467,76.677987 14.503721,72.349852 17.859579,71.467818 19.31181,71.086122 33.55,68.912215 49.5,66.636913 L 78.5,62.5 79.064194,55.248659 c 0.480967,-6.181672 0.996121,-7.730562 3.49225,-10.5 1.610431,-1.786763 3.261544,-3.668659 3.669139,-4.181992 0.413457,-0.520714 2.362397,0.687979 4.408448,2.73403 3.21803,3.21803 3.741148,4.435085 4.269575,9.933334 0.667744,6.947829 0.06845,6.607449 9.346394,5.308462 l 4.75,-0.665039 0,-7.303868 c 0,-5.603711 0.43353,-7.859004 1.86244,-9.688727 1.02434,-1.311673 2.17967,-3.397359 2.56739,-4.634859 0.38772,-1.2375 1.46212,-2.247155 2.38756,-2.243677 1.50725,0.0057 2.72597,1.493447 6.91787,8.445162 0.67939,1.126683 1.24189,4.636015 1.25,7.798515 0.0123,4.809805 0.30089,5.747496 1.76474,5.734687 3.56308,-0.03118 4.0965,-1.528013 5.16569,-14.495727 C 132.56539,21.480663 135.71615,13 141.5,13 c 5.73729,0 9.12985,9.843647 10.16702,29.5 0.36464,6.910476 1.09968,12.311601 1.73308,12.734687 0.60495,0.404078 2.1124,0.741578 3.3499,0.75 2.02621,0.01379 2.25,-0.467158 2.25,-4.835464 C 159,45.877048 160.64425,40 162.11926,40 c 0.50799,0 1.4362,-1.125 2.06269,-2.5 C 165.30521,35.034722 168,34.009718 168,36.047749 c 0,0.576262 1.22268,2.180894 2.71708,3.56585 2.4123,2.235648 2.77685,3.434608 3.25,10.688889 l 0.53292,8.170788 4,0.705732 c 8.18601,1.444284 8.5,1.310788 8.5,-3.613908 0,-5.571641 1.3568,-9.226181 3.70166,-9.970411 0.99893,-0.317046 2.2622,-1.542008 2.80728,-2.722136 1.19683,-2.591197 2.64268,-2.663569 3.99106,-0.199774 0.55,1.004972 1.60466,2.210678 2.3437,2.679347 2.21891,1.407155 4.1563,7.266661 4.1563,12.570442 0,4.845037 0.0924,5.002666 3.25,5.544682 3.33624,0.572681 13.09179,2.059717 36.75,5.601796 21.52878,3.223263 23.89699,4.172359 26.65144,10.680954 1.1905,2.813091 1.16481,3.754126 -0.19107,7 -2.34458,5.612742 -6.08599,8.968325 -11.32922,10.160899 -2.54713,0.579346 -13.40615,1.968014 -24.13115,3.085929 -10.725,1.117912 -22.65,2.466982 -26.5,2.997932 -3.85,0.53095 -18.00384,2.12922 -31.45297,3.55173 -13.44914,1.4225 -24.74389,2.76616 -25.09946,2.98591 -0.35557,0.21976 -0.96303,8.70226 -1.34992,18.85002 -0.38689,10.14775 -1.11195,22.40994 -1.61124,27.2493 -0.61159,5.92782 -0.57092,9.00703 0.12465,9.43692 0.56785,0.35095 10.11266,2.96328 21.21069,5.80518 16.65131,4.26395 20.57153,5.61025 22.42825,7.70241 3.05193,3.43892 2.97622,8.39289 -0.1735,11.3519 -2.65669,2.49583 -6.90376,3.16731 -31.43274,4.96963 -7.34593,0.53976 -13.59155,1.2167 -13.87916,1.50431 -0.2876,0.2876 -0.8544,3.90841 -1.25954,8.04623 -0.40514,4.13783 -1.30212,8.20471 -1.99328,9.03751 -1.66416,2.00519 -6.41988,1.93232 -8.12691,-0.12453 z"
         id="path3055"
         inkscape:connector-curvature="0" />
      <path
         style="fill:#2b2b2b"
         d="m 138,214.26111 c -2.48575,-0.92966 -2.96868,-2.45702 -2.98469,-9.43968 -0.0238,-10.3875 0.76109,-10.04174 -27.8782,-12.2804 C 86.636414,190.93855 85,190.32782 85,184.27927 c 0,-7.17742 0.800311,-7.56742 30.5,-14.86309 8.25,-2.02659 15.63061,-4.27098 16.40136,-4.98752 1.18299,-1.09979 1.22149,-3.76691 0.2471,-17.11573 -0.63484,-8.69711 -1.15295,-20.59533 -1.15136,-26.44049 0.002,-7.31961 -0.38855,-10.95243 -1.25474,-11.6713 -1.2899,-1.07052 -6.10514,-1.67812 -61.24236,-7.72766 C 26.878772,96.906881 21.709354,96.194334 17.529056,94.447694 10.7128,91.59968 7.8147064,80.177191 12.574058,74.918166 15.008551,72.228083 17.896739,71.639053 49,67.489306 c 15.125,-2.017953 28.175,-4.01243 29,-4.43217 1.052439,-0.535457 1.649187,-2.975955 2,-8.179322 0.456567,-6.77194 0.799751,-7.730765 3.950703,-11.037888 l 3.450702,-3.621731 3.028625,3.140903 C 92.992788,46.016863 93.538745,47.499837 93.979327,53 L 94.5,59.5 l 6.31092,-0.178111 c 3.471,-0.09796 6.9585,-0.715561 7.75,-1.372445 C 109.59105,57.094509 110,54.507596 110,48.84617 c 0,-5.93593 0.35677,-8.045844 1.43012,-8.45773 0.78657,-0.301834 1.88816,-1.862711 2.44798,-3.468615 1.23809,-3.551588 2.85595,-3.749525 4.09121,-0.50054 0.5059,1.330606 1.73226,2.873249 2.72525,3.428094 1.4004,0.782489 1.91761,2.651427 2.30544,8.330715 0.47662,6.979497 0.62092,7.335962 3.0856,7.622464 1.42207,0.165307 3.08212,-0.297722 3.68899,-1.028952 0.60687,-0.731231 1.40113,-6.041482 1.76503,-11.800559 0.78643,-12.446019 2.81626,-23.339046 4.9582,-26.608071 2.12433,-3.242131 7.85509,-3.307611 9.88755,-0.112976 2.17208,3.414077 3.80262,12.937347 4.49267,26.239635 0.61724,11.898552 0.64324,11.999813 3.42381,13.329415 4.21463,2.015344 5.69815,0.230236 5.69815,-6.856544 0,-4.365919 0.49594,-6.36769 2.0136,-8.127555 1.10748,-1.284223 2.62324,-3.20355 3.36836,-4.265172 1.31516,-1.873792 1.39249,-1.859175 2.6451,0.5 0.70969,1.336622 2.11892,3.018238 3.13164,3.736925 1.49378,1.060078 1.84419,2.664357 1.85661,8.5 0.008,3.956313 0.40921,7.815221 0.89063,8.575352 1.19277,1.88328 11.05081,3.398724 12.77898,1.96447 C 187.46953,59.195363 188,56.613392 188,53.445649 188,48.687624 188.31158,47.914326 191,46 c 1.65,-1.174904 3,-2.780546 3,-3.568094 C 194,41.644358 194.675,41 195.5,41 c 0.825,0 1.5,0.649483 1.5,1.443296 0,0.793813 0.82859,2.031313 1.8413,2.75 2.96121,2.10146 4.1587,5.303026 4.1587,11.118518 0,3.316084 0.52105,5.875731 1.33331,6.549846 1.24204,1.030797 5.8584,1.828795 41.66669,7.202617 18.74255,2.812732 20.72393,3.435007 23.04187,7.236548 2.4776,4.063396 2.46489,6.785511 -0.0547,11.724388 -3.55975,6.977686 -3.85475,7.053544 -44.48714,11.439787 -7.7,0.83121 -26.15,2.85918 -41,4.5066 -14.85,1.64743 -27.75536,3.00276 -28.67857,3.01186 -3.57866,0.0353 -4.82143,2.82767 -4.82143,10.8334 0,4.2207 -0.50518,16.14837 -1.12262,26.50595 -0.72606,12.17965 -0.77962,19.17495 -0.15162,19.80295 0.53405,0.53405 7.90173,2.76278 16.37262,4.95274 27.17643,7.02585 26.84289,6.90724 28.51471,10.1402 1.89583,3.66612 0.999,8.35781 -1.94999,10.20122 -1.27493,0.79696 -8.11681,1.81683 -16.6631,2.48385 -24.73453,1.93046 -26.84323,2.2024 -28.01365,3.61268 -0.62559,0.75379 -1.46053,4.75304 -1.85543,8.88724 -0.39489,4.13419 -0.9234,7.70372 -1.17445,7.93228 -0.99382,0.90478 -4.53874,1.45536 -5.95647,0.92514 z"
         id="path3053"
         inkscape:connector-curvature="0" />
      <path
         style="fill:#010101"
         d="m 137.2,212.8 c -0.66,-0.66 -1.2,-3.78071 -1.2,-6.9349 0,-8.18595 -1.15724,-10.56858 -5.7061,-11.74826 -2.08665,-0.54113 -12.23563,-1.63721 -22.5533,-2.43571 -11.379465,-0.88069 -19.345794,-1.93851 -20.249996,-2.68893 -1.93917,-1.60937 -1.932563,-8.40738 0.01006,-10.35001 1.770327,-1.77032 6.385425,-3.16571 28.443016,-8.59984 9.04402,-2.22809 16.83228,-4.61161 17.30723,-5.29671 0.47496,-0.6851 0.61172,-4.62064 0.30391,-8.74564 -0.3078,-4.125 -0.81162,-15.375 -1.11959,-25 -0.30797,-9.625 -0.76219,-18.49951 -1.00939,-19.72114 C 130.58564,107.1267 135.32293,107.90658 62.5,99.931944 42.15,97.703472 23.140708,95.220499 20.25713,94.414226 15.766867,93.158711 14.726139,92.383512 13.00713,89.013976 9.1000518,81.35547 11.029267,74.902506 17.78618,73.028697 21.917754,71.88294 70.525506,65 74.485337,65 78.972844,65 81,61.793541 81,54.695417 c 0,-5.81074 0.274157,-6.603893 3.5,-10.125692 1.925,-2.10161 3.5,-3.311572 3.5,-2.688804 0,0.622768 1.125,2.110481 2.5,3.306028 2.102465,1.82807 2.502435,3.059375 2.515313,7.743386 0.02206,8.023723 0.503537,8.461277 8.382237,7.61754 C 110.15187,59.610367 111,58.628258 111,49.428571 111,43.333333 111.35897,41.641026 113,40 c 1.1,-1.1 2,-2.675 2,-3.5 0,-2.125703 1.7498,-1.863664 2.45814,0.368116 0.32611,1.027464 1.48143,2.672209 2.56739,3.654988 C 121.55639,41.908517 122,43.604806 122,48.0732 122,55.643747 122.61312,57 126.03556,57 c 4.79525,0 5.70609,-1.942088 6.43624,-13.723384 1.46978,-23.715303 4.76387,-31.896777 11.41034,-28.339692 3.51074,1.878892 6.06219,14.532131 6.09805,30.241647 C 150.00276,55.068541 151.0622,57 156.46444,57 160.45018,57 161,55.903341 161,47.953396 c 0,-4.790841 0.35873,-6.075014 1.93228,-6.917151 1.06275,-0.568767 2.24433,-2.017325 2.62573,-3.219018 0.68757,-2.166326 0.70488,-2.163094 2.03753,0.380365 0.73925,1.410893 2.03267,2.829496 2.87427,3.152449 1.17469,0.450772 1.53019,2.236018 1.53019,7.684316 0,8.7939 0.96109,10.708724 5.76215,11.480225 2.05582,0.330356 4.7178,0.800126 5.91552,1.043932 C 187.20381,62.276289 189,59.525338 189,53.407133 c 0,-4.781163 0.2943,-5.584104 2.39809,-6.542654 1.31895,-0.600953 2.82747,-2.053806 3.35226,-3.228561 L 195.70452,41.5 l 0.69889,2.198848 c 0.38439,1.209366 1.52729,2.461769 2.53977,2.783119 2.23384,0.708994 3.02514,3.360355 3.04317,10.196604 0.0135,5.111349 1.66607,8.292365 4.33508,8.344411 0.64821,0.01264 7.02857,0.921124 14.17857,2.018853 7.15,1.097728 19.075,2.902673 26.5,4.010988 7.425,1.108315 14.97033,2.487313 16.76739,3.06444 3.40484,1.09346 6.23261,5.119158 6.23261,8.872915 0,3.894835 -3.95609,10.09549 -7.30891,11.45576 -1.7551,0.712059 -12.41609,2.260094 -23.69109,3.440077 -11.275,1.179984 -23.875,2.601825 -28,3.159645 -4.125,0.55782 -18.075,2.12555 -31,3.48384 -27.52877,2.89301 -28.74843,3.10948 -29.87144,5.30178 -0.47015,0.9178 -1.14228,9.54372 -1.49363,19.16872 -0.35135,9.625 -0.92713,21.83142 -1.27951,27.12537 l -0.64069,9.62538 3.39263,1.06879 c 1.86595,0.58783 10.59264,2.91182 19.39264,5.1644 8.8,2.25259 17.3962,4.54073 19.10267,5.08476 5.04098,1.6071 7.05047,8.27816 3.54848,11.78015 -1.49357,1.49357 -4.61619,2.07473 -16.25,3.02431 -25.96579,2.11941 -27.54259,2.2872 -28.80057,3.06468 -1.52755,0.94408 -3.04462,7.16289 -3.07672,12.61216 -0.0252,4.27976 -1.37913,6.45 -4.02386,6.45 -0.88,0 -2.14,-0.54 -2.8,-1.2 z"
         id="path3051"
         inkscape:connector-curvature="0" />
    </g>
  </g>
</svg>
