<?xml version="1.0" encoding="UTF-8" standalone="no"?>
<!-- Created with Inkscape (http://www.inkscape.org/) -->

<svg
   xmlns:dc="http://purl.org/dc/elements/1.1/"
   xmlns:cc="http://creativecommons.org/ns#"
   xmlns:rdf="http://www.w3.org/1999/02/22-rdf-syntax-ns#"
   xmlns:svg="http://www.w3.org/2000/svg"
   xmlns="http://www.w3.org/2000/svg"
   xmlns:sodipodi="http://sodipodi.sourceforge.net/DTD/sodipodi-0.dtd"
   xmlns:inkscape="http://www.inkscape.org/namespaces/inkscape"
   width="505.94904"
   height="299.79123"
   id="svg2"
   version="1.1"
   inkscape:version="0.48.4 r9939"
   sodipodi:docname="New document 1">
  <defs
     id="defs4" />
  <sodipodi:namedview
     id="base"
     pagecolor="#ffffff"
     bordercolor="#666666"
     borderopacity="1.0"
     inkscape:pageopacity="0.0"
     inkscape:pageshadow="2"
     inkscape:zoom="0.35"
     inkscape:cx="230.83166"
     inkscape:cy="44.181331"
     inkscape:document-units="px"
     inkscape:current-layer="layer1"
     showgrid="false"
     fit-margin-top="0"
     fit-margin-left="0"
     fit-margin-right="0"
     fit-margin-bottom="0"
     inkscape:window-width="614"
     inkscape:window-height="498"
     inkscape:window-x="199"
     inkscape:window-y="172"
     inkscape:window-maximized="0" />
  <metadata
     id="metadata7">
    <rdf:RDF>
      <cc:Work
         rdf:about="">
        <dc:format>image/svg+xml</dc:format>
        <dc:type
           rdf:resource="http://purl.org/dc/dcmitype/StillImage" />
        <dc:title></dc:title>
      </cc:Work>
    </rdf:RDF>
  </metadata>
  <g
     inkscape:label="Layer 1"
     inkscape:groupmode="layer"
     id="layer1"
     transform="translate(-144.16834,-276.75228)">
    <g
       id="g3180"
       transform="translate(-4.2401243,-79.731937)">
      <path
         style="fill:#e4e4e4"
         d="m 396.24521,655.00543 c -1.43657,-0.78076 -3.17866,-2.78775 -3.87132,-4.45996 l -1.25937,-3.0404 -16.4108,0 c -12.0683,0 -17.32844,-0.38342 -19.87868,-1.44897 -3.40758,-1.42378 -3.46788,-1.40639 -3.46788,1 0,1.34693 -0.9,3.34897 -2,4.44897 -2.1646,2.1646 -2.90857,2.36428 -4.6003,1.23469 -2.95627,-1.97396 -3.3997,-5.57359 -3.3997,-27.59752 0,-19.11604 0.236,-22.73032 1.57143,-24.06574 3.05975,-3.05975 8.42857,-0.83033 8.42857,3.5 0,1.837 0.90093,1.92857 18.975,1.92857 l 18.975,0 -0.45208,-2.75 c -1.32688,-8.07146 -3.89674,-48.39511 -5.12697,-80.4473 l -0.67927,-17.69731 -5.09584,-0.51084 c -2.80271,-0.28096 -8.24584,-0.75335 -12.09584,-1.04974 -7.95443,-0.61238 -59.63527,-5.97441 -72.5,-7.52207 -4.675,-0.56242 -14.125,-1.71134 -21,-2.55316 -14.59739,-1.7874 -22.34567,-2.64358 -49.5,-5.46976 -21.65723,-2.25405 -53.86886,-6.50206 -59.5,-7.84675 -13.74882,-3.28316 -19.17395,-14.85073 -11.33442,-24.16748 5.06544,-6.01994 7.70601,-6.66549 32.33602,-7.90531 12.37412,-0.62289 28.3484,-1.56804 35.4984,-2.10033 7.15,-0.5323 20.9875,-1.263 30.75,-1.62378 l 17.75,-0.65595 0,-7.80306 c 0,-9.36688 0.86435,-11.40937 6.62167,-15.64716 5.09337,-3.74908 7.35213,-4.04142 9.85523,-1.27553 0.98278,1.08596 2.63246,2.24285 3.66595,2.57087 3.11975,0.99017 4.85715,5.77168 4.85715,13.36737 l 0,7.01204 6.25,-0.4676 c 3.4375,-0.25719 11.72744,-0.91525 18.42209,-1.46238 6.69465,-0.54712 14.41238,-0.99477 17.1505,-0.99477 l 4.97841,0 0.3495,-9.08725 c 0.32691,-8.49987 0.52554,-9.22705 3.07301,-11.25 9.57886,-7.60661 10.3582,-7.88743 13.1938,-4.75413 0.95,1.04975 2.98637,2.43016 4.52526,3.06759 3.82219,1.5832 5.05784,4.83933 5.0551,13.32084 l -0.002,7.20295 8.50234,-0.32347 8.50233,-0.32348 0.034,-14.17652 c 0.0495,-20.63419 3.97938,-49.18777 8.08255,-58.72584 3.26314,-7.58539 10.77367,-10.14422 17.58489,-5.99117 4.35679,2.65648 5.9793,6.21205 8.82225,19.33302 3.91754,18.08047 5.47631,31.14076 5.47631,45.88359 l 0,13.82387 6.875,0 c 3.78125,0 8.28125,0.28125 10,0.625 l 3.125,0.625 0,-7.57795 c 0,-8.27542 1.27499,-12.30717 4.18398,-13.23044 1.03426,-0.32826 3.05668,-1.68691 4.49427,-3.01923 3.36423,-3.11786 4.31254,-3.05235 8.42344,0.58194 1.86907,1.65238 4.18581,3.67738 5.14831,4.5 1.42625,1.21898 1.75,3.1607 1.75,10.49568 0,8.42821 0.13121,9 2.06532,9 4.31205,0 40.51458,3.08937 42.18468,3.59986 1.56096,0.47713 1.75,-0.29288 1.75,-7.12818 0,-8.51999 1.86987,-13.14993 5.69891,-14.11096 1.22048,-0.30632 2.74261,-1.1878 3.38252,-1.95883 0.6399,-0.77104 1.9858,-1.40189 2.99088,-1.40189 2.3232,0 10.51662,5.48637 11.32,7.57995 0.33423,0.87099 0.60769,5.30479 0.60769,9.85288 l 0,8.26926 14.25,0.68555 c 7.8375,0.37706 23.475,1.3345 34.75,2.12766 11.275,0.79315 28.375,1.90572 38,2.47238 20.95923,1.23393 23.65149,2.11867 27.39892,9.00394 1.4306,2.62847 2.60108,6.20299 2.60108,7.94337 0,7.29968 -6.77808,14.00324 -15.37045,15.20147 -2.82125,0.39343 -11.87955,1.65988 -20.12955,2.81433 -15.49957,2.16892 -52.45866,6.45293 -70,8.11386 -5.5,0.52077 -13.15,1.37704 -17,1.90281 -3.85,0.52577 -10.15,1.23528 -14,1.57671 -3.85,0.34142 -14.2,1.45028 -23,2.46414 -8.8,1.01387 -19.375,2.11315 -23.5,2.44286 -4.125,0.32971 -13.8,1.25941 -21.5,2.066 -7.7,0.80659 -16.99975,1.72697 -20.66611,2.04529 l -6.66612,0.57876 -0.58092,8.17939 c -0.31951,4.49866 -1.04773,15.82939 -1.61828,25.17939 -1.87289,30.69278 -3.96708,60.93151 -4.48428,64.75 l -0.50793,3.75 18.51182,0 18.51182,0 0,-2.42857 c 0,-2.88714 2.40898,-5.57143 5,-5.57143 1.02143,0 2.56429,0.70714 3.42857,1.57143 2.35357,2.35356 2.35357,48.50358 0,50.85714 -3.22213,3.22213 -7.42857,0.58624 -7.42857,-4.65499 0,-2.92396 -0.0947,-2.9979 -1.82874,-1.42857 -1.56341,1.41487 -4.52199,1.65499 -20.39159,1.65499 l -18.56285,0 -0.63525,2.53102 c -1.31849,5.2533 -10.0714,8.0249 -15.69352,4.96934 z"
         id="path3194"
         inkscape:connector-curvature="0" />
      <path
         style="fill:#a5a5a5"
         d="m 396.57395,653.94437 c -1.22551,-0.85839 -2.89749,-2.85495 -3.7155,-4.4368 l -1.48728,-2.8761 -17.92914,-0.3132 c -17.39248,-0.30383 -18.0063,-0.38576 -20.507,-2.73751 l -2.57787,-2.42432 0,3.97432 c 0,4.28645 -1.36415,6.37431 -4.16482,6.37431 -3.4339,0 -3.88049,-3.2975 -3.60403,-26.61125 0.24107,-20.32933 0.4497,-22.78628 2.01885,-23.7754 2.41036,-1.51938 5.15896,0.32613 5.56642,3.73751 l 0.31642,2.64914 19.37457,0 c 10.656,0 19.55837,-0.3375 19.78302,-0.75 0.22466,-0.4125 -0.37548,-9.975 -1.33364,-21.25 -1.78395,-20.99238 -2.42055,-32.17991 -3.59911,-63.25 -0.37031,-9.7625 -0.93978,-17.76021 -1.26549,-17.77269 -4.94577,-0.1895 -30.63769,-2.57904 -53.09219,-4.93797 -27.99831,-2.94132 -32.92118,-3.49894 -58,-6.56976 -14.59739,-1.7874 -22.34567,-2.64358 -49.5,-5.46976 -21.64401,-2.25267 -53.84878,-6.49932 -59.52353,-7.849 -5.03556,-1.19767 -7.26577,-2.57734 -10.95111,-6.77471 -2.8795,-3.27958 -3.19223,-4.2033 -2.75033,-8.12383 0.52696,-4.67518 4.65118,-10.0748 9.72497,-12.73239 1.61677,-0.84684 10.44906,-1.70829 25,-2.43835 12.375,-0.62088 28.125,-1.55666 35,-2.07951 6.875,-0.52284 20.9375,-1.25435 31.25,-1.62557 l 18.75,-0.67495 0,-8.26897 c 0,-4.54793 0.26911,-8.97024 0.59801,-9.82736 0.52286,-1.36253 9.65839,-8.60518 10.85417,-8.60518 1.25843,0 9.69142,6.39981 10.5521,8.00799 0.54764,1.02329 0.99572,5.25937 0.99572,9.41351 l 0,7.55299 7.75,-0.5543 c 4.2625,-0.30486 12.7,-0.97258 18.75,-1.48383 6.05,-0.51124 13.5875,-0.93106 16.75,-0.93294 l 5.75,-0.003 0,-7.95295 c 0,-9.06246 1.09856,-12.26213 4.86046,-14.15654 1.45175,-0.73106 3.44457,-2.1305 4.4285,-3.10986 2.2954,-2.28475 3.33485,-2.24286 5.44307,0.21935 0.94185,1.1 2.3079,2 3.03567,2 0.72776,0 2.42775,1.10455 3.77775,2.45454 2.22782,2.22782 2.45455,3.25378 2.45455,11.10699 0,7.47906 0.21451,8.57013 1.58179,8.04546 0.86998,-0.33385 5.14498,-0.60699 9.5,-0.60699 l 7.91821,0 0.034,-14.75 c 0.0463,-20.06162 3.80535,-48.80955 7.63337,-58.37672 4.08605,-10.21201 16.46881,-10.59316 21.13533,-0.65056 4.54909,9.69242 9.1973,39.73951 9.1973,59.45341 l 0,14.32387 7.25,0.011 c 3.9875,0.006 8.9375,0.28993 11,0.63084 l 3.75,0.61984 0,-8.6763 c 0,-7.87854 0.22569,-8.90198 2.45455,-11.13084 1.35,-1.35 3.04175,-2.45455 3.75945,-2.45455 0.7177,0 1.86697,-0.9 2.55393,-2 1.62533,-2.60258 3.38017,-2.52898 5.96083,0.25 1.14919,1.2375 3.25534,3.05851 4.68034,4.04669 2.47845,1.7187 2.5909,2.20699 2.5909,11.25 l 0,9.45331 2.75,0.006 c 4.6153,0.0107 39.56707,2.94526 42.5,3.56833 l 2.75,0.58421 0,-8.11464 c 0,-9.58379 1.2058,-12.0079 7.54872,-15.1757 4.21334,-2.10425 4.42746,-2.11583 7.14737,-0.38655 6.98483,4.44084 7.30391,5.0979 7.30391,15.04061 l 0,9.17401 14.75,0.68271 c 8.1125,0.37549 23.975,1.33491 35.25,2.13205 11.275,0.79714 28.57046,1.93952 38.43435,2.53862 11.68862,0.70993 18.90137,1.58935 20.71111,2.5252 3.62772,1.87597 7.85454,9.1776 7.85454,13.56836 0,6.67566 -6.94592,13.1897 -15.08732,14.14922 -2.42697,0.28604 -11.16268,1.47338 -19.41268,2.63854 -15.35618,2.16877 -52.11773,6.4401 -70,8.13331 -5.5,0.52077 -13.15,1.37704 -17,1.90281 -3.85,0.52577 -10.15,1.23528 -14,1.57671 -3.85,0.34142 -14.2,1.4543 -23,2.47306 -8.8,1.01877 -19.6,2.12966 -24,2.46864 -4.4,0.33899 -13.85,1.25756 -21,2.04127 -7.15,0.78371 -16.44243,1.69488 -20.64985,2.02483 l -7.64985,0.5999 -0.59168,8.67406 c -0.32543,4.77074 -1.06097,16.32407 -1.63454,25.67407 -1.90953,31.1281 -3.98673,60.94956 -4.54495,65.25 l -0.55168,4.25 19.49792,0 19.49791,0 0.31336,-3.14915 c 0.38178,-3.8368 3.01606,-5.84324 5.56336,-4.23742 1.57467,0.99266 1.7768,3.5082 2.01747,25.10794 0.23405,21.00554 0.0674,24.17079 -1.33382,25.3337 -2.54711,2.11391 -4.8828,-0.0728 -5.24115,-4.90691 -0.34488,-4.65252 -0.97908,-5.04621 -3.46047,-2.14816 -1.60024,1.86894 -2.94994,2 -20.59724,2 l -18.88479,0 -0.59139,2.95694 c -1.04111,5.20554 -9.61158,7.86559 -14.44182,4.48236 z"
         id="path3192"
         inkscape:connector-curvature="0" />
      <path
         style="fill:#6b6b6b"
         d="m 397.55642,653.82588 c -0.7154,-0.28672 -2.39053,-2.24765 -3.7225,-4.35763 l -2.42177,-3.83632 -18.12432,-0.31343 -18.12432,-0.31343 -2.19074,-2.75 c -1.20491,-1.5125 -2.51134,-2.75 -2.90317,-2.75 -0.39184,0 -0.71244,2.1949 -0.71244,4.87756 0,5.95686 -2.31924,8.77392 -4.62611,5.61908 -1.13591,-1.55344 -1.35766,-6.40152 -1.14179,-24.96225 l 0.2679,-23.03439 2.49018,0 c 1.98488,0 2.59548,0.60875 3.00911,3 l 0.51894,3 19.60128,0.27067 c 14.92905,0.20616 19.83641,-0.0322 20.58772,-1 0.65519,-0.84399 0.39152,-8.1544 -0.78521,-21.77067 -0.9744,-11.275 -2.32484,-34 -3.00097,-50.5 -0.67613,-16.5 -1.52371,-30.34124 -1.88351,-30.75832 -0.3598,-0.41707 -6.25293,-1.19742 -13.09586,-1.73411 -6.84292,-0.53668 -25.26668,-2.32274 -40.94168,-3.96902 -28.04104,-2.94503 -33.59846,-3.57528 -57.5,-6.52089 -6.6,-0.81338 -24.825,-2.81381 -40.5,-4.44541 -28.54305,-2.97101 -62.40921,-7.34828 -69.02353,-8.92143 -4.96632,-1.1812 -7.35766,-2.62669 -10.47567,-6.33224 -2.2993,-2.73257 -2.63949,-3.89581 -2.22213,-7.59855 0.52102,-4.62253 3.9484,-9.21894 8.72133,-11.69607 1.57926,-0.81963 10.41832,-1.70943 24,-2.41599 11.825,-0.61518 28.7,-1.6035 37.5,-2.19628 8.8,-0.59277 23.425,-1.3779 32.5,-1.74473 l 16.5,-0.66696 0.5,-9.70463 c 0.275,-5.33755 0.95,-10.08738 1.5,-10.55517 2.2742,-1.93429 8.40382,-6.2402 8.88315,-6.2402 1.31766,0 9.46938,6.17331 10.00916,7.57995 0.33423,0.87099 0.60769,4.89526 0.60769,8.94282 0,4.04756 0.36042,7.58195 0.80093,7.8542 0.44052,0.27225 7.07802,0.0411 14.75,-0.51361 7.67199,-0.55474 18.67407,-1.31344 24.44907,-1.68599 l 10.5,-0.67737 0.5,-9 c 0.275,-4.95 0.84926,-9.53856 1.27613,-10.19679 0.42687,-0.65823 2.7906,-2.55634 5.25273,-4.21801 l 4.4766,-3.02122 3.37315,2.21801 c 1.85523,1.21991 4.2165,2.71578 5.24727,3.32416 1.55442,0.91745 1.95941,2.70236 2.37412,10.46348 l 0.5,9.35733 9.49234,-0.30424 c 5.22079,-0.16733 9.83329,-0.51495 10.25,-0.7725 0.41671,-0.25754 0.76135,-6.8542 0.76586,-14.65924 0.0161,-27.83099 5.138,-58.14166 10.69506,-63.29177 5.00737,-4.64068 13.06999,-2.64604 16.18709,4.00458 4.46076,9.51743 9.10965,39.73555 9.10965,59.21333 0,7.84566 0.3375,14.46484 0.75,14.70927 0.4125,0.24444 5.7,0.60849 11.75,0.80902 l 11,0.36459 0.5,-9.33385 c 0.41411,-7.73049 0.83345,-9.57712 2.44113,-10.75 1.06762,-0.77888 2.51429,-1.41615 3.21482,-1.41615 0.70052,0 1.75535,-0.9 2.34405,-2 1.24968,-2.33505 3.81774,-2.63854 4.62069,-0.54609 0.30685,0.79966 2.09273,2.35948 3.96861,3.46628 l 3.4107,2.01236 0,9.56511 c 0,6.76735 0.36562,9.68471 1.25,9.974 0.98817,0.32324 33.95384,3.11022 45.75,3.86779 2.45182,0.15746 2.50503,0.006 2.7608,-7.83945 0.31762,-9.74266 1.32742,-11.8802 6.88284,-14.56953 l 4.31637,-2.08952 4.26999,2.86325 4.27,2.86325 0.5,9.96627 0.5,9.96628 5.5,0.26491 c 3.025,0.14571 16.075,0.94047 29,1.76615 12.925,0.82568 34.3,2.17797 47.5,3.00509 13.2,0.82713 25.2547,2.00658 26.78822,2.62101 3.49299,1.39952 7.71178,8.43951 7.71178,12.86882 0,6.64103 -6.19752,12.33678 -14.5,13.32606 -2.2,0.26214 -10.75,1.42637 -19,2.58719 -14.96744,2.10599 -51.50517,6.35968 -69.5,8.09113 -5.225,0.50275 -13.325,1.38867 -18,1.96871 -13.76768,1.7082 -52.49044,5.82318 -66,7.01367 -6.875,0.60584 -15.425,1.50664 -19,2.00178 -3.575,0.49513 -10.55,1.1936 -15.5,1.55214 -4.95,0.35854 -9.28948,0.8246 -9.64329,1.03568 -0.70199,0.41882 -1.10019,5.41624 -3.4181,42.89766 -0.85032,13.75 -2.15433,33.1 -2.89781,43 -0.74347,9.9 -1.0243,18.3475 -0.62407,18.77222 0.40024,0.42471 9.4702,0.64971 20.15549,0.5 l 19.42778,-0.27222 0.5,-3.5 c 0.41905,-2.93333 0.90476,-3.5 3,-3.5 l 2.5,0 0,24.5 c 0,23.83333 -0.0544,24.5 -2,24.5 -1.70765,0 -2.04418,-0.76742 -2.30226,-5.25 -0.16624,-2.8875 -0.6503,-5.25 -1.07569,-5.25 -0.42538,0 -1.8214,1.11553 -3.10227,2.47895 -2.30095,2.44924 -2.5569,2.48219 -21.36151,2.75 l -19.03266,0.27105 -0.79806,3.08277 c -1.12585,4.34895 -7.56808,6.76603 -12.62829,4.73804 z"
         id="path3190"
         inkscape:connector-curvature="0" />
      <path
         style="fill:#555555"
         d="m 397.57395,652.94437 c -1.22551,-0.85839 -2.89749,-2.85495 -3.7155,-4.4368 l -1.48728,-2.8761 -18.11872,-0.3132 -18.11871,-0.3132 -2.71112,-3.25 c -1.49111,-1.7875 -3.01584,-3.25 -3.38829,-3.25 -0.37244,0 -0.67717,2.1949 -0.67717,4.87756 0,5.93496 -2.31872,8.77464 -4.60821,5.64356 -2.12123,-2.90095 -2.02388,-44.75164 0.10821,-46.52112 2.00942,-1.66767 4.5,0.33722 4.5,3.62244 l 0,2.37756 20.44098,0 c 11.24254,0 20.6547,-0.34579 20.9159,-0.76843 0.26121,-0.42264 -0.35126,-10.66014 -1.36104,-22.75 -1.81327,-21.70989 -2.30758,-30.44752 -3.6337,-64.23157 -0.37241,-9.4875 -0.94374,-17.26021 -1.26962,-17.27269 -4.94438,-0.18934 -30.63712,-2.57894 -53.09252,-4.93797 -27.99831,-2.94132 -32.92118,-3.49894 -58,-6.56976 -13.65294,-1.67175 -19.54847,-2.32471 -49.5,-5.4824 -22.13648,-2.33377 -54.05656,-6.5361 -59.52353,-7.83636 -5.03395,-1.19728 -7.2657,-2.57727 -10.94499,-6.76775 -2.7405,-3.12125 -3.15458,-4.23707 -2.67321,-7.2034 0.60064,-3.70132 5.30199,-9.38668 9.64173,-11.65978 1.61622,-0.84655 10.45399,-1.7094 25,-2.4408 12.375,-0.62223 28.35,-1.56401 35.5,-2.09284 7.15,-0.52883 21.2125,-1.2579 31.25,-1.62017 l 18.25,-0.65866 0,-8.93063 c 0,-8.46752 0.14465,-9.06925 2.78936,-11.60371 3.0921,-2.96319 6.6209,-5.46365 7.71064,-5.46365 1.08974,0 4.61854,2.50046 7.71064,5.46365 2.60451,2.49593 2.78936,3.2118 2.78936,10.80216 l 0,8.12909 8.75,-0.61421 c 4.8125,-0.33781 13.7,-1.03475 19.75,-1.54875 6.05,-0.51399 13.5875,-0.93607 16.75,-0.93795 l 5.75,-0.003 0.0137,-7.75 c 0.008,-4.2625 0.28612,-8.7668 0.61913,-10.00955 0.55874,-2.08531 8.30245,-8.24045 10.36717,-8.24045 1.60777,0 9.7674,5.95148 10.39231,7.57995 0.33423,0.87099 0.60769,5.20307 0.60769,9.62684 l 0,8.04321 3.125,-0.625 c 1.71875,-0.34375 6.44375,-0.625 10.5,-0.625 l 7.375,0 0.034,-14.75 c 0.0463,-20.06729 3.80541,-48.80972 7.6357,-58.38254 2.85267,-7.12953 8.24559,-9.51398 14.36302,-6.35053 4.01927,2.07844 5.65857,5.70334 8.49097,18.77561 3.94709,18.21685 5.47631,31.16918 5.47631,46.38359 l 0,14.32387 6.75,0.009 c 3.7125,0.005 9.1125,0.29246 12,0.63929 l 5.25,0.6306 0,-8.68475 c 0,-7.8875 0.22532,-8.91006 2.45455,-11.13929 1.35,-1.35 3.10185,-2.45454 3.89301,-2.45454 0.79115,0 1.69748,-0.675 2.01407,-1.5 0.76862,-2.003 2.82454,-1.89646 4.82425,0.25 0.89669,0.9625 2.7967,2.55851 4.22224,3.54668 2.47968,1.71891 2.59188,2.2059 2.59188,11.25 l 0,9.45331 2.75,0.006 c 4.18876,0.01 38.86261,2.90805 43.32341,3.62136 l 3.92659,0.62786 0,-8.40531 c 0,-9.63442 0.90855,-11.55825 6.94424,-14.70423 l 3.9884,-2.07887 4.28368,3.26404 4.28368,3.26405 0.2844,9.55229 0.2844,9.5523 14.7156,0.6829 c 8.09358,0.3756 27.3156,1.54448 42.7156,2.59752 15.4,1.05304 32.78361,2.20288 38.63025,2.55522 12.34287,0.74381 15.69183,2.23522 18.82941,8.3854 2.56288,5.02366 2.56771,7.4897 0.0227,11.60757 -2.74764,4.44577 -6.53532,6.7539 -12.48239,7.60648 -23.25103,3.3333 -37.59481,5.1927 -53,6.87042 -9.9,1.07817 -21.6,2.39772 -26,2.93233 -4.4,0.53461 -13.175,1.45295 -19.5,2.04077 -6.325,0.58781 -15.1,1.51472 -19.5,2.05979 -16.39132,2.03056 -42.25857,4.84801 -50,5.44598 -4.4,0.33987 -13.85,1.25916 -21,2.04287 -7.15,0.78371 -16.44243,1.69488 -20.64985,2.02483 l -7.64985,0.5999 -0.59168,8.67406 c -0.32543,4.77074 -1.06027,16.32407 -1.63297,25.67407 -1.63317,26.66331 -3.91207,59.44182 -4.57121,65.75 l -0.60081,5.75 20.59818,0 20.59819,0 0,-2.87756 c 0,-3.72926 2.37364,-5.88716 4.51809,-4.10742 1.29211,1.07235 1.47819,4.70047 1.25,24.37244 -0.25929,22.35651 -0.33348,23.11254 -2.26806,23.11254 -1.70765,0 -2.04418,-0.76742 -2.30226,-5.25 -0.16624,-2.8875 -0.62853,-5.25 -1.02732,-5.25 -0.39878,0 -1.90966,1.35 -3.35751,3 l -2.63245,3 -18.96523,0 -18.96523,0 -0.59139,2.95694 c -0.38606,1.93029 -1.62741,3.49268 -3.57534,4.5 -3.77883,1.95411 -6.05788,1.94957 -8.86648,-0.0176 z"
         id="path3188"
         inkscape:connector-curvature="0" />
      <path
         style="fill:#2b2b2b"
         d="m 396.35716,651.50507 c -1.1,-1.1 -2,-2.41786 -2,-2.92857 0,-0.51072 -0.70714,-1.63572 -1.57143,-2.5 -1.29783,-1.29783 -4.38826,-1.57381 -17.75,-1.58508 -8.89821,-0.008 -17.20909,-0.28971 -18.46862,-0.62711 -1.25952,-0.3374 -2.97342,-1.93495 -3.80866,-3.55012 -2.13884,-4.13606 -3.85313,-3.00065 -4.18084,2.76905 -0.39005,6.86729 -0.86181,7.96436 -2.75071,6.39672 -2.23295,-1.85318 -1.73698,-46.47489 0.51656,-46.47489 0.81747,0 1.6534,0.9 1.85761,2 0.80758,4.34997 1.53132,4.5 21.70711,4.5 21.86738,0 22.57432,-0.21784 21.83764,-6.72908 -1.5657,-13.83859 -3.49579,-43.07006 -4.50778,-68.27092 -0.76734,-19.1084 -1.58655,-29.94284 -2.32561,-30.75714 -0.69337,-0.76396 -6.02792,-1.6404 -13.59812,-2.23411 -6.85143,-0.53733 -25.28215,-2.32392 -40.95715,-3.9702 -28.04104,-2.94503 -33.59846,-3.57528 -57.5,-6.52089 -6.6,-0.81338 -24.825,-2.81381 -40.5,-4.44541 -28.92158,-3.01041 -62.40508,-7.34981 -69.27257,-8.9776 -8.11098,-1.92254 -12.30316,-6.76556 -11.43824,-13.21405 0.57367,-4.27707 3.46173,-8.16127 7.71081,-10.3704 1.60321,-0.83352 10.5711,-1.70472 25,-2.42866 12.375,-0.62088 28.125,-1.55959 35,-2.08602 6.875,-0.52643 20.825,-1.25077 31,-1.60966 10.175,-0.35888 19.0625,-1.09761 19.75,-1.64163 0.82461,-0.65251 1.25521,-3.92516 1.26531,-9.61668 0.008,-4.74515 0.34592,-9.08011 0.75,-9.63324 0.89316,-1.22262 7.89325,-6.49431 8.62356,-6.49431 0.93333,0 8.04575,5.08618 8.82396,6.31012 0.4161,0.65443 0.76344,4.62228 0.77186,8.81743 0.01,4.94907 0.46348,7.99951 1.29156,8.68675 0.87904,0.72955 5.15845,0.77566 13.75,0.14819 6.86056,-0.50106 17.64875,-1.20891 23.97375,-1.57301 6.325,-0.36409 12.0625,-1.10578 12.75,-1.64818 0.80877,-0.63808 1.25,-3.73798 1.25,-8.78196 0,-4.28767 0.27346,-8.5084 0.60769,-9.37939 0.33423,-0.87099 2.58546,-2.9184 5.00273,-4.54979 l 4.39504,-2.96618 3.74727,2.45393 c 6.31884,4.13793 6.24727,3.98942 6.24727,12.9625 0,5.53165 0.41668,8.65908 1.21981,9.15544 1.76404,1.09023 19.0499,0.37702 20.53019,-0.84708 0.89148,-0.73719 1.25235,-5.08571 1.2582,-15.16122 0.0155,-26.64906 5.10119,-57.85662 10.20314,-62.60982 4.73865,-4.41472 13.52166,-1.47592 15.68406,5.24791 4.36813,13.58237 8.1046,39.99395 8.1046,57.28805 0,10.16506 0.35528,14.48355 1.25,15.19407 1.84626,1.46614 22.32262,2.27962 23.6622,0.94004 0.60747,-0.60747 1.0878,-4.72123 1.0878,-9.31637 0,-8.305 1.19094,-11.37143 4.41644,-11.37143 0.70047,0 2.09439,-0.90698 3.0976,-2.01552 1.79083,-1.97884 1.86189,-1.98111 3.90499,-0.12496 1.14453,1.0398 3.09347,2.41262 4.33097,3.0507 2.08999,1.07764 2.25,1.82455 2.25,10.50252 0,6.27539 0.41036,9.66974 1.25,10.33957 0.6875,0.54847 11.064,1.75286 23.0589,2.67643 11.99489,0.92358 22.46312,1.93028 23.26273,2.23712 3.16653,1.21511 4.42724,-1.62231 4.46017,-10.03831 0.0351,-8.96549 0.60715,-10.18281 6.09431,-12.9683 l 3.62611,-1.84075 4.12389,2.60329 4.12389,2.6033 0,9.28745 c 0,5.89025 0.43894,9.7264 1.2,10.48746 0.66485,0.66485 3.89806,1.20678 7.25,1.2152 3.3275,0.008 15.95,0.67692 28.05,1.4857 12.1,0.80878 33.025,2.1607 46.5,3.00426 13.475,0.84357 25.66949,2.00142 27.09886,2.57301 3.38913,1.35528 6.90114,7.69765 6.90114,12.46282 0,3.08575 -0.71327,4.4472 -3.93612,7.51302 -3.12434,2.97211 -4.92894,3.84753 -8.75,4.24467 -2.64763,0.27518 -11.56388,1.45675 -19.81388,2.62572 -14.87582,2.10781 -51.23737,6.34875 -69.5,8.10596 -5.225,0.50275 -13.325,1.38867 -18,1.96871 -13.76768,1.7082 -52.49044,5.82318 -66,7.01367 -6.875,0.60584 -15.425,1.50664 -19,2.00178 -3.575,0.49513 -10.55,1.19236 -15.5,1.54938 -4.95,0.35702 -9.51604,1.06774 -10.14675,1.57937 -1.21368,0.98453 -1.46949,3.81771 -3.91464,43.35673 -0.85032,13.75 -2.14961,33.1 -2.88732,43 -0.91282,12.25011 -1.01627,18.3993 -0.32384,19.25 0.75005,0.92149 6.07776,1.25 20.27255,1.25 20.497,0 20.97791,-0.11104 21.65418,-5 0.19392,-1.40186 1.0047,-2.5 1.84582,-2.5 1.29032,0 1.5,3.25 1.5,23.25 0,14.66667 -0.36918,23.34229 -1,23.5 -0.55,0.1375 -1.1395,-2 -1.31,-4.75 -0.42017,-6.77704 -1.66427,-7.7458 -4.80068,-3.7382 l -2.53428,3.2382 -18.72752,0 c -19.31784,0 -21.12752,0.35489 -21.12752,4.1433 0,4.47244 -9.3333,6.5234 -13,2.8567 z"
         id="path3186"
         inkscape:connector-curvature="0" />
      <path
         style="fill:#191919"
         d="m 398.01346,652.37254 c -1.01403,-0.58945 -2.48257,-2.60077 -3.26342,-4.4696 l -1.41972,-3.39787 -16.92148,0 c -9.30681,0 -18.08131,-0.44096 -19.49887,-0.97992 -1.41757,-0.53896 -3.09409,-2.11396 -3.72562,-3.5 -0.63152,-1.38604 -1.97599,-2.52008 -2.98771,-2.52008 -1.56059,0 -1.83948,0.82493 -1.83948,5.44098 0,5.4606 -1.45724,8.01053 -3.1072,5.43714 -0.48598,-0.75797 -0.77317,-11.27812 -0.6382,-23.37812 0.20875,-18.71467 0.46793,-22 1.73558,-22 0.87376,0 1.70486,1.24097 2.00917,3 l 0.51899,3 20.92,0.27083 c 11.50599,0.14896 21.27262,-0.0818 21.70361,-0.51278 0.43099,-0.43099 -0.0739,-11.12787 -1.12209,-23.77084 -1.89809,-22.89529 -2.38401,-31.41942 -3.66409,-64.2764 -0.37047,-9.50905 -1.02211,-17.50459 -1.44809,-17.76787 -0.42598,-0.26327 -6.31698,-0.91348 -13.0911,-1.44492 -6.77412,-0.53143 -25.14158,-2.31319 -40.81658,-3.95947 -27.99709,-2.94042 -32.91645,-3.49757 -58,-6.56897 -13.65294,-1.67175 -19.54847,-2.32471 -49.5,-5.4824 -22.13648,-2.33377 -54.05656,-6.5361 -59.52353,-7.83636 -4.9637,-1.18057 -7.35752,-2.62652 -10.46786,-6.32296 -3.37063,-4.00576 -2.93687,-8.71618 1.20385,-13.07324 4.81785,-5.06956 6.55308,-5.46365 29.28754,-6.65149 11.825,-0.61783 28.925,-1.60065 38,-2.18404 9.075,-0.58338 23.7,-1.36634 32.5,-1.73989 l 16,-0.6792 0.5,-9.67138 c 0.275,-5.31925 0.74114,-9.91039 1.03587,-10.20253 0.29473,-0.29214 2.31022,-1.81779 4.47887,-3.39033 l 3.943,-2.85917 4.16344,2.80987 c 5.10053,3.44231 5.37882,4.13231 5.37882,13.33631 0,4.04756 0.41026,7.61275 0.91169,7.92265 0.50144,0.30991 7.58894,0.0781 15.75,-0.515 8.16107,-0.59315 19.56331,-1.38265 25.33831,-1.75444 l 10.5,-0.67598 0.5,-9.15024 c 0.38881,-7.11538 0.92364,-9.6172 2.40499,-11.25 1.04774,-1.15487 2.36231,-2.09976 2.92126,-2.09976 0.55895,0 1.8392,-0.74474 2.84501,-1.65499 1.70166,-1.53998 1.95582,-1.53998 3.65748,0 1.00581,0.91025 2.2698,1.65499 2.80887,1.65499 0.53907,0 1.85364,0.63727 2.92126,1.41615 1.60768,1.17288 2.02702,3.01951 2.44113,10.75 l 0.5,9.33385 10.5,-0.35992 c 5.775,-0.19796 10.8375,-0.56202 11.25,-0.80902 0.4125,-0.247 0.75369,-6.83504 0.7582,-14.64008 0.0161,-27.83099 5.138,-58.14166 10.69506,-63.29177 4.68162,-4.33879 11.12967,-2.5187 14.18709,4.00458 4.46076,9.51743 9.10965,39.73555 9.10965,59.21333 0,7.84566 0.3375,14.46311 0.75,14.70543 0.4125,0.24233 6.15,0.60639 12.75,0.80902 l 12,0.36843 0.25303,-7.5 c 0.35974,-10.66308 0.8009,-11.91567 4.78256,-13.57932 1.90543,-0.79614 3.46441,-1.89148 3.46441,-2.4341 0,-0.54262 0.675,-0.98658 1.5,-0.98658 0.825,0 1.5,0.40555 1.5,0.90122 0,0.49568 1.575,1.8305 3.5,2.96628 l 3.5,2.06505 0,9.56511 c 0,6.76735 0.36562,9.68471 1.25,9.974 1.26107,0.41251 41.68339,3.78621 47.25,3.94355 l 3,0.0848 0.29205,-8.34936 c 0.31052,-8.87757 2.00034,-13.15065 5.20052,-13.15065 0.9694,0 2.33216,-0.68635 3.02837,-1.52523 1.13448,-1.36697 1.4407,-1.36697 2.95118,0 0.92695,0.83888 2.14268,1.52523 2.70163,1.52523 2.94968,0 4.25071,3.73861 4.53587,13.03412 l 0.29038,9.46588 13.5,0.71396 c 7.425,0.39267 27.225,1.62836 44,2.74597 16.775,1.1176 34.775,2.30757 40,2.64436 11.16952,0.71997 13.74932,1.8257 16.76076,7.18383 2.80876,4.99752 2.82257,7.7368 0.0593,11.76948 -2.60059,3.79531 -6.85885,6.14371 -12.3201,6.79444 -2.2,0.26214 -10.75,1.42531 -19,2.58483 -8.25,1.15952 -23.1,2.99036 -33,4.06853 -9.9,1.07817 -21.6,2.39772 -26,2.93233 -4.4,0.53461 -13.175,1.45295 -19.5,2.04077 -6.325,0.58781 -15.1,1.51546 -19.5,2.06143 -13.34873,1.65639 -42.56329,4.84728 -50,5.46114 -6.21878,0.51332 -24.76821,2.35449 -43.5,4.31769 l -6.5,0.68124 -0.6419,6.5 c -0.35305,3.575 -1.17191,15.725 -1.8197,27 -0.64778,11.275 -2.03219,32.19174 -3.07646,46.48164 -1.04426,14.2899 -1.54333,26.33697 -1.10903,26.77127 0.4343,0.4343 9.98257,0.66757 21.21836,0.51836 l 20.42877,-0.27127 0.5,-3.5 c 0.31746,-2.22222 1.04762,-3.5 2,-3.5 1.28263,0 1.5389,3.3693 1.76843,23.25 0.23372,20.24328 0.0721,23.25 -1.25,23.25 -1.17385,0 -1.51843,-1.24811 -1.51843,-5.5 0,-6.50373 -1.65971,-7.24629 -5.63549,-2.52134 l -2.50638,2.97865 -19.11626,0.27135 -19.11626,0.27134 -0.79806,3.08277 c -1.1785,4.55232 -6.92149,6.75502 -11.17125,4.2847 z"
         id="path3184"
         inkscape:connector-curvature="0" />
      <path
         style="fill:#000000"
         d="m 397.01215,650.67633 c -0.91025,-1.00581 -1.65499,-2.32367 -1.65499,-2.92857 0,-0.60491 -0.70714,-1.80698 -1.57143,-2.67126 -1.30866,-1.30867 -4.49331,-1.57143 -19.04545,-1.57143 -17.21934,0 -17.5098,-0.0358 -19.92857,-2.45455 -1.35,-1.35 -2.45455,-2.95629 -2.45455,-3.56955 0,-0.61325 -1.0125,-0.9712 -2.25,-0.79545 -1.99318,0.28308 -2.28423,0.97586 -2.5499,6.06955 -0.16495,3.1625 -0.72745,5.75 -1.25,5.75 -0.57198,0 -0.9501,-8.95454 -0.9501,-22.5 0,-14.33333 0.36296,-22.5 1,-22.5 0.55,0 1,1.035 1,2.3 0,4.44598 1.22299,4.7 22.62857,4.7 22.9695,0 23.76599,-0.23754 22.87356,-6.82177 -1.6401,-12.1005 -3.95575,-48.79799 -5.13876,-81.43714 -0.44413,-12.25338 -1.08282,-19.09329 -1.84169,-19.7231 -0.63897,-0.5303 -6.98025,-1.41893 -14.09172,-1.97475 -7.11148,-0.55581 -25.75496,-2.35772 -41.42996,-4.00425 -27.99777,-2.94092 -32.9191,-3.49834 -58,-6.56941 -14.59739,-1.7874 -22.34567,-2.64358 -49.5,-5.46976 -22.12647,-2.30288 -53.8633,-6.50514 -59.87217,-7.92764 -5.53827,-1.31109 -10.62783,-6.53095 -10.62783,-10.89993 0,-2.71247 0.89435,-4.3242 4.25,-7.65896 l 4.25,-4.22355 11,-0.66932 c 13.62131,-0.82882 43.54665,-2.41695 74.5,-3.9537 12.925,-0.6417 24.0625,-1.53078 24.75,-1.97574 0.85351,-0.5524 1.25,-3.78118 1.25,-10.17915 l 0,-9.37014 4.43951,-2.99619 c 3.7628,-2.53948 4.61983,-2.77892 5.62245,-1.57085 0.65061,0.78394 1.73308,1.42535 2.4055,1.42535 3.14017,0 4.53254,3.59611 4.53254,11.7063 0,5.45269 0.42639,8.40268 1.32193,9.14592 0.9416,0.78145 5.04152,0.82194 14.25,0.1407 7.11044,-0.52602 18.32807,-1.25106 24.92807,-1.6112 6.6,-0.36014 12.5625,-1.09845 13.25,-1.6407 0.83073,-0.65522 1.25,-3.93962 1.25,-9.79204 0,-6.67223 0.38079,-9.18691 1.57143,-10.37755 0.86428,-0.86429 1.98928,-1.57143 2.5,-1.57143 0.51071,0 1.88169,-0.95311 3.0466,-2.11803 1.64721,-1.64721 2.29776,-1.82725 2.92652,-0.80989 0.44467,0.71949 2.30405,2.01304 4.13197,2.87455 l 3.32348,1.5664 0.29247,8.98595 c 0.16086,4.94228 0.74334,9.43683 1.29441,9.9879 1.28701,1.28701 20.97928,0.67225 22.66312,-0.70751 0.89562,-0.73388 1.25233,-5.17123 1.2582,-15.65181 0.0155,-27.52819 5.16502,-59.0342 10.22868,-62.58093 3.13331,-2.19465 8.35347,-1.95628 10.80305,0.4933 2.63499,2.63499 3.26029,4.41203 5.79195,16.46007 3.71136,17.66214 5.16812,30.50258 5.16812,45.55369 0,10.56658 0.35157,14.9798 1.25,15.69121 1.87861,1.48755 24.2726,2.3325 25.63776,0.96734 0.64388,-0.64388 1.11224,-4.73366 1.11224,-9.71224 0,-8.83489 0.81552,-11 4.1433,-11 0.95881,0 2.38788,-0.92028 3.17571,-2.04507 1.1493,-1.64085 1.54314,-1.75653 1.99259,-0.58529 0.30809,0.80287 1.82652,2.06559 3.37428,2.80604 2.76427,1.32242 2.81917,1.51712 3.09921,10.99197 0.17922,6.06402 0.73621,9.99975 1.5,10.59917 0.6682,0.52442 8.86491,1.49458 18.21491,2.15593 9.35,0.66134 20.32404,1.6283 24.38675,2.1488 9.69663,1.24229 10.11325,0.86084 10.11325,-9.25974 0,-8.97877 0.85264,-11.30703 4.47362,-12.21583 1.38951,-0.34875 2.52638,-1.07551 2.52638,-1.61503 0,-0.53952 0.675,-0.98095 1.5,-0.98095 0.825,0 1.50285,0.3375 1.50632,0.75 0.003,0.4125 1.35348,1.51657 3,2.45349 2.99262,1.70289 2.99368,1.70681 2.99368,11.12755 0,6.34557 0.40833,9.74687 1.25,10.41224 0.6875,0.5435 8,1.28756 16.25,1.65348 8.25,0.36591 24.225,1.3175 35.5,2.11464 11.275,0.79714 28.57633,1.93988 38.4474,2.53943 9.87107,0.59955 18.71835,1.50269 19.66062,2.00698 2.74637,1.46981 5.89198,7.38914 5.89198,11.08736 0,3.94989 -4.39079,9.47321 -8.15429,10.25754 -10.99517,2.29147 -63.001,8.7887 -93.34571,11.66194 -5.5,0.52077 -13.15,1.37704 -17,1.90281 -3.85,0.52577 -10.15,1.23528 -14,1.57671 -3.85,0.34142 -14.2,1.45925 -23,2.48408 -8.8,1.02483 -22.29261,2.37612 -29.98358,3.00288 -7.69098,0.62676 -14.23467,1.29474 -14.54155,1.4844 -0.30687,0.18966 -7.05711,0.85858 -15.00052,1.4865 -7.94341,0.62791 -14.9648,1.57508 -15.60309,2.10481 -0.64322,0.53383 -1.44094,5.29366 -1.7896,10.67816 -0.34598,5.34325 -1.31711,20.74 -2.15807,34.215 -0.84095,13.475 -2.14804,32.81774 -2.90464,42.98387 -0.96431,12.95697 -1.06144,18.86247 -0.32485,19.75 1.46032,1.75958 40.85131,1.82072 42.6059,0.0661 0.66,-0.66 1.2,-2.46 1.2,-4 0,-1.54 0.45,-2.8 1,-2.8 0.64281,0 0.93995,8.30459 0.83189,23.25 -0.0925,12.7875 -0.42996,20.55 -0.75,17.25 -0.48566,-5.00779 -0.91263,-6.04548 -2.58189,-6.27503 -1.30245,-0.17911 -2.69755,0.77902 -4,2.74712 l -2,3.02216 -19.05,0.003 c -20.13055,0.003 -21.45,0.29017 -21.45,4.6677 0,4.21951 -8.16267,6.02289 -11.34501,2.50644 z"
         id="path3182"
         inkscape:connector-curvature="0" />
    </g>
  </g>
</svg>
