<?xml version="1.0" encoding="UTF-8" standalone="no"?>
<!-- Created with Inkscape (http://www.inkscape.org/) -->

<svg
   xmlns:dc="http://purl.org/dc/elements/1.1/"
   xmlns:cc="http://creativecommons.org/ns#"
   xmlns:rdf="http://www.w3.org/1999/02/22-rdf-syntax-ns#"
   xmlns:svg="http://www.w3.org/2000/svg"
   xmlns="http://www.w3.org/2000/svg"
   xmlns:sodipodi="http://sodipodi.sourceforge.net/DTD/sodipodi-0.dtd"
   xmlns:inkscape="http://www.inkscape.org/namespaces/inkscape"
   width="507.77557"
   height="390.31277"
   id="svg2"
   version="1.1"
   inkscape:version="0.48.4 r9939"
   sodipodi:docname="B-24.svg">
  <defs
     id="defs4" />
  <sodipodi:namedview
     id="base"
     pagecolor="#ffffff"
     bordercolor="#666666"
     borderopacity="1.0"
     inkscape:pageopacity="0.0"
     inkscape:pageshadow="2"
     inkscape:zoom="0.35"
     inkscape:cx="102.87355"
     inkscape:cy="188.68614"
     inkscape:document-units="px"
     inkscape:current-layer="layer1"
     showgrid="false"
     inkscape:window-width="614"
     inkscape:window-height="498"
     inkscape:window-x="260"
     inkscape:window-y="205"
     inkscape:window-maximized="0"
     fit-margin-top="0"
     fit-margin-left="0"
     fit-margin-right="0"
     fit-margin-bottom="0" />
  <metadata
     id="metadata7">
    <rdf:RDF>
      <cc:Work
         rdf:about="">
        <dc:format>image/svg+xml</dc:format>
        <dc:type
           rdf:resource="http://purl.org/dc/dcmitype/StillImage" />
        <dc:title></dc:title>
      </cc:Work>
    </rdf:RDF>
  </metadata>
  <g
     inkscape:label="Layer 1"
     inkscape:groupmode="layer"
     id="layer1"
     transform="translate(-127.95812,-235.12565)">
    <g
       id="g3316"
       transform="translate(17.142853,14.285714)">
      <path
         style="fill:#d3d3d3"
         d="m 357.59664,607.19411 c -2.53227,-2.53228 -3.88235,-4.79264 -3.88235,-6.5 0,-3.00994 -1.46071,-3.30121 -5.63569,-1.12381 -2.24097,1.16874 -6.92697,1.49518 -21.53252,1.5 -10.26752,0.003 -19.36949,-0.26295 -20.22661,-0.59185 -0.85712,-0.32891 -3.14318,-2.80391 -5.08013,-5.5 -4.87991,-6.79248 -6.52505,-6.51565 -6.52505,1.09801 0,6.23354 -2.07155,10 -5.5,10 -0.825,0 -2.4,-0.9 -3.5,-2 -1.87879,-1.87879 -2,-3.33333 -2,-24 0,-20.66667 0.12121,-22.12121 2,-24 1.1,-1.1 2.675,-2 3.5,-2 1.96914,0 5.5,3.57412 5.5,5.56739 0,1.03456 0.59491,1.38135 1.75,1.02014 0.9625,-0.30099 5.575,-1.48016 10.25,-2.62038 32.9704,-8.04141 41.59603,-10.26884 42.29994,-10.92329 0.43997,-0.40906 0.10247,-15.96965 -0.75,-34.57909 -0.85247,-18.60944 -1.54994,-41.13049 -1.54994,-50.04677 l 0,-16.21142 -8.75,-1.11955 c -4.8125,-0.61576 -12.35,-1.83653 -16.75,-2.71283 -12.80018,-2.54927 -15.42553,-2.75157 -15.94174,-1.22841 -3.50458,10.34081 -8.11181,21.73034 -9.3638,23.14823 -1.81892,2.05994 -5.1081,1.90664 -6.30823,-0.29402 -2.17305,-3.98471 -4.88217,-11.25264 -6.89586,-18.5 -1.22255,-4.4 -2.72914,-8.31869 -3.34798,-8.7082 -0.61884,-0.38951 -3.60404,-0.98157 -6.63378,-1.31569 -3.02973,-0.33411 -11.80861,-1.47266 -19.50861,-2.53011 -7.7,-1.05745 -17.6,-2.39508 -22,-2.97251 -4.4,-0.57743 -13.625,-1.94247 -20.5,-3.03343 -6.875,-1.09096 -16.1,-2.40777 -20.5,-2.92626 -23.30987,-2.7468 -47.52862,-6.24041 -51.5,-7.429 -2.475,-0.74073 -6.36964,-1.85556 -8.65475,-2.4774 -6.50454,-1.77004 -13.6239,-8.83678 -16.73707,-16.61333 -4.17172,-10.42077 -3.29079,-16.02788 3.79911,-24.18126 6.43377,-7.39884 13.59731,-8.97266 56.09271,-12.32351 7.7,-0.60716 23.675,-2.23212 35.5,-3.61103 11.825,-1.37891 24.2,-2.66127 27.5,-2.84968 3.3,-0.18842 12.37081,-0.66789 20.15735,-1.06549 l 14.15736,-0.72291 0.64299,-4.1201 c 0.35365,-2.26605 0.95784,-11.42333 1.34265,-20.34951 0.68175,-15.81417 0.76773,-16.29744 3.36061,-18.88823 1.96717,-1.96558 3.98784,-2.78632 7.75,-3.14782 3.86533,-0.37141 5.08904,-0.88581 5.08904,-2.13925 0,-2.79496 2.978,-6.09528 5.5,-6.09528 2.56966,0 5.5,3.31528 5.5,6.22251 0,1.38962 0.82429,1.77749 3.77749,1.77749 3.73985,0 7.55621,1.85123 9.97251,4.83743 0.88259,1.09076 1.25401,6.26504 1.26365,17.6037 0.016,18.80193 0.37884,20.96671 3.37406,20.13015 1.16176,-0.32448 7.79795,-0.87779 14.74708,-1.22958 l 12.63479,-0.63962 0.49523,-39.60104 c 0.82005,-65.57653 3.66671,-81.50456 15.27328,-85.45932 5.63182,-1.91895 9.12867,-0.81051 14.16173,4.48904 6.73993,7.0968 8.22218,19.78154 8.99567,76.98268 l 0.58976,43.61343 8.60738,0.648 c 4.73405,0.35641 11.41987,0.93 14.85737,1.27466 l 6.25,0.62666 0,-16.18776 c 0,-17.54625 0.5841,-20.04292 5.61488,-24.00013 1.6522,-1.29963 4.11456,-2.0883 6.51998,-2.0883 3.35545,0 3.86514,-0.30033 3.86514,-2.27749 0,-3.35116 2.75826,-6.72251 5.5,-6.72251 2.74174,0 5.5,3.37135 5.5,6.72251 0,1.90249 0.53513,2.27775 3.25,2.27904 4.84787,0.002 10.00666,3.01134 11.99845,6.99845 1.47153,2.94569 1.74869,6.3734 1.75,21.64301 10e-4,15.04469 0.25276,18.23941 1.47256,18.70749 0.80905,0.31046 6.77155,0.84248 13.25,1.18227 6.47844,0.33978 18.07899,1.28795 25.77899,2.10704 7.7,0.81909 19.175,1.90145 25.5,2.40524 6.325,0.50379 18.475,1.63189 27,2.50688 8.525,0.875 17.975,1.79026 21,2.03393 13.3124,1.0723 23.86329,2.58863 28.44966,4.08866 7.07251,2.31315 14.13873,9.20036 16.05297,15.64628 2.03761,6.86138 1.88427,9.3062 -0.96792,15.43249 -5.84485,12.5543 -15.01578,18.99274 -28.96864,20.3374 -4.43634,0.42753 -15.26607,1.7414 -24.06607,2.9197 -8.8,1.17831 -21.175,2.76646 -27.5,3.52924 -6.325,0.76277 -16.675,2.06876 -23,2.90219 -6.325,0.83344 -15.55,2.01481 -20.5,2.62529 -4.95,0.61047 -13.55775,1.74511 -19.12834,2.52142 -5.57058,0.77631 -13.32451,1.41147 -17.23095,1.41147 -6.9485,0 -7.11452,0.0597 -7.65178,2.75 -1.13541,5.6856 -4.80556,16.9357 -7.17873,22.00493 -2.99195,6.39097 -5.45731,8.03392 -8.78432,5.85398 -2.4638,-1.61434 -4.04317,-5.79984 -7.09032,-18.79011 l -1.80179,-7.6812 -5.06689,0.52179 c -2.78678,0.28699 -6.41688,0.91049 -8.06688,1.38556 -1.65,0.47507 -7.46315,1.34471 -12.91811,1.93254 -15.69154,1.69094 -14.17848,0.2392 -14.94928,14.3435 -0.36607,6.69845 -0.89451,22.52901 -1.17432,35.17901 -0.2798,12.65 -0.96987,29.69001 -1.53349,37.86669 -0.56362,8.17667 -0.88977,14.95876 -0.72478,15.0713 0.16499,0.11253 13.12498,3.36514 28.79998,7.22801 l 28.5,7.02341 1.1388,-2.69505 c 1.81241,-4.28918 5.24711,-5.10845 8.3612,-1.99436 1.87879,1.87879 2,3.33333 2,24 0,20.66667 -0.12121,22.12121 -2,24 -1.1,1.1 -2.675,2 -3.5,2 -3.53612,0 -5.5,-3.74923 -5.5,-10.5 0,-8.12996 -1.39928,-8.44857 -6.51257,-1.48288 -2.0256,2.75942 -4.50934,5.45942 -5.51943,6 -1.01008,0.54059 -9.98055,0.98288 -19.93438,0.98288 -13.82476,0 -18.9455,-0.35417 -21.68786,-1.5 -5.43893,-2.27253 -7.006,-1.94878 -7.71451,1.59375 -0.34031,1.70156 -2.15156,4.62656 -4.025,6.5 -4.78413,4.78413 -8.5959,4.65189 -13.7239,-0.4761 z"
         id="path3330"
         inkscape:connector-curvature="0" />
      <path
         style="fill:#aaaaaa"
         d="m 358.24909,606.97287 c -2.74338,-2.40872 -3.5348,-3.86403 -3.5348,-6.5 0,-2.86496 -0.35207,-3.39143 -2.25,-3.36461 -1.2375,0.0175 -3.12351,0.6925 -4.19113,1.5 -1.55776,1.17824 -5.9243,1.4682 -22.10948,1.4682 l -20.16835,0 -3.91069,-5.25 c -2.2947,-3.08057 -4.83211,-5.38205 -6.14052,-5.56955 -2.12105,-0.30396 -2.22983,0.0156 -2.22983,6.55 0,7.26841 -0.97147,9.26955 -4.5,9.26955 -4.27071,0 -4.5,-1.27381 -4.5,-25 0,-23.72619 0.22929,-25 4.5,-25 2.77558,0 4.5,1.84206 4.5,4.80699 0,1.51373 0.46389,2.22968 1.25,1.92922 0.6875,-0.26277 7.325,-1.9381 14.75,-3.72295 24.32514,-5.84738 39.23093,-9.84419 40.15339,-10.76665 0.54216,-0.54216 0.29911,-14.34151 -0.6046,-34.32661 -0.83117,-18.381 -1.58224,-41.12375 -1.66904,-50.53945 l -0.15783,-17.11944 -10.61096,-1.24018 c -5.83603,-0.6821 -13.76096,-1.89479 -17.61096,-2.69487 -3.85,-0.80008 -8.575,-1.69239 -10.5,-1.98291 l -3.5,-0.52822 -2.82735,8.34254 c -4.48486,13.23327 -6.75812,17.34253 -9.59396,17.34253 -2.04093,0 -2.83866,-1.02113 -5.07797,-6.5 -1.46116,-3.575 -3.49831,-9.65 -4.527,-13.5 -1.02869,-3.85 -2.56861,-7.52933 -3.42203,-8.17628 -0.85343,-0.64695 -4.25169,-1.46077 -7.55169,-1.80847 -8.86668,-0.93425 -34.18557,-4.39926 -40.41678,-5.53123 -2.97923,-0.54121 -6.94006,-0.98402 -8.80185,-0.98402 -1.86179,0 -7.97424,-0.85848 -13.58322,-1.90774 -5.60898,-1.04925 -14.24815,-2.37465 -19.19815,-2.94533 -36.68097,-4.2289 -53.81877,-7.17522 -62.13351,-10.68193 -11.1836,-4.71664 -19.8847,-22.88318 -15.2218,-31.78074 2.85931,-5.45602 7.57945,-10.12643 12.52033,-12.38844 5.72357,-2.62034 9.38272,-3.11192 47.18852,-6.33952 12.84444,-1.09657 26.34444,-2.45769 30,-3.02471 3.65555,-0.56702 9.57146,-1.24824 13.14646,-1.51382 3.575,-0.26559 8.975,-0.88526 12,-1.37705 3.025,-0.49179 6.4,-0.82208 7.5,-0.73398 1.1,0.0881 9.72283,-0.22568 19.16185,-0.6973 l 17.16185,-0.85749 0.62379,-5.12598 c 0.34308,-2.81928 0.94524,-12.2539 1.33814,-20.96582 0.7098,-15.73861 0.7323,-15.85525 3.52013,-18.25 2.14618,-1.84357 3.96807,-2.41015 7.75,-2.41015 4.76708,0 4.94424,-0.10194 4.94424,-2.84501 0,-2.74874 2.58651,-6.15499 4.67375,-6.15499 1.8535,0 4.32625,3.61732 4.32625,6.32874 0,2.5209 0.26794,2.67126 4.76022,2.67126 3.71215,0 5.36344,0.55934 7.5,2.54047 l 2.73978,2.54047 0.011,15.20953 c 0.006,8.36524 0.2957,16.93261 0.64367,19.03859 0.54542,3.30106 0.92311,3.74643 2.73899,3.22982 1.15848,-0.32958 8.2405,-0.88203 15.73782,-1.22765 l 13.63149,-0.6284 0.52383,-41.10142 c 0.84374,-66.20284 3.52526,-81.32899 14.98663,-84.53798 5.35371,-1.49894 8.63845,-0.20569 13.47834,5.30665 5.92041,6.74297 7.11659,18.11303 7.90907,75.17783 l 0.6256,45.04791 14.96359,1.19509 c 8.22998,0.6573 15.36553,0.94668 15.85678,0.64307 0.49126,-0.30361 0.89319,-8.07293 0.89319,-17.26515 l 0,-16.71314 3.0728,-3.72785 c 2.78909,-3.38364 3.52775,-3.72784 8,-3.72784 4.92093,0 4.9272,-0.004 4.9272,-3.34501 0,-3.21263 2.41755,-6.65499 4.67375,-6.65499 1.95103,0 4.32625,3.68117 4.32625,6.70491 0,2.97621 0.13005,3.05821 5.56493,3.50892 4.33217,0.35925 6.15973,1.05578 8.25,3.14426 l 2.68507,2.68278 0.30872,20.02664 c 0.36414,23.62159 -1.19803,21.479 16.34987,22.42469 6.23778,0.33616 20.56641,1.49607 31.84141,2.57758 11.275,1.0815 25.225,2.41643 31,2.9665 67.77848,6.4559 67.05022,6.31688 74.76072,14.27183 6.61609,6.82584 7.91066,15.11558 3.73464,23.91455 -5.35025,11.2731 -15.33109,18.06663 -27.99536,19.05526 -3.85,0.30055 -14.2,1.52034 -23,2.71065 -8.8,1.19031 -21.175,2.78828 -27.5,3.55106 -6.325,0.76277 -16.675,2.06876 -23,2.90219 -6.325,0.83344 -15.55,2.00502 -20.5,2.60353 -4.95,0.5985 -12.15,1.57493 -16,2.16982 -3.85,0.5949 -11.95,1.35235 -18,1.68323 l -11,0.6016 -0.8577,4 c -3.0032,14.00581 -9.39591,27.5 -13.02778,27.5 -3.05653,0 -4.27373,-2.76867 -8.51767,-19.37448 -1.10686,-4.33096 -2.14396,-7.98013 -2.30466,-8.10926 -0.31144,-0.25025 -7.17787,0.63917 -17.79219,2.30466 -3.575,0.56095 -10.36927,1.54218 -15.09837,2.18051 l -8.59838,1.16061 -0.67847,14.66898 c -0.37317,8.06794 -0.89061,22.99398 -1.14989,33.16898 -0.60541,23.75908 -1.35427,40.87375 -2.13308,48.75 -0.60337,6.102 -0.56118,6.25 1.78166,6.25 1.31982,0 14.09446,2.92353 28.3881,6.49674 14.29363,3.57321 26.77593,6.49821 27.73843,6.5 1.01973,0.002 1.75,-0.74788 1.75,-1.79674 0,-2.40402 1.92426,-4.2 4.5,-4.2 4.27071,0 4.5,1.27381 4.5,25 0,23.72619 -0.22929,25 -4.5,25 -3.57807,0 -4.5,-1.98727 -4.5,-9.7 0,-6.56008 -0.19679,-7.3 -1.94155,-7.3 -1.19336,0 -3.72073,2.31217 -6.55845,6 l -4.61689,6 -19.49122,0 c -15.70648,0 -20.07724,-0.30305 -22.50923,-1.56068 -4.31286,-2.23026 -7.25824,-1.54807 -7.87623,1.82424 -0.27854,1.51996 -1.76311,4.33246 -3.29906,6.25 -3.73376,4.66138 -8.1533,4.78983 -13.17257,0.38285 z"
         id="path3328"
         inkscape:connector-curvature="0" />
      <path
         style="fill:#929292"
         d="m 358.16884,606.62191 c -1.48642,-1.48641 -2.45455,-3.60744 -2.45455,-5.37755 0,-4.37789 -2.18504,-5.72094 -6.11661,-3.75961 -2.60208,1.29808 -6.92416,1.59171 -23.42946,1.59171 l -20.2388,0 -3.78272,-4.96022 c -6.44428,-8.45031 -9.17791,-7.65722 -9.63868,2.79638 l -0.29373,6.66384 -3,0 -3,0 0,-23.5 0,-23.5 2.9863,0 c 2.19939,0 3.08137,0.52702 3.34707,2 0.19842,1.1 0.73812,2.39854 1.19934,2.88564 1.35601,1.43212 55.87855,-12.35131 56.97709,-14.40394 0.55473,-1.03654 0.35936,-14.14487 -0.50066,-33.5908 -0.77572,-17.53999 -1.61441,-39.92519 -1.86375,-49.74487 -0.24933,-9.81969 -0.83405,-18.19598 -1.29936,-18.614 -0.46532,-0.41801 -7.35289,-1.54324 -15.30572,-2.5005 -7.95283,-0.95726 -15.39993,-2.09796 -16.54912,-2.53488 -4.12892,-1.56981 -9.70572,-1.56805 -10.5973,0.003 -0.46809,0.825 -2.47907,6 -4.46883,11.5 -4.09683,11.32422 -6.57294,14.832 -8.80125,12.46825 -1.79008,-1.89888 -6.0343,-12.92772 -7.68437,-19.96825 -1.99308,-8.50408 -2.58024,-8.84609 -19.02889,-11.08367 -7.9258,-1.07819 -19.13555,-2.63117 -24.91055,-3.45107 -5.775,-0.8199 -14.48542,-1.93628 -19.35649,-2.48085 -4.87107,-0.54456 -11.76149,-1.66383 -15.31205,-2.48726 -3.55056,-0.82308 -8.37,-1.4968 -10.70985,-1.4968 -2.33986,0 -6.69944,-0.44802 -9.68795,-0.99561 -2.98851,-0.54759 -13.75866,-2.09782 -23.93366,-3.44496 -23.00883,-3.04631 -30.10141,-4.8068 -36.68236,-9.10517 -4.18793,-2.73535 -5.771,-4.61826 -8.25,-9.81253 -8.3002,-17.3915 0.54878,-31.44084 21.25714,-33.74954 3.94637,-0.43997 13.25022,-1.2675 20.67522,-1.83896 20.4899,-1.577 45.31669,-4.06013 47,-4.70085 2.48535,-0.94601 18.18558,-2.21883 42.5,-3.44546 12.65,-0.63819 23.50032,-1.55681 24.11182,-2.04139 1.66144,-1.31661 2.76278,-11.69247 2.87445,-27.08063 0.0944,-13.00234 0.22328,-13.84683 2.48094,-16.25 1.88327,-2.00465 3.34902,-2.5349 7.0071,-2.5349 5.08665,0 7.02569,-1.26337 7.02569,-4.57755 0,-5.24333 6.0947,-5.5285 6.84582,-0.32032 0.54412,3.77291 2.07516,4.89787 6.66584,4.89787 2.59142,0 5.12474,0.69474 6.45184,1.76936 2.08709,1.69003 2.19295,2.57564 2.36079,19.75 0.0966,9.88935 0.53721,18.539 0.97905,19.22145 0.61153,0.94456 4.43164,1.09105 16,0.61355 8.35816,-0.34499 15.7057,-1.02659 16.32786,-1.51466 0.79397,-0.62285 1.28703,-13.32649 1.65394,-42.61355 0.81407,-64.9792 3.16229,-79.18267 13.60849,-82.31243 5.22136,-1.56435 8.12988,-0.68423 12.45528,3.76899 6.6415,6.83775 7.71171,16.50097 8.55111,77.20984 0.51368,37.15072 0.81575,43.50285 2.09998,44.15929 2.58057,1.31908 29.38845,2.93201 30.5,1.83508 0.5562,-0.54888 1.12687,-7.95457 1.28587,-16.68688 0.33133,-18.19678 0.44911,-19.00176 3.21439,-21.96994 1.53243,-1.64487 3.21619,-2.2301 6.41625,-2.2301 4.83382,0 6.24668,-1.13094 6.745,-5.39914 0.69453,-5.94862 6.83849,-5.6597 6.83849,0.32158 0,3.66087 1.71674,5.07756 6.15295,5.07756 5.0656,0 8.50125,1.7216 9.73802,4.87972 0.56439,1.44115 1.1573,10.91301 1.31759,21.04857 0.20004,12.6487 0.66778,18.80471 1.49139,19.62852 1.31875,1.31907 7.31358,2.18914 20.30005,2.94632 4.675,0.27257 17.275,1.37577 28,2.45155 10.725,1.07577 25.125,2.43187 32,3.01355 35.86004,3.03402 59.61287,5.84318 63.64213,7.52671 13.62537,5.69304 18.17432,18.56472 11.19116,31.66647 -5.18251,9.72338 -13.55209,15.15731 -24.83329,16.12294 -3.575,0.306 -13.7,1.52658 -22.5,2.71239 -8.8,1.18582 -21.175,2.78011 -27.5,3.54289 -6.325,0.76277 -16.675,2.06876 -23,2.90219 -6.325,0.83344 -15.55,2.01481 -20.5,2.62529 -4.95,0.61047 -13.5,1.72823 -19,2.4839 -5.5,0.75567 -14.05,1.64084 -19,1.96704 -4.95,0.3262 -9.27407,0.90558 -9.60905,1.28752 -0.33498,0.38194 -1.11167,3.30318 -1.72599,6.49165 -1.47887,7.67573 -7.21353,21.75349 -9.41496,23.11234 -1.25477,0.77452 -2.24523,0.77233 -3.5,-0.008 -1.85927,-1.15588 -2.87047,-3.84041 -6.55486,-17.40182 l -2.3093,-8.5 -4.44292,0.23182 c -4.2808,0.22336 -10.58921,0.98427 -28.19292,3.40059 -4.5375,0.62283 -8.73794,1.51604 -9.3343,1.98493 -0.70131,0.55139 -1.50465,13.4853 -2.27434,36.61759 -0.65452,19.67079 -1.59626,42.28352 -2.09275,50.25051 -0.97992,15.72468 -0.68551,17.01482 3.88268,17.01482 1.47751,0 14.28188,2.925 28.45415,6.5 14.17227,3.575 26.13927,6.5 26.59333,6.5 0.45407,0 1.30703,-1.3811 1.89548,-3.06912 0.89581,-2.56973 1.52191,-3.01719 3.84782,-2.75 l 2.77793,0.31912 0,23.5 0,23.5 -3,0 -3,0 -0.29204,-7.16245 c -0.45973,-11.27497 -2.80631,-11.87495 -10.12011,-2.58755 l -4.13436,5.25 -19.85462,0 c -15.32749,0 -20.66777,-0.33976 -23.42085,-1.49006 -4.63243,-1.93556 -6.43146,-1.13931 -7.64996,3.38586 -1.49617,5.55634 -4.36102,8.1042 -9.11247,8.1042 -2.92048,0 -4.67184,-0.66534 -6.46104,-2.45455 z"
         id="path3326"
         inkscape:connector-curvature="0" />
      <path
         style="fill:#6b6b6b"
         d="m 358.47321,606.32646 c -1.54978,-1.62963 -2.74638,-4.17593 -2.93709,-6.25 -0.25193,-2.73987 -0.80713,-3.56896 -2.55638,-3.81753 -1.229,-0.17464 -3.24163,0.38786 -4.47251,1.25 -1.85279,1.29775 -5.71374,1.56753 -22.43389,1.56753 l -20.19593,0 -2.01915,-3.26706 c -2.9248,-4.73241 -6.68937,-7.9665 -8.80476,-7.56402 -1.53462,0.29198 -1.92201,1.59042 -2.33921,7.8405 l -0.5,7.49058 -3,0 -3,0 0,-23.5 0,-23.5 3,0 c 2.65367,0 3.03618,0.37519 3.31336,3.25 0.17235,1.7875 0.47284,3.25 0.66777,3.25 0.52498,0 26.95374,-6.49981 43.01887,-10.57993 7.7,-1.9556 14.35786,-3.90549 14.79524,-4.3331 0.43739,-0.4276 0.0987,-16.7096 -0.75262,-36.18221 -0.85132,-19.47262 -1.65918,-42.60186 -1.79524,-51.39832 l -0.24738,-15.99356 -10,-1.26572 c -5.5,-0.69615 -15.09279,-2.22125 -21.31732,-3.38912 -6.44387,-1.20903 -11.65101,-1.74331 -12.09224,-1.24072 -0.42621,0.48547 -1.97996,4.35397 -3.45278,8.59666 -6.72667,19.37723 -8.59929,20.91493 -12.83089,10.53602 -1.40151,-3.4375 -3.38525,-9.5288 -4.4083,-13.53623 -1.22181,-4.78593 -2.553,-7.73347 -3.87929,-8.58957 -1.11055,-0.71683 -7.86918,-2.05621 -15.01918,-2.97639 -7.15,-0.92018 -17.725,-2.34758 -23.5,-3.172 -5.775,-0.82442 -14.48542,-1.94503 -19.35649,-2.49023 -4.87107,-0.54521 -11.76149,-1.665 -15.31205,-2.48843 -3.55056,-0.82343 -8.39122,-1.49715 -10.75702,-1.49715 -2.3658,0 -6.50038,-0.41692 -9.18795,-0.92649 -2.68757,-0.50957 -13.87219,-2.1102 -24.85471,-3.55696 -34.47548,-4.54156 -41.08206,-7.46725 -46.98071,-20.80515 -3.67514,-8.31015 -3.46325,-14.14578 0.73898,-20.35221 2.3487,-3.46887 4.87586,-5.65843 8.8325,-7.65257 6.11169,-3.08027 8.19702,-3.37518 47.73099,-6.75032 12.84444,-1.09657 26.34444,-2.45769 30,-3.02471 3.65555,-0.56702 9.57146,-1.24824 13.14646,-1.51382 3.575,-0.26559 9.09595,-0.93957 12.26878,-1.49774 3.17283,-0.55817 6.09783,-0.84593 6.5,-0.63946 0.40217,0.20646 9.05622,-0.10971 19.23122,-0.70259 l 18.5,-1.07798 0.80802,-5.5 c 0.44442,-3.025 1.11942,-12.57317 1.5,-21.21816 0.81343,-18.47683 1.06672,-18.97925 9.96788,-19.77203 5.57434,-0.49647 5.73215,-0.59289 6.0319,-3.68534 0.6481,-6.68627 6.21524,-6.85726 7.1922,-0.22091 0.48421,3.28916 0.65793,3.40634 5.5,3.7099 3.39246,0.21267 5.72339,0.99211 7.25,2.42431 2.14165,2.00921 2.2557,2.88497 2.36831,18.18654 0.0651,8.84163 0.41842,17.42569 0.78522,19.07569 0.57784,2.59937 1.06283,2.96333 3.63168,2.72542 1.63064,-0.15102 9.03979,-0.60102 16.46479,-1 l 13.5,-0.72542 0.59161,-40.5 c 0.96581,-66.1165 3.63625,-81.98399 14.30013,-84.96969 3.67654,-1.02937 4.82129,-0.97151 7.42574,0.37531 10.56734,5.46458 12.12255,15.23012 13.072,82.08247 l 0.61052,42.9881 15.87051,1.30806 c 8.72879,0.71943 16.15379,1.02569 16.5,0.68057 0.34622,-0.34512 0.77889,-8.35339 0.96148,-17.79615 0.31672,-16.37888 0.44374,-17.31579 2.76133,-20.3668 2.11012,-2.7779 3.11771,-3.2378 7.66801,-3.5 l 5.23867,-0.30187 0.5,-3.89789 c 0.94542,-7.37032 6.57659,-7.19498 7.19417,0.224 l 0.30583,3.67389 5.7367,0.61652 c 6.1515,0.66109 8.46647,1.97256 9.83481,5.57157 0.47474,1.24866 0.92406,10.58789 0.99849,20.75386 0.10523,14.37366 0.44238,18.73839 1.51623,19.62962 0.7595,0.63032 6.4508,1.56128 12.64734,2.06879 6.19654,0.50751 18.69143,1.62767 27.76643,2.48924 9.075,0.86157 21.225,1.94434 27,2.40615 43.53313,3.48125 71.75148,6.80174 77.00356,9.06113 11.90943,5.1233 16.91516,17.05063 11.90725,28.37184 -4.79404,10.83774 -14.99891,17.84028 -27.41081,18.8092 -3.85,0.30055 -14.2,1.52034 -23,2.71065 -8.8,1.19031 -21.175,2.78828 -27.5,3.55106 -6.325,0.76277 -16.675,2.06876 -23,2.90219 -6.325,0.83344 -15.55,2.01481 -20.5,2.62529 -4.95,0.61047 -13.55775,1.74511 -19.12834,2.52142 -5.57058,0.77631 -12.60183,1.41147 -15.625,1.41147 -3.02316,0 -6.88318,0.2773 -8.57782,0.61623 -2.77358,0.55472 -3.14855,1.0788 -3.75625,5.25 -1.03241,7.0863 -6.37746,21.3333 -9.0498,24.12184 -4.21612,4.39946 -5.8589,1.86386 -9.9538,-15.36352 -1.02958,-4.3315 -2.3303,-8.43967 -2.89048,-9.12926 -1.03928,-1.27938 -2.65257,-1.16389 -18.51851,1.32563 -3.575,0.56095 -10.47145,1.55739 -15.32544,2.2143 -4.85399,0.65691 -8.98305,1.70522 -9.1757,2.32958 -0.47839,1.55048 -1.39897,24.6013 -2.04217,51.1352 -0.29331,12.1 -0.98818,28.41968 -1.54415,36.26595 -0.55597,7.84627 -0.73718,14.70877 -0.40268,15.25 0.3345,0.54123 1.58969,0.98405 2.78933,0.98405 1.19963,0 14.02122,2.95354 28.49242,6.56342 14.47119,3.60988 27.05589,6.42002 27.96598,6.24475 0.9101,-0.17527 1.91974,-1.44131 2.24365,-2.81342 0.46362,-1.96395 1.21764,-2.49475 3.54384,-2.49475 l 2.95492,0 0,23.5 0,23.5 -3,0 -3,0 -0.5,-8 c -0.45636,-7.30173 -0.69219,-8.02734 -2.70192,-8.31325 -1.68235,-0.23934 -3.31299,1.11747 -6.91047,5.75 l -4.70854,6.06325 -19.38919,0 c -15.61051,0 -19.97712,-0.30403 -22.40594,-1.56002 -1.6592,-0.858 -4.22436,-1.4205 -5.70034,-1.25 -2.15387,0.24882 -2.7494,0.90221 -3.01692,3.31002 -0.18333,1.65 -1.44373,4.4625 -2.80089,6.25 -3.31482,4.3659 -8.72627,4.58053 -12.60687,0.5 z"
         id="path3324"
         inkscape:connector-curvature="0" />
      <path
         style="fill:#535353"
         d="m 359.11429,605.67646 c -2.4043,-2.4043 -3.4,-4.30784 -3.4,-6.5 0,-2.59754 -0.38541,-3.1 -2.37788,-3.1 -1.30783,0 -3.99337,0.675 -5.96788,1.5 -2.72571,1.13888 -7.79115,1.5 -21.04033,1.5 -9.59769,0 -18.15161,-0.26911 -19.00873,-0.59801 -0.85712,-0.32891 -3.14318,-2.80391 -5.08013,-5.5 -2.87257,-3.99842 -4.07501,-4.90199 -6.52339,-4.90199 l -3.00166,0 0,6.42857 c 0,4.51082 -0.46878,6.89736 -1.57143,8 -0.86428,0.86429 -1.73214,1.57143 -1.92857,1.57143 -0.19643,0 -1.06429,-0.70714 -1.92857,-1.57143 -2.31042,-2.31041 -2.34853,-42.50861 -0.0425,-44.81465 2.09637,-2.09637 4.45484,-0.945 5.14631,2.51235 0.31611,1.58055 1.081,2.87353 1.69975,2.87329 1.14909,-4.5e-4 31.47114,-7.30026 46.40006,-11.17048 4.55129,-1.17989 8.97898,-2.65996 9.83932,-3.28906 1.41887,-1.0375 1.41655,-4.39515 -0.0251,-36.12888 -0.87408,-19.2418 -1.58927,-42.45523 -1.58927,-51.58542 l 0,-16.60035 -10.25,-1.22988 c -5.6375,-0.67644 -13.4,-1.89247 -17.25,-2.70229 -3.85,-0.80982 -8.76922,-1.8366 -10.93159,-2.28173 -2.16238,-0.44513 -4.42122,-0.62145 -5.01965,-0.39181 -0.59843,0.22964 -2.35152,4.12166 -3.89576,8.64893 -3.46232,10.1506 -6.75118,17.00533 -8.40284,17.51346 -1.58806,0.48856 -4.6634,-6.59173 -8.01495,-18.45267 -3.0142,-10.66709 -3.40316,-10.97991 -15.34615,-12.34203 -4.25096,-0.48483 -12.60252,-1.57517 -18.55904,-2.42297 -5.95651,-0.8478 -14.43002,-2.01021 -18.83002,-2.58314 -4.4,-0.57293 -13.175,-1.96778 -19.5,-3.09966 -6.325,-1.13188 -12.4,-2.07943 -13.5,-2.10567 -2.68102,-0.0639 -12.12229,-1.19896 -35.5,-4.26778 -27.67855,-3.63338 -36.77961,-6.37563 -42.78609,-12.8919 -4.95214,-5.37243 -8.58947,-14.62351 -7.87617,-20.03205 0.96907,-7.34797 8.40144,-15.25759 16.54463,-17.607 4.00535,-1.15559 23.13663,-3.2942 44.61763,-4.98762 7.7,-0.60702 23.38763,-2.18885 34.86141,-3.51518 11.47378,-1.32633 30.4479,-2.96289 42.16473,-3.63681 l 21.30331,-1.2253 0.60093,-4.55614 c 0.33052,-2.50587 0.93139,-11.85678 1.33528,-20.77981 0.87349,-19.29795 1.37724,-20.29191 10.67492,-21.06295 4.67905,-0.38802 5.55942,-0.76855 5.55942,-2.40294 0,-2.77712 1.82716,-5.81043 3.5,-5.81043 1.70232,0 3.5,3.04797 3.5,5.93426 0,1.74759 0.62371,2.06574 4.04966,2.06574 4.57165,0 9.40046,2.12466 10.32916,4.5448 0.34165,0.89033 0.62118,8.50072 0.62118,16.91199 0,8.41126 0.29132,16.74982 0.64738,18.53011 0.63093,3.15466 0.75162,3.22106 4.75,2.61326 2.25644,-0.343 9.78867,-0.90901 16.7383,-1.2578 l 12.63567,-0.63417 0.49296,-40.1041 c 0.74895,-60.93062 3.74983,-81.37777 12.4274,-84.67698 5.16813,-1.96492 8.36802,-1.13271 12.77665,3.32289 3.78795,3.8283 4.3699,5.0934 5.86505,12.75 2.28276,11.6899 3.64674,40.61067 3.65753,77.5509 l 0.009,31.05089 14.75,1.20636 c 8.1125,0.66349 15.73409,1.20309 16.93688,1.1991 2.15669,-0.007 2.19119,-0.25682 2.5,-18.09152 l 0.31312,-18.08426 3.26578,-2.91574 c 2.57839,-2.30197 4.20975,-2.91573 7.75006,-2.91573 4.14714,0 4.48422,-0.19287 4.48422,-2.56574 0,-3.32969 1.68877,-6.43426 3.5,-6.43426 1.78228,0 3.5,3.08913 3.5,6.29436 0,2.21389 0.49563,2.47699 5.67286,3.01133 4.26945,0.44064 6.31042,1.22254 8.25,3.16059 2.5732,2.57116 2.57764,2.60571 2.90284,22.60794 l 0.32571,20.03285 2.42506,0.922 c 1.33379,0.50711 9.73722,1.37528 18.6743,1.92927 8.93707,0.55399 20.07423,1.47414 24.74923,2.04479 4.675,0.57065 13.9,1.47233 20.5,2.00373 6.6,0.53141 18.525,1.64643 26.5,2.47783 7.975,0.83141 19.9,1.96854 26.5,2.52697 22.38422,1.89393 27.93426,3.60024 34.65258,10.65361 2.64552,2.77746 3.98106,5.35113 4.84402,9.33473 1.06897,4.93459 0.97446,6.04788 -0.9193,10.82945 -4.83197,12.20029 -14.2206,18.85555 -28.5773,20.25741 -4.4,0.42964 -15.2,1.74523 -24,2.92353 -8.8,1.17831 -21.175,2.76646 -27.5,3.52924 -6.325,0.76277 -16.675,2.06876 -23,2.90219 -6.325,0.83344 -15.55,2.01481 -20.5,2.62529 -4.95,0.61047 -13.55775,1.74511 -19.12834,2.52142 -5.57058,0.77631 -13.53769,1.41147 -17.70468,1.41147 l -7.57635,0 -0.57942,3.75 c -0.80914,5.23673 -6.36731,22.10075 -8.21209,24.91623 -0.84102,1.28357 -2.40035,2.33377 -3.46516,2.33377 -2.4077,0 -3.96797,-3.571 -6.77887,-15.51482 -1.16303,-4.94185 -2.4612,-9.5411 -2.88482,-10.22055 -0.57657,-0.92477 -2.39189,-1.01532 -7.22024,-0.36015 -12.18696,1.65366 -23.45996,3.24096 -30.00162,4.22438 l -6.55159,0.98491 -1.04763,19.19311 c -0.57621,10.55622 -1.13825,27.51812 -1.24898,37.69312 -0.11074,10.175 -0.62147,23.675 -1.13495,30 -1.33683,16.4669 -1.2764,18 0.7095,18 0.92112,0 14.4372,3.15 30.03572,7 15.59853,3.85 28.59329,7 28.87726,7 0.28396,0 0.97433,-1.31392 1.53416,-2.91983 1.24104,-3.56007 3.30414,-4.51127 5.34916,-2.46625 2.30604,2.30604 2.26793,42.50424 -0.0425,44.81465 -0.86427,0.86429 -1.73213,1.57143 -1.92856,1.57143 -0.19643,0 -1.06429,-0.70714 -1.92857,-1.57143 -1.12617,-1.12616 -1.57143,-3.53463 -1.57143,-8.5 l 0,-6.92857 -2.91483,0 c -2.34308,0 -3.63725,0.98412 -6.59774,5.01712 -2.0256,2.75942 -4.50934,5.45942 -5.51943,6 -1.01008,0.54059 -9.50699,0.98288 -18.88202,0.98288 -13.17771,0 -17.93848,-0.3573 -20.98085,-1.57461 -6.10146,-2.44132 -9.30705,-1.64592 -10.37607,2.57461 -1.13556,4.48317 -5.40955,9 -8.51615,9 -1.41076,0 -3.82503,-1.41212 -5.81291,-3.4 z"
         id="path3322"
         inkscape:connector-curvature="0" />
      <path
         style="fill:#2b2b2b"
         d="m 358.8886,605.76201 c -1.23008,-1.30937 -2.17431,-3.61097 -2.17431,-5.3 0,-5.12065 -4.21932,-7.04696 -8.44113,-3.85375 -1.56218,1.18157 -5.85708,1.45906 -22,1.42136 l -20.05887,-0.0468 -3.5,-4.9737 c -6.27444,-8.91632 -10.73624,-7.76027 -11.20627,2.90354 -0.26003,5.89926 -0.5232,6.66384 -2.29373,6.66384 -1.94074,0 -2,-0.66667 -2,-22.5 0,-21.83333 0.0593,-22.5 2,-22.5 1.37742,0 2.10418,0.77823 2.33468,2.5 0.18407,1.375 0.66715,2.84808 1.07352,3.27352 1.16093,1.21542 56.83088,-12.65409 58.89199,-14.67224 1.06683,-1.0446 1.02544,-7.36004 -0.23062,-35.18719 -0.84195,-18.65275 -1.60269,-41.67391 -1.69054,-51.15813 -0.1043,-11.25936 -0.54484,-17.54703 -1.26938,-18.11707 -0.61031,-0.48017 -5.60965,-1.4114 -11.10965,-2.06938 -5.5,-0.65799 -14.86825,-2.13348 -20.81834,-3.27887 -12.77892,-2.45994 -12.1671,-2.78105 -16.04915,8.42334 -1.46998,4.24268 -3.5814,9.83387 -4.69202,12.42486 -1.70546,3.97867 -2.22177,4.48942 -3.32176,3.28603 -1.92324,-2.10403 -5.13525,-10.42194 -7.25379,-18.78462 -2.45823,-9.70359 -3.47963,-10.34526 -19.86494,-12.47964 -7.15,-0.93137 -17.725,-2.36623 -23.5,-3.18857 -5.775,-0.82235 -14.48542,-1.94126 -19.35649,-2.48646 -4.87107,-0.54521 -11.76149,-1.665 -15.31205,-2.48843 -3.55056,-0.82343 -8.39122,-1.49715 -10.75702,-1.49715 -2.3658,0 -6.50038,-0.41692 -9.18795,-0.92649 -2.68757,-0.50957 -13.87219,-2.1102 -24.85471,-3.55696 -33.02707,-4.35076 -39.55176,-7.02022 -45.25817,-18.51655 -4.43589,-8.93672 -4.45958,-14.86662 -0.0858,-21.46988 2.3656,-3.57139 4.54885,-5.43585 8.46445,-7.22847 5.7381,-2.62699 9.37707,-3.11618 47.20124,-6.34535 12.84445,-1.09657 26.34445,-2.46692 30.00001,-3.04524 13.28943,-2.1024 25.74198,-3.1469 52.38453,-4.39394 10.19203,-0.47705 17.09186,-1.22023 17.6427,-1.90029 1.31553,-1.62414 2.1184,-9.04734 2.91485,-26.95033 0.80584,-18.11418 1.08022,-18.6665 9.27306,-18.6665 5.20737,0 6.59356,-1.07489 7.09283,-5.5 0.25054,-2.22051 0.85815,-3 2.33849,-3 1.48034,0 2.08795,0.77949 2.33849,3 0.4999,4.43068 1.88593,5.5 7.12897,5.5 7.5804,0 7.79613,0.57187 8.19173,21.71529 0.41219,22.03012 0.18459,21.58418 10.34081,20.26167 3.85,-0.50134 10.8824,-0.92625 15.62756,-0.94424 5.6595,-0.0215 8.97616,-0.46274 9.6409,-1.28272 0.62805,-0.77473 1.20947,-16.83898 1.52917,-42.25 0.80945,-64.33943 3.29016,-79.72475 13.30693,-82.52927 7.73795,-2.1665 13.40056,3.16902 15.8818,14.96442 2.10491,10.00642 3.49301,40.58521 3.50408,77.19241 0.007,24.11782 0.30636,31.85385 1.25956,32.58061 2.01734,1.53811 31.84188,3.59956 33.15234,2.29147 0.68328,-0.68205 1.22519,-7.57786 1.43547,-18.26661 0.29873,-15.18428 0.56693,-17.49269 2.31809,-19.95198 1.69572,-2.3814 2.67142,-2.78105 6.78975,-2.78105 5.47597,0 6.75376,-1.06219 7.22265,-6.00401 0.25795,-2.71875 0.77634,-3.49599 2.3317,-3.49599 1.55536,0 2.07375,0.77724 2.3317,3.49599 0.45127,4.75606 1.74529,6.00401 6.22565,6.00401 5.36847,0 8.82174,1.55177 9.92792,4.46126 0.52217,1.37341 1.00995,10.7666 1.08395,20.87376 0.074,10.10715 0.47286,18.92406 0.88637,19.59313 1.19055,1.92635 7.38748,2.9677 24.04441,4.0405 8.525,0.54905 19.325,1.46488 24,2.03515 4.675,0.57028 13.9,1.47753 20.5,2.01611 48.47165,3.95542 72.00836,6.713 77.51442,9.08164 11.32477,4.87178 15.84636,16.17695 10.92229,27.30861 -4.66358,10.54281 -14.07343,16.90263 -26.43671,17.86776 -3.85,0.30055 -14.2,1.52034 -23,2.71065 -8.8,1.19031 -21.175,2.78828 -27.5,3.55106 -6.325,0.76277 -16.675,2.06876 -23,2.90219 -6.325,0.83344 -15.55,2.01481 -20.5,2.62529 -4.95,0.61047 -13.55775,1.74511 -19.12834,2.52142 -5.57058,0.77631 -12.99558,1.45633 -16.5,1.51115 -10.45883,0.16362 -11.19504,0.59282 -12.5291,7.30432 -1.58663,7.98217 -6.22736,20.69228 -8.3923,22.98495 -3.51162,3.7188 -4.29757,2.34579 -8.52283,-14.88895 -2.26712,-9.2475 -3.86556,-11.82595 -6.73307,-10.86111 -1.2069,0.40609 -3.76936,0.83293 -5.69436,0.94855 -1.925,0.11561 -6.425,0.66992 -10,1.2318 -3.575,0.56188 -10.41877,1.55123 -15.20838,2.19856 -4.7896,0.64733 -9.11909,1.69564 -9.62107,2.32958 -0.50198,0.63394 -1.4333,16.90262 -2.06959,36.15262 -0.63629,19.25 -1.60874,42.1365 -2.161,50.85889 -1.07118,16.91827 -0.75486,18.64111 3.42266,18.64111 1.16475,0 13.95707,2.95336 28.42739,6.56302 14.47032,3.60966 27.28129,6.42216 28.46883,6.25 1.34454,-0.19492 2.38029,-1.25624 2.74525,-2.81302 0.37843,-1.61425 1.27871,-2.5 2.54099,-2.5 1.88197,0 1.95492,0.83963 1.95492,22.5 0,21.83333 -0.0593,22.5 -2,22.5 -1.78666,0 -2.03115,-0.76401 -2.29204,-7.16245 -0.46608,-11.4308 -4.7678,-12.48359 -11.63281,-2.84698 l -3.92486,5.50943 -19.57514,-0.0354 c -15.0844,-0.0273 -20.14868,-0.36329 -22.07515,-1.46456 -5.18454,-2.96375 -10,-1.37675 -10,3.29563 0,1.3176 -0.93064,3.7026 -2.06809,5.3 -2.70708,3.80173 -8.46868,4.09081 -11.7576,0.58992 z"
         id="path3320"
         inkscape:connector-curvature="0" />
      <path
         style="fill:#000000"
         d="m 359.41255,605.29553 c -0.93405,-1.0321 -1.69826,-3.27148 -1.69826,-4.97638 0,-5.53189 -3.96468,-7.62114 -9,-4.74269 -1.92716,1.10167 -6.99821,1.43725 -22.13131,1.46456 l -19.63131,0.0354 -2.83318,-3.71449 c -4.25928,-5.58421 -6.20514,-7.28551 -8.33277,-7.28551 -3.63507,0 -5.07143,2.71088 -5.07143,9.57143 0,5.04762 -0.32222,6.42857 -1.5,6.42857 -1.28788,0 -1.5,-3.11111 -1.5,-22 0,-18.88889 0.21212,-22 1.5,-22 0.88435,0 1.50628,0.92347 1.51531,2.25 0.0322,4.72369 1.26822,5.27645 7.65624,3.42376 3.20565,-0.92972 14.16337,-3.70545 24.35049,-6.16828 24.92683,-6.02631 28.76585,-7.24064 29.96309,-9.47769 0.7,-1.30798 0.55646,-12.34394 -0.45807,-35.21636 -0.81266,-18.32129 -1.6499,-41.34545 -1.86054,-51.1648 -0.25801,-12.02732 -0.75932,-18.08595 -1.5362,-18.56609 -0.63427,-0.392 -7.74535,-1.5091 -15.8024,-2.48245 -8.05705,-0.97336 -15.69366,-2.16685 -16.97026,-2.65221 -1.2766,-0.48536 -4.64385,-1.00924 -7.48279,-1.16418 -4.9488,-0.27008 -5.20192,-0.15796 -6.13667,2.7183 -0.53623,1.65 -2.78522,7.68772 -4.99777,13.41716 -3.50634,9.07976 -4.18553,10.19461 -5.2903,8.68375 -1.23268,-1.6858 -6.82341,-18.49162 -7.88064,-23.68934 -0.80166,-3.94126 -5.72933,-5.40528 -28.06949,-8.33951 -30.08711,-3.95174 -34.22178,-4.53755 -44,-6.23392 -4.95,-0.85876 -12.6,-1.90062 -17,-2.31526 -7.54254,-0.71079 -13.11498,-1.47073 -43.5,-5.93235 -23.35576,-3.42947 -29.28377,-6.28328 -34.07078,-16.40208 -5.64958,-11.9421 -2.87838,-22.08873 7.47664,-27.37544 5.21571,-2.66285 10.55619,-3.49977 33.59414,-5.26462 22.38274,-1.71465 45.28528,-4.09637 49,-5.09569 1.925,-0.51785 5.77985,-0.94406 8.56634,-0.94712 2.78649,-0.003 7.51149,-0.42656 10.5,-0.94108 2.98851,-0.51453 14.25781,-1.23631 25.04288,-1.60398 10.78507,-0.36766 20.21579,-1.04335 20.95715,-1.50154 1.82151,-1.12576 3.09107,-10.78357 3.47814,-26.45898 0.17656,-7.15 0.35127,-13.75536 0.38825,-14.67857 0.12459,-3.11031 2.98764,-4.82143 8.06724,-4.82143 5.66547,0 8,-1.77174 8,-6.07143 0,-1.93651 0.50813,-2.92857 1.5,-2.92857 0.99187,0 1.5,0.99206 1.5,2.92857 0,4.28633 2.33713,6.07143 7.94898,6.07143 2.86292,0 5.2685,0.55712 5.9497,1.37792 0.73665,0.88761 1.25136,7.73746 1.44648,19.25 0.16659,9.82965 0.64187,18.62479 1.05618,19.54476 1.07228,2.38098 2.33355,2.6252 9.09866,1.76182 3.3,-0.42115 10.35536,-0.80371 15.67857,-0.85012 7.03758,-0.0614 10.07477,-0.48057 11.13052,-1.53633 1.20545,-1.20544 1.54081,-8.54801 1.97537,-43.25 0.79756,-63.68796 3.29514,-79.72898 12.73667,-81.80269 6.97187,-1.53128 12.8885,4.44512 14.85456,15.00464 1.8006,9.67085 3.1055,41.58021 3.11525,76.17857 0.007,26.39338 0.26331,32.43283 1.42327,33.59279 0.94207,0.94206 4.94372,1.63016 11.98611,2.06106 5.81455,0.35576 12.94065,0.89768 15.83579,1.20425 8.26956,0.87568 8.17,1.09768 8.61274,-19.20375 0.46358,-21.25718 0.85831,-22.33292 8.19473,-22.33292 5.79033,0 7.95642,-1.78903 7.95642,-6.57143 0,-2.38095 0.45833,-3.42857 1.5,-3.42857 1.04167,0 1.5,1.04762 1.5,3.42857 0,4.81354 2.15915,6.57143 8.07143,6.57143 8.38316,0 8.8914,1.09937 9.13041,19.75 0.11101,8.6625 0.11925,17.25749 0.0183,19.09997 -0.10094,1.84249 0.25684,4.1728 0.79506,5.17846 1.22843,2.29535 8.34804,3.81417 20.98478,4.47669 5.225,0.27393 18.275,1.37723 29,2.45178 10.725,1.07455 25.125,2.42965 32,3.01133 13.84715,1.17157 24.22319,2.18401 46.34105,4.52174 19.66572,2.07855 27.14876,5.75752 29.68283,14.5933 4.44562,15.50096 -7.78701,30.6368 -26.02388,32.20022 -3.575,0.30648 -13.7,1.52744 -22.5,2.71325 -8.8,1.18582 -21.175,2.78011 -27.5,3.54289 -6.325,0.76277 -16.675,2.06876 -23,2.90219 -6.325,0.83344 -15.55,2.01481 -20.5,2.62529 -4.95,0.61047 -13.5,1.72609 -19,2.47914 -5.5,0.75305 -14.25069,1.61685 -19.44598,1.91955 -5.68619,0.3313 -9.73972,1.02565 -10.18397,1.74446 -0.40589,0.65675 -1.04808,3.46561 -1.42709,6.24192 -0.72019,5.27553 -5.77098,20.03321 -7.61803,22.25877 -2.0042,2.41491 -3.56319,1.29593 -4.8219,-3.46095 -3.72791,-14.08844 -5.85026,-21.43057 -6.33493,-21.91524 -0.51332,-0.51331 -17.09249,1.28545 -35.52334,3.85413 -4.59539,0.64045 -8.9107,1.7199 -9.58958,2.39879 -1.25733,1.25732 -1.55451,6.78113 -3.54611,65.91232 -0.50016,14.85 -1.20888,29.5033 -1.57492,32.56288 -0.76444,6.38964 0.77447,8.93712 5.39885,8.93712 1.47957,0 14.38493,2.92353 28.67857,6.49674 14.29363,3.57321 26.81502,6.49821 27.82529,6.5 1.12427,0.002 2.27616,-1.16057 2.96924,-2.99674 0.62281,-1.65 1.70872,-3 2.41314,-3 1.0022,0 1.28076,4.78485 1.28076,22 0,18.88889 -0.21212,22 -1.5,22 -1.189,0 -1.5,-1.43651 -1.5,-6.92857 0,-4.96537 -0.44526,-7.37384 -1.57143,-8.5 -3.34156,-3.34156 -6.90059,-1.3739 -12.5679,6.94834 l -2.36067,3.46656 -18.96657,0.007 c -15.21197,0.005 -19.82033,-0.31923 -23.27944,-1.64027 -5.34157,-2.03997 -8.90368,-0.81602 -9.78777,3.36309 -1.19637,5.65521 -3.07512,7.76474 -7.19771,8.08182 -2.78818,0.21445 -4.34736,-0.22746 -5.57025,-1.57874 z"
         id="path3318"
         inkscape:connector-curvature="0" />
    </g>
  </g>
</svg>
