<?xml version="1.0" encoding="UTF-8" standalone="no"?>
<!-- Created with Inkscape (http://www.inkscape.org/) -->

<svg
   xmlns:dc="http://purl.org/dc/elements/1.1/"
   xmlns:cc="http://creativecommons.org/ns#"
   xmlns:rdf="http://www.w3.org/1999/02/22-rdf-syntax-ns#"
   xmlns:svg="http://www.w3.org/2000/svg"
   xmlns="http://www.w3.org/2000/svg"
   xmlns:sodipodi="http://sodipodi.sourceforge.net/DTD/sodipodi-0.dtd"
   xmlns:inkscape="http://www.inkscape.org/namespaces/inkscape"
   width="497.28488"
   height="350.89755"
   id="svg2"
   version="1.1"
   inkscape:version="0.48.4 r9939"
   sodipodi:docname="B-29.svg">
  <defs
     id="defs4" />
  <sodipodi:namedview
     id="base"
     pagecolor="#ffffff"
     bordercolor="#666666"
     borderopacity="1.0"
     inkscape:pageopacity="0.0"
     inkscape:pageshadow="2"
     inkscape:zoom="0.35"
     inkscape:cx="171.36633"
     inkscape:cy="-76.384424"
     inkscape:document-units="px"
     inkscape:current-layer="layer1"
     showgrid="false"
     inkscape:window-width="813"
     inkscape:window-height="641"
     inkscape:window-x="0"
     inkscape:window-y="25"
     inkscape:window-maximized="0"
     fit-margin-top="0"
     fit-margin-left="0"
     fit-margin-right="0"
     fit-margin-bottom="0" />
  <metadata
     id="metadata7">
    <rdf:RDF>
      <cc:Work
         rdf:about="">
        <dc:format>image/svg+xml</dc:format>
        <dc:type
           rdf:resource="http://purl.org/dc/dcmitype/StillImage" />
      </cc:Work>
    </rdf:RDF>
  </metadata>
  <g
     inkscape:label="Layer 1"
     inkscape:groupmode="layer"
     id="layer1"
     transform="translate(-101.13368,-236.36592)">
    <g
       id="g3119"
       transform="translate(-14.285719,28.571429)">
      <path
         style="fill:#e4e4e4"
         d="m 356.96425,557.71065 c -2.74054,-1.59622 -4.74998,-6.39823 -4.74998,-11.35118 0,-4.99708 0.0198,-4.98406 -9,-5.9163 -11.4604,-1.18448 -40.05811,-4.8311 -45,-5.73814 -11.58844,-2.12696 -15,-5.02424 -15,-12.73882 0,-7.73712 4.2599,-10.07852 28.5,-15.66462 24.14085,-5.56323 35.7265,-8.404 36.19822,-8.87572 0.23384,-0.23384 -0.0619,-8.4599 -0.65728,-18.28014 -1.86219,-30.71658 -4.02296,-80.34247 -4.03214,-92.60497 l -0.009,-11.75 -10.81194,0 -10.81194,0 -2.218,3 c -2.8531,3.85902 -4.45983,3.78206 -7.62304,-0.36512 -2.0709,-2.71509 -3.6583,-3.58435 -8.21767,-4.5 -3.94905,-0.79309 -31.15593,-1.13488 -90.33631,-1.13488 l -84.68533,0 -3.38266,-2.27957 c -4.12999,-2.7832 -7.47057,-8.48712 -9.03797,-15.43201 -1.00691,-4.46146 -0.92556,-5.86786 0.56517,-9.77129 2.02932,-5.3137 4.96509,-7.19535 13.38516,-8.57909 9.07675,-1.49166 70.038,-9.63894 89.17453,-11.9179 9.625,-1.14623 18.9625,-2.34476 20.75,-2.66339 l 3.25,-0.57933 0.01,-8.13871 c 0.008,-6.52633 0.49553,-9.18211 2.46173,-13.40541 1.34858,-2.89669 3.14419,-5.53233 3.99023,-5.85699 0.84582,-0.32466 1.53804,-1.635 1.53804,-2.91187 0,-4.77977 6.04561,-7.27597 9.42857,-3.89301 0.86429,0.86428 1.57143,2.66428 1.57143,4 0,1.33571 0.44242,2.42857 0.98315,2.42857 0.54074,0 2.11574,2.23504 3.5,4.96676 2.03625,4.01834 2.51685,6.42594 2.51685,12.6084 0,7.41826 0.0658,7.62585 2.25,7.10082 1.2375,-0.29746 8.6625,-1.32044 16.5,-2.27329 l 14.25,-1.73245 0,-7.80661 c 0,-6.11082 0.53229,-9.01021 2.45044,-13.34748 1.34774,-3.04749 3.14774,-5.80846 4,-6.13551 0.85226,-0.32704 1.54956,-1.63933 1.54956,-2.9162 0,-2.98486 2.49571,-5.46444 5.5,-5.46444 2.68075,0 5.5,2.39743 5.5,4.67707 0,0.84382 1.10771,2.85065 2.46157,4.45963 3.1659,3.76246 4.52588,8.77735 4.53285,16.71479 l 0.006,6.35149 7.25,-0.71357 c 3.9875,-0.39246 7.41201,-0.86264 7.61002,-1.04484 0.19801,-0.18221 0.71585,-18.01927 1.15076,-39.63793 0.82264,-40.8926 1.05464,-43.03637 5.63751,-52.09269 3.08904,-6.10432 7.25584,-8.7053 13.95383,-8.71021 8.64491,-0.006 13.84162,4.93449 17.08257,16.24145 1.1549,4.02917 1.68724,14.41844 2.28235,44.54307 0.42688,21.60854 0.94643,39.43133 1.15455,39.6062 0.20813,0.17487 3.64091,0.74572 7.62841,1.26855 l 7.25,0.95061 0.022,-7.55681 c 0.0233,-8.03177 2.47079,-15.54119 5.43597,-16.67904 0.84768,-0.32546 1.54161,-1.63646 1.54161,-2.91333 0,-3.14847 2.54296,-5.46444 6,-5.46444 3.29777,0 6,2.28403 6,5.07143 0,1.06071 0.87078,2.79935 1.93507,3.86364 2.81289,2.81289 4.05303,8.39427 4.05935,18.26962 l 0.006,8.70468 3.25,0.51886 c 1.7875,0.28536 8.17119,1.00874 14.18599,1.60751 6.01479,0.59876 12.20229,1.34192 13.75,1.65146 l 2.81359,0.5628 0,-7.15824 c 0,-5.66597 0.52469,-8.19367 2.51685,-12.125 1.38426,-2.73172 2.95926,-4.96676 3.5,-4.96676 0.54073,0 0.98315,-1.09286 0.98315,-2.42857 0,-3.24719 2.50303,-5.57143 6,-5.57143 3.49697,0 6,2.32424 6,5.57143 0,1.33571 0.36033,2.42857 0.80073,2.42857 0.44041,0 1.79041,2.03704 3,4.52675 1.78897,3.68222 2.19927,6.28155 2.19927,13.93261 0,8.08431 0.24588,9.48221 1.75,9.94922 0.9625,0.29885 10.525,1.69455 21.25,3.10156 45.31063,5.94427 84.72597,11.44293 90,12.5555 13.39277,2.82523 17.99197,8.11662 16.0738,18.49295 -0.54472,2.94669 -1.90315,7.14674 -3.01872,9.33344 -3.91581,7.67563 3.64943,7.10797 -94.72837,7.10797 -59.451,0 -89.87233,0.35259 -93.2688,1.081 -3.88811,0.83385 -5.43053,1.74121 -6.7463,3.96864 -2.90109,4.91115 -6.27992,4.84611 -8.87428,-0.17082 l -1.48869,-2.87882 -10.47432,0 -10.47432,0 -0.002,2.75 c -9.2e-4,1.5125 -0.43311,9.95 -0.96042,18.75 -0.52731,8.8 -1.4282,24.325 -2.00198,34.5 -0.57378,10.175 -1.77787,29.21622 -2.67576,42.31383 -0.94352,13.76332 -1.25852,24.13612 -0.74635,24.57748 0.48739,0.42001 11.45097,3.36252 24.36351,6.53892 33.21226,8.17 35.71438,9.01626 38.06711,12.87483 4.5543,7.46927 0.34038,15.01136 -9.54445,17.08271 -5.5277,1.15839 -50.50034,6.61223 -54.52442,6.61223 l -3.97524,0 0,4.95295 c 0,2.72412 -0.53761,6.13287 -1.19469,7.57499 -2.059,4.51902 -8.89108,6.8174 -13.05533,4.39195 z"
         id="path3133"
         inkscape:connector-curvature="0" />
      <path
         style="fill:#d3d3d3"
         d="m 355.28685,555.1559 c -1.50533,-1.91371 -2.07258,-4.08711 -2.07258,-7.94098 0,-2.91837 -0.50027,-5.61531 -1.11171,-5.9932 -0.61145,-0.3779 -4.09895,-1.03826 -7.75,-1.46747 -53.54046,-6.29417 -58.4325,-7.30323 -59.6896,-12.31189 -0.31915,-1.27161 -0.43817,-4.28624 -0.26448,-6.69917 0.53658,-7.45449 0.15671,-7.30767 47.81579,-18.48116 8.525,-1.99865 15.84774,-3.96756 16.27276,-4.37536 0.42502,-0.40779 0.10805,-12.40869 -0.70438,-26.66867 -1.41915,-24.90923 -3.41445,-70.65672 -3.8568,-88.42724 l -0.21158,-8.5 -10.94659,-0.28583 -10.94658,-0.28582 -2.37589,3.03582 c -3.0358,3.87904 -4.52888,3.82284 -7.66475,-0.2885 -4.26949,-5.59759 -5.64586,-5.67567 -100.04913,-5.67567 l -84.75235,0 -3.77756,-3.77755 c -5.99381,-5.99381 -8.50354,-16.65744 -5.57181,-23.67408 1.71292,-4.09958 3.91744,-5.3791 11.38096,-6.60558 8.54222,-1.40375 68.7642,-9.46291 92.55311,-12.38586 11.46717,-1.40897 21.25467,-2.81224 21.75,-3.11837 0.49532,-0.30612 0.90059,-4.36949 0.90059,-9.0297 0,-9.18815 1.48734,-14.19547 5.46803,-18.40886 1.29906,-1.375 2.51268,-3.625 2.69695,-5 0.29404,-2.19416 0.82436,-2.5 4.33502,-2.5 3.50996,0 4.04137,0.30628 4.33766,2.5 0.18572,1.375 1.14558,3.4 2.13303,4.5 3.79731,4.23013 5.02931,8.24541 5.02931,16.39132 0,4.39486 0.3375,8.17345 0.75,8.39688 0.4125,0.22343 8.175,-0.54734 17.25,-1.71282 l 16.5,-2.11905 0.54312,-9.47817 c 0.5848,-10.20555 1.75009,-14.0598 5.43548,-17.97816 1.29324,-1.375 2.50211,-3.625 2.68638,-5 0.29404,-2.19416 0.82436,-2.5 4.33502,-2.5 3.49818,0 4.0439,0.31136 4.34993,2.48179 0.19246,1.36499 1.62454,3.9335 3.1824,5.70781 2.91254,3.3172 3.75925,6.78671 4.22451,17.3104 l 0.24316,5.5 7.5,-0.33194 c 4.125,-0.18257 7.88053,-0.6981 8.34561,-1.14561 0.46509,-0.44752 1.20846,-18.74815 1.65194,-40.66806 0.81885,-40.4731 1.14355,-43.76124 5.08652,-51.50986 3.051,-5.99574 6.22655,-7.84453 13.47406,-7.84453 5.31805,0 6.76667,0.40242 9.38769,2.60786 7.50339,6.31369 8.1073,10.10555 9.03478,56.72868 0.43586,21.91009 1.18103,40.20752 1.65594,40.66095 0.4749,0.45342 4.35096,1.14235 8.61346,1.53095 l 7.75,0.70654 0,-8.05239 c 0,-8.92315 0.97946,-12.46226 4.4786,-16.18259 1.29324,-1.375 2.50211,-3.625 2.68638,-5 0.30107,-2.24666 0.79103,-2.5 4.83502,-2.5 4.04329,0 4.53427,0.25373 4.83766,2.5 0.18572,1.375 1.20896,3.44044 2.27388,4.58987 2.87058,3.09838 3.88846,7.83498 3.88846,18.09451 0,5.15607 0.44692,9.4738 1.01709,9.82618 0.85568,0.52884 21.37165,2.97772 31.48291,3.75795 l 3,0.23149 0.5,-8.5 c 0.4932,-8.38447 1.53038,-11.57589 5.0373,-15.5 0.98306,-1.1 1.93932,-3.125 2.12504,-4.5 0.30339,-2.24627 0.79437,-2.5 4.83766,-2.5 4.04235,0 4.5347,0.25425 4.84118,2.5 0.18764,1.375 0.92088,3.175 1.62941,4 3.55924,4.14432 4.52941,7.99447 4.52941,17.97509 0,9.66411 0.096,10.11092 2.35799,10.97092 1.29689,0.49307 11.53439,2.10042 22.75,3.57187 46.41371,6.08934 83.54402,11.28887 89.89201,12.58801 8.37791,1.71457 12.63294,4.25187 13.98117,8.33706 2.003,6.06915 -0.65331,17.45026 -5.20321,22.2934 l -2.12659,2.26365 -88.1589,0 c -61.95493,0 -89.84455,0.33853 -93.82998,1.13891 -4.78773,0.96152 -5.99464,1.66246 -7.74834,4.5 -2.71258,4.38904 -5.40249,4.3426 -8.04665,-0.13891 l -2.06505,-3.5 -10.43261,0 c -7.45921,0 -10.55029,0.35626 -10.84551,1.25 -0.2271,0.6875 -0.89451,10.25 -1.48314,21.25 -1.7204,32.15008 -3.00494,53.45529 -4.69276,77.83377 -0.96972,14.00629 -1.22289,23.19177 -0.65487,23.75979 0.50931,0.50931 13.27411,4.03249 28.36623,7.82928 15.09212,3.79679 28.6323,7.36398 30.0893,7.92709 8.77937,3.3931 7.42753,16.60074 -1.95271,19.07808 -3.84818,1.01631 -49.33199,6.82012 -57.19638,7.29835 l -4.5,0.27364 -0.5,6.83927 c -0.41189,5.63402 -0.91603,7.17598 -2.86078,8.75 -3.59285,2.90791 -9.48795,2.55414 -12.06664,-0.72413 z"
         id="path3131"
         inkscape:connector-curvature="0" />
      <path
         style="fill:#a5a5a5"
         d="m 356.13735,554.86768 c -2.5262,-2.52619 -2.92308,-3.67413 -2.92308,-8.45468 0,-6.18792 0.83361,-5.65358 -11,-7.05085 -56.71652,-6.69686 -58,-7.07019 -58,-16.87079 0,-4.49212 2.98621,-8.15517 8.26075,-10.1331 3.51189,-1.31694 33.28108,-8.58355 51.98925,-12.69048 3.88725,-0.85335 4.74916,-1.43637 4.74535,-3.20988 -0.003,-1.19193 -0.45225,-9.36714 -0.99933,-18.16714 -1.75886,-28.29217 -3.97787,-79.63385 -3.98708,-92.25 l -0.009,-12.25 -11.56456,0 -11.56456,0 -2.64349,3.14161 -2.64349,3.14161 -3.04195,-3.47357 c -2.43345,-2.77872 -4.22553,-3.70722 -8.95873,-4.64161 -4.22986,-0.83502 -30.09358,-1.16804 -90.71521,-1.16804 l -84.79842,0 -3.70159,-3.25 c -6.41439,-5.63184 -9.73617,-16.53975 -7.01798,-23.04529 1.91738,-4.58895 5.01598,-6.54151 12.2729,-7.7337 9.04424,-1.48582 69.7537,-9.61234 89.37708,-11.96394 9.625,-1.15343 19.1875,-2.35939 21.25,-2.67992 l 3.75,-0.58277 0,-8.40431 c 0,-9.07294 1.48408,-14.0908 5.42423,-18.34007 1.27498,-1.375 2.60215,-3.70751 2.94928,-5.18335 1.13529,-4.82679 7.12506,-4.79516 8.26636,0.0436 0.34243,1.45184 1.41091,3.5397 2.3744,4.6397 3.80278,4.3416 4.98573,8.27439 4.98573,16.57534 l 0,8.17466 2.75,-0.54919 c 1.5125,-0.30206 9.3875,-1.34798 17.5,-2.32428 l 14.75,-1.77508 0,-8.1786 c 0,-8.82874 1.58204,-14.16267 5.4642,-18.42285 1.253,-1.375 2.56218,-3.70751 2.90931,-5.18335 1.1353,-4.82686 7.12707,-4.79521 8.26394,0.0436 0.3411,1.45183 1.69608,3.79857 3.01106,5.21498 3.14474,3.38727 4.35149,7.89986 4.35149,16.2722 l 0,6.86068 8.25,-0.71592 c 4.5375,-0.39376 8.4058,-0.85889 8.59621,-1.03363 0.19042,-0.17473 0.70879,-18.2369 1.15194,-40.13815 0.81759,-40.40644 1.14531,-43.73187 5.06997,-51.44467 3.1704,-6.23052 7.23562,-8.87579 13.64018,-8.87579 5.2053,0 5.82338,0.26853 9.82204,4.26719 7.03586,7.03585 8.41932,15.17434 8.4541,49.73281 0.0136,13.475 0.31341,29.51084 0.66633,35.6352 l 0.64167,11.1352 6.95605,0.68543 c 3.82583,0.37698 7.58503,0.92679 8.35378,1.22179 1.12557,0.43192 1.39773,-1.02954 1.39773,-7.50553 0,-8.87161 0.97371,-12.42237 4.4348,-16.17209 1.26917,-1.375 2.59158,-3.70751 2.93871,-5.18335 0.68712,-2.92135 3.47423,-4.31714 6.62417,-3.31739 1.09872,0.34872 2.28278,1.84155 2.63123,3.31739 0.34846,1.47584 1.48526,3.62379 2.52621,4.77322 2.83242,3.12758 3.84488,7.89176 3.84488,18.09226 l 0,9.19532 4.25,0.55751 c 2.3375,0.30663 8.75,1.02281 14.25,1.59151 5.5,0.56869 11.6875,1.3029 13.75,1.63157 l 3.75,0.59758 0,-7.67747 c 0,-7.77723 1.25232,-11.81574 4.98573,-16.07815 0.96349,-1.1 2.0369,-3.20751 2.38536,-4.68335 1.15737,-4.90187 8.09791,-4.90187 9.2609,0 0.35014,1.47584 1.19692,3.35835 1.88173,4.18335 3.53564,4.25946 4.48628,8.04015 4.48628,17.84193 0,11.78878 -2.96761,10.10406 24.07066,13.66499 48.12228,6.33768 83.66826,11.31762 89.92934,12.59897 12.78227,2.61593 16.93009,7.41112 15.07781,17.43104 -1.23214,6.66521 -3.22442,10.64664 -6.69269,13.37477 -2.64642,2.08168 -2.93303,2.0883 -90.3532,2.0883 -60.1546,0 -89.43037,0.34784 -93.21304,1.10751 -4.41795,0.88725 -5.85448,1.68274 -7.22331,4 -2.22831,3.77221 -5.21124,3.73138 -7.39208,-0.10119 l -1.70349,-2.99367 -11.25,-0.006 -11.25,-0.006 0,2.46643 c 0,4.55475 -3.9572,72.78446 -5.6429,97.2945 -0.91772,13.34351 -1.43906,24.49044 -1.15854,24.77096 0.28051,0.28052 12.92695,3.62682 28.10319,7.43622 28.71165,7.20694 32.54121,8.54189 35.13755,12.24868 3.61098,5.15541 -0.18579,12.84869 -7.2623,14.71538 -4.99053,1.31643 -51.13995,7.06783 -56.71254,7.06783 l -4.46446,0 0,6.07692 c 0,5.38327 -0.33366,6.41058 -2.92308,9 -1.76217,1.76217 -3.97705,2.92308 -5.57692,2.92308 -1.59987,0 -3.81475,-1.16091 -5.57692,-2.92308 z"
         id="path3129"
         inkscape:connector-curvature="0" />
      <path
         style="fill:#6b6b6b"
         d="m 356.28685,554.1559 c -1.43506,-1.82439 -2.07258,-4.09369 -2.07258,-7.37755 0,-5.98104 -1.41071,-7.20246 -9.35414,-8.09899 -17.18168,-1.93919 -40.88116,-4.99312 -46.64586,-6.01082 -11.23966,-1.98423 -13.57541,-4.16222 -12.82368,-11.95748 0.60467,-6.27028 1.43607,-6.57363 47.82368,-17.44903 8.525,-1.99865 15.86891,-3.98873 16.31979,-4.42239 0.45089,-0.43366 0.12612,-13.10956 -0.7217,-28.16867 -1.54145,-27.37922 -3.47621,-71.42183 -3.88248,-88.38021 l -0.21561,-9 -11.41699,-0.28431 -11.41699,-0.28432 -3.20449,3.10592 -3.2045,3.10592 -2.47953,-3.16826 c -4.64135,-5.93054 -4.83259,-5.94198 -99.64515,-5.95933 l -85.36764,-0.0156 -3.77756,-3.77755 c -2.4811,-2.4811 -4.32832,-5.63218 -5.38235,-9.1815 -1.96657,-6.62216 -1.99024,-8.18271 -0.18946,-12.49258 1.71292,-4.09958 3.91744,-5.3791 11.38096,-6.60558 8.54222,-1.40375 68.7642,-9.46291 92.55311,-12.38586 11.46717,-1.40897 21.25467,-2.81224 21.75,-3.11837 0.49532,-0.30612 0.90059,-4.36949 0.90059,-9.0297 0,-9.18815 1.48734,-14.19547 5.46803,-18.40886 1.29906,-1.375 2.51268,-3.625 2.69695,-5 0.27293,-2.03666 0.89103,-2.5 3.33502,-2.5 2.44329,0 3.06266,0.46392 3.33766,2.5 0.18572,1.375 1.14558,3.4 2.13303,4.5 3.79731,4.23013 5.02931,8.24541 5.02931,16.39132 0,4.39486 0.36869,8.21851 0.81931,8.49701 0.45062,0.27849 8.66312,-0.49745 18.25,-1.72434 l 17.43069,-2.23069 0.54312,-9.46665 c 0.58489,-10.19464 1.75105,-14.04931 5.43548,-17.96665 1.29324,-1.375 2.50211,-3.625 2.68638,-5 0.27293,-2.03666 0.89103,-2.5 3.33502,-2.5 2.44399,0 3.06209,0.46334 3.33502,2.5 0.18427,1.375 1.43063,3.65887 2.7697,5.07528 3.22967,3.41618 4.39528,7.86787 4.39528,16.7864 l 0,7.37487 8.75,-0.70858 c 4.8125,-0.38971 9.13053,-1.07096 9.59561,-1.51388 0.46509,-0.44292 1.20846,-18.73979 1.65194,-40.6597 0.81885,-40.4731 1.14355,-43.76124 5.08652,-51.50986 2.93289,-5.76364 6.29341,-7.84453 12.66844,-7.84453 5.01166,0 5.80813,0.32534 9.26904,3.78625 6.57093,6.57094 7.89314,15.0499 8.06423,51.71375 0.0693,14.85 0.41585,31.04386 0.77011,35.98636 l 0.64411,8.98637 8.5,1.12156 c 4.675,0.61685 8.8375,0.93393 9.25,0.70462 0.4125,-0.22932 0.75,-3.96109 0.75,-8.29283 0,-8.7507 0.99322,-12.30038 4.4786,-16.00608 1.29324,-1.375 2.50211,-3.625 2.68638,-5 0.28499,-2.12666 0.85769,-2.5 3.83502,-2.5 2.97662,0 3.55049,0.37384 3.83766,2.5 0.18572,1.375 1.20896,3.44044 2.27388,4.58987 2.87058,3.09838 3.88846,7.83498 3.88846,18.09451 0,5.15607 0.44692,9.4738 1.01709,9.82618 1.01519,0.62743 26.35196,3.58458 32.98291,3.84957 l 3.5,0.13987 0.5,-8.5 c 0.4932,-8.38447 1.53038,-11.57589 5.0373,-15.5 0.98306,-1.1 1.93932,-3.125 2.12504,-4.5 0.28717,-2.12616 0.86104,-2.5 3.83766,-2.5 2.97569,0 3.55111,0.37451 3.84118,2.5 0.18764,1.375 0.92088,3.175 1.62941,4 3.55924,4.14432 4.52941,7.99447 4.52941,17.97509 0,9.66411 0.096,10.11092 2.35799,10.97092 1.29689,0.49307 11.53439,2.10042 22.75,3.57187 46.41371,6.08934 83.54402,11.28887 89.89201,12.58801 12.45295,2.54854 15.93391,6.69662 14.03264,16.72198 -1.11596,5.88443 -2.35397,8.65261 -5.33192,11.92213 l -2.04935,2.25 -88.27646,0 c -59.52031,0 -89.91948,0.35236 -93.32022,1.08169 -3.88035,0.83219 -5.74942,1.92784 -8.10305,4.75 l -3.0593,3.66831 -3.04317,-3.75 -3.04316,-3.75 -10.84399,0 c -5.96419,0 -11.04431,0.3375 -11.28915,0.75 -0.24484,0.4125 -0.95981,10.2 -1.58883,21.75 -1.61106,29.58237 -2.8683,50.25991 -4.76034,78.29205 -1.05662,15.65476 -1.2955,24.63615 -0.67186,25.25979 0.53226,0.53226 13.31583,4.07421 28.40795,7.871 15.09212,3.79679 28.6323,7.36398 30.0893,7.92709 8.50831,3.28834 7.20823,14.65866 -1.95271,17.07808 -3.84818,1.01631 -49.33199,6.82012 -57.19638,7.29835 l -4.5,0.27364 -0.5,6.83927 c -0.41189,5.63402 -0.91603,7.17598 -2.86078,8.75 -3.40608,2.75675 -7.56384,2.45767 -10.06664,-0.72413 z"
         id="path3127"
         inkscape:connector-curvature="0" />
      <path
         style="fill:#545454"
         d="m 357.65855,554.49649 c -2.24702,-1.93281 -2.83835,-3.41251 -3.22448,-8.06882 -0.54375,-6.55689 -1.15787,-7.0871 -9.2198,-7.96014 -15.41204,-1.66898 -45.10387,-5.66167 -49.5,-6.65631 -6.85524,-1.55102 -9.28679,-3.36702 -10.06539,-7.51731 -0.77834,-4.14891 1.15697,-7.73282 5.32481,-9.86077 1.50732,-0.76959 9.94058,-3.08749 18.74058,-5.1509 29.74048,-6.97348 39.79393,-9.45208 40.27014,-9.92829 0.26094,-0.26094 -0.26383,-14.10691 -1.16616,-30.76881 -2.5941,-47.90096 -3.60085,-71.38813 -3.60247,-84.04438 l -0.002,-11.75 -12.47695,0 c -12.20526,0 -12.51261,0.0544 -14.11501,2.5 -2.08191,3.17739 -3.74248,3.16471 -5.84533,-0.0446 -0.91702,-1.39955 -2.88127,-3.08705 -4.36501,-3.75 -2.01094,-0.89852 -25.30949,-1.33266 -91.51997,-1.70537 l -88.82228,-0.5 -3.84577,-4.12342 c -7.59567,-8.14404 -8.18125,-21.53847 -1.10714,-25.32442 2.9022,-1.55321 46.83088,-7.8642 94.5143,-13.57833 11.59574,-1.38958 22.54566,-2.78973 24.33316,-3.11146 l 3.25,-0.58495 0.006,-7.63871 c 0.007,-9.44483 1.28491,-14.24951 4.89854,-18.41604 1.53726,-1.77247 3.08383,-4.41053 3.43682,-5.86237 0.35299,-1.45183 1.30766,-2.89521 2.12149,-3.20751 1.82949,-0.70204 4.53757,1.86198 4.53757,4.29619 0,0.99337 0.74632,2.42373 1.65848,3.17858 3.33699,2.76146 5.29674,9.06944 5.31956,17.12244 0.0156,5.51709 0.38211,7.7524 1.27196,7.75832 0.6875,0.005 9.0125,-0.98081 18.5,-2.18975 l 17.25,-2.19807 0,-7.68452 c 0,-8.57459 1.8662,-15.10169 5.41003,-18.92181 1.28279,-1.38279 2.61142,-3.70203 2.95252,-5.15387 0.3411,-1.45183 1.28605,-2.89521 2.09988,-3.20751 1.78951,-0.68689 4.53715,1.84307 4.53715,4.17806 0,0.92842 0.87999,2.23759 1.95553,2.90927 2.71052,1.69275 5.04447,10.28295 5.04447,18.56635 l 0,6.9435 2.97079,-0.59416 c 1.63393,-0.32678 5.90893,-0.89518 9.5,-1.26309 5.01281,-0.51358 6.54679,-1.0433 6.60489,-2.28084 0.0416,-0.88655 0.44784,-18.71191 0.90271,-39.61191 0.84292,-38.73002 1.3277,-43.42077 5.27082,-51 3.03519,-5.83406 6.3693,-8 12.31469,-8 4.87343,0 5.75675,0.35398 9.01571,3.61294 2.60884,2.60884 4.17369,5.527 5.63059,10.5 1.79087,6.11297 2.10852,11.21436 2.82616,45.38706 0.44467,21.175 0.84341,39.00054 0.88607,39.61232 0.0427,0.61177 2.66507,1.4142 5.82757,1.78317 3.1625,0.36896 7.4375,0.93843 9.5,1.26549 l 3.75,0.59464 0,-7.38441 c 0,-8.88289 1.15929,-13.35754 4.35149,-16.79593 1.31498,-1.41641 2.66996,-3.76314 3.01106,-5.21498 1.11469,-4.74446 6.15828,-4.74446 7.27732,0 0.34243,1.45184 1.42042,3.5397 2.39552,4.6397 2.67666,3.01951 3.95285,9.04893 3.95903,18.70469 l 0.006,8.70468 3.25,0.51679 c 1.7875,0.28423 7.975,1.00686 13.75,1.60583 5.775,0.59897 12.8625,1.34976 15.75,1.66843 l 5.25,0.57939 0,-7.17203 c 0,-7.42772 1.64354,-12.975 4.91649,-16.59413 1.00157,-1.10751 2.10121,-3.20151 2.44364,-4.65335 1.119,-4.74427 6.15829,-4.74427 7.28281,0 0.34412,1.45184 1.22308,3.33117 1.95323,4.1763 3.10528,3.59426 4.40383,9.00919 4.40383,18.36389 0,8.14037 0.24487,9.54076 1.75,10.00809 0.9625,0.29885 10.525,1.69455 21.25,3.10156 25.66924,3.36753 28.01179,3.683 59,7.94561 43.39039,5.96861 47.00894,7.29519 46.99442,17.22851 -0.009,6.14529 -1.96345,11.48477 -5.4975,15.01882 l -3.29734,3.29692 -88.85,0.0239 c -50.67462,0.0136 -90.56118,0.42056 -92.83263,0.94715 -2.56059,0.59363 -4.97075,2.10262 -6.75,4.22615 l -2.76737,3.3028 -2.75,-3.25901 -2.75,-3.25902 -11.75,0.009 c -10.79228,0.008 -11.75,0.16087 -11.75,1.8721 0,4.6225 -5.12444,91.85315 -6.00012,102.13691 -0.53858,6.325 -0.98389,14.06944 -0.98956,17.20986 l -0.0103,5.70986 3.75,1.05014 c 2.0625,0.57758 15.45,3.98381 29.75,7.5694 28.34282,7.1067 30.83333,8.27051 30.83333,14.40827 0,4.19767 -3.54673,7.66946 -9.1874,8.99329 -5.92356,1.39023 -50.93861,7.0592 -56.05422,7.0592 l -3.85874,0 -0.41522,6.52095 c -0.30425,4.77811 -0.93674,7.02195 -2.3665,8.39549 -3.30539,3.17542 -5.96227,3.40824 -9.00699,0.78929 z"
         id="path3125"
         inkscape:connector-curvature="0" />
      <path
         style="fill:#2b2b2b"
         d="m 356.77097,553.56825 c -0.9202,-1.31377 -1.5567,-4.3303 -1.5567,-7.37755 0,-6.46844 -1.08519,-7.40684 -9.74077,-8.42318 -49.34567,-5.79415 -56.25231,-7.01935 -58.49392,-10.37646 -0.40408,-0.60517 -0.74158,-3.01941 -0.75,-5.365 -0.0247,-6.87516 -0.87459,-6.55391 46.98469,-17.75909 8.525,-1.99594 16.10099,-4.21166 16.83553,-4.92383 1.09842,-1.06498 1.13947,-4.55769 0.23119,-19.67362 -1.92442,-32.02697 -4.0488,-80.93833 -4.05792,-93.42876 -0.006,-8.02813 -0.40932,-12.45052 -1.2088,-13.25 -0.79695,-0.79695 -5.14042,-1.2 -12.93191,-1.2 l -11.7319,0 -2.21973,3.11732 -2.21972,3.11732 -3.09837,-3.50769 c -2.505,-2.83593 -4.2315,-3.7202 -9.01515,-4.61732 -4.04015,-0.75769 -32.85523,-1.10963 -90.85,-1.10963 l -84.93322,0 -3.30265,-3.30265 c -3.06088,-3.06088 -6.49735,-11.38033 -6.49735,-15.72963 0,-3.17829 2.21877,-8.01443 4.15148,-9.04879 1.06761,-0.57137 4.50778,-1.46063 7.64482,-1.97614 8.55007,-1.40504 68.77192,-9.46384 92.61321,-12.39337 11.50023,-1.41311 21.51273,-3.06992 22.25,-3.6818 0.92759,-0.76984 1.34725,-3.76996 1.36245,-9.74006 0.0232,-9.09692 2.1164,-15.98635 5.4187,-17.83441 0.89677,-0.50186 1.98436,-2.23563 2.41687,-3.85281 1.10866,-4.14545 4.25011,-3.96388 5.35749,0.30966 0.46319,1.7875 1.27015,3.25 1.79325,3.25 0.52309,0 1.86023,1.78207 2.97141,3.96016 1.52352,2.98636 2.02032,5.90706 2.02032,11.87756 0,5.25461 0.43489,8.27831 1.29307,8.99054 1.38195,1.14692 34.01422,-2.55632 36.45693,-4.13728 0.83577,-0.54092 1.25,-3.57877 1.25,-9.16709 0,-8.86049 2.27462,-16.45894 5.46081,-18.24202 0.88569,-0.49566 1.96421,-2.22435 2.39672,-3.84153 0.92537,-3.46009 4.39064,-4.11203 4.99819,-0.94034 0.21071,1.1 1.64896,3.44351 3.1961,5.2078 2.93458,3.34648 3.76739,6.86872 4.20681,17.7922 l 0.24137,6 9,-0.29988 c 5.79313,-0.19303 9.47938,-0.77421 10.34535,-1.63107 1.05409,-1.04299 1.51998,-9.96271 2.15194,-41.20012 0.81969,-40.5167 1.14181,-43.77193 5.10129,-51.55285 2.62019,-5.14902 5.43016,-6.81608 11.48907,-6.81608 5.45382,0 9.32742,2.10428 11.56296,6.28142 3.50835,6.55542 4.03852,12.26928 4.82999,52.05512 0.55482,27.88994 1.13983,40.18545 1.95074,41 1.64543,1.65282 17.23601,3.64029 18.81866,2.39898 0.81201,-0.63688 1.25,-3.7519 1.25,-8.89008 0,-8.28438 1.6258,-13.97702 4.44188,-15.55298 0.8961,-0.50148 1.98314,-2.23494 2.41565,-3.85212 1.11226,-4.1589 5.17268,-4.1589 6.28494,0 0.43251,1.61718 1.45967,3.31713 2.28258,3.77766 2.31133,1.29348 3.56326,7.39972 3.56937,17.40956 0.004,6.66365 0.38927,9.44599 1.42697,10.3072 0.78176,0.6488 7.64426,1.83252 15.25,2.63048 7.60573,0.79796 15.29604,1.72323 17.08957,2.05615 5.12657,0.9516 6.23904,-0.70374 6.23904,-9.28367 0,-7.35281 2.59873,-15.33772 4.99173,-15.33772 0.5231,0 1.33006,-1.4625 1.79325,-3.25 0.65115,-2.51288 1.37843,-3.25 3.20664,-3.25 1.76688,0 2.56151,0.73668 3.14402,2.91477 0.42874,1.60312 1.18582,3.17812 1.68241,3.5 2.81519,1.82475 4.18195,7.35235 4.18195,16.91313 0,7.62291 0.34966,10.2174 1.50638,11.17739 1.398,1.16024 8.90796,2.39882 38.49362,6.34857 84.65797,11.30202 86.89134,11.75684 88.99237,18.12301 1.6865,5.11016 -0.73663,15.14247 -4.77586,19.77313 -1.43222,1.64193 -6.97923,1.75 -89.82228,1.75 -60.08981,0 -89.98862,0.34987 -93.59501,1.09523 -4.09537,0.84642 -5.99516,1.9025 -8.36267,4.64877 l -3.06345,3.55353 -2.15283,-3.64876 -2.15282,-3.64877 -11.41128,0 c -7.92317,0 -11.72031,0.38209 -12.42225,1.25 -0.55603,0.6875 -1.52455,10.7 -2.15226,22.25 -1.60014,29.44306 -2.85928,50.16158 -4.7589,78.30539 -1.43292,21.22928 -1.45708,24.48886 -0.19094,25.755 0.79729,0.79729 13.80629,4.55823 28.9089,8.35766 31.1955,7.84799 32.44486,8.25223 33.89848,10.96834 2.70679,5.05769 0.1209,10.49338 -5.72581,12.03598 -4.91708,1.29732 -51.10064,7.07763 -56.54893,7.07763 -2.34545,0 -4.80446,0.54 -5.46446,1.2 -0.66,0.66 -1.2,3.81 -1.2,7 0,4.46667 -0.45977,6.25977 -2,7.8 -2.7177,2.7177 -7.4622,2.60591 -9.4433,-0.22251 z"
         id="path3123"
         inkscape:connector-curvature="0" />
      <path
         style="fill:#010101"
         d="m 357.24945,552.8565 c -0.56935,-1.06384 -1.03518,-3.79342 -1.03518,-6.06574 0,-7.47505 -1.49078,-8.719 -12,-10.01316 -58.98593,-7.2638 -57,-6.75551 -57,-14.58896 0,-4.0321 0.27982,-4.49837 3.75,-6.2487 2.0625,-1.04031 8.7,-3.04865 14.75,-4.46298 6.05,-1.41433 17.975,-4.19742 26.5,-6.18465 19.77009,-4.60851 18.79671,-4.28568 19.48789,-6.46338 0.3246,-1.02274 0.12339,-9.43722 -0.44713,-18.69885 -1.84111,-29.88795 -4.02263,-80.48807 -4.03182,-93.51789 -0.007,-10.18411 -0.31811,-12.98775 -1.58037,-14.25 -1.24707,-1.24707 -3.95419,-1.57143 -13.11517,-1.57143 -11.45796,0 -11.56333,0.0215 -14.17857,2.89326 l -2.63483,2.89326 -2.5,-2.96806 c -4.75758,-5.64832 -6.41985,-5.74443 -100.02749,-5.78333 -94.19637,-0.0392 -87.12193,0.51263 -91.00459,-7.09801 -4.34037,-8.50783 -3.46712,-17.75312 1.86787,-19.77548 2.89977,-1.09923 11.11753,-2.33079 50.66421,-7.59283 25.71392,-3.42146 66.86757,-8.56881 68.50863,-8.56881 0.46668,0 1.55566,-0.70714 2.41994,-1.57143 1.1952,-1.1952 1.57143,-3.72096 1.57143,-10.54966 0,-9.61464 1.2347,-13.46114 5.64343,-17.58116 1.29611,-1.21124 2.35657,-3.12374 2.35657,-4.25 0,-1.15356 0.65501,-2.04775 1.5,-2.04775 0.83333,0 1.5,0.88889 1.5,2 0,1.1 0.87607,2.87607 1.94682,3.94682 3.8317,3.8317 5.05318,7.68289 5.05318,15.93209 0,9.38636 1.28012,11.52395 6.3483,10.6007 1.73344,-0.31578 9.83398,-1.38628 18.00122,-2.37888 10.0157,-1.21727 15.13766,-2.25982 15.73469,-3.20274 0.48684,-0.76889 0.89206,-5.12494 0.90048,-9.68011 0.0169,-9.15107 1.5656,-14.145 5.52431,-17.81381 1.37005,-1.26971 2.491,-3.23006 2.491,-4.35632 0,-1.15356 0.65501,-2.04775 1.5,-2.04775 0.825,0 1.5,0.88179 1.5,1.95953 0,1.07774 1.09967,2.99024 2.4437,4.25 3.50155,3.28198 4.55422,6.87535 4.57161,15.60557 0.008,4.22669 0.39636,8.28604 0.86209,9.02076 0.66051,1.04202 2.8315,1.1806 9.86983,0.63 4.96268,-0.38822 9.63725,-1.08486 10.38792,-1.54809 1.83512,-1.13243 2.62095,-14.6839 2.77869,-47.91777 0.14111,-29.73078 0.9699,-37.86366 4.5857,-44.99909 3.00027,-5.92074 4.77639,-7.00091 11.51164,-7.00091 4.31443,0 5.59932,0.45666 7.97815,2.83548 5.59376,5.59376 6.17481,9.89038 7.05444,52.16452 0.4406,21.175 0.836,39.48036 0.87866,40.67857 0.13991,3.92932 2.50723,5.06397 12.15938,5.8279 7.25264,0.57403 9.33718,0.44074 10.0224,-0.64085 0.47584,-0.75109 0.87206,-5.1077 0.88048,-9.68136 0.0161,-8.73247 0.81165,-11.26991 4.66742,-14.88651 1.29134,-1.21124 2.34789,-3.12374 2.34789,-4.25 0,-1.38108 0.65112,-2.04775 2,-2.04775 1.33333,0 2,0.66667 2,2 0,1.1 0.91797,2.91797 2.03993,4.03993 3.21889,3.21889 3.96007,6.392 3.96007,16.95374 0,7.63346 0.35528,10.21875 1.57143,11.4349 0.86428,0.86429 1.71622,1.57143 1.89319,1.57143 1.56807,0 29.75173,3.14966 32.13152,3.59086 4.97393,0.92212 6.40386,-1.35813 6.40386,-10.21195 0,-7.72378 1.2927,-11.67161 5.05318,-15.43209 1.07075,-1.07075 1.94682,-2.84682 1.94682,-3.94682 0,-1.33333 0.66667,-2 2,-2 1.23116,0 2.007,0.67273 2.0182,1.75 0.01,0.9625 1.36001,3.73022 3,6.15048 2.80521,4.13988 2.9818,4.97894 2.9818,14.16821 0,5.37226 0.27127,10.47465 0.60282,11.33867 0.8473,2.20802 5.16973,3.16958 27.39718,6.09474 48.17889,6.34041 84.92769,11.48683 89.8521,12.58319 5.75041,1.28026 9.83736,3.46595 11.18325,5.98077 1.54035,2.87816 0.23607,11.81419 -2.41402,16.53924 l -2.18439,3.8947 -90.96847,0.52589 c -69.33808,0.40084 -91.84989,0.8253 -94.67537,1.7851 -2.0388,0.69257 -4.69685,2.64947 -5.90679,4.34868 l -2.19989,3.08945 -1.36197,-2.59942 c -2.08763,-3.98438 -4.33231,-4.6497 -15.68728,-4.6497 -11.94149,0 -13.63717,0.82949 -13.63717,6.67104 0,1.9405 -0.45064,11.24586 -1.00142,20.67857 -0.55079,9.43272 -1.46412,25.25039 -2.02963,35.15039 -0.56551,9.9 -1.72973,28.04807 -2.58714,40.32905 -0.85742,12.28098 -1.29304,23.38849 -0.96805,24.68335 0.71002,2.82894 -1.88452,1.97844 31.92203,10.46425 15.19798,3.81486 28.53447,7.41873 29.63664,8.0086 4.56668,2.44401 3.76417,10.4006 -1.25802,12.4729 -3.5255,1.45472 -50.38741,7.5675 -57.89298,7.5517 -6.37958,-0.0134 -7.82143,1.64387 -7.82143,8.99015 0,3.99134 -0.50058,6.35772 -1.57143,7.42857 -2.22993,2.22993 -7.11889,2.01859 -8.39339,-0.36283 z"
         id="path3121"
         inkscape:connector-curvature="0" />
    </g>
  </g>
</svg>
