<?xml version="1.0" encoding="UTF-8" standalone="no"?>
<!-- Created with Inkscape (http://www.inkscape.org/) -->

<svg
   xmlns:dc="http://purl.org/dc/elements/1.1/"
   xmlns:cc="http://creativecommons.org/ns#"
   xmlns:rdf="http://www.w3.org/1999/02/22-rdf-syntax-ns#"
   xmlns:svg="http://www.w3.org/2000/svg"
   xmlns="http://www.w3.org/2000/svg"
   xmlns:sodipodi="http://sodipodi.sourceforge.net/DTD/sodipodi-0.dtd"
   xmlns:inkscape="http://www.inkscape.org/namespaces/inkscape"
   width="508.81503"
   height="337.93344"
   id="svg2"
   version="1.1"
   inkscape:version="0.48.4 r9939"
   sodipodi:docname="C-47.svg">
  <defs
     id="defs4" />
  <sodipodi:namedview
     id="base"
     pagecolor="#ffffff"
     bordercolor="#666666"
     borderopacity="1.0"
     inkscape:pageopacity="0.0"
     inkscape:pageshadow="2"
     inkscape:zoom="0.35"
     inkscape:cx="234.73909"
     inkscape:cy="134.56896"
     inkscape:document-units="px"
     inkscape:current-layer="layer1"
     showgrid="false"
     fit-margin-top="0"
     fit-margin-left="0"
     fit-margin-right="0"
     fit-margin-bottom="0"
     inkscape:window-width="779"
     inkscape:window-height="573"
     inkscape:window-x="0"
     inkscape:window-y="25"
     inkscape:window-maximized="0" />
  <metadata
     id="metadata7">
    <rdf:RDF>
      <cc:Work
         rdf:about="">
        <dc:format>image/svg+xml</dc:format>
        <dc:type
           rdf:resource="http://purl.org/dc/dcmitype/StillImage" />
        <dc:title />
      </cc:Work>
    </rdf:RDF>
  </metadata>
  <g
     inkscape:label="Layer 1"
     inkscape:groupmode="layer"
     id="layer1"
     transform="translate(-140.2609,-328.99771)">
    <g
       id="g3095"
       transform="translate(-2.8571428e-6,2.8571431)">
      <path
         style="fill:#d2d2d2"
         d="m 394.14998,662.6632 c -0.64396,-0.77592 -1.40321,-3.13842 -1.68722,-5.25 -0.9558,-7.10618 -1.40224,-8.27711 -3.6053,-9.45615 -1.97126,-1.05499 -2.58029,-0.72686 -5.97854,3.22114 l -3.7837,4.39578 -17.2968,0.31196 c -15.10024,0.27235 -18.30803,0.0424 -25.25965,-1.81102 -6.20811,-1.65516 -8.80995,-2.93591 -11.80697,-5.81197 -4.94731,-4.74762 -5.95306,-7.37157 -4.66252,-12.16428 1.499,-5.56686 8.1066,-11.14058 17.58266,-14.83155 4.35819,-1.69753 13.09899,-5.38209 19.42399,-8.18791 6.325,-2.80582 15.2125,-6.70824 19.75,-8.67203 4.5375,-1.9638 8.25,-4.13851 8.25,-4.83271 0,-0.69419 -0.91212,-7.27829 -2.02694,-14.63133 -1.11482,-7.35304 -2.44941,-17.19416 -2.96577,-21.86916 -0.51636,-4.675 -1.59492,-14.125 -2.3968,-21 -0.80189,-6.875 -1.73881,-19.7 -2.08205,-28.5 -0.34324,-8.8 -0.87077,-17.27145 -1.17228,-18.82545 l -0.54821,-2.82545 -26.15398,0.25371 c -22.92809,0.22241 -59.11376,-0.33191 -103.65397,-1.58785 -7.425,-0.20937 -24.975,-0.65385 -39,-0.98773 -39.98826,-0.95198 -51.51472,-3.16802 -60.25,-11.58347 -5.54496,-5.34194 -5.88644,-7.58732 -1.84914,-12.15896 6.56418,-7.43296 14.53095,-10.48592 55.59914,-21.30623 5.5,-1.4491 13.825,-3.69879 18.5,-4.99933 40.51114,-11.26977 53.4268,-14.78682 66,-17.97239 7.975,-2.02056 16.525,-4.29251 19,-5.04878 2.475,-0.75627 9.8264,-2.7412 16.33645,-4.41097 6.51005,-1.66976 12.24755,-3.29 12.75,-3.60053 0.50245,-0.31053 0.92018,-4.70055 0.92829,-9.75559 0.0169,-10.55635 1.09859,-13.48183 5.869,-15.87346 1.84576,-0.92537 4.19539,-3.06287 5.22139,-4.75 2.53072,-4.16142 6.35108,-4.18997 8.69138,-0.0649 0.93692,1.65141 2.47123,3.25046 3.40957,3.55345 0.93834,0.30298 2.85084,1.91135 4.25,3.57415 2.35308,2.79648 2.54392,3.77144 2.54392,12.99646 l 0,9.97318 5.75,-0.29991 5.75,-0.2999 0.65686,-20 c 1.13461,-34.54642 2.88624,-43.19511 10.96927,-54.16095 9.02716,-12.24668 20.49758,-8.73955 27.34311,8.36027 4.50037,11.24171 5.6438,19.20125 6.25632,43.55068 l 0.57228,22.75 5.35108,0 5.35108,0 0,-9.54966 c 0,-10.93325 1.4765,-15.02329 5.99161,-16.59726 1.75997,-0.61353 3.24389,-2.08987 3.85095,-3.83128 1.79179,-5.13994 8.23443,-4.83549 9.56146,0.45182 0.42115,1.67798 1.32515,2.52638 2.69196,2.52638 1.13182,0 3.37325,1.31538 4.98094,2.92308 2.88932,2.88932 2.92308,3.05489 2.92308,14.33745 l 0,11.41437 8.25,2.07864 c 4.5375,1.14325 15.225,3.92833 23.75,6.18908 35.32412,9.36762 69.17261,17.98125 92.5,23.53905 28.70409,6.83881 50.63518,13.34149 56.11098,16.6372 3.74848,2.2561 8.38902,8.67736 8.38902,11.60816 0,2.86585 -4.30884,7.79302 -9.3554,10.69791 -6.27498,3.612 -19.12313,6.77695 -26.1446,6.44033 -3.3,-0.1582 -10.95,0.025 -17,0.40724 -6.05,0.38218 -24.275,0.95372 -40.5,1.27008 -16.225,0.31636 -40.2938,1.22369 -53.48622,2.0163 -13.19242,0.79261 -36.87533,1.44111 -52.62868,1.44111 l -28.64246,0 -1.05879,2.75 c -1.61644,4.19836 -2.03347,7.42535 -3.19846,24.75 -0.59176,8.8 -1.74678,22.75 -2.56672,31 -0.81994,8.25 -1.9232,19.725 -2.4517,25.5 -0.52849,5.775 -1.40966,13.2 -1.95814,16.5 -0.54849,3.3 -0.99985,6.73966 -1.00304,7.64369 -0.006,1.61245 7.63653,5.21797 36.99421,17.45354 13.22224,5.51071 15.6195,6.84096 20.2344,11.2281 7.05457,6.70641 7.40345,14.53682 0.93582,21.00445 -2.04502,2.04502 -5.55963,4.26992 -7.81024,4.94422 -4.96701,1.48816 -41.61247,1.69642 -44.3117,0.25184 -1.00113,-0.53579 -2.7551,-2.55864 -3.89771,-4.49522 -1.92339,-3.25989 -2.26738,-3.43452 -4.638,-2.35439 -2.56843,1.17025 -2.94262,2.04954 -3.8994,9.163 -0.631,4.69132 -2.14285,6.66077 -5.11317,6.66077 -1.24031,0 -2.78199,-0.63485 -3.42595,-1.41077 z"
         id="path3109"
         inkscape:connector-curvature="0" />
      <path
         style="fill:#ababab"
         d="m 394.11111,661.13971 c -0.56935,-1.06384 -1.03518,-3.7843 -1.03518,-6.04545 0,-3.03164 -0.64454,-4.75574 -2.45455,-6.56574 -3.08226,-3.08227 -3.78115,-3.06693 -6.69049,0.1468 -6.31438,6.97504 -4.18846,6.40138 -23.60496,6.36953 -22.99273,-0.0377 -29.60699,-1.59 -36.11225,-8.47511 -4.10635,-4.34612 -4.33374,-4.88208 -3.73849,-8.81168 0.90522,-5.97587 6.87255,-11.39923 17.10074,-15.54185 4.4,-1.78209 10.33417,-4.34313 13.18705,-5.6912 2.85288,-1.34807 5.42704,-2.45104 5.72037,-2.45104 0.29332,0 3.13415,-1.18994 6.31294,-2.6443 3.1788,-1.45437 9.37964,-4.18227 13.77964,-6.06199 4.4,-1.87972 8.36783,-3.78012 8.8174,-4.2231 0.44957,-0.44298 -0.15169,-7.27758 -1.33614,-15.18801 -1.18446,-7.91043 -2.54922,-17.9826 -3.03281,-22.3826 -0.48359,-4.4 -1.53722,-13.625 -2.3414,-20.5 -0.80418,-6.875 -1.75042,-19.925 -2.10276,-29 -0.35235,-9.075 -1.10417,-17.99075 -1.67073,-19.81278 l -1.0301,-3.31277 -25.65173,0.31277 c -44.13497,0.53815 -169.64167,-2.91706 -183.65173,-5.05594 -7.83824,-1.19664 -14.36947,-4.11512 -19.41967,-8.67767 -6.90083,-6.23449 -5.25813,-10.31034 7.1601,-17.76559 5.42896,-3.25927 14.21255,-6.01126 45.75957,-14.33698 10.16569,-2.68288 16.30428,-4.37055 44.5,-12.2343 9.9,-2.7611 23.175,-6.36905 29.5,-8.01766 6.325,-1.64862 14.875,-3.88095 19,-4.96073 9.63482,-2.52209 33.38686,-8.84742 38.25,-10.18625 l 3.75,-1.03238 0,-10.325 c 0,-11.6291 1.41049,-14.86706 7.01219,-16.0974 1.9411,-0.42634 2.98781,-1.27475 2.98781,-2.42179 0,-1.86529 2.95611,-5.07553 4.67375,-5.07553 1.53699,0 4.32625,3.4356 4.32625,5.32874 0,0.9471 0.78553,1.67126 1.81291,1.67126 0.9971,0 3.0221,1.26212 4.5,2.80472 2.5738,2.68647 2.68709,3.25564 2.68709,13.5 l 0,10.69528 5.8,0 c 3.19,0 6.34,-0.54 7,-1.2 0.82133,-0.82133 1.20647,-5.79138 1.22052,-15.75 0.029,-20.59959 2.2849,-42.26532 5.05507,-48.55 3.01336,-6.83639 7.85443,-13.41245 11.11508,-15.0986 7.57863,-3.91906 13.83162,-0.35696 19.28823,10.9878 5.29184,11.00219 6.57825,18.99093 7.34458,45.6108 l 0.67652,23.5 6.25,0.29772 6.25,0.29771 0,-10.90169 c 0,-10.18586 0.16102,-11.07544 2.45225,-13.54772 1.34874,-1.45531 3.31749,-2.64602 4.375,-2.64602 1.32462,0 2.1044,-0.90823 2.50666,-2.91957 1.04093,-5.20464 7.29813,-5.17025 8.34134,0.0458 0.46275,2.31371 1.10104,2.87373 3.27544,2.87373 1.53002,0 3.64318,1.00324 4.875,2.31445 1.97476,2.10204 2.17431,3.38037 2.17431,13.92904 l 0,11.61459 5.25,1.51785 c 2.8875,0.83482 7.05,1.9432 9.25,2.46307 2.2,0.51987 6.7,1.70136 10,2.62554 3.3,0.92417 9.48854,2.54116 13.75231,3.59331 6.84274,1.68854 19.24446,4.99481 29.74769,7.93066 1.925,0.53807 9.8,2.54169 17.5,4.4525 7.7,1.9108 16.7,4.14754 20,4.97053 3.3,0.82299 12.75,3.10455 21,5.07013 28.40643,6.76789 50.0124,13.22096 54.7704,16.35831 3.72846,2.45849 7.7296,8.03738 7.7296,10.77757 0,3.15319 -4.01784,7.5389 -9.66728,10.5524 -9.70271,5.17559 -14.69611,5.66375 -75.33272,7.3646 -31.075,0.87165 -61.675,1.98199 -68,2.46742 -6.325,0.48543 -25.55094,0.90858 -42.72432,0.94032 l -31.22432,0.0577 -1.48501,2.87169 c -1.41027,2.72717 -2.73665,13.66259 -4.07884,33.62831 -0.33276,4.95 -1.26974,15.75 -2.08216,24 -0.81243,8.25 -1.88653,19.5 -2.38691,25 -0.50037,5.5 -1.41725,13.25202 -2.03751,17.22672 -0.62026,3.97469 -0.88032,7.62706 -0.5779,8.11637 0.30241,0.48932 5.17294,2.79053 10.8234,5.1138 5.65046,2.32328 12.52357,5.28451 15.27357,6.5805 2.75,1.296 9.012,3.99665 13.91555,6.00145 15.62409,6.38784 21.47833,11.34009 22.32918,18.88881 0.67185,5.96064 -2.72315,11.41531 -8.99447,14.4512 -4.04193,1.95667 -6.02265,2.12115 -25.54293,2.12115 l -21.16122,0 -1.71054,-2.75 c -3.68473,-5.92386 -4.29786,-6.32086 -7.3358,-4.74988 -3.18695,1.64803 -3.99977,3.30373 -3.99977,8.14741 0,4.76714 -1.58232,7.35247 -4.5,7.35247 -1.37865,0 -2.87742,-0.8367 -3.46482,-1.93426 z"
         id="path3107"
         inkscape:connector-curvature="0" />
      <path
         style="fill:#919191"
         d="m 395.32917,661.82397 c -0.54541,-0.6875 -1.22339,-3.41552 -1.50663,-6.06227 -0.55535,-5.18962 -3.74693,-9.68773 -6.8738,-9.68773 -0.97821,0 -3.22508,1.8 -4.99305,4 l -3.21449,4 -18.37712,0 c -22.84622,0 -29.66601,-1.37786 -35.45051,-7.16236 -3.08838,-3.08838 -3.83691,-4.56979 -3.8339,-7.58764 0.007,-7.50269 5.26985,-12.38711 19.00676,-17.64165 3.56923,-1.36527 11.6645,-4.78233 17.9895,-7.59346 6.325,-2.81114 15.17939,-6.70367 19.67642,-8.65008 4.49703,-1.94641 8.37213,-4.06225 8.61133,-4.70187 0.2392,-0.63962 -0.38518,-6.56294 -1.38751,-13.16294 -1.00233,-6.6 -2.29565,-16.275 -2.87405,-21.5 -0.57841,-5.225 -1.51337,-12.875 -2.07771,-17 -0.56433,-4.125 -1.60355,-17.92461 -2.30939,-30.6658 -0.97448,-17.59072 -1.65631,-23.72754 -2.83317,-25.5 l -1.54983,-2.3342 -35.37805,-0.11004 c -19.45792,-0.0605 -45.05304,-0.39371 -56.87804,-0.74042 -11.825,-0.34671 -33.875,-0.86366 -49,-1.14877 -64.34242,-1.21287 -73.88298,-2.30465 -84.74155,-9.69746 -7.81721,-5.32217 -7.11213,-10.70915 2.1954,-16.77324 7.32175,-4.77031 13.7328,-6.97767 40.93886,-14.09547 20.79452,-5.44038 22.23731,-5.83445 56.10729,-15.32454 12.65,-3.54442 31.1,-8.55168 41,-11.12724 9.9,-2.57556 23.85,-6.20561 31,-8.06678 8.00196,-2.08294 13.48058,-4.04029 14.25,-5.09112 0.79579,-1.08684 1.25,-5.21512 1.25,-11.36106 0,-10.44035 0.56496,-11.70736 6.1706,-13.83862 1.46682,-0.55769 3.27206,-2.27651 4.01164,-3.81961 1.76565,-3.68389 4.87652,-3.67002 6.64973,0.0297 0.74741,1.55941 2.67547,3.29425 4.28458,3.85519 4.20951,1.46744 4.88345,3.48527 4.88345,14.62134 0,7.6337 0.34961,10.23345 1.50517,11.19247 1.81766,1.50852 11.03973,0.85081 12.80369,-0.91315 0.80924,-0.80923 1.41395,-8.59477 1.88607,-24.28262 0.38222,-12.70031 1.17295,-26.17234 1.75718,-29.93783 1.29708,-8.35987 5.20893,-16.90454 10.08644,-22.03187 3.29441,-3.46314 4.1461,-3.83882 8.70302,-3.83882 4.57196,0 5.35919,0.35073 8.29672,3.69639 1.78501,2.03302 4.32402,6.13517 5.64224,9.11589 4.46223,10.0899 5.36549,16.38482 6.00794,41.86985 0.33528,13.30017 0.94457,24.72412 1.35398,25.38655 1.08422,1.7543 10.60406,2.46958 12.45238,0.93561 1.15941,-0.96222 1.50517,-3.58198 1.50517,-11.40423 0,-10.8098 1.28096,-14.60006 4.93426,-14.60006 2.12374,0 3.69789,-1.67788 4.22183,-4.5 0.27257,-1.46819 1.16173,-2 3.34391,-2 2.18218,0 3.07134,0.53181 3.34391,2 0.55562,2.99277 2.13222,4.5 4.70711,4.5 4.61327,0 5.44898,2.21604 5.44898,14.44898 0,8.00604 0.37615,11.61831 1.2887,12.37566 1.28887,1.06966 11.59564,4.02482 36.79853,10.5509 42.61657,11.03519 77.99833,20.01878 96.91277,24.6066 25.27216,6.12992 42.07305,11.32024 47.12684,14.55896 1.99476,1.27835 4.65403,3.9863 5.90949,6.01768 2.21425,3.58274 2.23098,3.78938 0.55831,6.89534 -0.95408,1.77162 -4.04055,4.58073 -6.90949,6.28858 -5.32038,3.16717 -20.10018,7.73687 -21.74185,6.72226 -1.14705,-0.70892 -101.44853,2.25127 -120.4433,3.55463 -7.7,0.52835 -28.05094,0.96508 -45.22432,0.97052 l -31.22432,0.01 -1.56423,3.02489 c -2.20445,4.26294 -3.24496,11.0901 -4.49221,29.47511 -0.597,8.8 -1.75631,22.75 -2.57625,31 -0.81994,8.25 -1.92522,19.725 -2.45617,25.5 -0.53096,5.775 -1.36301,12.96047 -1.84901,15.96771 -0.486,3.00724 -0.67476,6.01203 -0.41947,6.6773 0.43968,1.14579 13.22433,6.94529 37.80598,17.14993 13.47889,5.59553 20.91089,10.16518 22.95203,14.11229 2.37142,4.58583 1.98884,10.82597 -0.89558,14.60765 -4.56512,5.98507 -6.95057,6.48501 -30.94339,6.48501 l -21.58468,0 -2.64708,-4 c -3.05053,-4.60967 -4.25705,-4.8711 -7.92391,-1.717 -1.9958,1.71671 -2.78621,3.51503 -3.18656,7.25 -0.56075,5.23131 -1.68977,7.467 -3.77083,7.467 -0.69031,0 -1.70135,-0.5625 -2.24676,-1.25 z"
         id="path3105"
         inkscape:connector-curvature="0" />
      <path
         style="fill:#6c6c6c"
         d="m 395.27593,660.87397 c -0.66,-0.66 -1.2,-3.16962 -1.2,-5.57692 0,-3.50432 -0.58276,-4.95968 -2.92308,-7.3 -1.60769,-1.6077 -3.46907,-2.92308 -4.13641,-2.92308 -0.66733,0 -3.03295,2.025 -5.25694,4.5 l -4.04361,4.5 -17.56998,-0.0291 c -22.31372,-0.037 -29.52879,-1.66478 -35.43261,-7.99398 -3.56507,-3.82195 -3.81706,-4.46916 -3.23573,-8.31081 0.87478,-5.78094 6.03453,-10.43409 16.09836,-14.51778 4.4,-1.78543 10.33417,-4.3492 13.18705,-5.69727 2.85288,-1.34807 5.43848,-2.45104 5.74577,-2.45104 0.3073,0 3.82313,-1.49199 7.81295,-3.31553 3.98983,-1.82355 10.29316,-4.59167 14.00741,-6.15138 3.71425,-1.55971 7.2283,-3.40831 7.809,-4.10801 0.74989,-0.90357 0.43426,-5.42333 -1.08933,-15.59863 -1.17983,-7.87955 -2.54081,-17.92645 -3.0244,-22.32645 -0.48359,-4.4 -1.53899,-13.625 -2.34532,-20.5 -0.80634,-6.875 -1.77292,-20.15 -2.14796,-29.5 -0.42272,-10.53889 -1.19946,-18.25904 -2.0437,-20.31269 l -1.36181,-3.3127 -25.77483,0.3127 c -22.76955,0.27623 -64.86011,-0.36801 -110.77483,-1.69553 -8.25,-0.23853 -25.575,-0.7071 -38.5,-1.04127 -12.925,-0.33418 -25.3,-1.01125 -27.5,-1.5046 -2.2,-0.49336 -5.42246,-0.90802 -7.16102,-0.92146 -4.75384,-0.0368 -13.76465,-3.84099 -18.30668,-7.72879 -6.87234,-5.88247 -5.49242,-9.57323 6.20813,-16.60435 5.43163,-3.264 14.18786,-6.00806 45.75957,-14.34029 10.34345,-2.72979 17.18426,-4.61177 44.5,-12.24243 9.9,-2.76556 26.1,-7.12615 36,-9.69019 9.9,-2.56404 21.6,-5.67982 26,-6.92394 4.4,-1.24412 12.05,-3.2658 17,-4.49261 13.30626,-3.29784 12.5,-2.37251 12.5,-14.34592 0,-11.50345 0.75952,-13.3915 6.11207,-15.19368 2.16348,-0.72844 3.52861,-1.94017 3.88458,-3.44806 1.20288,-5.09551 6.45593,-4.87029 7.19332,0.30841 0.18928,1.32933 1.13796,2.2955 2.43576,2.48065 1.16915,0.16679 3.0654,1.3035 4.21389,2.52602 1.81129,1.92803 2.12611,3.67783 2.37428,13.19673 l 0.2861,10.97398 5.86241,0.30326 c 9.31744,0.48198 9.63335,-0.0972 9.65811,-17.70825 0.0305,-21.70037 2.26552,-42.29717 5.32742,-49.09501 4.88014,-10.83453 9.22951,-14.90222 16.00085,-14.96456 4.87201,-0.0449 8.76376,3.81717 12.82813,12.73018 4.71458,10.33887 5.92748,18.48308 6.55052,43.98455 0.41466,16.97196 0.91041,23.53431 1.83593,24.30242 0.69734,0.57874 3.89335,0.91616 7.10226,0.74983 l 5.83437,-0.30242 0.2861,-10.97398 c 0.24817,-9.5189 0.56299,-11.2687 2.37428,-13.19673 1.14849,-1.22252 3.0263,-2.35923 4.1729,-2.52602 1.24247,-0.18075 2.31249,-1.27507 2.64847,-2.70863 1.21052,-5.16507 6.46396,-4.99891 7.20822,0.22798 0.22622,1.58878 1.121,2.26758 3.31003,2.51104 5.83749,0.64926 6.5,2.20729 6.5,15.28614 0,13.6396 -0.79955,12.54943 11.5,15.68006 4.4,1.11994 10.7,2.76738 14,3.66098 26.55114,7.18969 77.29771,20.13546 102,26.02083 21.24981,5.06281 25.37428,6.1708 40,10.74549 11.44713,3.58049 13.50767,4.5705 17.25,8.28794 6.61954,6.57552 5.32717,11.45671 -4.40831,16.64997 -9.71107,5.18024 -14.72159,5.67222 -74.84169,7.34865 -30.8,0.85884 -61.625,1.98082 -68.5,2.49328 -6.875,0.51246 -26.49416,0.94553 -43.59813,0.96237 l -31.09812,0.0306 -1.59975,3.75 c -1.98942,4.66344 -2.42908,7.86172 -3.746,27.25 -0.57905,8.525 -1.72263,22.25 -2.5413,30.5 -0.81867,8.25 -1.89788,19.5 -2.39826,25 -0.50037,5.5 -1.4221,13.28325 -2.04828,17.29611 -0.83717,5.36501 -0.84361,7.65144 -0.0243,8.63861 0.61279,0.73837 5.71317,3.23335 11.33417,5.5444 5.62101,2.31105 12.47001,5.26228 15.22001,6.55827 2.75,1.296 9.012,3.99665 13.91555,6.00145 15.43691,6.31131 20.50166,10.54702 21.32284,17.83253 0.6631,5.88301 -2.22134,10.71583 -8.09182,13.55768 -3.91089,1.89321 -6.08186,2.07095 -25.29479,2.07095 l -21.01674,0 -2.42208,-3.75 c -3.0043,-4.65142 -6.00709,-5.24682 -9.3917,-1.86221 -1.92145,1.92145 -2.5213,3.55515 -2.5213,6.86676 0,4.24859 -1.29554,6.74545 -3.5,6.74545 -0.605,0 -1.64,-0.54 -2.3,-1.2 z"
         id="path3103"
         inkscape:connector-curvature="0" />
      <path
         style="fill:#535353"
         d="m 395.05118,659.50887 c -0.53639,-1.4108 -0.97525,-4.04944 -0.97525,-5.86364 0,-3.67939 -4.0256,-8.57126 -7.05343,-8.57126 -0.97938,0 -3.36832,1.9125 -5.30875,4.25 l -3.52805,4.25 -16.39207,0.31518 c -20.63956,0.39684 -29.73945,-1.47758 -35.77229,-7.36848 -4.34992,-4.24759 -4.9142,-5.75419 -3.77473,-10.0785 1.2087,-4.58701 7.37536,-9.583 16.3931,-13.28106 4.36492,-1.78999 9.73622,-4.08176 11.93622,-5.09281 2.2,-1.01105 10.975,-4.83216 19.5,-8.49135 8.525,-3.65919 15.92916,-7.07096 16.45369,-7.58171 0.60354,-0.5877 -0.0562,-8.36202 -1.79709,-21.17496 -5.76793,-42.45332 -6.36812,-48.19966 -7.18028,-68.74631 -0.33698,-8.525 -1.06727,-16.96362 -1.62288,-18.7525 l -1.01019,-3.2525 -32.67163,0.0648 c -17.96939,0.0357 -40.77162,-0.17244 -50.67162,-0.46248 -9.9,-0.29004 -30.15,-0.80648 -45,-1.14764 -41.02476,-0.94251 -73.26412,-2.2888 -80.59054,-3.3654 -8.74569,-1.28515 -16.67385,-4.91296 -20.66112,-9.45422 -1.78659,-2.03481 -3.24834,-4.11834 -3.24834,-4.63006 0,-2.09948 6.2992,-7.87969 11.71478,-10.7496 5.29532,-2.80617 11.20593,-4.60438 43.78522,-13.32098 6.05,-1.61868 13.475,-3.67868 16.5,-4.57777 3.025,-0.89909 9.325,-2.61825 14,-3.82036 4.675,-1.20212 16.825,-4.48092 27,-7.28624 10.175,-2.80531 31.55,-8.55888 47.5,-12.78569 15.95,-4.22681 29.52216,-8.10594 30.16036,-8.62028 0.70124,-0.56516 1.29474,-5.03018 1.5,-11.28483 0.37253,-11.35191 1.48117,-13.83256 6.64341,-14.865 1.8484,-0.36968 3.06801,-1.51122 3.86202,-3.61478 1.48698,-3.93946 4.16808,-3.97486 5.64031,-0.0745 0.62281,1.65 1.74333,3 2.49006,3 0.74673,0 2.67307,1.31538 4.28076,2.92308 2.86229,2.86228 2.92308,3.14305 2.92308,13.5 l 0,10.57692 6.8,0 c 3.95556,0 7.30196,-0.50196 8,-1.2 0.81734,-0.81734 1.20654,-5.68034 1.22052,-15.25 0.0306,-20.97934 2.30169,-41.92169 5.36318,-49.45605 6.0317,-14.84411 15.59091,-19.94877 22.95768,-12.25951 1.4083,1.46995 3.88284,5.59604 5.49897,9.16909 4.73581,10.47022 6.32336,20.85964 7.02849,45.99647 l 0.63116,22.5 7.25,0.29381 7.25,0.29381 0.0147,-10.29381 c 0.0169,-11.81268 1.07665,-14.81497 5.69706,-16.14009 2.33384,-0.66933 3.35017,-1.6594 3.79842,-3.70025 1.06838,-4.8643 4.7684,-4.67585 6.0189,0.30655 0.51427,2.04898 1.3023,2.73998 3.12474,2.73998 1.34038,0 3.54159,1.10454 4.89159,2.45454 2.32072,2.32068 2.45459,3.07999 2.45459,13.92245 l 0,11.46791 3.25,1.04368 c 1.7875,0.57402 7.525,2.15419 12.75,3.51147 5.225,1.35729 17.15,4.49318 26.5,6.96865 22.94581,6.07504 67.32476,17.28243 93.11666,23.51552 21.51706,5.2 39.51861,10.58301 45.178,13.50959 3.12147,1.61418 8.20534,7.97206 8.20534,10.2616 0,2.03698 -5.07786,7.3439 -8.87579,9.27619 -6.4035,3.25792 -19.79606,6.36572 -24.9278,5.7846 -2.58303,-0.2925 -8.74641,-0.15538 -13.69641,0.30471 -4.95,0.4601 -23.85,1.11855 -42,1.46323 -18.15,0.34468 -43.35,1.26976 -56,2.05572 -12.65,0.78597 -36.15094,1.43604 -52.22432,1.44459 l -29.22432,0.0155 -1.40743,2.75 c -1.85262,3.61985 -2.42634,7.70571 -3.68593,26.25 -0.57905,8.525 -1.6891,22.025 -2.46678,30 -0.77769,7.975 -1.6725,17.2 -1.98848,20.5 -0.31597,3.3 -1.31714,11.96872 -2.22481,19.26381 -1.05352,8.46738 -1.3034,13.61072 -0.691,14.22312 0.52761,0.52761 7.47389,3.71137 15.43618,7.07501 7.96229,3.36364 19.39085,8.19991 25.39679,10.74725 7.77347,3.29702 12.35468,5.95081 15.89936,9.21015 4.53898,4.17361 4.98835,4.98792 5.08009,9.20573 0.11663,5.36154 -2.19975,9.15069 -7.50388,12.27493 -3.01766,1.77746 -5.55086,2.03649 -22.76667,2.32799 -10.65417,0.18039 -20.37676,0.0756 -21.60577,-0.23285 -1.22901,-0.30847 -3.43085,-2.36856 -4.89298,-4.57799 -3.11533,-4.70758 -4.40094,-4.92226 -8.55332,-1.42826 -2.30681,1.94105 -3.07673,3.42621 -3.07673,5.9349 0,4.54907 -1.6216,8.47621 -3.5,8.47621 -0.85223,0 -1.98836,-1.15429 -2.52475,-2.5651 z"
         id="path3101"
         inkscape:connector-curvature="0" />
      <path
         style="fill:#2c2c2c"
         d="m 395.77717,660.44187 c -0.38568,-0.38568 -0.70124,-2.69623 -0.70124,-5.13457 0,-3.70849 -0.55589,-4.98922 -3.4,-7.83333 -1.87,-1.87 -3.96657,-3.4 -4.65904,-3.4 -0.69247,0 -3.11819,2.025 -5.39048,4.5 l -4.13145,4.5 -17.45952,-0.0291 c -21.66409,-0.0361 -29.51807,-1.73154 -34.82033,-7.51655 -3.02487,-3.30027 -3.29818,-4.08102 -2.73419,-7.81057 0.84855,-5.61122 5.16785,-9.46781 15.13151,-13.51053 4.37993,-1.77713 10.29767,-4.33412 13.15055,-5.68219 2.85288,-1.34807 5.42911,-2.45104 5.72496,-2.45104 0.29585,0 3.36167,-1.29006 6.81295,-2.86679 3.45127,-1.57674 10.19705,-4.54849 14.99062,-6.60389 4.99714,-2.14268 8.94766,-4.46829 9.25954,-5.45093 0.29917,-0.94261 -0.37246,-7.75836 -1.49252,-15.14611 -1.12007,-7.38776 -2.45895,-17.25728 -2.97531,-21.93228 -0.51636,-4.675 -1.6002,-14.125 -2.40854,-21 -0.80833,-6.875 -1.7813,-20.26383 -2.16214,-29.75295 -0.51406,-12.80814 -1.11034,-18.08948 -2.31453,-20.5 l -1.62208,-3.24707 -31,-0.0677 c -17.05,-0.0373 -42.475,-0.37514 -56.5,-0.75085 -14.025,-0.37572 -36.75,-0.90976 -50.5,-1.18675 -57.51113,-1.15859 -68.39149,-1.88352 -79.49391,-5.29646 -7.66879,-2.35743 -13.42078,-6.91251 -13.81576,-10.94089 -0.26709,-2.72414 0.28279,-3.59011 4,-6.29928 8.30434,-6.05235 12.582,-7.53496 50.80967,-17.61034 10.62121,-2.79935 18.33343,-4.92296 44.5,-12.25336 9.9,-2.77342 25.875,-7.07208 35.5,-9.55256 9.625,-2.48049 20.65,-5.40631 24.5,-6.50183 3.85,-1.09552 11.725,-3.17593 17.5,-4.62313 15.40861,-3.86135 15,-3.43897 15,-15.5056 0,-11.33006 0.73321,-13.47407 4.92258,-14.39421 3.28715,-0.72198 4.68488,-2.06189 5.23351,-5.017 0.22252,-1.19859 1.16173,-2 2.34391,-2 1.18218,0 2.12139,0.80141 2.34391,2 0.51651,2.78212 2.09068,4.5 4.12355,4.5 3.92548,0 5.03254,3.10805 5.03254,14.12874 0,6.81098 0.41947,10.89073 1.2,11.67126 0.66,0.66 3.81,1.2 7,1.2 9.4484,0 9.39317,0.13742 10.08666,-25.09929 0.74632,-27.15918 1.93591,-36.28494 5.76655,-44.23689 4.76627,-9.89429 7.90255,-12.66386 14.34058,-12.66386 4.50271,0 7.81808,3.32436 11.7338,11.76562 4.75652,10.25381 5.97436,18.38222 6.60163,44.06247 0.44583,18.25228 0.8792,23.63747 1.99172,24.75 1.76548,1.76548 12.36837,1.9326 14.07906,0.22191 0.78303,-0.78303 1.2,-4.89889 1.2,-11.84501 0,-9.04273 0.27526,-10.89412 1.82874,-12.3 1.00581,-0.91025 2.52571,-1.65499 3.37756,-1.65499 1.87272,0 3.44743,-1.79407 3.94979,-4.5 0.22252,-1.19859 1.16173,-2 2.34391,-2 1.18218,0 2.12139,0.80141 2.34391,2 0.57542,3.09944 2.15604,4.5 5.07853,4.5 4.55431,0 5.07756,1.46096 5.07756,14.17695 0,13.8487 -0.32919,13.4104 12.5,16.64324 4.4,1.10876 10.7,2.74705 14,3.64065 25.51458,6.90901 78.26209,20.36522 102,26.02083 21.27213,5.06813 25.38444,6.17336 40,10.75046 10.93045,3.42305 13.59699,4.66507 16.75,7.80187 5.73264,5.70315 4.9038,10.03344 -2.78267,14.53801 -9.33839,5.47266 -14.77244,6.12217 -61.70048,7.37476 -23.79677,0.63518 -51.81685,1.63027 -62.26685,2.21131 -10.45,0.58104 -36.22776,1.28101 -57.2839,1.55547 l -38.2839,0.49903 -1.92651,3.77628 c -1.88368,3.69231 -3.04029,12.52684 -4.51818,34.51114 -0.33276,4.95 -1.26974,15.75 -2.08216,24 -0.81243,8.25 -1.88402,19.5 -2.38132,25 -0.4973,5.5 -1.39704,13.08296 -1.99943,16.85101 -0.60239,3.76806 -0.8348,7.67163 -0.51647,8.67459 0.37368,1.17737 4.55,3.4815 11.78532,6.50213 6.1636,2.57321 13.45655,5.73324 16.20655,7.02229 2.75,1.28905 9.012,3.98402 13.91555,5.98882 15.08636,6.16799 19.40137,9.67731 20.31995,16.52587 0.7685,5.72959 -1.77383,10.29134 -7.19924,12.91774 -3.77939,1.82957 -6.11823,2.01504 -25.10198,1.99065 l -20.93428,-0.0269 -2.45103,-3.97311 c -2.89007,-4.68478 -5.59394,-5.12873 -9.70411,-1.59331 -2.18493,1.87939 -2.88003,3.50679 -3.30577,7.73958 -0.37702,3.74848 -1.0047,5.44848 -2.08785,5.65478 -0.85182,0.16225 -1.86432,-0.0206 -2.25,-0.40625 z"
         id="path3099"
         inkscape:connector-curvature="0" />
      <path
         style="fill:#000000"
         d="m 396.6512,659.88735 c -0.22583,-0.72236 -0.63657,-3.27609 -0.91275,-5.67496 -0.62182,-5.40111 -4.7349,-10.13842 -8.80249,-10.13842 -2.02433,0 -3.62752,1.07232 -5.98027,4 l -3.21449,4 -17.78384,0 c -23.18291,0 -31.16063,-1.9179 -35.4952,-8.53329 -1.98402,-3.02799 -1.33725,-8.75626 1.32103,-11.70008 2.02417,-2.2416 10.32041,-6.57435 17.79274,-9.29233 2.75,-1.00028 5.45,-2.13151 6,-2.51385 0.55,-0.38234 9.24468,-4.21956 19.32151,-8.52715 10.07682,-4.3076 18.73649,-8.60742 19.2437,-9.55515 0.60012,-1.12134 0.21649,-6.37779 -1.09844,-15.05065 -1.11136,-7.33012 -2.44312,-17.1525 -2.95948,-21.8275 -0.51636,-4.675 -1.59663,-14.125 -2.40061,-21 -0.80397,-6.875 -1.74958,-19.925 -2.10135,-29 -0.63705,-16.4348 -2.37296,-25.82506 -4.8357,-26.15823 -0.6433,-0.087 -16.69463,-0.25049 -35.66963,-0.36326 -18.975,-0.11276 -43.275,-0.4808 -54,-0.81787 -10.725,-0.33707 -34.35,-0.88244 -52.5,-1.21194 -49.62684,-0.90094 -70.13837,-2.42834 -77.94617,-5.80432 -11.41886,-4.93733 -13.6559,-10.42342 -6.30383,-15.45949 8.86195,-6.07032 11.45004,-6.96374 48.75,-16.82855 10.71207,-2.83305 18.66271,-5.02385 44.5,-12.26201 9.9,-2.77342 25.875,-7.07208 35.5,-9.55256 9.625,-2.48049 20.65,-5.40305 24.5,-6.49458 3.85,-1.09153 12.4,-3.36361 19,-5.04906 15.24647,-3.89352 15.5,-4.16385 15.5,-16.52713 0,-5.11908 0.27127,-10.01434 0.60282,-10.87836 0.33156,-0.86401 2.37211,-2.04735 4.53457,-2.62964 3.20568,-0.8632 4.04078,-1.60387 4.52218,-4.01085 0.76272,-3.81359 2.92062,-3.80119 3.6851,0.0212 0.43969,2.19848 1.31922,3.14651 3.375,3.63788 5.00351,1.19594 5.28033,1.90052 5.28033,13.4398 0,13.56677 0.5435,14.33839 9.68915,13.75604 9.96619,-0.6346 9.69117,0.0718 10.50537,-26.98384 0.82251,-27.3318 1.86603,-35.06884 5.85799,-43.43324 3.72248,-7.79977 7.76885,-11.38998 12.83712,-11.38998 4.68916,0 7.93045,3.16747 11.72022,11.45331 4.43372,9.69375 5.38279,16.32048 6.05986,42.31193 0.43512,16.70348 1.01484,24.78868 1.8603,25.94491 0.86305,1.1803 3.1441,1.80166 7.67242,2.09 9.26895,0.59021 9.79757,-0.15162 9.79757,-13.74913 0,-11.53928 0.27682,-12.24386 5.28033,-13.4398 2.05578,-0.49137 2.93531,-1.43941 3.375,-3.63789 0.63453,-3.17261 3.33433,-4.15558 3.35998,-1.22333 0.0265,3.02502 1.64851,4.51025 5.63053,5.15563 l 3.85416,0.62465 0.2466,10.98486 c 0.13563,6.04167 0.47723,11.97952 0.75911,13.19523 0.52697,2.27276 3.44375,3.38681 20.49429,7.82762 3.575,0.93111 13.25,3.46338 21.5,5.62727 38.95135,10.21653 65.92921,17.058 88,22.31641 27.8773,6.64182 47.0294,12.3275 52.25914,15.51415 1.79253,1.09224 4.128,3.41463 5.18994,5.16084 1.70162,2.79809 1.76921,3.48742 0.5695,5.80742 -0.74872,1.44785 -3.53419,3.81053 -6.18994,5.25039 -4.7091,2.55311 -16.32748,6.13489 -19.32864,5.95873 -1.82485,-0.10711 -67.72481,1.60764 -92,2.39388 -9.625,0.31175 -23.575,0.98273 -31,1.49108 -7.425,0.50836 -27.45,0.93512 -44.5,0.94837 -17.05,0.0132 -31.48098,0.3547 -32.06885,0.75878 -3.30345,2.27066 -5.1264,12.70242 -6.94364,39.73469 -0.33276,4.95 -1.26974,15.75 -2.08216,24 -0.81243,8.25 -1.88402,19.5 -2.38132,25 -0.4973,5.5 -1.39144,13.04786 -1.98697,16.77301 -0.72133,4.512 -0.75227,7.39062 -0.0927,8.62307 0.57033,1.06566 6.62177,4.20312 14.27287,7.39997 37.12226,15.51079 43.10924,18.47659 46.19685,22.88478 2.28909,3.26813 2.03371,9.98015 -0.5024,13.20429 -4.11609,5.23279 -6.07089,5.61488 -28.72602,5.61488 l -20.91366,0 -2.772,-4 c -3.36392,-4.85414 -6.16126,-5.16797 -10.6127,-1.19061 -2.55985,2.28723 -3.23733,3.77802 -3.64501,8.02085 -0.48854,5.08433 -1.84376,7.61647 -2.66702,4.98314 z"
         id="path3097"
         inkscape:connector-curvature="0" />
    </g>
  </g>
</svg>
