<?xml version="1.0" encoding="UTF-8" standalone="no"?>
<!-- Created with Inkscape (http://www.inkscape.org/) -->

<svg
   xmlns:dc="http://purl.org/dc/elements/1.1/"
   xmlns:cc="http://creativecommons.org/ns#"
   xmlns:rdf="http://www.w3.org/1999/02/22-rdf-syntax-ns#"
   xmlns:svg="http://www.w3.org/2000/svg"
   xmlns="http://www.w3.org/2000/svg"
   xmlns:sodipodi="http://sodipodi.sourceforge.net/DTD/sodipodi-0.dtd"
   xmlns:inkscape="http://www.inkscape.org/namespaces/inkscape"
   width="268.05493"
   height="203.60147"
   id="svg3083"
   version="1.1"
   inkscape:version="0.48.4 r9939"
   sodipodi:docname="New document 7">
  <defs
     id="defs3085" />
  <sodipodi:namedview
     id="base"
     pagecolor="#ffffff"
     bordercolor="#666666"
     borderopacity="1.0"
     inkscape:pageopacity="0.0"
     inkscape:pageshadow="2"
     inkscape:zoom="1.4"
     inkscape:cx="128.82659"
     inkscape:cy="140.89947"
     inkscape:document-units="px"
     inkscape:current-layer="layer1"
     showgrid="false"
     fit-margin-top="0"
     fit-margin-left="0"
     fit-margin-right="0"
     fit-margin-bottom="0"
     inkscape:window-width="667"
     inkscape:window-height="594"
     inkscape:window-x="229"
     inkscape:window-y="43"
     inkscape:window-maximized="0" />
  <metadata
     id="metadata3088">
    <rdf:RDF>
      <cc:Work
         rdf:about="">
        <dc:format>image/svg+xml</dc:format>
        <dc:type
           rdf:resource="http://purl.org/dc/dcmitype/StillImage" />
        <dc:title></dc:title>
      </cc:Work>
    </rdf:RDF>
  </metadata>
  <g
     inkscape:label="Layer 1"
     inkscape:groupmode="layer"
     id="layer1"
     transform="translate(-260.25825,-321.99002)">
    <g
       transform="translate(258.30021,314.64711)"
       id="g3049">
      <path
         style="fill:#d3d3d3"
         d="m 93.917699,208.10255 c -1.222292,-1.65324 -3.474044,-3.16382 -5.243761,-3.51776 -6.333781,-1.26676 -10.885532,-8.62128 -9.284288,-15.00114 0.951304,-3.7903 5.351692,-8.36793 8.764477,-9.1175 l 3.100062,-0.68089 -0.596618,-6.14263 C 90.329431,170.26418 89.776079,162.775 89.4279,157 c -0.426935,-7.0813 -1.248053,-11.81801 -2.521928,-14.54807 -2.778584,-5.9548 -3.4601,-12.63479 -1.657666,-16.24785 1.14125,-2.28769 1.34685,-4.9511 0.872414,-11.30151 L 85.5,106.59413 72.5,104.84992 C 14.908263,97.122834 12.511009,96.582497 5.25,89.69188 2.6179991,87.194141 2,85.831588 2,82.526339 2,74.138924 4.4056141,73.048116 29.5,70.056667 38.85,68.942073 53.925,67.132259 63,66.034858 72.075,64.937456 80.175,64.02852 81,64.015 c 1.240057,-0.02032 1.55493,-2.312829 1.816975,-13.22888 0.210798,-8.781243 0.778767,-14.055427 1.695577,-15.745208 0.758231,-1.397502 2.145357,-4.262112 3.082503,-6.365801 0.937146,-2.103689 2.731461,-4.498172 3.987366,-5.321072 3.425801,-2.244671 5.894851,-0.359339 9.735419,7.433825 2.57524,5.225607 3.58976,9.037559 4.58088,17.212136 0.70018,5.775 1.34691,10.95 1.43717,11.5 0.10713,0.6528 3.02851,0.704847 8.41411,0.149904 l 8.25,-0.850095 0.008,-12.149905 c 0.0164,-26.414313 5.06963,-42.2139193 12.4289,-38.8608119 4.50144,2.0509926 9.54483,24.1364929 9.55765,41.8539189 C 146.00097,59.120074 145.87275,59 155.98556,59 l 6.82198,0 0.65946,-10.75 c 0.64723,-10.550453 2.78246,-17.995731 7.16976,-25 3.08435,-4.924124 9.59779,-1.763678 11.85032,5.75 0.41222,1.375 1.45824,3.306549 2.3245,4.292331 1.12851,1.28422 1.84157,5.429661 2.51529,14.622797 l 0.94027,12.830465 9.61643,0.649523 c 5.28904,0.357238 14.79143,1.076223 21.11643,1.597746 6.325,0.521522 18.475,1.454804 27,2.073959 16.20958,1.177272 21.11743,2.415562 22.91951,5.782779 4.37249,8.170069 -4.7341,17.257656 -20.78844,20.745058 -11.7835,2.559669 -45.39448,9.480312 -53.88107,11.094342 l -8.25,1.56903 0.0318,8.62098 c 0.0221,5.99074 0.47975,9.21323 1.5,10.56212 2.00093,2.64546 1.84352,8.48151 -0.41375,15.34042 -1.39948,4.25243 -2.01575,9.86946 -2.40386,21.91011 l -0.52192,16.19166 2.76333,0.60693 c 3.28566,0.72165 7.48801,4.8741 9.0108,8.90379 2.16801,5.73715 -2.45517,14.04422 -8.44107,15.16719 -2.45961,0.46142 -3.3609,1.29115 -4.09007,3.76531 -0.78024,2.64744 -1.43029,3.17346 -3.92179,3.17346 -2.30273,0 -3.30175,-0.65771 -4.36331,-2.87258 l -1.37679,-2.87258 -14.63669,0.60785 c -8.05017,0.33432 -24.12114,0.89409 -35.71325,1.24393 l -21.07656,0.63608 -1.08657,2.87865 c -1.423459,3.77117 -4.54647,3.76317 -7.342601,-0.0188 z m 59.089201,-30.707 19.5069,-0.59583 -1.27929,-15.64986 c -0.70361,-8.60742 -1.96964,-17.41001 -2.8134,-19.56131 -2.88581,-7.3578 -3.54128,-13.36517 -1.88962,-17.31816 1.24511,-2.97997 1.30649,-4.60548 0.35628,-9.4353 -0.63139,-3.2093 -1.42693,-5.82579 -1.76788,-5.81442 -0.34094,0.0114 -6.01989,1.13164 -12.61989,2.48949 -14.54933,2.99332 -19.54266,3.06281 -34.81632,0.48451 C 111.1847,110.8976 105.6722,110 105.43368,110 c -1.10139,0 -0.26896,12.21543 1.09609,16.08437 1.63985,4.64783 1.24571,10.9083 -1.03989,16.51732 -0.70912,1.74024 -1.58712,10.4294 -2.00028,19.79584 l -0.73638,16.69416 15.37339,-0.55015 c 8.45536,-0.30259 24.15149,-0.81828 34.88029,-1.14599 z"
         id="path3063"
         inkscape:connector-curvature="0" />
      <path
         style="fill:#aaaaaa"
         d="M 94.694825,208.21528 C 93.762671,207.18526 93,205.81545 93,205.17126 93,204.52707 91.605,204 89.9,204 c -2.192157,0 -4.095699,-0.9957 -6.5,-3.4 -2.801406,-2.80141 -3.4,-4.14923 -3.4,-7.65561 0,-5.37124 3.550872,-10.31103 8.612726,-11.98159 l 3.634806,-1.1996 -0.585492,-5.1316 C 91.34002,171.80922 90.77603,164.1 90.408729,157.5 90.000625,150.1668 89.246592,144.91665 88.469844,144 c -3.095905,-3.65351 -4.419711,-14.43102 -2.249732,-18.31574 1.041144,-1.86387 1.28819,-18.42146 0.290757,-19.48728 -0.155966,-0.16666 -6.747216,-1.18544 -14.647222,-2.26396 C 13.44662,95.957843 13.225643,95.908969 5.9777243,89.36091 1.5561894,85.366319 0.82064051,81.729563 3.5819079,77.515337 5.7806396,74.159648 8.9391909,73.355813 29.5,70.919316 39.4,69.746146 55.499565,67.821866 65.276812,66.64314 L 83.053624,64.5 83.60685,51.018502 c 0.515194,-12.554706 0.771147,-13.923254 3.723188,-19.907473 5.191733,-10.524402 7.812692,-10.71017 12.793942,-0.906805 3.22285,6.342738 5.81629,18.098977 5.85603,26.545776 0.0228,4.84596 -0.21193,4.777126 12.26999,3.598286 L 125,59.71079 125.004,46.605395 c 0.007,-22.622345 3.58787,-37.7673228 9.08179,-38.4059531 1.42207,-0.1653069 3.05003,0.2846931 3.61768,1 3.41887,4.3082011 7.28133,25.7244491 7.29082,40.4255581 l 0.006,9.125 3.125,0.625 c 1.71875,0.34375 5.9398,0.625 9.3801,0.625 l 6.2551,0 0.701,-11.75 c 0.62656,-10.502476 1.06521,-12.526384 4.13145,-19.062497 3.28759,-7.007953 3.56193,-7.299482 6.58731,-7 2.79302,0.276481 3.5858,1.129983 6.8787,7.405486 3.52336,6.714739 3.76036,7.760746 4.44407,19.614791 l 0.72223,12.521802 11.13752,0.672652 c 6.12564,0.369959 16.08752,1.093527 22.13752,1.60793 6.05,0.514402 17.97209,1.442667 26.49353,2.062811 8.8479,0.643902 16.61545,1.7077 18.10915,2.480122 1.43859,0.743923 3.19496,2.751257 3.90305,4.460742 1.18715,2.866033 1.0618,3.424615 -1.60914,7.17055 -3.59677,5.044384 -9.79702,8.569372 -18.33755,10.425339 -16.76342,3.642906 -46.45233,9.705222 -54.80904,11.191722 l -9.25,1.64539 0,9.15414 c 0,7.21509 0.34285,9.43867 1.61857,10.49742 2.0318,1.68625 1.49208,12.66731 -0.8816,17.9367 -1.1342,2.51785 -1.69342,8.04313 -2.04597,20.2149 l -0.48514,16.75 2.36227,0 c 3.20052,0 9.14164,5.40209 9.94031,9.03845 0.7887,3.59092 -0.89557,9.09694 -3.50513,11.45855 -1.05677,0.95637 -3.40106,2.04147 -5.20953,2.41134 -2.61046,0.5339 -3.39177,1.26042 -3.79096,3.52514 -0.27655,1.56895 -1.31851,3.35076 -2.31547,3.95958 -1.83609,1.12126 -3.26257,0.014 -6.18735,-4.80283 -0.91827,-1.51229 -3.86057,-1.55826 -36,-0.56243 -19.25,0.59646 -35.5276,1.25669 -36.17244,1.46718 -0.64484,0.2105 -1.31984,1.42274 -1.5,2.69387 -0.41933,2.95866 -3.862559,3.53495 -6.132735,1.02643 z M 152.25,178.38721 173,177.77998 l 0,-3.33552 c 0,-10.026 -2.27436,-29.40176 -3.92576,-33.44446 -2.81895,-6.90089 -3.45804,-13.35713 -1.66536,-16.8238 1.26769,-2.45144 1.32947,-3.97234 0.37789,-9.30336 -0.62564,-3.50506 -1.22341,-6.50013 -1.32836,-6.65571 -0.10495,-0.15559 -5.82007,0.85691 -12.70026,2.25 -15.06613,3.05054 -21.57935,3.14322 -37.07447,0.52754 C 110.1847,109.8976 104.6722,109 104.43368,109 c -1.0312,0 -0.30323,10.07947 1.12233,15.5399 1.67682,6.42283 1.26021,13.65752 -1.09184,18.9601 -0.82,1.84867 -1.59572,9.44971 -2.02127,19.80595 l -0.69057,16.80596 14.87383,-0.55874 c 8.18061,-0.3073 24.21134,-0.83198 35.62384,-1.16596 z"
         id="path3061"
         inkscape:connector-curvature="0" />
      <path
         style="fill:#929292"
         d="M 96.476902,209.23469 C 95.914198,208.83061 94.666324,207.2625 93.703849,205.75 92.46686,203.80611 91.121231,203 89.113311,203 81.582779,203 78.077292,191.62689 83.588894,185.07673 85.012785,183.38453 86.762932,182 87.47811,182 c 0.715177,0 2.212543,-0.7875 3.327481,-1.75 1.980555,-1.70977 1.998157,-2.11783 0.765676,-17.75 C 90.595609,150.12525 89.826509,145.4804 88.176854,142 85.912632,137.223 85.157705,126.6386 87,125.5 88.470574,124.59114 88.259192,108.72401 86.75,106.73411 85.810173,105.49493 80.785368,104.44314 66.5,102.4954 37.518611,98.543942 20.864484,96.017897 16.984624,94.985069 11.965034,93.648842 4.7444106,88.807746 3.0724363,85.657587 1.8140245,83.28662 1.8430136,82.552415 3.3170915,79.461242 4.2368119,77.532568 6.1284884,75.521448 7.5208171,74.992085 9.9640868,74.063156 23.481244,72.305019 61.5,67.971172 c 9.9,-1.128524 18.95784,-2.253561 20.128533,-2.500083 2.008754,-0.422998 2.168762,-1.250758 2.843401,-14.709655 0.63267,-12.621632 1.022393,-14.882605 3.38944,-19.663785 4.604355,-9.3003 7.454691,-9.393957 11.973356,-0.393425 2.7492,5.476012 4.80439,15.601785 5.43863,26.795776 l 0.22664,4 9,-0.336834 c 4.95,-0.185259 9.5625,-0.802859 10.25,-1.372445 0.88891,-0.736449 1.26008,-5.116705 1.28489,-15.163166 0.0355,-14.373969 1.66983,-27.152747 4.12887,-32.283358 1.04315,-2.176454 2.057,-2.844197 4.31841,-2.844197 2.62732,0 3.15875,0.548174 4.78956,4.940429 2.55992,6.894636 4.71538,22.270651 4.72237,33.687126 0.004,7.153675 0.3759,9.934625 1.4458,10.82257 2.05617,1.706469 16.14758,2.63713 17.90061,1.182238 0.95163,-0.789784 1.61314,-4.79456 2.10126,-12.721089 0.59396,-9.645294 1.19273,-12.639011 3.6018,-18.008379 4.47796,-9.980536 7.14604,-9.880604 12.54218,0.469764 2.9926,5.740145 3.3288,7.320163 3.97644,18.688256 0.40558,7.119038 1.18332,12.783482 1.82263,13.274523 0.61335,0.471096 8.76518,1.386006 18.11518,2.033134 60.90707,4.215471 58.39951,3.940027 61.17979,6.720309 6.70901,6.709014 -2.83641,16.291621 -19.82857,19.905817 -24.58715,5.22963 -42.54363,8.886566 -50.85122,10.356132 -5.225,0.92427 -10.0625,2.0375 -10.75,2.47385 -1.7886,1.1352 -1.59705,15.44424 0.25,18.67532 2.04538,3.57803 1.84981,13.03848 -0.38685,18.71298 -1.48744,3.77371 -1.96162,8.06804 -2.24005,20.28702 -0.19425,8.525 0.006,16.0625 0.44587,16.75 0.43949,0.6875 1.68834,1.25 2.77523,1.25 2.97616,0 6.55344,2.73511 7.93283,6.06527 2.4651,5.95126 -1.40204,14.91279 -6.45134,14.95004 -3.04959,0.0225 -4.56415,1.29481 -5.44005,4.56992 -0.97212,3.63486 -4.08457,3.90163 -5.78264,0.49563 -0.66334,-1.33052 -1.84308,-2.77562 -2.62164,-3.21132 -1.34985,-0.75542 -66.04156,0.74313 -70.24712,1.62723 -1.10909,0.23315 -2.53185,1.791 -3.16314,3.46349 -1.166462,3.09032 -2.011657,3.59038 -3.844198,2.27443 z M 148,179.43988 c 13.475,-0.32515 24.88861,-0.96826 25.36359,-1.42912 0.48435,-0.46996 0.32288,-7.74356 -0.3677,-16.56331 -0.90277,-11.52967 -1.77055,-16.94445 -3.2524,-20.29442 -1.42465,-3.22066 -1.98395,-6.49966 -1.89521,-11.11103 0.30284,-15.73681 0.13661,-20.35529 -0.77205,-21.45015 -0.72854,-0.87784 -4.38929,-0.47044 -14.77239,1.64397 -15.10064,3.0751 -17.84373,3.07083 -36.58883,-0.0569 -13.54405,-2.2599 -13.65002,-2.18178 -11.73271,8.64982 1.8441,10.41802 1.76284,19.74587 -0.21927,25.17126 -2.21582,6.06509 -3.50605,33.39979 -1.68034,35.59963 1.02593,1.23618 3.0911,1.41316 11.33589,0.97149 5.54478,-0.29703 21.10642,-0.80609 34.58142,-1.13124 z"
         id="path3059"
         inkscape:connector-curvature="0" />
      <path
         style="fill:#6c6c6c"
         d="m 95.277679,207.75 c -0.531965,-0.6875 -1.247942,-2.0375 -1.59106,-3 C 93.273978,203.59247 92.010431,203 89.954462,203 85.222016,203 81,198.30469 81,193.04174 c 0,-5.427 2.400021,-8.85563 7.827361,-11.18206 l 4.442747,-1.90439 -0.596779,-5.22764 C 92.3451,171.85244 91.77603,164.1 91.408729,157.5 91.000625,150.1668 90.246592,144.91665 89.469844,144 86.407453,140.38604 84.923101,128.4769 87.245575,126.15442 88.576353,124.82365 88.489226,107.16343 87.14501,105.77051 86.50197,105.10418 76.790979,103.59168 46.5,99.440018 16.287803,95.299151 10.497348,93.608353 4.9703641,87.313465 1.5671742,83.437446 1.6640342,81.097893 5.3875018,77.237939 8.1362572,74.388425 18.447551,72.795773 72.5,66.871942 c 6.05,-0.663045 11.114015,-1.281992 11.253366,-1.375439 0.139352,-0.09345 0.513191,-6.42322 0.830753,-14.066163 0.53974,-12.990201 0.784756,-14.321182 3.757821,-20.4133 2.293786,-4.700206 3.79163,-6.604429 5.372814,-6.830506 4.737308,-0.67734 11.204636,18.382893 11.265256,33.200474 l 0.02,4.887008 9.71915,-0.713431 c 5.34553,-0.392386 10.07053,-0.930598 10.5,-1.196025 0.42947,-0.265427 0.78256,-6.418536 0.78466,-13.673577 0.004,-14.084475 1.76147,-27.800128 4.35849,-34.015665 1.35545,-3.2440536 1.99303,-3.764981 4.27626,-3.4938991 2.2584,0.268133 2.97047,1.1663611 4.49675,5.6723381 C 141.68026,22.367163 144,39.083652 144,49.909722 144,60.766033 143.69855,60.5 156,60.5 l 8.5,0 1.02672,-12.5 c 0.80866,-9.845162 1.57077,-13.668129 3.58831,-18 3.46853,-7.447306 5.25885,-8.87322 8.02054,-6.388012 4.67591,4.207799 7.22171,12.12575 8.32358,25.888012 l 1.04085,13 9.5,0.682225 c 5.225,0.375224 15.575,1.156387 23,1.735917 7.425,0.579529 20.25,1.547762 28.5,2.151628 15.82197,1.158103 18.68723,2.052287 20.69479,6.458394 2.56384,5.62702 -7.47915,13.935679 -19.69479,16.293687 -2.75,0.530838 -14,2.844242 -25,5.140899 -11,2.296656 -24.275,4.957477 -29.5,5.91293 l -9.5,1.7372 -0.28922,9.32148 c -0.23585,7.60146 0.0203,9.66354 1.38838,11.17522 2.05544,2.27122 1.54234,12.59567 -0.89293,17.96735 -1.15511,2.54791 -1.63551,7.758 -1.87905,20.37855 l -0.32718,16.95548 3.31533,0.68158 c 6.79837,1.39764 10.40319,7.68529 8.21221,14.32401 -1.42172,4.30785 -3.16585,5.75884 -7.82994,6.51397 -3.30521,0.53513 -3.75066,0.96732 -4.1976,4.07271 -0.72047,5.00594 -3.58423,5.23611 -5.58447,0.44885 l -1.54673,-3.70184 -14.6844,0.61015 c -8.07642,0.33559 -24.3594,0.89447 -36.1844,1.24197 -11.88183,0.34918 -22.0592,1.08158 -22.75,1.63718 -0.6875,0.55294 -1.25,1.85025 -1.25,2.8829 0,2.15821 -3.208074,2.58454 -4.722321,0.62756 z M 152.25,179.38844 174,178.77861 l 0,-3.83484 c 0,-10.46528 -2.23737,-29.81053 -3.92576,-33.94377 -2.81895,-6.90089 -3.45804,-13.35713 -1.66536,-16.8238 1.26487,-2.44598 1.32923,-3.98421 0.38926,-9.30336 -0.6194,-3.50506 -1.42969,-6.72766 -1.80064,-7.16133 -0.37096,-0.43367 -6.31619,0.35383 -13.21163,1.75 -15.0989,3.05718 -21.60087,3.14988 -37.12512,0.5293 -6.51158,-1.09919 -12.24908,-1.74523 -12.75,-1.43565 -1.41748,0.87605 -1.07332,9.40196 0.64526,15.98474 1.6756,6.41815 1.26086,13.64857 -1.08754,18.9601 -1.46055,3.30341 -3.1623,34.56835 -1.98522,36.47291 0.49931,0.80789 4.81342,0.97682 14.86016,0.58187 7.78612,-0.30608 23.94409,-0.83094 35.90659,-1.16634 z"
         id="path3057"
         inkscape:connector-curvature="0" />
      <path
         style="fill:#535353"
         d="m 95.238871,206.09349 c -1.19918,-2.08945 -2.678238,-3.06804 -5.261425,-3.48111 C 84.758106,201.77778 81.5,197.89132 81.5,192.5 c 0,-5.09258 2.868329,-8.8064 8.14705,-10.54853 2.025072,-0.66833 3.353498,-1.76892 3.354332,-2.77902 0.0069,-8.31837 -2.530831,-34.09919 -3.514366,-35.70279 -0.684897,-1.11669 -1.809301,-4.5507 -2.498674,-7.63115 -1.075894,-4.8076 -1.031588,-6.04546 0.312843,-8.74043 1.227306,-2.46019 1.440353,-5.08287 0.984484,-12.11928 -0.319971,-4.93881 -1.077644,-9.35116 -1.683717,-9.80522 C 85.995878,104.71951 79.425,103.56443 72,102.60674 51.243611,99.92952 25.703328,96.16609 20.735462,95.052768 13.451414,93.420379 10.708978,92.083963 6.75,88.237514 2.3873231,83.998842 1.9804522,80.928639 5.3366397,77.572451 8.0568247,74.852266 11.076537,74.293906 44,70.423396 56.375,68.968581 70.519473,67.265665 75.432162,66.639139 L 84.364324,65.5 84.718207,52.1721 c 0.334467,-12.596699 0.530208,-13.693949 3.567838,-20 2.344755,-4.867659 3.8099,-6.756876 5.417522,-6.985566 C 98.473093,24.50805 104.84,43.54763 104.96453,58.861291 l 0.0355,4.361291 3.25,-0.567383 c 1.7875,-0.312061 6.5125,-0.870287 10.5,-1.240502 l 7.25,-0.673118 0.004,-12.620789 c 0.004,-12.382163 1.80756,-27.418065 4.06547,-33.891899 1.3918,-3.990542 4.01033,-5.648119 6.22438,-3.940144 3.3573,2.589907 7.68981,25.570954 7.70023,40.844622 0.007,10.134912 -0.38332,9.831131 12.65725,9.852976 L 164.8027,61 165.50415,49.25 c 0.62297,-10.435328 1.08058,-12.569089 4.09001,-19.070683 2.89673,-6.258129 3.71639,-7.274138 5.6472,-7 1.69036,0.239999 3.17368,2.17604 5.89552,7.694882 3.37148,6.836053 3.6884,8.267381 4.34282,19.613438 l 0.70593,12.23924 10.15719,0.651039 c 5.58645,0.358071 15.33218,1.080026 21.65718,1.604343 6.325,0.524317 18.25,1.435724 26.5,2.025347 8.25,0.589624 16.46595,1.540161 18.25768,2.112304 5.74108,1.833276 6.8433,6.823978 2.61653,11.847215 -4.96175,5.896704 -5.35331,6.012823 -55.37421,16.421604 -9.075,1.888405 -18.6375,3.749561 -21.25,4.135911 l -4.75,0.70245 0,9.43611 c 0,6.72519 0.46335,10.33215 1.61283,12.55498 1.776,3.43441 1.47653,8.37017 -0.96341,15.87871 -0.88277,2.71659 -1.65668,10.96915 -2.0205,21.5455 l -0.58968,17.14239 3.30522,0.62006 c 11.06039,2.07494 11.87672,17.14531 1.09261,20.17102 -3.11106,0.87288 -4.00823,1.68938 -4.67233,4.25223 -1.04597,4.03653 -3.2572,4.05406 -5.33177,0.0423 l -1.6184,-3.12963 -16.15728,0.61603 c -8.88651,0.33881 -25.53952,0.90831 -37.00669,1.26555 l -20.84941,0.64953 -0.998419,2.86408 c -1.265804,3.63109 -2.461969,3.61996 -4.5639,-0.0424 z m 59.080029,-26.7018 20.81889,-0.61663 -0.54766,-3.63753 c -0.30122,-2.00064 -1.04478,-9.92 -1.65236,-17.59858 -0.60757,-7.67857 -1.70444,-15.12084 -2.43747,-16.53837 -2.49914,-4.8328 -3.33691,-12.48919 -1.76838,-16.16123 1.18987,-2.78558 1.224,-4.54163 0.20579,-10.58935 -1.44433,-8.57872 -0.29582,-8.26654 -17.43771,-4.73984 -14.53826,2.99104 -17.69197,3.0376 -32.81632,0.48451 -16.98216,-2.8667 -15.6863,-3.30132 -15.66913,5.25533 0.008,3.9875 0.68415,9.17225 1.50255,11.52168 1.32805,3.81252 1.31762,4.99489 -0.097,11 -1.82439,7.7445 -3.17524,21.80984 -3.31988,34.56727 L 101,181.17791 l 16.25,-0.5848 c 8.9375,-0.32163 25.6185,-0.86227 37.0689,-1.20142 z"
         id="path3055"
         inkscape:connector-curvature="0" />
      <path
         style="fill:#2b2b2b"
         d="m 96.309295,207.75 c -0.444807,-0.6875 -1.269185,-2.14404 -1.831952,-3.23676 -0.640584,-1.24382 -2.487268,-2.22474 -4.938353,-2.62316 C 84.574051,201.08306 82,197.99786 82,192.85403 c 0,-5.01296 2.273797,-8.45926 6.501916,-9.85466 1.835955,-0.60592 3.813152,-1.67408 4.393772,-2.37368 C 94.343284,178.88144 92.137237,146.07085 90.43313,144 87.393231,140.30588 85.94101,128.45899 88.245575,126.15442 89.861143,124.53886 89.375666,107.03234 87.666507,105.27296 86.581928,104.15651 78.875776,102.87742 46.5,98.440018 16.783352,94.367071 10.301936,92.524407 5.4625109,86.773077 2.733766,83.530148 2.8592372,80.911186 5.895425,77.736859 8.1203597,75.410694 14.707905,74.434185 73.5,67.715446 l 11,-1.257076 1.033387,-14.979185 C 86.439276,38.348114 86.910906,35.790572 89.356008,30.75 c 3.753743,-7.738331 5.412291,-7.562013 9.406537,1 2.916855,6.252541 4.711395,15.131517 5.507525,27.25 l 0.22993,3.5 9.92622,-0.273808 c 5.45943,-0.150594 10.52193,-0.768194 11.25,-1.372444 C 126.64975,60.045791 127,56.332465 127,46.819108 c 0,-13.894654 1.20141,-24.438113 3.66068,-32.125666 1.26676,-3.959833 1.91173,-4.7525541 3.66131,-4.5 1.49788,0.216222 2.63069,1.675373 3.84424,4.951687 2.4019,6.4846 4.83377,23.897303 4.83377,34.610764 0,6.965181 0.35555,9.294302 1.57309,10.304764 2.10987,1.751036 17.94649,2.582942 19.80517,1.040376 0.9515,-0.789675 1.60461,-4.819335 2.08674,-12.875225 0.59395,-9.924188 1.14357,-12.673117 3.57722,-17.891349 1.5815,-3.391048 3.36369,-6.467289 3.96042,-6.83609 1.72334,-1.065081 3.80102,1.301281 6.92237,7.884184 2.50226,5.277249 2.9988,7.797633 3.61531,18.350814 0.40898,7.00063 1.19482,12.611701 1.83718,13.117855 0.61737,0.486468 5.8475,1.175467 11.6225,1.53111 5.775,0.355643 15.675,1.076852 22,1.602688 6.325,0.525835 18.475,1.455004 27,2.064818 9.80604,0.701451 16.29868,1.620866 17.67416,2.502817 7.8929,5.060903 -1.25029,15.388414 -16.17416,18.269196 -2.75,0.530838 -14,2.844242 -25,5.140899 -11,2.296656 -24.05,4.932079 -29,5.856494 -4.95,0.924416 -9.5625,2.044816 -10.25,2.489776 -2.01971,1.30718 -1.70482,19.06862 0.36857,20.78938 2.0318,1.68625 1.49208,12.66731 -0.8816,17.9367 -1.13307,2.51532 -1.69293,8.02959 -2.04286,20.12093 C 181.18743,178.66318 181.46205,180 185.56514,180 c 3.14633,0 7.17969,3.56174 7.93678,7.00872 0.82393,3.75137 -1.07544,9.69267 -3.51626,10.99896 -1.0198,0.54577 -2.95366,0.99232 -4.29747,0.99232 -2.84939,0 -4.3586,1.53392 -4.84237,4.92167 -0.47598,3.33317 -2.634,3.77046 -3.40705,0.69039 -0.34925,-1.39151 -1.2146,-3.01105 -1.92301,-3.59898 -0.91359,-0.75821 -11.42274,-0.76099 -36.15188,-0.01 -19.17514,0.58265 -35.83141,1.26751 -37.01395,1.5219 -1.26842,0.27287 -2.579779,1.69518 -3.197984,3.46856 -1.155777,3.31547 -1.640127,3.61467 -2.842651,1.75603 z m 56.015545,-27.36411 c 18.02699,-0.50582 21.92442,-0.87187 22.39706,-2.10356 1.16282,-3.03025 -1.78733,-33.17235 -3.67521,-37.55019 -2.78304,-6.45364 -3.43803,-13.07469 -1.63781,-16.55594 1.26366,-2.44364 1.32914,-3.98931 0.39413,-9.30336 -1.66948,-9.48834 -1.38444,-9.37411 -16.00526,-6.41373 -15.11993,3.06144 -21.60894,3.15292 -37.18159,0.5242 -8.94491,-1.50994 -12.2217,-1.72565 -13.25,-0.87223 -1.83126,1.51981 -1.7446,9.01917 0.18985,16.42882 1.6756,6.41815 1.26086,13.64857 -1.08754,18.9601 -1.94739,4.40451 -3.117743,35.01275 -1.41712,37.06187 1.0846,1.30686 3.43081,1.45795 15.36436,0.98939 7.74636,-0.30415 23.90547,-0.82857 35.90913,-1.16537 z"
         id="path3053"
         inkscape:connector-curvature="0" />
      <path
         style="fill:#010101"
         d="M 96.060448,205.52035 C 94.633344,201.93367 93.375234,201.0355 89.75,201.01531 85.594165,200.99217 83,197.79203 83,192.68856 c 0,-5.0676 2.202492,-7.94022 7.404144,-9.65692 1.925165,-0.63537 3.723264,-1.9149 3.995776,-2.84342 C 94.672432,179.2597 94.33847,171.075 93.657783,162 92.703953,149.28342 92.00705,144.87763 90.618499,142.78575 88.144036,139.05793 87.304965,129.04787 89.203532,125.9053 91.134185,122.70962 90.235459,106.79128 88,104.58819 87.016428,103.61886 79.958573,102.2139 67.5,100.50738 33.709321,95.878897 21.602632,93.976369 16.310111,92.463051 10.767842,90.878322 4,85.448383 4,82.586468 4,79.184439 8.3414721,76.309995 14.56638,75.590576 17.829871,75.213411 29.5,73.821832 40.5,72.498179 51.5,71.174526 65.225,69.58527 71,68.966499 86.874877,67.265562 85.62556,68.653531 86.469034,51.78068 c 0.634622,-12.694993 1.029229,-15.008747 3.374809,-19.787969 1.460886,-2.97662 3.195915,-5.572608 3.855619,-5.768861 3.371237,-1.0029 9.110998,17.447215 9.263248,29.77615 0.10258,8.307003 0.17009,8.349382 11.95749,7.505712 6.75735,-0.483651 10.64735,-1.216121 11.61905,-2.187819 1.1382,-1.138201 1.46159,-4.481123 1.46456,-15.139322 0.004,-13.828867 1.8398,-29.149311 3.97018,-33.129978 1.6713,-3.1228547 4.12167,-2.142262 5.64398,2.258623 2.09766,6.064197 4.38068,23.623461 4.39734,33.821122 0.008,5.154414 0.3926,9.966705 0.85371,10.69398 1.94818,3.07265 19.71596,4.449841 22.42744,1.738364 0.99864,-0.998636 1.6598,-5.133351 2.15943,-13.504446 0.62373,-10.450403 1.11359,-12.877435 3.66022,-18.134644 1.65694,-3.420569 3.47339,-5.903844 4.162,-5.68991 0.67204,0.208784 2.6518,3.200853 4.39946,6.649042 2.87491,5.672266 3.24537,7.45938 3.88929,18.762218 0.45313,7.953708 1.17701,12.958069 1.99231,13.773375 0.80605,0.806049 5.66442,1.533341 13.11071,1.962659 6.50657,0.375138 16.78012,1.104815 22.83012,1.621506 6.05,0.51669 17.72313,1.43295 25.94029,2.036132 15.766,1.157308 18.03913,1.747836 19.05558,4.950375 1.57925,4.975766 -6.86611,11.844684 -16.99587,13.823358 -2.75,0.537165 -14,2.859492 -25,5.160726 -11,2.301234 -24.6755,5.012033 -30.39,6.023997 -5.73376,1.01538 -10.76854,2.43709 -11.23468,3.17243 -0.46458,0.73288 -0.85159,5.16987 -0.86001,9.85999 -0.0113,6.27706 0.41411,9.14057 1.61186,10.85061 2.00246,2.85891 1.49401,14.02747 -0.84812,18.62987 -1.11244,2.18602 -1.65479,7.52207 -2.01325,19.80818 C 180.23264,179.58964 180.58023,181 185.61688,181 c 3.45049,0 7.38312,4.21194 7.38312,7.90749 0,4.51903 -2.01236,8.07058 -4.92144,8.68569 -5.27236,1.11483 -7.00779,2.35396 -7.8678,5.61774 l -0.86667,3.28908 -1.63506,-3.12882 c -0.89928,-1.72085 -2.35044,-3.40333 -3.22479,-3.73886 -1.71184,-0.65689 -68.49621,1.12288 -72.23971,1.92515 -1.34043,0.28727 -2.811885,1.79361 -3.626987,3.71295 l -1.371525,3.22958 -1.18557,-2.97965 z m 55.053472,-24.12814 c 12.43766,-0.33329 23.20318,-0.97015 23.92337,-1.41526 2.02522,-1.25165 -0.54649,-33.94495 -3.05759,-38.87017 -2.68301,-5.26239 -3.56306,-14.26487 -1.6852,-17.23864 1.29039,-2.04345 1.31804,-3.37977 0.20164,-9.74659 -1.34493,-7.67014 -2.61416,-9.49883 -5.99614,-8.63919 -1.1,0.2796 -8.00151,1.66427 -15.33669,3.07706 l -13.33668,2.56869 -13.66332,-2.10783 c -7.51482,-1.15931 -14.61112,-2.34568 -15.76955,-2.63638 -1.26837,-0.31829 -2.81175,0.17695 -3.87974,1.24493 -1.5052,1.50521 -1.67951,2.88514 -1.1523,9.1221 0.34165,4.04174 1.12973,8.29884 1.75129,9.46024 1.38215,2.58256 0.40097,13.88038 -1.5344,17.66792 -0.85163,1.66665 -1.600892,8.6575 -2.057866,19.20054 -0.926809,21.38285 -1.881654,20.20999 15.849226,19.46801 7.22152,-0.3022 23.3063,-0.82214 35.74395,-1.15543 z"
         id="path3051"
         inkscape:connector-curvature="0" />
    </g>
  </g>
</svg>
