<?xml version="1.0" encoding="UTF-8" standalone="no"?>
<!-- Created with Inkscape (http://www.inkscape.org/) -->

<svg
   xmlns:dc="http://purl.org/dc/elements/1.1/"
   xmlns:cc="http://creativecommons.org/ns#"
   xmlns:rdf="http://www.w3.org/1999/02/22-rdf-syntax-ns#"
   xmlns:svg="http://www.w3.org/2000/svg"
   xmlns="http://www.w3.org/2000/svg"
   xmlns:sodipodi="http://sodipodi.sourceforge.net/DTD/sodipodi-0.dtd"
   xmlns:inkscape="http://www.inkscape.org/namespaces/inkscape"
   id="svg2985"
   version="1.1"
   inkscape:version="0.48.4 r9939"
   width="503.68854"
   height="419.64847"
   sodipodi:docname="P-40.png">
  <metadata
     id="metadata2991">
    <rdf:RDF>
      <cc:Work
         rdf:about="">
        <dc:format>image/svg+xml</dc:format>
        <dc:type
           rdf:resource="http://purl.org/dc/dcmitype/StillImage" />
        <dc:title></dc:title>
      </cc:Work>
    </rdf:RDF>
  </metadata>
  <defs
     id="defs2989" />
  <sodipodi:namedview
     pagecolor="#ffffff"
     bordercolor="#666666"
     borderopacity="1"
     objecttolerance="10"
     gridtolerance="10"
     guidetolerance="10"
     inkscape:pageopacity="0"
     inkscape:pageshadow="2"
     inkscape:window-width="640"
     inkscape:window-height="480"
     id="namedview2987"
     showgrid="false"
     fit-margin-top="0"
     fit-margin-left="0"
     fit-margin-right="0"
     fit-margin-bottom="0"
     inkscape:zoom="0.38771186"
     inkscape:cx="47.699347"
     inkscape:cy="278.74185"
     inkscape:window-x="0"
     inkscape:window-y="25"
     inkscape:window-maximized="0"
     inkscape:current-layer="svg2985" />
  <g
     id="g2995"
     transform="translate(-38.195061,-24.351533)">
    <path
       style="fill:#d2d2d2"
       d="m 285,442 c -1.68686,-1.68686 -2.00697,-3.37 -2.04454,-10.75 -0.0433,-8.4979 -0.0937,-8.68266 -1.75,-6.41285 -6.2613,8.58042 -8.00451,9.87724 -14.45509,10.75351 -7.55062,1.02571 -11.23824,0.83173 -19.75037,-1.03893 -3.575,-0.78565 -11,-2.19754 -16.5,-3.13753 -12.77547,-2.18342 -17.99107,-4.42072 -23.14571,-9.92865 -3.78727,-4.04685 -4.20625,-5.03268 -4.84591,-11.40209 -0.82144,-8.17956 0.37234,-12.79694 4.75108,-18.37645 4.18547,-5.33325 9.13569,-7.53297 36.31565,-16.13756 33.39862,-10.57328 32.71176,-10.29033 31.98732,-13.17672 -1.12715,-4.49093 -3.52759,-36.89804 -4.17708,-56.39273 -0.42951,-12.89163 -1.06065,-20.00834 -1.86239,-21 -0.66699,-0.825 -1.95734,-3.42116 -2.86744,-5.76924 -2.07451,-5.35232 -5.45433,-10.66669 -9.79278,-15.39802 -3.27626,-3.57295 -4.03136,-3.83487 -29.36274,-10.18515 -39.73234,-9.96044 -76.88109,-19.51891 -85.92134,-22.1078 C 138.7854,230.73987 133.575,229.38673 130,228.53281 112.35236,224.31751 73.146996,213.50609 68.562478,211.59055 48.440826,203.18319 33.627229,178.04613 39.489222,162.25641 c 1.906429,-5.13511 7.627937,-11.90319 11.267261,-13.32826 1.241065,-0.48597 8.216065,-1.10991 15.5,-1.38654 C 73.540417,147.26499 90.525,146.58538 104,146.03138 c 36.20373,-1.48846 50.42396,-1.88753 93.5,-2.62398 35.55542,-0.60787 39.17665,-0.82541 41,-2.46295 3.25304,-2.92154 6.5952,-3.21979 10.96144,-0.97821 7.20954,3.7013 13.81276,1.81138 16.35975,-4.68235 0.68089,-1.73597 1.22531,-15.01763 1.44632,-35.28389 0.2944,-26.996885 0.63217,-33.26197 1.9948,-37 0.90222,-2.475 1.95123,-6.525 2.33113,-9 0.3799,-2.475 1.54018,-6.688123 2.57839,-9.362496 2.26483,-5.834027 10.15698,-17.151615 13.4777,-19.327438 2.23692,-1.465683 2.62485,-1.391921 6.38534,1.214101 5.44291,3.771936 11.27859,13.045022 13.69395,21.760125 5.98449,21.59321 5.71462,19.224832 6.06386,53.215708 l 0.32878,32 2.68927,2.87316 c 5.21305,5.56952 12.46899,7.12518 16.9164,3.62684 3.4107,-2.68286 7.2284,-2.5194 11.67773,0.5 3.38345,2.29607 4.59803,2.50112 14.88955,2.51373 6.16307,0.008 30.55559,0.90511 54.20559,1.9946 23.65,1.08948 55.15,2.23253 70,2.54011 31.72635,0.65712 42.93597,1.74651 45.92145,4.46281 1.1432,1.04013 3.51417,3.05549 5.26882,4.47858 2.18836,1.77485 3.68012,4.27243 4.75,7.95271 2.10143,7.22867 1.97435,10.17564 -0.81802,18.96885 -4.77217,15.02766 -17.22853,27.01338 -33.68641,32.41362 -8.7324,2.86532 -49.27682,13.20872 -104.43584,26.64291 -17.05,4.1526 -33.475,8.23926 -36.5,9.08148 -3.025,0.84221 -8.65,2.204 -12.5,3.02618 -28.64788,6.11787 -28.43714,6.05204 -32.83473,10.25735 -8.13015,7.77467 -11.16223,17.00138 -12.7068,38.66707 -0.66656,9.35 -1.99939,26.9 -2.96182,39 -0.96244,12.1 -1.58434,22.28817 -1.38201,22.64037 0.20234,0.3522 12.40537,4.57722 27.11785,9.38894 14.71248,4.81171 28.57625,9.5314 30.80836,10.4882 6.21361,2.66347 13.08356,10.11519 15.03613,16.30946 3.37273,10.69953 -2.12458,22.43317 -12.90848,27.55232 -2.29267,1.08834 -8.8935,2.69298 -14.6685,3.56586 -5.775,0.87287 -12.525,2.03801 -15,2.58918 -17.89824,3.98589 -25.53224,2.57668 -32.68191,-6.03297 C 297.94314,426.14145 296,423.36962 296,422.84174 c 0,-0.52788 -0.45,-0.68166 -1,-0.34174 -0.55,0.33992 -1,4.41648 -1,9.05902 0,7.10765 -0.31592,8.7569 -2,10.44098 -1.1,1.1 -2.675,2 -3.5,2 -0.825,0 -2.4,-0.9 -3.5,-2 z"
       id="path3009"
       inkscape:connector-curvature="0" />
    <path
       style="fill:#ababab"
       d="m 285.2,441.8 c -0.72108,-0.72108 -1.22805,-4.41275 -1.27029,-9.25 -0.0387,-4.4275 -0.41486,-8.93105 -0.83601,-10.0079 -0.66816,-1.70842 -1.10313,-1.38214 -3.41384,2.56078 -3.91568,6.6816 -6.38257,8.43154 -13.69706,9.71627 -6.70162,1.17709 -17.14818,0.23307 -21.15587,-1.91178 -1.02755,-0.54992 -2.26203,-0.7565 -2.74329,-0.45906 -1.40834,0.8704 -24.9897,-4.34826 -27.91451,-6.17761 -7.8852,-4.93186 -11.44947,-11.77244 -11.2123,-21.51877 0.19315,-7.93788 4.83156,-14.60672 13.04228,-18.75148 3.10686,-1.56834 15.96554,-6.0732 28.57486,-10.01081 29.63339,-9.25385 31.98305,-10.18671 31.71088,-12.58991 -1.44494,-12.75878 -3.43711,-41.83279 -3.93004,-57.35581 C 271.9205,292.367 271.34897,286.04971 270.45098,285 c -0.70577,-0.825 -2.07691,-3.525 -3.04699,-6 -2.17559,-5.55067 -5.13936,-10.31226 -9.57262,-15.37937 -3.35285,-3.83222 -3.67329,-3.94958 -26.36274,-9.65495 -27.89228,-7.01366 -67.06659,-17.06231 -77.96863,-19.99983 -4.4,-1.18557 -12.95,-3.41976 -19,-4.96488 -33.5977,-8.58055 -61.964082,-16.39225 -66,-18.17546 -10.401229,-4.59564 -18.429714,-12.51073 -25.513074,-25.15274 -6.464169,-11.53691 -5.046778,-24.67581 3.513146,-32.56607 4.147735,-3.82325 4.415264,-3.91117 13.615398,-4.47475 8.012893,-0.49086 39.667743,-1.67996 82.38453,-3.09475 6.05,-0.20037 29.675,-0.695 52.5,-1.09916 l 41.5,-0.73485 2.82673,-2.35159 c 3.48719,-2.90106 6.15955,-2.96211 10.62046,-0.24264 4.02132,2.45148 10.01695,2.13845 13.13786,-0.68593 4.66193,-4.21899 4.9138,-6.07309 4.93476,-36.32667 0.0188,-27.105043 0.9482,-41.107852 2.88851,-43.518342 0.47725,-0.59291 1.19978,-3.553018 1.60561,-6.578018 0.40583,-3.025 1.74909,-7.75 2.98502,-10.5 2.88343,-6.41572 11.50764,-17.877588 13.78099,-18.315394 4.43169,-0.853467 14.40678,11.931053 17.80164,22.815394 5.0502,16.191547 5.91458,24.329909 5.98217,56.32351 l 0.0637,30.17649 4.4328,3.68821 c 5.82808,4.84911 12.46094,6.07991 15.80993,2.9337 3.0344,-2.85067 8.10955,-2.75379 12.03538,0.22976 2.98829,2.27103 3.9173,2.37291 27.09439,2.97125 13.2,0.34076 38.4,1.32456 56,2.18621 17.6,0.86165 46.23164,1.91081 63.62588,2.33146 l 31.62588,0.76484 5.68027,3.4426 c 7.05169,4.27377 8.9136,6.34517 10.39808,11.56799 5.41551,19.05333 -10.18227,42.36397 -33.72401,50.39999 -5.58031,1.90485 -49.91042,13.40158 -66.1061,17.14419 -4.675,1.08034 -9.85,2.36318 -11.5,2.85077 -1.65,0.48758 -15.15,3.83101 -30,7.42983 -14.85,3.59881 -29.25,7.17913 -32,7.95626 -2.75,0.77713 -7.475,1.93222 -10.5,2.56687 -3.025,0.63465 -8.2,1.78219 -11.5,2.5501 -3.3,0.7679 -9.375,2.14663 -13.5,3.06384 -6.28492,1.39747 -8.20218,2.3363 -11.83419,5.79489 -4.11742,3.92083 -9.1587,12.07967 -9.17197,14.844 -0.003,0.70578 -0.5967,2.41473 -1.31848,3.79766 -0.75497,1.44655 -1.86535,10.15288 -2.6145,20.5 -0.71621,9.89207 -2.08315,27.66058 -3.03765,39.48558 -1.26825,15.71186 -1.43768,21.8006 -0.62934,22.61658 0.60837,0.61412 12.58113,4.84708 26.60613,9.40658 31.42045,10.21473 34.34264,11.4789 40.13292,17.36181 13.34521,13.5587 6.01582,33.88749 -13.70772,38.0197 -3.80886,0.79798 -9.8502,1.74267 -13.4252,2.09931 -3.575,0.35664 -7.625,1.05279 -9,1.54699 -1.375,0.49421 -6.12736,1.33661 -10.5608,1.87201 -12.75117,1.53989 -17.49343,-0.80021 -25.1755,-12.42298 -2.61979,-3.96366 -2.65026,-3.97729 -3.35407,-1.5 -0.39065,1.375 -0.75513,6.1225 -0.80995,10.55 -0.1048,8.46324 -0.97929,10.45 -4.59968,10.45 -1.155,0 -2.64,-0.54 -3.3,-1.2 z"
       id="path3007"
       inkscape:connector-curvature="0" />
    <path
       style="fill:#929292"
       d="m 285.57265,440.81697 c -0.22879,-0.72433 -0.62911,-5.29735 -0.8896,-10.16225 -0.26049,-4.86491 -0.91646,-9.28813 -1.45771,-9.82938 -0.64546,-0.64546 -2.21456,1.04147 -4.5599,4.90232 -1.96669,3.23753 -4.69233,6.48395 -6.05697,7.21429 -3.20249,1.71392 -18.38777,1.93098 -25.60847,0.36604 -3.025,-0.6556 -10.675,-2.18083 -17,-3.38938 -6.325,-1.20856 -12.85,-2.85924 -14.5,-3.66818 -4.51307,-2.21261 -10.5,-8.37296 -10.5,-10.80415 0,-1.18131 -0.51082,-3.61318 -1.13516,-5.40416 -1.612,-4.62418 0.35442,-12.63926 4.26479,-17.38322 4.36906,-5.30043 9.44819,-7.54269 36.44548,-16.08945 30.8874,-9.77828 32.4294,-10.36845 32.40439,-12.40216 -0.0113,-0.91701 -0.68158,-9.31729 -1.48955,-18.66729 -0.80798,-9.35 -1.74371,-26.225 -2.07941,-37.5 -0.50731,-17.03912 -0.8998,-20.92206 -2.32486,-23 -0.94298,-1.375 -2.50993,-4.525 -3.48211,-7 -1.51548,-3.85812 -4.95628,-8.93866 -11.65646,-17.21146 -0.96973,-1.19734 -4.53725,-2.59509 -9.5,-3.72208 C 235.28394,254.53142 165.85995,236.80855 152,232.95559 c -6.325,-1.75831 -13.525,-3.59632 -16,-4.08448 -2.475,-0.48815 -8.325,-1.97887 -13,-3.31271 -4.675,-1.33384 -17.275,-4.75155 -28,-7.59491 C 71.224851,211.66033 67.649363,210.33669 59.519956,204.8288 54.715427,201.57361 51.873171,198.60492 48.059937,192.85901 41.183739,182.49773 40,179.29048 40,171.02122 c 0,-8.41045 2.604722,-14.85521 7.518732,-18.60331 3.687594,-2.81266 -0.99985,-2.44874 63.481268,-4.92851 20.625,-0.79318 56.85,-1.7268 80.5,-2.07471 l 43,-0.63255 3.72856,-2.39107 c 4.55271,-2.91959 7.6266,-3.01137 12.52506,-0.37398 2.56981,1.38361 4.68855,1.82159 6.74638,1.3946 3.10597,-0.64449 7.80768,-4.42633 9.83606,-7.91169 0.79103,-1.35922 1.34921,-13.05338 1.74221,-36.5 0.47008,-28.045607 0.86799,-35.154793 2.12689,-38 0.85174,-1.925 1.87145,-5.75 2.26604,-8.5 0.39458,-2.75 1.78861,-7.25 3.09784,-10 3.32389,-6.981723 11.03592,-16.5 13.36886,-16.5 2.87998,0 7.58218,4.445628 11.43094,10.807216 3.12453,5.164503 4.62015,9.402461 8.71434,24.692784 0.93172,3.479637 1.50272,15.265279 1.87782,38.7593 l 0.539,33.7593 4.5,3.91024 c 6.07175,5.27601 11.34834,6.63703 15.58354,4.01953 4.20772,-2.60051 8.67198,-2.45672 13.73839,0.44252 3.99549,2.28641 5.22685,2.41535 28.17807,2.95081 13.2,0.30795 38.4,1.27798 56,2.15561 17.6,0.87763 45.96541,1.91237 63.03425,2.29941 l 31.03424,0.70371 6.1657,3.99221 c 3.39113,2.19571 6.7013,5.12061 7.35594,6.49978 0.65464,1.37917 1.38605,5.88258 1.62536,10.00758 1.10507,19.04816 -12.85727,36.64414 -34.76759,43.81572 -6.17719,2.02189 -62.14932,16.43955 -70.4479,18.14642 -2.2,0.45251 -10.975,2.61587 -19.5,4.80749 -15.15751,3.8967 -56.07993,13.85635 -69,16.79314 -20.01705,4.54995 -21.77749,5.15201 -26.49765,9.06194 -8.67278,7.18407 -12.89121,18.8794 -14.38276,39.87529 -0.58608,8.25 -1.82458,25.17578 -2.75222,37.61285 -0.92763,12.43706 -1.42701,23.28934 -1.10973,24.11616 0.35827,0.93364 10.74173,4.82773 27.40085,10.2761 31.90834,10.43561 34.00112,11.28914 39.20275,15.9885 5.37526,4.85622 7.57402,10.76964 6.87418,18.48764 -1.03296,11.39158 -7.64275,17.51795 -21.89099,20.28994 -9.93714,1.93328 -18.47172,3.36203 -29.39222,4.92048 -13.39854,1.91209 -18.84103,-0.83515 -26.84075,-13.54857 -2.68911,-4.27363 -3.64755,-2.22177 -4.42264,9.46808 L 291.5,441.5 l -2.75569,0.31697 c -1.63653,0.18824 -2.92462,-0.21788 -3.17166,-1 z"
       id="path3005"
       inkscape:connector-curvature="0" />
    <path
       style="fill:#6b6b6b"
       d="m 285.71258,441.37924 c -0.39192,-0.39191 -0.71753,-3.90007 -0.72359,-7.79591 C 284.97623,425.36623 284.08287,419 282.94255,419 c -0.43767,0 -2.16453,2.39235 -3.83746,5.31633 -4.07809,7.12775 -5.50208,8.15868 -13.12229,9.50019 -6.70169,1.17981 -17.14506,0.23738 -21.15587,-1.90915 -1.02755,-0.54992 -2.26203,-0.7565 -2.74329,-0.45906 -1.42998,0.88377 -24.83615,-4.32572 -27.90463,-6.21071 C 209.4752,422.34802 205,416.53664 205,413.31798 c 0,-1.60489 -0.4966,-3.41458 -1.10355,-4.02153 -1.65704,-1.65704 0.63916,-11.008 3.83804,-15.6299 4.28216,-6.1871 10.41739,-8.65083 59.26551,-23.79937 8.30626,-2.5759 11.26468,-4.45789 10.54955,-6.71105 -1.06279,-3.34857 -3.52907,-36.86963 -4.16842,-56.65613 -0.45302,-14.01991 -1.03004,-20.44851 -1.92981,-21.5 -0.70595,-0.825 -2.07725,-3.525 -3.04733,-6 -2.28527,-5.83053 -5.21097,-10.45158 -10.05304,-15.87849 l -3.90664,-4.37849 -22.97216,-5.77646 C 203.57703,245.95219 164.40267,235.90354 153.5,232.96585 c -4.4,-1.18557 -12.95,-3.41976 -19,-4.96488 -39.286461,-10.03341 -62.777289,-16.61501 -66.753813,-18.70292 -11.95189,-6.27546 -16.66269,-10.9597 -23.759261,-23.62528 -6.30806,-11.2583 -5.02422,-24.79259 3.043145,-32.08097 4.695813,-4.24239 -2.915218,-3.67525 94.969929,-7.07666 5.775,-0.20067 29.4,-0.69017 52.5,-1.08778 l 42,-0.72291 2.82673,-2.35223 c 3.48701,-2.90167 6.1593,-2.96288 10.62046,-0.24326 6.29134,3.83534 13.82309,1.06698 17.57863,-6.46117 1.19412,-2.39366 1.47794,-8.38778 1.49399,-31.55143 0.0188,-27.105043 0.9482,-41.107852 2.88851,-43.518342 0.47725,-0.59291 1.19775,-3.530638 1.60109,-6.528284 0.40334,-2.997647 1.59921,-7.47023 2.65748,-9.939075 C 278.84261,37.868464 287.83345,26 289.88645,26 c 2.21932,0 9.17956,7.296445 12.40098,13 3.06139,5.42021 5.14473,12.223149 7.75513,25.323507 1.67982,8.430247 1.95998,14.103413 1.97537,40.000003 l 0.0179,30.17649 5.01848,4.19419 c 6.41131,5.35824 12.82638,6.70595 16.31589,3.42772 3.03358,-2.8499 8.10917,-2.75366 12.03538,0.22821 2.99076,2.27141 3.91492,2.37164 27.59439,2.9928 13.475,0.35348 38,1.31692 54.5,2.14098 16.5,0.82406 42.825,1.74627 58.5,2.04934 37.87576,0.73232 37.70826,0.71086 45.19699,5.79137 5.22727,3.54628 6.35181,4.8534 7.46362,8.67539 1.84438,6.34037 1.65412,11.77035 -0.67687,19.31721 -4.22255,13.67105 -16.42784,25.42498 -31.87764,30.6988 -5.58031,1.90485 -49.91042,13.40158 -66.1061,17.14419 -4.675,1.08034 -9.85,2.36318 -11.5,2.85077 -1.65,0.48758 -15.15,3.83101 -30,7.42983 -14.85,3.59881 -29.25,7.17913 -32,7.95626 -2.75,0.77713 -7.475,1.93222 -10.5,2.56687 -3.025,0.63465 -8.2,1.78219 -11.5,2.5501 -3.3,0.7679 -9.375,2.14616 -13.5,3.06278 -6.5063,1.44579 -8.14026,2.27982 -12.33244,6.29489 -4.53637,4.34474 -9.65993,12.47204 -9.67372,15.34506 -0.003,0.70578 -0.5967,2.41473 -1.31848,3.79766 -0.75497,1.44655 -1.86535,10.15288 -2.6145,20.5 -0.71621,9.89207 -2.08435,27.66058 -3.04031,39.48558 -1.59726,19.75757 -1.60774,21.63124 -0.12933,23.11941 0.88483,0.89067 13.08378,5.34864 27.10878,9.90658 30.93942,10.05492 34.36365,11.53262 39.63431,17.1039 5.09147,5.38186 6.82057,10.3834 5.92463,17.13732 -0.88743,6.68982 -2.64896,9.85323 -7.86822,14.13002 -4.66143,3.81969 -11.90337,5.87885 -25.31007,7.19661 -3.78436,0.37196 -7.61911,1.0551 -8.52167,1.51809 -0.90256,0.46298 -5.44332,1.27383 -10.09059,1.80189 -12.73322,1.44685 -17.76977,-1.00742 -24.91368,-12.14023 C 296.16995,420.14811 294.42424,418 293.97535,418 c -0.82421,0 -1.80546,7.88725 -2.23936,18 -0.21756,5.07056 -0.43411,5.5231 -2.77341,5.79591 -1.39559,0.16275 -2.85809,-0.0247 -3.25,-0.41667 z"
       id="path3003"
       inkscape:connector-curvature="0" />
    <path
       style="fill:#525252"
       d="m 286.57143,440.42857 c -1.15277,-1.15277 -1.59799,-3.75034 -1.67111,-9.75 -0.0548,-4.49821 -0.3962,-9.23403 -0.75861,-10.52405 -0.63402,-2.25682 -0.71851,-2.27572 -2.2354,-0.5 -0.86707,1.01502 -2.52261,3.42816 -3.67899,5.36254 -3.51778,5.88451 -6.19926,7.68163 -12.72732,8.52978 -7.18702,0.93376 -9.04974,0.8264 -17.5,-1.00863 -3.575,-0.77633 -11.9,-2.38526 -18.5,-3.57538 -12.85375,-2.31781 -16.22626,-3.81026 -21.13234,-9.35177 -2.537,-2.86559 -3.24839,-4.71628 -3.77509,-9.82102 -1.13357,-10.98639 2.54914,-17.81359 12.25068,-22.71091 3.1424,-1.58628 15.3757,-5.88067 27.1851,-9.54308 11.80941,-3.66242 24.17165,-7.66815 27.47165,-8.90164 7.01655,-2.62268 6.55821,0.29621 4.15049,-26.43146 -0.90654,-10.06338 -1.93352,-26.93838 -2.28217,-37.5 -0.40487,-12.26468 -1.0583,-19.74492 -1.80849,-20.70295 -0.64603,-0.825 -2.82871,-4.875 -4.85041,-9 -2.02169,-4.125 -5.59587,-9.58932 -7.94261,-12.14294 L 254.5,258.21413 230,252.09586 c -28.42642,-7.0988 -72.24715,-18.34479 -79.5,-20.40259 -2.75,-0.78024 -7.025,-1.94214 -9.5,-2.58202 C 67.840718,210.19708 69.503593,210.70286 60.649699,204.6722 53.805227,200.01022 48.315211,193.417 44.030374,184.71326 38.171009,172.8112 39.192521,162.1238 46.909763,154.58811 c 3.348288,-3.26951 4.730714,-3.88499 10.230822,-4.55494 3.497678,-0.42604 6.647314,-0.61189 6.99919,-0.413 0.351876,0.19889 8.676876,-0.0857 18.5,-0.63235 24.493445,-1.36313 113.813195,-3.98049 135.975365,-3.98452 16.01471,-0.003 18.39166,-0.21546 20.5,-1.83308 3.8289,-2.93773 5.32234,-3.10156 9.83907,-1.07936 7.92794,3.54945 14.56215,1.73763 17.94946,-4.90203 1.75258,-3.43534 1.95642,-6.60662 2.29663,-35.72939 0.39857,-34.11828 0.16609,-32.149015 6.39136,-54.139434 C 277.86775,39.279857 286.68039,27 290.17431,27 c 2.52069,0 8.7835,6.540919 11.99336,12.525933 1.46722,2.735737 3.42677,8.124067 4.35455,11.974067 0.92778,3.85 2.39391,9.475 3.25806,12.5 1.2393,4.338198 1.6535,12.365195 1.96085,38 l 0.38967,32.5 3.09334,3.21139 c 6.15264,6.38742 13.36552,7.9414 19.43872,4.18796 3.82143,-2.36178 7.09699,-2.02002 11.14308,1.16264 2.08561,1.64055 4.09309,1.93832 13.07892,1.94002 5.83833,10e-4 30.86514,0.91713 55.61514,2.03561 24.75,1.11849 59.03642,2.40201 76.19204,2.85229 31.08323,0.81582 31.21127,0.82808 36.7041,3.51547 7.0204,3.43476 10.14464,7.18353 11.67099,14.00396 1.03032,4.60397 0.95903,6.45449 -0.46742,12.13322 -2.17696,8.6665 -4.39012,12.89578 -10.03215,19.17107 -5.49609,6.11298 -13.32088,11.48477 -20.68145,14.19801 -7.02684,2.59022 -46.4129,12.71806 -114.88611,29.54213 -40.03673,9.83715 -47.43151,11.58517 -59.93706,14.16826 -9.24651,1.90992 -11.73805,3.16907 -16.33152,8.2535 -7.58552,8.39626 -10.17344,16.6936 -11.735,37.62447 -0.65653,8.8 -2.03584,26.575 -3.06514,39.5 -1.69073,21.23076 -1.72123,23.61325 -0.31584,24.67277 0.85558,0.64503 13.94844,5.2751 29.09524,10.28905 15.14681,5.01395 28.88966,9.81439 30.53966,10.66764 5.26374,2.72198 11.39317,9.8977 12.62154,14.77603 1.94015,7.70501 -0.0451,14.07001 -6.29535,20.18417 -4.96272,4.85464 -5.61564,5.16733 -14.13975,6.77163 -4.91523,0.92507 -11.86178,2.11692 -15.43678,2.64855 -3.575,0.53163 -8.525,1.4023 -11,1.93483 -6.39353,1.37565 -12.85973,1.24564 -17.5,-0.35185 -3.02357,-1.04091 -5.28304,-3.05113 -9.25603,-8.23494 -2.89081,-3.77183 -5.64354,-6.98796 -6.11718,-7.14694 C 292.86682,417.78801 292,423.2261 292,431.55357 c 0,5.30628 -0.42974,7.73331 -1.57143,8.875 C 289.56429,441.29286 288.69643,442 288.5,442 c -0.19643,0 -1.06429,-0.70714 -1.92857,-1.57143 z"
       id="path3001"
       inkscape:connector-curvature="0" />
    <path
       style="fill:#2b2b2b"
       d="m 286.57814,439.82391 c -0.22869,-0.72815 -0.64469,-5.76877 -0.92443,-11.20137 -0.72761,-14.13006 -1.20931,-14.24671 -8.9715,-2.17261 -3.10329,4.82716 -3.35571,4.98173 -10.17789,6.23227 -5.05671,0.92692 -8.5906,1.01009 -12.75,0.30007 -3.16488,-0.54025 -8.34669,-1.42476 -11.51515,-1.96559 -13.8541,-2.36477 -25.6164,-5.21674 -28.05557,-6.80257 -4.74099,-3.08236 -8.12337,-7.54728 -8.15429,-10.76411 -0.0161,-1.6775 -0.52591,-3.5466 -1.13286,-4.15355 -1.54106,-1.54106 0.5451,-10.82724 3.39634,-15.11818 3.24458,-4.88291 10.62193,-8.1754 36.28118,-16.19215 12.60932,-3.93955 25.25526,-8.06182 28.10209,-9.1606 4.8248,-1.86221 6.96986,-3.97138 5.86201,-5.76393 -0.91094,-1.47393 -3.58409,-37.82778 -4.2165,-57.34275 -0.55733,-17.19841 -0.8813,-20.0582 -2.4813,-21.90301 C 270.82812,282.64881 270,281.26569 270,280.74222 c 0,-2.21304 -5.48606,-11.60382 -9.7678,-16.72004 -2.54181,-3.0372 -4.68413,-5.63493 -4.76072,-5.77273 -0.0766,-0.13781 -12.4765,-3.36893 -27.55537,-7.18027 -34.1728,-8.63753 -63.95557,-16.2827 -74.41611,-19.10243 -4.4,-1.18606 -12.95,-3.42066 -19,-4.96578 -39.286461,-10.03341 -62.777289,-16.61501 -66.753813,-18.70292 -9.347413,-4.90796 -13.824551,-8.64869 -18.088434,-15.11324 -6.700273,-10.1584 -7.918094,-13.09119 -8.434806,-20.31291 -0.584506,-8.16924 1.594912,-14.62678 6.343758,-18.79632 3.852007,-3.38211 3.940111,-3.39058 52.933295,-5.0901 17.05,-0.59144 35.05,-1.25919 40,-1.48388 4.95,-0.22469 28.575,-0.7203 52.5,-1.10134 l 43.5,-0.69281 2.82673,-2.35373 c 3.48658,-2.90316 6.1587,-2.96475 10.62046,-0.24476 4.56781,2.78464 10.19123,2.09067 14.20288,-1.75273 5.75048,-5.50931 5.84817,-6.12947 5.86974,-37.25987 0.0188,-27.105043 0.9482,-41.107852 2.88851,-43.518342 0.47725,-0.59291 1.19775,-3.530638 1.60109,-6.528284 0.40334,-2.997647 1.60896,-7.497647 2.67914,-10 2.54623,-5.953745 10.88399,-16.993043 12.8585,-17.024829 C 293.95727,26.961957 302.56872,39.242093 305.45709,49 310.22136,65.095293 311,72.871733 311,104.35796 l 0,30.21095 5.5434,4.66078 c 6.93966,5.83473 13.21421,7.2861 16.82683,3.89222 3.03361,-2.84992 8.10918,-2.75366 12.03538,0.22826 2.99271,2.27295 3.89944,2.37066 27.59439,2.97358 13.475,0.34288 38,1.30629 54.5,2.14093 16.5,0.83463 42.825,1.76549 58.5,2.06856 37.22876,0.71981 37.60458,0.7648 44.69582,5.35064 5.0801,3.28525 5.96012,4.3393 7.05418,8.44917 1.75245,6.58311 1.56223,11.4454 -0.73926,18.89675 -4.19611,13.58543 -15.57086,24.52136 -31.01074,29.81438 -5.47634,1.87737 -49.81495,13.37587 -66,17.11602 -4.675,1.08034 -9.85,2.36318 -11.5,2.85077 -1.65,0.48758 -15.15,3.83101 -30,7.42983 -14.85,3.59881 -29.25,7.17913 -32,7.95626 -2.75,0.77713 -7.475,1.93222 -10.5,2.56687 -3.025,0.63465 -8.2,1.78219 -11.5,2.5501 -3.3,0.7679 -9.375,2.15663 -13.5,3.08605 -6.06044,1.36552 -8.36374,2.45936 -12,5.69885 -4.37128,3.89431 -10.96398,13.82406 -10.98808,16.54994 -0.007,0.74188 -0.6406,2.76688 -1.40899,4.5 -0.7957,1.79471 -1.89771,10.25365 -2.5601,19.65113 -2.30841,32.74981 -4.04958,55.5638 -4.48808,58.80586 -0.3269,2.41685 0.0737,3.75179 1.48958,4.96413 1.0652,0.91205 14.50113,5.80474 29.85762,10.87265 15.35649,5.06792 29.19826,9.88447 30.75947,10.70345 4.36081,2.2876 9.96783,8.72513 11.3357,13.01474 1.40273,4.39895 0.66816,12.45199 -1.52221,16.68768 -2.94239,5.68996 -8.61169,8.89341 -19.46121,10.99659 -5.54654,1.07519 -12.00366,1.9549 -14.34916,1.9549 -2.3455,0 -4.73505,0.47051 -5.31012,1.04558 -1.79884,1.79884 -17.62483,2.96957 -21.61224,1.59876 -4.67757,-1.60807 -6.12048,-2.91471 -11.42032,-10.34178 C 296.84828,419.83615 294.22734,417 293.49754,417 c -1.27198,0 -2.02886,5.20907 -2.75945,18.99137 -0.17867,3.37046 -0.6756,4.57437 -1.99111,4.82391 -0.96417,0.18289 -1.94014,-0.26322 -2.16884,-0.99137 z"
       id="path2999"
       inkscape:connector-curvature="0" />
    <path
       style="fill:#000000"
       d="m 286.66462,428.79754 c -0.86529,-15.12324 -2.13781,-16.46938 -7.35899,-7.78478 -5.83192,9.70048 -6.93765,10.57259 -14.35113,11.31902 -3.54997,0.35743 -8.9295,0.20366 -11.9545,-0.34172 -3.025,-0.54537 -8.2,-1.42769 -11.5,-1.9607 -11.84655,-1.91344 -24.65395,-4.9098 -26.31138,-6.15569 C 210.15031,420.08635 207,416.37938 207,414.23809 c 0,-1.30326 -0.49338,-3.29146 -1.09639,-4.4182 -1.58744,-2.96615 -0.25815,-9.87277 2.81124,-14.60648 3.51946,-5.4278 12.00315,-9.29261 37.78515,-17.2133 25.69144,-7.89287 31.56826,-10.01441 32.18377,-11.61841 0.27568,-0.7184 -0.23047,-10.1367 -1.12478,-20.92955 -0.8943,-10.79285 -1.88073,-28.47234 -2.19207,-39.28776 -0.47116,-16.36798 -0.85557,-20.08347 -2.29315,-22.16439 -0.9499,-1.375 -2.90806,-5.09374 -4.35146,-8.26386 C 265.32055,268.26486 256.26339,257.135 253,256.41581 243.2127,254.25888 164.15417,234.21103 149.41965,230.14966 143.41384,228.49424 135.8,226.47961 132.5,225.6727 108.46062,219.79463 72.93037,209.9026 68.672359,207.90234 57.692673,202.74448 51.959022,196.96124 45.456122,184.48531 c -2.947106,-5.65408 -3.452887,-7.61407 -3.43416,-13.30797 0.02522,-7.66865 2.30391,-13.71531 6.375599,-16.9181 2.010443,-1.58142 4.631525,-2.21633 10.875631,-2.63445 18.037127,-1.20779 95.584748,-3.67336 135.001728,-4.29228 41.73495,-0.65532 41.77794,-0.65818 44.94428,-2.99423 3.89903,-2.87662 5.72315,-2.9185 10.95101,-0.25145 4.98404,2.54267 9.40481,1.98309 13.8442,-1.75241 6.62697,-5.57622 6.75664,-6.35716 7.20031,-43.361697 0.29578,-24.670195 0.74617,-34.261652 1.71267,-36.472723 0.72125,-1.65 1.90216,-5.99567 2.62424,-9.657045 0.72208,-3.661375 2.21102,-8.417547 3.30875,-10.569271 C 281.58809,36.926931 288.7595,28 290.32709,28 c 3.84114,0 12.55161,13.666028 14.97846,23.5 0.81437,3.3 2.07373,8.25 2.79857,11 0.9032,3.426708 1.48748,15.612745 1.85688,38.72783 l 0.539,33.72782 5,4.45083 c 3.35377,2.98542 6.59361,4.84353 9.84019,5.64355 4.41756,1.08858 5.09073,1.00749 7.70951,-0.92865 3.75972,-2.77968 8.11599,-2.6853 12.72174,0.27561 3.59644,2.31206 4.57898,2.41662 27.72856,2.95081 13.2,0.3046 38.4,1.27188 56,2.14951 17.6,0.87763 45.99037,1.91292 63.08971,2.30064 l 31.0897,0.70493 5.85725,3.63601 c 7.26029,4.50698 8.81351,8.02973 8.19251,18.58096 -0.9563,16.24834 -13.23743,30.78533 -31.72917,37.55733 -4.09845,1.50093 -45.05956,12.177 -64.5,16.81124 -4.4,1.04888 -9.8,2.35277 -12,2.89754 -2.2,0.54478 -15.925,3.92177 -30.5,7.50443 -14.575,3.58266 -28.975,7.20612 -32,8.05212 -3.025,0.846 -8.425,2.16009 -12,2.92019 -13.66088,2.90453 -25.14922,5.50149 -28.75351,6.49979 -4.34584,1.20369 -13.15643,9.02889 -15.69664,13.94112 -5.47702,10.59137 -6.06915,14.53649 -9.99557,66.59639 -2.09196,27.73703 -2.06694,29.15526 0.53896,30.5499 1.15128,0.61615 14.25375,5.1496 29.11658,10.07434 14.86284,4.92473 28.68908,9.80386 30.72498,10.8425 5.19046,2.64797 10.81879,9.20285 11.63422,13.54947 0.84977,4.52965 -0.072,11.62193 -1.99331,15.33737 -2.58717,5.00304 -8.05679,8.23092 -17.41111,10.2751 -4.76233,1.0407 -11.08815,1.94819 -14.05739,2.01665 -2.96923,0.0684 -6.51982,0.70615 -7.8902,1.41711 -1.37037,0.71096 -5.69231,1.5657 -9.6043,1.89943 -10.3667,0.88437 -13.95113,-0.65814 -19.93502,-8.57877 -8.09351,-10.71306 -7.6718,-10.31756 -9.28309,-8.70627 -0.96438,0.96438 -1.62338,5.00333 -2.05922,12.62071 C 289.89713,436.45709 289.31667,440 288.5,440 c -0.81667,0 -1.39713,-3.54291 -1.83538,-11.20246 z"
       id="path2997"
       inkscape:connector-curvature="0" />
  </g>
</svg>
