<?xml version="1.0" encoding="UTF-8" standalone="no"?>
<!-- Created with Inkscape (http://www.inkscape.org/) -->

<svg
   xmlns:dc="http://purl.org/dc/elements/1.1/"
   xmlns:cc="http://creativecommons.org/ns#"
   xmlns:rdf="http://www.w3.org/1999/02/22-rdf-syntax-ns#"
   xmlns:svg="http://www.w3.org/2000/svg"
   xmlns="http://www.w3.org/2000/svg"
   xmlns:sodipodi="http://sodipodi.sourceforge.net/DTD/sodipodi-0.dtd"
   xmlns:inkscape="http://www.inkscape.org/namespaces/inkscape"
   width="504.92798"
   height="439.69168"
   id="svg2"
   version="1.1"
   inkscape:version="0.48.4 r9939"
   sodipodi:docname="G4M.svg">
  <defs
     id="defs4" />
  <sodipodi:namedview
     id="base"
     pagecolor="#ffffff"
     bordercolor="#666666"
     borderopacity="1.0"
     inkscape:pageopacity="0.0"
     inkscape:pageshadow="2"
     inkscape:zoom="0.35"
     inkscape:cx="182.42437"
     inkscape:cy="71.09689"
     inkscape:document-units="px"
     inkscape:current-layer="layer1"
     showgrid="false"
     inkscape:window-width="614"
     inkscape:window-height="498"
     inkscape:window-x="259"
     inkscape:window-y="241"
     inkscape:window-maximized="0"
     fit-margin-top="0"
     fit-margin-left="0"
     fit-margin-right="0"
     fit-margin-bottom="0" />
  <metadata
     id="metadata7">
    <rdf:RDF>
      <cc:Work
         rdf:about="">
        <dc:format>image/svg+xml</dc:format>
        <dc:type
           rdf:resource="http://purl.org/dc/dcmitype/StillImage" />
        <dc:title></dc:title>
      </cc:Work>
    </rdf:RDF>
  </metadata>
  <g
     inkscape:label="Layer 1"
     inkscape:groupmode="layer"
     id="layer1"
     transform="translate(-139.28837,-192.15945)">
    <g
       id="g3526"
       transform="translate(2.8571414,-37.142857)">
      <path
         style="fill:#d2d2d2"
         d="m 389.27618,667.45822 c -0.51161,-0.99568 -1.2146,-6.00855 -1.5622,-11.1397 -0.69557,-10.26759 -1.88538,-14.13163 -3.13705,-10.18795 -1.1876,3.7418 -8.37215,10.81653 -12.3358,12.14726 -4.36262,1.46467 -24.84232,1.34762 -33.6697,-0.19244 -15.35742,-2.67932 -26.38487,-7.07008 -36.54933,-14.55273 -13.505,-9.94182 -12.92485,-23.16236 1.33899,-30.51295 3.74548,-1.93017 7.07828,-3.12895 48.21034,-17.34083 22.03947,-7.61504 24.5,-8.5281 24.5,-9.09159 0,-0.19064 -1.08013,-8.13 -2.40028,-17.64301 -1.32016,-9.51302 -2.70014,-20.44639 -3.06662,-24.29639 -0.36649,-3.85 -1.5246,-12.85 -2.57357,-20 -1.62371,-11.0675 -3.16009,-25.77957 -5.48257,-52.5 -0.26293,-3.025 -0.76211,-10.97485 -1.10929,-17.66633 l -0.63124,-12.16632 -15.11821,0.16632 c -14.53009,0.15986 -42.89531,-1.41209 -60.53439,-3.3547 -48.13153,-5.30079 -108.61733,-26.27981 -126.00298,-43.70314 -1.5234,-1.52671 -4.40332,-3.90083 -6.39982,-5.27583 -4.9365,-3.3998 -13.45574,-14.12912 -15.31139,-19.28351 -2.97412,-8.26113 0.80535,-18.73053 8.91465,-24.69417 2.27068,-1.66988 7.74813,-4.44783 12.17211,-6.17322 7.34313,-2.8639 9.48048,-3.20824 24.5436,-3.95416 9.075,-0.44939 22.8,-1.29042 30.5,-1.86894 7.7,-0.57853 24.8,-1.50586 38,-2.06073 13.2,-0.55488 29.85,-1.43986 37,-1.96663 7.15,-0.52676 22.9,-1.41441 35,-1.97255 12.1,-0.55814 24.75059,-1.27153 28.11243,-1.5853 l 6.11243,-0.57051 0.50656,-6.68514 c 0.27861,-3.67683 0.57839,-14.56014 0.66619,-24.18514 0.19879,-21.79401 0.73863,-26.72541 3.44953,-31.51129 3.22108,-5.68653 6.68154,-7.79083 13.63942,-8.29412 l 6.01344,-0.43497 0.0147,-9.12981 c 0.0166,-10.25619 1.13639,-13.45499 5.43117,-15.51425 7.23037,-3.4668 11.55013,2.56624 11.55254,16.13444 l 0.002,8.75 4.75,0.002 c 10.76779,0.004 15.93665,6.49746 17.3139,21.75246 0.43429,4.81029 1.05353,14.82099 1.37611,22.24599 0.7839,18.04387 1.65519,27.0592 2.56102,26.49936 0.64941,-0.40135 14.23207,0.0887 54.49897,1.96645 5.5,0.25647 17.65,0.93041 27,1.49765 36.75476,2.22979 50.71872,2.95292 68.5,3.54727 42.2485,1.4122 50.69567,3.7387 61.5151,16.9424 5.25076,6.40785 6.04954,11.85499 2.98168,20.33288 -4.34621,12.01055 -10.44979,18.26137 -29.68127,30.3973 -20.57876,12.98612 -40.89859,21.44878 -65.69597,27.36059 -8.04075,1.91694 -15.51954,3.734 -16.61954,4.03789 -1.1,0.30389 -5.15,0.9331 -9,1.39825 -3.85,0.46514 -12.85,1.76619 -20,2.89121 -14.84584,2.33592 -47.41129,4.9944 -64.75,5.28586 l -11.75,0.19751 -0.009,8.57269 c -0.0329,31.50257 -7.38024,107.20625 -12.60413,129.86643 -0.79799,3.46155 -1.21576,6.6742 -0.92836,7.13922 0.28739,0.46501 1.76428,1.14124 3.28198,1.50273 1.5177,0.36148 11.30945,3.37276 21.75945,6.69173 31.59951,10.03615 33.7299,10.70065 41.35087,12.89794 5.46289,1.57507 8.45632,3.13837 11.6549,6.08672 6.92402,6.38234 9.66601,14.84193 5.83933,18.01548 -0.9102,0.75484 -2.25024,2.79665 -2.97787,4.53736 -2.42381,5.79843 -13.08268,12.86017 -25.95549,17.19609 -13.9935,4.7134 -40.58465,7.16771 -49.37508,4.55724 -4.40202,-1.30726 -11.37375,-7.34867 -15.29333,-13.25257 -1.47433,-2.22071 -1.57928,-1.9044 -2.15673,6.5 -0.33383,4.85888 -1.16489,10.62941 -1.84679,12.8234 -1.3538,4.35584 -4.04241,5.72624 -5.53506,2.82125 z"
         id="path3540"
         inkscape:connector-curvature="0" />
      <path
         style="fill:#ababab"
         d="m 389.7381,667.48122 c -0.36667,-0.36666 -0.66667,-2.82328 -0.66667,-5.45915 0,-6.13404 -2.02907,-19.87418 -2.93492,-19.87418 -0.38048,0 -1.32213,1.6065 -2.09255,3.57 -1.79239,4.56813 -8.75179,10.99893 -13.2459,12.23981 -4.61502,1.27427 -25.1922,0.49616 -35.22663,-1.33206 -4.4,-0.80166 -10.475,-2.40006 -13.5,-3.55201 -3.025,-1.15195 -6.4,-2.36052 -7.5,-2.6857 -4.50974,-1.3332 -17.06272,-11.00344 -19.23355,-14.81666 -3.48086,-6.11437 -3.06129,-11.53782 1.26287,-16.32415 5.113,-5.65949 7.00409,-6.43774 57.2945,-23.57882 11.7281,-3.99743 21.72289,-7.66712 22.21063,-8.15486 0.51575,-0.51575 0.0772,-6.56624 -1.04807,-14.46013 -1.06418,-7.46532 -2.62831,-19.83554 -3.47584,-27.48937 -0.84753,-7.65383 -2.18004,-17.96605 -2.96113,-22.91605 -1.17191,-7.42675 -3.41627,-30.96737 -7.16292,-75.13057 l -0.5201,-6.13058 -15.68319,0.13058 c -15.08163,0.12556 -43.48493,-1.45056 -61.09937,-3.39046 -20.98762,-2.3114 -57.4966,-10.55849 -70.58383,-15.94435 -1.1,-0.45269 -4.25,-1.58672 -7,-2.52008 -19.01268,-6.45296 -41.59537,-18.55218 -46.67143,-25.00535 -1.08555,-1.38005 -2.44416,-2.50919 -3.01914,-2.50919 -3.21386,0 -16.90801,-15.73865 -18.87198,-21.68952 -2.83447,-8.58855 1.49343,-18.76208 10.51411,-24.71533 9.43696,-6.22798 17.90641,-8.28905 37.04844,-9.01588 9.35,-0.35502 21.95,-1.07536 28,-1.60076 6.05,-0.5254 26.3,-1.65295 45,-2.50566 18.7,-0.85271 34.675,-1.73024 35.5,-1.95006 0.825,-0.21982 7.125,-0.66327 14,-0.98544 33.08445,-1.55037 50.31866,-2.52268 50.65371,-2.85773 0.20232,-0.20231 0.59091,-10.90049 0.86354,-23.77373 0.66906,-31.59206 1.03512,-35.23653 4.01298,-39.95378 3.17286,-5.02613 7.02923,-6.95211 13.92011,-6.95211 l 5.54966,0 0,-10.54546 c 0,-9.86307 0.15883,-10.70428 2.45455,-13 3.06212,-3.06212 7.54371,-3.21788 10.14046,-0.35245 1.57439,1.73728 1.96373,3.99335 2.24347,13 l 0.33847,10.89791 5.46119,0 c 7.53185,0 10.69414,1.90156 13.69222,8.23346 2.54303,5.37084 3.03174,9.33334 4.16459,33.76654 0.24226,5.225 0.71877,13.61942 1.05891,18.65428 l 0.61844,9.15427 12.16385,0.63513 c 6.69012,0.34933 22.28885,1.06087 34.66385,1.58121 12.375,0.52033 29.7,1.40094 38.5,1.95689 31.51896,1.99128 49.28507,2.9201 67.5,3.52895 28.35982,0.94796 38.37388,2.05601 44.68227,4.94409 15.63399,7.15747 22.54032,18.24844 18.68609,30.00824 -3.81826,11.65002 -10.76435,18.86298 -29.63254,30.77102 -20.82474,13.14285 -42.21578,22.10256 -66.23582,27.74311 -7.15,1.67901 -13.9,3.30123 -15,3.60493 -1.1,0.30371 -5.15,0.93277 -9,1.39792 -3.85,0.46514 -12.85,1.76673 -20,2.89241 -14.0985,2.21963 -47.10228,4.91762 -65.5,5.35448 -6.325,0.15019 -11.83061,0.72307 -12.23469,1.27307 -0.40408,0.55 -0.7456,4.825 -0.75894,9.5 -0.0912,31.94781 -7.41553,107.22136 -12.63656,129.86756 -0.80741,3.50216 -1.26747,6.56811 -1.02236,6.81323 0.24512,0.24511 2.62972,1.0566 5.29911,1.80331 6.62632,1.85357 15.45543,4.58993 30.85344,9.56223 7.15,2.30887 17.9916,5.66976 24.09245,7.46865 6.10085,1.7989 12.46819,3.98214 14.14963,4.85165 4.01141,2.07437 9.9035,9.02944 11.34202,13.38818 1.00182,3.03558 0.88298,3.79032 -0.96128,6.10451 -1.15744,1.45237 -2.72565,4.01948 -3.48489,5.70469 -2.42691,5.38671 -13.6568,12.69535 -25.77409,16.77432 -11.83522,3.98401 -40.30273,6.69767 -48.13557,4.5885 -4.56895,-1.23029 -11.00414,-6.76304 -14.80505,-12.72885 -1.50749,-2.36611 -2.96332,-3.94111 -3.23518,-3.5 -0.27187,0.44111 -0.82321,5.52702 -1.22521,11.30202 -0.402,5.775 -1.10946,11.5125 -1.57212,12.75 -0.81507,2.18008 -2.86057,2.94681 -4.22404,1.58333 z"
         id="path3538"
         inkscape:connector-curvature="0" />
      <path
         style="fill:#919191"
         d="m 389.76654,659.39789 c -0.68746,-8.86015 -2.52409,-18.25 -3.56966,-18.25 -0.38985,0 -1.91568,2.46076 -3.39074,5.46835 -3.99139,8.13829 -8.73912,10.93222 -19.34039,11.3814 -9.68608,0.4104 -26.18918,-1.21986 -35.39432,-3.49641 -12.63543,-3.12492 -28.03805,-12.08758 -32.03315,-18.63982 -2.60989,-4.28042 -2.62983,-11.97372 -0.0404,-15.61017 2.65101,-3.72299 9.60273,-7.30258 23.65114,-12.17846 6.55735,-2.2759 21.37246,-7.40316 32.92246,-11.3939 11.55,-3.99073 21.84352,-7.61242 22.87449,-8.0482 2.23257,-0.94366 2.11879,-3.04123 -1.70768,-31.48279 -1.36892,-10.175 -2.96076,-22.1 -3.53742,-26.5 -0.94228,-7.18984 -5.69031,-56.16579 -7.80415,-80.5 l -0.82524,-9.5 -19,-0.0259 c -27.34606,-0.0373 -59.45257,-2.65076 -79.8463,-6.49948 -33.94662,-6.40643 -59.5664,-14.62858 -83.15375,-26.68652 -8.80077,-4.49898 -18.44889,-10.99133 -19.18512,-12.90991 -0.30885,-0.80486 -2.19903,-2.29877 -4.2004,-3.31979 -4.09379,-2.08849 -13.48785,-12.40642 -16.2777,-17.87854 -2.76069,-5.41494 -2.44973,-13.45822 0.73008,-18.88417 3.28333,-5.60257 8.69265,-9.48913 18.28942,-13.14082 6.9865,-2.65845 9.14839,-2.96719 25.14372,-3.59073 9.625,-0.37521 21.775,-1.0778 27,-1.56132 5.225,-0.48352 20.525,-1.36454 34,-1.95783 13.475,-0.59328 34.4,-1.73393 46.5,-2.53478 12.1,-0.80085 32.125,-1.96437 44.5,-2.5856 12.375,-0.62123 22.76765,-1.55945 23.09478,-2.08493 0.67151,-1.07867 1.89462,-30.14741 1.90774,-45.33968 0.0106,-12.24962 1.22383,-16.92635 5.50056,-21.20308 2.98416,-2.98416 3.85662,-3.29692 9.19692,-3.29692 3.25556,0 6.43785,-0.53785 7.1,-1.2 0.77562,-0.77562 1.2,-4.78778 1.2,-11.34501 0,-11.40863 1.02995,-13.45499 6.77204,-13.45499 4.97903,0 6.22796,2.81202 6.22796,14.02251 0,6.11582 0.43372,10.01121 1.2,10.77749 0.66,0.66 3.83045,1.2 7.04545,1.2 4.90777,0 6.24803,0.40257 8.35503,2.50957 4.27718,4.27718 5.15319,8.1304 6.36352,27.99043 0.63685,10.45 1.46798,23.5 1.84695,29 l 0.68905,10 12,0.68908 c 6.6,0.37899 23.25,1.16449 37,1.74554 13.75,0.58105 34.9,1.69917 47,2.48471 12.1,0.78555 28.75,1.70614 37,2.04577 40.83229,1.68094 56.38236,2.70916 61,4.03348 7.8126,2.24064 15.76059,7.78146 20.0077,13.94808 3.45505,5.01657 3.71343,5.87329 3.29458,10.92403 -0.6693,8.07089 -5.58317,17.29753 -12.66886,23.78799 -3.20715,2.93772 -11.46032,8.82528 -18.34037,13.08344 -20.22747,12.51908 -40.08448,21.04434 -60.79305,26.10045 -17.09024,4.17267 -20.17471,4.82156 -27,5.67999 -3.575,0.44964 -12.35,1.73477 -19.5,2.85585 -13.00082,2.03846 -41.52463,4.49238 -66,5.67801 -7.15,0.34636 -13.43576,1.04612 -13.96835,1.55501 -0.53259,0.5089 -1.10293,4.17951 -1.26742,8.15692 -2.0434,49.40913 -5.73634,91.60855 -10.47791,119.73165 -1.15912,6.875 -2.14774,14.03521 -2.19691,15.91158 l -0.0894,3.41158 12,3.73179 c 6.6,2.05248 17.85,5.61491 25,7.91651 7.15,2.3016 17.725,5.54315 23.5,7.20344 12.80303,3.68083 17.82698,6.45415 21.35818,11.79016 3.81606,5.76646 4.40347,9.57864 1.89963,12.32822 -1.10522,1.2137 -2.74855,3.80341 -3.65183,5.75491 -3.21226,6.93995 -20.1397,15.56395 -36.10598,18.39488 -13.11145,2.32474 -33.15622,3.15552 -37.95147,1.57295 -4.80366,-1.58535 -11.65283,-8.31383 -14.09304,-13.8447 -1.05571,-2.39281 -2.21972,-3.80709 -2.72089,-3.30592 -0.48174,0.48174 -1.32353,5.7716 -1.87065,11.75524 -1.258,13.75811 -1.599,15.37936 -3.23479,15.37936 -0.94394,0 -1.50816,-2.26088 -1.93406,-7.75 z"
         id="path3536"
         inkscape:connector-curvature="0" />
      <path
         style="fill:#6b6b6b"
         d="m 390.72708,666.14789 c -0.26796,-0.825 -0.73754,-4.90677 -1.04351,-9.0706 -0.68269,-9.29051 -2.46304,-17.9294 -3.695,-17.9294 -0.50443,0 -0.91714,0.47469 -0.91714,1.05486 0,2.66343 -4.26283,9.96872 -7.44987,12.76699 -4.77447,4.19203 -9.04347,5.06971 -22.46818,4.61929 -13.52884,-0.45391 -26.26435,-2.66408 -34.66041,-6.01511 -3.34315,-1.33432 -6.36725,-2.42603 -6.72021,-2.42603 -0.35296,0 -4.0544,-2.31546 -8.22543,-5.14546 -8.44244,-5.72814 -11.4759,-10.16361 -11.4759,-16.77991 0,-3.02756 0.73506,-4.84222 3.01175,-7.43523 4.48929,-5.11302 7.09668,-6.174 56.83363,-23.12627 11.73996,-4.00143 21.96075,-7.89133 22.71287,-8.64423 1.15667,-1.15787 1.07073,-3.45007 -0.55748,-14.8689 -1.91927,-13.46008 -3.85424,-28.91178 -4.57079,-36.5 -0.20775,-2.2 -1.05568,-8.5 -1.88429,-14 -1.35473,-8.99216 -5.41932,-51.34027 -7.06915,-73.65219 l -0.63978,-8.65219 -16.16838,0.15219 c -15.47011,0.14562 -43.68987,-1.39808 -61.58455,-3.36884 -20.98762,-2.3114 -57.4966,-10.55849 -70.58383,-15.94435 -1.1,-0.45269 -4.25,-1.58672 -7,-2.52008 -19.18894,-6.51278 -39.29987,-17.30966 -46.42431,-24.92364 -1.33338,-1.425 -2.98442,-2.5909 -3.669,-2.5909 -2.03472,0 -14.47368,-14.14034 -16.64412,-18.92067 -4.10523,-9.04162 -0.47492,-19.34482 9.05597,-25.70182 9.05378,-6.03878 17.64668,-8.07875 37.18146,-8.82694 9.625,-0.36864 22,-1.08155 27.5,-1.58425 5.5,-0.50269 25.3,-1.60488 44,-2.44931 18.7,-0.84442 35.125,-1.73805 36.5,-1.98585 1.375,-0.24779 7.675,-0.69722 14,-0.99873 35.38927,-1.687 51.3763,-2.5754 51.67232,-2.87141 0.18288,-0.18288 0.5626,-11.31893 0.84382,-24.74677 0.63617,-30.37511 1.07365,-35.10468 3.65132,-39.4735 2.73356,-4.63305 5.07093,-5.8028 12.83254,-6.42211 l 6.5,-0.51864 0.5,-11.33397 c 0.54729,-12.4059 1.42557,-14.16603 7.06868,-14.16603 4.44647,0 5.3852,2.27928 5.93132,14.40145 l 0.5,11.09855 6.67199,0.5 c 5.23717,0.39247 7.22099,1.01627 9.22484,2.90067 4.81596,4.5289 5.80387,9.82269 7.10995,38.09933 0.24134,5.225 0.72117,13.83982 1.0663,19.14404 l 0.62749,9.64404 12.64972,0.63981 c 6.95734,0.3519 23.22471,1.08564 36.14971,1.63054 12.925,0.54489 29.8,1.41139 37.5,1.92555 14.97387,0.99986 40.97622,2.34817 77.85971,4.0373 26.24164,1.20177 29.94246,1.81674 38.09318,6.32997 12.19277,6.75141 17.32372,16.75831 13.90133,27.11181 -3.76403,11.38704 -10.64843,18.53789 -28.6791,29.78903 -21.75971,13.57807 -41.94615,22.03549 -66.17512,27.7251 -7.15,1.67901 -13.9,3.30123 -15,3.60493 -1.1,0.30371 -5.15,0.93277 -9,1.39792 -3.85,0.46514 -12.85,1.76759 -20,2.89432 -13.76264,2.16878 -47.40803,4.92082 -66.31745,5.42446 -8.54882,0.22769 -11.54185,0.65612 -12.23469,1.75131 -0.50448,0.79743 -0.92815,5.27487 -0.94149,9.94987 -0.0912,31.96889 -7.41581,107.22297 -12.64283,129.89462 -0.88169,3.82421 -1.10986,6.75906 -0.56764,7.30128 0.49866,0.49866 3.11109,1.52298 5.80538,2.27625 6.66231,1.86267 15.45656,4.58762 30.89872,9.57418 7.15,2.30887 17.9916,5.66976 24.09245,7.46865 6.10085,1.7989 12.47285,3.98455 14.16,4.85701 3.87538,2.00403 8.90223,8.05164 10.35725,12.46041 0.97153,2.94377 0.84258,3.73129 -0.98688,6.02692 -1.15744,1.45237 -2.71712,3.99908 -3.46595,5.65935 -2.26714,5.02659 -12.91689,11.82187 -24.79303,15.81966 -11.95592,4.02464 -40.26567,6.69146 -48.3289,4.55265 -5.65528,-1.50009 -14.11678,-10.29883 -15.7398,-16.36711 -0.66547,-2.48813 -1.50545,-4.52387 -1.86662,-4.52387 -0.82843,0 -1.69778,6.29172 -2.55566,18.49609 -0.64014,9.10677 -2.563,15.05756 -3.71721,11.50391 z"
         id="path3534"
         inkscape:connector-curvature="0" />
      <path
         style="fill:#525252"
         d="m 390.62412,664.89789 c -0.21149,-0.6875 -0.62626,-4.85 -0.92172,-9.25 -0.65713,-9.7863 -2.48837,-18.70616 -3.68814,-17.96467 -0.48866,0.30201 -1.37904,2.3709 -1.9786,4.59753 -1.37189,5.0948 -8.01363,12.39831 -12.67342,13.93618 -5.76135,1.90142 -30.97786,0.63296 -41.29081,-2.07703 -17.10758,-4.49547 -31.25181,-13.16558 -34.42798,-21.10363 -2.30573,-5.76256 -1.41494,-9.65939 3.24915,-14.21376 3.16506,-3.09059 6.982,-4.86296 22.74114,-10.55962 10.41573,-3.76512 26.67446,-9.42534 36.13051,-12.57828 9.45605,-3.15294 17.95554,-6.29033 18.88776,-6.97198 1.58567,-1.15947 1.52892,-2.45865 -0.88025,-20.15206 -1.41636,-10.40197 -2.8635,-21.83768 -3.21586,-25.41268 -0.35237,-3.575 -1.47934,-12.125 -2.50438,-19 -1.02504,-6.875 -2.56304,-21.05 -3.41779,-31.5 -0.85475,-10.45 -2.00594,-22.62335 -2.55819,-27.0519 -0.55226,-4.42854 -1.00411,-11.68594 -1.00411,-16.12755 0,-5.26681 -0.43477,-8.41938 -1.25,-9.06388 -0.81375,-0.64332 -4.04202,-0.65953 -9.25,-0.0464 -11.44581,1.34742 -62.91132,-2.07851 -80.5,-5.35869 -5.775,-1.077 -13.10992,-2.39763 -16.29982,-2.93472 -28.81291,-4.85139 -71.41995,-20.58413 -88.45018,-32.66047 -3.4375,-2.43757 -6.25,-4.81839 -6.25,-5.29071 0,-0.47233 -2.43379,-2.47423 -5.40843,-4.44868 -6.39239,-4.24303 -15.14299,-15.13739 -16.64798,-20.72647 -2.01339,-7.47719 2.00245,-16.59327 9.61786,-21.83281 8.71446,-5.99571 17.10273,-8.1391 35.43855,-9.05535 9.075,-0.45348 22.8,-1.29785 30.5,-1.87637 7.7,-0.57853 24.8,-1.50501 38,-2.05885 13.2,-0.55384 29.625,-1.4282 36.5,-1.94304 6.875,-0.51483 22.85,-1.43134 35.5,-2.03669 12.65,-0.60534 25.7,-1.23023 29,-1.38864 l 6,-0.28801 0.6248,-6.40538 c 0.34365,-3.52297 0.69695,-15.31478 0.78511,-26.20403 0.0882,-10.88925 0.58976,-22.06311 1.11464,-24.83079 1.79708,-9.47599 7.13716,-13.87057 16.85486,-13.87057 l 4.94364,0 0.33847,-10.9668 c 0.35476,-11.49441 0.96374,-13.10918 5.4491,-14.44903 1.3501,-0.40329 2.96459,0.061 4.48056,1.28858 2.18593,1.77005 2.39944,2.78119 2.75,13.02315 l 0.38007,11.1041 4.92149,0 c 7.04953,0 11.36292,2.10503 13.67631,6.67436 2.73751,5.40703 3.03059,7.46857 4.16905,29.32564 0.55863,10.725 1.30149,23.02817 1.6508,27.34039 0.63135,7.79389 0.65062,7.83741 3.24811,7.33946 2.94081,-0.56377 44.12734,1.12567 80.10592,3.28588 25.80514,1.54938 53.2235,2.96678 78.2986,4.04765 26.36667,1.13655 31.6157,1.93454 39.81249,6.05259 6.01474,3.02179 14.51425,11.5649 15.52923,15.6089 1.02221,4.07283 -0.18109,11.75603 -2.65097,16.92671 -1.28691,2.69413 -5.21577,7.69991 -8.73081,11.12394 -11.09562,10.80838 -39.44239,26.80154 -61.00149,34.41684 -10.63765,3.75753 -39.7254,10.84662 -48.74998,11.88104 -3.85,0.4413 -12.85,1.72283 -20,2.84785 -15.50268,2.43928 -48.37308,5.08079 -64.75138,5.20351 -11.22948,0.0841 -11.76964,0.18437 -12.16251,2.25665 -0.22612,1.19272 -0.89506,13.19359 -1.48653,26.66859 -0.59146,13.475 -1.54291,29.45 -2.11433,35.5 -3.73049,39.49749 -5.72621,55.3762 -9.1522,72.81834 -2.5203,12.83116 -2.72214,12.4452 8.16695,15.61644 4.125,1.20133 16.5,5.04037 27.5,8.5312 11,3.49082 23.95971,7.53529 28.79937,8.98769 6.4811,1.94501 9.85725,3.59647 12.81473,6.26838 7.23144,6.53317 8.55604,11.50439 4.3859,16.46032 -1.375,1.63409 -2.5,3.57649 -2.5,4.31643 0,2.13713 -7.85422,8.2876 -14.73488,11.53855 -15.62639,7.38312 -45.27943,11.65552 -57.36436,8.26505 -7.90813,-2.21866 -16.86531,-13.48587 -16.89518,-21.2524 -0.004,-0.9971 -0.32808,-1.1275 -1.03809,-0.41749 -0.77942,0.77942 -2.69951,15.9172 -3.94697,31.11749 -0.0712,0.86713 -2.15295,0.0236 -2.46783,-1 z"
         id="path3532"
         inkscape:connector-curvature="0" />
      <path
         style="fill:#2b2b2b"
         d="m 391.07143,661.14154 c 0,-3.74991 -2.08364,-19.29499 -3.58469,-26.74365 -0.74192,-3.68167 -2.10007,-2.56655 -2.76278,2.26841 -1.36354,9.94814 -6.97784,17.47434 -14.448,19.36815 -9.61044,2.4364 -42.3002,-1.34391 -51.29283,-5.93161 -2.10761,-1.07522 -4.28655,-1.95495 -4.84207,-1.95495 -0.55553,0 -4.30979,-2.23885 -8.34281,-4.97522 -8.05599,-5.46592 -10.72682,-9.44522 -10.72682,-15.98198 0,-4.82431 3.27773,-9.01385 9.24376,-11.8152 4.73319,-2.22248 18.79058,-7.23868 47.25624,-16.86281 22.03386,-7.44955 26.19947,-9.13924 26.87574,-10.90157 0.27145,-0.70739 -0.55326,-8.86349 -1.8327,-18.12469 -1.27943,-9.26119 -2.85764,-21.33853 -3.50714,-26.83853 -0.6495,-5.5 -1.80602,-14.275 -2.57005,-19.5 -0.76404,-5.225 -2.54374,-22.775 -3.9549,-39 -1.41116,-16.225 -2.89092,-32.875 -3.28835,-37 l -0.7226,-7.5 -17.5,-0.0389 c -16.82489,-0.0374 -43.24536,-1.54956 -60.91617,-3.48651 -20.93022,-2.29422 -57.48529,-10.54947 -70.58383,-15.93998 -1.1,-0.45269 -4.25,-1.58672 -7,-2.52008 -19.3939,-6.58235 -39.96079,-17.66713 -46.24339,-24.92346 -1.23386,-1.42509 -2.89657,-2.59108 -3.69491,-2.59108 -2.21634,0 -15.15495,-15.23752 -16.56405,-19.50711 -2.8028,-8.49257 0.82381,-17.85973 9.00235,-23.25217 8.97545,-5.91788 17.61834,-7.94782 37,-8.69015 9.625,-0.36864 22,-1.08321 27.5,-1.58794 5.5,-0.50473 25.3,-1.60862 44,-2.45308 18.7,-0.84447 35.125,-1.75095 36.5,-2.01441 1.375,-0.26345 16.65487,-1.16001 33.95526,-1.99234 17.3004,-0.83233 31.81594,-1.874 32.25677,-2.31483 0.44083,-0.44083 1.03146,-12.02597 1.3125,-25.74474 0.28105,-13.71878 0.74047,-27.19323 1.02095,-29.94323 1.03119,-10.11041 5.46886,-14.5 14.65881,-14.5 2.96764,0 5.93571,-0.54 6.59571,-1.2 0.77691,-0.77691 1.2,-4.80635 1.2,-11.42857 0,-11.40954 0.89445,-13.37143 6.09618,-13.37143 3.97046,0 4.90382,2.73417 4.90382,14.3651 0,5.84937 0.43992,9.67482 1.2,10.4349 0.66,0.66 3.70987,1.2 6.77749,1.2 12.32452,0 13.9725,4.38766 15.58721,41.5 0.35895,8.25 0.94123,17.925 1.29397,21.5 l 0.64133,6.5 10.5,0.695 c 5.775,0.38225 22.2,1.16625 36.5,1.74223 14.3,0.57598 35.9,1.69746 48,2.49218 12.1,0.79471 34.375,1.93968 49.5,2.54436 42.84375,1.71285 48.14247,2.32443 56.71271,6.54587 16.09834,7.92953 20.01141,20.82033 10.77026,35.48036 -5.82725,9.24426 -23.1639,21.47253 -45.98297,32.43371 -15.86661,7.62156 -26.97364,11.54523 -44,15.54348 -7.15,1.67901 -13.9,3.30123 -15,3.60493 -1.1,0.30371 -5.15,0.93277 -9,1.39792 -3.85,0.46514 -12.85,1.76759 -20,2.89432 -13.77613,2.17091 -47.40933,4.92066 -66.36847,5.4261 -14.01343,0.37359 -14.12776,0.4758 -14.14047,12.64067 -0.033,31.57625 -7.38268,107.20474 -12.63021,129.96509 -1.76078,7.63709 -1.27233,8.46628 6.22103,10.56082 6.67781,1.86657 15.4572,4.58667 30.91812,9.57929 7.15,2.30887 18.10859,5.70348 24.35243,7.54358 13.50827,3.98097 16.73287,5.71807 20.34165,10.95806 3.90914,5.6761 4.4398,8.81815 1.91563,11.34232 -1.13498,1.13498 -2.69191,3.56734 -3.45983,5.40524 -2.52048,6.03235 -17.72592,14.19337 -31.89953,17.12101 -17.89714,3.69675 -37.60556,4.28714 -43.35191,1.29865 -6.36727,-3.31142 -12.39844,-12.37102 -12.39844,-18.62405 0,-1.63521 -0.42742,-3.23727 -0.94983,-3.56013 -1.8794,-1.16154 -3.01079,3.46014 -4.1855,17.09764 -1.16289,13.50034 -2.86467,20.25181 -2.86467,11.365 z"
         id="path3530"
         inkscape:connector-curvature="0" />
      <path
         style="fill:#000000"
         d="m 343.19161,655.02705 c -15.06192,-1.7367 -26.43937,-5.63706 -37.24771,-12.76906 -7.26207,-4.79195 -9.87247,-8.73738 -9.87247,-14.92152 0,-4.41559 1.78731,-7.28122 6.24925,-10.01954 3.3174,-2.03591 37.90715,-14.6058 61.13532,-22.21653 14.18396,-4.64739 16.83797,-6.40974 16.08608,-10.68168 -1.19736,-6.80297 -5.55852,-39.71143 -6.4633,-48.77083 -0.5493,-5.5 -1.43752,-12.025 -1.97382,-14.5 -0.81667,-3.76885 -4.53211,-44.3088 -6.59873,-72 -0.88988,-11.92384 1.11315,-10.84133 -19.72337,-10.65919 -26.36862,0.2305 -59.98459,-2.40612 -81.1276,-6.36311 -27.39492,-5.12706 -38.61731,-8.23389 -62.08383,-17.18741 -18.42875,-7.0314 -40.5,-19.47808 -40.5,-22.83925 0,-0.5792 -1.49658,-1.6784 -3.32574,-2.44267 -3.63916,-1.52054 -13.34783,-12.00083 -16.13625,-17.41871 -1.2681,-2.46391 -1.64082,-4.99153 -1.34306,-9.10804 0.68885,-9.52322 7.40931,-16.05913 21.30505,-20.72 4.6326,-1.55386 9.98823,-2.1683 23.5,-2.69609 9.625,-0.37597 21.775,-1.07919 27,-1.56271 5.225,-0.48352 20.525,-1.36563 34,-1.96024 13.475,-0.59461 34.625,-1.74251 47,-2.55088 23.85357,-1.5582 59.71724,-3.4917 64.76592,-3.4917 1.74352,0 3.2601,-0.62541 3.58787,-1.47958 0.31227,-0.81377 0.82162,-12.85127 1.13189,-26.75 0.73934,-33.11959 0.91321,-34.58548 4.63838,-39.10476 2.90103,-3.51945 3.27506,-3.66566 9.37732,-3.66566 8.98579,0 9.49862,-0.72192 9.49862,-13.37143 0,-11.08591 0.62215,-12.62857 5.09301,-12.62857 3.52873,0 3.90699,1.25961 3.90699,13.01036 0,11.98205 0.66997,12.98964 8.63717,12.98964 12.74409,0 13.11649,1.31012 15.94184,56.0838 0.32863,6.37109 0.8953,12.04816 1.25925,12.61572 0.39869,0.62173 11.79196,1.48845 28.66174,2.18039 15.4,0.63165 31.6,1.36659 36,1.63319 4.4,0.2666 18.575,1.14219 31.5,1.94574 12.925,0.80355 35.65,1.94632 50.5,2.53948 42.61905,1.70234 47.2981,2.26105 55.63774,6.6434 7.17253,3.76906 13.25702,10.09863 14.51121,15.09573 1.8004,7.17336 -3.18348,18.6225 -11.56614,26.57014 -10.59835,10.04835 -40.35018,26.61584 -60.58281,33.73591 -4.4,1.5484 -13.85,4.20379 -21,5.90086 -7.15,1.69706 -13.9,3.33406 -15,3.63776 -1.1,0.30371 -5.15,0.93277 -9,1.39792 -3.85,0.46514 -12.85,1.76673 -20,2.89241 -14.1783,2.2322 -46.50024,4.92297 -66.89456,5.56892 -9.25075,0.293 -13.13214,0.78287 -13.73529,1.73352 -1.32737,2.09214 -1.64845,5.75682 -2.78834,31.82511 -0.58922,13.475 -1.5484,29.675 -2.13151,36 -2.20594,23.92776 -5.12723,48.9225 -7.07101,60.5 -3.08337,18.36513 -3.28465,20.92991 -1.73623,22.12426 1.2118,0.93469 11.26043,4.15452 58.85694,18.85918 16.99218,5.24963 19.42844,6.54584 23.057,12.2675 3.4589,5.45411 3.66759,7.64822 0.94886,9.97607 -1.09677,0.93909 -2.47297,3.15831 -3.05821,4.93161 -2.12215,6.43017 -18.98334,14.88601 -35.44765,17.7769 -13.01567,2.28535 -31.26233,3.12805 -35.73917,1.65056 -7.86113,-2.59441 -14.76083,-11.31643 -14.76083,-18.65942 0,-4.73967 -2.00194,-7.33417 -3.89712,-5.05062 -0.63936,0.77038 -1.63855,5.38843 -2.22041,10.26233 -1.61815,13.55412 -2.04669,14.79933 -3.04974,8.86163 -0.46456,-2.75 -1.25799,-8.10244 -1.76318,-11.89432 -0.82939,-6.22524 -2.33891,-9.17527 -4.12888,-8.06901 -0.36014,0.22258 -0.90569,2.83547 -1.21232,5.80641 -0.93874,9.0955 -4.92286,15.19235 -11.76495,18.00375 -3.92312,1.612 -17.33309,1.8595 -28.84322,0.53233 z"
         id="path3528"
         inkscape:connector-curvature="0" />
    </g>
  </g>
</svg>
