<?xml version="1.0" encoding="UTF-8" standalone="no"?>
<!-- Created with Inkscape (http://www.inkscape.org/) -->

<svg
   xmlns:dc="http://purl.org/dc/elements/1.1/"
   xmlns:cc="http://creativecommons.org/ns#"
   xmlns:rdf="http://www.w3.org/1999/02/22-rdf-syntax-ns#"
   xmlns:svg="http://www.w3.org/2000/svg"
   xmlns="http://www.w3.org/2000/svg"
   xmlns:sodipodi="http://sodipodi.sourceforge.net/DTD/sodipodi-0.dtd"
   xmlns:inkscape="http://www.inkscape.org/namespaces/inkscape"
   width="503.08493"
   height="421.71359"
   id="svg2"
   version="1.1"
   inkscape:version="0.48.4 r9939"
   sodipodi:docname="P-47.svg">
  <defs
     id="defs4" />
  <sodipodi:namedview
     id="base"
     pagecolor="#ffffff"
     bordercolor="#666666"
     borderopacity="1.0"
     inkscape:pageopacity="0.0"
     inkscape:pageshadow="2"
     inkscape:zoom="0.35"
     inkscape:cx="47.77235"
     inkscape:cy="120.70913"
     inkscape:document-units="px"
     inkscape:current-layer="layer1"
     showgrid="false"
     inkscape:window-width="614"
     inkscape:window-height="498"
     inkscape:window-x="259"
     inkscape:window-y="241"
     inkscape:window-maximized="0"
     fit-margin-top="0"
     fit-margin-left="0"
     fit-margin-right="0"
     fit-margin-bottom="0" />
  <metadata
     id="metadata7">
    <rdf:RDF>
      <cc:Work
         rdf:about="">
        <dc:format>image/svg+xml</dc:format>
        <dc:type
           rdf:resource="http://purl.org/dc/dcmitype/StillImage" />
        <dc:title></dc:title>
      </cc:Work>
    </rdf:RDF>
  </metadata>
  <g
     inkscape:label="Layer 1"
     inkscape:groupmode="layer"
     id="layer1"
     transform="translate(-134.65202,-223.11796)">
    <g
       id="g3623"
       transform="translate(31.428571,-48.571429)">
      <path
         style="fill:#d3d3d3"
         d="m 351.16971,692.64796 c -2.16972,-1.37964 -3.273,-6.14733 -3.93067,-16.98625 l -0.65097,-10.72809 -33.11545,0.29003 c -36.78688,0.32219 -38.5012,0.088 -44.30974,-6.0524 -3.64889,-3.85739 -7.10508,-13.77639 -7.94592,-22.80423 -0.76756,-8.24112 1.03551,-12.84309 6.43094,-16.41362 4.1486,-2.74541 7.48817,-3.46043 51.08142,-10.93686 11.20469,-1.92165 20.59577,-3.71751 20.86905,-3.9908 0.27329,-0.27329 -0.22702,-6.25582 -1.11177,-13.2945 -2.22561,-17.70568 -4.38973,-45.45545 -5.71625,-73.29762 -0.61581,-12.925 -1.22001,-23.60932 -1.34269,-23.74294 -0.48755,-0.53103 -32.15325,-6.26454 -48.5705,-8.79435 -10.5853,-1.63114 -30.55843,-5.37466 -48.00001,-8.99653 -6.32499,-1.31343 -15.23103,-3.07472 -19.79118,-3.91398 -4.56014,-0.83925 -9.14306,-1.98183 -10.18425,-2.53906 -1.04119,-0.55723 -3.75435,-1.01314 -6.02923,-1.01314 -4.20016,0 -8.94198,-0.77526 -37.49534,-6.13025 -8.79999,-1.65039 -18.475,-3.45795 -21.5,-4.0168 -20.51677,-3.79038 -24.7603,-5.31937 -28.42997,-10.24368 -3.20137,-4.29589 -6.23281,-14.38949 -7.57497,-25.22186 -0.99456,-8.02699 -0.8884,-10.38219 0.89114,-19.76976 1.11111,-5.86145 2.29811,-11.10685 2.63777,-11.65643 0.33967,-0.54959 2.73933,-2.07443 5.3326,-3.38853 4.59543,-2.32868 5.52579,-2.4038 36.67923,-2.96125 17.58031,-0.31458 37.5892,-1.0171 44.4642,-1.56115 6.875,-0.54406 21.05,-1.47416 31.5,-2.0669 50.59891,-2.87005 66.94411,-4.14028 78.00001,-6.06163 6.59999,-1.14697 14.69999,-2.48881 18,-2.98185 3.29999,-0.49305 7.46249,-1.15162 9.25,-1.46349 l 3.25,-0.56705 0,-31.32896 c 0,-25.29176 0.28905,-32.14823 1.5,-35.58041 0.82499,-2.3383 1.5,-5.35116 1.5,-6.69524 0,-4.7867 6.17616,-17.64269 10.64967,-22.16782 3.69251,-3.73513 4.71173,-4.26456 7.08181,-3.67867 6.16577,1.52418 10.89355,8.54347 15.85629,23.54173 2.80871,8.48839 2.81331,8.5471 3.36239,42.98402 l 0.54984,34.48401 4,0.72932 c 2.19999,0.40113 10.29999,1.67118 18,2.82233 7.69999,1.15116 15.79999,2.49549 18,2.98741 2.19999,0.49192 14.35,1.39394 27,2.00449 31.22713,1.50715 84.67904,4.82133 95.86407,5.94385 5.02476,0.50429 18.81092,1.42099 30.63593,2.03712 11.82499,0.61613 23.41877,1.6051 25.76393,2.19771 4.84,1.22303 9.72343,6.0503 10.60747,10.48546 2.73219,13.70707 2.74064,14.79478 0.21317,27.46716 -3.17585,15.92333 -4.59514,19.20742 -9.69118,22.42442 -4.15564,2.62334 -5.9848,3.08486 -25.39339,6.40711 -14.07888,2.40994 -36.05583,6.64641 -44.81182,8.63831 -3.74649,0.85229 -9.14648,1.68492 -12,1.85028 -2.85349,0.16537 -8.33818,1.21935 -12.18818,2.34218 -6.42462,1.87371 -19.54706,4.83696 -32,7.22609 -6.13108,1.17626 -26.1018,5.11601 -45.5,8.97607 -7.97501,1.58695 -17.65,3.59302 -21.5,4.45795 -3.85001,0.86492 -9.52886,1.98093 -12.61968,2.48001 -3.09083,0.49909 -7.42835,1.39445 -9.63895,1.9897 l -4.01925,1.08228 -0.68268,13.24136 c -0.37548,7.28275 -1.10266,18.19136 -1.61595,24.24136 -0.51331,6.05 -1.83221,21.575 -2.93092,34.5 -1.0987,12.925 -2.43672,26.17229 -2.97334,29.43843 -0.53665,3.26613 -0.8347,6.07944 -0.66233,6.2518 0.17236,0.17236 5.22506,1.19395 11.22824,2.27021 9.71344,1.74143 17.64366,2.95881 46.89505,7.19892 11.11897,1.61174 15.90331,3.93253 18.99991,9.2165 2.91132,4.96777 3.27675,10.95062 1.15871,18.97023 -0.74865,2.83465 -1.90047,7.3981 -2.55957,10.141 -1.56784,6.52456 -3.06348,8.01182 -10.56848,10.50933 -5.91432,1.96816 -8.063,2.06631 -39.24927,1.79286 l -32.99242,-0.28928 -0.65096,10.72809 c -0.77093,12.70544 -2.36563,17.74128 -5.61811,17.74128 -0.275,0 -1.03435,-0.33976 -1.68745,-0.75503 z"
         id="path3637"
         inkscape:connector-curvature="0" />
      <path
         style="fill:#aaaaaa"
         d="m 350.3813,690.1108 c -1.02999,-1.57194 -1.7291,-6.17837 -2.16269,-14.25 l -0.64072,-11.92718 -33.61036,0.30739 c -24.13616,0.22074 -34.65044,-0.0302 -37.30005,-0.89015 -7.98368,-2.59123 -13.27519,-12.31386 -14.48582,-26.61628 -0.72882,-8.61035 0.45445,-12.13224 5.32401,-15.84644 3.71028,-2.82997 4.43574,-2.98798 48.35149,-10.53134 12.92499,-2.22011 23.87384,-4.40741 24.33078,-4.86066 0.45692,-0.45324 0.12212,-6.39023 -0.74401,-13.1933 -2.64326,-20.76135 -6.52017,-76.15855 -6.57319,-93.92402 l -0.0136,-4.5548 -12.25,-2.20035 c -6.73751,-1.2102 -15.3643,-2.66894 -19.17066,-3.24165 -3.80636,-0.57272 -7.23613,-1.23629 -7.62173,-1.4746 -0.38561,-0.23831 -5.3713,-1.11765 -11.07936,-1.9541 -10.94062,-1.60321 -29.69178,-5.07382 -48.87826,-9.04677 -6.32499,-1.30972 -14.425,-2.89093 -18,-3.51381 -3.575,-0.62287 -7.62911,-1.55318 -9.00913,-2.06735 -1.38002,-0.51418 -6.10502,-1.38889 -10.5,-1.94381 -16.39339,-2.06987 -21.34164,-2.87552 -35.49087,-5.77849 -7.975,-1.63621 -17.65,-3.52959 -21.5,-4.20751 -20.00594,-3.52273 -24.81655,-5.43538 -28.32648,-11.26237 -2.94521,-4.88947 -4.94464,-12.22369 -6.22875,-22.84812 -1.0038,-8.30511 -0.92319,-11.02019 0.57892,-19.5 0.9598,-5.41831 2.10422,-10.55259 2.54315,-11.40951 0.43894,-0.85692 2.83198,-2.60412 5.31787,-3.88266 4.22443,-2.1727 5.58487,-2.31605 20.81755,-2.19356 17.68661,0.14223 54.13287,-1.27876 73.29774,-2.85778 6.6,-0.54378 21.67501,-1.44841 33.5,-2.01029 38.13879,-1.81219 59.48896,-3.86202 72.50001,-6.96071 2.19999,-0.52395 7.9375,-1.46809 12.75,-2.09809 l 8.75,-1.14545 0,-32.27098 c 0,-26.12912 0.28548,-33.08013 1.5,-36.52244 0.82499,-2.3383 1.5,-5.30461 1.5,-6.5918 0,-2.35895 1.58922,-6.54763 5.27693,-13.9082 2.76425,-5.51738 7.67214,-10.5 10.3425,-10.5 5.78543,0 12.25129,9.8222 16.80434,25.52725 2.53821,8.75513 2.57623,9.37646 2.57623,42.09665 l 0,33.21037 5.24942,1.1258 c 2.88719,0.61919 11.54969,2.02751 19.25,3.1296 7.70032,1.10209 15.57558,2.39158 17.50058,2.86554 1.92499,0.47396 14.52499,1.39964 28,2.05706 24.06447,1.17406 81.54133,4.82916 118,7.50392 10.17499,0.74648 21.42499,1.38642 25,1.42208 12.25698,0.12226 16.86431,4.56221 18.88079,18.19489 1.14308,7.72793 1.05316,9.28319 -1.17748,20.36684 -1.32828,6.6 -3.10085,13.61305 -3.93903,15.58457 -2.10112,4.94205 -8.6694,8.62554 -17.65266,9.8996 -10.99954,1.56002 -44.19789,7.83063 -56.61162,10.69299 -3.85001,0.88774 -9.025,1.71714 -11.5,1.84312 -2.47501,0.12599 -5.175,0.4831 -6,0.7936 -0.825,0.31049 -5.55,1.51587 -10.5,2.67862 -4.95,1.16275 -11.72875,2.76511 -15.06389,3.5608 -3.33515,0.79568 -7.1282,1.4467 -8.429,1.4467 -1.30081,0 -3.74706,0.42997 -5.43611,0.95549 -1.68905,0.52552 -9.146,2.129 -16.571,3.5633 -7.425,1.43429 -16.65,3.27523 -20.5,4.09097 -3.85001,0.81573 -10.15,2.0805 -14,2.81058 -8.75641,1.66051 -25.61409,5.07572 -35.59994,7.21223 -7.13295,1.52612 -7.5983,1.78707 -7.57328,4.24673 0.0409,4.02534 -2.27405,39.229 -2.80273,42.6207 -0.25721,1.65 -1.3832,14.025 -2.50222,27.5 -1.11904,13.475 -2.44144,26.975 -2.93866,30 -0.49724,3.025 -0.60686,5.80156 -0.24363,6.17014 0.36325,0.36857 5.83545,1.58666 12.16046,2.70686 10.18599,1.80401 18.61068,3.09388 47,7.19596 10.08485,1.4572 14.45002,3.49759 17.57044,8.21287 2.30017,3.47579 2.53417,4.64336 2.11661,10.56099 -0.6561,9.29801 -3.3734,21.1967 -5.49787,24.07446 -0.99319,1.34535 -4.20965,3.24752 -7.23834,4.28065 -4.96618,1.69404 -8.4838,1.83442 -39.56119,1.57872 l -34.11034,-0.28065 -0.64075,11.92718 c -0.61796,11.50321 -2.03689,16.57282 -4.63856,16.57282 -0.52464,0 -1.63878,-1.04527 -2.47586,-2.32282 z"
         id="path3635"
         inkscape:connector-curvature="0" />
      <path
         style="fill:#939393"
         d="m 350.26621,688.92727 c -0.34599,-1.37849 -0.91706,-7.7127 -1.26905,-14.07602 l -0.64,-11.56966 -35.5,0.0788 c -35.0742,0.0779 -35.54692,0.0518 -39.4116,-2.17398 -2.15136,-1.23903 -4.71954,-3.82779 -5.70705,-5.75279 -5.03161,-9.80839 -6.52909,-26.63552 -2.79305,-31.38512 3.91874,-4.98189 4.83932,-5.20858 57.79417,-14.23134 16.89505,-2.87868 19.66649,-4.02863 18.74369,-7.7773 -1.83246,-7.44386 -6.0191,-59.9217 -7.20719,-90.33925 -0.42176,-10.79793 -1.09243,-17.55683 -1.79604,-18.10017 -1.14662,-0.88545 -5.98956,-1.81412 -27.07123,-5.19108 -6.57155,-1.05267 -12.59262,-2.1612 -13.38014,-2.4634 -0.78754,-0.3022 -5.98581,-1.21656 -11.55172,-2.03191 -14.2135,-2.08212 -35.38278,-6.10615 -61.11985,-11.61815 -15.51948,-3.32375 -20.15365,-4.14537 -35.5,-6.29398 -5.775,-0.80855 -17.25,-2.83828 -25.5,-4.51051 -8.25,-1.67223 -17.7,-3.53045 -21,-4.12938 -13.39296,-2.43073 -15.92382,-3.03569 -19.19625,-4.58857 -6.59736,-3.13065 -10.26965,-10.81949 -12.25659,-25.6622 -1.41076,-10.53853 -1.26182,-15.62961 0.75077,-25.66315 1.69492,-8.44984 1.72093,-8.49588 6.1874,-10.95473 4.20667,-2.31583 5.35597,-2.46173 18.5,-2.34856 16.08145,0.13847 55.14068,-1.30871 73.51467,-2.72378 6.875,-0.52948 22.17501,-1.4225 34,-1.98449 30.8607,-1.46667 47.81321,-2.87905 61.50001,-5.12384 6.59999,-1.08247 16.72499,-2.68047 22.5,-3.5511 5.77499,-0.87064 11.04561,-2.01669 11.71246,-2.54678 0.89283,-0.70972 1.31265,-9.83711 1.5925,-34.62251 0.41438,-36.70103 0.90047,-40.64436 6.46053,-52.40936 9.00391,-19.05211 18.61217,-14.97135 26.62829,11.3094 2.58688,8.4811 2.60622,8.79347 2.60622,42.12042 0,36.23639 -0.17516,35.08644 5.5,36.11137 25.17182,4.54604 40.16116,6.8212 48,7.28568 3.85,0.22813 26.57499,1.55559 50.5,2.94991 23.92499,1.39433 48.67499,2.98317 55,3.53076 6.32499,0.54759 23.42499,1.79989 38,2.78288 17.83204,1.20267 27.19786,2.23025 28.63351,3.14156 3.50649,2.2258 5.1853,6.16169 6.49658,15.23096 1.14052,7.88825 1.05403,9.55811 -1.05302,20.33032 -1.26259,6.4549 -2.92645,13.24597 -3.69745,15.09126 -2.1568,5.16195 -7.98576,8.24884 -18.70633,9.90644 -13.72918,2.12279 -30.46599,5.29816 -55.45143,10.52045 -5.10298,1.06659 -10.76896,1.93925 -12.59108,1.93925 -1.8221,0 -5.52194,0.67619 -8.22186,1.50265 -5.07267,1.55278 -24.61943,5.99261 -29.90892,6.79348 -4.97625,0.75345 -24.26764,4.63253 -36.5,7.33936 -6.32501,1.39962 -14.65,3.12246 -18.5,3.82853 -6.89004,1.26359 -20.27883,3.94175 -36,7.20109 -4.4,0.91221 -8.30858,1.92324 -8.68574,2.24673 -0.67775,0.58133 -1.8713,12.84169 -3.80521,39.08816 -1.16607,15.82546 -4.72987,57.00765 -5.6372,65.14175 -0.5538,4.9647 -0.40386,5.70816 1.24942,6.19505 5.11485,1.50633 45.38048,7.9251 57.80849,9.21529 9.10257,0.94497 14.85897,3.561 17.60202,7.99932 1.89454,3.06544 2.11072,4.52165 1.66787,11.23526 -0.27984,4.24233 -1.23875,10.84118 -2.13093,14.6641 -3.13923,13.45142 -3.88028,13.65493 -49.18474,13.50725 l -34.88398,-0.11371 -0.64,11.5715 c -0.79349,14.34678 -1.31425,16.58419 -3.86,16.58419 -1.26004,0 -2.18695,-0.89665 -2.59095,-2.50635 z"
         id="path3633"
         inkscape:connector-curvature="0" />
      <path
         style="fill:#6b6b6b"
         d="m 350.87306,689.46333 c -0.57997,-1.08367 -1.33425,-7.49617 -1.67618,-14.25 l -0.6217,-12.27971 -34.10901,0.31336 c -36.79854,0.33806 -39.44672,0.053 -44.03887,-4.74015 -3.36738,-3.51479 -6.49598,-12.91585 -7.24564,-21.77225 -0.71269,-8.41977 0.41612,-11.99374 4.81539,-15.24627 3.03958,-2.24725 6.29342,-2.91763 57.36011,-11.81768 l 16,-2.78852 -0.1148,-4.47425 c -0.0631,-2.46083 -0.83017,-10.77424 -1.70453,-18.47424 -1.63536,-14.4018 -4.15325,-49.52796 -5.44745,-75.99505 l -0.73322,-14.99506 -6.5,-1.24932 c -3.57501,-0.68712 -12.125,-2.11848 -19,-3.1808 -6.875,-1.06231 -13.17501,-2.19383 -14,-2.51448 -0.82501,-0.32065 -8.25,-1.67558 -16.5,-3.01094 -21.57498,-3.49216 -64.77404,-11.86743 -70.16543,-13.60341 -1.74097,-0.56057 -6.69097,-1.4524 -11,-1.98182 -13.78997,-1.6943 -20.54979,-2.80376 -33.33458,-5.47104 -6.875,-1.43433 -14.75,-3.00751 -17.5,-3.49597 -2.75,-0.48846 -9.04999,-1.60722 -14,-2.48613 -18.75822,-3.33069 -22.72469,-8.24539 -25.55523,-31.66451 -1.00307,-8.29908 -0.92273,-11.02635 0.57438,-19.5 2.90122,-16.4209 2.21675,-16.1402 40.98085,-16.8058 29.88297,-0.5131 34.31131,-0.70408 59,-2.54458 7.15,-0.53302 22.67501,-1.43057 34.5,-1.99454 31.1163,-1.48405 47.89258,-2.89143 61.50001,-5.1593 6.59999,-1.09998 16.27499,-2.63919 21.5,-3.42046 5.22499,-0.78127 10.0625,-1.63279 10.75,-1.89226 0.96457,-0.36404 1.25,-7.87117 1.25,-32.87742 0,-26.24883 0.28499,-33.2134 1.5,-36.65711 0.82499,-2.3383 1.5,-5.30461 1.5,-6.5918 0,-4.01862 5.89311,-16.40365 9.8297,-20.6582 6.74131,-7.28582 14.56769,0.99021 20.59407,21.77725 2.53895,8.75769 2.57623,9.36844 2.57623,42.20427 l 0,33.31798 2.32632,0.88447 c 1.27946,0.48645 7.01697,1.62174 12.75,2.52286 5.73302,0.90111 14.47367,2.33368 19.42368,3.18347 9.72377,1.66934 23.38356,2.79174 47,3.8619 8.25,0.37385 31.42499,1.78577 51.5,3.13761 20.07499,1.35184 47.52499,3.12589 61,3.94234 13.475,0.81644 26.28532,2.03196 28.4674,2.70114 5.54316,1.69996 7.90819,5.68022 9.41778,15.84987 1.12559,7.58263 1.04048,9.39785 -0.90794,19.36684 -3.13117,16.02039 -4.41308,18.97933 -9.51876,21.97146 -2.55535,1.49754 -7.13546,2.91542 -11.34687,3.51271 -10.77995,1.52887 -43.77112,7.74829 -56.57508,10.66541 -3.82991,0.87256 -9.00491,1.73782 -11.5,1.9228 -2.4951,0.18498 -7.91154,1.20395 -12.03654,2.26438 -13.33063,3.42696 -25.8119,6.16324 -28.11301,6.16324 -1.23474,0 -3.62693,0.42997 -5.31599,0.95549 -1.68905,0.52552 -8.921,2.08152 -16.071,3.45779 -24.59851,4.73486 -39.00755,7.64035 -42.5,8.56987 -1.925,0.51233 -7.775,1.69709 -13,2.63278 -5.225,0.9357 -12.65,2.4454 -16.5,3.3549 -6.66337,1.57412 -7.0043,1.79492 -7.08951,4.5914 -0.20378,6.6882 -2.4542,40.16478 -2.88644,42.93777 -0.2572,1.65 -1.38118,14.025 -2.49775,27.5 -1.11657,13.475 -2.47158,27.18519 -3.01112,30.46709 -0.53955,3.2819 -0.65119,6.27242 -0.24809,6.64558 0.4031,0.37317 9.28291,2.08492 19.73291,3.80388 24.1372,3.97042 22.90818,3.78357 36.5803,5.56151 13.01444,1.69241 16.7906,3.17505 20.51158,8.05351 2.33146,3.05671 2.53075,4.02175 2.10076,10.17275 -0.59429,8.50138 -3.27921,21.01576 -5.10752,23.80612 -0.81355,1.24163 -3.79484,2.83506 -7.23446,3.86665 -5.18378,1.55469 -9.73851,1.71868 -39.95967,1.4388 l -34.10901,-0.31589 -0.62171,12.27971 c -0.59268,11.70679 -1.61121,16.22029 -3.66026,16.22029 -0.5113,0 -1.40414,-0.88663 -1.9841,-1.97029 z"
         id="path3631"
         inkscape:connector-curvature="0" />
      <path
         style="fill:#535353"
         d="m 350.81849,687.83194 c -0.54404,-1.43093 -1.27819,-7.9771 -1.63145,-14.54705 -0.56325,-10.4752 -0.83846,-11.84727 -2.23609,-11.14832 -2.6863,1.3434 -64.02665,1.58331 -68.59379,0.26827 -5.93624,-1.70924 -10.23408,-6.37042 -12.43039,-13.48129 -4.3368,-14.04086 -3.62281,-22.44073 2.29081,-26.95127 3.30817,-2.52327 8.11842,-3.53551 54.54896,-11.47899 9.57517,-1.63814 17.87352,-3.44257 18.44078,-4.00984 0.70852,-0.70852 0.50199,-5.38082 -0.65976,-14.92546 -2.12287,-17.44091 -5.37884,-60.36874 -6.23946,-82.26291 l -0.65402,-16.63854 -11.64847,-2.12993 c -18.76491,-3.43118 -28.03662,-5.03869 -38.14845,-6.6141 -10.69127,-1.66568 -30.81966,-5.44508 -48.00001,-9.01271 -6.32499,-1.31343 -15.23103,-3.07472 -19.79118,-3.91398 -4.56014,-0.83925 -9.14306,-1.98183 -10.18425,-2.53906 -1.04119,-0.55723 -3.75435,-1.01314 -6.02923,-1.01314 -4.20016,0 -8.94198,-0.77526 -37.49534,-6.13025 -8.79999,-1.65039 -18.25,-3.40934 -21,-3.90878 -11.75346,-2.13462 -21.13752,-4.25559 -22.99999,-5.19843 -6.53082,-3.30611 -9.81518,-10.53588 -12.06403,-26.55617 -1.37781,-9.81522 -1.34566,-11.11496 0.51827,-20.94772 1.09298,-5.76576 2.48584,-11.084 3.09526,-11.8183 2.98498,-3.59668 8.88492,-4.29343 41.45049,-4.8951 17.6,-0.32517 37.4,-1.01572 44,-1.53456 6.6,-0.51883 20.55,-1.4278 31,-2.01992 51.51222,-2.9188 66.92377,-4.11117 77.50001,-5.99608 10.59448,-1.88816 29.48575,-4.88839 31.25,-4.96298 0.41249,-0.0174 0.75,-14.24535 0.75,-31.61758 0,-33.37737 0.30462,-36.2969 5.3123,-50.91413 3.59229,-10.48572 9.7307,-18.12155 13.50151,-16.79511 5.47591,1.92622 10.6257,10.86592 14.58924,25.32595 2.5482,9.29655 2.59554,10.06581 2.59623,42.20011 l 7.2e-4,32.73095 2.25,0.46176 c 1.23749,0.25397 4.5,0.92755 7.25,1.49684 2.75,0.5693 8.82499,1.52327 13.5,2.11994 4.67499,0.59667 11.64999,1.69518 15.5,2.44113 3.85,0.74595 17.35,1.86559 30,2.48808 35.78323,1.76084 70.25297,3.88399 90.5,5.5743 10.17499,0.84946 28.48965,2.13285 40.69925,2.85199 28.32542,1.66837 29.07048,2.07502 31.7527,17.33076 1.33624,7.6002 1.28216,8.64665 -1.05333,20.38103 -1.35404,6.80321 -3.23516,13.93529 -4.18026,15.84907 -2.26164,4.57969 -8.59664,7.72325 -18.21836,9.04033 -7.66267,1.04892 -44.27967,7.95247 -56,10.55791 -3.575,0.79473 -9.32405,1.66031 -12.77568,1.92352 -3.45162,0.26321 -7.05163,0.88417 -8,1.37993 -1.54654,0.80843 -22.77011,5.67143 -35.72432,8.18559 -2.75,0.53372 -9.5,1.83807 -15,2.89857 -8.953,1.72629 -22.59801,4.46245 -55.5,11.12914 -5.775,1.17014 -13.48514,2.79333 -17.13363,3.60708 l -6.63364,1.47953 -0.68317,13.6708 c -0.37575,7.51894 -1.10519,18.6208 -1.62099,24.6708 -0.5158,6.05 -1.8148,21.35385 -2.88666,34.00856 -1.07187,12.65471 -2.46189,26.31512 -3.08892,30.35646 -0.67149,4.32789 -0.77195,7.71602 -0.24441,8.24356 0.96911,0.96912 21.80135,4.78428 40.29142,7.37885 31.18822,4.37642 33.70267,5.15462 37.19791,11.51257 1.48431,2.69999 1.80812,4.75716 1.41665,9 -0.79287,8.5934 -4.12451,21.80102 -6.03067,23.90729 -0.95052,1.05033 -4.50825,2.65303 -7.90607,3.56156 -5.25844,1.40605 -10.86564,1.60569 -37.67782,1.34152 -17.32501,-0.17071 -32.21722,-0.66904 -33.09379,-1.10742 -1.39765,-0.69895 -1.67286,0.67312 -2.23609,11.14832 -0.64756,12.04303 -1.74027,17.14873 -3.67012,17.14873 -0.57723,0 -1.49463,-1.17076 -2.03867,-2.60168 z"
         id="path3629"
         inkscape:connector-curvature="0" />
      <path
         style="fill:#2a2a2a"
         d="m 351.3297,688.18025 c -0.31106,-1.23935 -0.88214,-7.58456 -1.26905,-14.10046 l -0.70349,-11.8471 -35.02066,0.14527 c -37.118,0.15396 -39.60648,-0.11237 -43.74149,-4.68151 -4.52792,-5.0033 -8.31667,-25.11553 -5.8326,-30.96187 2.58606,-6.08642 3.8081,-6.41683 56.59475,-15.30197 10.45,-1.75897 19.61849,-3.78787 20.37442,-4.50869 1.16537,-1.11123 1.12893,-3.26346 -0.23961,-14.15043 -2.304,-18.3287 -4.43679,-46.00717 -5.72834,-74.33987 -0.71479,-15.68047 -1.52895,-24.90096 -2.26165,-25.61383 -1.16155,-1.1301 -19.59296,-4.82059 -29.64482,-5.93572 -3.025,-0.33559 -6.85001,-1.04037 -8.5,-1.56618 -1.65,-0.52582 -7.5,-1.61534 -13,-2.42116 -11.57353,-1.69566 -26.1913,-4.39011 -46,-8.47902 -33.48922,-6.91284 -36.57415,-7.48944 -50.5,-9.43883 -5.775,-0.8084 -16.125,-2.6365 -23,-4.06243 -6.875,-1.42594 -14.75,-2.99226 -17.5,-3.48072 -2.75,-0.48846 -8.97177,-1.59703 -13.82616,-2.46351 -10.29748,-1.83802 -14.58175,-3.45 -17.503,-6.5856 -2.97941,-3.19801 -5.86298,-12.81511 -7.22655,-24.10153 -1.00314,-8.30306 -0.92247,-11.02229 0.57849,-19.5 1.92305,-10.86177 2.28078,-11.5905 6.83244,-13.91819 2.53109,-1.29438 6.26708,-1.58836 19.14478,-1.5065 16.79215,0.10674 50.97382,-1.25888 73,-2.91649 7.15,-0.53808 22.675,-1.43977 34.5,-2.00374 31.12476,-1.48445 47.89515,-2.89169 61.5,-5.16057 6.6,-1.10069 16.48812,-2.66972 21.97361,-3.48675 5.48548,-0.81702 10.54798,-1.96219 11.25,-2.54481 0.98699,-0.81913 1.27639,-8.38544 1.27639,-33.37177 0,-20.8498 0.3852,-33.31109 1.08585,-35.12755 0.59722,-1.5483 1.46868,-4.8401 1.93658,-7.3151 1.98946,-10.52342 8.54399,-22.22592 12.78539,-22.82713 5.59168,-0.79261 10.93008,7.19121 15.61595,23.35438 2.53792,8.75418 2.57623,9.37941 2.57623,42.05707 0,25.32944 0.29548,33.41037 1.25,34.18427 1.58424,1.28448 13.71434,3.86956 24.75,5.27454 4.67499,0.59519 11.64999,1.68942 15.5,2.43164 6.64527,1.28109 12.74961,1.72324 43,3.11456 7.14999,0.32886 29.42499,1.7031 49.5,3.05387 20.07499,1.35077 47.52499,3.13341 61,3.96141 13.475,0.828 26.20902,1.95521 28.29782,2.50489 5.059,1.33133 7.0838,4.894 8.60472,15.14023 1.10506,7.44464 1.01471,9.32441 -0.92529,19.25027 -3.0499,15.60458 -4.29781,18.56447 -8.95761,21.2463 -2.14423,1.23406 -7.09668,2.69732 -11.00545,3.25169 -9.75099,1.38293 -23.19741,3.75608 -25.01419,4.41472 -1.8971,0.68775 -31.79418,6.37884 -42.7839,8.14416 -4.55614,0.73187 -12.20614,2.27996 -17,3.4402 -18.64614,4.51286 -20.91963,5.00293 -23.20899,5.00293 -1.30082,0 -3.74706,0.42997 -5.43611,0.95549 -1.68906,0.52552 -8.92101,2.08152 -16.071,3.45779 -24.2549,4.66872 -38.98902,7.63546 -42.5,8.55745 -1.92501,0.50551 -7.55001,1.65585 -12.5,2.55631 -14.01979,2.55036 -22.90715,4.64286 -24,5.65073 -0.55001,0.50722 -1.04029,2.13723 -1.08951,3.62223 -0.22722,6.85408 -2.46956,40.02544 -2.88644,42.7 -0.25721,1.65 -1.38118,14.025 -2.49775,27.5 -1.11658,13.475 -2.47249,27.19072 -3.01313,30.47938 -0.7423,4.5153 -0.68062,6.26612 0.25192,7.15043 0.67919,0.64408 9.7849,2.5753 20.23491,4.29159 25.40818,4.173 23.48955,3.88333 36.5,5.51079 12.65347,1.5828 16.88796,3.19735 20.0566,7.64731 1.78733,2.51007 2.03454,3.97638 1.63352,9.68909 -0.51327,7.31164 -3.09342,20.24793 -4.59988,23.06277 -0.51686,0.96578 -3.44179,2.54465 -6.49984,3.50862 -4.89666,1.54353 -9.70822,1.735 -40.32525,1.60466 l -34.76515,-0.14799 -0.70349,11.84831 c -0.77224,13.00612 -1.34487,16.35504 -2.79651,16.35504 -0.52904,0 -1.2164,-1.01402 -1.52746,-2.25337 z"
         id="path3627"
         inkscape:connector-curvature="0" />
      <path
         style="fill:#000000"
         d="m 351.50887,682.68362 c -0.35063,-3.7125 -0.64759,-9.675 -0.65992,-13.25 -0.0123,-3.575 -0.35303,-6.95 -0.75711,-7.5 -0.46663,-0.63514 -14.11651,-1 -37.41078,-1 -35.64398,0 -36.75557,-0.0589 -39.5,-2.09147 -4.17058,-3.08886 -7.3603,-11.96558 -8.0335,-22.35656 -0.55609,-8.58338 -0.52045,-8.76296 2.38477,-12.01446 3.21456,-3.59772 4.57082,-3.90359 55.78272,-12.5802 19.50088,-3.30396 21.16288,-4.17372 20.14452,-10.54215 -2.40998,-15.07122 -5.99361,-60.28082 -7.17804,-90.55532 -0.36882,-9.42709 -1.0156,-17.69843 -1.4373,-18.38075 -0.81432,-1.31759 -7.59588,-2.73929 -28.2647,-5.92547 -7.02768,-1.08335 -13.15747,-2.20448 -13.62173,-2.49142 -0.46427,-0.28693 -5.51434,-1.20626 -11.22239,-2.04295 -14.47694,-2.12205 -35.50115,-6.11498 -61.37826,-11.65697 -15.51948,-3.32375 -20.15365,-4.14537 -35.5,-6.29398 -5.775,-0.80855 -17.25,-2.83397 -25.5,-4.50093 -16.79032,-3.3926 -21.96509,-4.38803 -31.77797,-6.11295 -13.25683,-2.3303 -17.13228,-7.74445 -19.56709,-27.33599 -1.41886,-11.41675 -1.39457,-12.69474 0.4195,-22.07164 1.8296,-9.45717 2.0949,-10.05165 5.32338,-11.92838 3.01098,-1.7503 5.11714,-1.95897 18.5,-1.83289 16.36912,0.15422 53.58247,-1.26153 73.60218,-2.80012 6.875,-0.52837 22.17501,-1.42048 34,-1.98247 31.02068,-1.47427 47.86323,-2.88401 61.50001,-5.14764 6.59999,-1.09556 17.08993,-2.76652 23.31097,-3.71325 7.29399,-1.11001 11.63902,-2.23996 12.23469,-3.18168 0.51506,-0.8143 0.93048,-15.79944 0.93903,-33.87247 0.0157,-33.24514 -0.0238,-32.80362 4.20849,-47.08789 2.65593,-8.96402 7.85154,-17 10.99125,-17 3.65451,0 5.82875,2.0761 9.2044,8.78895 7.08466,14.0886 7.60936,17.89143 7.62648,55.27484 0.008,18.38991 0.40363,34.04911 0.87825,34.79822 0.8915,1.40712 3.93152,2.19555 17.60644,4.5662 19.88119,3.44656 29.32773,4.88227 33.5,5.09143 2.475,0.12408 9.44999,0.51578 15.5,0.87046 6.04999,0.35467 26.75,1.55677 46,2.67134 19.25,1.11457 39.725,2.42814 45.5,2.91905 5.77499,0.49091 22.42499,1.64351 37,2.56133 14.57499,0.91781 27.75871,2.13476 29.29715,2.70432 3.78571,1.40155 5.3866,4.91135 6.77704,14.85804 1.0874,7.77888 0.98224,9.30673 -1.43118,20.7922 -1.43265,6.81801 -3.26508,13.40407 -4.07207,14.6357 -1.73427,2.64682 -9.17762,6.46321 -12.63666,6.47912 -3.40539,0.0157 -41.96901,7.14079 -56.93428,10.51934 -3.575,0.80709 -9.97799,1.90564 -14.22886,2.44122 -4.25088,0.53558 -9.87588,1.62629 -12.5,2.4238 -6.88609,2.09277 -22.76326,5.60444 -25.33914,5.60444 -1.20998,0 -3.82717,0.44358 -5.81599,0.98573 -1.9888,0.54215 -9.46602,2.1478 -16.61601,3.5681 -7.15,1.4203 -16.15,3.24763 -20,4.06073 -3.85001,0.81309 -10.15,2.0757 -14,2.80578 -14.0883,2.67161 -41.36098,8.28638 -44.62805,9.18782 -1.71194,0.47235 -2.31125,5.44135 -4.87166,40.39184 -0.93684,12.78834 -3.67363,44.82176 -5.6137,65.707 -0.64491,6.94269 -0.58175,7.24415 1.72198,8.22011 3.80413,1.61159 42.79842,8.03333 58.39143,9.61614 8.93125,0.90659 13.98127,2.91953 16.61947,6.62453 1.81103,2.54337 2.02117,3.91169 1.55665,10.13626 -0.51799,6.94122 -2.68391,18.38447 -4.14406,21.89458 -0.38864,0.93424 -2.888,2.42316 -5.55412,3.30871 -4.16908,1.38474 -9.82372,1.56688 -40.40242,1.30138 -28.90243,-0.25095 -35.65039,-0.0595 -36.06521,1.02308 -0.28067,0.73248 -0.51351,4.10748 -0.51742,7.5 -0.01,8.54514 -1.1369,19.66821 -1.99289,19.66821 -0.39094,0 -0.99766,-3.0375 -1.34829,-6.75 z"
         id="path3625"
         inkscape:connector-curvature="0" />
    </g>
  </g>
</svg>
