<?xml version="1.0" encoding="UTF-8" standalone="no"?>
<!-- Created with Inkscape (http://www.inkscape.org/) -->

<svg
   xmlns:dc="http://purl.org/dc/elements/1.1/"
   xmlns:cc="http://creativecommons.org/ns#"
   xmlns:rdf="http://www.w3.org/1999/02/22-rdf-syntax-ns#"
   xmlns:svg="http://www.w3.org/2000/svg"
   xmlns="http://www.w3.org/2000/svg"
   xmlns:sodipodi="http://sodipodi.sourceforge.net/DTD/sodipodi-0.dtd"
   xmlns:inkscape="http://www.inkscape.org/namespaces/inkscape"
   width="507.70486"
   height="363.49692"
   id="svg2"
   version="1.1"
   inkscape:version="0.48.4 r9939"
   sodipodi:docname="A6M.svg">
  <defs
     id="defs4" />
  <sodipodi:namedview
     id="base"
     pagecolor="#ffffff"
     bordercolor="#666666"
     borderopacity="1.0"
     inkscape:pageopacity="0.0"
     inkscape:pageshadow="2"
     inkscape:zoom="0.24748737"
     inkscape:cx="-45.679125"
     inkscape:cy="-111.62723"
     inkscape:document-units="px"
     inkscape:current-layer="layer1"
     showgrid="false"
     inkscape:window-width="555"
     inkscape:window-height="540"
     inkscape:window-x="0"
     inkscape:window-y="25"
     inkscape:window-maximized="0"
     fit-margin-top="0"
     fit-margin-left="0"
     fit-margin-right="0"
     fit-margin-bottom="0" />
  <metadata
     id="metadata7">
    <rdf:RDF>
      <cc:Work
         rdf:about="">
        <dc:format>image/svg+xml</dc:format>
        <dc:type
           rdf:resource="http://purl.org/dc/dcmitype/StillImage" />
      </cc:Work>
    </rdf:RDF>
  </metadata>
  <g
     inkscape:label="Layer 1"
     inkscape:groupmode="layer"
     id="layer1"
     transform="translate(-119.74055,-215.39926)">
    <g
       id="g3200"
       transform="translate(-12.121832,-84.852813)">
      <path
         style="fill:#d3d3d3"
         d="m 384.13403,663.11015 c -3.05867,-1.29792 -4.23414,-4.85283 -4.24229,-12.82973 -0.0105,-10.24362 0.70397,-9.96559 -41.49317,-16.14728 -19.25,-2.82004 -36.45526,-5.58967 -38.23391,-6.15473 -3.81656,-1.21248 -9.74742,-7.78128 -11.31551,-12.53263 -1.61772,-4.90175 1.06868,-12.39625 5.85872,-16.3446 3.77619,-3.11265 7.72564,-4.49476 40.1907,-14.06468 25.07582,-7.39175 24.1627,-6.91527 29.06462,-15.16642 l 4.19439,-7.0602 -0.62726,-12.60718 c -0.345,-6.93395 -0.90814,-19.80718 -1.25144,-28.60718 -0.45908,-11.76801 -1.00442,-16.43498 -2.06179,-17.64453 -0.79068,-0.9045 -2.8941,-4.69427 -4.67425,-8.42171 l -3.23665,-6.77718 -25.95381,-3.81224 c -14.2746,-2.09673 -32.47881,-4.68791 -40.45381,-5.75817 -13.79382,-1.85117 -72.99719,-10.33162 -109.5,-15.68509 -9.35,-1.37126 -18.575,-2.98211 -20.5,-3.57967 -5.0982,-1.58257 -16.81928,-11.5067 -20.63975,-17.47549 -1.81444,-2.83474 -4.22091,-8.59436 -5.34771,-12.79914 l -2.04873,-7.64506 2.15835,-9.19337 c 2.09334,-8.91647 2.35289,-9.39488 8.61786,-15.88426 3.55273,-3.67999 7.94502,-7.39581 9.76063,-8.25738 6.69195,-3.17553 33.97688,-7.2503 77.49935,-11.57385 16.775,-1.66643 33.65,-3.44191 37.5,-3.9455 18.82025,-2.46172 42.62558,-4.70443 64.5,-6.07656 12.44398,-0.78058 17.36037,-1.48081 20,-2.84856 l 3.5,-1.81355 0.5,-19.57658 c 0.48475,-18.9793 0.57353,-19.65476 2.90993,-22.13904 1.32546,-1.40935 4.02546,-2.84994 6,-3.20131 4.50542,-0.80175 7.83976,-3.73173 10.18961,-8.95393 2.42019,-5.3785 4.92928,-7.49788 9.6217,-8.12727 3.16844,-0.42497 4.44122,-0.0447 6.96847,2.0818 1.7006,1.43096 3.39012,3.78957 3.7545,5.24137 1.28467,5.11855 5.25579,9.06269 9.72871,9.66264 2.57793,0.34577 5.10925,1.53025 6.72966,3.14902 2.57014,2.56751 2.60267,2.79151 3.09742,21.32469 0.40005,14.98573 0.8202,19.18188 2.10179,20.99083 1.53913,2.17246 5.26678,2.69007 95.29156,13.23192 l 93.68978,10.97102 9.23682,4.37465 c 7.15515,3.38876 10.33536,5.59016 14.11128,9.76808 10.85525,12.01095 13.06653,24.34616 6.68735,37.30411 -4.00105,8.12729 -11.36595,16.17274 -15.61858,17.06182 -1.65,0.34496 -5.25,1.29429 -8,2.10962 -5.97603,1.7718 -56.94515,10.12199 -85,13.92541 -11,1.49128 -23.48557,3.57124 -27.74571,4.62214 -4.26014,1.05089 -15.50439,3.00666 -24.98724,4.34616 -9.48284,1.3395 -26.11272,3.91791 -36.95529,5.72981 l -19.71376,3.29435 -2.19332,4 c -1.20633,2.2 -3.18466,5.35 -4.39629,7 -1.99099,2.71133 -2.2662,4.6358 -2.86019,20 -0.36147,9.35 -0.9102,22.625 -1.21938,29.5 l -0.56216,12.5 4.31667,7.42653 4.31667,7.42653 17,4.93785 c 9.35,2.71581 21.95,6.39757 28,8.18168 6.05,1.78411 12.91996,3.77794 15.26658,4.43073 8.65949,2.40894 14.31729,10.5056 12.8408,18.37597 -0.92938,4.95402 -9.95988,13.36629 -15.22294,14.18078 -3.94334,0.61025 -5.36696,0.8631 -24.88444,4.41976 -6.05,1.10249 -18.2,3.19269 -27,4.64489 -10.09709,1.66625 -17.3476,3.39554 -19.6527,4.68728 l -3.6527,2.04691 -0.3473,8.33524 c -0.24903,5.97664 -0.80356,8.79139 -1.95972,9.94725 -1.95849,1.958 -8.54674,2.79098 -11.65212,1.47323 z"
         id="path3214"
         inkscape:connector-curvature="0" />
      <path
         style="fill:#ababab"
         d="m 382.89857,661.09552 c -1.6609,-1.6609 -2,-3.33333 -2,-9.864 l 0,-7.864 -3.75,-2.5176 c -3.32869,-2.23475 -7.79462,-3.10462 -39.75,-7.74244 -23.45679,-3.40438 -37.04527,-5.81101 -39,-6.90721 -3.81964,-2.14203 -9.50673,-10.52308 -9.47804,-13.96776 0.0381,-4.57405 3.58991,-10.85272 7.64954,-13.52236 3.99702,-2.62847 7.61619,-3.85276 38.7628,-13.11264 25.67656,-7.63363 24.43353,-6.97993 29.50504,-15.51656 l 4.32319,-7.27699 -0.63853,-12.10422 c -0.35119,-6.65732 -0.9131,-19.52922 -1.24868,-28.60422 -0.5034,-13.61308 -0.91295,-16.84993 -2.34072,-18.5 -0.95181,-1.1 -3.12533,-5.0375 -4.83004,-8.75 -1.70472,-3.7125 -3.23562,-6.76857 -3.40202,-6.79128 -0.1664,-0.0227 -12.45254,-1.84772 -27.30254,-4.0556 -14.85,-2.20787 -33.3,-4.85768 -41,-5.88846 -28.1602,-3.76972 -122.90259,-17.55891 -127.80426,-18.60114 -1.54234,-0.32795 -6.13451,-3.27532 -10.20482,-6.54972 -7.58232,-6.09966 -13.71753,-14.45124 -14.95957,-20.3638 -0.34662,-1.65 -1.11395,-4.63889 -1.70519,-6.64199 -0.84353,-2.85784 -0.70055,-5.33386 0.66409,-11.5 0.9565,-4.3219 2.31605,-8.98301 3.02123,-10.35801 1.47312,-2.87239 11.92839,-13.09601 15.16136,-14.82544 5.44263,-2.91147 30.54581,-6.5605 80.32716,-11.67647 18.425,-1.89351 37.325,-3.91616 42,-4.49478 12.53787,-1.55179 26.56046,-2.83201 44,-4.01708 24.90241,-1.6922 31.7532,-2.6743 35.05495,-5.02536 l 2.94505,-2.09706 0,-19.00883 0,-19.00883 2.92308,-2.92307 c 1.98354,-1.98355 3.92747,-2.92308 6.04796,-2.92308 3.67027,0 7.1691,-3.37282 9.99331,-9.6334 2.31729,-5.13687 5.39533,-7.3666 10.16926,-7.3666 2.89126,0 4.24823,0.66508 6.2775,3.07673 1.42389,1.69219 2.58889,3.71119 2.58889,4.48665 0,0.77546 1.2375,3.19885 2.75,5.38532 2.38165,3.44292 3.2626,3.98048 6.57692,4.01335 2.86559,0.0284 4.56122,0.77224 6.75,2.96103 l 2.92308,2.92307 0,17.70889 c 0,16.19483 0.17797,17.99685 2.08156,21.07693 1.14486,1.85242 2.38625,3.36803 2.75864,3.36803 0.37239,0 42.7692,4.92896 94.21513,10.95325 l 93.53804,10.95325 9.10234,4.49654 c 7.12518,3.51983 10.1442,5.70333 13.89884,10.05232 10.15319,11.76039 12.05458,23.0052 5.94529,35.16028 -6.0096,11.95672 -11.01503,16.60521 -20.03984,18.61076 -9.38712,2.08608 -67.66329,11.65801 -86.5,14.20773 -11.275,1.52617 -23.93163,3.62315 -28.12583,4.65995 -4.19421,1.0368 -17.01921,3.23323 -28.5,4.88094 -11.4808,1.64771 -27.17417,4.12548 -34.87417,5.50616 -7.7,1.38067 -15.21765,2.51223 -16.70589,2.51457 -2.29067,0.004 -3.32878,1.07078 -6.76509,6.95456 -2.23256,3.82267 -4.50241,7.22423 -5.04411,7.55902 -0.5417,0.33479 -0.97655,4.51965 -0.96632,9.29969 0.0102,4.78004 -0.53174,17.85663 -1.20436,29.0591 l -1.22295,20.36812 4.45436,8.38511 c 2.4499,4.61181 5.12936,8.56529 5.95436,8.78551 1.77399,0.47355 29.45094,8.3799 46.5,13.28346 6.6,1.89825 14.01561,4.43199 16.47913,5.63052 5.78194,2.813 9.02087,7.60607 9.02087,13.34939 0,3.74803 -0.60118,5.02666 -4.19813,8.92889 -5.76666,6.25608 -7.8404,7.11813 -22.50398,9.35481 -37.4824,5.7173 -57.04226,9.61316 -60.66959,12.08394 l -3.61463,2.46213 -0.007,7.75 c -0.008,9.3745 -1.62685,11.75 -8.00667,11.75 -2.66667,0 -4.66667,-0.66667 -6,-2 z"
         id="path3212"
         inkscape:connector-curvature="0" />
      <path
         style="fill:#939393"
         d="m 383.09857,660.89552 c -0.71827,-0.71827 -1.20615,-4.23087 -1.21531,-8.75 -0.0171,-8.42055 -0.12926,-8.69919 -4.82244,-11.97876 -2.87273,-2.00744 -8.37595,-3.07596 -39.5,-7.66943 -20.74129,-3.06112 -37.44762,-6.0035 -39.17644,-6.8999 -3.86723,-2.00517 -8.48581,-9.29236 -8.48581,-13.38889 0,-4.7124 2.32961,-9.44052 6.12918,-12.43966 3.43971,-2.71508 9.04516,-4.64571 39.87082,-13.73238 25.08387,-7.39412 24.14608,-6.90335 29.18512,-15.2736 4.25403,-7.0663 4.31415,-7.2943 4.26339,-16.16738 -0.0283,-4.95 -0.41569,-17.55 -0.86082,-28 -0.71876,-16.87373 -1.0506,-19.39168 -2.96523,-22.5 -1.18574,-1.925 -3.45902,-6.29242 -5.05172,-9.70539 -1.59271,-3.41296 -3.61018,-6.48332 -4.48328,-6.82301 -1.66086,-0.64619 -45.5015,-7.2346 -69.58746,-10.45767 -37.69536,-5.04421 -105.84602,-14.95391 -120.86502,-17.57483 -7.75946,-1.35407 -9.95229,-2.54629 -20.12844,-10.94358 -3.0668,-2.5307 -8.47246,-12.73187 -10.02309,-18.91481 -2.69054,-10.72826 -0.23182,-23.00987 6.08354,-30.38794 10.05676,-11.74906 16.18459,-13.16704 89.43301,-20.69468 18.425,-1.89351 37.325,-3.91616 42,-4.49478 11.61809,-1.43795 25.75136,-2.75765 43,-4.01513 27.49076,-2.00417 34.09766,-2.88542 37.52819,-5.0056 1.78445,-1.10286 3.51447,-3.0126 3.84448,-4.24388 0.33001,-1.23129 0.60617,-10.14776 0.61368,-19.81439 0.0133,-17.07011 0.0802,-17.63823 2.3281,-19.75 1.27295,-1.19587 3.57493,-2.17431 5.11552,-2.17431 2.01819,0 3.8889,-1.18785 6.69318,-4.25 2.14066,-2.3375 4.16539,-5.15 4.49941,-6.25 1.25918,-4.14675 4.5104,-6.5 8.98033,-6.5 4.94072,0 6.55334,1.3041 9.30508,7.52485 2.78461,6.29507 6.26578,9.47515 10.37226,9.47515 2.23085,0 4.10661,0.78287 5.54546,2.31445 2.05341,2.18576 2.17431,3.244 2.17431,19.03212 0,18.06388 0.85552,22.20715 5.16647,25.02102 1.66827,1.08892 28.98921,4.65376 95.83353,12.50435 l 93.5,10.98121 9.13387,4.5787 c 10.21582,5.12109 14.57643,9.51112 19.15673,19.286 3.13723,6.69519 3.41825,15.44714 0.70497,21.95565 -4.65832,11.17423 -13.36401,20.3265 -19.33467,20.3265 -1.13674,0 -3.10047,0.44737 -4.36385,0.99415 -2.72426,1.17904 -54.10702,9.63206 -81.79705,13.4565 -10.725,1.48129 -23.25934,3.57671 -27.85409,4.65649 -4.59475,1.07977 -16.29475,3.08382 -26,4.45344 -26.18965,3.69591 -58.30366,9.32545 -59.671,10.46024 -0.65956,0.54739 -3.23059,4.47914 -5.7134,8.73722 l -4.51421,7.74196 -0.84374,20.5 c -1.5012,36.47388 -1.59823,35.27498 3.59644,44.4355 l 4.5,7.93551 18.5,5.38595 c 10.175,2.96227 23.9,6.94965 30.5,8.86084 19.96854,5.78238 23.5,8.47863 23.5,17.9421 0,3.51642 -0.6442,5.59591 -2.47859,8.00092 -4.24933,5.57115 -8.36743,7.35968 -21.70248,9.42557 -6.77541,1.04967 -22.63199,3.69998 -35.23684,5.8896 -20.09042,3.48995 -23.42154,4.33457 -27,6.846 l -4.08209,2.86488 -0.29571,7.90918 c -0.16264,4.35005 -0.78024,8.493 -1.37245,9.20657 -1.35748,1.63567 -10.02102,1.7082 -11.63184,0.0974 z"
         id="path3210"
         inkscape:connector-curvature="0" />
      <path
         style="fill:#6a6a6a"
         d="m 383.55356,660.26678 c -1.23378,-1.36331 -1.65499,-3.75913 -1.65499,-9.41349 l 0,-7.58475 -3.90417,-2.87116 c -3.69512,-2.71742 -5.85041,-3.1571 -40.25,-8.21099 -19.99021,-2.9369 -37.60898,-5.98363 -39.15283,-6.7705 -3.44738,-1.75707 -8.70089,-9.79461 -8.67104,-13.26615 0.0373,-4.33238 3.53398,-10.61666 7.15134,-12.85231 3.64603,-2.25337 8.57706,-3.88706 38.3267,-12.69795 10.45,-3.09496 20.55424,-6.38696 22.45386,-7.31558 2.35239,-1.14994 4.83824,-3.92075 7.79485,-8.68838 l 4.34099,-7 -0.54656,-12.5 c -0.3006,-6.875 -0.82362,-19.925 -1.16227,-29 -0.51218,-13.72556 -0.91102,-16.8363 -2.37198,-18.5 -0.96596,-1.1 -2.99664,-4.80597 -4.51264,-8.23549 -1.51599,-3.42952 -3.37107,-6.74566 -4.1224,-7.3692 -1.24655,-1.03455 -33.81782,-6.18197 -68.87385,-10.88453 -13.57619,-1.82116 -83.6116,-11.84443 -112,-16.02912 -7.7,-1.13505 -15.28332,-2.48782 -16.85182,-3.00617 -8.07648,-2.66904 -21.41345,-17.36681 -23.11683,-25.47549 -0.34662,-1.65 -1.11395,-4.63889 -1.70519,-6.64199 -0.84353,-2.85784 -0.70055,-5.33386 0.66409,-11.5 0.9565,-4.3219 2.31903,-8.98914 3.02786,-10.37164 1.46243,-2.85229 10.93699,-12.0892 14.18115,-13.82542 5.34843,-2.86239 31.65479,-6.70957 76.30074,-11.1586 16.775,-1.67166 33.65,-3.4514 37.5,-3.95499 18.68312,-2.44378 42.63338,-4.70542 64.00508,-6.04402 17.74998,-1.11176 21.71785,-1.9247 25.15505,-5.15377 2.29284,-2.15402 2.33987,-2.57747 2.33987,-21.06934 0,-18.70269 0.0219,-18.89305 2.45455,-21.32568 1.60016,-1.60017 3.60163,-2.46082 5.75,-2.47258 2.58692,-0.0142 3.97643,-0.83852 6.46279,-3.83428 1.74204,-2.09895 3.84144,-5.42961 4.66534,-7.40149 1.75189,-4.19286 4.19265,-5.7462 9.029,-5.7462 2.58265,0 4.03339,0.68679 5.56574,2.63486 1.13992,1.44917 2.07258,3.23602 2.07258,3.97076 0,0.73475 1.43663,3.37406 3.1925,5.86514 2.84501,4.03625 3.61188,4.52924 7.04546,4.52924 2.75745,0 4.55084,0.69789 6.30749,2.45455 2.42184,2.42183 2.4546,2.6917 2.45829,20.25 0.003,16.03733 0.20152,18.11986 2.00572,21.07903 1.10109,1.80597 2.56191,3.49556 3.24626,3.75465 0.68436,0.25909 43.34029,5.39794 94.79097,11.41967 l 93.54668,10.9486 9.06905,4.48009 c 10.77888,5.32475 16.64484,11.48027 20.5967,21.61341 2.16461,5.55038 2.42021,7.31272 1.74956,12.06293 -1.31003,9.2789 -9.11689,22.37828 -15.23896,25.56994 -1.79835,0.93754 -5.06972,2.10463 -7.26972,2.59353 -9.10872,2.02421 -67.47546,11.61962 -86.5,14.22048 -11.275,1.54141 -23.93163,3.64176 -28.12583,4.66743 -4.19421,1.02568 -17.01921,3.213 -28.5,4.86071 -11.4808,1.64771 -27.17417,4.12548 -34.87417,5.50616 -7.7,1.38067 -15.23112,2.51223 -16.73581,2.51457 -2.1328,0.003 -3.32176,0.94102 -5.39418,4.25425 -1.4621,2.3375 -3.94349,6.17566 -5.51419,8.52924 -2.56818,3.84823 -2.85395,5.10723 -2.83723,12.5 0.0102,4.52142 -0.53174,17.38641 -1.20436,28.58888 l -1.22295,20.36812 4.45436,8.48178 c 2.4499,4.66498 5.35436,8.85421 6.45436,9.3094 1.1,0.45519 9.425,2.939 18.5,5.51957 46.78952,13.30511 47.98755,13.74421 51.00591,18.6947 1.15612,1.89619 1.98818,5.03379 1.99035,7.50543 0.003,3.49055 -0.65089,4.97171 -3.67111,8.31474 -5.16938,5.72188 -7.5536,6.68436 -22.02726,8.89207 -7.03884,1.07365 -22.76263,3.67894 -34.94176,5.78953 -19.2367,3.33364 -22.68294,4.21102 -26.25,6.68299 l -4.10613,2.84555 0,7.70901 c 0,6.19838 -0.35836,8.03332 -1.82874,9.364 -2.47142,2.2366 -8.42394,2.13825 -10.51627,-0.17375 z"
         id="path3208"
         inkscape:connector-curvature="0" />
      <path
         style="fill:#525252"
         d="m 385.59178,661.43039 c -2.572,-0.71659 -3.69321,-4.4407 -3.69321,-12.26708 0,-6.77742 -0.0138,-6.81118 -3.82966,-9.33637 -3.3834,-2.23902 -7.8989,-3.1337 -38.75,-7.67775 -19.20619,-2.82887 -36.30861,-5.58361 -38.00539,-6.12165 -3.84082,-1.2179 -7.84019,-5.31006 -9.81871,-10.04652 -1.98089,-4.74214 -0.5658,-10.11594 3.81832,-14.50006 3.36519,-3.36519 2.95822,-3.21965 43.08544,-15.40815 23.53433,-7.14848 22.38949,-6.51809 27.40262,-15.0887 l 4.32174,-7.38859 -0.71654,-15.5 c -0.3941,-8.525 -1.00708,-21.86708 -1.36218,-29.64907 -0.49349,-10.81466 -1.0215,-14.58526 -2.24056,-16 -0.87721,-1.01801 -2.98338,-4.87199 -4.68037,-8.5644 -2.25649,-4.9098 -3.70865,-6.85139 -5.40508,-7.22683 -3.08015,-0.68166 -47.65108,-7.20118 -65.31963,-9.55449 -13.66346,-1.81987 -75.01026,-10.60827 -109,-15.6151 -9.35,-1.37729 -18.59502,-2.92094 -20.5445,-3.43034 -4.82404,-1.26053 -17.06684,-11.76767 -20.46204,-17.56114 -1.52325,-2.59922 -3.55267,-7.87723 -4.50982,-11.7289 -1.68744,-6.79037 -1.67896,-7.26321 0.27922,-15.56997 1.90613,-8.08598 2.36245,-8.92435 8.12832,-14.93379 3.35985,-3.50178 7.23382,-6.94767 8.60882,-7.65754 5.60571,-2.89402 34.83019,-7.18008 82,-12.02611 18.975,-1.94941 38.1,-3.9902 42.5,-4.53509 12.0916,-1.49739 26.31167,-2.79281 43.5,-3.96277 24.92157,-1.69634 30.51766,-2.50482 33.87244,-4.89363 l 3.00921,-2.14274 0.30917,-19.37168 c 0.34974,-21.91324 0.72921,-23.06027 8.01435,-24.22521 2.86715,-0.45847 4.76381,-1.6653 7.3313,-4.66484 1.90494,-2.2255 3.46353,-4.57967 3.46353,-5.2315 0,-2.29826 4.06076,-6.3093 7.05283,-6.96646 3.91609,-0.86012 7.46339,1.41799 9.39076,6.03084 2.81053,6.72654 6.24238,10.1753 10.7235,10.77635 7.85544,1.05363 8.26423,2.15097 8.83291,23.71027 0.49498,18.76542 0.52601,18.98167 3.09152,21.54372 2.56865,2.56516 3.4162,2.68457 95.99566,13.52477 l 93.40413,10.93675 8.87043,4.21545 c 6.91993,3.28852 9.99932,5.46608 14.00435,9.90307 6.821,7.55667 10.12769,15.79716 9.35258,23.30722 -1.09758,10.63457 -11.29069,25.60504 -18.44346,27.08763 -1.52636,0.31638 -5.02521,1.24233 -7.77521,2.05766 -5.97603,1.7718 -56.94515,10.12199 -85,13.92541 -11,1.49128 -23.43163,3.55747 -27.62583,4.59153 -4.19421,1.03406 -17.01921,3.23719 -28.5,4.89585 -11.4808,1.65866 -28.21471,4.28105 -37.18648,5.82753 l -16.31231,2.81178 -2.5629,4.43289 c -1.40959,2.43808 -3.58237,6.00788 -4.8284,7.93288 -2.03225,3.13966 -2.3267,5.14725 -2.86001,19.5 -0.32698,8.8 -0.8896,22.0931 -1.25027,29.54022 l -0.65577,13.54023 4.18357,7.62267 c 2.30096,4.19247 4.7269,8.04805 5.39098,8.56797 1.13732,0.89043 15.95904,5.33925 36.18495,10.86111 18.3369,5.00616 28.65189,8.60582 31.48039,10.98584 3.46348,2.91433 5.44599,8.26647 4.5586,12.30674 -0.81246,3.69911 -9.23236,11.66415 -13.09952,12.39186 -1.60435,0.3019 -6.067,1.07108 -9.917,1.70929 -3.85,0.6382 -11.5,1.9953 -17,3.01578 -5.5,1.02048 -17.2,3.03884 -26,4.48525 -12.57633,2.0671 -16.88917,3.18978 -20.1554,5.24667 l -4.1554,2.61685 -0.3446,8.25522 c -0.18953,4.54037 -0.80866,8.71907 -1.37585,9.28601 -1.27236,1.27179 -6.33919,2.08195 -8.77554,1.40316 z"
         id="path3206"
         inkscape:connector-curvature="0" />
      <path
         style="fill:#2a2a2a"
         d="m 384.09857,659.89552 c -0.71827,-0.71827 -1.20615,-4.23087 -1.21531,-8.75 -0.008,-4.1525 -0.34592,-8.00127 -0.75,-8.55281 -0.40408,-0.55155 -2.53469,-2.18577 -4.73469,-3.6316 -3.60001,-2.36592 -7.5999,-3.15335 -40,-7.8745 -19.8,-2.88514 -37.22,-5.86592 -38.71111,-6.62397 -3.06564,-1.55849 -7.78889,-8.94743 -7.78889,-12.18474 0,-4.11603 3.16996,-10.1243 6.39228,-12.11581 3.41324,-2.10949 9.0937,-3.98943 36.60772,-12.11526 28.31498,-8.36239 26.97715,-7.6555 32.50995,-17.17775 l 4.74818,-8.17187 -0.63633,-12.05085 c -0.34998,-6.62796 -0.9109,-19.47584 -1.24648,-28.55084 -0.5052,-13.6616 -0.90966,-16.84405 -2.3512,-18.5 -0.95757,-1.1 -3.2087,-5.23507 -5.00252,-9.18904 -1.79381,-3.95397 -3.995,-7.49231 -4.89154,-7.86299 -1.69376,-0.7003 -44.24009,-7.1683 -68.63006,-10.43331 -19.39682,-2.5966 -89.94765,-12.64263 -101.5,-14.45302 -5.225,-0.81882 -12.875,-1.98397 -17,-2.58922 -10.50906,-1.54198 -12.4052,-2.30506 -19.14268,-7.70379 -6.12753,-4.90997 -12.2161,-13.48526 -13.32597,-18.76863 -0.34662,-1.65 -1.11395,-4.63889 -1.70519,-6.64199 -0.84353,-2.85784 -0.70055,-5.33386 0.66409,-11.5 0.9565,-4.3219 2.32319,-8.99718 3.03709,-10.38949 1.45029,-2.82845 9.95044,-11.08349 13.20745,-12.82658 2.37499,-1.27106 24.34231,-5.41888 37.26521,-7.03634 4.675,-0.58514 22.225,-2.4316 39,-4.10325 16.775,-1.67166 33.65,-3.4514 37.5,-3.95499 18.97113,-2.48146 43.53053,-4.80777 63.82559,-6.04569 18.02151,-1.09923 22.29586,-1.99473 26.02721,-5.45283 l 2.6472,-2.45334 0,-19.04775 c 0,-17.71442 0.14,-19.18775 2,-21.04775 1.19755,-1.19755 3.33333,-2 5.32317,-2 2.79046,0 3.99275,-0.82311 7.5,-5.13462 2.29726,-2.82404 4.17683,-5.74904 4.17683,-6.5 0,-5.01277 10.42626,-7.45029 13.4433,-3.14287 0.85618,1.22238 1.5567,2.79633 1.5567,3.49768 0,0.70135 1.61721,3.52622 3.59381,6.27749 3.25878,4.536 3.95794,5.00232 7.5,5.00232 2.57286,0 4.58887,0.68268 5.90619,2 1.84805,1.84805 2,3.33333 2,19.54966 0,18.26746 0.49267,20.87126 4.66319,24.64554 1.51338,1.36958 19.71694,3.78041 95.89832,12.70052 l 94.03037,11.01004 9.0448,4.46812 c 10.64655,5.25938 15.66268,10.53463 19.61298,20.62612 2.17673,5.5607 2.4307,7.30548 1.75753,12.07393 -1.27345,9.02045 -8.60176,21.62005 -14.30434,24.59352 -1.76157,0.91852 -5.00285,2.07019 -7.20285,2.55925 -8.43505,1.87511 -67.9005,11.65271 -86.5,14.22275 -10.725,1.48195 -23.20539,3.56438 -27.7342,4.62762 -4.52881,1.06324 -17.57881,3.2821 -29,4.93081 -24.94603,3.6011 -53.68113,8.51274 -55.16374,9.42905 -0.58954,0.36435 -2.88546,3.76773 -5.10206,7.56307 -2.2166,3.79534 -4.47339,7.17454 -5.01509,7.50933 -0.5417,0.33479 -0.97655,4.51965 -0.96632,9.29969 0.0102,4.78004 -0.53245,17.86834 -1.20595,29.08511 l -1.22454,20.39413 4.61255,8.60587 c 2.62261,4.89313 5.62354,9.12514 6.95595,9.80951 1.28887,0.66201 9.7684,3.30327 18.8434,5.86947 29.09755,8.22814 40.40788,11.60437 44.39751,13.25306 7.96077,3.28972 10.19228,13.15463 4.45405,19.69012 -4.55811,5.19139 -7.29464,6.26267 -21.55367,8.43764 -7.03884,1.07365 -22.7999,3.68522 -35.02457,5.80348 -20.15171,3.49183 -22.62561,4.13997 -26.5,6.9427 l -4.27332,3.09132 -0.29571,7.8069 c -0.16264,4.2938 -0.78024,8.39072 -1.37245,9.10429 -1.35375,1.63117 -8.03054,1.69868 -9.63184,0.0974 z"
         id="path3204"
         inkscape:connector-curvature="0" />
      <path
         style="fill:#000000"
         d="m 384.61229,659.47591 c -0.39255,-0.39255 -0.72061,-4.12622 -0.72903,-8.29706 -0.008,-4.17083 -0.35576,-8.11878 -0.77186,-8.77321 -0.4161,-0.65443 -2.54671,-2.40875 -4.73469,-3.89847 -3.63269,-2.47339 -7.10426,-3.1733 -39.97814,-8.0601 -19.8,-2.94333 -37.2547,-5.86323 -38.78822,-6.48868 -3.24893,-1.32508 -7.71178,-8.36607 -7.71178,-12.1668 0,-1.44552 0.76312,-4.2285 1.69583,-6.1844 2.26664,-4.7532 7.49124,-7.16591 29.30417,-13.53261 9.625,-2.80932 22.42773,-6.76637 28.45051,-8.79345 l 10.9505,-3.68561 4.54422,-7.5 4.54421,-7.5 -0.0426,-10 c -0.0234,-5.5 -0.4097,-18.55 -0.85837,-29 -0.74319,-17.31002 -1.01826,-19.31131 -3.09253,-22.5 -1.25223,-1.925 -3.52262,-6.33495 -5.04531,-9.79988 -1.52269,-3.46494 -3.60737,-6.74883 -4.63263,-7.29753 -1.74617,-0.93451 -38.74374,-6.66355 -70.318,-10.88866 -20.53297,-2.74762 -90.46799,-12.72004 -101.5,-14.47344 -5.225,-0.83045 -13.26504,-2.05269 -17.86675,-2.71609 -6.05931,-0.87353 -9.50664,-1.96413 -12.5,-3.9545 -10.0897,-6.70895 -16.29078,-15.64551 -18.68077,-26.92142 -1.31055,-6.18313 -0.19876,-14.16388 2.98798,-21.44848 1.99165,-4.55274 9.45669,-11.83248 14.29961,-13.94467 6.83751,-2.9821 26.78591,-5.8187 77.75993,-11.05724 18.425,-1.89351 37.325,-3.91616 42,-4.49478 11.61809,-1.43795 25.75136,-2.75765 43,-4.01513 27.94239,-2.0371 34.07162,-2.86933 37.71475,-5.12091 1.88706,-1.16626 3.84822,-3.2178 4.35814,-4.55898 0.50991,-1.34117 0.92711,-10.47705 0.92711,-20.30196 0,-19.759 0.36737,-21.00633 6.18695,-21.00633 3.52784,0 9.9278,-6.17169 12.40751,-11.96495 1.83422,-4.28524 2.92069,-5.00037 7.62624,-5.01974 3.52786,-0.0145 3.85418,0.26682 6.29577,5.42793 3.73952,7.90468 7.47267,11.55676 11.81331,11.55676 6.32066,0 6.67003,1.06415 6.67177,20.32143 10e-4,14.37854 0.28655,17.73747 1.75,20.60749 3.53299,6.92862 -1.26624,6.07056 100.31105,17.93472 l 93.56259,10.92805 8.99667,4.5184 c 10.29545,5.17068 14.67064,9.69333 18.74737,19.37922 3.96944,9.43096 2.27734,17.82102 -6.16783,30.58254 -2.61556,3.95239 -8.53438,7.72815 -12.11451,7.72815 -1.09603,0 -3.02646,0.44737 -4.28984,0.99415 -2.72426,1.17904 -54.10702,9.63206 -81.79705,13.4565 -10.725,1.48129 -23.25934,3.57671 -27.85409,4.65649 -4.59475,1.07977 -16.29475,3.08382 -26,4.45344 -9.70525,1.36961 -26.79809,4.05378 -37.98408,5.96481 -11.18599,1.91104 -20.68824,3.47461 -21.1161,3.47461 -0.42786,0 -3.31318,4.27092 -6.41183,9.49093 l -5.6339,9.49092 0.0105,8.75908 c 0.006,4.81749 -0.52894,17.4192 -1.18827,28.0038 l -1.19879,19.24472 4.29618,8.25528 c 5.1104,9.81983 6.3776,11.37972 9.90397,12.19155 3.24494,0.74703 30.33977,8.50167 46.1764,13.21584 15.32966,4.56327 18.86957,6.19497 20.56893,9.48118 2.31966,4.48572 1.82473,10.24541 -1.18805,13.82589 -3.9341,4.67542 -7.50449,6.06618 -20.77892,8.0939 -6.65608,1.01675 -22.37054,3.63108 -34.92102,5.80963 -22.84853,3.96611 -24.03535,4.33808 -31.68094,9.92925 -0.275,0.20111 -0.725,4.26768 -1,9.03684 l -0.5,8.67119 -4.03628,0.29705 c -2.21995,0.16338 -4.35745,-0.0241 -4.75,-0.41666 z"
         id="path3202"
         inkscape:connector-curvature="0" />
    </g>
  </g>
</svg>
