<?xml version="1.0" encoding="UTF-8" standalone="no"?>
<!-- Created with Inkscape (http://www.inkscape.org/) -->

<svg
   xmlns:dc="http://purl.org/dc/elements/1.1/"
   xmlns:cc="http://creativecommons.org/ns#"
   xmlns:rdf="http://www.w3.org/1999/02/22-rdf-syntax-ns#"
   xmlns:svg="http://www.w3.org/2000/svg"
   xmlns="http://www.w3.org/2000/svg"
   xmlns:sodipodi="http://sodipodi.sourceforge.net/DTD/sodipodi-0.dtd"
   xmlns:inkscape="http://www.inkscape.org/namespaces/inkscape"
   width="515.65869"
   height="354.63864"
   id="svg2"
   version="1.1"
   inkscape:version="0.48.4 r9939"
   sodipodi:docname="B5N.svg">
  <defs
     id="defs4" />
  <sodipodi:namedview
     id="base"
     pagecolor="#ffffff"
     bordercolor="#666666"
     borderopacity="1.0"
     inkscape:pageopacity="0.0"
     inkscape:pageshadow="2"
     inkscape:zoom="0.24748737"
     inkscape:cx="122.40161"
     inkscape:cy="-50.522487"
     inkscape:document-units="px"
     inkscape:current-layer="layer1"
     showgrid="false"
     inkscape:window-width="759"
     inkscape:window-height="594"
     inkscape:window-x="0"
     inkscape:window-y="25"
     inkscape:window-maximized="0"
     fit-margin-top="0"
     fit-margin-left="0"
     fit-margin-right="0"
     fit-margin-bottom="0" />
  <metadata
     id="metadata7">
    <rdf:RDF>
      <cc:Work
         rdf:about="">
        <dc:format>image/svg+xml</dc:format>
        <dc:type
           rdf:resource="http://purl.org/dc/dcmitype/StillImage" />
      </cc:Work>
    </rdf:RDF>
  </metadata>
  <g
     inkscape:label="Layer 1"
     inkscape:groupmode="layer"
     id="layer1"
     transform="translate(-114.98298,-201.15885)">
    <g
       id="g3257"
       transform="translate(4.0406082,-76.771593)">
      <path
         style="fill:#d3d3d3"
         d="m 365.93932,631.7628 c -1.26326,-0.50694 -2.73754,-2.18593 -3.27618,-3.73108 -0.92366,-2.64963 -1.47535,-2.87556 -9.70317,-3.97377 -4.79811,-0.64042 -16.37383,-2.51019 -25.72383,-4.15504 -9.35,-1.64484 -21.023,-3.68051 -25.93999,-4.5237 -8.00569,-1.37286 -9.35032,-1.9268 -12.86639,-5.3005 -12.12938,-11.6383 -7.25739,-25.52307 10.80638,-30.79737 2.75,-0.80295 9.275,-3.00625 14.5,-4.89623 5.225,-1.88997 16.852,-6.01957 25.83778,-9.17689 l 16.33778,-5.74057 -0.63004,-4.57818 c -0.703,-5.10833 -2.02325,-12.35055 -4.02486,-22.07819 -0.73561,-3.575 -2.10381,-10.775 -3.04045,-16 -0.93663,-5.225 -2.31751,-11.075 -3.06862,-13 -0.7511,-1.925 -2.76079,-9.125 -4.46597,-16 -3.25056,-13.10565 -7.74593,-29.13364 -8.33686,-29.72458 -0.19059,-0.19059 -9.29303,-1.69377 -20.22764,-3.34041 -18.84833,-2.83836 -29.36595,-4.52339 -42.79607,-6.85635 -3.25322,-0.56513 -7.97822,-1.67384 -10.5,-2.46381 -2.52178,-0.78997 -7.58661,-1.68119 -11.25518,-1.98049 -3.66857,-0.29931 -9.74357,-1.22312 -13.5,-2.05292 -10.97213,-2.42377 -21.18361,-4.41886 -30.82987,-6.02344 -36.18753,-6.01953 -37.37709,-6.24722 -48.5,-9.28298 -13.92126,-3.79951 -20.47546,-7.30662 -27.81124,-14.88164 -7.88595,-8.14312 -11.6184,-13.98058 -14.33774,-22.42386 -2.77995,-8.63148 -2.03165,-16.03962 2.21189,-21.89766 3.76917,-5.20318 13.94895,-10.07186 21.05899,-10.07186 4.31832,0 13.60595,-0.77528 48.3781,-4.03836 5.5,-0.51613 20.35,-1.82967 33,-2.91898 12.65,-1.08931 27.275,-2.45575 32.5,-3.03653 5.225,-0.58078 15.80001,-1.4831 23.5,-2.00516 7.7,-0.52205 19.17501,-1.3944 25.5,-1.93855 6.325,-0.54414 17.80001,-1.47351 25.5,-2.06525 7.7,-0.59174 15.9125,-1.31075 18.25,-1.5978 l 4.25,-0.52192 0,-19.42295 0,-19.42295 2.78245,-3.11409 c 2.12394,-2.37711 3.87123,-3.23681 7.38311,-3.63265 4.59163,-0.51755 4.60166,-0.52716 5.09311,-4.88726 0.9009,-7.99275 5.7706,-12.07213 11.36704,-9.52223 2.80725,1.27907 5.37429,6.57745 5.37429,11.09256 0,2.57785 0.37936,3.03212 2.53213,3.03212 3.72074,0 9.14803,2.53386 10.38739,4.8496 0.66998,1.25189 1.08048,9.56744 1.08048,21.88771 l 0,19.86879 18.75,1.75541 c 17.51016,1.63934 35.09536,3.5652 65.25,7.14591 6.875,0.81637 18.80001,2.17341 26.5,3.01563 7.7,0.84223 18.95,2.18039 25,2.97368 11.4256,1.49817 41.22427,4.66399 62,6.58691 23.70321,2.19388 30.77889,4.9148 34.58688,13.30027 2.51517,5.53857 2.38312,10.0267 -0.5314,18.06199 -4.61214,12.71563 -7.79347,17.62221 -16.17166,24.94165 -10.08942,8.81443 -17.2862,12.06571 -32.22968,14.56035 -6.40978,1.07004 -15.92914,2.67543 -21.15414,3.56752 -5.225,0.8921 -14.675,2.28054 -21,3.08543 -6.32499,0.80488 -13.07499,1.89646 -15,2.42571 -1.925,0.52926 -5.3,0.96102 -7.5,0.95947 -2.19999,-0.002 -6.925,0.66277 -10.5,1.47627 -6.53733,1.4876 -16.06421,3.02394 -41,6.61182 -7.425,1.06835 -17.55,2.61057 -22.5,3.42717 -8.94656,1.47591 -31.03111,4.47545 -33.06349,4.49072 -1.09399,0.008 -2.71357,5.29074 -9.04691,29.50799 -4.29293,16.41517 -5.8697,23.10702 -8.01126,34 -0.86504,4.4 -1.92759,9.8 -2.36121,12 -0.43363,2.2 -1.73564,8.5 -2.89336,14 -1.15772,5.5 -2.10918,10.4594 -2.11436,11.02089 -0.0202,2.19463 8.67071,5.73316 54.49059,22.18589 11.56509,4.15272 15.72409,7.45024 17.52948,13.89848 2.50481,8.9463 -4.16812,18.6863 -14.91687,21.7731 -5.36298,1.54013 -8.87357,2.11297 -28.11261,4.58725 -4.675,0.60124 -10.40438,1.52604 -12.73199,2.05512 -2.32759,0.52908 -7.36788,1.25341 -11.20062,1.60963 -6.53186,0.60707 -7.03129,0.82735 -7.96799,3.51438 -1.43104,4.10506 -6.09367,5.73403 -10.89621,3.80678 z"
         id="path3271"
         inkscape:connector-curvature="0" />
      <path
         style="fill:#ababab"
         d="m 364.73614,629.81128 c -1.1,-1.1 -2,-2.9 -2,-4 0,-1.71093 -0.68653,-2.00862 -4.75,-2.05961 -2.6125,-0.0328 -6.775,-0.44402 -9.25,-0.91385 -4.13924,-0.78575 -29.55857,-5.22225 -48.32123,-8.43362 -6.5731,-1.12504 -8.38201,-1.87759 -11.33532,-4.71579 -4.69693,-4.51387 -6.34477,-7.91455 -6.33686,-13.07747 0.0103,-6.71781 4.12303,-11.6501 12.49341,-14.98302 6.74425,-2.68542 26.82275,-9.636 30,-10.3851 1.65,-0.38902 3.45,-1.01937 4,-1.40077 0.55001,-0.3814 6.625,-2.63026 13.5,-4.99747 6.875,-2.36721 12.85846,-4.62405 13.29655,-5.01521 0.95734,-0.85474 -0.0444,-7.15763 -5.88338,-37.01809 -0.80661,-4.125 -1.87399,-9.81967 -2.37195,-12.65482 -0.49796,-2.83514 -1.37683,-5.98514 -1.95304,-7 -0.90029,-1.58562 -3.84448,-12.4342 -10.88144,-40.09518 -0.8745,-3.4375 -2.06626,-6.25406 -2.64836,-6.25902 -1.31685,-0.0112 -38.04265,-5.54631 -49.55837,-7.46914 -18.33975,-3.06227 -20.90929,-3.57855 -25.00829,-5.02476 -2.33374,-0.8234 -6.09909,-1.51362 -8.36744,-1.53384 -2.26835,-0.0202 -7.27427,-0.71601 -11.12427,-1.54622 -3.85,-0.83021 -9.68914,-1.9463 -12.97588,-2.4802 -3.28673,-0.53389 -7.33673,-1.38053 -9,-1.88141 -1.66327,-0.50087 -7.52413,-1.59781 -13.02413,-2.43762 -10.41248,-1.58993 -25.05904,-4.03055 -34.5,-5.74889 -10.14529,-1.84654 -24.45113,-6.20976 -30,-9.14988 -7.85968,-4.16452 -18.21194,-15.3426 -22.77541,-24.59224 -3.39535,-6.88198 -3.72164,-8.27162 -3.69128,-15.72061 0.0324,-7.95457 0.13367,-8.29378 3.81695,-12.78874 2.08101,-2.53958 4.33337,-4.61743 5.00525,-4.61743 0.67189,0 2.98691,-0.9 5.14449,-2 2.29994,-1.17257 5.89718,-2 8.69502,-2 4.25301,0 13.58366,-0.78005 48.30498,-4.03836 5.5,-0.51613 20.35,-1.82967 33,-2.91898 12.65,-1.08931 27.275,-2.45575 32.5,-3.03653 5.225,-0.58078 15.80001,-1.4829 23.5,-2.00471 7.7,-0.52181 19.4,-1.41584 26,-1.98674 12.59842,-1.08975 48.35508,-4.01468 49.07865,-4.01468 0.23174,0 0.42135,-9.185 0.42135,-20.41111 l 0,-20.4111 3.07673,-2.5889 c 2.26597,-1.90668 4.20968,-2.58889 7.37617,-2.58889 l 4.29944,0 0.45482,-5.4845 c 0.54855,-6.61479 2.77171,-9.5155 7.29284,-9.5155 4.52115,0 6.74429,2.90071 7.29285,9.5155 l 0.45481,5.4845 3.62617,0.004 c 1.9944,0.002 5.08867,0.89544 6.87617,1.9853 l 3.25,1.9816 0,21.5147 0,21.5147 3.70699,0 c 5.98351,0 42.8409,3.80881 82.29301,8.50408 6.875,0.81821 18.80001,2.17675 26.5,3.01897 7.7,0.84223 18.95,2.18039 25,2.97368 11.03337,1.44674 39.99577,4.5257 61.5,6.538 23.0576,2.15767 29.11384,4.34777 32.98025,11.92655 3.62311,7.10189 2.23863,15.23892 -5.02889,29.55631 -2.6635,5.24724 -5.16341,8.27202 -10.95136,13.25065 -10.23465,8.80357 -16.87821,11.84956 -30.97605,14.20213 -6.33817,1.05768 -15.79895,2.65296 -21.02395,3.54505 -5.225,0.8921 -14.675,2.28054 -21,3.08543 -6.325,0.80488 -13.075,1.89646 -15,2.42571 -1.925,0.52926 -5.3,0.96102 -7.5,0.95947 -2.2,-0.002 -6.925,0.66277 -10.5,1.47627 -6.51359,1.4822 -15.80246,2.98143 -41,6.61742 -7.425,1.07143 -17.325,2.58662 -22,3.3671 -4.675,0.78048 -14.8387,2.19777 -22.586,3.14954 l -14.08599,1.73049 -1.02134,4.58658 c -0.56173,2.52261 -3.16462,12.68657 -5.78421,22.58657 -6.19497,23.41216 -8.55812,33.62245 -11.45666,49.5 -0.45182,2.475 -1.77223,9 -2.93424,14.5 -1.162,5.5 -2.11697,10.29305 -2.12215,10.65122 -0.0169,1.16715 6.31396,4.32942 14.99059,7.48785 4.675,1.70178 17.09591,6.30417 27.60203,10.22753 10.50612,3.92337 19.58409,7.1334 20.17328,7.1334 1.98687,0 7.48627,5.38181 8.86066,8.67119 1.89236,4.52906 1.70868,7.73291 -0.71579,12.48527 -2.78262,5.45439 -6.39595,8.44633 -12.42018,10.28425 -4.79713,1.46355 -8.73735,2.11188 -27.5,4.5249 -4.675,0.60124 -10.49558,1.55043 -12.93461,2.10931 -2.43904,0.55889 -7.95154,1.28736 -12.25,1.61884 -6.72323,0.51845 -7.81539,0.86145 -7.81539,2.45446 0,2.81646 -3.6309,5.85178 -7,5.85178 -1.66667,0 -3.88888,-0.88889 -5,-2 z"
         id="path3269"
         inkscape:connector-curvature="0" />
      <path
         style="fill:#929292"
         d="m 364.98164,629.65678 c -0.68502,-0.68502 -1.2455,-1.9655 -1.2455,-2.8455 0,-2.76532 -2.23543,-4 -7.24216,-4 -2.66319,0 -8.08569,-0.65726 -12.05,-1.46058 -3.96431,-0.80333 -11.70784,-2.16109 -17.20784,-3.01727 -18.39106,-2.8629 -32.97708,-5.68823 -35.41889,-6.86069 -1.33038,-0.6388 -3.69288,-2.91648 -5.25,-5.0615 -3.67915,-5.06828 -3.9896,-13.16427 -0.68284,-17.80817 1.96687,-2.76223 12.63873,-8.7891 15.56634,-8.791 0.66803,-4.3e-4 6.06803,-1.76641 12,-3.92439 5.93196,-2.15798 17.53539,-6.28055 25.78539,-9.16126 8.25,-2.88071 15.5625,-5.67019 16.25,-6.19884 1.48248,-1.13996 1.61447,-6.19847 0.31372,-12.02348 -0.51495,-2.30605 -2.36291,-11.84282 -4.1066,-21.19282 -1.74369,-9.35 -3.82099,-19.025 -4.61624,-21.5 -1.46067,-4.54599 -9.51936,-34.3283 -11.75117,-43.42855 -0.6648,-2.7107 -1.85694,-5.2839 -2.64921,-5.71821 -0.79228,-0.43432 -10.8905,-2.16632 -22.4405,-3.84888 -33.19478,-4.8357 -47.74799,-7.3549 -52,-9.00136 -1.65,-0.63892 -6.825,-1.55502 -11.5,-2.03579 -4.675,-0.48078 -11.425,-1.53958 -15,-2.3529 -11.03199,-2.5098 -21.2937,-4.52165 -26,-5.0974 -2.475,-0.30278 -10.35,-1.62944 -17.5,-2.94813 -7.15,-1.31869 -16.375,-2.96199 -20.5,-3.65179 -9.98787,-1.6702 -21.48617,-5.1141 -28.4353,-8.51675 -7.6087,-3.72562 -18.24739,-14.97898 -22.6877,-23.99853 -3.04193,-6.17904 -3.377,-7.71238 -3.377,-15.45395 0,-7.51379 0.31243,-9.05025 2.48497,-12.22087 4.33389,-6.32489 10.90676,-8.191 36.01503,-10.22503 11.825,-0.95795 25.325,-2.1109 30,-2.5621 4.675,-0.45121 19.075,-1.73327 32,-2.84902 12.925,-1.11575 27.775,-2.50383 33,-3.08461 5.225,-0.58078 15.80001,-1.4829 23.5,-2.00471 7.7,-0.52181 19.4,-1.41617 26,-1.98747 6.6,-0.57129 20.52969,-1.72956 30.95487,-2.57392 10.42518,-0.84435 19.53769,-2.01888 20.25,-2.61006 0.98053,-0.81377 1.29513,-5.89383 1.29513,-20.91346 0,-19.12059 0.0792,-19.91239 2.18857,-21.87756 1.46672,-1.36645 3.54462,-2.03895 6.29999,-2.03895 5.16476,0 6.51144,-1.33966 6.51144,-6.47749 0,-5.59993 2.22901,-8.52251 6.5,-8.52251 4.27099,0 6.5,2.92258 6.5,8.52251 0,5.01327 1.35119,6.47749 5.97749,6.47749 1.96763,0 4.57763,0.70052 5.80001,1.5567 2.17566,1.5239 2.2225,1.9955 2.2225,22.37756 0,15.46386 0.32162,21.07468 1.25,21.80739 0.6875,0.5426 5.075,1.25958 9.75,1.5933 13.89381,0.99178 41.05389,3.6394 47.5,4.63039 3.30001,0.50733 11.4,1.40538 18,1.99568 6.6,0.5903 14.7,1.50979 18,2.04331 3.30001,0.53353 12.525,1.66129 20.5,2.50615 7.975,0.84486 19.45,2.18692 25.5,2.98236 11.15822,1.46705 40.54998,4.58908 61.5,6.53261 6.325,0.58676 13.975,1.54353 17,2.12615 16.34585,3.14823 19.45556,16.31407 8.82151,37.3484 -4.13276,8.17468 -5.33011,9.63273 -12.82151,15.61334 -8.90684,7.1106 -16.3792,10.23076 -29.5,12.318 -6.05,0.96243 -14.6,2.3814 -19,3.15326 -4.4,0.77187 -13.4,2.09606 -20,2.94264 -6.6,0.84659 -13.57499,1.97178 -15.5,2.50043 -1.925,0.52865 -5.45114,0.96369 -7.83587,0.96675 -2.38472,0.003 -7.10971,0.66401 -10.5,1.46875 -6.1867,1.46853 -15.5794,2.99683 -40.66413,6.61655 -7.425,1.07143 -17.32499,2.58662 -22,3.3671 -4.675,0.78048 -15.025,2.19802 -23,3.1501 -7.975,0.95208 -15.00414,2.11392 -15.62032,2.58188 -0.61617,0.46796 -1.39379,2.53167 -1.72804,4.58602 -0.33425,2.05435 -2.64553,11.38518 -5.13616,20.73518 -4.51191,16.93806 -8.30764,32.70037 -11.07727,46 -3.23154,15.5176 -5.4382,27.42258 -5.4382,29.33899 0,3.19855 4.57151,5.69087 22.12419,12.06179 26.91099,9.7676 42.24813,15.57097 44.49546,16.83646 5.12155,2.88402 6.82584,12.50903 3.40298,19.21838 -3.3206,6.50891 -8.42986,9.10191 -21.52264,10.92295 -3.85,0.53548 -10.6,1.46823 -15,2.07278 -4.4,0.60454 -12.05,1.76549 -17,2.57987 -4.94999,0.81439 -10.97917,1.59052 -13.39816,1.72474 -3.02796,0.16801 -4.66353,0.78923 -5.25,1.99404 -0.46851,0.9625 -1.23517,2.5375 -1.70368,3.5 -1.04147,2.13955 -8.07996,2.9182 -9.90266,1.0955 z"
         id="path3267"
         inkscape:connector-curvature="0" />
      <path
         style="fill:#6b6b6b"
         d="m 365.49437,629.06128 c -0.85347,-0.9625 -1.71613,-2.65 -1.91703,-3.75 -0.31566,-1.72832 -1.45038,-2.09618 -8.35324,-2.70801 -4.39337,-0.38941 -9.78796,-1.171 -11.98795,-1.73687 -2.2,-0.56587 -11.2,-2.21644 -20,-3.66794 -31.94432,-5.269 -30.37631,-4.89617 -33.63994,-7.99863 -4.24884,-4.03901 -5.86007,-7.5595 -5.86007,-12.80409 0,-3.64976 0.61089,-5.21063 3.18812,-8.14594 1.75347,-1.99709 4.34097,-4.0902 5.75,-4.65136 5.04003,-2.00724 27.62825,-9.95087 31.06188,-10.92358 1.92501,-0.54533 4.85,-1.57041 6.5,-2.27794 1.65,-0.70754 7.95,-2.9915 14,-5.07546 6.05001,-2.08396 11.58434,-4.32669 12.29853,-4.98385 1.5352,-1.41258 1.14575,-4.12637 -5.38536,-37.52633 -0.80662,-4.125 -1.874,-9.81967 -2.37196,-12.65482 -0.49795,-2.83514 -1.38308,-5.98514 -1.96696,-7 -0.58387,-1.01485 -2.64978,-8.14518 -4.59092,-15.84518 -5.76829,-22.88131 -8.09207,-30.87118 -9.06432,-31.16597 -0.50546,-0.15325 -10.14401,-1.65419 -21.41901,-3.33543 -19.08219,-2.84538 -28.23209,-4.30287 -43.63256,-6.95025 -3.3729,-0.57981 -8.04199,-1.72788 -10.37573,-2.55127 -2.33374,-0.8234 -6.09909,-1.51362 -8.36744,-1.53384 -2.26835,-0.0202 -7.27427,-0.71601 -11.12427,-1.54622 -3.85,-0.83021 -9.68914,-1.9463 -12.97588,-2.4802 -3.28673,-0.53389 -7.33672,-1.38053 -9,-1.88141 -1.66326,-0.50087 -7.52412,-1.59781 -13.02412,-2.43762 -10.41248,-1.58993 -25.05904,-4.03055 -34.5,-5.74889 -9.32551,-1.69733 -24.26111,-6.1399 -29.21617,-8.6903 -7.73004,-3.9787 -18.08204,-14.97768 -22.47322,-23.87777 -3.4827,-7.05877 -3.80783,-8.42208 -3.77832,-15.84331 0.0304,-7.65622 0.22084,-8.35801 3.33403,-12.28873 1.81596,-2.29283 3.84378,-4.16879 4.50627,-4.16879 0.66249,0 2.96983,-0.9 5.12741,-2 2.29994,-1.17257 5.89718,-2 8.69502,-2 4.25301,0 13.58366,-0.78005 48.30498,-4.03836 5.5,-0.51613 20.35,-1.82967 33,-2.91898 12.65,-1.08931 27.275,-2.45575 32.5,-3.03653 5.225,-0.58078 15.80001,-1.4829 23.5,-2.00471 7.7,-0.52181 19.4,-1.41584 26,-1.98674 6.6,-0.57089 20.25662,-1.70845 30.34804,-2.52791 10.09143,-0.81945 18.75392,-1.74077 19.25,-2.04736 0.49608,-0.30659 0.90196,-9.68614 0.90196,-20.84344 0,-23.48744 0.059,-23.64283 9.33295,-24.57603 l 5.16705,-0.51994 0.61652,-5.7367 c 0.74311,-6.91461 2.08975,-8.7633 6.38348,-8.7633 4.29373,0 5.64038,1.84869 6.38349,8.7633 l 0.61651,5.7367 4.5,0.54588 c 2.475,0.30023 5.5125,1.10357 6.75,1.78518 2.22513,1.2256 2.25,1.47702 2.25,22.73551 0,16.33747 0.29998,21.58296 1.25,21.85774 0.6875,0.19884 9.80001,1.10263 20.25,2.00842 17.40401,1.50856 30.9143,2.96781 65.5,7.07469 6.875,0.81637 18.80001,2.17341 26.5,3.01563 7.7,0.84223 18.95,2.18039 25,2.97368 11.03337,1.44674 39.99577,4.5257 61.5,6.538 22.86927,2.14005 28.48369,4.07272 32.03109,11.0262 3.5692,6.99623 2.14753,15.23592 -5.07973,29.44081 -2.62063,5.15075 -5.13624,8.21685 -10.45136,12.73843 -9.82465,8.35783 -16.61532,11.41719 -30.47605,13.7302 -6.33817,1.05768 -15.79895,2.65296 -21.02395,3.54505 -5.225,0.8921 -14.675,2.28054 -21,3.08543 -6.325,0.80488 -13.075,1.89646 -15,2.42571 -1.925,0.52926 -5.3,0.96102 -7.5,0.95947 -2.2,-0.002 -6.925,0.66277 -10.5,1.47627 -6.54946,1.49036 -16.60021,3.11173 -40.5,6.53338 -7.15,1.02365 -17.5,2.603 -23,3.50968 -5.5,0.90667 -16.04178,2.40138 -23.42618,3.32157 l -13.42618,1.67307 -1.19405,5 c -0.65673,2.75 -3.33155,13.1 -5.94404,23 -6.2017,23.5013 -8.55882,33.69704 -11.44375,49.5 -0.45182,2.475 -1.77223,9 -2.93424,14.5 -1.162,5.5 -2.11697,10.33185 -2.12215,10.73746 -0.0177,1.38699 7.48528,5.33635 15.99059,8.41701 26.07704,9.44521 47.79455,17.54972 49.90284,18.62267 11.66494,5.93654 7.63185,23.98192 -6.293,28.15695 -4.87675,1.46218 -8.2313,2.01505 -27.60984,4.55046 -4.675,0.61166 -10.75,1.5809 -13.5,2.15386 -2.75,0.57297 -8.36978,1.33872 -12.4884,1.70167 -6.42289,0.56602 -7.54031,0.9445 -7.85323,2.65992 -0.57213,3.13632 -3.21875,5.5 -6.15837,5.5 -1.47951,0 -3.38831,-0.7875 -4.24177,-1.75 z"
         id="path3265"
         inkscape:connector-curvature="0" />
      <path
         style="fill:#525252"
         d="m 367.08033,629.81496 c -1.26077,-0.50853 -2.43549,-2.14292 -2.82945,-3.93661 -0.61746,-2.81126 -1.0215,-3.07204 -4.84419,-3.12668 -2.2938,-0.0328 -6.19555,-0.43307 -8.67055,-0.88953 -5.64196,-1.04052 -37.67981,-6.65462 -48.93999,-8.57592 -7.46407,-1.27357 -8.87874,-1.86851 -12.2344,-5.14523 -8.41716,-8.21914 -7.18856,-19.08241 2.68824,-23.76925 1.96252,-0.93128 11.08727,-4.30966 20.2772,-7.5075 32.02149,-11.1426 42.41846,-14.98195 43.89934,-16.21097 1.53699,-1.27559 1.30214,-6.88911 -0.68369,-16.34199 -0.46218,-2.2 -1.55104,-7.6 -2.4197,-12 -3.61109,-18.29126 -5.77403,-27.7611 -9.47872,-41.5 -7.93241,-29.41746 -9.325,-34.50437 -9.50003,-34.70199 -0.0984,-0.1111 -9.38801,-1.58361 -20.64358,-3.27224 -32.87326,-4.93187 -39.45866,-6.05248 -52.96467,-9.01281 -4.675,-1.0247 -12.775,-2.55401 -18,-3.39847 -5.225,-0.84447 -13.1,-2.25829 -17.5,-3.14184 -4.4,-0.88355 -11.6,-2.18912 -16,-2.90126 -4.4,-0.71215 -13.175,-2.23691 -19.5,-3.38836 -6.325,-1.15145 -14.875,-2.63631 -19,-3.2997 -10.31912,-1.65953 -26.50719,-6.5023 -32.35786,-9.68007 -2.67182,-1.45119 -7.80112,-5.80309 -11.39843,-9.6709 -11.1052,-11.94022 -15.91085,-25.18795 -12.97349,-35.76402 0.86018,-3.09711 6.34717,-9.75088 8.08338,-9.80227 0.63052,-0.0187 2.9464,-0.90339 5.1464,-1.96607 2.33966,-1.13013 6.17239,-1.94622 9.23358,-1.96607 4.6649,-0.0302 14.00274,-0.81001 48.76642,-4.07229 5.5,-0.51613 20.35,-1.82967 33,-2.91898 12.65,-1.08931 27.275,-2.45575 32.5,-3.03653 5.225,-0.58078 15.80001,-1.46056 23.5,-1.95506 7.7,-0.4945 16.25,-1.15245 19,-1.46212 2.75,-0.30966 14,-1.25511 25,-2.10101 11,-0.8459 22.36251,-1.78411 25.25,-2.08492 l 5.25,-0.54693 0,-19.87228 c 0,-19.31664 0.0646,-19.94733 2.30884,-22.55647 1.77684,-2.06569 3.47551,-2.79629 7.37196,-3.17069 l 5.06312,-0.4865 0.58047,-5.63508 c 0.5778,-5.6092 2.96141,-9.13507 6.17561,-9.13507 3.24049,0 5.5976,3.52376 6.18748,9.25 0.56043,5.44027 0.73835,5.75 3.3032,5.75 4.03788,0 8.92105,1.96654 10.03043,4.03944 0.54651,1.02115 0.97889,10.8148 0.97889,22.17185 l 0,20.34278 19.25,1.77547 c 17.84082,1.64549 34.19347,3.4307 65.75,7.17788 6.875,0.81637 18.80001,2.17341 26.5,3.01563 7.7,0.84223 18.95,2.18039 25,2.97368 11.34292,1.48733 40.91222,4.63123 62,6.59204 15.70397,1.4602 25.85339,3.61476 29.11553,6.18076 3.02692,2.38097 6.3303,9.02945 6.36252,12.80532 0.0319,3.7421 -4.40246,16.17568 -8.03054,22.51692 -3.8906,6.80005 -15.16497,16.68608 -23.38756,20.50758 -3.83175,1.78083 -10.47224,3.54768 -18.05994,4.80524 -6.6,1.09386 -16.275,2.71874 -21.5,3.61083 -5.225,0.8921 -14.675,2.28054 -21,3.08543 -6.325,0.80488 -13.075,1.89646 -15,2.42571 -1.925,0.52926 -5.075,0.95903 -7,0.95505 -1.925,-0.004 -6.65,0.65339 -10.5,1.46084 -7.25679,1.52194 -18.38877,3.30233 -41.5,6.63727 -7.425,1.07143 -17.325,2.58408 -22,3.36145 -4.675,0.77737 -14.59537,2.17686 -22.04526,3.10997 l -13.54527,1.69656 -6.29554,24.12615 c -5.6511,21.65646 -9.60305,38.65969 -11.99913,51.62615 -0.45735,2.475 -1.8515,9.31647 -3.0981,15.20327 -1.24659,5.88681 -2.00044,11.39673 -1.6752,12.24428 0.89388,2.32941 5.52703,4.79754 16.87682,8.99048 53.92729,19.92227 52.85263,19.39801 54.83204,26.74898 0.84533,3.13932 0.6621,4.61064 -1.0779,8.65537 -3.38377,7.8658 -9.41295,10.92345 -25.97246,13.17173 -14.54807,1.97519 -27.2534,3.84546 -33.5,4.93132 -3.3,0.57364 -7.65175,1.04559 -9.67054,1.04878 -3.27946,0.005 -3.74216,0.33182 -4.34263,3.06576 -0.43444,1.978 -1.54631,3.39235 -3.14456,4 -1.35986,0.51702 -2.55567,0.91151 -2.65737,0.87664 -0.10169,-0.0349 -1.15502,-0.45468 -2.34071,-0.93293 z"
         id="path3263"
         inkscape:connector-curvature="0" />
      <path
         style="fill:#2a2a2a"
         d="m 365.98122,628.65636 c -0.68479,-0.68479 -1.24508,-1.96508 -1.24508,-2.84508 0,-2.71107 -2.20219,-3.99741 -6.94999,-4.05961 -2.50251,-0.0328 -6.57501,-0.44402 -9.05001,-0.91385 -4.12961,-0.78392 -29.42791,-5.19949 -48.2959,-8.42957 -10.9749,-1.87883 -15.7041,-6.68828 -15.7041,-15.97058 0,-5.02364 3.33244,-10.00632 7.91133,-11.82905 5.07341,-2.01958 27.64922,-9.9594 31.08867,-10.93376 1.92501,-0.54533 4.85,-1.57041 6.5,-2.27794 1.65,-0.70754 7.95,-2.99021 14,-5.0726 6.05001,-2.08239 11.80983,-4.54704 12.79963,-5.47701 2.11689,-1.98893 2.02998,-2.66547 -4.88646,-38.03603 -0.80661,-4.125 -1.874,-9.81967 -2.37196,-12.65482 -0.49795,-2.83514 -1.38308,-5.98514 -1.96696,-7 -0.58387,-1.01485 -2.64978,-8.14518 -4.59092,-15.84518 -5.53823,-21.96872 -7.94951,-30.36984 -9.00577,-31.37698 -0.53766,-0.51265 -10.42755,-2.33738 -21.97756,-4.05497 -19.49083,-2.89847 -28.42502,-4.31953 -44.13256,-7.0197 -3.3729,-0.57981 -8.04199,-1.72788 -10.37573,-2.55127 -2.33374,-0.8234 -6.09909,-1.51362 -8.36744,-1.53384 -2.26835,-0.0202 -7.27427,-0.71601 -11.12427,-1.54622 -3.85,-0.83021 -9.68914,-1.9463 -12.97588,-2.4802 -3.28673,-0.53389 -7.33672,-1.38053 -9,-1.88141 -1.66326,-0.50087 -7.52412,-1.59781 -13.02412,-2.43762 -10.41248,-1.58993 -25.05904,-4.03055 -34.5,-5.74889 -9.24151,-1.68204 -24.2434,-6.13081 -29.09774,-8.62886 -7.4903,-3.85451 -17.36818,-14.37855 -21.65935,-23.07618 -3.40285,-6.89716 -3.74006,-8.31945 -3.71164,-15.65507 0.0283,-7.29682 0.3027,-8.42455 2.86869,-11.78874 1.56058,-2.04603 3.36386,-3.72005 4.00729,-3.72005 0.64343,0 2.93517,-0.9 5.09275,-2 2.29994,-1.17257 5.89718,-2 8.69502,-2 4.25301,0 13.58366,-0.78005 48.30498,-4.03836 5.5,-0.51613 20.35,-1.82967 33,-2.91898 12.65,-1.08931 27.275,-2.45575 32.5,-3.03653 5.225,-0.58078 15.80001,-1.4829 23.5,-2.00471 7.7,-0.52181 19.4,-1.41584 26,-1.98674 6.6,-0.57089 20.28225,-1.71053 30.405,-2.53253 10.12275,-0.82199 19.01025,-1.99685 19.75,-2.61079 1.04592,-0.86804 1.345,-5.63487 1.345,-21.4371 0,-19.86537 0.0498,-20.35574 2.22252,-21.87756 1.22236,-0.85618 4.05737,-1.5567 6.29999,-1.5567 5.05204,0 6.47749,-1.35006 6.47749,-6.1349 0,-6.53032 1.44852,-8.8651 5.5,-8.8651 4.05149,0 5.5,2.33478 5.5,8.8651 0,4.58899 1.42447,6.1349 5.65295,6.1349 1.78913,0 4.39912,0.52223 5.8,1.16051 l 2.54705,1.16052 0,21.21704 c 0,15.78124 0.32025,21.46958 1.25,22.20277 0.6875,0.54215 4.85,1.2624 9.25,1.60055 21.05583,1.61818 33.25581,2.90069 77.5,8.14712 6.875,0.81523 18.80001,2.17605 26.5,3.02405 7.7,0.848 18.95,2.19088 25,2.98417 11.03337,1.44674 39.99577,4.5257 61.5,6.538 22.64779,2.11932 27.82969,3.81501 31.09518,10.17543 3.50639,6.82962 2.03399,15.20784 -5.14382,29.2694 -2.56759,5.02999 -5.11577,8.16082 -9.95136,12.22672 -9.41962,7.9203 -16.36208,10.99226 -29.97605,13.26409 -6.33817,1.05768 -15.79895,2.65296 -21.02395,3.54505 -5.225,0.8921 -14.675,2.28054 -21,3.08543 -6.32499,0.80488 -13.07499,1.89646 -15,2.42571 -1.925,0.52926 -5.3,0.96102 -7.5,0.95947 -2.19999,-0.002 -6.925,0.66277 -10.5,1.47627 -6.51359,1.4822 -15.80246,2.98143 -41,6.61742 -7.425,1.07143 -17.32499,2.58408 -22,3.36145 -4.675,0.77737 -14.8,2.18174 -22.5,3.12082 -7.69999,0.93908 -14.44534,2.11464 -14.98964,2.61235 -0.5443,0.49771 -1.4984,3.0246 -2.12023,5.6153 -0.62182,2.5907 -3.26808,12.81036 -5.88058,22.71036 -6.20003,23.49495 -8.54437,33.63437 -11.44494,49.5 -0.45247,2.475 -1.79257,9.13046 -2.978,14.7899 -1.18542,5.65945 -1.87702,10.74018 -1.53691,11.29052 1.21316,1.96292 8.08196,5.54301 16.4503,8.57405 13.56537,4.91343 47.29159,17.36957 49.69712,18.35469 5.2155,2.13586 7.7641,11.21167 4.79575,17.07809 -2.7507,5.43628 -5.37949,7.69622 -10.86619,9.34154 -4.89265,1.46719 -8.2432,2.01971 -27.62668,4.55576 -4.675,0.61166 -10.75,1.5809 -13.5,2.15386 -2.75,0.57297 -8.32766,1.33872 -12.3948,1.70167 -5.61363,0.50097 -7.60079,1.08144 -8.25,2.40992 -0.47036,0.9625 -1.23808,2.5375 -1.70605,3.5 -1.02795,2.11425 -6.17218,2.82697 -7.90407,1.09508 z"
         id="path3261"
         inkscape:connector-curvature="0" />
      <path
         style="fill:#000000"
         d="m 366.4502,628.19201 c -0.39273,-0.39274 -0.71406,-1.50692 -0.71406,-2.47597 0,-3.19859 -2.85437,-4.90144 -8.32143,-4.96437 -2.84821,-0.0328 -7.20357,-0.4439 -9.67857,-0.91358 -2.475,-0.46969 -12.6,-2.25532 -22.5,-3.96807 -30.74164,-5.31845 -32.43968,-5.69417 -34.60967,-7.65799 -5.27646,-4.77513 -6.60003,-13.9575 -2.72243,-18.88707 2.55537,-3.24863 4.19158,-3.97848 25.8321,-11.52277 45.83807,-15.98001 46.55073,-16.31382 45.56634,-21.34344 -0.23117,-1.18111 -0.92949,-5.07247 -1.55183,-8.64747 -0.62234,-3.575 -1.73898,-9.425 -2.48142,-13 -0.74245,-3.575 -2.11683,-10.775 -3.0542,-16 -0.93736,-5.225 -2.53532,-11.975 -3.55102,-15 -1.69166,-5.03823 -6.37437,-22.45641 -10.98734,-40.86953 -1.01545,-4.05325 -2.10678,-7.63005 -2.42519,-7.94846 -0.3184,-0.3184 -10.35211,-2.04078 -22.29713,-3.8275 -20.01127,-2.99326 -29.27142,-4.46949 -45.95492,-7.32605 -3.43018,-0.58732 -7.48018,-1.5599 -9,-2.16129 -1.51981,-0.60138 -6.36329,-1.46999 -10.76329,-1.93024 -4.4,-0.46024 -10.925,-1.50384 -14.5,-2.3191 -10.70793,-2.44188 -20.94743,-4.43463 -31,-6.03303 -11.45226,-1.82096 -26.49119,-4.34923 -34,-5.7159 -9.95729,-1.81232 -23.75917,-6.05511 -28.4145,-8.7348 -7.82672,-4.50521 -16.21298,-13.64336 -20.70566,-22.56209 -3.88785,-7.71803 -4.0479,-8.40315 -3.64987,-15.62326 0.49064,-8.90018 2.99177,-13.23008 8.69295,-15.04907 1.9674,-0.62771 4.00459,-1.53692 4.52708,-2.02048 0.5225,-0.48356 3.10261,-0.8792 5.73358,-0.8792 4.26323,0 13.58706,-0.7793 48.31642,-4.03836 5.5,-0.51613 20.35,-1.82967 33,-2.91898 12.65,-1.08931 27.275,-2.45575 32.5,-3.03653 5.225,-0.58078 15.80001,-1.4829 23.5,-2.00471 7.7,-0.52181 19.4,-1.41584 26,-1.98674 15.99701,-1.38372 48.44075,-4.01468 49.50721,-4.01468 0.46746,0 1.55708,-0.70714 2.42136,-1.57143 1.32583,-1.32583 1.57143,-4.7587 1.57143,-21.96482 0,-22.98428 -0.1822,-22.46375 7.86283,-22.46375 5.22645,0 7.13717,-2.00509 7.13717,-7.48964 0,-6.31649 0.71535,-7.51036 4.5,-7.51036 3.78466,0 4.5,1.19387 4.5,7.51036 0,5.31669 1.92564,7.48964 6.63718,7.48964 7.49409,0 7.36282,-0.40941 7.36282,22.96375 0,16.70229 0.28447,21.17786 1.4181,22.31149 0.89389,0.89388 4.68296,1.64609 10.25,2.03485 13.67356,0.95484 41.16742,3.63069 47.8319,4.65525 3.30001,0.50733 11.4,1.40538 18,1.99568 6.6,0.5903 14.7,1.50979 18,2.04331 3.30001,0.53353 12.525,1.66129 20.5,2.50615 7.975,0.84486 19.45,2.18692 25.5,2.98236 11.15822,1.46705 40.54998,4.58908 61.5,6.53261 21.34912,1.98054 26.5381,3.6857 29.3853,9.65632 3.26969,6.85663 1.30079,16.90192 -5.80237,29.60356 -6.38942,11.42536 -20.23537,20.65475 -34.88074,23.2507 -16.96677,3.00742 -33.57465,5.62829 -44.70218,7.0544 -6.325,0.81062 -13.075,1.90688 -15,2.43613 -1.92501,0.52926 -5.30001,0.96102 -7.5,0.95947 -2.2,-0.002 -6.92501,0.66277 -10.5,1.47627 -6.54947,1.49036 -16.60021,3.11173 -40.5,6.53338 -7.15,1.02365 -17.5,2.60405 -23,3.51201 -5.5,0.90796 -16.40506,2.43273 -24.23347,3.38838 -7.82842,0.95565 -14.49977,2.00384 -14.82524,2.32931 -0.32549,0.32548 -1.16952,3.22041 -1.87564,6.4332 -0.70612,3.21278 -3.42635,13.94142 -6.04497,23.84142 -6.02339,22.77222 -9.30371,36.9104 -11.60091,50 -0.48262,2.75 -1.74274,9.05 -2.80026,14 -2.69975,12.63684 -2.17032,13.27253 16.88049,20.2683 46.81062,17.18966 50.27188,18.63059 52.14994,21.71024 2.20752,3.61987 2.35909,8.05893 0.43261,12.66964 -3.21592,7.69679 -7.6806,9.24752 -37.08255,12.88002 -4.95,0.61155 -10.58489,1.51771 -12.52198,2.01368 -1.93709,0.49598 -6.88709,1.16797 -11,1.49332 -11.30731,0.89446 -11.82333,1.08564 -12.76033,4.7275 -0.67634,2.62874 -1.39279,3.29321 -3.81124,3.53469 -1.63808,0.16357 -3.29966,-0.0239 -3.69239,-0.41666 z"
         id="path3259"
         inkscape:connector-curvature="0" />
    </g>
  </g>
</svg>
