<?xml version="1.0" encoding="UTF-8" standalone="no"?>
<!-- Created with Inkscape (http://www.inkscape.org/) -->

<svg
   xmlns:dc="http://purl.org/dc/elements/1.1/"
   xmlns:cc="http://creativecommons.org/ns#"
   xmlns:rdf="http://www.w3.org/1999/02/22-rdf-syntax-ns#"
   xmlns:svg="http://www.w3.org/2000/svg"
   xmlns="http://www.w3.org/2000/svg"
   xmlns:sodipodi="http://sodipodi.sourceforge.net/DTD/sodipodi-0.dtd"
   xmlns:inkscape="http://www.inkscape.org/namespaces/inkscape"
   width="501.34305"
   height="404.57932"
   id="svg2"
   version="1.1"
   inkscape:version="0.48.4 r9939"
   sodipodi:docname="B-25.svg">
  <defs
     id="defs4" />
  <sodipodi:namedview
     id="base"
     pagecolor="#ffffff"
     bordercolor="#666666"
     borderopacity="1.0"
     inkscape:pageopacity="0.0"
     inkscape:pageshadow="2"
     inkscape:zoom="0.35"
     inkscape:cx="-39.055024"
     inkscape:cy="148.75081"
     inkscape:document-units="px"
     inkscape:current-layer="layer1"
     showgrid="false"
     inkscape:window-width="614"
     inkscape:window-height="498"
     inkscape:window-x="260"
     inkscape:window-y="205"
     inkscape:window-maximized="0"
     fit-margin-top="0"
     fit-margin-left="0"
     fit-margin-right="0"
     fit-margin-bottom="0" />
  <metadata
     id="metadata7">
    <rdf:RDF>
      <cc:Work
         rdf:about="">
        <dc:format>image/svg+xml</dc:format>
        <dc:type
           rdf:resource="http://purl.org/dc/dcmitype/StillImage" />
        <dc:title></dc:title>
      </cc:Work>
    </rdf:RDF>
  </metadata>
  <g
     inkscape:label="Layer 1"
     inkscape:groupmode="layer"
     id="layer1"
     transform="translate(-141.92857,-379.2761)">
    <g
       id="g3413"
       transform="translate(8.57143,28.571428)">
      <path
         style="fill:#d2d2d2"
         d="m 377.35768,751.9693 c -4.09476,-3.83506 -6.17464,-10.7098 -7.17714,-23.72305 -0.82351,-10.68969 -1.72401,-11.56547 -12.79715,-12.44591 -73.14975,-5.81624 -71.41237,-5.55632 -77.02625,-11.52354 -2.5375,-2.69721 -3,-3.98808 -3,-8.37316 0,-10.74845 3.88511,-12.95049 40,-22.67154 36.40401,-9.79887 39.91087,-10.79327 44.40496,-12.59145 l 4.31868,-1.72799 -0.61117,-5.59668 c -0.33614,-3.07817 -1.06149,-11.22168 -1.61189,-18.09668 -1.35523,-16.92798 -1.66165,-18.3769 -5.49701,-25.99291 -5.34095,-10.60571 -6.95769,-17.31349 -5.46122,-22.65835 0.68441,-2.44446 2.52986,-6.21904 4.10101,-8.38795 2.97122,-4.10164 3.76655,-8.75275 1.60664,-9.39558 -0.6875,-0.20461 -4.625,-1.11365 -8.75,-2.02008 -7.11811,-1.56413 -15.05946,-3.66871 -32,-8.48049 -4.125,-1.17167 -12.9,-3.4831 -19.5,-5.13652 -6.6,-1.65343 -14.025,-3.62756 -16.5,-4.38697 -2.475,-0.7594 -9,-2.58345 -14.5,-4.05343 -5.5,-1.46998 -13.375,-3.70932 -17.5,-4.97632 -14.19176,-4.359 -35.52283,-10.43307 -47.5,-13.52574 -6.6,-1.70421 -15.6,-4.14872 -20,-5.43225 -4.4,-1.28353 -13.85,-3.99321 -21,-6.02152 -16.8921,-4.79192 -19.53869,-5.9631 -24.15236,-10.68792 -3.63472,-3.72229 -3.84764,-4.28701 -3.84764,-10.20478 0,-5.89195 0.24752,-6.55801 4.16278,-11.20181 6.81869,-8.08748 5.61255,-7.86248 64.33722,-12.00201 11.275,-0.79478 30.85,-2.53124 43.5,-3.85881 12.65,-1.32756 30.0875,-2.97762 38.75,-3.66679 l 15.75,-1.25303 0,-14.27915 c 0,-22.81004 2.6632,-29.85246 11.75,-31.071 2.39493,-0.32116 4.25,-1.10832 4.25,-1.8034 0,-2.36726 4.1339,-6.50319 6.5,-6.50319 2.42746,0 6.5,4.15703 6.5,6.63486 0,0.819 1.10016,1.37104 2.75,1.37988 4.36335,0.0234 7.41774,2.14483 9.92372,6.89254 2.1326,4.04035 2.32628,5.64305 2.32628,19.25 l 0,14.84272 7.84437,0 7.84436,0 0.59544,-25.75 c 1.09778,-47.47352 8.31076,-74.42237 21.38122,-79.88355 2.90053,-1.21192 3.82099,-1.19007 7.07096,0.16786 7.12342,2.97635 10.34666,7.47624 14.11561,19.70647 4.49817,14.59658 5.38468,22.88619 5.8828,55.00922 l 0.47683,30.75 7.3942,0 7.39421,0 0,-13.05718 c 0,-7.18145 0.50351,-15.05682 1.11892,-17.50082 1.38038,-5.48198 6.5655,-10.442 10.91588,-10.442 1.83888,0 2.9652,-0.51854 2.9652,-1.36514 0,-2.47783 4.07254,-6.63486 6.5,-6.63486 2.37574,0 6.5,4.13922 6.5,6.52357 0,0.68962 1.49618,1.53453 3.32484,1.87759 3.33395,0.62545 7.45422,4.19802 9.55297,8.2831 0.70757,1.37723 1.12219,8.8591 1.12219,20.25 l 0,18.06574 3.25,0.0509 c 1.7875,0.028 7.975,0.45606 13.75,0.95122 33.12488,2.84025 45.82229,4.00381 48.5,4.44444 1.65,0.27152 11.325,1.20495 21.5,2.07429 10.175,0.86934 19.4,1.77373 20.5,2.00976 1.1,0.23602 11.225,1.13033 22.5,1.98734 22.51671,1.7115 27.20349,2.86421 33.02324,8.122 4.22448,3.81657 6.60658,10.46094 5.5838,15.57486 -0.85604,4.2802 -5.29868,10.57436 -8.70826,12.33752 -2.3207,1.20008 -12.29005,4.01381 -52.89878,14.93004 -3.025,0.81316 -10.9,3.00326 -17.5,4.86688 -6.6,1.86361 -19.425,5.28521 -28.5,7.60355 -9.075,2.31834 -19.2,5.06464 -22.5,6.10289 -3.3,1.03825 -15.78471,4.38553 -27.7438,7.43841 -11.9591,3.05287 -22.935,6.00357 -24.39091,6.55711 -1.45591,0.55353 -6.2962,1.85553 -10.7562,2.89332 -4.46,1.0378 -13.84659,3.33629 -20.85909,5.10777 -11.51214,2.90816 -12.75,3.43527 -12.75,5.42929 0,1.21463 0.89057,3.01438 1.97904,3.99943 2.73755,2.47745 6.02096,11.71031 6.02096,16.93076 0,5.49483 -2.0585,11.34712 -6.89003,19.58821 l -3.81076,6.5 -1.12958,18 c -0.62126,9.9 -1.4046,18.96865 -1.74075,20.15254 -0.54401,1.916 0.0307,2.33334 5.22997,3.79775 8.90857,2.50916 34.5223,10.22541 46.84115,14.1111 6.05,1.90833 14.9068,4.5928 19.68178,5.96549 7.55372,2.1715 9.14349,3.0352 12.23521,6.64718 4.94229,5.77395 5.48438,9.61216 2.15898,15.28652 -1.4513,2.47645 -3.48779,4.95704 -4.52553,5.51243 -4.91694,2.63146 -15.64688,4.26412 -39.55044,6.01796 -36.32749,2.6654 -40.72165,3.1408 -43.06552,4.65921 -1.70688,1.10575 -2.27311,3.10744 -3.26111,11.52834 -1.24672,10.6261 -4.14988,18.79799 -8.07133,22.71944 -3.26827,3.26827 -8.38377,2.80227 -12.6015,-1.14796 z"
         id="path3427"
         inkscape:connector-curvature="0" />
      <path
         style="fill:#ababab"
         d="m 377.0605,750.79814 c -3.47565,-3.95855 -5.05888,-10.0536 -5.90852,-22.74626 -0.82285,-12.29266 -0.44398,-12.08747 -26.30332,-14.245 -11.27034,-0.94033 -26.56652,-2.14691 -33.99152,-2.6813 -22.31174,-1.60581 -24.90232,-2.21144 -29.25,-6.83816 -3.16153,-3.36444 -3.75,-4.68175 -3.75,-8.39454 0,-4.12342 2.25192,-8.61919 5.46553,-10.91148 2.70685,-1.93081 15.88559,-6.19944 34.53447,-11.1858 33.1522,-8.86429 41.27555,-11.17856 45.37848,-12.92793 l 3.87848,-1.65368 -0.5991,-4.74735 c -0.3295,-2.61103 -1.06573,-10.59734 -1.63606,-17.74734 -1.46087,-18.31416 -1.77085,-19.76518 -6.05418,-28.3403 -7.15494,-14.32402 -7.44643,-20.27522 -1.43093,-29.21422 1.92187,-2.85589 3.46331,-6.40541 3.46331,-7.97507 0,-2.64159 -0.38018,-2.90576 -5.75,-3.99533 -3.1625,-0.64169 -9.8,-2.24376 -14.75,-3.56015 -4.95,-1.31639 -11.025,-2.90183 -13.5,-3.52319 -2.475,-0.62136 -8.775,-2.40192 -14,-3.95681 -5.225,-1.55489 -13.55,-3.7613 -18.5,-4.90312 -4.95,-1.14183 -11.025,-2.705 -13.5,-3.47372 -2.475,-0.76872 -9,-2.61474 -14.5,-4.10226 -5.5,-1.48752 -13.375,-3.72591 -17.5,-4.9742 -6.25941,-1.89419 -28.03825,-8.23385 -39.5,-11.49816 -3.52836,-1.00488 -22.98911,-6.25783 -33,-8.90755 -14.85353,-3.93148 -29.14056,-8.30812 -32.33992,-9.9069 -1.83695,-0.91796 -4.87445,-3.35782 -6.75,-5.4219 -2.98468,-3.28472 -3.41008,-4.41816 -3.41008,-9.08589 0,-4.62865 0.48931,-5.96106 3.70478,-10.08825 6.47073,-8.30548 5.04039,-8.03119 63.29522,-12.13761 11.275,-0.79478 30.85,-2.53691 43.5,-3.8714 12.65,-1.33448 30.49608,-2.99575 39.65795,-3.69169 l 16.65795,-1.26535 0.36333,-18.05347 c 0.29575,-14.6955 0.68381,-18.64667 2.08634,-21.24276 2.34404,-4.33882 5.45524,-6.3107 9.95694,-6.3107 3.28716,0 3.77749,-0.30188 3.77749,-2.32569 0,-2.30415 3.69301,-6.67431 5.64014,-6.67431 1.77895,0 5.35986,4.55272 5.35986,6.81445 0,1.86486 0.55888,2.18555 3.80887,2.18555 4.43444,0 6.23598,1.18778 9.10035,6 1.87422,3.14874 2.08368,5.08068 2.08704,19.25 l 0.004,15.75 9,0 9,0 0.0808,-19.25 c 0.10447,-24.89774 0.58527,-32.61907 2.95294,-47.42304 4.28382,-26.78477 13.18312,-42.23506 22.92725,-39.80456 8.79887,2.19472 14.5481,12.76455 18.64682,34.28173 1.23909,6.50486 1.77521,16.69558 2.12784,40.44587 l 0.47139,31.75 8.39649,0 8.39649,0 0,-14.2566 c 0,-15.96921 0.75408,-19.8335 4.6674,-23.91812 2.04363,-2.13312 3.64088,-2.82528 6.51967,-2.82528 3.32423,0 3.81291,-0.29807 3.81291,-2.32569 0,-2.30415 3.69301,-6.67431 5.64014,-6.67431 1.77895,0 5.35986,4.55272 5.35986,6.81445 0,1.78556 0.57739,2.18555 3.15484,2.18555 2.38526,0 4.09279,0.986 7,4.04211 l 3.84516,4.0421 0,18.98928 c 0,14.30379 0.30843,19.09151 1.25,19.40359 0.6875,0.22788 7.55,0.88696 15.25,1.46462 19.52887,1.46509 47.31773,3.92287 51.5,4.55491 3.29086,0.49732 15.62843,1.64258 53.5,4.96623 8.8,0.7723 19.59203,1.73064 23.98228,2.12965 15.48008,1.40691 23.51772,8.01062 23.51772,19.32213 0,4.04261 -3.88938,10.91874 -7.67637,13.57125 -1.14599,0.80268 -12.15012,4.17545 -24.45362,7.49503 -12.30351,3.31959 -29.12001,7.85381 -37.37001,10.07606 -8.25,2.22225 -16.125,4.4267 -17.5,4.89877 -1.375,0.47207 -9.925,2.74556 -19,5.05219 -9.075,2.30663 -19.425,5.07463 -23,6.15111 -3.575,1.07648 -15.275,4.20058 -26,6.94245 -10.725,2.74188 -21.71879,5.70388 -24.43063,6.58224 -2.71185,0.87835 -9.23685,2.61953 -14.5,3.86928 -5.26316,1.24975 -14.06937,3.42477 -19.56937,4.83337 -5.5,1.4086 -10.7875,2.57291 -11.75,2.58736 -2.7426,0.0412 -2.159,4.61867 1.1264,8.83491 6.46833,8.30099 6.96736,18.18651 1.47945,29.307 -2.00428,4.0614 -4.33947,8.18893 -5.18931,9.17229 -1.16022,1.34251 -1.87495,6.57428 -2.86885,21 -0.72802,10.56664 -1.43033,20.0732 -1.56068,21.1257 -0.23765,1.91876 6.287,4.22643 35.76299,12.64885 3.85,1.10009 11.725,3.51476 17.5,5.36594 5.775,1.85117 14.1,4.35382 18.5,5.56143 8.94085,2.4539 9.66205,2.8977 13.66672,8.41019 3.51517,4.83867 3.583,8.50994 0.25027,13.54604 -4.2506,6.42308 -11.42506,8.18465 -40.91699,10.04645 -32.27421,2.03745 -42.82878,3.24991 -45.55219,5.23284 -2.28915,1.66674 -2.67229,2.93292 -3.71739,12.28533 -1.7493,15.65409 -6.15178,23.4893 -13.19826,23.4893 -3.1026,0 -4.39227,-0.64611 -6.8288,-3.42116 z"
         id="path3425"
         inkscape:connector-curvature="0" />
      <path
         style="fill:#929292"
         d="m 377.47258,750.74936 c -3.00766,-3.24532 -4.61219,-9.53982 -5.35834,-21.02059 -0.52257,-8.04058 -0.87046,-9.27668 -3.29257,-11.69879 -1.48954,-1.48954 -3.77842,-2.9274 -5.0864,-3.19525 -1.30797,-0.26784 -14.07813,-1.42836 -28.37813,-2.57893 -52.74349,-4.24369 -51.8761,-4.0718 -55.69085,-11.0365 -2.27386,-4.15146 -1.87727,-8.69123 1.12796,-12.91168 2.76455,-3.88245 10.59402,-6.8163 37.56289,-14.07552 36.27197,-9.76333 39.91162,-10.79357 44.21597,-12.51583 2.27133,-0.90881 4.3424,-2.20669 4.60238,-2.88419 0.25998,-0.6775 0.0899,-5.25503 -0.37786,-10.1723 -3.12144,-32.81061 -2.61927,-30.12664 -7.65029,-40.88913 -5.97767,-12.78756 -6.66839,-18.90975 -2.88277,-25.55135 5.5832,-9.79531 6.06248,-11.03148 4.95674,-12.78445 -0.68482,-1.08566 -5.07732,-2.61062 -12.46091,-4.3261 -11.7127,-2.72129 -19.96855,-4.9225 -37.40326,-9.97263 -5.5,-1.59312 -12.25,-3.37084 -15,-3.95048 -7.06323,-1.48877 -24.12955,-6.27745 -66,-18.51909 -12.65,-3.69848 -24.8,-7.08562 -27,-7.52698 -2.2,-0.44136 -8.05,-2.0055 -13,-3.47585 -4.95,-1.47036 -11.475,-3.33994 -14.5,-4.15463 -28.25842,-7.61048 -36.09552,-10.73424 -39.33506,-15.67841 -2.18907,-3.34094 -3.0518,-9.51765 -1.78911,-12.8091 1.71616,-4.47353 7.75123,-10.37019 11.83393,-11.56253 4.24977,-1.24114 18.32085,-2.55878 50.89116,-4.76554 12.1555,-0.82358 32.40551,-2.58353 45,-3.91101 12.59449,-1.32748 30.32408,-2.93549 39.39908,-3.57335 9.075,-0.63787 17.175,-1.5067 18,-1.93073 1.22203,-0.62811 1.59266,-4.17959 2,-19.16505 0.275,-10.11674 0.90444,-19.06907 1.39877,-19.89407 2.54575,-4.24875 5.07137,-6 8.6531,-6 4.02999,0 5.33071,-1.06804 6.31257,-5.18335 1.15148,-4.82628 7.12869,-4.79478 8.28208,0.0437 0.97611,4.09474 2.2854,5.1397 6.43987,5.1397 3.31613,0 4.18835,0.51042 6.37756,3.73213 2.44631,3.60007 2.53605,4.28302 2.53605,19.3 0,10.77501 0.36944,15.93731 1.2,16.76787 1.65065,1.65065 16.22414,1.60917 17.56621,-0.05 0.59629,-0.73718 1.22573,-12.53207 1.53425,-28.75 0.39788,-20.91502 0.99611,-30.25372 2.49828,-39 4.23538,-24.66008 11.38353,-38 20.36216,-38 3.95426,0 9.59395,4.13085 12.13253,8.8866 7.13011,13.35754 8.75498,24.28446 9.38512,63.1134 0.32105,19.78239 0.92636,32.98914 1.54689,33.75 1.34495,1.64912 14.93445,1.69011 16.57456,0.05 0.82475,-0.82475 1.2,-5.80776 1.2,-15.9349 0,-8.1042 0.43203,-15.87123 0.96007,-17.26007 1.57161,-4.13365 4.72115,-6.60503 8.41749,-6.60503 3.71209,0 5.02046,-1.13277 5.98688,-5.18335 1.15148,-4.82628 7.12869,-4.79478 8.28208,0.0437 0.90845,3.81091 2.24693,5.13544 5.22592,5.1715 1.44516,0.0175 3.30256,0.57999 4.12756,1.25 4.28426,3.47938 4.48606,4.47269 5,24.61049 l 0.5,19.59175 4.5,0.68784 c 5.17474,0.79098 40.11361,3.98035 46.93134,4.28409 2.51276,0.11195 11.54366,0.9586 20.06866,1.88144 21.72126,2.35137 43.43537,4.42822 64.76982,6.19492 14.37387,1.1903 19.17189,1.95928 22.5,3.60609 6.39888,3.16627 9.04395,7.05135 9.54835,14.02458 0.36665,5.06891 0.0669,6.41223 -2.19246,9.82641 -1.43945,2.17515 -3.9338,4.63567 -5.54301,5.46782 -1.6092,0.83216 -12.07362,3.97752 -23.25426,6.98969 -11.18064,3.01218 -23.92844,6.44809 -28.32844,7.63535 -4.4,1.18727 -12.5,3.42724 -18,4.97771 -5.5,1.55048 -19.675,5.38319 -31.5,8.51714 -11.825,3.13395 -32.3,8.58298 -45.5,12.10896 -31.33592,8.37044 -65.37292,17.07196 -68.39787,17.48584 -4.61089,0.63087 -4.73238,3.00554 -0.50421,9.85571 3.78506,6.13228 3.90208,6.59404 3.90208,15.39712 0,9.02793 -0.0254,9.11958 -4.87036,17.57525 l -4.87037,8.5 -1.34145,19 c -0.7378,10.45 -1.35864,19.75557 -1.37964,20.67904 -0.0273,1.20078 1.59966,2.14012 5.71182,3.29775 9.3578,2.63434 34.94956,10.40999 46.25,14.05232 5.775,1.86138 13.37404,4.10708 16.88675,4.99043 10.47424,2.63398 13.74202,4.3211 16.53024,8.53438 3.14748,4.75617 3.28334,9.07686 0.43054,13.69278 -3.66911,5.93674 -10.45048,7.60981 -37.34753,9.21423 -31.18236,1.86003 -43.74667,3.2334 -47.75,5.21939 -2.0625,1.02318 -3.78021,1.96368 -3.81714,2.09 -0.0369,0.12633 -0.67892,5.31065 -1.42666,11.52072 -1.08987,9.05154 -1.94199,12.32419 -4.29619,16.5 -2.81344,4.99039 -3.1311,5.22174 -7.57042,5.51363 -3.91293,0.25728 -5.0056,-0.0966 -7.02415,-2.27461 z"
         id="path3423"
         inkscape:connector-curvature="0" />
      <path
         style="fill:#6b6b6b"
         d="m 377.53516,750.24849 c -2.9516,-3.50777 -4.5839,-10.25527 -5.38813,-22.2731 -0.55646,-8.3153 -0.73722,-8.85866 -3.68752,-11.08488 -3.22653,-2.43465 -12.71632,-3.54973 -57.60237,-6.76847 -21.77014,-1.56112 -24.96893,-2.26854 -28.75,-6.35816 -2.6504,-2.86668 -3.25,-4.33398 -3.25,-7.95317 0,-9.28216 4.8025,-11.8702 39,-21.01682 43.83254,-11.72365 47.03899,-12.71172 49.02767,-15.10793 0.74169,-0.89368 0.7338,-4.65025 -0.0265,-12.61956 -3.0401,-31.86569 -2.71104,-30.03487 -6.90885,-38.43826 -7.30472,-14.62293 -7.60305,-20.47693 -1.50534,-29.53809 4.4762,-6.65161 4.44542,-10.92129 -0.087,-12.06407 -1.65,-0.41603 -8.4,-2.1058 -15,-3.75504 -19.30706,-4.82456 -20.5376,-5.15204 -30.5,-8.11671 -5.225,-1.55489 -13.55,-3.7613 -18.5,-4.90312 -4.95,-1.14183 -11.025,-2.705 -13.5,-3.47372 -2.475,-0.76872 -9,-2.61474 -14.5,-4.10226 -5.5,-1.48752 -13.375,-3.72591 -17.5,-4.9742 -6.25941,-1.89419 -28.03825,-8.23385 -39.5,-11.49816 -3.52836,-1.00488 -22.98911,-6.25783 -33,-8.90755 -14.94398,-3.95542 -29.14478,-8.31112 -32.29927,-9.9069 -7.18167,-3.63303 -11.02368,-10.81276 -9.1961,-17.18516 2.18326,-7.61251 10.71369,-13.98386 18.72263,-13.98386 2.39337,0 8.49635,-0.44004 13.56217,-0.97787 5.06583,-0.53783 19.33559,-1.6628 31.71059,-2.49994 12.375,-0.83713 31.05,-2.44602 41.5,-3.57531 10.45,-1.12928 28.45,-2.82037 40,-3.75798 l 21,-1.70473 0.5238,-18.49209 c 0.31029,-10.95426 0.9862,-19.30733 1.65818,-20.49208 2.22924,-3.93033 5.7975,-6.35806 9.81802,-6.67985 3.40256,-0.27233 4.05096,-0.69355 4.34118,-2.82015 0.38381,-2.81248 2.85883,-6 4.65882,-6 1.79999,0 4.27501,3.18752 4.65882,6 0.29012,2.12582 0.93986,2.54847 4.34118,2.82384 4.07131,0.32962 6.7656,2.0557 8.84262,5.66497 0.68298,1.18683 1.36232,8.77435 1.65738,18.51119 l 0.5,16.5 9.2669,0.28775 c 6.88153,0.21368 9.37313,-0.0437 9.67959,-1 0.22698,-0.70826 0.64641,-13.21275 0.93205,-27.78775 0.39369,-20.08736 1.01343,-29.44596 2.56107,-38.67407 4.4804,-26.71536 12.64829,-41.15208 21.96036,-38.8149 6.39923,1.6061 10.38486,6.85947 14.15299,18.65476 4.22865,13.23682 5.1801,22.27682 5.82387,55.33421 l 0.62317,32 9,0 9,0 0.51149,-16.5 c 0.29732,-9.59093 0.99131,-17.34215 1.65738,-18.51119 2.05124,-3.60022 4.75561,-5.33501 8.83113,-5.66497 3.40132,-0.27537 4.05106,-0.69802 4.34118,-2.82384 0.38381,-2.81248 2.85883,-6 4.65882,-6 1.79592,0 4.2744,3.18482 4.65882,5.98654 0.27954,2.03729 1.05776,2.60238 4.30742,3.12773 2.80936,0.45417 4.77821,1.6138 6.75,3.97569 l 2.78376,3.33449 0,19.17648 0,19.17649 3.25,0.57586 c 1.7875,0.31673 7.3,0.83586 12.25,1.15363 4.95,0.31776 12.375,0.98713 16.5,1.48747 4.125,0.50035 11.1,1.17835 15.5,1.50667 4.4,0.32833 11.825,1.01828 16.5,1.53323 9.96144,1.09725 35.30531,3.41764 60,5.49338 27.45411,2.30768 30.2127,2.67889 34.71791,4.67176 5.71708,2.52893 9.46319,7.62997 10.04425,13.67713 0.52125,5.42473 -0.97539,9.09929 -5.42288,13.31433 -2.89885,2.74733 -3.1601,2.82583 -62.83928,18.88255 -8.25,2.21966 -16.125,4.41935 -17.5,4.88818 -1.375,0.46884 -9.925,2.73968 -19,5.04631 -9.075,2.30663 -19.425,5.07463 -23,6.15111 -3.575,1.07648 -15.275,4.20058 -26,6.94245 -10.725,2.74188 -21.71879,5.70388 -24.43063,6.58224 -2.71185,0.87835 -9.23685,2.62168 -14.5,3.87406 -15.69889,3.73559 -31.48433,7.57999 -32.81937,7.99287 -2.18603,0.67606 -1.34926,5.43925 1.6264,9.25799 6.46833,8.30099 6.96736,18.18651 1.47945,29.307 -2.00428,4.0614 -4.33947,8.18893 -5.18931,9.17229 -1.1566,1.33831 -1.88747,6.61939 -2.90631,21 -0.74862,10.56664 -1.45093,20.25906 -1.56068,21.53872 -0.20899,2.43669 1.41113,3.01921 36.80045,13.23177 3.85,1.11102 11.95,3.58411 18,5.49576 6.05,1.91165 14.5868,4.4942 18.97067,5.73902 7.102,2.01663 8.32806,2.73187 11.25,6.56279 4.34117,5.69165 4.34899,9.57596 0.0293,14.56263 -4.55441,5.25766 -9.49853,6.31186 -40.25,8.58226 -39.25274,2.89805 -41.87975,3.16864 -43.5,4.48056 -0.825,0.66801 -2.18399,1.45412 -3.01998,1.74691 -1.13201,0.39647 -1.81977,3.35301 -2.69446,11.58296 -1.6905,15.90622 -5.56957,23.18869 -12.35162,23.18869 -2.93764,0 -4.30084,-0.64736 -6.25589,-2.97081 z"
         id="path3421"
         inkscape:connector-curvature="0" />
      <path
         style="fill:#525252"
         d="m 378.79682,750.45671 c -3.60181,-3.21821 -5.54711,-10.02398 -6.58128,-23.02509 -0.60057,-7.55005 -0.9197,-8.50683 -3.58555,-10.75 -1.60946,-1.35428 -3.67927,-2.46826 -4.59958,-2.47552 -0.9203,-0.007 -9.32327,-0.67743 -18.67327,-1.48925 -9.35,-0.81183 -23.525,-1.94673 -31.5,-2.52201 -22.39923,-1.61579 -26.92761,-2.53153 -30.7396,-6.21626 -4.10161,-3.96468 -5.01,-8.37736 -2.71861,-13.20611 2.64975,-5.58392 6.07885,-7.02116 35.95821,-15.07117 38.16985,-10.28362 42.29716,-11.46613 46.8866,-13.43339 5.2958,-2.27004 5.1118,-1.36625 3.57265,-17.54861 -0.57544,-6.05 -1.41577,-14.89317 -1.8674,-19.65149 -0.65715,-6.92354 -1.55877,-10.1443 -4.51422,-16.12566 -7.32535,-14.82537 -7.65044,-20.88697 -1.59913,-29.81746 3.81625,-5.63198 4.19016,-11.61704 0.7715,-12.34908 -11.15355,-2.38833 -45.20395,-11.1008 -46.48934,-11.89521 -0.56877,-0.35152 -6.59759,-2.01947 -13.39739,-3.70655 -16.58753,-4.11549 -43.98547,-11.76919 -76.36327,-21.3323 -6.6,-1.94937 -17.85,-5.09778 -25,-6.99646 -15.01007,-3.98591 -29.80604,-8.09594 -43.90077,-12.19477 -8.11974,-2.36126 -10.72811,-3.62824 -14.5,-7.04315 -4.39445,-3.97856 -4.59923,-4.40679 -4.59923,-9.61783 0,-4.8217 0.43453,-5.98417 3.7488,-10.02879 6.05896,-7.39416 4.60801,-7.13684 63.7512,-11.30588 11.275,-0.79478 30.85,-2.53401 43.5,-3.86496 12.65,-1.33095 30.3125,-2.98874 39.25,-3.68398 l 16.25,-1.26407 0,-14.76196 c 0,-23.42933 2.23066,-29.5685 11.10722,-30.56902 4.01382,-0.45241 4.64874,-0.86665 5.467,-3.56677 0.50918,-1.6802 1.74147,-3.5431 2.73843,-4.13976 1.46506,-0.87682 2.18416,-0.63215 3.75,1.27593 1.06554,1.29843 1.93735,3.21093 1.93735,4.25 0,1.42315 0.72403,1.88922 2.9349,1.88922 9.75473,0 12.01301,4.82853 12.04314,25.75 l 0.022,15.25 9.84515,0 9.84515,0 0.59181,-26.25 c 0.93425,-41.43956 5.69627,-65.07902 15.23708,-75.63956 3.11125,-3.44379 4.33096,-4.11044 7.52045,-4.11044 8.96762,0 14.97933,10.67992 19.55554,34.74078 1.24413,6.54142 1.78598,16.67159 2.14002,40.00922 l 0.47408,31.25 9.39536,0 9.39536,0 0,-13.55718 c 0,-7.45645 0.505,-15.56273 1.12223,-18.01396 1.3798,-5.47969 5.67193,-9.42886 10.2477,-9.42886 2.74297,0 3.35733,-0.46596 4.17327,-3.16515 0.52624,-1.74084 1.77249,-3.65334 2.76945,-4.25 1.46506,-0.87682 2.18416,-0.63215 3.75,1.27593 1.06554,1.29843 1.93735,3.15342 1.93735,4.1222 0,1.26563 1.06743,1.93209 3.79243,2.36784 2.39137,0.38239 4.88506,1.74601 6.75,3.69107 l 2.95757,3.08464 0.30829,19.93673 0.30828,19.93674 3.69172,0.0509 c 2.03044,0.028 8.41671,0.45606 14.19171,0.95122 33.12488,2.84025 45.82229,4.00381 48.5,4.44444 1.65,0.27152 11.325,1.20495 21.5,2.07429 10.175,0.86934 19.4,1.77373 20.5,2.00976 1.1,0.23602 11.225,1.13033 22.5,1.98734 12.30851,0.93558 22.29813,2.19398 25,3.14927 12.86352,4.54813 16.58495,17.37025 7.72243,26.60752 -2.81213,2.93105 -5.00498,3.82867 -17.22243,7.0499 -7.7,2.03017 -24.8,6.62239 -38,10.20494 -13.2,3.58255 -29.175,7.87554 -35.5,9.53997 -6.325,1.66444 -18.7,5.01427 -27.5,7.44408 -19.84407,5.47923 -51.86894,13.99902 -64.5,17.15936 -5.225,1.30732 -13.55,3.46463 -18.5,4.79403 -4.95,1.32941 -11.5875,2.96478 -14.75,3.63416 -5.55005,1.17475 -5.75,1.32846 -5.75,4.42044 0,2.0303 1.06358,4.5417 2.90438,6.85805 3.55927,4.47876 5.55372,12.2615 4.71336,18.39252 -0.35246,2.57151 -2.75996,8.57073 -5.48952,13.67927 l -4.86173,9.09903 -0.67624,12.97475 c -0.37193,7.13611 -1.14548,16.28866 -1.719,20.339 -0.59621,4.21057 -0.66789,7.73911 -0.16738,8.23962 0.48146,0.48146 5.80755,2.25849 11.83576,3.94896 6.0282,1.69046 15.01037,4.33739 19.96037,5.88205 23.88892,7.45461 32.63204,10.09742 40,12.09091 8.89597,2.40692 13.68936,5.9879 15.54615,11.61404 1.38514,4.19704 -1.02848,9.77068 -5.37604,12.4146 -4.15416,2.52629 -18.12218,4.69763 -38.17011,5.93359 -29.80181,1.83727 -40.72842,3.1031 -44.06216,5.10453 -2.93602,1.76266 -3.11131,2.25735 -4.25559,12.01035 -0.79573,6.78212 -2.07769,12.14231 -3.8468,16.08442 -3.82632,8.52617 -7.82022,10.03184 -13.39577,5.05009 z"
         id="path3419"
         inkscape:connector-curvature="0" />
      <path
         style="fill:#2b2b2b"
         d="m 378.41232,750.28028 c -2.56173,-2.83069 -4.49586,-10.90316 -5.23475,-21.84835 -0.62076,-9.19512 -0.66271,-9.31506 -4.22371,-12.07582 -3.44707,-2.67243 -4.44967,-2.8609 -24.09672,-4.52987 -11.275,-0.95779 -26.575,-2.17587 -34,-2.70685 -21.12862,-1.51097 -25.03458,-2.32478 -28.25,-5.88595 -2.11164,-2.33869 -2.75,-4.05531 -2.75,-7.39506 0,-8.81378 4.10371,-10.97843 38,-20.04449 37.07137,-9.91528 39.45155,-10.59074 44.67606,-12.67848 2.84684,-1.13761 5.44252,-2.76273 5.76818,-3.61139 0.32566,-0.84865 0.11562,-6.54739 -0.46676,-12.66386 -3.00451,-31.55521 -2.6912,-29.81634 -6.88516,-38.21202 -7.28813,-14.58973 -7.59927,-20.48256 -1.55563,-29.46336 3.59472,-5.34174 4.42184,-9.90509 2.13874,-11.79988 -0.72851,-0.60462 -4.44101,-1.76451 -8.25,-2.57755 -3.80899,-0.81303 -10.30043,-2.391 -14.42543,-3.50658 -4.125,-1.11559 -9.525,-2.53934 -12,-3.1639 -2.475,-0.62457 -8.775,-2.40775 -14,-3.96264 -5.225,-1.55489 -13.55,-3.7613 -18.5,-4.90312 -4.95,-1.14183 -11.025,-2.705 -13.5,-3.47372 -2.475,-0.76872 -9,-2.61474 -14.5,-4.10226 -5.5,-1.48752 -13.375,-3.72591 -17.5,-4.9742 -6.25941,-1.89419 -28.03825,-8.23385 -39.5,-11.49816 -3.52836,-1.00488 -22.98911,-6.25783 -33,-8.90755 -14.93127,-3.95206 -29.14421,-8.3107 -32.30502,-9.9069 -4.65093,-2.3487 -7.22844,-5.38351 -8.18881,-9.64167 -1.03495,-4.58881 0.10077,-8.67182 3.56367,-12.81176 3.85833,-4.61267 8.15318,-6.37163 17.08301,-6.99634 40.31461,-2.82034 68.50533,-5.11458 87.84715,-7.14925 12.65,-1.33072 30.425,-2.97655 39.5,-3.65739 9.075,-0.68085 17.0625,-1.66981 17.75,-2.1977 0.90382,-0.69399 1.25661,-5.28777 1.27386,-16.58735 0.0131,-8.59516 0.42554,-17.35856 0.91648,-19.47422 1.28387,-5.5326 4.56985,-8.65334 9.11153,-8.65334 4.04772,0 5.57244,-1.22378 6.10231,-4.89787 0.75867,-5.26056 6.84582,-4.90679 6.84582,0.39787 0,3.02861 1.74402,4.28687 6.48051,4.67549 3.20547,0.263 4.38773,0.96857 6.23732,3.72239 2.1343,3.17772 2.28217,4.41206 2.28217,19.05 0,10.84054 0.36889,16.02101 1.2,16.85212 1.66783,1.66783 18.21382,1.62553 19.55767,-0.05 0.58069,-0.72402 1.24092,-12.61124 1.56903,-28.25 0.6314,-30.09459 2.48886,-44.9032 7.50441,-59.82872 4.9742,-14.80248 11.11367,-19.96122 18.94405,-15.91785 4.32777,2.23472 7.33412,7.02091 10.21526,16.26295 4.38253,14.05812 5.13768,21.29251 5.68726,54.48362 0.32156,19.42081 0.93029,32.49137 1.54853,33.25 0.66563,0.81679 3.87967,1.25 9.27379,1.25 5.38658,0 8.614,-0.43436 9.28794,-1.25 0.58218,-0.7046 1.181,-8.30938 1.37244,-17.4293 0.30577,-14.56666 0.54887,-16.46045 2.43896,-19 1.55645,-2.09127 3.10477,-2.90462 5.98732,-3.14521 4.67283,-0.39003 6.41334,-1.6589 6.41334,-4.67549 0,-5.30466 6.08715,-5.65843 6.84582,-0.39787 0.5069,3.51478 2.02483,4.89787 5.37541,4.89787 2.03552,0 3.88683,0.97467 5.8567,3.08342 l 2.88035,3.08343 0.27086,19.66657 0.27086,19.66658 4.5,0.7192 c 2.475,0.39556 15.075,1.66243 28,2.81526 12.925,1.15283 29.575,2.71309 37,3.46725 7.425,0.75415 16.875,1.63485 21,1.95711 4.125,0.32225 11.55,1.02348 16.5,1.55828 4.95,0.53481 17.66014,1.674 28.24475,2.53154 21.37449,1.73172 26.12764,3.08234 30.19146,8.57895 3.02852,4.09629 3.86765,11.42361 1.77012,15.45681 -3.14061,6.03888 -5.31516,7.0511 -28.70633,13.36229 -12.375,3.3389 -24.975,6.76216 -28,7.60722 -3.025,0.84507 -9.775,2.65186 -15,4.0151 -5.225,1.36324 -10.625,2.87607 -12,3.36183 -1.375,0.48576 -9.925,2.77045 -19,5.07708 -9.075,2.30663 -19.425,5.07463 -23,6.15111 -3.575,1.07648 -15.275,4.20058 -26,6.94245 -10.725,2.74188 -21.71879,5.70388 -24.43063,6.58224 -2.71185,0.87835 -9.23685,2.62168 -14.5,3.87406 -26.17356,6.22806 -31.68687,7.62035 -33.06937,8.35109 -2.69949,1.42686 -2.3397,5.77766 0.81204,9.81969 3.80281,4.877 5.18796,9.21887 5.18796,16.26204 0,5.49798 -2.11444,10.83244 -9.44388,23.82562 -0.79113,1.40247 -1.57779,7.91174 -1.99407,16.5 -0.37812,7.80108 -1.10022,16.87033 -1.60465,20.1539 -0.56325,3.66635 -0.55809,6.32919 0.0134,6.90065 0.8133,0.8133 13.9616,4.90527 37.52923,11.67974 3.85,1.10667 11.725,3.53045 17.5,5.38617 5.775,1.85572 14.26601,4.39439 18.86891,5.64148 7.50998,2.03474 8.6646,2.67565 11.25,6.24468 3.44037,4.7493 3.66849,8.76262 0.73243,12.88593 -3.83263,5.38244 -11.253,7.05449 -38.85134,8.75449 -20.34859,1.25343 -42.1613,3.07848 -43.5,3.63961 -0.55,0.23053 -2.33796,1.23164 -3.97324,2.22468 -2.8661,1.74047 -3.01848,2.21135 -4.22888,13.06813 -0.98127,8.80158 -1.86117,12.39251 -4.02676,16.43346 -2.56654,4.78912 -3.07024,5.19285 -6.82286,5.46867 -3.05826,0.22479 -4.50324,-0.20109 -5.89308,-1.73683 z"
         id="path3417"
         inkscape:connector-curvature="0" />
      <path
         style="fill:#000000"
         d="m 378.16667,748.56895 c -2.07483,-3.16658 -4.21469,-14.55868 -4.26984,-22.73157 -0.0366,-5.4258 -0.31649,-6.14298 -3.60919,-9.24839 -1.96322,-1.85156 -4.55072,-3.5633 -5.75,-3.80386 -1.19927,-0.24056 -13.8805,-1.38002 -28.1805,-2.53212 -54.21655,-4.36803 -52.33579,-4.00311 -55.13278,-10.69725 -1.65819,-3.96862 -0.6202,-8.93744 2.42043,-11.58642 2.67545,-2.33084 12.03574,-5.46427 33.71235,-11.28545 37.30028,-10.01687 42.26741,-11.43597 46.74223,-13.35409 2.45796,-1.05361 4.75438,-2.65927 5.10314,-3.56814 0.34876,-0.90886 0.20771,-6.0152 -0.31346,-11.34742 -0.52117,-5.33222 -1.41178,-14.55265 -1.97913,-20.48985 -0.9281,-9.71225 -1.49431,-11.75264 -5.64553,-20.34412 -3.24999,-6.72628 -4.75577,-11.2212 -5.09362,-15.20509 -0.44558,-5.25418 -0.18965,-6.13139 3.60336,-12.35111 6.47047,-10.61013 5.47365,-13.69112 -5.09394,-15.74436 -3.47768,-0.6757 -10.37305,-2.31088 -15.32305,-3.63374 -4.95,-1.32285 -11.025,-2.92119 -13.5,-3.55187 -2.475,-0.63069 -8.775,-2.42278 -14,-3.98244 -5.225,-1.55965 -11.75,-3.31201 -14.5,-3.89413 -5.75631,-1.21849 -24.96172,-6.44456 -44.5,-12.1091 -37.81194,-10.96244 -48.33265,-13.96421 -57.5,-16.40592 -34.87384,-9.28858 -48.6667,-13.56102 -53,-16.41712 -7.16013,-4.71928 -8.07903,-13.50971 -2.11421,-20.22516 3.58876,-4.04038 7.38305,-5.53108 15.61421,-6.13452 4.125,-0.3024 20.325,-1.48505 36,-2.62809 15.675,-1.14305 36.825,-2.9727 47,-4.06589 22.79383,-2.44895 52.02811,-5.00721 57.4542,-5.02774 7.0873,-0.0268 6.98908,0.24491 7.5458,-20.87476 0.45534,-17.27369 0.68781,-19.2198 2.60275,-21.78888 1.6127,-2.1636 3.17601,-2.9472 6.70797,-3.36235 5.43464,-0.6388 5.7171,-0.85968 6.5962,-5.15795 0.94923,-4.64124 4.24711,-4.59146 5.20222,0.0785 0.83673,4.09112 2.23024,5.08538 7.15556,5.10542 3.16647,0.0129 4.07957,0.53175 5.74626,3.26531 1.75246,2.87424 1.982,5.06271 1.9853,18.92857 0.003,12.91642 0.28058,15.95542 1.57517,17.25 2.16134,2.16134 18.59864,2.2585 20.73458,0.12256 1.16828,-1.16828 1.55197,-6.83282 1.98125,-29.25 0.57989,-30.28172 2.37358,-45.19557 7.12456,-59.23828 7.83957,-23.17179 20.29659,-22.94683 27.9698,0.50509 3.94782,12.06587 4.7627,20.31675 5.30565,53.72074 0.4374,26.9101 0.79494,33.05068 1.99427,34.25 2.13772,2.13772 17.58534,2.05159 19.74703,-0.11011 1.29038,-1.29038 1.57171,-4.28609 1.57298,-16.75 0.002,-19.15381 0.99035,-21.8902 8.20642,-22.71987 5.54271,-0.63728 5.81767,-0.84899 6.69895,-5.15795 0.94923,-4.64124 4.24711,-4.59146 5.20222,0.0785 0.79467,3.8855 2.24727,5.08385 6.18861,5.10542 1.7269,0.01 3.73635,1.02808 5.25,2.66133 2.42382,2.61535 2.45243,2.8675 2.46756,21.75 0.008,10.50719 0.36736,19.65819 0.79763,20.33555 0.48677,0.76631 5.48649,1.62119 13.23469,2.26293 6.8488,0.56725 16.50756,1.49294 21.46391,2.0571 4.95635,0.56416 11.93135,1.18032 15.5,1.36925 3.56865,0.18893 13.46346,1.07497 21.98846,1.96899 23.94311,2.5109 44.78178,4.48731 64.70714,6.13703 20.54813,1.70128 25.38426,3.14818 29.04286,8.68921 4.16549,6.30873 2.21937,16.22129 -3.95226,20.13079 -1.26376,0.80054 -11.74774,3.9872 -23.29774,7.08145 -11.55,3.09425 -33.375,8.96872 -48.5,13.05438 -35.0879,9.47814 -41.95541,11.31577 -67.5,18.06182 -11.55,3.05024 -24.825,6.64263 -29.5,7.98309 -10.54683,3.0241 -30.75211,8.10209 -41.90737,10.53215 -11.5975,2.5264 -12.58799,4.67073 -6.34465,13.73577 3.40625,4.94572 3.78012,6.14969 4.10051,13.20493 0.34993,7.70552 0.31179,7.84358 -5.1466,18.63129 l -5.49914,10.86825 -1.15053,19.90084 c -0.6328,10.94547 -0.77308,20.2783 -0.31175,20.73963 0.46133,0.46133 5.77095,2.22189 11.79916,3.91236 6.0282,1.69046 15.01037,4.35387 19.96037,5.91868 12.13617,3.83652 34.35782,10.54818 43.24088,13.06015 6.1926,1.75116 7.60412,2.58216 9.75,5.7401 2.90684,4.27781 3.1962,8.25 0.86062,11.81454 -3.40506,5.19678 -10.37221,6.77888 -36.8515,8.36828 -34.78083,2.08768 -43.6246,3.15089 -48.25,5.80071 -2.3375,1.33911 -4.28021,2.50449 -4.31714,2.58973 -0.0369,0.0852 -0.66879,5.14731 -1.40413,11.24904 -0.96768,8.02959 -2.05869,12.51826 -3.94971,16.25 -2.48307,4.9001 -2.80921,5.15594 -6.57281,5.15594 -3.18054,0 -4.30196,-0.52174 -5.69668,-2.65035 z"
         id="path3415"
         inkscape:connector-curvature="0" />
    </g>
  </g>
</svg>
