<?xml version="1.0" encoding="UTF-8" standalone="no"?>
<!-- Created with Inkscape (http://www.inkscape.org/) -->

<svg
   xmlns:dc="http://purl.org/dc/elements/1.1/"
   xmlns:cc="http://creativecommons.org/ns#"
   xmlns:rdf="http://www.w3.org/1999/02/22-rdf-syntax-ns#"
   xmlns:svg="http://www.w3.org/2000/svg"
   xmlns="http://www.w3.org/2000/svg"
   xmlns:sodipodi="http://sodipodi.sourceforge.net/DTD/sodipodi-0.dtd"
   xmlns:inkscape="http://www.inkscape.org/namespaces/inkscape"
   width="500.72604"
   height="346.84869"
   id="svg2"
   version="1.1"
   inkscape:version="0.48.4 r9939"
   sodipodi:docname="Ki-21.svg">
  <defs
     id="defs4" />
  <sodipodi:namedview
     id="base"
     pagecolor="#ffffff"
     bordercolor="#666666"
     borderopacity="1.0"
     inkscape:pageopacity="0.0"
     inkscape:pageshadow="2"
     inkscape:zoom="0.35"
     inkscape:cx="370.27314"
     inkscape:cy="143.54646"
     inkscape:document-units="px"
     inkscape:current-layer="layer1"
     showgrid="false"
     inkscape:window-width="759"
     inkscape:window-height="594"
     inkscape:window-x="0"
     inkscape:window-y="25"
     inkscape:window-maximized="0"
     fit-margin-top="0"
     fit-margin-left="0"
     fit-margin-right="0"
     fit-margin-bottom="0" />
  <metadata
     id="metadata7">
    <rdf:RDF>
      <cc:Work
         rdf:about="">
        <dc:format>image/svg+xml</dc:format>
        <dc:type
           rdf:resource="http://purl.org/dc/dcmitype/StillImage" />
      </cc:Work>
    </rdf:RDF>
  </metadata>
  <g
     inkscape:label="Layer 1"
     inkscape:groupmode="layer"
     id="layer1"
     transform="translate(-129.03303,-123.86219)">
    <g
       id="g3432"
       transform="translate(11.42857,-20)">
      <path
         style="fill:#d3d3d3"
         d="m 359.02598,488.40764 c -1.96143,-1.96142 -2.45455,-3.47449 -2.45455,-7.53138 0,-3.19898 -0.46236,-5.21265 -1.25,-5.44401 -0.6875,-0.20195 -14.28485,-0.91281 -30.21633,-1.57969 -33.52886,-1.4035 -38.19705,-2.24401 -43.89222,-7.90291 -3.03028,-3.01098 -3.9678,-4.80317 -4.36747,-8.34903 -1.02654,-9.10752 5.0365,-19.95404 14.05998,-25.15269 2.29132,-1.32008 9.79104,-3.82504 16.66604,-5.56657 26.00134,-6.58648 35.32031,-9.12616 38.75898,-10.56293 l 3.54699,-1.48203 -0.63963,-11.7371 c -0.3518,-6.45541 -1.31705,-17.13711 -2.145,-23.73711 -0.94335,-7.51995 -1.50834,-20.53286 -1.51335,-34.85564 l -0.008,-22.85565 -2.62416,-3.14435 c -1.44329,-1.7294 -3.2089,-3.48498 -3.92359,-3.90129 -1.85322,-1.07951 -18.76392,-4.3886 -26.45225,-5.17618 -3.575,-0.36621 -9.875,-1.31018 -14,-2.0977 -4.125,-0.78753 -15.6,-2.36197 -25.5,-3.49877 -31.67107,-3.63675 -68.88006,-8.51099 -76.96176,-10.08172 -4.76362,-0.92584 -26.14297,-4.02157 -40.67115,-5.88918 -13.23429,-1.70128 -25.25116,-4.08794 -28.61145,-5.6825 -8.00646,-3.79932 -11.41367,-16.23536 -7.75701,-28.31248 2.16065,-7.13616 6.0636,-11.14567 13.00137,-13.35632 4.43421,-1.41291 29.34265,-4.35588 52,-6.14387 4.4,-0.34722 13.175,-1.26312 19.5,-2.03532 26.97799,-3.29368 39.90534,-4.61436 63.48712,-6.48593 13.74292,-1.0907 25.30079,-1.9831 25.68416,-1.9831 0.38336,0 0.83915,-7.61866 1.01287,-16.93035 0.28536,-15.29624 0.51675,-17.20251 2.39727,-19.75 1.14478,-1.55081 3.4674,-3.23899 5.16137,-3.75151 2.29747,-0.69511 3.23101,-1.68713 3.67452,-3.90469 0.84964,-4.24822 2.36963,-5.66345 6.08269,-5.66345 3.7289,0 5.2329,1.4145 6.09679,5.73397 0.47515,2.37573 1.4682,3.38099 4.52678,4.58243 5.77379,2.26801 6.87643,5.73985 6.87643,21.65148 l 0,13.03212 9.37576,0 9.37575,0 0.52054,-20.75 c 0.46222,-18.42571 0.81715,-21.81276 3.16856,-30.23777 1.45641,-5.21827 3.73588,-11.34405 5.06549,-13.61284 2.2977,-3.92074 8.71829,-10.39939 10.30619,-10.39939 3.09897,0 10.23871,9.07272 12.77924,16.23902 2.5272,7.1287 4.40847,25.2427 4.40847,42.4474 l 0,16.31358 10.42623,0 10.42622,0 0.32378,-14.43732 c 0.3214,-14.33161 0.34471,-14.45915 3.18335,-17.41909 1.57277,-1.63998 3.87785,-3.23735 5.1224,-3.54971 1.54758,-0.38842 2.46308,-1.5692 2.89636,-3.7356 0.88904,-4.44518 2.36567,-5.85828 6.12166,-5.85828 3.74144,0 5.23277,1.41387 6.10818,5.79092 0.4687,2.34346 1.2939,3.2483 3.38036,3.70656 1.51816,0.33345 3.82931,1.74296 5.13588,3.13226 2.2886,2.43351 2.38697,3.17587 2.68678,20.27582 l 0.31121,17.74982 14.68879,1.68398 c 8.07884,0.92619 21.2138,2.33866 29.1888,3.13882 7.975,0.80015 17.65,1.9118 21.5,2.47033 3.85,0.55852 14.65,1.95022 24,3.09266 9.35,1.14244 23.975,2.96559 32.5,4.05145 8.525,1.08586 19.55,2.47222 24.5,3.08081 12.23941,1.50478 22.05665,4.4984 25.94347,7.91108 2.17855,1.9128 3.79035,4.73359 5.01395,8.77487 1.72242,5.68875 1.72548,6.27338 0.0684,13.03542 -1.36788,5.58178 -2.54756,7.91691 -5.57598,11.03749 -3.87537,3.99327 -11.24518,7.06771 -16.94218,7.06771 -1.44613,0 -16.77695,1.7735 -34.0685,3.9411 -17.29154,2.16761 -45.38916,5.56752 -62.43916,7.55537 -17.05,1.98784 -34.6,4.04097 -39,4.5625 -17.22269,2.04139 -43.50363,5.0138 -53.48092,6.04878 -6.64832,0.68965 -11.95059,1.82552 -14.5,3.10624 -7.94683,3.99218 -7.51815,2.3582 -7.52707,28.691 -0.005,15.10122 -0.55401,27.9148 -1.52479,35.59501 -0.83424,6.6 -1.79736,17.67917 -2.14028,24.62039 l -0.62348,12.62038 4.89827,1.57827 c 2.69405,0.86805 11.19827,3.25168 18.89827,5.29696 29.31191,7.78587 31.52307,8.65375 38.56777,15.13797 6.03835,5.55793 8.93223,10.32427 8.93223,14.71178 0,4.55313 -3.98118,12.28252 -7.84388,15.22874 -3.43561,2.62047 -4.3772,2.80414 -17.64271,3.44145 -25.34618,1.2177 -52.95337,3.01793 -53.74041,3.50435 -0.42515,0.26276 -0.773,2.72164 -0.773,5.46418 0,8.55296 -6.34449,12.64195 -11.54545,7.44098 z"
         id="path3446"
         inkscape:connector-curvature="0" />
      <path
         style="fill:#aaaaaa"
         d="m 359.22642,488.03345 c -1.12717,-1.24551 -1.65499,-3.62301 -1.65499,-7.45469 0,-6.87912 2.94416,-6.20314 -33.5,-7.6916 -33.65149,-1.37439 -36.63689,-1.90538 -42.25,-7.51469 -3.95707,-3.95439 -4.24849,-4.61804 -4.22804,-9.6287 0.0369,-9.04985 5.17961,-17.57125 13.57272,-22.48994 3.77765,-2.21385 16.22343,-5.84355 37.40532,-10.90894 7.48549,-1.79006 12.6741,-3.30933 17.89343,-5.23935 l 4.39342,-1.62462 -0.63007,-11.55936 c -0.34654,-6.35765 -1.30749,-16.95937 -2.13544,-23.55937 -0.95428,-7.60705 -1.50829,-20.60302 -1.51335,-35.50044 l -0.008,-23.50045 -3.75,-4.0733 c -3.58301,-3.89192 -4.23984,-4.16695 -14.75,-6.17626 -6.05,-1.15662 -13.7,-2.38893 -17,-2.73847 -3.3,-0.34953 -9.375,-1.27412 -13.5,-2.05463 -4.125,-0.78052 -15.6,-2.34923 -25.5,-3.48603 -31.67107,-3.63675 -68.88006,-8.51099 -76.96176,-10.08172 -4.76362,-0.92584 -26.14297,-4.02157 -40.67115,-5.88918 -30.53355,-3.92511 -34.81912,-6.45749 -35.66531,-21.0749 -0.7626,-13.17337 3.29281,-21.07092 12.48545,-24.31427 2.28738,-0.80703 13.756,-2.42254 25.48582,-3.59001 34.48797,-3.43259 48.53113,-4.90629 62.32695,-6.54063 12.37486,-1.466 68.50252,-6.41517 73.25,-6.45896 2.2435,-0.0207 2.25,-0.0694 2.25,-16.87287 0,-15.88676 0.13072,-17.04676 2.28192,-20.25 1.67139,-2.48876 3.14294,-3.48172 5.5,-3.71124 2.82241,-0.27483 3.21808,-0.67442 3.21808,-3.25 0,-3.13034 3.01798,-6.93664 5.5,-6.93664 2.50594,0 5.5,3.81062 5.5,7 0,1.95682 0.50523,3 1.45295,3 2.8707,0 6.72356,2.44065 8.12205,5.14502 1.03496,2.0014 1.425,6.60122 1.425,16.80532 l 0,14.04966 9.25,-0.0153 c 5.0875,-0.008 9.75761,-0.34592 10.37803,-0.75 0.74876,-0.48766 1.30774,-7.79551 1.66251,-21.73469 0.56269,-22.10866 2.14449,-31.55191 6.82041,-40.71748 2.69518,-5.283 8.72588,-11.78252 10.93261,-11.78252 2.27369,0 7.26847,5.95443 10.48541,12.5 3.38794,6.8935 5.47103,23.86709 5.47103,44.57943 0,14.31174 0.22675,16.7936 1.58179,17.31358 0.86998,0.33384 6.04498,0.60699 11.5,0.60699 l 9.91821,0 0,-14.6 0,-14.6 3.4,-3.4 c 1.87,-1.87 4.345,-3.4 5.5,-3.4 1.66667,0 2.1,-0.61905 2.1,-3 0,-3.18938 2.99406,-7 5.5,-7 2.50594,0 5.5,3.81062 5.5,7 0,2.55721 0.38034,3 2.57692,3 1.51485,0 3.78167,1.20475 5.5,2.92308 l 2.92308,2.92307 0,17.84009 0,17.84008 16.25,1.78941 c 8.9375,0.98417 22.55,2.42567 30.25,3.20334 7.7,0.77767 17.15,1.87091 21,2.42944 3.85,0.55852 14.65,1.95022 24,3.09266 9.35,1.14244 23.975,2.96131 32.5,4.04194 8.525,1.08062 19.325,2.43841 24,3.0173 19.45341,2.40884 26.55025,6.01873 29.54233,15.02703 4.25527,12.81142 -3.04754,27.45369 -14.8515,29.77753 -4.79267,0.94352 -58.67282,7.56096 -111.19083,13.65619 -12.1,1.40432 -25.6,2.97918 -30,3.49968 -18.66223,2.20765 -43.73479,5.03477 -53.5,6.03252 -10.86279,1.1099 -17.72574,3.36091 -21.73754,7.1298 -2.22797,2.09307 -2.26258,2.49244 -2.27045,26.20115 -0.005,15.47201 -0.54803,28.36401 -1.51918,36.07569 -0.83115,6.6 -1.79624,17.49752 -2.14465,24.21672 l -0.63345,12.21672 2.90263,1.11064 c 2.41862,0.92544 35.32391,10.06932 41.90264,11.6441 1.1,0.26332 2.9,0.87102 4,1.35046 1.1,0.47944 3.60773,1.51059 5.57273,2.29144 4.34463,1.72647 10.28676,6.81349 14.09887,12.06996 3.57339,4.92729 3.69638,9.98145 0.39868,16.3832 -4.02418,7.81206 -6.68292,8.89208 -23.57028,9.57457 -20.6693,0.83534 -48.02123,2.55909 -51.25,3.22982 -2.61596,0.54344 -2.75,0.8523 -2.75,6.33684 0,4.31558 -0.45991,6.18177 -1.82874,7.42054 -2.41517,2.1857 -6.4556,2.10326 -8.51627,-0.17375 z"
         id="path3444"
         inkscape:connector-curvature="0" />
      <path
         style="fill:#939393"
         d="m 359.77143,487.66219 c -0.66,-0.66 -1.2,-3.5299 -1.2,-6.37756 0,-8.27003 2.18626,-7.73334 -38.5,-9.45112 -29.55969,-1.24802 -33.3837,-1.92169 -38.18981,-6.7278 -3.46026,-3.46026 -3.50945,-3.62658 -3.15399,-10.66563 0.30192,-5.97893 0.88378,-7.9651 3.55116,-12.12185 5.04376,-7.86002 10.52032,-10.5006 33.79264,-16.29346 28.2147,-7.02311 33.75115,-8.98777 34.92904,-12.3949 0.64478,-1.86505 0.34049,-8.37197 -0.95866,-20.5 -1.09078,-10.18277 -2.13104,-29.08036 -2.43683,-44.26768 -0.50393,-25.02891 -0.65246,-26.66654 -2.67562,-29.5 -1.17814,-1.65 -3.03122,-3.80347 -4.11796,-4.78549 -2.11151,-1.90805 -20.13132,-6.03668 -31.23997,-7.15759 -3.575,-0.36073 -9.875,-1.30021 -14,-2.08773 -4.125,-0.78753 -15.6,-2.361 -25.5,-3.49662 -31.21963,-3.58117 -67.29369,-8.30476 -77,-10.08249 -6.28914,-1.15187 -27.71175,-4.26956 -40.5,-5.89408 -29.24706,-3.71533 -33,-6.16956 -33,-21.58032 0,-9.3283 1.50585,-14.76768 5.07692,-18.33876 4.53688,-4.53687 5.61,-4.71897 59.42308,-10.08353 11.55,-1.15141 26.175,-2.71013 32.5,-3.46383 6.325,-0.75369 26.125,-2.58663 44,-4.07319 17.875,-1.48656 33.0625,-3.15248 33.75,-3.70205 0.91044,-0.72778 1.25,-5.54733 1.25,-17.74191 0,-15.42394 0.16325,-16.95023 2.07258,-19.37755 1.13992,-1.44917 3.07492,-2.63486 4.3,-2.63486 2.95068,0 4.62742,-1.81175 4.62742,-5 0,-3.1445 1.66995,-5 4.5,-5 2.83005,0 4.5,1.8555 4.5,5 0,3.05018 1.65557,5 4.24545,5 1.015,0 2.95,1.10454 4.3,2.45454 2.37793,2.37793 2.45455,2.90236 2.45455,16.8 0,9.82425 0.3782,14.72366 1.2,15.54546 1.60628,1.60628 15.57198,1.5381 18.8,-0.0918 l 2.5,-1.26229 0.57527,-21.47297 c 0.66972,-24.99854 2.48305,-33.88513 8.95875,-43.9043 3.80993,-5.8947 6.44753,-7.69609 9.71598,-6.63566 1.69424,0.54968 8.2212,10.00197 9.71348,14.067 1.83715,5.00443 3.47591,23.53307 3.50484,39.62755 0.0272,15.14103 0.26462,17.82115 1.68304,19 2.24061,1.86217 19.83484,2.54375 21.87863,0.84755 1.16742,-0.96886 1.47001,-4.15144 1.47001,-15.46118 0,-14.0537 0.0347,-14.2759 2.63636,-16.87756 1.45,-1.45 3.385,-2.63636 4.3,-2.63636 2.41907,0 4.06364,-2.02352 4.06364,-5 0,-3.1445 1.66995,-5 4.5,-5 2.83005,0 4.5,1.8555 4.5,5 0,3.15349 1.67134,5 4.52569,5 1.16912,0 3.09335,1.03004 4.27606,2.28897 2.01052,2.1401 2.1682,3.4502 2.42432,20.14216 0.22515,14.6743 0.54102,17.98786 1.77393,18.60952 1.3969,0.70435 10.32727,1.73635 47,5.43138 7.975,0.80354 17.65,1.91795 21.5,2.47648 3.85,0.55852 14.65,1.95022 24,3.09266 17.66557,2.15849 42.19765,5.23719 56,7.02783 21.32135,2.76611 27.08606,6.65829 28.2878,19.09918 1.07111,11.0884 -4.74073,21.43233 -13.2878,23.64969 -3.81342,0.98931 -23.41892,3.42667 -98.5,12.24552 -18.425,2.16416 -37.55,4.41131 -42.5,4.99366 -18.57123,2.18486 -43.32149,4.98803 -52.5,5.94607 -15.81612,1.65085 -20.5968,3.35212 -25.37421,9.02976 l -2.62579,3.12057 -0.008,24.17328 c -0.005,15.09309 -0.55442,28.55364 -1.46271,35.83469 -0.8001,6.41379 -1.75239,16.31379 -2.11619,22 -0.90809,14.19337 -1.63406,13.53822 21.98617,19.84153 32.88344,8.77529 39.61474,11.79672 45.57226,20.45569 3.67599,5.34287 4.05268,11.61339 1.0511,17.49698 -3.06086,5.99978 -6.67459,8.04685 -14.17701,8.03083 -6.93045,-0.0148 -34.30625,1.60086 -50.65371,2.98947 -5.66944,0.48157 -10.95694,1.4141 -11.75,2.07228 -0.91613,0.76033 -1.44191,3.08461 -1.44191,6.37424 0,5.79102 -1.17884,7.57756 -5,7.57756 -1.43,0 -3.14,-0.54 -3.8,-1.2 z"
         id="path3442"
         inkscape:connector-curvature="0" />
      <path
         style="fill:#6a6a6a"
         d="m 359.75021,487.5776 c -0.58637,-0.70652 -1.20397,-3.93347 -1.37245,-7.17099 -0.27579,-5.29961 -0.55555,-5.95839 -2.80633,-6.6085 -1.375,-0.39715 -15.325,-1.25663 -31,-1.90994 -33.94048,-1.41461 -37.1531,-1.95017 -42.25,-7.0434 -3.36277,-3.36033 -3.75,-4.27906 -3.75,-8.89705 0,-8.98663 4.71146,-17.07401 12.66073,-21.73259 3.98211,-2.33367 13.67941,-5.15687 37.33927,-10.87067 8.55056,-2.06493 15.14177,-4.0546 19.40298,-5.85709 l 3.90299,-1.65097 -0.63963,-11.7371 c -0.3518,-6.45541 -1.31705,-17.13711 -2.145,-23.73711 -0.95463,-7.60985 -1.50828,-20.60535 -1.51335,-35.5218 l -0.008,-23.52179 -4.25,-4.56748 c -4.16648,-4.47772 -4.46618,-4.6085 -15.25,-6.6549 -6.05,-1.14809 -13.7,-2.37341 -17,-2.72295 -3.3,-0.34953 -9.375,-1.27412 -13.5,-2.05463 -4.125,-0.78052 -15.6,-2.34826 -25.5,-3.48388 -32.96326,-3.78118 -67.26822,-8.2991 -79,-10.40421 -4.4,-0.78952 -12.275,-1.93618 -17.5,-2.54814 -5.225,-0.61196 -11.525,-1.52227 -14,-2.02292 -2.475,-0.50065 -9.71773,-1.62186 -16.09496,-2.49158 -15.48532,-2.11188 -17.91018,-2.88407 -21.86281,-6.96215 -3.1285,-3.22779 -3.40176,-4.04082 -3.82699,-11.38641 -0.52209,-9.01885 1.38414,-16.49272 5.09589,-19.97973 3.8323,-3.60025 9.7819,-4.9509 31.34627,-7.11606 37.90305,-3.80564 49.71114,-5.04387 62.3426,-6.53744 6.875,-0.81292 26.45,-2.62974 43.5,-4.03739 17.05,-1.40764 31.5625,-2.75385 32.25,-2.99156 0.93297,-0.32259 1.25095,-4.68842 1.25374,-17.2136 0.003,-14.84582 0.22755,-17.14845 1.94424,-19.96386 1.44494,-2.36974 2.78473,-3.26357 5.24626,-3.5 2.845,-0.27326 3.35227,-0.73566 3.63942,-3.31752 0.35717,-3.21129 2.71812,-6.5 4.66634,-6.5 1.9329,0 4.30754,3.27836 4.66634,6.44221 0.26418,2.32954 0.9753,3.10727 3.41499,3.73489 6.19595,1.59391 6.86553,3.41472 7.41867,20.17376 l 0.5,15.14914 9.24573,0.28747 c 5.08515,0.15811 10.09222,-0.16556 11.12682,-0.71926 1.72378,-0.92254 1.92566,-2.7864 2.41403,-22.28747 0.5601,-22.36515 2.12144,-31.77971 6.7872,-40.92536 2.74633,-5.38326 7.79913,-10.85538 10.02354,-10.85538 2.14128,0 7.19364,6.3781 10.04316,12.67847 2.81173,6.21682 4.85952,24.53616 4.85952,43.47277 0,20.0912 -0.79469,19.05202 14.24963,18.63375 l 10.25037,-0.28499 0.5,-15.14914 c 0.55314,-16.75904 1.22272,-18.57985 7.41867,-20.17376 2.43969,-0.62762 3.15081,-1.40535 3.41499,-3.73489 0.3588,-3.16385 2.73344,-6.44221 4.66634,-6.44221 1.93882,0 4.30818,3.28235 4.66634,6.46443 0.27715,2.46234 0.90286,3.07993 3.69427,3.64632 6.36812,1.29214 6.58665,1.98488 7.13939,22.63162 l 0.5,18.67684 15.5,1.74825 c 8.525,0.96154 22.475,2.44818 31,3.30364 8.525,0.85547 18.425,1.99502 22,2.53234 3.575,0.53732 14.15,1.90798 23.5,3.04592 9.35,1.13794 23.975,2.95312 32.5,4.03375 8.525,1.08062 19.325,2.43208 24,3.00324 18.64536,2.27795 25.69899,5.64715 28.39642,13.56367 1.9648,5.76637 1.98829,8.3153 0.14061,15.25774 -2.00042,7.51633 -7.14512,12.68496 -13.95712,14.02203 -4.70252,0.92302 -59.11319,7.60012 -111.07991,13.63137 -12.1,1.40432 -25.6,2.97918 -30,3.49968 -18.66223,2.20765 -43.73479,5.03477 -53.5,6.03252 -11.31204,1.1558 -17.7997,3.38561 -22.25,7.64735 l -2.75,2.63347 0,23.89975 c 0,15.77288 -0.53728,28.20573 -1.58006,36.56291 -0.86904,6.96474 -1.65654,18.04991 -1.75,24.63373 -0.16948,11.93842 -0.16304,11.97392 2.40123,13.21885 2.02899,0.98507 32.95737,9.73153 42.42883,11.99876 1.1,0.26332 2.9,0.87102 4,1.35046 1.1,0.47944 3.575,1.49869 5.5,2.265 8.01029,3.18875 16,12.61972 16,18.88624 0,4.75233 -2.91096,10.71597 -6.84748,14.02833 -2.74091,2.30632 -3.91867,2.51127 -17.79385,3.09639 -26.38112,1.11249 -50.58262,2.82005 -53.00105,3.73953 -2.1044,0.80009 -2.35762,1.52199 -2.35762,6.72112 0,3.20361 -0.54,6.36475 -1.2,7.02475 -1.58653,1.58653 -6.27753,1.53447 -7.62122,-0.0846 z"
         id="path3440"
         inkscape:connector-curvature="0" />
      <path
         style="fill:#545454"
         d="m 360.57143,486.86219 c -1.51347,-1.51347 -2,-3.33333 -2,-7.48095 0,-4.88594 -0.24426,-5.52907 -2.25,-5.92422 -1.2375,-0.2438 -15.00513,-0.97787 -30.59473,-1.63127 -32.90166,-1.37899 -37.89478,-2.23544 -43.03823,-7.38213 -3.33651,-3.33862 -3.61245,-4.06382 -3.5579,-9.35038 0.0662,-6.41678 1.98144,-10.94066 6.80281,-16.06868 4.87893,-5.18923 8.82841,-6.71079 33.90077,-13.0605 12.86712,-3.25867 25.15933,-6.76249 27.31602,-7.78626 l 3.92126,-1.86142 -0.16482,-12.47709 c -0.0907,-6.86241 -0.87815,-18.17552 -1.75,-25.14026 -1.02334,-8.17491 -1.58518,-20.61161 -1.58518,-35.08897 l 0,-22.42581 -2.75,-3.55992 c -1.5125,-1.95796 -3.55273,-4.06875 -4.53385,-4.69065 -2.16478,-1.37217 -17.77673,-4.58886 -26.71615,-5.5046 -3.575,-0.36621 -9.875,-1.31018 -14,-2.0977 -4.125,-0.78753 -15.6,-2.36197 -25.5,-3.49877 -31.67107,-3.63675 -68.88006,-8.51099 -76.96176,-10.08172 -2.77103,-0.53857 -11.56324,-1.87108 -19.53824,-2.96113 -25.9452,-3.54627 -28.38453,-3.90176 -37.5,-5.4649 -15.07013,-2.58426 -19.07183,-5.91398 -20.19582,-16.80444 -1.26083,-12.2162 3.74605,-21.4744 13.05198,-24.13438 4.60627,-1.31665 30.6552,-4.32374 52.14384,-6.0195 4.4,-0.34722 13.175,-1.26312 19.5,-2.03532 26.97799,-3.29368 39.90534,-4.61436 63.48712,-6.48593 13.74292,-1.0907 25.55542,-1.9831 26.25,-1.9831 0.96466,0 1.26288,-3.78592 1.26288,-16.03212 0,-11.56234 0.3946,-16.97653 1.41534,-19.41951 1.47637,-3.53343 4.13717,-5.54837 7.32686,-5.54837 1.38989,0 2.11692,-1.09737 2.81574,-4.25 0.85256,-3.84621 1.22709,-4.25 3.94206,-4.25 2.70254,0 3.09119,0.41075 3.91964,4.14254 0.81476,3.67012 1.36528,4.27605 4.8275,5.31336 5.74066,1.71994 6.75286,4.94442 6.75286,21.51198 l 0,13.53212 10.25,-0.0153 c 5.6375,-0.008 10.75694,-0.34592 11.37654,-0.75 0.74426,-0.48538 1.30994,-7.69121 1.667,-21.23469 0.45929,-17.42168 0.90393,-21.85146 2.96107,-29.5 1.33135,-4.95 3.21908,-10.575 4.19497,-12.5 2.35891,-4.65313 7.52275,-10 9.65769,-10 2.98477,0 8.93972,8.32308 11.04807,15.44158 2.07069,6.99137 3.84466,25.97286 3.84466,41.13785 0,13.8558 0.22944,16.29464 1.58179,16.81358 0.86998,0.33384 6.46256,0.60699 12.42795,0.60699 l 10.84617,0 0.32204,-14.92245 c 0.30452,-14.11028 0.45134,-15.05992 2.69763,-17.44813 1.30657,-1.38912 3.58631,-2.7916 5.06609,-3.11661 2.185,-0.47991 2.86598,-1.38211 3.62442,-4.80187 0.8438,-3.80462 1.22338,-4.21094 3.93391,-4.21094 2.70597,0 3.09073,0.40886 3.92572,4.17167 0.80407,3.6235 1.3445,4.25024 4.11271,4.76956 6.44972,1.20998 6.92672,2.71603 7.27126,22.95767 l 0.30968,18.19443 15.19032,1.70886 c 8.35467,0.93988 21.71531,2.36631 29.69031,3.16984 7.975,0.80354 17.65,1.91795 21.5,2.47648 3.85,0.55852 14.65,1.95022 24,3.09266 9.35,1.14244 23.975,2.96559 32.5,4.05145 8.525,1.08586 19.55,2.45731 24.5,3.04767 12.34738,1.4726 22.39725,4.46093 25.78667,7.66767 1.56354,1.47927 3.44602,4.90459 4.28888,7.80394 1.36194,4.68489 1.34335,5.79992 -0.19902,11.94013 -2.32234,9.24527 -6.64445,13.64703 -14.95308,15.22863 -5.47953,1.04307 -59.77471,7.72812 -111.92345,13.7805 -12.1,1.40432 -25.6,2.97918 -30,3.49968 -15.66756,1.85339 -43.15637,4.97006 -52.99685,6.00876 -10.73962,1.1336 -16.9711,3.30744 -20.98383,7.32017 l -2.51932,2.51932 0,23.1323 c 0,15.16852 -0.54742,27.49185 -1.59007,35.79545 -0.87455,6.96474 -1.66205,18.51316 -1.75,25.66316 l -0.15993,13 3.5,1.70594 c 1.925,0.93827 12.8539,4.2137 24.28645,7.27873 25.59496,6.86194 29.73766,8.65309 36.39302,15.73501 6.51051,6.92781 7.3678,10.47511 4.27117,17.67342 -3.63008,8.43835 -5.85539,9.43486 -22.92194,10.2646 -26.26274,1.27684 -51.49752,2.91008 -53.2787,3.44829 -1.38702,0.41911 -1.75,1.65559 -1.75,5.9614 0,4.09928 -0.49086,5.92347 -2,7.43261 -1.1,1.1 -2.45,2 -3,2 -0.55,0 -1.9,-0.9 -3,-2 z"
         id="path3438"
         inkscape:connector-curvature="0" />
      <path
         style="fill:#2a2a2a"
         d="m 360.28549,487.24292 c -0.39273,-0.39274 -0.71406,-3.28396 -0.71406,-6.42495 0,-8.99375 2.53117,-8.31115 -37,-9.97808 -30.77139,-1.29756 -35.25251,-2.03021 -39.71567,-6.49337 -2.85917,-2.85917 -3.28433,-3.9487 -3.28433,-8.41645 0,-9.15576 4.60485,-16.9077 12.62975,-21.26128 2.67864,-1.45319 10.72025,-4.06305 17.87025,-5.7997 21.79705,-5.29424 23.81802,-5.80131 29.21189,-7.32931 2.86653,-0.81205 6.91653,-2.30921 9,-3.32702 l 3.78811,-1.85057 -0.1753,-11.5 c -0.0964,-6.325 -0.88392,-17.19842 -1.75,-24.16316 -1.02698,-8.25858 -1.5747,-20.79593 -1.5747,-36.04485 l 0,-23.3817 -4.75,-5.05547 c -4.74944,-5.05489 -4.7513,-5.05573 -15.75,-7.13185 -6.05,-1.142 -13.7,-2.36235 -17,-2.71189 -3.3,-0.34953 -9.375,-1.27412 -13.5,-2.05463 -4.125,-0.78052 -15.6,-2.34826 -25.5,-3.48388 -32.96326,-3.78118 -67.26822,-8.2991 -79,-10.40421 -4.4,-0.78952 -12.275,-1.93618 -17.5,-2.54814 -5.225,-0.61196 -11.525,-1.52227 -14,-2.02292 -2.475,-0.50065 -9.71773,-1.62186 -16.09496,-2.49158 -15.1922,-2.07191 -17.96063,-2.91053 -21.37586,-6.47526 -2.53448,-2.64543 -2.90878,-3.87441 -3.3145,-10.88296 -0.4985,-8.61127 1.39058,-16.5753 4.62627,-19.50356 4.25349,-3.84936 6.61838,-4.22412 61.15905,-9.69198 11.275,-1.13035 25.675,-2.67033 32,-3.42218 6.325,-0.75186 25.9,-2.57478 43.5,-4.05095 17.6,-1.47617 32.5625,-3.14289 33.25,-3.70383 0.90788,-0.74075 1.25,-5.51594 1.25,-17.44711 0,-18.84547 0.92071,-22.32789 5.90324,-22.32789 3.38041,0 4.79783,-1.45539 5.25827,-5.39914 0.69453,-5.94863 6.83849,-5.6597 6.83849,0.32158 0,3.12152 1.63549,5.07756 4.24545,5.07756 1.015,0 2.95,1.10454 4.3,2.45454 2.37793,2.37793 2.45455,2.90236 2.45455,16.8 0,9.82425 0.3782,14.72366 1.2,15.54546 0.75707,0.75707 4.55055,1.2 10.27749,1.2 13.90709,0 13.17017,1.29251 13.80911,-24.22044 0.43881,-17.52195 0.91396,-22.67852 2.6908,-29.20198 3.33234,-12.23433 8.98891,-21.57758 13.06345,-21.57758 2.01029,0 7.09345,6.68385 9.54453,12.55011 2.44809,5.8591 4.41462,24.82653 4.41462,42.57961 0,20.59896 -0.53257,19.87028 14.52251,19.87028 6.50471,0 10.50293,-0.42544 11.27749,-1.2 0.8218,-0.8218 1.2,-5.72121 1.2,-15.54546 0,-13.89764 0.0766,-14.42207 2.45455,-16.8 1.35,-1.35 3.3199,-2.45454 4.37755,-2.45454 2.4829,0 3.90629,-1.77509 4.32941,-5.39914 0.69453,-5.94863 6.83849,-5.6597 6.83849,0.32158 0,3.28523 1.65906,5.07756 4.7,5.07756 1.265,0 3.2,0.9 4.3,2 1.85084,1.85084 2,3.33333 2,19.87755 0,13.13317 0.33173,18.12746 1.25,18.81922 1.18466,0.89243 13.99561,2.47503 46.75,5.77526 7.975,0.80354 17.65,1.91795 21.5,2.47648 3.85,0.55852 14.65,1.95022 24,3.09266 9.35,1.14244 23.975,2.96131 32.5,4.04194 8.525,1.08062 19.325,2.43208 24,3.00324 10.48802,1.28135 19.64639,3.69273 23.15652,6.09707 2.76798,1.89599 5.85274,9.16656 5.83161,13.74472 -0.007,1.41452 -0.65858,5.00176 -1.449,7.97163 -1.96126,7.36915 -6.28596,11.71965 -12.95087,13.02815 -4.7093,0.92456 -59.07949,7.59711 -111.08826,13.63324 -12.1,1.40432 -25.6,2.97918 -30,3.49968 -18.66223,2.20765 -43.73479,5.03477 -53.5,6.03252 -11.69732,1.19516 -17.83027,3.39333 -22.75,8.15403 l -3.25,3.14494 -0.008,24.05384 c -0.005,15.39057 -0.55016,28.37576 -1.51335,36.05383 -0.82795,6.6 -1.79266,17.2716 -2.14379,23.71466 -0.69261,12.70896 -0.29465,14.08313 4.62403,15.96688 2.076,0.79506 34.24116,9.71697 41.5411,11.52259 1.1,0.27208 3.41801,1.12496 5.15113,1.89528 1.73312,0.77032 3.5781,1.40059 4.09996,1.40059 1.93337,0 9.33719,6.13918 12.24527,10.15368 3.60391,4.97505 3.93829,10.09393 1.03154,15.79163 -3.62014,7.09606 -5.11073,7.67064 -21.71676,8.37111 -29.36266,1.23858 -50.85881,2.8586 -53.31114,4.01771 -2.19585,1.03788 -2.56083,1.97145 -3,7.67375 -0.49071,6.37154 -0.55639,6.49764 -3.53594,6.78951 -1.66977,0.16357 -3.35727,-0.0239 -3.75,-0.41666 z"
         id="path3436"
         inkscape:connector-curvature="0" />
      <path
         style="fill:#000000"
         d="m 360.57143,480.93362 c 0,-9.56135 -0.0611,-9.58413 -28.5,-10.61955 -48.43661,-1.76352 -51.5,-2.68364 -51.5,-15.46862 0,-4.51002 0.6193,-6.60229 3.25,-10.97994 4.4624,-7.4257 11.3913,-10.82082 31.75,-15.55733 23.15656,-5.38743 34.82007,-9.24175 36.7142,-12.13256 1.78895,-2.73028 1.38836,-14.0544 -1.2435,-35.15201 -0.90036,-7.21749 -1.45777,-20.67785 -1.46271,-35.32162 l -0.008,-23.6602 -4.06121,-5.13783 c -2.23367,-2.8258 -5.06257,-5.51853 -6.28644,-5.98385 -3.18576,-1.21122 -22.07268,-4.80818 -29.15235,-5.55199 -3.3,-0.3467 -9.375,-1.26897 -13.5,-2.04948 -4.125,-0.78052 -15.6,-2.34923 -25.5,-3.48603 -31.67107,-3.63675 -68.88006,-8.51099 -76.96176,-10.08172 -4.81756,-0.93633 -26.20712,-4.02983 -41.03824,-5.93523 -21.78522,-2.79881 -27.48191,-4.69233 -30.23526,-10.04987 -1.99799,-3.88775 -1.55632,-17.66437 0.72765,-22.69675 2.94592,-6.49089 6.55612,-7.65306 31.50761,-10.14276 36.79944,-3.67191 49.68077,-5.0195 63,-6.5908 13.08956,-1.54421 68.69459,-6.41392 73.67857,-6.45254 5.35206,-0.0415 5.82143,-1.61736 5.82143,-19.54513 0,-18.23404 0.73854,-21.46626 4.91052,-21.49093 3.87439,-0.0229 5.30355,-1.36475 5.99693,-5.63053 0.47998,-2.9529 1.08623,-3.85416 2.59255,-3.85416 1.50632,0 2.11257,0.90126 2.59255,3.85416 0.64729,3.98225 2.13284,5.60406 5.15745,5.63053 0.9625,0.008 2.65,0.91531 3.75,2.01531 1.81518,1.81518 2,3.33333 2,16.42857 0,17.81941 -0.1612,17.57143 11.42221,17.57143 9.79511,0 14.40937,-1.3347 15.03837,-4.34993 0.24669,-1.18254 0.65529,-11.37507 0.90799,-22.65007 0.36022,-16.07198 0.87551,-22.01201 2.38557,-27.5 3.04569,-11.06892 8.64171,-20.5 12.16387,-20.5 1.77049,0 5.06486,4.18849 8.45298,10.74716 2.58029,4.99489 4.62738,23.81119 4.64432,42.68926 0.008,9.38497 0.35508,17.59793 0.77035,18.25102 1.44201,2.26782 6.39611,3.31256 15.70801,3.31256 12.82692,0 12.50633,0.45043 12.50633,-17.57143 0,-13.09524 0.18482,-14.61339 2,-16.42857 1.1,-1.1 2.7875,-2.00689 3.75,-2.01531 3.02461,-0.0265 4.51016,-1.64828 5.15745,-5.63053 0.47998,-2.9529 1.08623,-3.85416 2.59255,-3.85416 1.50632,0 2.11257,0.90126 2.59255,3.85416 0.67266,4.13829 2.12899,5.60623 5.58602,5.63053 4.86921,0.0342 5.32143,1.82013 5.32143,21.01531 0,19.91117 0.33623,21 6.48477,21 1.83805,0 10.91841,0.8841 20.17857,1.96468 9.26016,1.08057 21.78666,2.43382 27.83666,3.00722 6.05,0.57339 13.925,1.48488 17.5,2.02551 3.575,0.54063 14.15,1.91401 23.5,3.05195 9.35,1.13794 23.975,2.9574 32.5,4.04326 8.525,1.08586 19.55,2.46297 24.5,3.06024 9.6018,1.15857 17.63781,3.26962 21.16521,5.56009 2.73335,1.77487 5.33479,8.17548 5.33479,13.12579 0,10.94556 -5.92093,19.51847 -14.2078,20.57145 -14.78127,1.87821 -82.57435,10.04324 -104.7922,12.62123 -14.575,1.69117 -30.1,3.50256 -34.5,4.02531 -16.72459,1.98702 -43.40643,5.00596 -53.47013,6.04993 -13.19084,1.36837 -19.79307,3.78195 -24.45215,8.93899 l -3.57772,3.96011 -0.008,24.24712 c -0.005,15.3657 -0.55099,28.60045 -1.49045,36.13212 -2.36002,18.92047 -2.97261,32.86631 -1.55967,35.50641 1.63164,3.04875 4.90655,4.29628 26.48382,10.08865 29.70305,7.9737 34.85443,10.28261 40.58198,18.18926 3.60674,4.97895 3.9223,10.08743 0.97945,15.85589 -3.10582,6.0879 -4.748,6.66401 -20.98714,7.36267 -21.00217,0.90357 -45.90949,2.48218 -50.26982,3.18606 -5.51441,0.89018 -6.73018,2.60585 -6.73018,9.49749 0,5.92063 -0.004,5.92857 -3,5.92857 -2.99598,0 -3,-0.008 -3,-5.92857 z"
         id="path3434"
         inkscape:connector-curvature="0" />
    </g>
  </g>
</svg>
