<?xml version="1.0" encoding="UTF-8" standalone="no"?>
<!-- Created with Inkscape (http://www.inkscape.org/) -->

<svg
   xmlns:dc="http://purl.org/dc/elements/1.1/"
   xmlns:cc="http://creativecommons.org/ns#"
   xmlns:rdf="http://www.w3.org/1999/02/22-rdf-syntax-ns#"
   xmlns:svg="http://www.w3.org/2000/svg"
   xmlns="http://www.w3.org/2000/svg"
   xmlns:sodipodi="http://sodipodi.sourceforge.net/DTD/sodipodi-0.dtd"
   xmlns:inkscape="http://www.inkscape.org/namespaces/inkscape"
   width="501.34958"
   height="321.94467"
   id="svg2"
   version="1.1"
   inkscape:version="0.48.4 r9939"
   sodipodi:docname="Ju-52.svg">
  <defs
     id="defs4" />
  <sodipodi:namedview
     id="base"
     pagecolor="#ffffff"
     bordercolor="#666666"
     borderopacity="1.0"
     inkscape:pageopacity="0.0"
     inkscape:pageshadow="2"
     inkscape:zoom="0.7"
     inkscape:cx="199.57106"
     inkscape:cy="174.85297"
     inkscape:document-units="px"
     inkscape:current-layer="layer1"
     showgrid="false"
     inkscape:window-width="645"
     inkscape:window-height="500"
     inkscape:window-x="0"
     inkscape:window-y="25"
     inkscape:window-maximized="0"
     fit-margin-top="0"
     fit-margin-left="0"
     fit-margin-right="0"
     fit-margin-bottom="0" />
  <metadata
     id="metadata7">
    <rdf:RDF>
      <cc:Work
         rdf:about="">
        <dc:format>image/svg+xml</dc:format>
        <dc:type
           rdf:resource="http://purl.org/dc/dcmitype/StillImage" />
      </cc:Work>
    </rdf:RDF>
  </metadata>
  <g
     inkscape:label="Layer 1"
     inkscape:groupmode="layer"
     id="layer1"
     transform="translate(-116.00979,-366.06913)">
    <g
       id="g3209"
       transform="translate(-32.324885,22.223356)">
      <path
         style="fill:#d3d3d3"
         d="m 394.00003,663.79077 c -1.22682,-1.22682 -2,-3.33333 -2,-5.44897 l 0,-3.44898 -3.74489,1.56472 c -2.7954,1.16799 -5.52097,1.40742 -10.75,0.94432 -3.85281,-0.34122 -18.19335,-1.4998 -31.86787,-2.57462 -27.47754,-2.15974 -28.81394,-2.54239 -30.67289,-8.78243 -1.38109,-4.63597 10e-4,-8.93584 3.26031,-10.14144 1.96951,-0.72857 2.25511,-1.54143 2.26454,-6.44528 0.0199,-10.35985 1.75166,-10.89551 41.2608,-12.76306 17.13926,-0.81015 25.25,-1.55057 25.25,-2.30503 0,-0.61132 -0.64899,-6.73373 -1.4422,-13.60536 -2.50114,-21.6676 -3.47757,-38.52157 -4.18037,-72.15661 l -0.68249,-32.66275 -4.09747,-1.035 c -2.25361,-0.56926 -7.02247,-1.2461 -10.59747,-1.50409 -3.575,-0.25799 -15.44455,-1.64378 -26.37679,-3.07953 -10.93223,-1.43575 -25.33223,-3.24878 -32,-4.02895 -33.62738,-3.93463 -47.82819,-5.70523 -63.72735,-7.94574 -9.56772,-1.34828 -20.09586,-2.73393 -23.39586,-3.07923 -6.36675,-0.66618 -35.65579,-4.50731 -54,-7.08187 -6.05,-0.8491 -12.0007,-2.19362 -13.22377,-2.98782 -1.36032,-0.88333 -2.84919,-3.59537 -3.8345,-6.98472 -1.46988,-5.0562 -1.47245,-5.75173 -0.0294,-7.95408 1.27522,-1.94622 1.35755,-2.90448 0.42533,-4.95048 -1.40518,-3.08403 0.15681,-9.32302 2.97193,-11.87067 1.85171,-1.67576 26.65011,-6.17638 47.69043,-8.65524 5.5,-0.64798 12.475,-1.58321 15.5,-2.07828 3.025,-0.49508 12.25,-1.84265 20.5,-2.9946 8.25,-1.15196 18.6,-2.77919 23,-3.61607 4.4,-0.83688 12.95,-2.11886 19,-2.84884 14.08965,-1.70001 25.30535,-3.18757 33.5,-4.44316 3.575,-0.54776 6.88434,-1.00497 7.35408,-1.01603 0.46975,-0.0111 0.54782,-3.50761 0.17351,-7.77011 -0.81985,-9.33591 0.26803,-12.84014 4.54438,-14.63821 1.69796,-0.71394 3.62423,-2.38116 4.28061,-3.70493 1.47299,-2.97073 7.58045,-3.8974 9.60546,-1.45742 0.70777,0.85281 2.3772,1.55056 3.70986,1.55056 4.19655,0 6.90285,3.91167 8.93558,12.91542 l 1.86705,8.26991 3.01474,-0.54681 c 11.58155,-2.10065 15.63781,-2.62762 20.26473,-2.63273 l 5.25,-0.006 0,-8.3185 c 0,-4.69254 0.69319,-10.65273 1.59029,-13.67357 0.87465,-2.94529 1.35076,-6.55267 1.05802,-8.01639 -0.29275,-1.46373 0.12508,-3.92835 0.92849,-5.47694 1.2888,-2.48417 1.28197,-3.01317 -0.058,-4.49385 -2.07322,-2.29088 -1.91253,-7.35443 0.29684,-9.35389 0.99859,-0.90371 3.26457,-1.9329 5.03551,-2.28709 1.77095,-0.35419 3.66975,-1.48453 4.21957,-2.51187 1.29222,-2.41454 5.56474,-2.41761 6.85596,-0.005 0.57011,1.06525 2.56515,2.11743 4.65921,2.45725 2.0142,0.32686 4.50637,1.35827 5.53816,2.29203 2.26527,2.05004 2.45656,7.08872 0.35719,9.4085 -1.32396,1.46296 -1.33745,2.02776 -0.10513,4.40306 0.86156,1.66066 1.21029,4.24111 0.89291,6.60729 -0.32152,2.39711 0.10128,5.43706 1.10513,7.94592 1.05385,2.63386 1.62585,7.04668 1.62585,12.54319 l 0,8.47976 5.41203,0 c 2.97662,0 8.93912,0.67492 13.25,1.49983 4.31088,0.8249 8.31654,1.4999 8.90146,1.5 0.58492,9e-5 2.10655,-3.60958 3.38139,-8.02149 2.40948,-8.33862 6.01049,-12.97834 10.07283,-12.97834 1.02534,0 2.15953,-0.47776 2.52041,-1.06168 0.36089,-0.58393 1.79819,-1.49589 3.194,-2.02657 2.9247,-1.11197 7.26788,1.07658 7.26788,3.66233 0,0.84039 1.59097,2.19272 3.53549,3.0052 4.76395,1.9905 5.53754,4.54261 4.04333,13.3393 -0.87232,5.13553 -0.9186,7.36069 -0.15734,7.5644 0.59319,0.15874 2.87852,0.77206 5.07852,1.36296 4.77425,1.2823 18.19435,3.58671 36,6.18167 7.15,1.04203 16.825,2.57494 21.5,3.40646 16.75763,2.98063 32.62797,5.58265 40,6.55821 10.55887,1.39727 30.95332,4.56398 41,6.3662 4.675,0.83862 11.425,1.84576 15,2.23809 5.50265,0.60387 6.99868,1.21124 9.75,3.95838 2.55171,2.54782 3.24671,4.07226 3.23469,7.09505 -0.008,2.1175 -0.41775,4.48574 -0.90961,5.26276 -0.59836,0.94526 -0.23504,2.30444 1.09797,4.10743 4.14984,5.61296 -0.88854,17.95435 -7.34613,17.99415 -6.02874,0.0371 -46.35946,3.76587 -69.82692,6.45574 -6.875,0.78803 -21.95,2.3803 -33.5,3.53838 -11.55,1.15808 -23.25,2.51705 -26,3.01993 -4.4105,0.80652 -30.08656,3.83603 -60,7.07938 -5.5,0.59634 -12.44515,1.49104 -15.43366,1.98824 -2.98851,0.49719 -7.30886,0.90399 -9.60078,0.90399 -2.29191,0 -5.58426,0.49402 -7.31634,1.09783 l -3.14922,1.09782 -0.0328,16.15218 c -0.0465,22.92508 -2.19322,54.58691 -5.35128,78.92627 -0.84024,6.47575 -1.75516,12.14213 -2.03317,12.59196 -0.27801,0.44983 -0.89374,3.29381 -1.36829,6.31997 l -0.86281,5.5021 14.07416,1.19499 c 7.74079,0.65725 17.89916,1.63688 22.57416,2.17696 4.675,0.54008 12.70757,1.37115 17.85016,1.84682 6.2274,0.576 9.87554,1.39023 10.92326,2.43795 1.67991,1.67991 2.0906,6.56054 0.89658,10.65515 -0.61147,2.09694 -0.25034,2.76904 2.23994,4.16873 5.33877,3.00073 5.38999,12.07665 0.0901,15.95767 -2.1763,1.59365 -6.04954,1.97723 -29.9135,2.96242 -32.66254,1.34842 -37.17578,1.11538 -40.59419,-2.09604 l -2.49232,-2.34141 0,4.67432 c 0,4.55609 -2.3738,8.67431 -5,8.67431 -0.55,0 -1.9,-0.9 -3,-2 z"
         id="path3223"
         inkscape:connector-curvature="0" />
      <path
         style="fill:#ababab"
         d="m 394.20003,663.59077 c -0.66,-0.66 -1.2,-3.34482 -1.2,-5.96627 l 0,-4.76628 -3.56717,2.10468 c -3.99098,2.35474 0.26136,2.46319 -45.30943,-1.15557 -26.79619,-2.12787 -27.53285,-2.35173 -28.72949,-8.73037 -0.82009,-4.37144 0.8422,-8.05636 3.99075,-8.8466 2.31313,-0.58056 2.42139,-0.91862 1.90294,-5.94197 -0.48756,-4.72395 -0.27053,-5.6056 1.91883,-7.79496 2.98212,-2.98212 4.80094,-3.20565 39.54357,-4.8599 16.6165,-0.79118 25.25,-1.5703 25.25,-2.27864 0,-0.59201 -0.64899,-6.69862 -1.4422,-13.57025 -2.53359,-21.94866 -3.491,-38.6737 -4.18762,-73.15311 l -0.68004,-33.65924 -3.09507,-0.64931 c -1.70229,-0.35713 -6.92007,-1.03252 -11.59507,-1.50089 -4.675,-0.46837 -17.44455,-2.02929 -28.37679,-3.46873 -10.93223,-1.43943 -25.33223,-3.25548 -32,-4.03565 -33.62738,-3.93463 -47.82819,-5.70523 -63.72735,-7.94574 -9.56772,-1.34828 -20.09586,-2.73393 -23.39586,-3.07923 -6.5193,-0.68214 -36.38712,-4.60434 -53.99991,-7.09119 -6.57246,-0.928 -11.68563,-2.1737 -12.70356,-3.09492 -0.93701,-0.84798 -2.24579,-3.9643 -2.9084,-6.92515 -1.07629,-4.80938 -1.01322,-5.59501 0.59157,-7.36828 1.47557,-1.63049 1.56984,-2.25781 0.52793,-3.51324 -1.74888,-2.10727 -0.65856,-9.30271 1.779,-11.74027 2.15181,-2.1518 20.12619,-5.38105 57.21337,-10.27886 25.74943,-3.40053 52.03485,-7.35613 54,-8.12628 0.825,-0.32332 6.9,-1.21052 13.5,-1.97155 11.95614,-1.37865 18.07923,-2.16376 34.814,-4.4639 l 8.814,-1.21146 -0.6915,-8.83938 c -0.75793,-9.68872 0.61872,-13.87749 4.56087,-13.87749 1.14617,0 2.57624,-1.20857 3.46598,-2.92913 0.83309,-1.61102 2.40265,-3.21095 3.48791,-3.5554 2.1346,-0.6775 6.04874,0.95301 6.04874,2.51971 0,0.53065 1.50526,0.96482 3.34501,0.96482 4.62476,0 6.15791,2.13595 8.50825,11.85351 1.11124,4.59443 2.25661,8.58969 2.54528,8.87836 0.28867,0.28867 2.67959,-0.0249 5.31315,-0.69671 2.63357,-0.67186 9.17581,-1.47006 14.53831,-1.77378 l 9.75,-0.55221 0,-9.17308 c 0,-5.31717 0.64233,-11.33603 1.52807,-14.31866 0.84044,-2.83006 1.24083,-6.29002 0.88976,-7.68878 -0.40627,-1.61872 -0.0364,-3.46185 1.01749,-5.07029 1.56496,-2.38842 1.54358,-2.66973 -0.38976,-5.12757 -1.12506,-1.43028 -2.04556,-3.23528 -2.04556,-4.0111 0,-2.44203 4.73529,-6.31969 7.71742,-6.31969 1.95319,0 3.1089,-0.68513 3.79545,-2.25 0.55029,-1.25429 1.87221,-2.25 2.98713,-2.25 1.11492,0 2.43684,0.99571 2.98713,2.25 0.7375,1.68101 1.82375,2.25 4.29545,2.25 2.17921,0 4.14605,0.83772 5.76287,2.45454 2.98823,2.98823 3.0666,4.49764 0.40899,7.87625 -1.9002,2.41572 -1.93345,2.77161 -0.46794,5.00826 1.10967,1.69358 1.39128,3.57305 0.94941,6.33636 -0.41657,2.60511 -0.0905,5.21554 0.96794,7.74872 1.07649,2.57641 1.59615,6.87326 1.59615,13.19799 l 0,9.37788 6.38953,0 c 3.51424,0 10.10032,0.70392 14.63573,1.56428 4.5354,0.86035 8.56397,1.19785 8.95238,0.75 0.3884,-0.44786 1.51222,-3.88843 2.49737,-7.64573 2.04746,-7.80889 5.54355,-12.66855 9.11388,-12.66855 1.32611,0 3.31111,-0.9 4.41111,-2 2.99277,-2.99277 5.76575,-2.51135 8.07459,1.40185 1.10393,1.87102 3.10076,3.67633 4.43741,4.01181 3.92619,0.98541 4.63386,3.52392 3.3635,12.06528 -0.62167,4.17977 -0.91609,7.81381 -0.65427,8.07562 1.53219,1.53219 18.65409,4.88429 43.27877,8.47305 7.15,1.04203 16.825,2.57494 21.5,3.40646 16.75763,2.98063 32.62797,5.58265 40,6.55821 10.34653,1.36917 30.78691,4.53669 41,6.35351 4.675,0.83164 11.2,1.82031 14.5,2.19704 7.78912,0.88923 11.5,4.0225 11.5,9.71 0,2.13326 -0.47612,4.76829 -1.05804,5.85562 -0.85607,1.59958 -0.6389,2.31637 1.13763,3.75491 1.96499,1.59116 2.12271,2.36194 1.50119,7.33639 -1.1009,8.81131 -2.2359,9.41761 -20.08078,10.72683 -8.25,0.60528 -19.05,1.53289 -24,2.06136 -4.95,0.52846 -13.725,1.43667 -19.5,2.01822 -5.775,0.58156 -15.675,1.72038 -22,2.5307 -20.99073,2.68924 -37.86042,4.46314 -42.44404,4.46314 -2.48999,0 -6.44622,0.44567 -8.79161,0.99038 -3.70678,0.86088 -23.64504,3.25538 -59.26435,7.11739 -5.5,0.59634 -12.44515,1.49104 -15.43366,1.98824 -2.98851,0.49719 -7.14455,0.90399 -9.23565,0.90399 -2.09109,0 -5.83345,0.54333 -8.31634,1.2074 l -4.51435,1.20741 -0.0328,17.04259 c -0.0595,30.93653 -4.39986,82.70548 -7.92601,94.536 -0.57264,1.92137 -1.04119,4.88074 -1.04119,6.57637 l 0,3.08298 15.75,1.25677 c 8.6625,0.69123 18.225,1.64038 21.25,2.10923 3.025,0.46886 10.16478,1.15872 15.86619,1.53304 14.26076,0.93627 15.94542,2.83926 12.5693,14.19821 -0.54142,1.82158 -0.27653,2.25 1.39117,2.25 5.06648,0 7.19167,10.75525 2.91844,14.76974 -2.09381,1.96703 -3.96914,2.19358 -26.25,3.17109 -13.19731,0.57899 -27.91694,1.05416 -32.7103,1.05594 -8.32433,0.003 -8.87374,-0.13596 -12.25,-3.10036 l -3.5348,-3.10359 0,5.90359 c 0,5.9968 -1.11122,8.30359 -4,8.30359 -0.88,0 -2.14,-0.54 -2.8,-1.2 z"
         id="path3221"
         inkscape:connector-curvature="0" />
      <path
         style="fill:#939393"
         d="m 394.70888,663.16629 c -0.38987,-0.38987 -0.70885,-2.62205 -0.70885,-4.9604 0,-6.74728 -0.69446,-7.62975 -3.66588,-4.65833 -2.50624,2.50624 -2.6693,2.52834 -13.68529,1.85479 -6.13186,-0.37492 -21.4705,-1.50824 -34.08587,-2.51849 -21.61237,-1.73075 -23.04457,-1.96963 -24.79912,-4.1364 -1.29255,-1.59624 -1.77059,-3.54703 -1.56296,-6.37814 0.25367,-3.45879 0.76361,-4.2833 3.35588,-5.42599 2.97318,-1.31059 3.04558,-1.50205 2.64772,-7.00244 -0.68216,-9.43078 -1.53003,-9.15729 34.23671,-11.04345 16.75683,-0.88367 30.91156,-2.05667 31.45497,-2.60667 0.65091,-0.65882 0.51603,-5.09421 -0.39533,-13 -2.49265,-21.62303 -3.44541,-38.49825 -4.13612,-73.25869 -0.45376,-22.83581 -1.04484,-34.53327 -1.77272,-35.08217 -1.5993,-1.20603 -11.12428,-3.02718 -18.59199,-3.55474 -6.21545,-0.43909 -55.28966,-6.38651 -71,-8.60465 -4.125,-0.58241 -11.775,-1.48427 -17,-2.00413 -5.225,-0.51985 -18.95,-2.27635 -30.5,-3.90332 -11.55,-1.62698 -23.7,-3.24164 -27,-3.58813 -5.71258,-0.59982 -33.28491,-4.13991 -51.5,-6.61223 -11.19525,-1.51952 -12.82622,-2.23178 -14.54837,-6.35346 -1.91706,-4.58817 -1.83607,-8.4562 0.22474,-10.73337 1.28514,-1.42006 1.40183,-2.12691 0.5,-3.02874 -2.59943,-2.59943 -0.61859,-12.20929 2.72539,-13.2219 2.61757,-0.79265 38.38031,-6.25559 55.59824,-8.49291 18.45609,-2.39821 24.13187,-3.23315 42,-6.17843 7.15,-1.17857 17.725,-2.72996 23.5,-3.44754 21.79462,-2.70812 40.47787,-5.25642 43.66327,-5.95544 2.05966,-0.45198 2.15545,-0.96577 2,-10.72743 l -0.16327,-10.25272 3.12177,-1.5 c 1.71697,-0.825 3.83354,-2.7375 4.70349,-4.25 1.8914,-3.28842 4.84016,-3.55164 8.40187,-0.75 1.39842,1.1 3.59653,2 4.88468,2 3.04465,0 4.73015,2.8329 6.83082,11.48088 2.15362,8.86601 2.76807,9.6176 6.85948,8.39053 1.75884,-0.5275 8.03628,-1.23182 13.94986,-1.56516 5.91359,-0.33335 11.15998,-1.10112 11.65864,-1.70617 0.49867,-0.60504 1.15889,-6.05008 1.46717,-12.10008 0.7702,-15.11536 1.52583,-21.61222 2.81517,-24.20466 0.85881,-1.72679 0.73997,-2.74876 -0.54823,-4.71482 -0.9046,-1.38058 -1.64472,-3.35624 -1.64472,-4.39035 0,-2.60751 3.13774,-5.19017 6.30569,-5.19017 1.72127,0 3.22157,-0.87506 4.28627,-2.5 2.0743,-3.16578 3.74178,-3.16578 5.81608,0 1.20314,1.83622 2.52009,2.5 4.96003,2.5 5.81299,0 8.2266,4.63659 4.98721,9.58052 -1.38713,2.11703 -1.44355,2.88602 -0.36028,4.91014 0.71725,1.34019 1.04614,3.86841 0.7448,5.72534 -0.2968,1.82895 0.0836,5.11606 0.84523,7.30468 0.77844,2.23683 1.39145,7.9422 1.39991,13.02932 0.009,5.68658 0.46104,9.49598 1.21506,10.25 0.72777,0.72777 4.3679,1.21402 9.25,1.23562 4.4275,0.0196 10.58418,0.64161 13.6815,1.38226 3.09733,0.74064 6.07519,1.06211 6.61747,0.71437 0.54228,-0.34774 1.75977,-3.33225 2.70554,-6.63225 2.89937,-10.11656 4.31989,-12.36216 8.53867,-13.49816 2.07561,-0.55891 4.33136,-1.68796 5.01278,-2.50902 2.09108,-2.51959 5.89778,-1.82261 7.75916,1.42065 0.91966,1.6024 3.03623,3.5149 4.70349,4.25 3.30211,1.45589 3.48023,2.51722 2.47596,14.75308 l -0.44457,5.41654 5,1.34426 c 6.20632,1.66857 23.16783,4.7342 43.5,7.86221 8.525,1.31154 21.20239,3.2602 28.17198,4.33037 6.96959,1.07018 13.5083,2.21121 14.53047,2.53563 1.02216,0.32442 6.56977,1.24479 12.32801,2.04527 11.93149,1.65863 30.55941,4.48512 49.35869,7.48939 7.08903,1.13288 13.27653,2.05978 13.75,2.05978 0.47347,0 1.76085,0.9 2.86085,2 2.19667,2.19667 2.85763,10.74237 0.97637,12.62363 -0.69817,0.69817 -0.38023,1.6059 1,2.85499 3.39893,3.07598 2.07103,14.77208 -1.80995,15.942 -1.94833,0.58733 -30.8864,3.64553 -31.9474,3.37623 -1.40263,-0.35601 -31.11911,2.60716 -42.71902,4.25972 -9.7711,1.39201 -33.16754,3.96292 -44.5,4.88986 -5.225,0.42738 -20.525,2.16963 -34,3.87167 -23.23954,2.93541 -43.69691,5.34525 -61.5,7.24458 -8.84816,0.94396 -12.37467,1.73692 -14.25,3.2042 -0.9134,0.71465 -1.25883,5.72472 -1.28277,18.60556 -0.0587,31.58063 -3.57479,74.79957 -7.5892,93.28512 -0.91463,4.21165 -1.41496,8.30381 -1.11186,9.09369 0.40035,1.04328 3.24323,1.62515 10.39246,2.12708 5.41276,0.38002 13.89137,1.09406 18.84137,1.58677 4.95,0.4927 14.85,1.42527 22,2.07237 7.15,0.64711 13.61062,1.67344 14.35694,2.28074 1.35595,1.10338 1.19238,8.26034 -0.26825,11.7374 -0.46598,1.10926 0.28834,1.97006 2.62891,3 3.02229,1.32993 3.30602,1.85095 3.58051,6.57485 0.20393,3.50956 -0.16637,5.59494 -1.17206,6.60063 -1.81383,1.81383 -10.81448,2.51287 -43.62605,3.3882 l -24.5,0.6536 -2.75,-2.77281 c -1.5125,-1.52504 -2.75,-3.23644 -2.75,-3.80311 0,-0.56667 -0.3375,-0.69389 -0.75,-0.28272 -0.4125,0.41117 -0.975,3.74867 -1.25,7.41666 -0.43146,5.75483 -0.77982,6.70914 -2.54115,6.96127 -1.12263,0.1607 -2.36013,-0.0268 -2.75,-0.41666 z"
         id="path3219"
         inkscape:connector-curvature="0" />
      <path
         style="fill:#6b6b6b"
         d="m 394.70888,663.16629 c -0.38987,-0.38987 -0.70885,-3.78385 -0.70885,-7.54219 0,-3.88889 -0.43089,-6.83333 -1,-6.83333 -0.55,0 -1,0.64234 -1,1.42742 0,0.78508 -1.2375,2.41179 -2.75,3.61491 -3.11837,2.48051 -0.47674,2.54031 -45.17793,-1.0226 -17.02758,-1.35718 -24.83861,-2.3577 -25.78354,-3.30263 -0.74559,-0.74558 -1.62605,-3.02212 -1.95658,-5.05898 -0.67099,-4.13482 1.54091,-7.65812 4.80771,-7.65812 1.63482,0 1.76432,-0.62525 1.21603,-5.87102 -0.52765,-5.04832 -0.33087,-6.1538 1.40426,-7.88893 2.46219,-2.46219 5.47316,-2.80128 39.09242,-4.40253 17.22587,-0.82045 25.49425,-1.57721 25.79497,-2.36089 0.24343,-0.63436 -0.23405,-6.96362 -1.06106,-14.06501 -2.3749,-20.3929 -3.64293,-42.44328 -4.39185,-76.37212 l -0.69443,-31.4605 -3.5,-0.88007 c -1.925,-0.48404 -7.325,-1.24887 -12,-1.69963 -4.675,-0.45075 -17.44455,-1.99727 -28.37679,-3.43671 -10.93223,-1.43943 -25.33223,-3.25479 -32,-4.03412 -35.61506,-4.16269 -47.70206,-5.66758 -63.62321,-7.92138 -9.625,-1.36252 -20.2,-2.76087 -23.5,-3.10745 -8.16015,-0.85702 -41.60386,-5.23901 -54.5,-7.14092 -5.775,-0.85168 -11.03801,-1.99059 -11.69558,-2.5309 -0.65757,-0.54031 -1.7544,-3.47947 -2.43741,-6.53148 -1.13733,-5.0821 -1.08508,-5.66371 0.62079,-6.91108 1.63191,-1.19328 1.69975,-1.6663 0.54769,-3.81894 -1.5542,-2.90405 -0.79864,-9.23174 1.36008,-11.39046 1.33984,-1.33984 28.87601,-6.49395 40.60443,-7.60018 4.2066,-0.39676 25.58106,-3.27528 41.5,-5.58884 3.85,-0.55953 12.4,-1.94957 19,-3.08896 6.6,-1.1394 16.95,-2.67451 23,-3.41136 6.05,-0.73685 14.375,-1.79655 18.5,-2.35489 4.125,-0.55834 11.69873,-1.56829 16.83051,-2.24434 l 9.33051,-1.22917 -0.68914,-9.19182 c -0.74347,-9.91649 0.16456,-13.4663 3.44461,-13.4663 1.01537,0 3.04744,-1.575 4.51571,-3.5 3.05771,-4.00886 4.51703,-4.31857 7.0678,-1.5 1.09668,1.21181 3.07997,2 5.03254,2 1.77242,0 3.68782,0.5625 4.25646,1.25 0.56865,0.6875 1.95013,5.02889 3.06998,9.64753 1.11984,4.61864 2.4733,8.83475 3.00769,9.36914 0.62881,0.62881 2.79191,0.53492 6.13103,-0.26612 2.83768,-0.68075 9.51156,-1.52186 14.83086,-1.86914 l 9.67144,-0.63141 0.59501,-11.5 c 0.32725,-6.325 1.13971,-12.83243 1.80545,-14.46097 0.66575,-1.62853 0.94351,-4.02458 0.61723,-5.32456 -0.32627,-1.29998 -0.0579,-3.84395 0.59634,-5.65327 0.99796,-2.75982 0.92351,-3.66951 -0.46223,-5.64794 -0.90849,-1.29705 -1.6518,-2.93314 -1.6518,-3.63577 0,-2.32111 3.93517,-5.27749 7.02475,-5.27749 2.30627,0 3.25053,-0.59384 3.97525,-2.5 0.52277,-1.375 1.64777,-2.5 2.5,-2.5 0.85223,0 1.97723,1.125 2.5,2.5 0.76574,2.01404 1.63565,2.5 4.47525,2.5 2.19142,0 4.2813,0.75655 5.52475,2 2.43556,2.43556 2.47797,3.38229 0.31549,7.04306 -1.38617,2.3466 -1.47416,3.31329 -0.49682,5.45832 0.65792,1.44397 0.92776,4.25526 0.60496,6.30265 -0.33606,2.13148 -0.0356,4.96586 0.70978,6.69597 0.71087,1.65 1.53416,7.725 1.82954,13.5 l 0.53705,10.5 9.5,0.63145 c 5.225,0.3473 11.9112,1.18253 14.85821,1.85608 6.62299,1.51368 7.17511,1.03948 9.60234,-8.24716 2.15488,-8.24459 4.67302,-11.74037 8.45704,-11.74037 1.52484,0 3.58692,-0.9 4.58241,-2 2.65708,-2.93604 5.03593,-2.45171 7.3675,1.5 1.13578,1.925 2.68548,3.5 3.44379,3.5 0.7583,0 2.14236,0.84379 3.07567,1.8751 1.47225,1.62681 1.55998,2.7192 0.66255,8.25 -1.79996,11.09297 -2.26297,10.37267 8.20049,12.75734 9.83117,2.24056 13.32903,2.85434 37.75,6.62405 28.48711,4.39739 41.48606,6.51981 43.15574,7.04633 0.91066,0.28717 6.53566,1.17789 12.5,1.97939 5.96434,0.8015 16.46926,2.33948 23.34426,3.41773 6.875,1.07826 19.09114,2.99312 27.14699,4.25526 16.78047,2.62906 18.85301,3.72435 18.85301,9.96336 0,2.12222 -0.5625,4.7724 -1.25,5.8893 -1.08305,1.75949 -0.93167,2.27255 1.13335,3.84132 2.18439,1.65944 2.32553,2.27342 1.69071,7.35439 -0.40012,3.20244 -1.4067,6.18188 -2.38336,7.05465 -1.20794,1.07945 -5.97379,1.8261 -16.6907,2.61487 -8.25,0.60719 -19.05,1.53638 -24,2.06485 -4.95,0.52846 -13.725,1.44174 -19.5,2.02951 -5.775,0.58776 -15.675,1.72576 -22,2.52889 -24.5153,3.11288 -37.14801,4.45366 -41.96197,4.45366 -2.75513,0 -6.92829,0.44446 -9.27368,0.98769 -3.87862,0.89835 -30.16601,4.06986 -58.26435,7.02946 -6.05,0.63724 -13.44515,1.56908 -16.43366,2.07074 -2.98851,0.50166 -7.26351,0.91894 -9.5,0.92729 -2.23649,0.008 -6.09134,0.61974 -8.56634,1.35864 l -4.5,1.34345 -0.65633,26.89137 c -0.36098,14.79025 -1.13468,31.61636 -1.71933,37.39136 -0.58465,5.775 -1.27863,12.975 -1.54217,16 -0.87807,10.07843 -3.48634,28.45511 -4.54095,31.9934 -0.57267,1.92137 -1.04122,5.09765 -1.04122,7.0584 l 0,3.565 16.25,1.26841 c 8.9375,0.69762 18.725,1.65487 21.75,2.1272 3.025,0.47234 10.0849,1.15935 15.68866,1.52668 13.93478,0.91343 14.46222,1.53144 11.70152,13.71091 -0.55551,2.45077 -0.34245,2.75 1.95806,2.75 3.15592,0 4.65176,2.50153 4.65176,7.77927 0,7.17449 0.28166,7.10806 -35.73206,8.42752 -29.94385,1.09708 -32.21204,1.05986 -34.69857,-0.56938 -1.46325,-0.95876 -3.16218,-2.84439 -3.77542,-4.1903 -1.89779,-4.16518 -2.69837,-2.75093 -3.00189,5.30289 -0.26101,6.92621 -0.50902,7.78106 -2.33321,8.04218 -1.12263,0.1607 -2.36013,-0.0268 -2.75,-0.41666 z"
         id="path3217"
         inkscape:connector-curvature="0" />
      <path
         style="fill:#535353"
         d="m 394.60702,661.20898 c -0.33385,-0.86998 -0.60699,-4.24498 -0.60699,-7.5 0,-6.0886 -1.45655,-7.93165 -2.61636,-3.3106 -0.43007,1.71351 -1.83215,3.09967 -4.08913,4.04269 -3.02751,1.26498 -6.47874,1.19408 -29.11458,-0.59809 -34.9965,-2.77082 -36.34107,-2.92777 -38.78184,-4.52703 -4.47913,-2.93484 -3.81296,-9.90717 1.14448,-11.97852 3.20608,-1.33959 3.26403,-1.47077 2.30997,-5.22947 -1.26876,-4.99855 0.22238,-9.00725 3.87953,-10.42946 1.52236,-0.59203 16.04293,-1.77242 32.26793,-2.62309 16.225,-0.85067 29.69275,-1.71346 29.92832,-1.91731 0.23558,-0.20385 -0.3311,-7.4529 -1.25928,-16.10899 -2.85996,-26.67164 -3.55046,-38.52527 -4.27369,-73.36493 l -0.69805,-33.6266 -5.09865,-1.08938 c -2.80426,-0.59915 -7.79865,-1.29628 -11.09865,-1.54918 -3.3,-0.25289 -14.94455,-1.63048 -25.87679,-3.06131 -10.93223,-1.43082 -25.33223,-3.23983 -32,-4.02 -33.62738,-3.93463 -47.82819,-5.70523 -63.72735,-7.94574 -9.56772,-1.34828 -20.09586,-2.73393 -23.39586,-3.07923 -6.36675,-0.66618 -35.65579,-4.50731 -54,-7.08187 -6.05,-0.8491 -11.92611,-2.14474 -13.05801,-2.87921 -1.20873,-0.78433 -2.4957,-3.24809 -3.11863,-5.9703 -0.92507,-4.04259 -0.81599,-4.94588 0.85357,-7.06839 1.75983,-2.23726 1.78893,-2.62467 0.36089,-4.80414 -1.84801,-2.82042 -1.151,-7.83317 1.41167,-10.15235 1.71844,-1.55517 23.47706,-5.70331 39.55051,-7.54005 4.4,-0.50279 11.15,-1.35472 15,-1.89316 3.85,-0.53845 11.95,-1.66 18,-2.49234 18.07962,-2.48732 37.7411,-5.65113 38.66417,-6.22162 0.47527,-0.29374 6.59527,-1.1776 13.59998,-1.96415 24.85866,-2.79133 42.49822,-5.33653 43.38197,-6.25955 0.35537,-0.37116 0.22391,-3.59984 -0.29214,-7.17484 -1.34472,-9.31576 -0.4921,-12.83543 3.51487,-14.50965 1.78735,-0.7468 3.77591,-2.51264 4.41901,-3.92409 1.33269,-2.92494 5.1956,-3.49604 7.21214,-1.06626 0.68469,0.825 2.26494,1.5 3.51166,1.5 3.50983,0 6.15111,3.02221 7.4286,8.5 0.64134,2.75 1.62531,6.74625 2.18661,8.88056 l 1.02053,3.88056 4.6763,-0.65206 c 2.57197,-0.35863 6.9263,-1.06556 9.6763,-1.57095 2.75,-0.50539 7.8125,-0.94571 11.25,-0.9785 l 6.25,-0.0596 0.0119,-8.75 c 0.007,-4.8125 0.67619,-11.225 1.48813,-14.25 0.81194,-3.025 1.4816,-7.21708 1.48813,-9.31574 0.007,-2.09866 0.49385,-4.71634 1.08294,-5.81706 0.81571,-1.52417 0.69651,-2.57298 -0.5,-4.39907 -3.20344,-4.88908 -1.50392,-8.11794 4.81244,-9.14294 2.27023,-0.36841 3.77761,-1.25747 4.15661,-2.45161 0.76687,-2.41619 3.15256,-2.41721 3.91923,-0.002 0.4057,1.27824 1.86668,2.0426 4.6066,2.41011 6.77905,0.90926 8.66714,4.14332 5.36298,9.1861 -1.19651,1.8261 -1.31571,2.8749 -0.5,4.39908 0.58909,1.10072 1.07107,4.22432 1.07107,6.94133 0,2.71701 0.675,6.85317 1.5,9.19146 0.90126,2.55446 1.5,7.79369 1.5,13.12573 l -3e-5,8.87431 5.69246,0 c 3.13086,0 9.83645,0.74019 14.90131,1.64486 5.06487,0.90467 9.87093,1.39079 10.68015,1.08027 0.841,-0.32273 2.24029,-3.70251 3.26635,-7.88944 1.90874,-7.78879 5.54985,-12.83569 9.26036,-12.83569 1.07497,0 2.51468,-0.675 3.19937,-1.5 2.01654,-2.42978 5.87945,-1.85868 7.21214,1.06626 0.6431,1.41145 2.65845,3.18848 4.47857,3.94898 2.96407,1.23847 3.30929,1.80016 3.30929,5.38451 0,2.201 -0.49395,6.30501 -1.09766,9.12003 -0.60372,2.81503 -0.87448,5.34141 -0.60171,5.61418 1.37799,1.37799 19.83929,4.96226 43.19937,8.38718 7.7,1.12893 17.6,2.70076 22,3.49297 15.49665,2.79012 32.0817,5.49613 39.5,6.44479 8.93259,1.14231 29.15336,4.30476 41,6.41223 4.675,0.83166 11.41707,1.83334 14.98238,2.22595 5.19691,0.57228 7.03121,1.26266 9.25,3.48145 3.07695,3.07695 3.636,7.35164 1.36723,10.45436 -1.24105,1.69723 -1.12439,2.24317 1.02528,4.7979 1.97477,2.34688 2.30717,3.55999 1.78815,6.52598 -0.84453,4.82621 -2.93043,7.99533 -5.67569,8.62311 -1.23054,0.2814 -10.56235,1.18823 -20.73735,2.01518 -20.05331,1.62978 -31.87486,2.78059 -50.5,4.91607 -6.6,0.75672 -21.225,2.32959 -32.5,3.49526 -11.275,1.16567 -23.425,2.56615 -27,3.11219 -3.575,0.54604 -16.4,2.11569 -28.5,3.4881 -24.56488,2.78621 -35.16168,3.99424 -48.75,5.55745 -5.0875,0.58527 -11.6125,1.51754 -14.5,2.07171 l -5.25,1.00759 -0.0328,16.67829 c -0.0591,30.09657 -4.3071,81.09626 -7.84447,94.17828 -0.52052,1.925 -1.22612,5.55396 -1.56801,8.06435 l -0.62161,4.56434 15.28343,1.2318 c 8.40589,0.6775 18.20843,1.64014 21.78343,2.13921 3.575,0.49907 10.55,1.18843 15.5,1.5319 4.95,0.34348 10.04532,0.8714 11.32293,1.17316 3.37786,0.79783 4.3674,4.34494 2.72996,9.78576 l -1.37184,4.55829 3.34992,1.39968 c 2.61755,1.09368 3.49227,2.15845 4.00101,4.8703 0.72273,3.85249 -0.57343,7.09784 -3.44959,8.63712 -2.31649,1.23974 -57.48591,3.56617 -62.45637,2.63371 -2.432,-0.45625 -4.51105,-1.80568 -6.3684,-4.13347 -1.51669,-1.90085 -3.09512,-3.4561 -3.50762,-3.45612 -0.4125,-2e-5 -0.75,2.66317 -0.75,5.91818 0,7.13479 -0.64316,9.08179 -3,9.08179 -0.98231,0 -2.05917,-0.7118 -2.39301,-1.58179 z"
         id="path3215"
         inkscape:connector-curvature="0" />
      <path
         style="fill:#2b2b2b"
         d="m 395.52436,661.62393 c -0.2622,-0.73324 -0.59994,-4.25816 -0.75053,-7.83316 -0.21017,-4.98942 -0.6224,-6.5 -1.7738,-6.5 -0.825,0 -1.64525,1.02359 -1.82278,2.27463 -0.17753,1.25105 -1.4414,3.00759 -2.80861,3.90342 -2.30699,1.51159 -4.62203,1.46706 -32.17722,-0.61891 -38.88715,-2.94382 -37.4563,-2.66922 -38.63688,-7.41499 -1.1106,-4.46443 -0.0253,-6.81864 3.54013,-7.67927 2.26018,-0.54556 2.38524,-0.94499 2.07206,-6.61802 -0.54923,-9.94896 -2.01439,-9.52339 39.61122,-11.50553 17.90158,-0.85244 25.58424,-1.57278 26.32764,-2.46852 0.73739,-0.8885 0.58618,-5.37205 -0.50821,-15.06883 -2.67937,-23.74038 -3.48472,-37.72485 -4.20747,-73.0605 -0.46692,-22.82783 -1.06586,-34.5432 -1.79528,-35.11581 -1.64077,-1.28804 -6.19745,-2.2167 -15.0946,-3.07633 -8.54239,-0.82536 -61.00346,-7.28554 -73.5,-9.05097 -4.125,-0.58275 -11.775,-1.48489 -17,-2.00475 -5.225,-0.51985 -18.95,-2.27074 -30.5,-3.89086 -11.55,-1.62012 -23.475,-3.21979 -26.5,-3.55484 -13.34111,-1.47764 -46.40773,-5.82682 -56,-7.36557 l -10.5,-1.68435 -1.4762,-5.83366 c -1.36478,-5.39332 -1.34591,-5.90657 0.25,-6.79969 1.91291,-1.07052 2.37792,-4.86665 0.59615,-4.86665 -1.64781,0 -0.42453,-9.12132 1.40244,-10.45722 1.51394,-1.10702 31.16796,-5.92278 58.72761,-9.53725 18.61975,-2.442 24.65514,-3.33649 41,-6.07652 6.875,-1.15251 17.45,-2.69908 23.5,-3.43683 11.40199,-1.39037 21.91782,-2.77703 36.5,-4.81303 l 8.5,-1.18679 -0.30465,-8.96035 c -0.38851,-11.42659 0.0554,-13.13216 3.60254,-13.84159 1.73804,-0.34761 3.27774,-1.56098 4.00432,-3.15566 1.62946,-3.57628 3.88155,-4.17782 6.49867,-1.73581 1.20952,1.12859 3.77412,2.19802 5.69912,2.37652 l 3.5,0.32453 2.22233,8.93661 c 2.83262,11.39079 3.61273,12.22291 9.95132,10.61487 2.65449,-0.67342 9.10135,-1.47044 14.32635,-1.77115 5.225,-0.30071 10.0625,-0.99191 10.75,-1.53599 0.83767,-0.66291 1.25,-4.0227 1.25,-10.18528 0,-5.40113 0.6407,-11.35354 1.55259,-14.42419 0.85392,-2.87547 1.27416,-6.10538 0.93385,-7.17758 -0.3403,-1.0722 -0.0707,-3.46513 0.59921,-5.31761 1.03098,-2.85112 0.96438,-3.73016 -0.43385,-5.72642 -0.90849,-1.29705 -1.6518,-2.901 -1.6518,-3.56434 0,-2.12821 3.05769,-4.34892 5.98802,-4.34892 1.91353,0 3.46688,-0.85347 4.74382,-2.60644 l 1.89866,-2.60643 1.7078,2.60643 c 1.28688,1.96403 2.54717,2.60644 5.11332,2.60644 3.29708,0 6.54838,2.069 6.54838,4.16714 0,0.56335 -0.75803,2.30751 -1.68451,3.87592 -1.38617,2.3466 -1.47416,3.31329 -0.49682,5.45832 0.66943,1.46922 0.92616,4.24214 0.58836,6.35465 -0.38539,2.41012 -0.0296,5.11159 0.99682,7.5681 1.0681,2.55632 1.59615,6.8564 1.59615,12.99799 0,5.80502 0.441,9.61888 1.2,10.37788 0.71409,0.71409 4.2572,1.21442 8.75,1.23562 4.1525,0.0196 10.25,0.68756 13.55,1.48438 9.6771,2.33663 9.87162,2.21927 12.57549,-7.58706 2.63201,-9.54569 4.19096,-11.93294 7.79258,-11.93294 1.55207,0 3.63644,-0.9 4.63193,-2 2.54833,-2.81587 5.0556,-2.48709 6.43533,0.84387 0.6588,1.59048 2.5854,3.46361 4.37132,4.25 3.12773,1.37724 3.18421,1.51915 2.74878,6.90613 -0.24451,3.025 -0.46951,7.28471 -0.5,9.46602 l -0.0554,3.96603 6.5,1.73091 c 8.40034,2.23695 17.23171,3.73161 69.17198,11.70697 6.96959,1.07018 13.56468,2.2291 14.65575,2.57539 1.09106,0.34629 6.86367,1.28713 12.82801,2.09075 5.96434,0.80362 16.24426,2.30307 22.84426,3.33211 6.6,1.02903 18.75,2.89901 27,4.1555 8.909,1.35685 15.71062,2.89398 16.75,3.78541 2.07472,1.77938 2.36031,8.21637 0.5,11.26961 -1.0819,1.77566 -0.93197,2.31221 1.11482,3.98969 2.14439,1.75749 2.30161,2.44396 1.68678,7.36489 -0.37291,2.98472 -1.21208,5.86546 -1.86481,6.40165 -0.65274,0.53619 -7.93679,1.47378 -16.18679,2.08352 -8.25,0.60975 -19.05,1.54102 -24,2.06949 -4.95,0.52846 -13.725,1.44174 -19.5,2.02951 -5.775,0.58776 -15.675,1.72576 -22,2.52889 -24.51533,3.11288 -37.14804,4.45366 -41.962,4.45366 -2.75513,0 -6.92829,0.44567 -9.27368,0.99038 -2.34539,0.54471 -14.16435,2.12364 -26.26435,3.50874 -12.1,1.38511 -28.075,3.21539 -35.5,4.06731 -7.425,0.85192 -16.2,1.77252 -19.5,2.04578 -6.93472,0.57423 -14.4443,2.26812 -16.25,3.66541 -0.9113,0.70518 -1.25888,5.60813 -1.28277,18.09482 -0.0591,30.87571 -3.78426,76.49626 -7.57265,92.73878 -0.8481,3.63617 -1.39633,8.12986 -1.21829,9.98597 l 0.32371,3.37476 14.5,1.22109 c 7.975,0.67159 18.775,1.70186 24,2.28947 5.225,0.58762 13.27767,1.39444 17.89482,1.79294 10.21296,0.88147 11.11222,1.77056 9.22774,9.12341 -1.46096,5.70036 -1.00144,7.10114 2.32947,7.10114 1.2837,0 2.60714,0.7118 2.94098,1.58179 1.09476,2.85288 0.63546,9.14969 -0.75133,10.30063 -1.6086,1.33501 -61.61661,3.84367 -65.94446,2.75683 -1.71074,-0.42961 -3.60965,-2.07138 -4.87363,-4.21367 -1.13897,-1.93041 -2.57772,-3.34298 -3.19722,-3.13905 -0.63439,0.20882 -1.34476,3.57795 -1.62637,7.71347 -0.31344,4.60292 -0.96622,7.49636 -1.74947,7.75451 -0.68721,0.22649 -1.464,-0.18812 -1.7262,-0.92135 z"
         id="path3213"
         inkscape:connector-curvature="0" />
      <path
         style="fill:#000000"
         d="m 396.00003,655.37256 c 0,-7.72629 -0.60651,-9.58179 -3.13199,-9.58179 -1.34303,0 -2.10305,0.92519 -2.53526,3.08625 -1.07037,5.35185 -2.42743,5.47325 -34.09796,3.05016 -38.26659,-2.92775 -37.10103,-2.75528 -37.81385,-5.5954 -1.1288,-4.4975 -0.12127,-6.87116 3.28972,-7.7503 l 3.21065,-0.8275 -0.58425,-6.25659 c -0.47368,-5.07255 -0.2735,-6.51448 1.05777,-7.61933 1.19705,-0.99347 10.10518,-1.83578 32.87359,-3.10835 17.17737,-0.96008 31.29594,-1.7981 31.37459,-1.86227 1.15236,-0.94011 1.11979,-5.61036 -0.11489,-16.47618 -2.6128,-22.99398 -3.42489,-37.2793 -4.14041,-72.83265 -0.384,-19.08069 -1.0125,-35.20073 -1.39666,-35.82232 -0.98495,-1.59368 -7.08622,-3.00435 -16.99105,-3.92849 -8.72057,-0.81364 -60.56986,-7.15934 -74,-9.05666 -4.125,-0.58275 -11.775,-1.48489 -17,-2.00475 -5.225,-0.51985 -18.95,-2.27635 -30.5,-3.90332 -11.55,-1.62698 -23.7,-3.24269 -27,-3.59047 -29.16097,-3.07326 -63.75906,-8.30297 -64.66888,-9.77508 -1.78058,-2.88105 -2.02239,-8.85792 -0.42957,-10.61796 1.80628,-1.99592 2.0932,-4.68499 0.59845,-5.60879 -1.49471,-0.92378 -1.20599,-7.15115 0.40629,-8.76344 1.41637,-1.41636 26.75944,-5.70027 57.59371,-9.73544 18.57889,-2.43136 24.61257,-3.32495 41,-6.07211 6.875,-1.15251 17.45,-2.69999 23.5,-3.43884 6.05,-0.73886 14.375,-1.79243 18.5,-2.34129 4.125,-0.54885 11.325,-1.50209 16,-2.11831 14.67502,-1.93435 13.23752,-0.48164 12.42844,-12.55999 l -0.7006,-10.45892 3.44538,-1.43957 c 1.89495,-0.79176 3.97154,-2.59438 4.61464,-4.00583 1.40767,-3.08951 2.58837,-3.20208 5.93927,-0.56626 1.39842,1.1 3.80158,2 5.34034,2 3.06786,0 2.88157,-0.36578 5.51767,10.83425 2.00675,8.52612 3.57434,10.59602 7.30862,9.65052 5.8391,-1.47842 13.98168,-2.47351 20.28481,-2.47898 9.29252,-0.008 9.82143,-0.70374 9.82143,-12.91829 0,-5.50674 0.6128,-11.80582 1.40441,-14.43612 0.77242,-2.56657 1.16912,-5.56621 0.88155,-6.66587 -0.28757,-1.09967 0.0421,-3.36334 0.73263,-5.03039 1.07604,-2.59779 0.99491,-3.51486 -0.56765,-6.41636 -1.51956,-2.82165 -1.60525,-3.64791 -0.51459,-4.96206 0.71969,-0.86719 2.5713,-1.5767 4.11467,-1.5767 2.86877,0 5.92488,-2.20871 5.97939,-4.32143 0.0167,-0.64821 0.54077,-0.27857 1.16454,0.82143 1.58236,2.79045 2.83135,3.46706 6.43261,3.48469 4.77136,0.0234 6.17508,2.36942 3.9215,6.55407 -1.54968,2.87758 -1.63849,3.83111 -0.59213,6.35725 0.67704,1.63454 0.94933,4.25429 0.60508,5.82166 -0.35752,1.62777 0.031,4.71163 0.90604,7.19177 0.95499,2.70673 1.53195,7.84563 1.53195,13.64486 0,11.94824 0.44005,12.4457 11.00938,12.4457 4.32658,0 10.82726,0.68664 14.44596,1.52587 8.67229,2.01124 9.8389,1.31579 11.9604,-7.12994 2.31308,-9.20842 4.10667,-12.39593 6.97508,-12.39593 1.28671,0 3.48363,-0.9 4.88205,-2 3.41798,-2.68858 4.40135,-2.53067 6.22713,1 0.85325,1.65 2.1288,3 2.83455,3 0.70576,0 2.07457,0.57867 3.04182,1.28594 1.61365,1.17993 1.65798,2.00537 0.53773,10.01327 -0.67149,4.80003 -0.97037,8.97785 -0.66419,9.28404 0.88346,0.88345 15.40766,4.34096 25.25009,6.01082 8.45615,1.43466 22.99027,3.71828 52.67198,8.27586 6.96959,1.07018 13.56468,2.2291 14.65575,2.57539 1.09106,0.34629 6.86367,1.28713 12.82801,2.09075 5.96434,0.80362 16.24426,2.30064 22.84426,3.3267 6.6,1.02607 18.525,2.88236 26.5,4.1251 7.975,1.24273 15.0625,2.70896 15.75,3.25827 1.59814,1.27692 1.62127,8.18649 0.0359,10.72508 -1.02498,1.64125 -0.84727,2.33455 1.14081,4.45077 2.02545,2.15599 2.26635,3.15286 1.72187,7.12528 -0.34818,2.54022 -0.85009,4.96977 -1.11537,5.39899 -0.4565,0.73863 -18.60613,2.8205 -30.53321,3.50234 -9.78849,0.55958 -29.86483,2.60927 -49.5,5.0537 -27.11467,3.37557 -37.70846,4.4977 -42.46197,4.4977 -2.75513,0 -6.92829,0.44446 -9.27368,0.98769 -4.0868,0.94657 -36.239,4.80715 -83.76435,10.05775 -9.59823,1.06042 -15.07244,2.46273 -16.13098,4.13224 -0.46111,0.72728 -0.86003,9.19732 -0.88648,18.82232 -0.0866,31.51922 -4.39957,83.11054 -7.94132,94.9934 -0.57267,1.92137 -1.04122,5.17529 -1.04122,7.23095 0,4.47346 -0.88798,4.20533 19,5.73703 7.975,0.6142 18.325,1.5616 23,2.10533 4.675,0.54372 12.1,1.31365 16.5,1.71094 l 8,0.72235 -0.0886,4 c -0.0487,2.2 -0.43727,5.43641 -0.8634,7.19202 -0.73195,3.01551 -0.5888,3.24022 2.58862,4.06357 3.24594,0.84111 3.3634,1.04394 3.3634,5.80798 l 0,4.93643 -8,0.65533 c -17.56125,1.43854 -57.12511,2.11567 -59.18556,1.01295 -1.12208,-0.60051 -2.60645,-2.45904 -3.29861,-4.13006 -1.3573,-3.27682 -4.39628,-4.09512 -5.40884,-1.45643 -0.33385,0.86998 -0.60699,4.46998 -0.60699,8 0,3.61214 -0.4372,6.41821 -1,6.41821 -0.5628,0 -1,-2.80607 -1,-6.41821 z"
         id="path3211"
         inkscape:connector-curvature="0" />
    </g>
  </g>
</svg>
