<?xml version="1.0" encoding="UTF-8" standalone="no"?>
<!-- Created with Inkscape (http://www.inkscape.org/) -->

<svg
   xmlns:dc="http://purl.org/dc/elements/1.1/"
   xmlns:cc="http://creativecommons.org/ns#"
   xmlns:rdf="http://www.w3.org/1999/02/22-rdf-syntax-ns#"
   xmlns:svg="http://www.w3.org/2000/svg"
   xmlns="http://www.w3.org/2000/svg"
   xmlns:sodipodi="http://sodipodi.sourceforge.net/DTD/sodipodi-0.dtd"
   xmlns:inkscape="http://www.inkscape.org/namespaces/inkscape"
   width="273.00009"
   height="200.90027"
   id="svg3029"
   version="1.1"
   inkscape:version="0.48.4 r9939"
   sodipodi:docname="New document 4">
  <defs
     id="defs3031" />
  <sodipodi:namedview
     id="base"
     pagecolor="#ffffff"
     bordercolor="#666666"
     borderopacity="1.0"
     inkscape:pageopacity="0.0"
     inkscape:pageshadow="2"
     inkscape:zoom="0.35"
     inkscape:cx="128.6429"
     inkscape:cy="114.73585"
     inkscape:document-units="px"
     inkscape:current-layer="layer1"
     showgrid="false"
     fit-margin-top="0"
     fit-margin-left="0"
     fit-margin-right="0"
     fit-margin-bottom="0"
     inkscape:window-width="457"
     inkscape:window-height="414"
     inkscape:window-x="0"
     inkscape:window-y="25"
     inkscape:window-maximized="0" />
  <metadata
     id="metadata3034">
    <rdf:RDF>
      <cc:Work
         rdf:about="">
        <dc:format>image/svg+xml</dc:format>
        <dc:type
           rdf:resource="http://purl.org/dc/dcmitype/StillImage" />
        <dc:title></dc:title>
      </cc:Work>
    </rdf:RDF>
  </metadata>
  <g
     inkscape:label="Layer 1"
     inkscape:groupmode="layer"
     id="layer1"
     transform="translate(-246.3571,-446.19776)">
    <g
       id="g2995"
       transform="translate(233.35719,438.00068)">
      <path
         style="fill:#e4e4e4"
         d="M 98.2,207.8 C 97.43871,207.03871 97,203.2 97,197.3 97,183.46048 95.980673,184 122.12781,184 l 21.12781,0 -0.59232,-3.75 c -1.33345,-8.44215 -4.57997,-52.0936 -4.63394,-62.30623 L 138,112.38754 124.25,110.56676 C 79.400916,104.62786 60.224238,101.6107 50,98.884636 43.675,97.198218 33.371341,94.50947 27.102979,92.909639 20.834618,91.309809 15.097118,89.495564 14.352979,88.877984 13.425202,88.107997 13,85.279426 13,79.877555 13,68.53432 12.781929,68.669546 33.557236,67.129947 42.875756,66.439378 62.783838,64.777635 77.797419,63.437184 92.810999,62.096733 105.7485,61 106.54742,61 107.34634,61 108,60.304545 108,59.454545 c 0,-0.85 1.10455,-2.65 2.45455,-4 C 113.9453,51.963793 118.42743,52.175547 122,56 c 2.18229,2.336149 3.65409,2.996978 6.65121,2.986345 8.207,-0.02912 7.87937,0.534532 9.18922,-15.80906 1.08713,-13.56449 1.79815,-17.068971 5.87136,-28.938698 1.60826,-4.6866422 4.27547,-6.7095856 7.70991,-5.8475947 C 156.91588,9.7699439 161.97336,30.036282 161.99241,50.75 L 162,59 l 4.25,0.01365 c 2.3375,0.0075 5.15,0.241577 6.25,0.520149 1.52235,0.385531 2.35824,-0.273995 3.5,-2.761556 3.01164,-6.561464 11.40055,-5.938394 13.4568,0.999478 C 190.1486,60.10591 191.00639,61 192.554,61 c 1.17722,0 14.24666,0.649631 29.0432,1.443625 14.79654,0.793994 34.3278,1.73988 43.4028,2.101968 21.08888,0.841436 21,0.793206 21,11.395673 0,4.342337 -0.26769,8.592754 -0.59487,9.44537 -0.59365,1.547028 -6.26229,3.455783 -27.90513,9.396277 -17.03454,4.675615 -27.66782,6.850877 -57,11.660557 -8.8,1.44296 -19.375,3.25437 -23.5,4.02535 -4.125,0.77098 -9.11744,1.66315 -11.09431,1.98259 l -3.5943,0.5808 -0.65571,15.9057 c -0.36064,8.74814 -1.55366,23.47839 -2.65117,32.7339 -1.0975,9.2555 -1.99749,18.29069 -1.99998,20.07819 L 157,185 l 21.42857,0 c 18.14719,0 21.66921,0.24063 23,1.57143 1.97599,1.97598 2.27946,19.32054 0.37143,21.22857 -1.7298,1.7298 -101.870204,1.7298 -103.6,0 z"
         id="path3009"
         inkscape:connector-curvature="0" />
      <path
         style="fill:#a5a5a5"
         d="M 99.25,207.33772 C 98.376283,206.98517 98,204.04532 98,197.57165 98,184.37379 96.75648,185 122.96466,185 l 21.30719,0 -0.61193,-4.46454 c -1.53179,-11.17556 -4.57996,-52.68324 -4.63056,-63.05519 L 139,111.46054 124.75,109.61171 C 83.004135,104.1955 60.324504,100.63743 50,97.884636 43.675,96.198218 33.34801,93.503537 27.051134,91.896455 20.754257,90.289374 15.248648,88.417729 14.816446,87.737244 14.384245,87.05676 14.023735,83.307244 14.015313,79.404988 14.003384,73.877917 14.386736,71.975492 15.75,70.796421 17.012783,69.704256 22.093765,68.946036 34,68.073027 43.075,67.407615 62.783838,65.76897 77.797419,64.431594 92.810999,63.094217 105.88044,62 106.84062,62 c 1.10483,0 2.09707,-1.189269 2.70258,-3.239217 1.65946,-5.618063 10.27098,-6.457476 12.65132,-1.233195 0.93887,2.060589 1.8285,2.472412 5.341,2.472412 2.31796,0 5.53973,-0.265051 7.15949,-0.589001 l 2.945,-0.589002 1.21804,-15.534157 c 0.66991,-8.543786 1.80529,-16.941235 2.52307,-18.660998 0.71777,-1.719763 1.61248,-4.768691 1.98824,-6.775395 C 144.21092,13.357219 147.4993,9 150.04953,9 c 5.68194,0 10.92379,20.238557 10.94288,42.25 L 161,60 l 4.375,0 c 2.40625,0 5.78125,0.28125 7.5,0.625 2.71569,0.543137 3.125,0.346667 3.125,-1.5 0,-2.880793 3.44283,-6.125 6.5,-6.125 3.20927,0 6.5,3.290727 6.5,6.5 0,2.151526 0.45302,2.501576 3.25,2.51131 1.7875,0.0062 14.95,0.649456 29.25,1.429414 14.3,0.779958 33.789,1.733508 43.30888,2.119002 13.00591,0.526654 17.66715,1.059158 18.75,2.142014 1.87834,1.87834 2.03404,16.581487 0.19112,18.048202 -1.22552,0.975352 -5.65236,2.325356 -26.75,8.157661 -16.26452,4.49622 -27.26207,6.741647 -56.5,11.535867 -8.8,1.44296 -19.375,3.2606 -23.5,4.0392 -4.125,0.7786 -9.34293,1.69131 -11.59539,2.02826 l -4.0954,0.61262 -0.64052,16.24091 c -0.35229,8.93249 -1.54483,23.86719 -2.65008,33.18822 -1.10526,9.32103 -2.01159,18.63482 -2.01408,20.69732 L 156,186 l 21.8,0 c 15.62222,0 22.14006,0.34006 23,1.2 1.62069,1.62069 1.62069,17.97931 0,19.6 -0.90322,0.90322 -13.45474,1.18047 -50.75,1.12105 -27.2525,-0.0434 -50.1125,-0.30592 -50.8,-0.58333 z"
         id="path3007"
         inkscape:connector-curvature="0" />
      <path
         style="fill:#6b6b6b"
         d="m 99.675817,206.34248 c -1.31806,-1.31806 -0.750274,-18.0358 0.652083,-19.19965 0.85201,-0.70711 9.00493,-1.19895 22.75,-1.37244 L 144.5,185.5 144.44031,182 c -0.0328,-1.925 -0.85168,-12.5 -1.81967,-23.5 -0.96799,-11 -2.06613,-26.2719 -2.44031,-33.93755 L 139.5,110.6249 l -13,-1.75437 C 70.54656,101.31954 60.095809,99.640529 46.721842,96.053395 38.899829,93.955394 29.125,91.416439 25,90.411273 c -4.125,-1.005166 -8.0625,-2.239007 -8.75,-2.741869 -1.702035,-1.244928 -1.702035,-15.072385 0,-16.398248 0.6875,-0.535554 8.45,-1.506591 17.25,-2.157861 23.233977,-1.719499 73.81282,-6.147447 75.10781,-6.575347 0.6093,-0.201329 1.38315,-1.742729 1.71967,-3.425335 1.03655,-5.182762 9.20196,-5.635565 11.47964,-0.63659 1.02798,2.256159 1.70935,2.5134 6.42144,2.424297 10.67946,-0.201943 10.09875,0.652351 11.51808,-16.944468 C 140.43229,35.455133 141.62707,26.7 142.40171,24.5 c 0.77463,-2.2 1.70662,-5.35 2.07108,-7 1.51864,-6.875249 6.20852,-9.8325204 8.57644,-5.408004 4.22513,7.894728 6.92923,23.122248 6.94318,39.098987 0.004,4.780041 0.34509,8.892344 0.75759,9.138452 0.4125,0.246108 4.08869,0.610165 8.16931,0.809017 l 7.41931,0.361548 0.78827,-2.914767 c 0.89432,-3.306898 2.40178,-4.54778 5.55168,-4.56992 2.88527,-0.02028 5.32143,2.537683 5.32143,5.5875 0,1.352976 0.5625,2.649475 1.25,2.881109 1.2424,0.41859 46.8909,2.873649 76.99701,4.141037 10.74413,0.4523 16.07957,1.063617 16.79377,1.924178 0.59333,0.714923 0.91951,4.641662 0.75299,9.065081 L 283.5,85.41803 279,86.744645 c -15.10322,4.452484 -36.93683,10.2684 -42,11.18773 -4.59774,0.83482 -43.87604,7.725745 -61,10.701745 -5.225,0.90806 -10.85,1.95195 -12.5,2.31975 l -3,0.66872 -0.71149,15.9387 c -0.39132,8.76629 -1.66773,24.28269 -2.83648,34.48089 -1.16874,10.19819 -1.97357,19.87319 -1.78851,21.5 L 155.5,186.5 178,187 l 22.5,0.5 0,9.5 0,9.5 -50.07418,0.25915 c -27.5408,0.14253 -50.3783,-0.045 -50.750003,-0.41667 z"
         id="path3005"
         inkscape:connector-curvature="0" />
      <path
         style="fill:#545454"
         d="M 100.2,205.8 C 99.485845,205.08584 99,201.64444 99,197.3 99,185.77722 98.50427,186 124.1446,186 l 21.14461,0 -0.65742,-6.75 c -1.88879,-19.39296 -3.57744,-41.33746 -4.17916,-54.30933 l -0.67536,-14.55933 -12.63863,-1.69998 C 64.705728,100.2837 63.499751,100.07561 37.5,93.214531 29.25,91.037437 21.154508,88.93786 19.510017,88.548805 15.566538,87.615853 15.033481,86.572345 15.015313,79.75 14.991622,70.854155 15.443541,70.620516 35.557236,69.129947 44.875756,68.439378 64.783838,66.777635 79.797419,65.437184 94.810999,64.096733 107.71274,63 108.46796,63 c 0.75522,0 1.67557,-1.376985 2.04521,-3.059967 1.17114,-5.332162 9.3566,-6.076419 10.96865,-0.997317 0.56694,1.786278 1.46739,2.055485 6.83557,2.043629 10.89529,-0.02406 10.18272,0.963125 11.55316,-16.005532 1.12034,-13.872031 3.407,-24.848405 6.45408,-30.980813 1.60179,-3.223683 5.17618,-3.801257 6.63663,-1.07239 4.03008,7.530282 7.01701,24.447348 7.03115,39.82239 L 160,61 l 3.25,0.0087 c 1.7875,0.0048 5.56423,0.286745 8.39274,0.626588 l 5.14274,0.617896 0.70078,-3.190639 c 1.44631,-6.584992 8.82402,-6.255976 10.082,0.449616 0.50603,2.697405 1.13901,3.485602 2.79303,3.477943 1.17629,-0.0054 14.73871,0.667638 30.13871,1.495746 15.4,0.828107 35.5654,1.863653 44.812,2.301212 12.99857,0.615106 17.0213,1.126435 17.73469,2.254254 1.36973,2.165436 1.15084,13.330374 -0.29669,15.133517 -0.6875,0.856396 -6.2,2.935883 -12.25,4.621082 -21.17759,5.898917 -30.59953,8.340867 -35.28056,9.14391 -12.61756,2.164575 -57.50252,10.039395 -72.31496,12.687265 l -2.59552,0.46397 -0.65449,15.87628 c -0.35997,8.73196 -1.55245,23.44897 -2.64996,32.70448 -1.0975,9.2555 -1.99749,19.19069 -1.99998,22.07819 L 155,187 l 21.42857,0 c 18.14719,0 21.66921,0.24063 23,1.57143 1.94402,1.94402 2.2334,15.3666 0.37143,17.22857 -1.72889,1.72889 -97.87111,1.72889 -99.6,0 z"
         id="path3003"
         inkscape:connector-curvature="0" />
      <path
         style="fill:#2b2b2b"
         d="m 100.21247,196.75 0.28753,-9.25 21.64349,-0.26921 c 17.24891,-0.21454 21.88321,-0.55804 22.8241,-1.69174 0.89457,-1.07789 0.91714,-3.67768 0.0932,-10.73079 -1.56289,-13.37792 -4.05846,-48.07007 -4.0597,-56.43582 -6.7e-4,-4.52865 -0.45683,-7.47322 -1.25105,-8.07556 -0.6875,-0.52141 -7.55,-1.75866 -15.25,-2.74945 C 81.024782,101.9533 60.507653,98.681236 48,95.347242 40.575,93.368061 30.45,90.740383 25.5,89.507956 l -9,-2.240775 0,-7.883591 L 16.5,71.5 32,70.282737 c 43.593814,-3.423558 76.63405,-6.618867 77.75,-7.519171 0.6875,-0.554651 1.25,-1.763355 1.25,-2.686011 0,-4.953118 6.7834,-5.594853 10.08774,-0.954337 2.19739,3.085952 2.30663,3.1173 9.15508,2.627296 4.01917,-0.28757 7.46552,-1.074567 8.20305,-1.873218 0.78475,-0.849784 1.71215,-7.122376 2.42138,-16.377296 0.63222,-8.25 1.87678,-17.25 2.76569,-20 0.88891,-2.75 2.1403,-6.572237 2.78086,-8.493859 1.22704,-3.68101 4.22756,-5.1844839 5.69686,-2.854534 3.78723,6.005595 6.8681,23.454626 6.88175,38.975948 0.005,5.686666 0.43368,8.973017 1.25759,9.641022 0.6875,0.557406 4.57093,1.175006 8.62985,1.372445 7.80363,0.379591 7.28106,0.635892 9.97228,-4.891022 C 180.75414,53.343871 187,55.068638 187,59.5 c 0,1.240311 0.5625,2.715951 1.25,3.279201 0.69478,0.569218 15.68561,1.754631 33.75,2.668813 17.875,0.904597 38.8,1.961357 46.5,2.348354 l 14,0.703632 0,7.995639 0,7.99564 -4,1.313489 c -2.2,0.722419 -7.375,2.241135 -11.5,3.374925 -19.54023,5.370789 -25.8754,6.995987 -30.5,7.824344 -2.75,0.492579 -12.26084,2.241328 -21.13521,3.886113 -8.87436,1.64478 -20.57436,3.68163 -26,4.52635 -17.54086,2.73091 -27.83979,4.74705 -28.95955,5.66917 -0.6559,0.54014 -1.33924,7.16181 -1.70464,16.51828 -0.33544,8.58921 -1.63357,24.80306 -2.88475,36.03078 -1.67854,15.06282 -1.9899,20.86638 -1.1878,22.13966 0.95883,1.52207 3.66935,1.78459 22.9795,2.22561 l 21.89245,0.5 0.28893,8.75 0.28894,8.75 -50.07646,0 -50.076462,0 0.287522,-9.25 z"
         id="path3001"
         inkscape:connector-curvature="0" />
      <path
         style="fill:#191919"
         d="m 100.67599,205.34265 c -1.304306,-1.3043 -0.745798,-16.03982 0.65191,-17.19982 0.85201,-0.70711 9.00493,-1.19895 22.75,-1.37244 L 145.5,186.5 145.45278,182 c -0.026,-2.475 -0.82338,-13.725 -1.772,-25 -0.94863,-11.275 -2.05238,-26.54707 -2.45278,-33.93792 l -0.728,-13.43793 -13,-1.7623 c -7.15,-0.96927 -23.35,-3.16684 -36,-4.8835 C 78.85,101.2617 66.7,99.449452 64.5,98.951139 46.051759,94.772504 18.966076,87.726254 17.25,86.659208 c -1.686504,-1.048657 -1.686504,-13.074288 0,-14.388052 0.6875,-0.535554 8.45,-1.506591 17.25,-2.157861 23.233977,-1.719499 73.81282,-6.147447 75.10781,-6.575347 0.6093,-0.201329 1.37831,-1.718536 1.70891,-3.371572 1.01479,-5.073903 7.2983,-5.501491 9.51008,-0.647154 1.03667,2.275244 1.64992,2.472519 7.40176,2.381098 11.78793,-0.187361 11.09572,0.726363 12.45784,-16.444511 C 141.33892,37.230114 142.55768,28.25 143.39474,25.5 c 0.83707,-2.75 2.0137,-6.651504 2.61475,-8.670008 1.50989,-5.070673 3.76346,-6.8609915 5.55399,-4.412295 4.12251,5.637878 7.41451,23.262697 7.42893,39.773286 0.004,4.780041 0.34509,8.893829 0.75759,9.141752 0.4125,0.247924 4.54014,0.611981 9.17254,0.809017 l 8.42254,0.358248 0.83959,-3.186461 c 1.38517,-5.257103 7.29192,-5.575529 8.40748,-0.453238 C 187.6479,63.707903 187.91987,64 191.37773,64 c 1.89227,0 14.61889,0.646585 28.28138,1.436856 13.66249,0.790271 33.04085,1.741552 43.06302,2.113957 13.00648,0.483296 18.53,1.048058 19.29774,1.973132 0.60775,0.73229 0.9461,4.253671 0.77787,8.095593 L 282.5,84.4191 278,85.74518 c -15.14973,4.464394 -36.93944,10.26834 -42,11.187195 -4.59774,0.83482 -43.87604,7.725745 -61,10.701745 -5.225,0.90806 -10.85,1.95195 -12.5,2.31975 l -3,0.66872 -0.71149,15.9387 c -0.39132,8.76629 -1.66411,24.26371 -2.82842,34.43871 -1.16431,10.175 -1.96914,20.3 -1.78851,22.5 l 0.32842,4 22.5,0.5 22.5,0.5 0,8.5 0,8.5 -49.07401,0.25932 c -26.99071,0.14263 -49.37821,-0.0449 -49.75,-0.41667 z"
         id="path2999"
         inkscape:connector-curvature="0" />
      <path
         style="fill:#000000"
         d="m 101.20956,196.75 0.29044,-8.25 21.4221,-0.27039 c 14.78438,-0.18661 21.86837,-0.64075 22.86234,-1.46567 1.09515,-0.9089 1.28423,-2.5213 0.78917,-6.72961 -1.51012,-12.83675 -3.50415,-38.64038 -4.13697,-53.53433 -0.37391,-8.8 -1.13021,-16.5625 -1.68068,-17.25 -0.55047,-0.6875 -2.18325,-1.24477 -3.6284,-1.23837 -1.44516,0.006 -7.57756,-0.6771 -13.62756,-1.51889 -6.05,-0.84179 -22.61468,-3.13065 -36.81039,-5.08636 -17.522781,-2.414082 -30.366614,-4.784016 -40,-7.380774 C 38.885325,91.921897 28.99855,89.368028 24.719,88.35034 L 16.938001,86.5 17.219,79.5 17.5,72.5 32,71.311091 c 53.04149,-4.349069 77.65531,-6.70055 78.69064,-7.517709 0.65485,-0.516858 1.32985,-2.14431 1.5,-3.616562 0.25355,-2.193953 0.88083,-2.732243 3.47736,-2.984063 2.62943,-0.255011 3.39963,0.169992 4.53056,2.5 1.33773,2.756103 1.51362,2.805264 9.65493,2.698597 5.68769,-0.07452 8.6937,-0.545679 9.57005,-1.5 0.80145,-0.872751 1.72028,-7.307796 2.46511,-17.264512 0.65309,-8.730237 1.77469,-17.280237 2.49247,-19 0.71777,-1.719763 1.61256,-4.769125 1.98842,-6.776359 0.71737,-3.830987 2.87621,-6.434668 4.50213,-5.429798 1.68552,1.041713 5.21811,13.600834 6.18122,21.975601 0.51256,4.457043 0.93535,12.211114 0.93952,17.231269 0.005,6.101628 0.42198,9.454341 1.25759,10.113287 0.6875,0.542152 4.9217,1.25502 9.40934,1.584151 8.79296,0.644892 9.86869,0.201576 10.49484,-4.324993 0.2814,-2.034263 0.9047,-2.5 3.34582,-2.5 2.6389,0 3.03705,0.382231 3.3078,3.175529 0.1693,1.74654 0.8443,3.605798 1.5,4.131683 1.07111,0.859041 36.41472,3.0145 78.9422,4.814354 l 15.75,0.666574 0,7.258529 0,7.258528 -6.75,1.977739 c -28.99948,8.4968 -40.23502,11.001015 -74.75,16.660534 -8.8,1.44296 -19.375,3.26764 -23.5,4.05483 -4.125,0.7872 -9.623,1.72104 -12.21778,2.0752 -2.59478,0.35416 -5.12088,1.1575 -5.61357,1.78521 -0.49269,0.62771 -1.17586,8.59 -1.51814,17.69397 -0.34229,9.10397 -1.52665,24.17897 -2.6319,33.5 -2.32493,19.60695 -2.48021,24.58572 -0.81861,26.24732 0.85994,0.85994 7.37778,1.2 23,1.2 l 21.8,0 0,8 0,8 -49.04044,0 -49.04044,0 0.29044,-8.25 z"
         id="path2997"
         inkscape:connector-curvature="0" />
    </g>
  </g>
</svg>
