<?xml version="1.0" encoding="UTF-8" standalone="no"?>
<!-- Created with Inkscape (http://www.inkscape.org/) -->

<svg
   xmlns:dc="http://purl.org/dc/elements/1.1/"
   xmlns:cc="http://creativecommons.org/ns#"
   xmlns:rdf="http://www.w3.org/1999/02/22-rdf-syntax-ns#"
   xmlns:svg="http://www.w3.org/2000/svg"
   xmlns="http://www.w3.org/2000/svg"
   xmlns:sodipodi="http://sodipodi.sourceforge.net/DTD/sodipodi-0.dtd"
   xmlns:inkscape="http://www.inkscape.org/namespaces/inkscape"
   width="268.51596"
   height="233.53506"
   id="svg3163"
   version="1.1"
   inkscape:version="0.48.4 r9939"
   sodipodi:docname="New document 12">
  <defs
     id="defs3165" />
  <sodipodi:namedview
     id="base"
     pagecolor="#ffffff"
     bordercolor="#666666"
     borderopacity="1.0"
     inkscape:pageopacity="0.0"
     inkscape:pageshadow="2"
     inkscape:zoom="0.35"
     inkscape:cx="346.40085"
     inkscape:cy="-3.2324626"
     inkscape:document-units="px"
     inkscape:current-layer="layer1"
     showgrid="false"
     fit-margin-top="0"
     fit-margin-left="0"
     fit-margin-right="0"
     fit-margin-bottom="0"
     inkscape:window-width="457"
     inkscape:window-height="414"
     inkscape:window-x="0"
     inkscape:window-y="25"
     inkscape:window-maximized="0" />
  <metadata
     id="metadata3168">
    <rdf:RDF>
      <cc:Work
         rdf:about="">
        <dc:format>image/svg+xml</dc:format>
        <dc:type
           rdf:resource="http://purl.org/dc/dcmitype/StillImage" />
        <dc:title></dc:title>
      </cc:Work>
    </rdf:RDF>
  </metadata>
  <g
     inkscape:label="Layer 1"
     inkscape:groupmode="layer"
     id="layer1"
     transform="translate(-28.599154,-295.59465)">
    <g
       id="g3129"
       transform="translate(14.364789,283.12972)">
      <path
         style="fill:#d3d3d3"
         d="m 147.65314,244.51029 c -0.81934,-0.81935 -1.78473,-2.83294 -2.14531,-4.47465 -0.63867,-2.90785 -0.71849,-2.94371 -3.09118,-1.38907 -2.23337,1.46336 -3.32732,1.45637 -13.17612,-0.0842 -15.78405,-2.46894 -15.81833,-2.47821 -17.98998,-4.86426 -4.78151,-5.25355 -5.46878,-10.38988 -2.23769,-16.72334 2.77067,-5.43096 4.90603,-6.48434 16.98714,-8.37984 5.775,-0.90608 11.63864,-1.87466 13.03031,-2.15239 l 2.53032,-0.50497 -1.65315,-11.71879 c -0.90923,-6.44534 -2.43523,-23.6438 -3.39111,-38.2188 -0.95588,-14.575 -2.02561,-26.79649 -2.37717,-27.15886 -0.35156,-0.36237 -10.0892,-2.34079 -21.6392,-4.39648 -11.55,-2.05568 -24.15,-4.34794 -28,-5.0939 C 80.65,118.6048 75.025,117.58412 72,117.08259 45.310781,112.65765 30.485262,109.78518 28.177855,108.59197 23.755916,106.3053 16.258603,97.59518 14.948555,93.222629 14.265285,90.942076 14.03583,87.622545 14.419937,85.57508 15.26864,81.051103 20.087135,75.449198 24.299985,74.088694 30.955888,71.939227 45.036914,70.130349 60,69.502594 68.525,69.14494 87.508943,67.985543 102.18654,66.926157 116.86414,65.866771 130.00363,65 131.3854,65 l 2.51233,0 -0.11074,-12.25 c -0.12299,-13.603496 1.21569,-26.005143 3.2142,-29.776689 2.56907,-4.848285 6.11935,-8.780599 9.00772,-9.977002 8.29662,-3.4365736 16.20174,10.169475 17.43215,30.003691 0.11941,1.925 0.29403,7.622104 0.38803,12.660231 L 164,64.820462 l 8.25,0.580042 c 4.5375,0.319024 27.86373,1.707114 51.83607,3.084644 23.97235,1.377531 45.12235,3.018137 47,3.645792 4.73534,1.582902 8.58021,5.428365 10.52863,10.530234 1.39951,3.66455 1.46369,4.987185 0.42249,8.705995 -1.56319,5.583159 -8.79973,13.920541 -13.8292,15.932931 -4.3995,1.76033 -32.94917,7.70806 -53.90965,11.23095 -16.20388,2.72343 -47.01106,8.36711 -49.39098,9.04811 -1.35791,0.38856 -1.69027,3.36394 -2.25507,20.18828 -0.62479,18.6116 -2.69296,45.56237 -4.21929,54.98256 -0.59933,3.69893 -0.452,4.25 1.13624,4.25 6.94758,0 25.32742,2.44219 27.1679,3.60989 3.57711,2.26951 6.56652,9.08947 5.96148,13.60036 -0.83835,6.25042 -4.75335,10.44942 -10.94403,11.73797 -11.8661,2.46984 -23.29443,3.79456 -25.00459,2.89842 -1.3938,-0.73036 -1.75,-0.50276 -1.75,1.11818 0,2.06974 -3.23833,6.03518 -4.92857,6.03518 -0.51072,0 -1.59894,-0.67037 -2.41829,-1.48971 z"
         id="path3143"
         inkscape:connector-curvature="0" />
      <path
         style="fill:#ababab"
         d="m 147.5567,242.77749 c -0.85618,-1.22237 -1.55894,-3.80987 -1.56167,-5.75 l -0.005,-3.52749 -2.32777,2.9091 c -2.59624,3.24464 -1.74457,3.23498 -21.12056,0.23949 -8.17228,-1.26342 -9.2032,-1.67833 -11.75,-4.72899 -4.36979,-5.23431 -3.43034,-14.44417 1.95083,-19.12482 1.01871,-0.8861 7.41788,-2.44616 15.22381,-3.71143 7.40651,-1.20053 13.65434,-2.37074 13.88407,-2.60047 0.22974,-0.22973 -0.31035,-6.16986 -1.20019,-13.20029 -0.88984,-7.03042 -2.32061,-23.80759 -3.17948,-37.28259 -1.82346,-28.60846 -1.88317,-29 -4.42218,-29 -1.78698,0 -32.18168,-5.30638 -49.0486,-8.56303 -4.125,-0.79645 -10.2,-1.8924 -13.5,-2.43544 -19.69167,-3.24046 -39.341683,-6.92171 -41.501705,-7.77498 -3.129246,-1.23614 -11.693701,-10.295208 -13.012553,-13.764052 -2.631937,-6.922519 0.183028,-14.94298 6.517656,-18.570249 4.339174,-2.484653 20.376269,-4.9057 36.231947,-5.469771 11.824134,-0.420648 70.142185,-4.132217 74.152315,-4.719318 1.09005,-0.159587 1.4433,-3.098563 1.64705,-13.70316 0.44369,-23.092359 1.91498,-29.295846 8.51302,-35.893881 3.67774,-3.677739 6.47513,-3.912566 10.13939,-0.851152 5.96101,4.980305 8.43058,13.368544 9.346,31.745033 0.23288,4.675 0.68559,10.822557 1.00602,13.661239 l 0.58259,5.161239 9.18914,0.593217 c 5.05402,0.326269 28.67721,1.720863 52.49598,3.099096 29.4933,1.706581 44.36307,2.947193 46.61818,3.889439 3.74117,1.563157 8.07897,6.7322 9.10717,10.852343 0.37835,1.516115 0.39659,4.309456 0.0405,6.207423 -0.8529,4.546365 -7.63335,13.016124 -12.34384,15.419234 -3.80789,1.94264 -33.28748,8.26377 -56.51469,12.1181 -25.69752,4.26426 -49.08636,8.98281 -49.73598,10.03392 -0.36636,0.59278 -0.96361,9.93985 -1.32723,20.77126 -0.62945,18.75004 -2.8203,47.24859 -4.196,54.58175 -0.79438,4.23436 -0.88682,4.20099 15.48549,5.59063 9.00049,0.76393 12.94291,1.51059 14.25744,2.70022 2.75521,2.49344 4.80208,7.22754 4.80208,11.10649 0,3.79413 -3.13368,9.68039 -5.95837,11.19212 -0.97879,0.52383 -7.76398,1.86964 -15.0782,2.99068 -12.39895,1.90038 -13.42255,1.92608 -15.13101,0.37994 -1.7429,-1.57736 -1.83235,-1.48965 -1.83235,1.79667 0,5.70488 -3.57863,7.72237 -6.4433,3.63248 z"
         id="path3141"
         inkscape:connector-curvature="0" />
      <path
         style="fill:#939393"
         d="M 147.62728,242.47108 C 147.28227,241.57202 147,239.32479 147,237.47723 c 0,-4.33274 -1.35329,-5.11318 -3.41367,-1.96864 -1.98059,3.02276 -4.06078,3.12055 -18.58633,0.8737 -9.20301,-1.42354 -10.83969,-1.98174 -13.25,-4.519 -3.29553,-3.46911 -3.72846,-9.74359 -1.05859,-15.34236 1.96432,-4.11921 3.35185,-4.61708 19.80859,-7.10755 6.05,-0.91558 11.36212,-1.99277 11.80472,-2.39375 0.4426,-0.40099 0.12436,-5.85695 -0.7072,-12.12435 -0.83155,-6.2674 -2.27304,-23.09528 -3.20329,-37.39528 -0.93025,-14.3 -2.0586,-26.99993 -2.50743,-28.22207 -0.93408,-2.54343 0.27447,-2.21831 -23.3868,-6.29134 -9.9,-1.70418 -23.625,-4.18337 -30.5,-5.50932 -6.875,-1.32594 -20.825,-3.80562 -31,-5.51039 C 40.825,110.26211 30.845448,108.16868 28.823219,107.3148 15.646444,101.75094 11.441133,82.896347 21.98745,76.666485 26.597514,73.943253 41.565155,71.907919 63.5,71.021512 c 21.410058,-0.865199 65.252,-3.760853 69.1582,-4.567731 2.06286,-0.426111 2.18195,-1.097611 2.69567,-15.199793 0.76996,-21.136207 1.6362,-26.356169 5.21991,-31.45516 5.55765,-7.907571 11.58603,-7.452085 16.3958,1.238818 2.85052,5.150671 3.66597,9.880399 5.19972,30.159254 0.80359,10.624927 1.48649,14.840773 2.46478,15.216179 0.74427,0.285603 10.24358,1.002017 21.10957,1.592031 62.2511,3.380182 84.55211,5.041401 87.69417,6.532406 4.76833,2.262721 7.91445,8.44455 7.34004,14.422491 -0.56704,5.901311 -5.2582,12.817613 -10.81048,15.938173 -4.03877,2.26991 -26.67467,7.26714 -52.7885,11.65388 -30.9827,5.20464 -52.73343,9.63304 -54.1553,11.0259 -1.14767,1.12427 -1.64226,5.84121 -2.22121,21.18417 -0.6039,16.00388 -3.21514,52.05032 -4.09689,56.55467 -0.4036,2.06177 5.08305,3.62679 14.86175,4.23917 14.0627,0.88067 15.65659,1.51677 18.3822,7.33607 2.68861,5.74029 2.24955,9.26388 -1.744,13.99616 -2.59041,3.06958 -3.29185,3.29386 -16.49835,5.27499 -13.15376,1.97321 -13.88265,1.98789 -15.72915,0.31683 -2.17092,-1.96465 -2.66084,-1.34629 -3.18493,4.01998 -0.21278,2.17863 -0.87418,3.08292 -2.41572,3.30287 -1.25203,0.17864 -2.38002,-0.36763 -2.75,-1.33179 z"
         id="path3139"
         inkscape:connector-curvature="0" />
      <path
         style="fill:#6b6b6b"
         d="M 148.06747,242.12607 C 147.48036,241.02905 147,238.3019 147,236.06574 c 0,-4.86187 -1.35342,-5.21677 -3.56738,-0.93544 -1.82608,3.53124 -1.6523,3.52681 -20.86907,0.53234 -7.81739,-1.21815 -9.22553,-1.75381 -11.24503,-4.27759 -3.66739,-4.58316 -2.5976,-14.53089 1.95223,-18.15328 0.67609,-0.53828 7.64175,-2.00161 15.47925,-3.25186 16.47293,-2.62777 15.04901,-0.73594 12.83731,-17.05584 -0.77698,-5.73324 -2.15353,-22.12407 -3.059,-36.42407 -0.90548,-14.3 -2.06012,-27.0125 -2.56587,-28.25 C 135.45083,126.99818 134.17611,126 133.08909,126 131.26969,126 101.0262,120.72437 84,117.43697 79.875,116.64052 73.8,115.54457 70.5,115.00153 50.76418,111.75381 31.155496,108.07874 28.9812,107.22005 25.888233,105.99855 18.297246,97.912015 16.972332,94.427227 14.445935,87.7823 17.10458,79.542627 22.705777,76.658134 27.01922,74.436805 43.31892,72.012847 57.592211,71.470108 84.839322,70.434043 135.00022,66.602417 135.04583,65.55368 135.07104,64.974156 135.25385,58.65 135.45206,51.5 c 0.42417,-15.300255 1.60346,-25.029628 3.45448,-28.5 2.2223,-4.166453 7.35979,-9.001364 9.53963,-8.977764 1.12961,0.01223 3.02793,0.79973 4.21849,1.75 5.07903,4.053925 7.6674,12.419399 8.88871,28.727764 0.24713,3.3 0.61799,8.25 0.82414,11 0.20615,2.75 0.43054,6.419196 0.49865,8.15377 L 163,66.80754 l 10.25,0.61518 c 5.6375,0.33835 29.51521,1.737192 53.06157,3.108538 28.92144,1.684392 43.87894,2.939329 46.10135,3.86791 5.81892,2.431301 9.40193,9.443779 8.17283,15.995438 -0.85615,4.56369 -6.84231,12.185474 -11.39443,14.507794 -3.77611,1.92642 -33.33459,8.25865 -56.47712,12.09893 -29.30647,4.86313 -49.23651,9.00802 -50.30539,10.4621 -0.64191,0.87326 -1.36452,9.62683 -1.75506,21.26051 -0.63216,18.83086 -2.82108,47.3206 -4.2008,54.67516 -0.87993,4.69046 0.4735,5.24067 15.92929,6.47578 7.0337,0.56209 13.43342,1.55717 14.22161,2.21131 1.35415,1.12385 3.41352,5.10591 4.81103,9.30277 0.77105,2.31556 -2.92526,10.27863 -5.38129,11.59306 -0.97437,0.52147 -7.79303,1.87643 -15.15258,3.01102 l -13.38101,2.0629 -1.37197,-2.02797 c -2.12762,-3.14493 -2.99201,-2.43926 -3.32324,2.71304 -0.33722,5.2455 -2.79988,7.0052 -4.73732,3.38506 z"
         id="path3137"
         inkscape:connector-curvature="0" />
      <path
         style="fill:#535353"
         d="M 147.97525,240.4349 C 147.43886,239.0241 147,236.5491 147,234.9349 c 0,-3.73266 -0.88642,-3.69641 -4.28369,0.17519 -2.45081,2.793 -3.11076,3.03751 -6.47269,2.39814 -2.05899,-0.39158 -7.76237,-1.32011 -12.67418,-2.06339 -10.13162,-1.53317 -13.23693,-3.62099 -14.19846,-9.54618 -0.70239,-4.32835 1.60877,-10.20941 4.79549,-12.20274 1.28344,-0.80281 8.3934,-2.43518 15.79991,-3.6275 7.40651,-1.19232 13.58492,-2.28639 13.7298,-2.43127 0.14489,-0.14488 -0.59358,-6.31001 -1.64103,-13.70029 C 141.0077,186.54659 139.39242,168.8 138.46564,154.5 137.4355,138.6051 136.33741,128.04834 135.6403,127.3379 135.01313,126.69875 125.275,124.53708 114,122.53419 102.725,120.5313 89.9,118.22742 85.5,117.41445 74.038689,115.29679 63.563285,113.44206 46.919642,110.5836 c -8.019198,-1.37726 -15.669198,-2.91948 -17,-3.42715 -1.330803,-0.50768 -4.728445,-3.36685 -7.550314,-6.35372 C 16.1076,94.174875 14.759022,89.165577 17.663549,83.323101 18.673597,81.291383 20.625,78.82095 22,77.833251 c 3.882912,-2.789199 14.942359,-4.722713 33.5,-5.856775 37.822081,-2.311316 78.07428,-5.106624 79.26821,-5.504769 0.94656,-0.315653 1.22015,-3.536031 1.07869,-12.697312 -0.24807,-16.065088 1.2081,-26.486164 4.48149,-32.071777 3.18066,-5.427388 4.98125,-6.952618 8.20782,-6.952618 7.91464,0 11.91938,11.688581 13.10519,38.25 0.30693,6.875 0.87617,12.840496 1.26499,13.256657 0.38881,0.416162 12.83143,1.427769 27.65027,2.248016 52.41359,2.901179 75.81136,4.517335 79.40375,5.484666 7.28138,1.960672 11.9514,9.910739 10.02475,17.065757 -1.30585,4.849581 -8.00831,12.336884 -12.73761,14.229174 -4.20765,1.68357 -36.82817,8.44739 -56.40213,11.6949 -26.45817,4.38968 -48.08987,8.79832 -48.79882,9.94543 -0.40512,0.65549 -1.03602,9.839 -1.402,20.40779 -0.59368,17.1439 -2.41761,40.91974 -4.23951,55.26414 -0.51615,4.06376 -0.33785,5.21529 0.87983,5.68256 0.83993,0.32232 7.08194,1.10793 13.87112,1.74582 13.63719,1.28129 16.26932,2.35553 18.42749,7.52075 1.92103,4.59768 1.77693,7.35087 -0.58773,11.22927 -2.54083,4.16734 -4.85319,5.00714 -19.29269,7.0067 l -11.79688,1.63361 -2.41715,-2.95762 -2.41715,-2.95762 -0.036,4.16821 c -0.0198,2.29252 -0.3091,4.88002 -0.64295,5.75 -0.92797,2.41826 -3.32755,1.88415 -4.41776,-0.98331 z"
         id="path3135"
         inkscape:connector-curvature="0" />
      <path
         style="fill:#2b2b2b"
         d="M 148.62321,241.46048 C 148.28044,240.56725 148,237.84823 148,235.41821 c 0,-5.38947 -2.21645,-6.0056 -4.79651,-1.33334 -1.92144,3.47956 -2.00529,3.48195 -20.59197,0.58486 -7.25837,-1.13135 -9.22579,-1.82414 -10.72776,-3.77758 -2.35662,-3.06498 -2.34629,-10.35339 0.0204,-14.39215 1.69983,-2.90077 2.2511,-3.08269 16.66691,-5.5 12.39421,-2.07832 14.96674,-2.80343 15.25168,-4.29894 0.18851,-0.98941 -0.3488,-7.06441 -1.19402,-13.5 C 141.7835,186.76548 140.34127,169.8 139.42376,155.5 137.69203,128.50967 136.95797,125 133.0446,125 131.26765,125 101.05606,119.73002 84,116.44487 c -4.125,-0.79452 -8.625,-1.6559 -10,-1.91418 -1.375,-0.25829 -10.825,-1.85308 -21,-3.544 C 42.825,109.29578 32.79945,107.4057 30.721,106.78652 26.657184,105.57589 19.615614,98.749386 17.972332,94.427227 15.543958,88.04012 17.784607,80.189901 22.766927,77.629134 27.469568,75.212115 43.837113,72.940094 61,72.321903 70.075,71.99503 90.55,70.776381 106.5,69.613794 L 135.5,67.5 136.19213,53 c 1.19467,-25.027841 2.13297,-29.370062 7.61715,-35.25 2.74824,-2.946572 5.68482,-3.45176 8.33651,-1.434157 2.91329,2.216651 5.9685,8.833447 6.50077,14.079 0.28492,2.807836 0.90122,6.230157 1.36956,7.605157 0.46835,1.375 1.08552,8.246832 1.37151,15.270738 0.28598,7.023905 0.76554,13.168087 1.06569,13.653737 0.30015,0.48565 5.15844,1.159846 10.7962,1.498213 5.63777,0.338367 29.58601,1.741456 53.21831,3.117975 47.40269,2.761081 48.22794,2.911887 51.76358,9.459337 3.88214,7.189113 -0.29863,17.894061 -8.85131,22.66397 -3.89881,2.1744 -31.06671,8.08942 -56.6659,12.33736 -33.20463,5.50999 -49.19769,8.93842 -50.80332,10.89068 -1.27709,1.5528 -1.71988,5.82749 -2.25507,21.77009 -0.6339,18.88329 -2.82152,47.37383 -4.20298,54.73763 -0.96685,5.15379 1.5446,6.27157 16.79832,7.47645 7.01313,0.55396 13.18859,1.27756 13.72324,1.60799 0.93733,0.57931 3.13716,4.99075 4.44049,8.90479 0.75501,2.26737 -2.86134,10.18465 -5.03258,11.01783 -1.78261,0.68405 -27.64363,4.71982 -27.84886,4.34598 -2.01856,-3.67702 -3.90087,-5.7832 -4.56654,-5.10967 -0.4658,0.47129 -0.98641,3.07172 -1.1569,5.77873 -0.31042,4.92844 -2.01593,7.08986 -3.18679,4.03865 z"
         id="path3133"
         inkscape:connector-curvature="0" />
      <path
         style="fill:#010101"
         d="m 149,236.62244 c 0,-8.24914 -3.34233,-9.45686 -7.04173,-2.54446 -1.27583,2.3839 -3.36995,2.38783 -17.24597,0.0324 -12.24428,-2.07846 -13.62999,-3.08226 -13.6805,-9.91002 -0.0343,-4.6412 2.26336,-10.18086 4.24388,-10.23188 3.09817,-0.0798 28.81862,-4.72943 29.40487,-5.31568 0.36332,-0.36332 -0.0841,-6.62133 -0.99421,-13.90668 -0.91013,-7.28536 -2.40458,-24.7211 -3.32099,-38.7461 -0.91641,-14.025 -2.03947,-26.51803 -2.4957,-27.76229 -0.45622,-1.24426 -1.85103,-2.67074 -3.09957,-3.16995 C 133.52154,124.56854 122.825,122.48456 111,120.4367 99.175,118.38883 86.35,116.10167 82.5,115.35412 78.65,114.60657 72.8,113.5547 69.5,113.01663 43.286649,108.74247 29.238707,105.81545 27,104.16135 25.625,103.1454 23.0375,100.40851 21.25,98.079351 18.69916,94.755543 18,92.882495 18,89.372601 18,83.868271 20.007899,79.773061 23.483032,78.189685 28.797989,75.768028 44.01792,73.849133 64.5,73.018356 c 21.508886,-0.872425 66.27091,-3.795044 70.17963,-4.582195 2.09839,-0.42258 2.19788,-1.007289 2.66929,-15.687551 0.74946,-23.338977 1.87517,-28.926521 6.95036,-34.49861 2.61158,-2.867278 5.78986,-2.867278 8.40144,0 4.70036,5.160564 5.65457,9.528825 7.48158,34.25 0.60971,8.25 1.56792,15.297781 2.12934,15.661736 0.56142,0.363955 6.00847,0.941689 12.10456,1.283854 67.01237,3.761311 95.90869,5.745317 98.07868,6.73403 3.5725,1.627739 6.50512,6.819791 6.50512,11.516969 0,5.303637 -4.91131,12.707361 -10.2292,15.420341 -4.14518,2.11471 -27.99367,7.30287 -52.47246,11.41521 -18.86608,3.16943 -46.88999,8.37199 -51.47719,9.55659 -5.01097,1.29405 -5.51461,3.4232 -6.24738,26.41127 -0.59659,18.71579 -3.20431,52.09318 -4.19522,53.6965 -1.11722,1.80771 0.89485,4.7369 3.91923,5.70565 1.76122,0.56414 6.80222,1.28634 11.20222,1.60488 16.74164,1.21202 16.44491,1.1142 18.67536,6.15649 2.25399,5.09552 1.9041,7.98312 -1.4325,11.82215 -1.97054,2.26727 -3.8078,2.81941 -15.13201,4.54746 C 164.52182,235.11491 158.60377,236 158.45963,236 c -0.14414,0 -1.21816,-1.62044 -2.38671,-3.60099 C 153.13064,227.41223 151,229.18608 151,236.62244 151,239.5801 150.55,242 150,242 c -0.55,0 -1,-2.4199 -1,-5.37756 z"
         id="path3131"
         inkscape:connector-curvature="0" />
    </g>
  </g>
</svg>
