<?xml version="1.0" encoding="UTF-8" standalone="no"?>
<!-- Created with Inkscape (http://www.inkscape.org/) -->

<svg
   xmlns:dc="http://purl.org/dc/elements/1.1/"
   xmlns:cc="http://creativecommons.org/ns#"
   xmlns:rdf="http://www.w3.org/1999/02/22-rdf-syntax-ns#"
   xmlns:svg="http://www.w3.org/2000/svg"
   xmlns="http://www.w3.org/2000/svg"
   version="1.1"
   width="498.87958"
   height="382.75598"
   id="svg2">
  <defs
     id="defs4" />
  <metadata
     id="metadata7">
    <rdf:RDF>
      <cc:Work
         rdf:about="">
        <dc:format>image/svg+xml</dc:format>
        <dc:type
           rdf:resource="http://purl.org/dc/dcmitype/StillImage" />
        <dc:title></dc:title>
      </cc:Work>
    </rdf:RDF>
  </metadata>
  <g
     transform="translate(-111.31761,-349.46332)"
     id="layer1">
    <g
       transform="translate(-8.5714244,-11.428571)"
       id="g3114">
      <path
         d="m 378.32088,744.57078 c -0.56935,-1.06384 -1.05507,-5.90134 -1.07938,-10.75 l -0.0442,-8.81574 -1.9176,3.62895 c -2.97921,5.63803 -7.56731,9.02971 -11.35078,8.39091 -1.72878,-0.29189 -9.29015,-1.21716 -16.80305,-2.05616 -30.73803,-3.43265 -36.55274,-5.40759 -43.02902,-14.61463 -7.0703,-10.05152 -6.05061,-18.60988 3.25429,-27.31352 8.84542,-8.27385 9.82066,-8.48848 38.68455,-8.51359 l 25.25001,-0.022 0,-2.93795 c 0,-1.61587 -0.62137,-5.77837 -1.38082,-9.25 -0.75946,-3.47163 -2.12366,-12.61205 -3.03157,-20.31205 -0.9079,-7.7 -2.08847,-16.025 -2.62348,-18.5 -0.53502,-2.475 -1.43746,-9 -2.00544,-14.5 -0.56797,-5.5 -1.68816,-16.3 -2.4893,-24 -0.80114,-7.7 -1.96143,-19.4 -2.57842,-26 -0.61698,-6.6 -1.25279,-12.48969 -1.4129,-13.08819 -0.2629,-0.98272 -12.64086,-3.35626 -26.14376,-5.01321 -4.92001,-0.60375 -5.32977,-0.46981 -8.6158,2.81622 -8.77648,8.77649 -26.1571,6.74781 -32.60308,-3.80546 -2.88597,-4.72487 -4.05242,-5.16616 -19.61543,-7.42089 -4.4,-0.63746 -11.375,-1.7951 -15.5,-2.57253 -4.125,-0.77742 -13.125,-2.29334 -20,-3.36869 -13.70386,-2.1435 -25.92544,-4.17684 -39,-6.48856 -4.675,-0.82658 -12.55,-2.17837 -17.5,-3.00397 -32.28058,-5.38399 -33.97981,-5.88735 -39.70025,-11.76031 -6.31449,-6.48285 -7.49776,-8.9587 -8.3331,-17.43603 -0.58215,-5.9079 -0.36749,-7.79411 1.32149,-11.61234 2.30045,-5.20056 9.24145,-12.41472 13.78866,-14.33131 3.34427,-1.40957 21.37215,-4.04899 50.4232,-7.38236 10.175,-1.16749 23.08393,-2.77739 28.68652,-3.57754 5.60258,-0.80016 12.23879,-1.45483 14.74712,-1.45483 3.86544,0 5.19329,-0.5716 8.7114,-3.75 3.42374,-3.09314 4.89473,-3.75 8.39789,-3.75 2.64153,0 4.97812,0.66157 6.18082,1.75 1.50955,1.36612 3.72616,1.75 10.10499,1.75 l 8.17126,0 0,-15.9652 0,-15.96521 3.04191,-3.46454 c 1.67305,-1.9055 4.34374,-3.75048 5.93486,-4.09995 2.18163,-0.47916 3.05544,-1.37527 3.55385,-3.64453 0.74116,-3.37447 5.98327,-9.86057 7.96938,-9.86057 1.99146,0 7.22908,6.49003 7.97373,9.88039 0.3659,1.66592 1.45476,3.27953 2.4197,3.58579 0.96494,0.30626 3.07116,1.92985 4.6805,3.60798 2.9091,3.03346 2.92796,3.13196 3.25165,16.9885 l 0.32559,13.93734 17.79151,0 17.79151,0 0.61619,-18.25 c 0.78698,-23.30838 2.26398,-43.04153 3.63994,-48.6306 2.31219,-9.39202 9.86617,-18.43905 16.42312,-19.66914 4.6582,-0.87388 10.03459,1.05628 14.71139,5.28148 5.03885,4.5523 7.37692,12.06546 8.83366,28.3861 0.60786,6.81019 1.54087,15.39384 2.07335,19.07479 0.53249,3.68094 0.96816,12.56844 0.96816,19.75 l 0,13.05737 17.42442,0 17.42441,0 0.32559,-13.93734 c 0.32369,-13.85654 0.34255,-13.95504 3.25165,-16.9885 1.60934,-1.67813 3.71556,-3.30172 4.6805,-3.60798 0.96494,-0.30626 2.0538,-1.91987 2.4197,-3.58579 0.74465,-3.39036 5.98227,-9.88039 7.97373,-9.88039 1.98611,0 7.22822,6.4861 7.96938,9.86057 0.49841,2.26926 1.37222,3.16537 3.55385,3.64453 1.59112,0.34947 4.26181,2.19445 5.93486,4.09995 l 3.04191,3.46454 0,15.96521 0,15.9652 8.68555,0 c 7.63093,0 8.97635,-0.2732 11.08056,-2.25 3.24272,-3.04638 10.13066,-3.10971 13.40333,-0.12325 2.00461,1.82931 4.77813,2.36176 19.83056,3.80704 9.625,0.92416 20.2,2.07845 23.5,2.56509 3.3,0.48665 13.65,1.59068 23,2.45342 33.78964,3.11781 38.33781,4.27172 44.70669,11.34243 10.15518,11.27425 10.45264,23.0278 0.9029,35.67634 -3.50942,4.6482 -4.49241,5.28364 -11.22787,7.25808 -10.2924,3.01712 -17.63018,4.77163 -30.38172,7.26444 -6.05,1.18272 -14.375,2.96641 -18.5,3.96376 -4.125,0.99735 -10.875,2.37065 -15,3.05177 -4.125,0.68113 -9.975,1.80202 -13,2.49088 -3.025,0.68886 -8.875,1.80772 -13,2.48635 -4.125,0.67864 -12.14095,2.32892 -17.81322,3.6673 -5.67227,1.33837 -13.32227,2.67946 -17,2.98019 -9.68332,0.79181 -12.75989,1.97746 -15.00502,5.78268 -2.65585,4.50133 -7.77896,8.21596 -13.40734,9.72133 -4.06171,1.08634 -5.45622,1.01248 -10.41884,-0.55185 -3.15122,-0.99334 -6.98793,-3.06451 -8.52603,-4.6026 l -2.79654,-2.79654 -12.51503,1.88715 c -11.85229,1.78721 -15.72022,2.48894 -19.76798,3.58632 -1.55776,0.42233 -1.7509,1.97752 -1.7582,14.15706 -0.005,7.52543 -0.42977,17.50761 -0.94501,22.18261 -0.51524,4.675 -1.42407,16.375 -2.01962,26 -0.59555,9.625 -1.50469,19.525 -2.02031,22 -0.51562,2.475 -1.41509,10.575 -1.99883,18 -0.58374,7.425 -1.33596,16.5375 -1.6716,20.25 l -0.61025,6.75 27.68657,0 c 30.34098,0 30.37954,0.007 36.28657,6.16468 8.87416,9.25139 8.24203,22.07166 -1.55719,31.58148 -4.83168,4.68899 -12.78264,7.36618 -30.64213,10.31761 -6.6,1.0907 -15.0426,2.65409 -18.76134,3.4742 -6.42292,1.41648 -6.95952,1.39001 -10.72094,-0.52893 -2.17779,-1.11102 -4.62967,-3.25507 -5.44863,-4.76454 -1.42763,-2.63135 -1.49067,-2.42229 -1.52905,5.07124 -0.046,8.98228 -1.0959,11.68426 -4.54004,11.68426 -1.37865,0 -2.87742,-0.8367 -3.46482,-1.93426 z"
         id="path3128"
         style="fill:#d3d3d3" />
      <path
         d="m 379.4857,745.30504 c -0.77007,-0.77007 -1.2,-4.71111 -1.2,-11 0,-5.69447 -0.40817,-9.8 -0.97432,-9.8 -0.53588,0 -1.72544,1.4625 -2.64348,3.25 -0.91804,1.7875 -2.87694,4.4935 -4.35312,6.01334 l -2.68396,2.76334 -17.42256,-2.02952 c -35.4075,-4.12454 -39.24295,-5.40522 -45.90619,-15.32838 -4.66472,-6.94689 -5.26775,-12.29555 -2.08879,-18.52683 2.30226,-4.51279 8.45879,-10.27809 13.98752,-13.09864 3.72999,-1.90289 5.79468,-2.04331 30.04506,-2.04331 l 26.03984,0 0,-2.93795 c 0,-1.61587 -0.62137,-5.77837 -1.38082,-9.25 -0.75946,-3.47163 -2.12366,-12.61205 -3.03157,-20.31205 -0.9079,-7.7 -2.08847,-16.025 -2.62348,-18.5 -0.53502,-2.475 -1.43746,-9 -2.00544,-14.5 -2.78466,-26.96543 -3.90515,-37.94503 -4.9495,-48.5 -0.62583,-6.325 -1.33534,-12.86143 -1.5767,-14.5254 l -0.43885,-3.02541 -11.74682,-1.76503 c -21.23677,-3.19095 -21.60747,-3.20062 -22.74682,-0.593 -2.65902,6.08564 -15.82728,8.75887 -24.26982,4.9269 -4.70573,-2.13588 -10.23018,-7.56706 -10.23018,-10.05746 0,-1.65037 -3.43784,-2.51282 -20,-5.01742 -4.125,-0.6238 -10.875,-1.76565 -15,-2.53746 -4.125,-0.7718 -13.125,-2.28312 -20,-3.35847 -13.44557,-2.1031 -25.47428,-4.10186 -39,-6.48046 -16.12548,-2.8358 -25.52566,-4.41489 -33.5,-5.62751 -4.4,-0.66908 -8.4275,-1.60414 -8.95,-2.0779 -0.5225,-0.47376 -2.04439,-0.86138 -3.38197,-0.86138 -3.68206,0 -8.48956,-3.43583 -13.01489,-9.3015 -3.74532,-4.85463 -4.12462,-5.91759 -4.7386,-13.27978 -0.58292,-6.98972 -0.39929,-8.52829 1.45064,-12.15445 2.3362,-4.57933 8.19982,-10.71955 12.23513,-12.81228 2.69908,-1.39976 19.83434,-3.95054 49.89969,-7.42814 9.625,-1.11331 21.1,-2.51716 25.5,-3.11968 4.4,-0.60252 11.84917,-1.45912 16.55371,-1.90354 8.01602,-0.75725 8.77977,-1.03411 12.15,-4.40434 4.23156,-4.23156 8.9814,-4.81172 13.06916,-1.59629 2.09451,1.64754 4.05678,2 11.13486,2 l 8.59227,0 0,-16.89641 0,-16.89641 3.5348,-3.10359 c 1.94413,-1.70697 4.64413,-3.10359 6,-3.10359 1.92155,0 2.4652,-0.51871 2.4652,-2.35212 0,-2.61026 3.56874,-8.38114 6.19146,-10.01201 1.29424,-0.80479 2.19894,-0.59254 3.85238,0.90381 2.7036,2.44672 4.95616,6.72384 4.95616,9.41066 0,1.34567 0.65135,2.04966 1.89641,2.04966 1.04302,0 3.29302,1.59066 5,3.5348 l 3.10359,3.53479 0,13.98727 0,13.98727 18.75,-0.27206 18.75,-0.27207 0.66596,-18 c 0.84009,-22.70624 2.48204,-44.89923 3.6763,-49.68949 1.68371,-6.75351 7.424,-14.83833 12.35808,-17.40552 8.58741,-4.46803 19.95831,2.30929 23.23644,13.84947 0.81954,2.88504 1.95784,10.19554 2.52956,16.24554 0.57172,6.05 1.32554,13.25 1.67516,16 0.34962,2.75 0.9108,12.425 1.24708,21.5 l 0.61142,16.5 18.25,0.27256 18.25,0.27256 0,-13.98776 0,-13.98777 3.10359,-3.53479 c 1.70698,-1.94414 3.95698,-3.5348 5,-3.5348 1.32438,0 1.89641,-0.7095 1.89641,-2.35212 0,-2.61026 3.56874,-8.38114 6.19146,-10.01201 1.29424,-0.80479 2.19894,-0.59254 3.85238,0.90381 2.7036,2.44672 4.95616,6.72384 4.95616,9.41066 0,1.51192 0.64676,2.04966 2.4652,2.04966 1.35587,0 4.04515,1.38721 5.9762,3.08269 l 3.51099,3.08269 0.27381,16.66731 0.2738,16.66731 8.80836,0.28978 c 8.18853,0.2694 9.02077,0.11106 11.82673,-2.25 3.88418,-3.26832 8.73498,-3.34694 12.53818,-0.20321 2.50892,2.07387 4.85046,2.52947 20.82673,4.05233 9.9,0.94367 20.7,2.11604 24,2.60527 3.3,0.48924 13.65,1.59539 23,2.45813 32.29123,2.97955 36.75957,4.01037 42.13168,9.71953 6.09985,6.48256 8.36832,11.26955 8.36832,17.65907 0,7.4536 -1.37147,11.37269 -6.2513,17.86361 -3.37568,4.49017 -4.74205,5.45791 -10.07695,7.1371 -6.71471,2.1135 -19.30425,5.07013 -32.67175,7.6729 -4.675,0.91027 -11.875,2.46755 -16,3.46062 -4.125,0.99307 -10.875,2.36287 -15,3.04399 -4.125,0.68113 -9.975,1.80202 -13,2.49088 -3.025,0.68886 -8.875,1.80772 -13,2.48635 -4.125,0.67864 -12.06931,2.31133 -17.65402,3.62819 -5.58471,1.31687 -13.90971,2.79391 -18.5,3.28231 -10.66262,1.13448 -11.90295,1.68004 -15.97606,7.02698 -4.11149,5.39731 -10.72252,9.07966 -16.2772,9.0664 -4.74049,-0.0113 -13.69144,-3.86538 -15.72712,-6.77173 -1.56503,-2.23439 -1.71207,-2.22324 -25.1156,1.90483 l -11.75,2.07255 -0.008,14.65206 c -0.005,8.05863 -0.42977,18.47706 -0.94501,23.15206 -0.51524,4.675 -1.42407,16.375 -2.01962,26 -0.59555,9.625 -1.50469,19.525 -2.02031,22 -0.51562,2.475 -1.41509,10.575 -1.99883,18 -0.58374,7.425 -1.33596,16.5375 -1.6716,20.25 l -0.61025,6.75 28.95691,0 28.95691,0 4.21449,3.60745 c 10.99043,9.4074 11.185,22.45961 0.48963,32.84682 -4.4592,4.33072 -12.00131,6.84731 -28.84412,9.62445 -6.6,1.08825 -15.27125,2.68785 -19.26946,3.55467 -6.6472,1.44112 -7.55892,1.43866 -10.65126,-0.0287 -1.85999,-0.88263 -4.43873,-3.29225 -5.73054,-5.35471 l -2.34894,-3.74998 -0.29012,9.44588 c -0.15956,5.19523 -0.77716,10.03273 -1.37244,10.75 -1.35039,1.62712 -3.0757,1.66586 -4.63744,0.10412 z"
         id="path3126"
         style="fill:#aaaaaa" />
      <path
         d="m 379.80027,744.32895 c -0.26365,-0.72815 -0.59979,-5.36885 -0.74697,-10.31266 -0.21823,-7.33046 -0.56453,-9.04548 -1.87711,-9.29627 -0.99773,-0.19063 -2.07065,0.80574 -2.82266,2.62127 -0.66723,1.61084 -2.48673,4.14896 -4.04333,5.64028 l -2.83019,2.71149 -14.84716,-1.65098 c -36.47048,-4.05548 -41.00885,-5.42536 -47.36069,-14.29559 -3.49048,-4.8744 -3.98646,-6.25124 -3.98646,-11.06638 0,-7.68301 3.38114,-13.17236 11.24347,-18.25403 l 6.0666,-3.92104 26.22252,0 c 22.25162,0 26.4137,-0.23036 27.48503,-1.52123 1.02104,-1.23028 0.9623,-2.99944 -0.30714,-9.25 -0.8633,-4.25082 -2.28544,-13.57877 -3.16029,-20.72877 -0.87486,-7.15 -2.24222,-17.05 -3.03858,-22 -0.79636,-4.95 -2.15467,-16.2 -3.01846,-25 -0.8638,-8.8 -2.01533,-19.825 -2.55897,-24.5 -0.54364,-4.675 -1.39498,-12.91624 -1.89187,-18.31387 -0.49688,-5.39762 -1.3878,-10.39749 -1.9798,-11.11081 -0.592,-0.71332 -3.43575,-1.55992 -6.31944,-1.88133 -2.88369,-0.32142 -9.89333,-1.2994 -15.57699,-2.1733 l -10.33392,-1.58891 -3.74138,3.85524 c -4.94374,5.09419 -11.14789,6.93205 -17.81963,5.27871 -6.52514,-1.617 -11.92329,-5.37213 -14.01942,-9.75237 -1.93063,-4.03439 -3.15312,-4.43098 -22.25173,-7.21869 -4.675,-0.68238 -11.875,-1.88229 -16,-2.66646 -4.125,-0.78418 -13.125,-2.30561 -20,-3.38096 -18.34282,-2.86911 -43.40164,-7.14492 -56.70784,-9.67612 -3.96432,-0.75412 -8.46432,-1.40209 -10,-1.43993 -6.08369,-0.14992 -20.39867,-4.51602 -23.85893,-7.27702 -6.44635,-5.14366 -8.58804,-9.58807 -9.17812,-19.04626 -0.4893,-7.84291 -0.33415,-8.79734 2.10736,-12.96346 3.22292,-5.4995 8.95138,-10.38018 13.63753,-11.61926 3.23234,-0.85467 52.31129,-7.02707 92.82448,-11.67405 3.13497,-0.35959 5.32403,-1.43883 7.95834,-3.92359 4.32203,-4.07667 9.29578,-4.56956 14.44301,-1.4313 3.80351,2.319 16.50911,2.8688 18.57417,0.80374 0.83546,-0.83546 1.2,-6.16617 1.2,-17.54775 0,-16.29316 0.009,-16.35574 2.58299,-18.74158 1.42065,-1.31662 3.73776,-2.53263 5.14914,-2.70226 2.72026,-0.32693 3.81532,-1.70304 4.68418,-5.88635 0.72099,-3.47137 5.07725,-8.05363 6.96702,-7.32846 2.04519,0.78482 4.83315,5.22634 5.57745,8.88548 0.42605,2.09456 1.588,3.48317 3.78923,4.52834 5.72156,2.71669 6.18319,4.13036 6.21819,19.04258 0.0215,9.167 0.41996,13.93816 1.2318,14.75 1.88329,1.88329 35.18995,1.6672 37.09784,-0.24069 1.10821,-1.10822 1.58093,-5.89681 2.04839,-20.75 0.7507,-23.85286 2.21069,-44.33324 3.4445,-48.31868 1.56305,-5.04895 6.90825,-12.89041 10.04809,-14.74063 7.19306,-4.23868 17.75574,-0.72527 21.87179,7.2751 3.55279,6.90556 6.0797,27.3904 7.18715,58.26394 0.47942,13.36499 0.90816,16.9819 2.10224,17.73469 2.29363,1.44597 34.33051,1.24576 35.8,-0.22373 0.81184,-0.81184 1.21029,-5.583 1.2318,-14.75 0.035,-14.91222 0.49663,-16.32589 6.21819,-19.04258 2.20123,-1.04517 3.36318,-2.43378 3.78923,-4.52834 0.7443,-3.65914 3.53226,-8.10066 5.57745,-8.88548 1.88977,-0.72517 6.24603,3.85709 6.96702,7.32846 0.86886,4.18331 1.96392,5.55942 4.68418,5.88635 1.41138,0.16963 3.72849,1.38564 5.14914,2.70226 2.56965,2.38146 2.58299,2.47637 2.58299,18.37015 0,19.32348 -0.11048,19.11918 10.33929,19.11918 6.02845,0 7.79356,-0.40575 10.87552,-2.5 4.69868,-3.19283 9.67431,-3.23522 14.55663,-0.12402 3.21653,2.0497 6.20044,2.60619 21.72856,4.05233 9.9,0.92199 20.7,2.07886 24,2.57083 3.3,0.49196 13.875,1.61145 23.5,2.48776 33.71922,3.06995 36.80782,4.05388 43.05213,13.71506 3.62233,5.60444 3.94787,6.6752 3.94787,12.98519 0,3.82158 -0.66016,8.45706 -1.48582,10.43317 -2.10808,5.04533 -7.3569,11.36939 -10.39506,12.52449 -4.29609,1.63337 -19.94775,5.49232 -31.61912,7.79576 -6.05,1.19402 -14.6,3.01927 -19,4.05611 -4.4,1.03684 -10.925,2.39436 -14.5,3.01671 -3.575,0.62235 -9.425,1.74833 -13,2.50219 -3.575,0.75385 -9.65,1.90153 -13.5,2.55039 -3.85,0.64886 -11.70233,2.26243 -17.44962,3.5857 -5.74729,1.32328 -14.29729,2.81501 -19,3.31496 -11.54116,1.22694 -14.59813,2.45743 -17.08563,6.87729 -5.77148,10.25492 -21.11818,12.22833 -30.56857,3.93078 l -3.43228,-3.01358 -8.23195,1.19982 c -13.49205,1.96649 -25.15559,4.27556 -26.37652,5.22185 -0.75767,0.58724 -1.30545,7.38231 -1.6205,20.10216 -0.58286,23.53218 -2.18607,43.68515 -7.79664,98.00638 -0.86161,8.34203 -0.83982,11.1224 0.096,12.25 1.00836,1.215 5.91221,1.45867 29.35601,1.45867 l 28.14542,0 3.64838,2.47914 c 5.34528,3.63221 9.27955,12.12144 8.44371,18.21955 -0.78119,5.69939 -4.59643,12.4193 -8.90012,15.67607 -3.75581,2.84218 -14.2428,6.14212 -24.2277,7.62374 -3.85,0.57129 -12.00451,2.00895 -18.12113,3.1948 -13.16372,2.55211 -16.02261,1.91541 -20.05067,-4.46545 -1.42591,-2.25878 -2.87364,-3.58241 -3.37258,-3.08347 -0.48081,0.48081 -1.00502,5.13988 -1.16491,10.35348 -0.24849,8.10276 -0.54527,9.52798 -2.04373,9.81462 -0.96417,0.18443 -1.96875,-0.26042 -2.23241,-0.98857 z"
         id="path3124"
         style="fill:#939393" />
      <path
         d="m 379.79934,744.32895 c -0.26417,-0.72815 -0.60031,-5.56251 -0.74697,-10.74302 -0.30612,-10.81242 -1.38643,-12.1508 -5.16296,-6.39628 -1.37716,2.09846 -3.32265,4.83694 -4.32329,6.0855 l -1.81936,2.27011 -17.48053,-2.03629 c -22.27152,-2.59438 -33.06047,-4.47679 -36.82951,-6.42584 -2.97146,-1.5366 -8.85046,-8.07907 -11.01883,-12.26235 -3.05102,-5.88612 -0.20194,-15.41328 6.32239,-21.14172 7.56889,-6.64557 7.46947,-6.62632 37.04542,-7.17402 l 27,-0.5 0.31696,-2.75561 c 0.17433,-1.51558 -0.36254,-6.01558 -1.19305,-10 -0.8305,-3.98441 -2.22769,-13.31939 -3.10485,-20.74439 -0.87716,-7.425 -2.02973,-15.525 -2.56126,-18 -0.53154,-2.475 -1.43113,-9 -1.99911,-14.5 -0.56797,-5.5 -1.68816,-16.3 -2.4893,-24 -0.80114,-7.7 -1.96295,-19.4 -2.58178,-26 -1.69427,-18.06961 -0.6324,-16.59801 -13.45421,-18.64571 -6.01337,-0.96036 -13.73745,-2.04697 -17.16462,-2.41469 -5.99355,-0.64307 -6.26734,-0.57358 -7.1781,1.8219 -1.2636,3.32351 -9.10751,7.07013 -14.62729,6.98669 -7.69887,-0.11639 -17.65619,-6.35806 -18.61615,-11.6694 -0.38332,-2.12083 -4.71336,-3.32088 -19.84724,-5.50058 -4.675,-0.67333 -11.875,-1.86583 -16,-2.65 -4.125,-0.78418 -13.125,-2.30561 -20,-3.38096 -13.44557,-2.1031 -25.47428,-4.10186 -39,-6.48046 -16.12548,-2.8358 -25.52566,-4.41489 -33.5,-5.62751 -4.4,-0.66908 -8.4275,-1.60414 -8.95,-2.0779 -0.5225,-0.47376 -2.04439,-0.86138 -3.38197,-0.86138 -3.60195,0 -8.19539,-3.24292 -12.37855,-8.73915 -3.33231,-4.37829 -3.7785,-5.69027 -4.37738,-12.87138 -0.54557,-6.54186 -0.35084,-8.62301 1.07071,-11.44281 2.12405,-4.21331 8.09667,-10.62799 11.6175,-12.47736 2.69346,-1.41477 19.7005,-3.95237 49.89969,-7.44545 9.625,-1.11331 21.1,-2.51716 25.5,-3.11968 4.4,-0.60252 11.93439,-1.46711 16.74309,-1.9213 8.27838,-0.78192 8.92248,-1.01602 12.11808,-4.40434 4.00489,-4.24643 8.79673,-4.81536 12.96197,-1.53898 2.24186,1.76344 3.78307,2.00034 11.38486,1.75 l 8.792,-0.28955 0.27296,-17.09725 c 0.26516,-16.60894 0.34184,-17.16197 2.68467,-19.36294 1.32644,-1.24613 3.88829,-2.56768 5.693,-2.93678 2.71443,-0.55516 3.39942,-1.24865 3.96505,-4.01426 0.8734,-4.27044 4.08336,-8.58877 6.38432,-8.58877 2.30955,0 5.5134,4.32516 6.38731,8.6228 0.4839,2.37966 1.3037,3.46678 2.77544,3.68047 1.14879,0.16679 3.15713,1.43871 4.46298,2.82649 2.21954,2.35878 2.40686,3.4795 2.87427,17.19673 l 0.5,14.67351 19.5,0 19.5,0 0.66311,-18.5 c 0.82231,-22.94133 2.46247,-45.30905 3.68076,-50.19665 1.33176,-5.34276 6.28563,-12.94813 10.13091,-15.55335 5.78647,-3.92039 14.31622,-2.25818 19.39694,3.77992 3.44792,4.09762 5.32906,11.07779 6.59462,24.47008 0.57172,6.05 1.32661,13.25 1.67754,16 0.35093,2.75 0.91212,12.65 1.24709,22 l 0.60903,17 19,0 19,0 0.5,-14.67351 c 0.46741,-13.71723 0.65473,-14.83795 2.87427,-17.19673 1.30585,-1.38778 3.31419,-2.6597 4.46298,-2.82649 1.47174,-0.21369 2.29154,-1.30081 2.77544,-3.68047 0.87391,-4.29764 4.07776,-8.6228 6.38731,-8.6228 2.30096,0 5.51092,4.31833 6.38432,8.58877 0.56563,2.76561 1.25062,3.4591 3.96505,4.01426 1.80471,0.3691 4.36656,1.69065 5.693,2.93678 2.34283,2.20097 2.41951,2.754 2.68467,19.36294 l 0.27296,17.09725 9.3101,0.28832 c 8.72093,0.27008 9.50101,0.12769 12.32673,-2.25 3.8824,-3.26683 8.73393,-3.34491 12.53644,-0.20175 2.50892,2.07387 4.85046,2.52947 20.82673,4.05233 9.9,0.94367 20.7,2.11604 24,2.60527 3.3,0.48924 13.65,1.59539 23,2.45813 31.6535,2.92071 36.85329,4.07182 41.62937,9.21579 5.63845,6.07276 7.87063,10.9403 7.87063,17.16281 0,7.29444 -1.36778,11.34275 -5.88058,17.40513 -2.96391,3.98165 -4.48868,5.03885 -9.57245,6.63711 -6.6064,2.07694 -19.27032,5.04629 -32.54697,7.63137 -4.675,0.91027 -11.875,2.46755 -16,3.46062 -4.125,0.99307 -10.875,2.36287 -15,3.04399 -4.125,0.68113 -9.975,1.80202 -13,2.49088 -3.025,0.68886 -8.875,1.80772 -13,2.48635 -4.125,0.67864 -12.06931,2.31133 -17.65402,3.62819 -5.58471,1.31687 -13.90971,2.81195 -18.5,3.32239 -11.66877,1.29758 -13.54112,2.02138 -15.69286,6.0664 -2.59061,4.87006 -8.91582,9.10288 -14.55196,9.73816 -5.65352,0.63723 -12.99703,-1.90921 -16.60738,-5.75879 l -2.50623,-2.67229 -12.37189,1.87059 c -6.80455,1.02882 -14.90175,2.43076 -17.99378,3.11544 l -5.62188,1.24485 -0.5953,18.47936 c -0.66253,20.56635 -2.54291,45.42382 -5.82322,76.97935 -2.58653,24.8816 -3.29269,34.00722 -2.74249,35.441 0.52267,1.36207 4.23669,1.559 29.40178,1.559 l 28.80354,0 3.75687,3.09673 c 13.79533,11.37127 8.76832,31.39439 -9.28559,36.98554 -3.58358,1.1098 -11.91559,2.90821 -18.51559,3.99645 -6.6,1.08825 -15.27125,2.68785 -19.26946,3.55467 -6.55644,1.42145 -7.58631,1.42504 -10.5,0.0366 -1.77679,-0.84668 -4.0889,-3.1438 -5.13801,-5.10471 -3.35257,-6.26635 -4.49138,-4.68565 -4.80755,6.67298 -0.24576,8.82909 -0.52627,10.28447 -2.038,10.57391 -0.96417,0.1846 -1.96917,-0.26012 -2.23334,-0.98827 z"
         id="path3122"
         style="fill:#6a6a6a" />
      <path
         d="m 379.89269,742.92325 c -0.33385,-0.86998 -0.60699,-5.59498 -0.60699,-10.5 0,-8.22102 -0.15476,-8.91821 -1.97968,-8.91821 -1.29486,0 -2.6689,1.35099 -3.9721,3.90547 -1.09583,2.14801 -3.08076,4.76156 -4.41095,5.80789 -2.36115,1.85729 -2.7829,1.86076 -17.7779,0.14643 -21.68622,-2.47932 -33.49138,-4.63141 -37.98745,-6.92513 -4.33303,-2.21055 -10.44094,-10.52656 -11.45426,-15.59514 -1.43883,-7.19696 5.69146,-17.58877 15.08234,-21.98127 4.83315,-2.26067 5.8593,-2.33904 30.75,-2.34848 l 25.75,-0.01 0,-4.37733 c 0,-2.40754 -0.64814,-7.47004 -1.44032,-11.25 -0.79217,-3.77997 -2.15318,-12.72267 -3.02447,-19.87267 -0.87129,-7.15 -2.02239,-15.25 -2.55801,-18 -0.53561,-2.75 -1.44124,-9.5 -2.01251,-15 -3.10841,-29.92674 -3.93749,-38.07602 -4.98507,-49 -0.63292,-6.6 -1.32338,-12.92306 -1.53436,-14.05125 -0.33405,-1.78627 -1.80539,-2.27795 -11.38975,-3.80612 -6.05339,-0.96517 -14.06904,-2.01164 -17.81257,-2.32548 -6.58766,-0.55229 -6.84418,-0.48775 -7.98132,2.00801 -1.7517,3.84455 -6.79647,6.08686 -13.76162,6.11679 -8.01789,0.0345 -14.18972,-3.26365 -17,-9.08447 -2.1988,-4.55428 -2.82827,-4.78231 -20.5,-7.42634 -4.125,-0.61717 -10.875,-1.75361 -15,-2.52542 -4.125,-0.7718 -13.125,-2.28312 -20,-3.35847 -13.44557,-2.1031 -25.47428,-4.10186 -39,-6.48046 -13.54474,-2.38195 -24.9201,-4.29986 -33,-5.56387 -4.125,-0.64531 -10.51267,-2.04662 -14.19481,-3.11401 -5.87784,-1.7039 -7.26245,-2.60515 -11.34637,-7.38543 -4.21474,-4.9334 -4.75003,-6.14647 -5.70018,-12.9176 -1.00558,-7.16622 -0.93672,-7.70161 1.678,-13.04592 3.2987,-6.7423 9.68282,-11.97144 16.36241,-13.40223 2.58552,-0.55383 17.97595,-2.61265 34.20095,-4.57516 16.225,-1.96251 34.45,-4.24717 40.5,-5.07702 6.05,-0.82984 12.9112,-1.50358 15.24712,-1.49718 3.42145,0.009 4.9767,-0.643 8,-3.35569 5.24109,-4.70263 7.53664,-5.20794 12.32372,-2.71278 3.17625,1.65556 5.82132,2.0801 12.95995,2.0801 l 8.96921,0 0,-16.42327 c 0,-16.16232 0.0407,-16.47163 2.56028,-19.466 1.47521,-1.75318 3.93881,-3.30134 5.81298,-3.65293 2.79963,-0.52522 3.40864,-1.19329 4.37232,-4.79638 0.6158,-2.30239 2.21575,-5.21592 3.55546,-6.47451 l 2.43583,-2.28834 2.59177,3.08015 c 1.42548,1.69409 2.88477,4.64191 3.24286,6.55072 0.36758,1.95937 1.2489,3.47056 2.02401,3.47056 0.75512,0 2.84254,1.31196 4.63871,2.91548 l 3.26578,2.91547 0.32412,14.60542 0.32411,14.60542 19.67589,-0.2709 19.67588,-0.27089 0.66894,-17.5 c 0.89369,-23.37998 2.5139,-44.51701 3.82152,-49.85504 2.10889,-8.60908 7.80364,-16.26184 13.50011,-18.14185 7.26092,-2.39632 16.99359,3.94593 19.45247,12.67611 2.51655,8.93496 5.06777,33.03616 5.96182,56.32078 l 0.59514,15.5 19.17588,0.27133 19.17587,0.27134 0.32413,-14.60586 0.32412,-14.60586 3.26578,-2.91547 c 1.79617,-1.60352 3.84034,-2.91548 4.54259,-2.91548 0.70225,0 1.78983,-1.91807 2.41683,-4.26237 0.62701,-2.34431 2.23613,-5.29213 3.57584,-6.55072 l 2.43583,-2.28834 2.59177,3.08015 c 1.42548,1.69409 2.87685,4.59974 3.22528,6.45701 0.53058,2.82825 1.1609,3.47579 3.87986,3.98587 1.7855,0.33496 4.33083,1.76177 5.65629,3.17069 2.29864,2.44337 2.43302,3.33163 2.90993,19.23469 l 0.5,16.67302 9.45003,0.29017 c 8.47695,0.2603 9.76202,0.0595 12.48002,-1.95 3.808,-2.81538 8.2438,-2.85771 12.08993,-0.11538 2.45483,1.75032 5.88794,2.40399 19.48002,3.70901 9.075,0.87132 19.425,2.00384 23,2.5167 3.575,0.51286 14.375,1.65184 24,2.53107 32.28207,2.94893 37.20347,4.08703 42.82831,9.90428 7.62708,7.88799 9.63771,14.75808 7.05736,24.11415 -1.52813,5.54083 -7.57881,13.47384 -11.53877,15.12842 -3.86853,1.61637 -15.1823,4.33169 -35.3469,8.48329 -7.975,1.64194 -16.975,3.58281 -20,4.31305 -3.025,0.73024 -8.875,1.8891 -13,2.57524 -4.125,0.68614 -9.975,1.81114 -13,2.5 -3.025,0.68886 -8.875,1.81285 -13,2.49775 -4.125,0.68491 -12,2.30432 -17.5,3.59869 -5.5,1.29437 -13.9271,2.79329 -18.7269,3.33093 -9.60382,1.07576 -12.33079,2.10368 -13.24807,4.99378 -1.00703,3.17285 -8.12797,8.89485 -12.55203,10.08612 -6.33807,1.70667 -15.978,-1.32092 -19.29798,-6.06085 l -1.45714,-2.08037 -13.35894,2.01592 c -7.34742,1.10875 -15.72144,2.52618 -18.60894,3.14984 l -5.25,1.13392 -0.008,14.16713 c -0.005,7.79193 -0.42977,17.99214 -0.94501,22.66714 -0.51524,4.675 -1.42407,16.375 -2.01962,26 -0.59555,9.625 -1.50469,19.525 -2.02031,22 -0.84857,4.07319 -2.28483,19.58944 -3.72172,40.20677 l -0.53711,7.70677 29.57193,0.29323 29.57193,0.29323 3.67617,3.5 c 4.42365,4.21167 7.38009,10.21778 7.40998,15.05366 0.0315,5.10508 -4.54173,13.61773 -9.08336,16.90767 -4.30586,3.11915 -14.9359,6.06827 -30.89468,8.57118 -5.775,0.90573 -13.01754,2.22521 -16.09454,2.93218 -7.12343,1.63668 -10.40029,0.40816 -14.19127,-5.32039 -1.50861,-2.27936 -3.18638,-4.1443 -3.72858,-4.1443 -0.57405,0 -0.98581,3.72498 -0.98581,8.91821 0,9.64263 -0.50472,12.08179 -2.5,12.08179 -0.70731,0 -1.55917,-0.7118 -1.89301,-1.58179 z"
         id="path3120"
         style="fill:#535353" />
      <path
         d="m 380.96903,743.85504 c -0.37583,-0.37583 -0.68333,-4.82823 -0.68333,-9.89422 0,-6.58967 -0.3908,-9.53522 -1.37325,-10.35059 -1.91065,-1.58569 -4.23431,-0.45453 -5.58065,2.71667 -0.62536,1.47297 -2.21955,3.91514 -3.54264,5.42703 l -2.40562,2.74889 -17.29892,-2.01507 c -22.05014,-2.56851 -32.88623,-4.45938 -36.6197,-6.39003 -2.9124,-1.50606 -7.78178,-6.97833 -10.03453,-11.27694 -3.00027,-5.725 -0.17206,-15.59059 5.94499,-20.73775 7.6658,-6.45034 8.3774,-6.57799 36.67048,-6.57799 18.76432,0 26.16843,-0.32859 27.03984,-1.2 1.56714,-1.56714 1.51614,-5.23076 -0.18082,-12.98795 -0.75946,-3.47163 -2.12366,-12.61205 -3.03157,-20.31205 -0.9079,-7.7 -2.08847,-16.025 -2.62348,-18.5 -0.94263,-4.36061 -1.37833,-8.13094 -4.50694,-39 -0.80828,-7.975 -1.9168,-18.08819 -2.46339,-22.47377 -0.54659,-4.38557 -1.00043,-9.78557 -1.00854,-12 -0.0286,-7.80627 -1.14016,-8.6872 -13.48526,-10.68713 -6.05,-0.98012 -13.92228,-1.90737 -17.49395,-2.06056 -5.93333,-0.25449 -6.5808,-0.0816 -7.5,2.00297 -1.36133,3.08719 -8.8222,6.5456 -13.95358,6.46802 -7.47796,-0.11304 -17.55247,-6.03302 -17.55247,-10.31418 0,-3.21757 -2.93335,-4.15147 -22,-7.00421 -4.125,-0.61717 -10.875,-1.75361 -15,-2.52542 -4.125,-0.7718 -13.125,-2.28312 -20,-3.35847 -13.44557,-2.1031 -25.47428,-4.10186 -39,-6.48046 -16.12548,-2.8358 -25.52566,-4.41489 -33.5,-5.62751 -4.4,-0.66908 -8.4275,-1.60414 -8.95,-2.0779 -0.5225,-0.47376 -2.0975,-0.86435 -3.5,-0.86797 -3.45923,-0.009 -7.31039,-2.71587 -11.48242,-8.07085 -3.09572,-3.9735 -3.55758,-5.36371 -4.15272,-12.49998 -0.54867,-6.57904 -0.35546,-8.65179 1.06972,-11.47592 2.14637,-4.25327 7.14877,-9.66304 10.61573,-11.48025 2.69438,-1.41226 19.72272,-3.95205 49.89969,-7.44256 9.625,-1.11331 21.1,-2.51716 25.5,-3.11968 4.4,-0.60252 11.9905,-1.47237 16.86778,-1.933 8.43967,-0.79707 9.02551,-1.0097 12.13487,-4.40434 3.86041,-4.21458 8.65611,-4.80299 12.77022,-1.56683 2.08384,1.63915 4.05678,2 10.93486,2 5.19399,0 8.84959,-0.45732 9.59227,-1.2 0.83768,-0.83768 1.2,-6.25054 1.2,-17.92742 l 0,-16.72742 2.63486,-2.07258 c 1.44917,-1.13992 3.60917,-2.07258 4.8,-2.07258 2.72263,0 4.56403,-1.7935 4.56888,-4.45 0.005,-2.86989 3.65662,-8.55 5.49626,-8.55 1.83964,0 5.49103,5.68011 5.49626,8.55 0.005,2.50437 1.8108,4.45 4.13116,4.45 0.95008,0 2.66008,1.18569 3.8,2.63486 1.86712,2.37365 2.07258,3.98954 2.07258,16.3 0,9.29511 0.38375,14.04889 1.2,14.86514 1.73705,1.73705 38.16045,1.69101 39.55981,-0.05 0.55259,-0.6875 1.27372,-9.8 1.60251,-20.25 0.7119,-22.62609 2.20268,-43.62676 3.44819,-48.57481 1.37104,-5.44671 6.14954,-12.92969 9.60051,-15.03407 3.71613,-2.26608 8.1075,-2.40807 12.87447,-0.4163 7.31081,3.05465 9.97743,9.61528 11.68307,28.74358 0.60232,6.75488 1.5308,15.29328 2.06328,18.97423 0.53249,3.68094 0.96816,12.92844 0.96816,20.55 0,9.44462 0.38213,14.2395 1.2,15.05737 1.68991,1.68991 36.91009,1.68991 38.6,0 0.81625,-0.81625 1.2,-5.57003 1.2,-14.86514 0,-12.31046 0.20546,-13.92635 2.07258,-16.3 1.13992,-1.44917 2.84992,-2.63486 3.8,-2.63486 2.32036,0 4.12659,-1.94563 4.13116,-4.45 0.005,-2.86989 3.65662,-8.55 5.49626,-8.55 1.83964,0 5.49103,5.68011 5.49626,8.55 0.005,2.6565 1.84625,4.45 4.56888,4.45 1.19083,0 3.35083,0.93266 4.8,2.07258 l 2.63486,2.07258 0,16.72742 c 0,11.67688 0.36232,17.08974 1.2,17.92742 0.75367,0.75367 4.51237,1.2 10.10564,1.2 8.0404,0 9.19431,-0.24289 11.87673,-2.5 3.83601,-3.22779 8.70662,-3.29152 12.4909,-0.16343 2.50892,2.07387 4.85046,2.52947 20.82673,4.05233 9.9,0.94367 20.7,2.11604 24,2.60527 3.3,0.48924 13.65,1.59539 23,2.45813 30.90967,2.85208 36.96309,4.13416 41.12644,8.71038 5.38504,5.91906 7.37625,10.57612 7.29748,17.06745 -0.0876,7.22211 -1.2275,10.6994 -5.42392,16.54626 -2.44063,3.40052 -4.11875,4.53583 -9,6.08885 -6.51427,2.07259 -19.0814,5.02655 -32.5,7.63927 -4.675,0.91027 -11.875,2.46755 -16,3.46062 -4.125,0.99307 -10.875,2.36287 -15,3.04399 -4.125,0.68113 -9.975,1.80202 -13,2.49088 -3.025,0.68886 -8.875,1.80772 -13,2.48635 -4.125,0.67864 -12.06931,2.31133 -17.65402,3.62819 -5.58471,1.31687 -13.90971,2.81195 -18.5,3.32239 -12.12594,1.34842 -14.0051,2.09974 -16.3333,6.53033 -5.60095,10.65865 -22.07263,12.52922 -30.46525,3.45971 l -2.54743,-2.75288 -8.5,1.38104 c -19.80894,3.21847 -26.97265,4.70829 -27.85544,5.79305 -0.51555,0.6335 -1.15301,9.47682 -1.41657,19.65182 -0.52053,20.09504 -2.27954,43.74607 -5.65238,76 -3.1176,29.81305 -3.41166,34.89016 -2.11149,36.45676 1.09965,1.325 5.31579,1.54324 29.81393,1.54324 l 28.53317,0 3.35362,2.55793 c 7.00614,5.34385 9.64653,15.97195 5.84146,23.51306 -4.71841,9.3512 -10.94217,12.36966 -33.0063,16.00773 -6.6,1.08825 -15.25129,2.68341 -19.2251,3.5448 -8.81745,1.91133 -11.82525,0.94922 -15.16298,-4.85021 -1.45063,-2.52053 -2.8363,-3.78126 -3.92679,-3.57271 -1.41366,0.27034 -1.73196,1.84932 -1.97584,9.80154 -0.27552,8.98391 -0.9847,11.88912 -2.52596,10.34786 z"
         id="path3118"
         style="fill:#2b2b2b" />
      <path
         d="m 381.48925,734.32647 c -0.21168,-10.06523 -1.63045,-13.63906 -4.91428,-12.37894 -0.79906,0.30663 -1.63189,0.55751 -1.85073,0.55751 -0.21884,0 -1.25915,1.6875 -2.31181,3.75 -3.89088,7.62355 -3.50327,7.53696 -23.37954,5.22296 -33.43566,-3.89259 -36.57589,-4.88002 -42.39928,-13.33215 -7.03433,-10.20971 -2.93559,-21.30448 10.35243,-28.02276 2.70395,-1.36708 7.22968,-1.61805 29.17857,-1.61805 31.97982,0 30.95831,0.52246 27.74027,-14.18795 -0.75946,-3.47163 -2.12366,-12.61205 -3.03157,-20.31205 -0.9079,-7.7 -2.08847,-16.025 -2.62348,-18.5 -0.53502,-2.475 -1.43746,-9 -2.00544,-14.5 -0.56797,-5.5 -1.68816,-16.3 -2.4893,-24 -0.80114,-7.7 -1.96833,-19.4 -2.59374,-26 -1.51972,-16.03773 -2.38288,-19.36845 -5.16149,-19.91702 -3.07873,-0.60781 -22.13922,-3.41871 -28.322,-4.17671 -4.11694,-0.50473 -5.37792,-0.29542 -6.5,1.07896 -5.56163,6.81213 -10.52289,9.10917 -17.00675,7.87403 -6.59589,-1.25647 -13.86992,-6.11443 -13.90072,-9.28357 -0.0387,-3.98531 -3.16214,-5.05769 -23.48469,-8.06314 -4.4,-0.65071 -11.375,-1.81918 -15.5,-2.59661 -4.125,-0.77742 -13.125,-2.29334 -20,-3.36869 -13.70386,-2.1435 -25.92544,-4.17684 -39,-6.48856 -4.675,-0.82658 -12.775,-2.21616 -18,-3.08795 -5.225,-0.87178 -12.2,-2.03821 -15.5,-2.59206 -12.78871,-2.14636 -17.87905,-4.50215 -22.27176,-10.30731 -2.84962,-3.7659 -3.35041,-5.34384 -3.88142,-12.2298 -0.52347,-6.78821 -0.31664,-8.4804 1.46284,-11.96848 2.67087,-5.23533 8.15784,-10.02362 12.92721,-11.28113 3.46756,-0.91427 50.29852,-6.82133 93.12443,-11.74633 3.238,-0.37238 5.24267,-1.38293 7.78333,-3.92359 4.02821,-4.02821 8.22004,-4.4919 12.85537,-1.42204 2.36966,1.56937 4.6809,1.98499 11,1.9781 4.4,-0.005 8.675,-0.43445 9.5,-0.95478 1.20864,-0.7623 1.59712,-4.39431 2,-18.69877 0.49912,-17.72159 0.50438,-17.75489 3,-18.99533 1.375,-0.68344 3.73065,-1.49396 5.23477,-1.80115 1.96397,-0.40111 2.89721,-1.32933 3.31109,-3.2933 1.01924,-4.83652 3.37875,-9.23477 4.95414,-9.23477 1.58046,0 3.93332,4.39735 4.96557,9.28033 0.44239,2.09268 1.33202,2.92919 3.59697,3.38218 5.2259,1.04518 5.93746,3.2609 5.93746,18.48857 0,11.12672 0.29573,14.00179 1.57143,15.27749 1.31487,1.31488 4.58009,1.57143 20,1.57143 16.65971,0 18.60783,-0.17926 20.29616,-1.86759 1.64753,-1.64753 1.93939,-4.15145 2.47697,-21.25 0.76038,-24.18542 2.2138,-44.40763 3.48868,-48.54 1.71861,-5.5707 6.30634,-12.36323 9.44722,-13.98744 3.64533,-1.88508 10.49823,-1.38522 14.19225,1.03519 3.55077,2.32655 6.32108,8.34479 7.49263,16.27705 1.82265,12.34058 3.32623,30.55203 3.93544,47.66623 0.53801,15.11385 0.79751,16.97814 2.54035,18.25 2.9883,2.18075 36.78608,2.0465 38.98744,-0.15487 1.2757,-1.2757 1.57143,-4.15077 1.57143,-15.27749 0,-15.22767 0.71156,-17.44339 5.93746,-18.48857 2.26495,-0.45299 3.15458,-1.2895 3.59697,-3.38218 1.03225,-4.88298 3.38511,-9.28033 4.96557,-9.28033 1.57539,0 3.9349,4.39825 4.95414,9.23477 0.41388,1.96397 1.34712,2.89219 3.31109,3.2933 1.50412,0.30719 3.85977,1.11767 5.23477,1.80105 2.49105,1.23808 2.50179,1.30444 3,18.53978 0.59887,20.71756 0.23481,20.1311 12.49685,20.1311 7.08528,0 8.54442,-0.31712 11.50315,-2.5 4.24993,-3.1355 8.3801,-3.17602 12.94625,-0.12701 3.0874,2.06158 5.91586,2.59337 21.55375,4.05233 9.9,0.92364 20.7,2.08185 24,2.57382 3.3,0.49196 13.875,1.6042 23.5,2.47164 21.22625,1.91298 33.43017,3.92584 36.669,6.048 1.3335,0.87374 3.9785,4.01784 5.87777,6.98688 3.0274,4.73259 3.45323,6.19769 3.45323,11.8812 0,7.76835 -1.00306,10.69053 -5.59191,16.29061 -2.66213,3.24878 -4.69669,4.5904 -8.6919,5.73159 -8.47056,2.41951 -16.52266,4.29855 -28.21619,6.58453 -6.05,1.18272 -14.375,2.96641 -18.5,3.96376 -4.125,0.99735 -10.875,2.37065 -15,3.05177 -4.125,0.68113 -9.975,1.80202 -13,2.49088 -3.025,0.68886 -8.875,1.80772 -13,2.48635 -4.125,0.67864 -12.14095,2.32892 -17.81322,3.6673 -5.67227,1.33837 -13.32227,2.68768 -17,2.99846 -3.67773,0.31077 -9.0203,1.21469 -11.87237,2.0087 -4.39575,1.22377 -5.56125,2.08467 -7.65194,5.65217 -3.13672,5.35241 -8.90304,8.68702 -15.02187,8.68702 -5.31181,0 -13.34929,-3.5068 -14.20309,-6.19689 -0.70981,-2.2364 -2.94431,-2.27275 -16.36426,-0.26617 -15.4256,2.30648 -23.24203,4.122 -24.19065,5.61877 -0.46858,0.73936 -0.86256,8.09429 -0.87549,16.34429 -0.0129,8.25 -0.44508,18.825 -0.96032,23.5 -0.51524,4.675 -1.42407,16.375 -2.01962,26 -0.59555,9.625 -1.50469,19.525 -2.02031,22 -0.51562,2.475 -1.40991,10.575 -1.98732,18 -0.5774,7.425 -1.32264,16.22573 -1.65609,19.55717 -0.9832,9.82326 -2.24434,9.44283 31.30361,9.44283 32.9464,0 32.56675,-0.0996 37.06152,9.71833 2.7485,6.00351 2.56942,9.81705 -0.76822,16.35937 -4.05497,7.9484 -9.71591,10.54824 -30.46036,13.98918 -6.6,1.09476 -15.27013,2.69944 -19.26695,3.56595 -3.99683,0.86651 -8.36533,1.2998 -9.70778,0.96287 -1.34639,-0.33792 -3.82646,-2.62656 -5.53109,-5.10415 -3.42287,-4.97498 -6.62361,-5.93488 -7.47435,-2.24155 -0.28505,1.2375 -0.65203,6.075 -0.8155,10.75 l -0.29724,8.5 -0.20354,-9.67857 z"
         id="path3116"
         style="fill:#000000" />
    </g>
  </g>
</svg>
