<?xml version="1.0" encoding="UTF-8" standalone="no"?>
<!-- Created with Inkscape (http://www.inkscape.org/) -->

<svg
   xmlns:dc="http://purl.org/dc/elements/1.1/"
   xmlns:cc="http://creativecommons.org/ns#"
   xmlns:rdf="http://www.w3.org/1999/02/22-rdf-syntax-ns#"
   xmlns:svg="http://www.w3.org/2000/svg"
   xmlns="http://www.w3.org/2000/svg"
   xmlns:sodipodi="http://sodipodi.sourceforge.net/DTD/sodipodi-0.dtd"
   xmlns:inkscape="http://www.inkscape.org/namespaces/inkscape"
   width="496.74881"
   height="402.06119"
   id="svg2"
   version="1.1"
   inkscape:version="0.48.4 r9939"
   sodipodi:docname="New document 1">
  <defs
     id="defs4" />
  <sodipodi:namedview
     id="base"
     pagecolor="#ffffff"
     bordercolor="#666666"
     borderopacity="1.0"
     inkscape:pageopacity="0.0"
     inkscape:pageshadow="2"
     inkscape:zoom="0.35"
     inkscape:cx="248.35714"
     inkscape:cy="187.2143"
     inkscape:document-units="px"
     inkscape:current-layer="layer1"
     showgrid="false"
     fit-margin-top="0"
     fit-margin-left="0"
     fit-margin-right="0"
     fit-margin-bottom="0"
     inkscape:window-width="779"
     inkscape:window-height="573"
     inkscape:window-x="0"
     inkscape:window-y="25"
     inkscape:window-maximized="0" />
  <metadata
     id="metadata7">
    <rdf:RDF>
      <cc:Work
         rdf:about="">
        <dc:format>image/svg+xml</dc:format>
        <dc:type
           rdf:resource="http://purl.org/dc/dcmitype/StillImage" />
        <dc:title></dc:title>
      </cc:Work>
    </rdf:RDF>
  </metadata>
  <g
     inkscape:label="Layer 1"
     inkscape:groupmode="layer"
     id="layer1"
     transform="translate(-126.64286,-317.5153)">
    <g
       id="g3050"
       transform="translate(-14.285714,14.285713)">
      <path
         style="fill:#d3d3d3"
         d="m 384.90382,702.72567 c -0.53639,-1.4108 -0.97525,-5.4608 -0.97525,-9 0,-3.53919 -0.32523,-6.4349 -0.72273,-6.4349 -0.3975,0 -2.36882,1.9125 -4.3807,4.25 l -3.65796,4.25 -14.66989,0.3246 c -12.91396,0.28575 -15.11268,0.0947 -18.3693,-1.59635 -2.03468,-1.05652 -6.06363,-2.48539 -8.95321,-3.17525 -3.78357,-0.9033 -6.66358,-2.52182 -10.29157,-5.78369 -8.87531,-7.97967 -9.88342,-12.53362 -4.70464,-21.25231 8.71499,-14.67205 25.91514,-24.00296 49.69659,-26.95994 4.64563,-0.57764 8.7278,-1.38928 9.07149,-1.80365 0.3437,-0.41438 0.0861,-6.82841 -0.57238,-14.25341 -2.77181,-31.25371 -3.54581,-41.89354 -4.94671,-68 -1.95084,-36.35467 -3.97629,-45.09476 -12.91115,-55.71324 -2.41132,-2.86569 -2.56688,-2.89888 -19.52458,-4.16585 -9.40164,-0.70243 -19.8995,-1.70006 -23.32858,-2.21695 -3.42907,-0.51689 -11.40968,-1.61655 -17.73468,-2.44368 -6.325,-0.82713 -13.525,-1.90866 -16,-2.4034 -2.475,-0.49474 -7.875,-1.54903 -12,-2.34288 -30.19515,-5.81096 -77.77409,-22.02116 -88.5,-30.15205 -1.65,-1.2508 -4.125,-2.62402 -5.5,-3.0516 -5.30166,-1.64865 -17.6336,-10.32724 -24.55459,-17.28026 -7.25325,-7.28681 -10.44541,-12.21481 -10.44541,-16.12541 0,-1.89957 7.93363,-11.10468 9.57082,-11.10468 0.37773,0 2.43011,-1.575 4.56086,-3.5 2.13074,-1.925 4.43528,-3.50501 5.1212,-3.51112 0.68592,-0.006 5.97212,-1.74661 11.74712,-3.86775 5.775,-2.12114 13.142,-4.18032 16.37111,-4.57596 3.2291,-0.39564 7.7291,-1.39291 10,-2.21616 5.10822,-1.85185 12.16705,-3.07148 25.12889,-4.3418 5.5,-0.53902 11.575,-1.40491 13.5,-1.9242 6.27789,-1.69351 54.68139,-3.56301 92.2503,-3.56301 l 36.75029,0 -2.9e-4,-13.20078 c -3.8e-4,-16.85706 1.2252,-22.81608 5.52932,-26.8848 2.70505,-2.5571 3.649,-4.69804 5.51132,-12.5 2.68962,-11.26787 4.04623,-14.23163 8.77219,-19.16442 4.71579,-4.92217 8.62129,-5.06348 13.81887,-0.5 4.7184,4.14276 6.82075,8.96379 8.92388,20.46391 1.40456,7.68031 2.09504,9.48257 4.14837,10.82796 4.98545,3.2666 6.24966,8.41758 6.27379,25.56246 l 0.022,15.60433 21.75,0.59326 c 26.28187,0.71687 70.73604,3.33761 81.75,4.81946 4.4,0.59199 11.825,1.45233 16.5,1.91187 9.76317,0.95969 25.42317,3.32151 32,4.82621 2.475,0.56624 7.65,1.51892 11.5,2.11706 3.85,0.59813 9.025,1.69754 11.5,2.44312 2.475,0.74559 8.1,2.37592 12.5,3.62297 7.42592,2.10465 9.89617,3.32473 16.5,8.14952 1.375,1.00458 4.08566,2.88867 6.02369,4.18687 1.93802,1.2982 4.80979,4.21621 6.3817,6.48447 2.7346,3.94604 2.80342,4.3191 1.59372,8.63969 -0.97307,3.47549 -2.7728,5.92672 -7.81355,10.6421 -8.30448,7.76844 -25.37216,18.93347 -40.18556,26.2879 -6.325,3.14017 -12.70816,6.36044 -14.1848,7.15615 -1.47665,0.7957 -4.62665,1.86543 -7,2.37717 -2.37336,0.51174 -10.1652,2.46058 -17.3152,4.33076 -15.71155,4.10955 -26.14511,6.51064 -33.5,7.7094 -3.025,0.49304 -8.76905,1.58452 -12.76456,2.42552 -11.14874,2.34664 -62.60574,7.59355 -74.28927,7.57505 -3.84232,-0.006 -5.03638,0.50059 -7.6422,3.24279 -8.39504,8.8344 -12.31225,23.83636 -14.81817,56.75 -1.67605,22.01382 -7.23232,77.72185 -7.9491,79.69881 -0.50146,1.38311 1.01236,1.92613 7.9633,2.85652 26.81486,3.5892 46.51761,15.18485 52.36738,30.81975 2.14138,5.72337 2.14377,5.81048 0.27247,9.94942 -3.74647,8.28642 -12.59491,13.76348 -25.63985,15.87071 -7.6857,1.24151 -28.95595,2.15815 -32.05138,1.38125 -1.30421,-0.32733 -3.9043,-2.60289 -5.778,-5.0568 l -3.40672,-4.46165 -0.63195,4.61057 c -0.34761,2.53581 -0.63199,6.08595 -0.63199,7.8892 0,4.81066 -0.91978,6.44222 -3.63174,6.44222 -1.67518,0 -2.7173,-0.78784 -3.39301,-2.5651 z"
         id="path3064"
         inkscape:connector-curvature="0" />
      <path
         style="fill:#ababab"
         d="m 386.53452,703.75386 c -1.12432,-1.12431 -1.61005,-3.45894 -1.6196,-7.78452 -0.008,-3.39821 -0.29802,-7.24088 -0.64558,-8.53925 -0.60486,-2.2596 -0.8331,-2.14185 -5.33041,2.75 l -4.6985,5.11068 -14.93342,0 c -11.40638,0 -15.42092,-0.34145 -16.99744,-1.44569 -1.13521,-0.79514 -4.27284,-1.98061 -6.97251,-2.63439 -2.69967,-0.65378 -6.3275,-2.03805 -8.06185,-3.07614 -4.11425,-2.46259 -9.56427,-8.54077 -11.20087,-12.49186 -1.37872,-3.32852 -0.96123,-4.50816 5.07937,-14.35192 6.59478,-10.74685 25.79245,-20.75884 43.27486,-22.56874 3.3,-0.34165 7.6875,-1.04578 9.75,-1.56476 3.68433,-0.92706 3.75,-1.02802 3.75,-5.76494 0,-2.65175 -0.64505,-11.52191 -1.43345,-19.71146 -2.00782,-20.85646 -2.46098,-27.25953 -4.09701,-57.8901 -1.63451,-30.60217 -3.53725,-41.72797 -8.54294,-49.95256 -6.18145,-10.15643 -4.11038,-9.31922 -28.59255,-11.55827 -12.00873,-1.09828 -22.95905,-2.21484 -24.33405,-2.48125 -1.375,-0.26641 -7.675,-1.18283 -14,-2.03648 -6.325,-0.85365 -13.525,-1.94854 -16,-2.43309 -2.475,-0.48455 -7.875,-1.54715 -12,-2.36133 -7.44824,-1.47012 -29.21175,-6.96795 -34,-8.58897 -1.375,-0.46549 -5.875,-1.86317 -10,-3.10594 -14.33535,-4.31894 -19.53845,-6.22 -26.2512,-9.5914 -3.71317,-1.86489 -7.25642,-3.39071 -7.87391,-3.39071 -0.61749,0 -3.81822,-1.8 -7.11275,-4 -3.29452,-2.2 -6.56327,-4 -7.26388,-4 -0.70061,0 -3.51946,-1.54471 -6.2641,-3.4327 -2.74464,-1.88798 -6.50764,-4.25571 -8.36221,-5.26161 -4.09315,-2.22009 -11.21964,-9.09858 -16.19588,-15.63229 -5.21333,-6.84498 -5.00691,-10.01432 0.98824,-15.1734 2.55653,-2.2 6.31995,-5.4625 8.36316,-7.25 2.04321,-1.7875 4.32669,-3.25 5.0744,-3.25 0.74771,0 3.84317,-0.96019 6.8788,-2.13375 3.03563,-1.17356 6.41933,-2.46753 7.51933,-2.87549 1.1,-0.40795 3.25867,-1.24777 4.79705,-1.86625 1.53838,-0.61848 4.32432,-1.12451 6.19099,-1.12451 1.86666,0 3.69627,-0.4892 4.0658,-1.08712 0.36953,-0.59791 1.50376,-0.86958 2.5205,-0.60369 1.01673,0.26588 3.77845,-0.21539 6.13714,-1.06949 4.43168,-1.60476 9.55223,-2.56022 23.28852,-4.34549 4.4,-0.57186 9.35,-1.2378 11,-1.47988 1.65,-0.24208 10.2,-0.88928 19,-1.43822 8.8,-0.54895 20.5,-1.39573 26,-1.88174 5.5,-0.486 27.84503,-0.81856 49.65561,-0.73901 l 39.65561,0.14464 0.37102,-17 c 0.40227,-18.43263 1.42433,-22.45236 6.2701,-24.66024 1.52119,-0.6931 2.53308,-2.18381 2.85544,-4.20664 2.43031,-15.25036 5.60715,-22.85941 11.67601,-27.96602 3.65678,-3.07698 4.16883,-3.15967 7.81587,-1.26211 6.57033,3.41854 9.66609,9.24466 11.91498,22.42365 1.36777,8.01541 2.06555,10.03803 3.71557,10.77006 1.11734,0.49572 3.04524,2.7013 4.28421,4.9013 2.08362,3.69981 2.25391,5.24632 2.26913,20.607 l 0.0164,16.607 22.75,0.58458 c 26.70787,0.68629 71.33808,3.28741 82.75,4.8228 4.4,0.59199 11.825,1.45233 16.5,1.91187 9.29297,0.91347 26.86906,3.48733 29.71177,4.35102 0.98353,0.29882 6.73823,1.44619 12.78823,2.54971 6.05,1.10352 14.15,2.94312 18,4.088 3.85,1.14488 8.4954,2.46832 10.32311,2.94099 1.82771,0.47266 4.11315,1.57436 5.07874,2.44821 0.9656,0.87385 2.2017,1.58882 2.74689,1.58882 0.5452,0 2.75976,1.50527 4.92126,3.34504 2.1615,1.83978 4.86266,3.83788 6.00258,4.44024 1.13992,0.60235 3.32987,2.90945 4.86655,5.12689 4.19933,6.05963 3.14149,9.88861 -4.91452,17.78872 -12.40115,12.16118 -49.32112,33.45803 -64.52461,37.22026 -2.475,0.61246 -9.675,2.42621 -16,4.03056 -20.04186,5.08365 -25.20545,6.21476 -30.92331,6.77393 -3.06718,0.29995 -6.0437,0.91024 -6.6145,1.3562 -1.30105,1.01651 -25.20553,4.46808 -40.46219,5.84235 -29.5125,2.65837 -34.98422,3.07581 -40.31705,3.07581 -5.15784,0 -6.00342,0.31486 -8.72796,3.25 -8.67293,9.34331 -12.9292,25.41241 -15.42884,58.25 -0.83733,11 -2.92222,33.63854 -4.63309,50.30786 -1.71087,16.66933 -2.88547,30.53306 -2.61023,30.80831 0.27525,0.27524 4.26171,1.11082 8.85881,1.85685 21.81328,3.5399 31.51017,7.68236 43.22698,18.46635 3.58252,3.2973 9.62877,13.87632 9.63059,16.85047 10e-4,2.25414 -3.71394,8.61366 -6.65763,11.39586 -6.63924,6.27504 -16.95034,8.74659 -39.53335,9.47607 l -13.69178,0.44227 -3.77168,-5.05202 c -2.07442,-2.77861 -4.09184,-5.05202 -4.48315,-5.05202 -0.39131,0 -1.02772,4.04259 -1.41424,8.98353 -0.75583,9.6618 -2.07542,12.24557 -4.84143,9.47956 z"
         id="path3062"
         inkscape:connector-curvature="0" />
      <path
         style="fill:#929292"
         d="m 386.47901,703.04077 c -0.21273,-0.6875 -0.61277,-4.72249 -0.88898,-8.96663 -0.2762,-4.24415 -0.81653,-8.22526 -1.20073,-8.8469 -0.43732,-0.7076 -2.36586,0.77573 -5.15718,3.96663 l -4.45864,5.0969 -15.45764,0 c -11.37516,0 -16.04259,-0.36315 -17.67245,-1.37502 -1.21815,-0.75626 -4.41673,-1.90395 -7.10796,-2.55044 -2.69122,-0.64648 -6.84317,-2.51708 -9.22654,-4.15688 -4.43865,-3.05388 -9.38032,-10.13708 -9.38032,-13.4454 0,-2.96435 7.92246,-15.25004 12.18907,-18.9021 7.85922,-6.7272 27.78052,-14.52979 37.24927,-14.58945 1.68391,-0.0106 5.31166,-0.59983 8.06166,-1.30939 4.58354,-1.18265 5.02634,-1.55908 5.31625,-4.51943 0.17393,-1.77613 -0.37097,-10.52441 -1.21089,-19.44061 -2.22108,-23.57779 -2.56431,-28.43585 -4.0774,-57.71128 -1.91056,-36.96584 -4.61607,-48.5719 -13.80833,-59.2347 l -3.21963,-3.73469 -22.5,-2.04357 c -45.39672,-4.12315 -70.80524,-8.92048 -109.5,-20.67446 -15.28353,-4.64255 -36.58364,-13.6447 -42,-17.75063 -1.65,-1.2508 -4.125,-2.61328 -5.5,-3.02774 -7.44957,-2.2455 -23.19889,-14.472 -30.54515,-23.7128 -5.05993,-6.36485 -4.77409,-10.14072 1.15986,-15.32141 2.51988,-2.2 5.58555,-4.99525 6.8126,-6.21168 2.50903,-2.48729 21.42772,-9.85583 29.07269,-11.32335 5.47774,-1.05151 10.59008,-2.15447 17.5,-3.77554 11.37499,-2.66858 14.2771,-3.18943 17.77095,-3.18943 2.05824,0 5.18711,-0.41438 6.95305,-0.92084 1.76594,-0.50647 9.86297,-1.39899 17.9934,-1.98338 8.13043,-0.58439 18.6076,-1.35653 23.2826,-1.71586 4.675,-0.35933 28.93603,-0.8357 53.91341,-1.0586 24.97737,-0.2229 45.78987,-0.63794 46.25,-0.92231 0.46012,-0.28437 0.8391,-7.35299 0.84217,-15.70803 0.006,-17.38869 0.86861,-21.66495 5.0241,-24.91711 2.92744,-2.29106 4.58574,-6.74207 6.43566,-17.27387 1.45146,-8.26331 8.35048,-17.5 13.071,-17.5 3.44851,0 8.3363,4.10342 10.81665,9.08084 1.48947,2.98898 3.009,8.64324 3.77251,14.03776 1.14035,8.057 1.58238,9.24927 4.09157,11.03597 5.17853,3.68744 5.78293,6.21389 5.78293,24.17333 0,11.94308 0.34121,16.69951 1.25,17.42474 0.6992,0.55798 11.38468,1.24716 24.25,1.56403 26.69796,0.65758 71.41672,3.24626 83,4.80471 4.4,0.59199 11.825,1.45233 16.5,1.91187 9.42417,0.92637 26.93207,3.4986 29.71177,4.36521 0.98353,0.30663 4.79822,0.97958 8.47711,1.49545 11.84566,1.66105 32.84054,8.13734 38.31112,11.81784 17.2486,11.60451 19.86706,15.49778 15.9603,23.73067 -3.22201,6.78987 -25.60738,22.69083 -46.4603,33.00205 -6.325,3.12755 -12.38131,6.16939 -13.45846,6.75965 -2.14101,1.17323 -3.59715,1.57228 -30.04154,8.23269 -9.9,2.49346 -20.475,4.8051 -23.5,5.13698 -3.025,0.33188 -7.525,1.23231 -10,2.00097 -8.10115,2.51596 -44.71823,6.55076 -73.5,8.09889 l -12,0.64546 -3.81536,4.09045 c -9.04376,9.69579 -13.67184,26.44089 -15.64073,56.59044 -0.59263,9.075 -1.29681,18.075 -1.56484,20 -1.97242,14.16601 -6.38285,62.48857 -5.75758,63.08261 0.42818,0.4068 5.30438,1.4502 10.836,2.31868 14.44782,2.26834 25.43626,6.00415 33.26142,11.30811 9.31176,6.31158 10.80603,7.85243 14.19816,14.64067 3.72178,7.44794 3.73507,10.07237 0.0802,15.83552 -2.20456,3.47623 -4.30301,5.23958 -8.72444,7.33125 -7.34925,3.47675 -14.15739,4.55647 -32.47134,5.1497 l -14.59852,0.47287 -4.24541,-5.07067 c -2.33497,-2.78887 -4.59911,-4.85207 -5.03142,-4.58489 -0.43231,0.26718 -1.10704,4.76762 -1.4994,10.00097 -0.54568,7.27841 -1.05143,9.51518 -2.15144,9.51518 -0.79093,0 -1.61212,-0.5625 -1.82485,-1.25 z"
         id="path3060"
         inkscape:connector-curvature="0" />
      <path
         style="fill:#6b6b6b"
         d="m 387.08865,703.05085 c -0.63804,-0.63804 -1.16008,-3.71383 -1.16008,-6.83508 0,-7.5936 -0.95345,-11.925 -2.625,-11.925 -0.75625,0 -1.375,0.3377 -1.375,0.75044 0,0.41275 -1.74801,2.66275 -3.88448,5 l -3.88447,4.24956 -14.89302,0 c -11.37113,0 -15.38111,-0.34188 -16.95703,-1.44569 -1.13521,-0.79514 -4.27284,-1.97638 -6.97251,-2.62499 -8.04983,-1.93401 -14.08957,-6.50798 -17.59445,-13.32448 -1.66443,-3.23709 -1.80647,-4.33523 -0.84076,-6.5 1.82012,-4.08001 6.08197,-10.24771 9.9704,-14.42904 6.83273,-7.3474 23.74913,-14.74557 37.00577,-16.18399 3.0528,-0.33125 7.68805,-1.0723 10.30055,-1.64678 l 4.75,-1.04451 0,-5.26016 c 0,-2.89309 -0.64505,-11.96071 -1.43345,-20.15026 -2.00782,-20.85646 -2.46098,-27.25953 -4.09701,-57.8901 -1.95701,-36.64034 -4.1206,-45.67491 -13.82858,-57.74469 -2.18006,-2.71043 -2.48179,-2.77003 -24.17429,-4.77515 -27.04552,-2.49992 -52.51613,-5.92334 -59.96667,-8.05992 -1.65,-0.47317 -5.475,-1.2719 -8.5,-1.77497 -5.27615,-0.87743 -26.80086,-6.29709 -32,-8.05722 -1.375,-0.46549 -5.875,-1.86317 -10,-3.10594 -14.33535,-4.31894 -19.53845,-6.22 -26.2512,-9.5914 -3.71317,-1.86489 -7.25858,-3.39071 -7.87869,-3.39071 -0.62012,0 -3.76449,-1.8 -6.98749,-4 -3.223,-2.2 -6.47777,-4 -7.23282,-4 -0.75504,0 -4.69201,-2.25 -8.74881,-5 -4.0568,-2.75 -7.73714,-5 -8.17855,-5 -1.13833,0 -8.46302,-7.60442 -12.93656,-13.43061 -5.86124,-7.63348 -5.38815,-9.64096 4.1994,-17.81939 4.35215,-3.7125 8.4897,-6.75 9.19454,-6.75 0.70484,0 3.76522,-0.96019 6.80085,-2.13375 3.03563,-1.17356 6.41933,-2.46753 7.51933,-2.87549 1.1,-0.40795 3.25867,-1.24777 4.79705,-1.86625 1.53838,-0.61848 4.32432,-1.12451 6.19099,-1.12451 1.86666,0 3.69627,-0.4892 4.0658,-1.08712 0.36953,-0.59791 1.50376,-0.86958 2.5205,-0.60369 1.01673,0.26588 3.77845,-0.21539 6.13714,-1.06949 4.43168,-1.60476 9.55223,-2.56022 23.28852,-4.34549 4.4,-0.57186 9.35,-1.2378 11,-1.47988 1.65,-0.24208 10.2,-0.88928 19,-1.43822 8.8,-0.54895 20.5,-1.39548 26,-1.88118 5.5,-0.4857 28,-0.90592 50,-0.9338 l 40,-0.0507 0.56558,-17.30522 c 0.61254,-18.7419 1.40891,-21.96497 6.01586,-24.34732 1.84655,-0.95489 2.85438,-2.42321 3.20885,-4.675 2.36107,-14.99882 5.75006,-23.30966 11.27848,-27.65832 3.40244,-2.67636 4.34311,-2.65827 8.53335,0.16414 4.9951,3.36453 7.65624,9.07572 9.63673,20.68181 1.50527,8.82115 2.06223,10.38356 3.95855,11.10453 4.67909,1.77899 5.76386,6.06892 6.3026,24.92495 l 0.5,17.5 22,0.64654 c 27.15592,0.79807 73.24833,3.52773 84,4.97461 4.4,0.59212 11.825,1.45256 16.5,1.9121 9.29297,0.91347 26.86906,3.48733 29.71177,4.35102 0.98353,0.29882 6.73823,1.44619 12.78823,2.54971 6.05,1.10352 14.15,2.94312 18,4.088 3.85,1.14488 8.4954,2.46832 10.32311,2.94099 1.82771,0.47266 4.11315,1.57436 5.07874,2.44821 0.9656,0.87385 2.17845,1.58882 2.69522,1.58882 0.51678,0 3.11784,1.8 5.78014,4 2.66231,2.2 5.18036,4 5.59567,4 0.41532,0 1.99377,1.78737 3.50767,3.97194 4.15138,5.99044 3.07626,9.89864 -4.80159,17.45435 -12.54472,12.03174 -48.80933,32.81524 -63.67896,36.49486 -2.475,0.61246 -9.675,2.42621 -16,4.03056 -20.04186,5.08365 -25.20545,6.21476 -30.92331,6.77393 -3.06718,0.29995 -6.0437,0.91024 -6.6145,1.3562 -1.30105,1.01651 -25.20553,4.46808 -40.46219,5.84235 -29.55812,2.66248 -34.99344,3.07581 -40.44698,3.07581 -5.48354,0 -6.04746,0.22953 -9.21309,3.75 -9.35831,10.40731 -13.71271,26.83423 -15.83837,59.75 -0.65748,10.1811 -1.95893,24.01506 -5.03309,53.5 -1.34759,12.925 -2.45428,24.47184 -2.45932,25.65965 -0.008,1.91112 0.82515,2.2906 7.24085,3.29758 23.61251,3.70612 33.94927,7.89413 45.62156,18.4839 3.17904,2.8842 9.12593,13.5358 9.12765,16.34871 4.3e-4,0.70941 -0.85542,2.95941 -1.90189,5 -5.34213,10.41696 -15.69639,13.97929 -43.22453,14.87116 l -13.62721,0.4415 -3.70796,-5.05125 c -5.37341,-7.32005 -6.22103,-6.78445 -7.06435,4.46393 -0.73011,9.73822 -1.28145,11.27664 -3.31319,9.2449 z"
         id="path3058"
         inkscape:connector-curvature="0" />
      <path
         style="fill:#525252"
         d="m 386.55886,701.04077 c -0.33164,-1.2375 -0.60913,-5.48594 -0.61664,-9.44098 -0.008,-4.38311 -0.46885,-7.47232 -1.17943,-7.91148 -0.70734,-0.43716 -3.03118,1.40754 -5.9094,4.69099 l -4.74362,5.41147 -13.44316,0.32474 c -12.42293,0.30009 -13.89073,0.13804 -19.3406,-2.13534 -3.24359,-1.35304 -7.42406,-2.78651 -9.28994,-3.18549 -5.80622,-1.24154 -15.1075,-11.18105 -15.1075,-16.14414 0,-0.95675 1.87874,-4.84897 4.17498,-8.64937 4.32021,-7.15019 10.25624,-12.44213 18.72879,-16.6966 6.24397,-3.1354 19.04303,-6.80622 26.36283,-7.56098 3.42837,-0.3535 7.92273,-1.06784 9.98748,-1.58742 l 3.75407,-0.94468 -0.51067,-5.21036 c -0.62558,-6.38263 -3.30593,-36.80294 -4.02757,-45.71036 -0.28963,-3.575 -1.18827,-18.875 -1.99698,-34 -1.9312,-36.11872 -3.46515,-42.94998 -12.23162,-54.47202 l -3.78293,-4.97201 -20.87547,-1.73746 c -11.48151,-0.9556 -23.17214,-2.18087 -25.97919,-2.72282 -2.80705,-0.54196 -8.02872,-1.25567 -11.60372,-1.58603 -6.51538,-0.60207 -8.22784,-0.88827 -24,-4.01101 -12.11316,-2.39829 -37.07211,-8.9589 -54,-14.19422 -16.30302,-5.04207 -34.4988,-13.01604 -39.5,-17.31015 -1.1,-0.94448 -3.35568,-2.16892 -5.01263,-2.72099 -9.37756,-3.12444 -29.06964,-19.70703 -32.17773,-27.09669 -2.17458,-5.17019 -1.92784,-5.53936 10.75541,-16.09265 1.96077,-1.63149 5.33577,-3.60246 7.5,-4.37993 16.93442,-6.08346 22.01419,-7.63165 27.11046,-8.26262 3.20347,-0.39662 7.62449,-1.37095 9.82449,-2.16517 4.86121,-1.75494 11.92342,-2.98895 24.5,-4.28097 5.225,-0.53677 11.3,-1.40067 13.5,-1.91977 7.32032,-1.72727 55.52279,-3.57549 93.25042,-3.57549 l 37.25043,0 -4.3e-4,-13.70078 c -5.3e-4,-17.36221 1.19832,-23.28557 5.52271,-27.28695 2.79453,-2.58579 3.63994,-4.60203 5.9713,-14.24094 2.3672,-9.78707 3.22683,-11.80915 6.69571,-15.75 4.68207,-5.31911 7.24362,-5.71011 11.87543,-1.8127 4.32167,3.63645 6.52214,8.89832 8.55331,20.45314 1.47375,8.38378 2.01462,9.80584 4.08912,10.75105 4.84768,2.20875 6.24583,7.93796 6.27004,25.69284 l 0.022,16.10565 22.25,0.58889 c 26.48568,0.70099 71.03522,3.31231 82.25,4.82118 4.4,0.59199 11.825,1.44402 16.5,1.89339 19.16981,1.84266 53.47206,8.3972 68.35578,13.06157 7.39917,2.3188 13.10254,5.27426 17.14422,8.88405 1.65,1.47368 4.1866,3.41248 5.63688,4.30845 1.45028,0.89596 3.57405,3.14539 4.71947,4.99873 3.17455,5.13653 1.61585,9.12595 -6.55019,16.76487 -12.38612,11.58661 -46.06612,30.94341 -61.05246,35.08849 -13.14227,3.63502 -38.86011,9.8328 -46.7537,11.26723 -4.4,0.79958 -11.4633,2.15214 -15.69622,3.00569 -12.00471,2.4207 -63.29383,7.63148 -74.93742,7.61336 -4.13224,-0.006 -5.02027,0.42074 -8.20669,3.94773 -8.89105,9.84134 -12.65823,24.00377 -15.17387,57.04506 -1.63927,21.53083 -7.04663,75.55415 -8.07922,80.71708 -0.6725,3.36252 -0.35535,3.53075 9.09342,4.82345 25.04883,3.42697 43.23072,13.10095 50.0998,26.65642 2.74309,5.41322 3.0047,8.74527 0.98948,12.60271 -5.12023,9.80089 -17.31891,14.04692 -42.85712,14.91739 l -11.76785,0.40111 -2.73215,-2.84635 c -1.50269,-1.56548 -3.74168,-4.06707 -4.97555,-5.55907 -1.2339,-1.49201 -2.656,-2.71274 -3.16027,-2.71274 -0.50426,0 -1.21325,3.9375 -1.57552,8.75 -0.36228,4.8125 -0.83855,9.3125 -1.05839,10 -0.63728,1.99298 -2.17566,1.4498 -2.83218,-1 z"
         id="path3056"
         inkscape:connector-curvature="0" />
      <path
         style="fill:#2b2b2b"
         d="m 386.68832,693.21182 c -0.28471,-4.99343 -1.00023,-9.56153 -1.59005,-10.15135 -0.76319,-0.76319 -2.02349,0.0288 -4.37104,2.74689 -6.9641,8.06323 -5.29237,7.48341 -21.57615,7.48341 -11.1303,0 -15.27665,-0.34962 -16.79994,-1.41657 -1.11235,-0.77912 -4.65309,-2.10354 -7.86833,-2.94315 -6.93629,-1.81132 -12.16874,-5.734 -15.42604,-11.56465 -2.70061,-4.83416 -2.47915,-5.79485 3.36005,-14.57563 4.45849,-6.70451 7.77886,-9.657 15.51175,-13.79313 8.00545,-4.28192 17.96022,-7.28052 28.54275,-8.59771 4.42352,-0.55059 9.26102,-1.46425 10.75,-2.03036 2.48038,-0.94304 2.70725,-1.48053 2.70725,-6.41395 0,-2.96156 -0.64505,-12.0852 -1.43345,-20.27475 -2.00782,-20.85646 -2.46098,-27.25953 -4.09701,-57.8901 -1.98022,-37.07478 -4.16753,-45.99464 -14.2847,-58.25308 l -2.68484,-3.25308 -22,-2.02207 c -27.00806,-2.48238 -52.51589,-5.90533 -60,-8.05153 -1.65,-0.47317 -5.475,-1.2719 -8.5,-1.77497 -5.27615,-0.87743 -26.80086,-6.29709 -32,-8.05722 -1.375,-0.46549 -5.875,-1.86317 -10,-3.10594 -13.82726,-4.16586 -19.45429,-6.19609 -27,-9.74157 -11.33401,-5.32546 -13.25431,-6.37323 -16.32673,-8.90824 -1.55469,-1.28277 -3.62987,-2.3323 -4.6115,-2.3323 -0.98163,0 -5.10398,-2.25 -9.16078,-5 -4.0568,-2.75 -7.8471,-5 -8.42289,-5 -0.57579,0 -1.82817,-1.32262 -2.78308,-2.93915 -0.95491,-1.61653 -2.51443,-3.21432 -3.46561,-3.55064 -3.02013,-1.06788 -9.22941,-10.65187 -9.22941,-14.24556 0,-1.79556 0.35625,-3.26465 0.79166,-3.26465 0.76462,0 6.03266,-4.48342 11.21913,-9.54814 1.38094,-1.34852 3.17224,-2.45186 3.98068,-2.45186 0.80843,0 3.95357,-0.96019 6.9892,-2.13375 3.03563,-1.17356 6.41933,-2.46753 7.51933,-2.87549 1.1,-0.40795 3.25867,-1.24777 4.79705,-1.86625 1.53838,-0.61848 4.13199,-1.12451 5.76357,-1.12451 1.63159,0 3.74791,-0.40231 4.70295,-0.89403 2.76688,-1.42457 18.37064,-4.52537 30.23643,-6.00862 3.575,-0.44689 9.875,-1.31629 14,-1.93201 13.65852,-2.03874 48.94502,-3.50811 91.41809,-3.80677 23.05495,-0.16212 42.25324,-0.64662 42.66285,-1.07666 0.40962,-0.43005 0.92311,-8.43191 1.1411,-17.78191 0.4282,-18.36632 1.05817,-20.97643 5.70671,-23.64433 1.95265,-1.12066 2.98771,-2.66121 3.3517,-4.98852 2.37249,-15.16945 6.03295,-24.06071 11.33611,-27.53548 2.4987,-1.63721 2.79522,-1.62653 6.2375,0.2247 5.07407,2.7288 7.77223,8.31121 9.90551,20.49422 1.52874,8.7305 2.18146,10.60704 3.96797,11.40764 1.17603,0.52703 3.06844,2.6133 4.20535,4.63616 1.85724,3.3045 2.06711,5.3523 2.06711,20.16932 0,11.99496 0.34082,16.76312 1.25,17.48796 0.69486,0.55398 11.24249,1.24989 23.75,1.56699 26.45635,0.67072 71.10936,3.27019 82.5,4.80272 4.4,0.59199 11.825,1.45233 16.5,1.91187 16.55108,1.62692 48.5612,7.44159 60.5,10.98988 3.85,1.14425 8.4954,2.46717 10.32311,2.93984 1.82771,0.47266 4.11315,1.57436 5.07874,2.44821 0.9656,0.87385 2.21975,1.58882 2.78701,1.58882 0.56726,0 2.66916,1.54462 4.67088,3.43249 2.00173,1.88787 4.42718,3.68982 5.38988,4.00433 0.96271,0.31451 2.80274,2.19938 4.08895,4.1886 3.56258,5.50977 2.40168,9.55532 -4.66422,16.25412 -12.43372,11.78772 -48.64367,32.44587 -63.17435,36.04161 -2.475,0.61246 -9.675,2.42621 -16,4.03056 -20.04186,5.08365 -25.20545,6.21476 -30.92331,6.77393 -3.06718,0.29995 -6.0437,0.91024 -6.6145,1.3562 -1.30105,1.01651 -25.20553,4.46808 -40.46219,5.84235 -29.59187,2.66552 -35.00092,3.07584 -40.55295,3.0763 -5.8596,4.8e-4 -6.00762,0.0708 -10.06662,4.78417 -2.26576,2.63102 -5.0212,6.5683 -6.1232,8.74951 -4.60819,9.12103 -7.88525,25.11858 -9.21115,44.96583 -0.55114,8.25 -2.39795,28.5 -4.10402,45 -1.70606,16.5 -3.17846,32.92265 -3.272,36.49477 l -0.17006,6.49477 6.5,1.19902 c 15.90088,2.93313 18.84138,3.59093 24.42861,5.46474 7.59333,2.54659 11.86382,4.81038 18.04783,9.56712 5.60755,4.31334 8.61713,8.33927 11.10622,14.85686 1.61338,4.22457 1.60985,4.6694 -0.0666,8.38706 -4.60777,10.21825 -14.96304,13.79736 -42.51606,14.69493 l -13.5,0.43978 -3.81481,-5.11037 c -5.60124,-7.50348 -6.97196,-6.69356 -8.07223,4.76964 -0.48787,5.08292 -1.21295,9.24168 -1.61129,9.24168 -0.39834,0 -0.95721,-4.08553 -1.24192,-9.07895 z"
         id="path3054"
         inkscape:connector-curvature="0" />
      <path
         style="fill:#000000"
         d="m 387.50737,688.54077 c -0.74612,-5.57054 -1.08218,-6.25 -3.09117,-6.25 -1.50583,0 -3.37163,1.49343 -5.62084,4.49902 -1.85173,2.47447 -4.28396,4.74932 -5.40494,5.05524 -1.12099,0.30592 -8.32099,0.3782 -16,0.16063 -11.99746,-0.33992 -15.00639,-0.77176 -21.38591,-3.0693 -9.06504,-3.26472 -13.43651,-6.47189 -16.19715,-11.88318 l -2.10275,-4.12173 2.36198,-4.48426 c 4.05446,-7.69747 4.65018,-8.57192 8.05035,-11.81699 7.58439,-7.23842 22.5907,-13.37752 37.31163,-15.26423 4.4,-0.56393 9.6875,-1.5077 11.75,-2.09726 3.72827,-1.06574 3.75,-1.10273 3.75,-6.38484 0,-2.9221 -0.65653,-12.01345 -1.45896,-20.203 -1.7826,-18.19314 -3.28726,-40.75804 -4.09357,-61.3901 -0.651,-16.65784 -2.59907,-31.05745 -5.43953,-40.20754 -1.52604,-4.91591 -9.41393,-17.68927 -11.85537,-19.19816 -0.44953,-0.27783 -10.90525,-1.43792 -23.23495,-2.57798 -37.4089,-3.459 -52.46095,-5.82496 -80.91762,-12.71906 -30.87743,-7.48057 -63.59681,-19.51717 -71.5,-26.30298 -1.1,-0.94448 -3.49105,-2.21611 -5.31345,-2.82586 -7.59216,-2.5402 -22.25379,-13.94468 -29.25771,-22.75796 -4.1136,-5.17629 -3.83444,-8.155 1.16388,-12.41901 2.25099,-1.9203 5.2147,-4.61143 6.58602,-5.98029 1.37131,-1.36886 4.14209,-3.01486 6.15728,-3.65778 2.01519,-0.64291 6.81398,-2.367 10.66398,-3.83131 3.85,-1.4643 9.25,-3.10036 12,-3.63569 8.00295,-1.55789 12.67127,-2.54549 17.75,-3.75508 10.71775,-2.55262 13.95569,-3.1313 17.52095,-3.1313 2.05824,0 5.28324,-0.44195 7.16668,-0.98211 1.88343,-0.54016 10.20546,-1.44614 18.4934,-2.01328 8.28793,-0.56714 18.66897,-1.28439 23.06897,-1.59389 4.4,-0.30949 28.67788,-0.7607 53.95085,-1.00268 34.9558,-0.33469 46.13841,-0.73525 46.73469,-1.674 0.43111,-0.67872 0.79073,-7.98701 0.79915,-16.24064 0.0176,-17.21486 0.8006,-21.00794 5.05994,-24.51077 3.08681,-2.53855 3.4426,-3.49464 6.37631,-17.13505 1.6086,-7.47923 5.49335,-14.39577 8.97706,-15.98306 3.42906,-1.56238 8.09423,1.22008 10.74061,6.40609 1.18704,2.32616 2.96103,8.94425 3.94221,14.70685 0.98118,5.76261 2.2946,10.64768 2.9187,10.85571 0.62411,0.20804 2.34204,1.41569 3.81761,2.68367 l 2.68287,2.30541 0.5,18.62779 c 0.3761,14.01196 0.83023,18.83129 1.83268,19.449 0.73297,0.45165 11.75797,1.08156 24.5,1.39979 26.87824,0.67129 71.57747,3.26322 83.16732,4.82255 4.4,0.59199 11.825,1.44402 16.5,1.89339 8.99729,0.86484 17.11411,2.05892 31,4.56044 17.1797,3.0949 19.58849,3.58457 24,4.87886 20.55883,6.03172 23.03842,7.35049 34.53432,18.36713 7.64658,7.3278 2.72276,14.53846 -20.11041,29.45057 -12.11859,7.91453 -36.02201,20.20614 -42.92391,22.07232 -23.89994,6.46225 -40.64963,10.46643 -48.68894,11.63959 -3.47108,0.50653 -9.23606,1.59951 -12.81106,2.42884 -10.02116,2.32471 -62.05292,7.58748 -75.0157,7.58748 -6.10763,0 -6.26816,0.0716 -10.64409,4.75 -5.39906,5.77221 -7.48507,9.61382 -10.18132,18.75 -3.4368,11.64553 -4.97997,21.2156 -6.12746,38 -0.60163,8.8 -2.17735,26.35 -3.5016,39 -5.17998,49.48199 -4.96521,46.61288 -3.55444,47.48479 0.71944,0.44464 5.90274,1.52404 11.51844,2.39867 24.8117,3.86436 39.6983,11.77983 46.41379,24.67903 3.69463,7.09671 3.7052,8.89098 0.0869,14.75485 -2.53503,4.10826 -11.0921,8.26682 -19.49448,9.47392 -3.3,0.47408 -12.3,1.04955 -20,1.27882 l -14,0.41686 -3.7652,-4.99347 c -5.83189,-7.73434 -8.21466,-6.80704 -9.01029,3.50653 -0.27906,3.6174 -0.38865,3.40218 -1.14571,-2.25 z"
         id="path3052"
         inkscape:connector-curvature="0" />
    </g>
  </g>
</svg>
