<?xml version="1.0" encoding="UTF-8" standalone="no"?>
<!-- Created with Inkscape (http://www.inkscape.org/) -->

<svg
   xmlns:dc="http://purl.org/dc/elements/1.1/"
   xmlns:cc="http://creativecommons.org/ns#"
   xmlns:rdf="http://www.w3.org/1999/02/22-rdf-syntax-ns#"
   xmlns:svg="http://www.w3.org/2000/svg"
   xmlns="http://www.w3.org/2000/svg"
   xmlns:sodipodi="http://sodipodi.sourceforge.net/DTD/sodipodi-0.dtd"
   xmlns:inkscape="http://www.inkscape.org/namespaces/inkscape"
   width="497.43646"
   height="376.74628"
   id="svg2"
   version="1.1"
   inkscape:version="0.48.4 r9939"
   sodipodi:docname="Spitfire.svg">
  <defs
     id="defs4" />
  <sodipodi:namedview
     id="base"
     pagecolor="#ffffff"
     bordercolor="#666666"
     borderopacity="1.0"
     inkscape:pageopacity="0.0"
     inkscape:pageshadow="2"
     inkscape:zoom="0.35"
     inkscape:cx="238.8092"
     inkscape:cy="147.42611"
     inkscape:document-units="px"
     inkscape:current-layer="layer1"
     showgrid="false"
     fit-margin-top="0"
     fit-margin-left="0"
     fit-margin-right="0"
     fit-margin-bottom="0"
     inkscape:window-width="779"
     inkscape:window-height="573"
     inkscape:window-x="0"
     inkscape:window-y="25"
     inkscape:window-maximized="0" />
  <metadata
     id="metadata7">
    <rdf:RDF>
      <cc:Work
         rdf:about="">
        <dc:format>image/svg+xml</dc:format>
        <dc:type
           rdf:resource="http://purl.org/dc/dcmitype/StillImage" />
        <dc:title></dc:title>
      </cc:Work>
    </rdf:RDF>
  </metadata>
  <g
     inkscape:label="Layer 1"
     inkscape:groupmode="layer"
     id="layer1"
     transform="translate(-136.1908,-303.04202)">
    <g
       id="g3147"
       transform="translate(5.7142814,4.4285715e-6)">
      <path
         style="fill:#d3d3d3"
         d="m 374.88262,677.77635 c -0.61398,-1.14722 -1.60174,-6.234 -2.19502,-11.30395 l -1.07871,-9.21808 -4.09016,-1.66339 c -2.24959,-0.91487 -8.36516,-2.5953 -13.59016,-3.7343 -5.225,-1.139 -12.65,-2.90521 -16.5,-3.92491 -3.85,-1.01971 -10.375,-2.59844 -14.5,-3.50831 -11.76825,-2.59578 -15.41057,-4.24426 -18.85909,-8.53547 -5.43047,-6.75751 -6.4309,-12.00182 -3.58786,-18.80785 2.22293,-5.32154 6.07944,-8.93984 11.35843,-10.65685 2.52369,-0.82083 14.71352,-2.41757 27.08852,-3.5483 27.90795,-2.55002 26.99646,-2.35494 27.01388,-5.78178 0.0127,-2.49387 -2.41663,-26.55059 -5.07245,-50.23095 -0.586,-5.225 -1.47051,-22.6519 -1.96558,-38.72644 -1.20148,-39.01106 -0.18416,-37.2149 -23.13518,-40.84746 -8.43737,-1.33542 -21.19067,-3.35049 -28.34067,-4.47792 -7.15,-1.12743 -15.475,-2.49519 -18.5,-3.03945 -13.67904,-2.46118 -41.78565,-7.1746 -44.5,-7.46256 -1.65,-0.17505 -5.475,-0.76504 -8.5,-1.3111 -18.6854,-3.37299 -31.01542,-4.95182 -34.7236,-4.44627 -3.0009,0.40912 -4.94289,0.10452 -6.70821,-1.05217 -2.53717,-1.66241 -10.02042,-3.28707 -28.4467,-6.17595 -13.99361,-2.19392 -20.03816,-4.66153 -26.14599,-10.67379 -7.70662,-7.58601 -9.38898,-11.56334 -9.42708,-22.28689 -0.0394,-11.0872 2.40234,-17.30949 9.33849,-23.79744 7.08888,-6.63083 14.00442,-8.60462 34.11309,-9.73639 68.15152,-3.83574 60.14302,-3.4099 103,-5.47691 18.975,-0.91518 44.17434,-2.18715 55.99854,-2.82661 l 21.49855,-1.16265 0.19559,-5 c 0.26005,-6.64806 1.05617,-10.49245 2.54407,-12.28527 0.67368,-0.81173 2.00209,-5.23609 2.95202,-9.83189 3.06576,-14.83234 11.95172,-31.62705 17.4659,-33.01102 1.36408,-0.34236 3.90294,-0.21442 5.64191,0.28431 6.28032,1.80117 15.21947,18.66315 18.83745,35.53321 0.62412,2.9102 1.84357,6.37303 2.70988,7.69519 0.90804,1.38585 1.80401,5.62501 2.1156,10.0097 l 0.54049,7.60577 17,1.17786 c 18.02279,1.24872 38.88297,2.86485 57,4.41605 6.05,0.51801 24.95,2.04922 42,3.40269 29.57281,2.34757 53.62029,4.49203 72.79584,6.49165 11.03949,1.1512 16.24797,3.67158 23.27694,11.26371 8.42197,9.09673 10.47819,19.28645 6.35541,31.49466 -2.51908,7.45941 -7.88385,13.82285 -14.84987,17.61423 -5.18813,2.82374 -16.978,5.37402 -35.12168,7.5972 -4.69884,0.57577 -10.25481,1.91939 -12.34659,2.98584 -2.83481,1.44527 -4.99605,1.79773 -8.48775,1.38419 -4.57798,-0.54219 -21.60725,1.23385 -39.6223,4.13235 -4.95,0.79642 -16.425,2.4024 -25.5,3.56885 -9.075,1.16645 -25.86947,3.45362 -37.32104,5.0826 -11.45158,1.62899 -26.51584,3.62795 -33.47614,4.44214 -11.70584,1.36931 -12.82484,1.68533 -14.91811,4.21316 -2.91879,3.52475 -2.99287,3.91016 -4.27341,22.23282 -0.5958,8.525 -1.50329,19.36426 -2.01664,24.08724 -0.51335,4.72298 -1.38645,15.33564 -1.94023,23.58369 -1.01847,15.16924 -4.59866,49.92034 -5.57369,54.10103 -0.31686,1.35865 -0.0175,2.44349 0.7447,2.69866 0.70101,0.23469 11.62456,1.58961 24.27456,3.01094 12.65,1.42133 25.025,3.04789 27.5,3.61457 6.15028,1.40817 12.57229,7.72452 14.51914,14.28026 1.35205,4.55285 1.31129,5.21851 -0.58144,9.49735 -2.32581,5.25787 -5.25639,8.70162 -9.11239,10.70801 -2.77841,1.44569 -16.74044,4.79809 -34.82531,8.36184 -5.775,1.13801 -14.54534,3.07875 -19.48965,4.31276 l -8.98966,2.24365 -1.20754,9.71708 c -0.66415,5.34439 -1.69714,10.63189 -2.29553,11.75 -1.41008,2.63476 -4.64025,2.60655 -6.06357,-0.0529 z"
         id="path3161"
         inkscape:connector-curvature="0" />
      <path
         style="fill:#ababab"
         d="m 375.42613,677.85827 c -0.38013,-0.61507 -1.18556,-5.57323 -1.78983,-11.01813 l -1.09868,-9.89982 -4.55453,-1.91887 c -2.50498,-1.05538 -8.15452,-2.67866 -12.55452,-3.60729 -4.4,-0.92864 -12.05,-2.73463 -17,-4.01332 -4.95,-1.27869 -12.6,-3.12041 -17,-4.09272 -9.76183,-2.15715 -13.3056,-3.89806 -17.19237,-8.44591 -6.03463,-7.06103 -6.22719,-14.39834 -0.57392,-21.86884 4.29486,-5.67542 8.34815,-6.74693 34.76629,-9.19061 13.2,-1.221 25.0125,-2.59599 26.25,-3.05553 2.72664,-1.01251 2.75937,-1.92768 0.69333,-19.38502 -3.41347,-28.84258 -4.50416,-43.34801 -5.43368,-72.26408 -1.31186,-40.81029 -0.20157,-38.88226 -24.59787,-42.71437 -34.98445,-5.49527 -42.04429,-6.62931 -46.91178,-7.53559 -5.04494,-0.93931 -30.06385,-5.05111 -43,-7.06694 -3.85,-0.59994 -9.025,-1.46782 -11.5,-1.92862 -14.74227,-2.74476 -29.10628,-4.57796 -33.09056,-4.22316 -3.06328,0.27278 -5.05948,-0.0565 -6,-0.9898 -1.39431,-1.38357 -9.60213,-3.12058 -29.83808,-6.31462 -16.18833,-2.55515 -23.85337,-6.97918 -30.85014,-17.80575 -2.45498,-3.79875 -2.68805,-5.01903 -2.70389,-14.15707 -0.015,-8.67277 0.30925,-10.6393 2.44327,-14.81676 3.33598,-6.53039 9.49844,-11.95979 16.62059,-14.6435 6.76672,-2.54977 24.71151,-3.7713 125.41881,-8.53747 17.875,-0.84597 39.99267,-1.98006 49.15039,-2.5202 9.15771,-0.54014 19.62021,-0.98207 23.25,-0.98207 3.62978,0 6.63431,-0.3375 6.67672,-0.75 0.0424,-0.4125 0.2747,-3.9 0.5162,-7.75 0.30574,-4.87415 1.04155,-7.82286 2.42289,-9.70951 1.09109,-1.49023 1.9838,-3.5998 1.9838,-4.68794 0,-7.70524 6.57707,-24.98124 12.69751,-33.35255 2.94054,-4.02196 3.98369,-4.75 6.80587,-4.75 1.83318,0 4.09891,0.29389 5.03496,0.65308 2.56772,0.98533 10.9522,14.43383 12.45217,19.97299 0.72591,2.68066 1.65771,5.32393 2.07066,5.87393 0.41296,0.55 1.32138,3.925 2.01871,7.5 0.69733,3.575 2.08794,7.85 3.09026,9.5 1.31728,2.1685 1.82342,5.00416 1.82612,10.23095 0.004,8.62608 -2.19303,7.70617 22.00374,9.21121 9.625,0.59868 22.9,1.53956 29.5,2.09084 39.86921,3.33017 68.88257,5.67071 79.5,6.41334 9.74621,0.68169 26.16744,2.19523 37.5,3.45636 4.95,0.55085 12.375,1.08449 16.5,1.18585 12.98625,0.31912 20.86321,3.59011 28.199,11.70995 5.421,6.00041 7.06984,9.87444 7.58547,17.82246 0.8116,12.50996 -4.10542,22.41073 -14.40047,28.99639 -5.91343,3.78278 -15.05441,5.90656 -36.20533,8.4118 -6.27,0.74266 -10.33423,1.73181 -11.54009,2.80863 -1.4079,1.25724 -3.47884,1.60511 -8.5,1.42781 -6.61417,-0.23356 -22.53448,1.45259 -39.63858,4.19818 -4.95,0.79458 -16.425,2.39861 -25.5,3.5645 -9.075,1.16589 -27.3,3.63034 -40.5,5.47656 -13.2,1.84621 -28.59618,3.88652 -34.21373,4.53401 -10.04126,1.15739 -10.26076,1.23876 -12.9992,4.81921 -2.63881,3.45019 -2.84786,4.51074 -3.97018,20.14195 -0.65158,9.075 -1.64871,20.775 -2.21585,26 -0.56713,5.225 -1.48425,16.25903 -2.03804,24.52006 -1.03398,15.42405 -4.79418,51.9735 -5.5823,54.26036 -0.7549,2.19044 3.30201,3.06108 26.5193,5.69124 31.66797,3.58749 29.6428,3.11408 35.0807,8.20059 7.89794,7.3876 8.53158,15.19585 1.91561,23.60565 -3.95001,5.021 -10.25477,7.1036 -36.99631,12.22066 -9.95108,1.90417 -23.96831,5.10544 -29.12204,6.65093 l -3.62204,1.08617 -0.66518,8.19797 c -0.90155,11.11109 -1.76829,13.99913 -4.3137,14.37356 -1.14858,0.16895 -2.39934,-0.19606 -2.77948,-0.81113 z"
         id="path3159"
         inkscape:connector-curvature="0" />
      <path
         style="fill:#929292"
         d="m 376.24289,677.61221 c -0.44204,-0.6875 -1.25965,-5.51268 -1.81692,-10.72262 l -1.01323,-9.47263 -3.79897,-2.13098 c -2.08944,-1.17203 -6.36088,-2.68463 -9.49209,-3.36133 -12.7541,-2.75633 -46.87843,-11.18119 -49.44771,-12.20801 -3.82515,-1.52873 -8.42457,-7.05157 -9.85858,-11.83785 -2.14685,-7.16555 2.51229,-16.61409 9.66655,-19.60333 1.73072,-0.72314 13.45173,-2.27207 26.0467,-3.44208 25.75926,-2.3929 30.02106,-3.2021 30.86476,-5.86036 0.322,-1.01452 -0.12213,-7.86698 -0.98694,-15.22769 -3.47419,-29.57003 -4.5375,-43.6932 -5.4674,-72.61919 -1.04221,-32.41971 -1.34453,-34.24132 -6.613,-39.84671 -2.76294,-2.93962 -3.71013,-3.20983 -20.39749,-5.81873 -9.625,-1.50477 -24.25,-3.84725 -32.5,-5.2055 -8.25,-1.35826 -19.05,-3.10144 -24,-3.87374 -4.95,-0.7723 -11.7,-1.88509 -15,-2.47287 -3.3,-0.58778 -10.05,-1.71667 -15,-2.50864 -4.95,-0.79198 -11.7,-1.92894 -15,-2.52657 -14.18761,-2.56938 -25.2218,-4.01117 -30.69805,-4.01117 -3.33013,0 -6.83113,-0.60893 -8.08713,-1.4066 -1.21815,-0.77363 -10.66318,-2.79058 -20.98896,-4.48212 -21.20454,-3.47367 -27.35071,-5.73987 -33.23671,-12.25496 -5.79324,-6.41243 -7.44185,-11.03705 -7.46719,-20.9466 -0.0195,-7.62093 0.32616,-9.28692 3.06307,-14.76396 6.29637,-12.60016 12.55157,-15.01286 43.41497,-16.74565 12.65,-0.71022 30.425,-1.77505 39.5,-2.36628 9.075,-0.59124 24.825,-1.31247 35,-1.60275 10.175,-0.29028 19.08256,-0.72459 19.79458,-0.96515 0.71201,-0.24055 8.81201,-0.68782 18,-0.99392 9.18798,-0.30609 23.00542,-0.98307 30.70542,-1.50439 7.7,-0.52131 17.85149,-0.95229 22.55887,-0.95773 5.32639,-0.006 9.15364,-0.48198 10.1337,-1.25989 1.02433,-0.81305 1.79973,-3.6969 2.21822,-8.25 0.35387,-3.85 1.49211,-8.8 2.52941,-11 1.0373,-2.2 2.41531,-6.92172 3.06223,-10.49271 1.4414,-7.95638 6.16958,-19.19371 10.70617,-25.44503 3.28694,-4.52934 3.52603,-4.65893 8.0534,-4.36509 4.45179,0.28894 4.85987,0.57814 8.89348,6.30283 4.26087,6.04723 9.19172,18.47079 11.24998,28.34496 0.61279,2.93973 1.78474,6.30236 2.60435,7.47251 0.95407,1.36212 1.49019,4.4971 1.49019,8.71391 0,8.803 1.12131,10.18778 8.60014,10.62089 8.20432,0.47512 31.7395,2.23405 44.89986,3.35563 16.57967,1.413 40.42788,3.24443 45.5,3.49419 2.475,0.12188 10.35,0.72737 17.5,1.34555 7.15,0.61818 18.625,1.60334 25.5,2.18924 6.875,0.58589 16.26402,1.5159 20.86448,2.06667 4.60047,0.55077 14.53345,1.35651 22.0733,1.79052 11.43369,0.65816 14.52463,1.18882 18.62455,3.19753 6.35033,3.11126 12.41829,9.17119 15.44595,15.4255 4.68866,9.68549 2.48215,24.23598 -4.95684,32.68712 -7.26708,8.25585 -14.58857,10.75043 -40.52527,13.80781 -5.95367,0.70181 -11.57218,1.99112 -13.93926,3.19871 -3.05348,1.55777 -5.09,1.88982 -8.8554,1.44387 -4.80154,-0.56867 -18.93401,0.88512 -37.73151,3.8814 -14.68695,2.34107 -21.65583,3.31799 -32.5,4.55594 -5.5,0.62788 -18.775,2.42806 -29.5,4.0004 -10.725,1.57235 -25.76962,3.57292 -33.43248,4.44571 -7.66287,0.87279 -14.73207,2.01482 -15.70935,2.53785 -0.97728,0.52302 -3.0055,2.56176 -4.50715,4.53053 -2.5787,3.38085 -2.79961,4.53211 -3.97898,20.73657 -0.68679,9.43634 -1.71073,21.43199 -2.27543,26.65699 -0.56469,5.225 -1.47982,16.25903 -2.03361,24.52006 -0.55379,8.26103 -1.94966,23.49544 -3.10193,33.85424 -1.15228,10.3588 -1.87123,19.41743 -1.59769,20.13028 0.6089,1.58677 2.08482,1.83304 32.38998,5.40473 22.74188,2.6803 24.47805,3.02982 27.85885,5.60848 3.95298,3.01508 7.33148,9.36626 7.36583,13.84688 0.034,4.43957 -4.6302,12.07181 -8.81262,14.42037 -3.7811,2.12321 -12.11091,4.34365 -25.16542,6.70824 -12.79571,2.31771 -35.31143,7.54697 -37.96883,8.81823 -2.33226,1.11572 -2.59083,1.91727 -3.29036,10.19969 -0.99575,11.78959 -2.92199,16.13401 -5.42649,12.2388 z"
         id="path3157"
         inkscape:connector-curvature="0" />
      <path
         style="fill:#6b6b6b"
         d="m 375.60911,675.01489 c -0.31321,-1.56602 -0.88367,-6.31464 -1.26769,-10.55247 -0.69783,-7.70077 -0.70042,-7.70627 -4.56971,-9.68024 -2.12932,-1.08629 -9.82761,-3.32126 -17.10732,-4.96658 -7.2797,-1.64532 -14.58582,-3.39088 -16.23582,-3.87902 -1.65,-0.48814 -7.275,-1.85505 -12.5,-3.03758 -5.225,-1.18253 -10.67366,-2.60273 -12.10814,-3.15598 -3.63672,-1.40264 -9.40616,-7.71853 -10.75841,-11.77738 -2.3428,-7.03206 2.7511,-16.79248 10.19501,-19.53464 2.31369,-0.85231 13.96951,-2.43009 26.17154,-3.54269 12.1,-1.10329 23.41728,-2.24742 25.14952,-2.54251 5.69708,-0.97049 5.87767,-1.8557 3.93492,-19.28717 -3.87115,-34.73406 -4.63962,-44.9312 -5.57376,-73.9605 -1.02799,-31.94571 -1.09367,-32.34961 -6.24369,-38.39865 -2.07598,-2.43839 -3.69933,-2.88641 -19.26699,-5.31746 -32.30156,-5.04421 -42.01921,-6.60656 -47,-7.55641 -2.75,-0.52443 -10.85,-1.88471 -18,-3.02283 -25.79807,-4.10649 -32.07367,-5.12644 -36.5,-5.93221 -16.12249,-2.93494 -29.0973,-4.60776 -32.79993,-4.22883 -2.89562,0.29635 -4.85516,-0.0433 -6,-1.03989 -1.59415,-1.38774 -5.9478,-2.28643 -30.59068,-6.31455 -5.43984,-0.88919 -11.96484,-2.50066 -14.5,-3.58104 -5.2249,-2.22662 -11.07912,-7.45269 -14.94794,-13.34405 -2.38983,-3.63918 -2.62835,-4.90206 -2.64412,-14 -0.0151,-8.67979 0.30838,-10.63763 2.44976,-14.82977 3.2673,-6.39631 8.47864,-10.94501 15.58608,-13.60424 6.55764,-2.45353 7.36312,-2.53435 45.94683,-4.6101 15.4,-0.8285 31.6,-1.7088 36,-1.95624 4.4,-0.24743 13.85,-0.69849 21,-1.00237 7.15,-0.30387 26.275,-1.21931 42.5,-2.0343 16.225,-0.815 36.15483,-1.77359 44.28851,-2.1302 8.13368,-0.35661 15.05063,-1.0725 15.37101,-1.59088 0.32037,-0.51838 0.76439,-4.15987 0.98669,-8.09221 0.28573,-5.05405 0.98303,-7.94387 2.37899,-9.8592 1.08614,-1.49023 1.9748,-3.5998 1.9748,-4.68794 0,-7.41841 6.49045,-24.7678 12.29021,-32.85255 2.62772,-3.66298 3.55151,-4.25 6.68818,-4.25 2.00164,0 4.36099,0.5625 5.24299,1.25 2.86648,2.23436 9.43996,13.46472 10.78109,18.41878 0.71933,2.65717 1.64575,5.28122 2.0587,5.83122 0.41296,0.55 1.32138,3.925 2.01871,7.5 0.69733,3.575 2.08794,7.85 3.09026,9.5 1.31977,2.1726 1.82341,5.00547 1.82612,10.27144 0.003,6.60768 0.20913,7.35298 2.25374,8.16469 1.2375,0.49128 10.575,1.39419 20.75,2.00646 10.175,0.61227 23.225,1.53902 29,2.05945 15.35229,1.38352 38.74304,3.27418 44.5,3.59692 2.75,0.15416 10.175,0.74427 16.5,1.31134 6.325,0.56708 14.875,1.26271 19,1.54584 9.58756,0.65807 25.98495,2.16512 37.5,3.44656 4.95,0.55085 12.375,1.08449 16.5,1.18585 8.94259,0.21975 15.36087,1.84015 20.62629,5.20746 13.33964,8.53087 18.06506,23.54026 11.98927,38.08166 -2.48892,5.95682 -5.22129,9.16615 -11.15992,13.10799 -5.9659,3.95994 -14.62785,6.01143 -35.95564,8.51571 -6.54601,0.76863 -10.64293,1.74832 -11.86142,2.83641 -1.4079,1.25724 -3.47884,1.60511 -8.5,1.42781 -6.61417,-0.23356 -22.53448,1.45259 -39.63858,4.19818 -4.95,0.79458 -16.425,2.39717 -25.5,3.5613 -9.075,1.16413 -27.3,3.63453 -40.5,5.48978 -13.2,1.85525 -28.61503,3.8993 -34.25561,4.54235 l -10.25562,1.16917 -3.24438,4.09615 c -3.21525,4.05935 -3.25502,4.24471 -4.42829,20.63681 -0.65115,9.09737 -1.64792,20.81567 -2.21506,26.04067 -0.56713,5.225 -1.48617,16.28766 -2.04231,24.58369 -0.55614,8.29604 -1.92481,23.37104 -3.04147,33.5 -2.24454,20.35952 -2.29693,20.91451 -2.13241,22.58685 0.15334,1.55873 1.97066,1.87621 27.61515,4.82434 30.80637,3.54154 29.19065,3.17878 34.03128,7.64072 5.18314,4.77765 7.32764,11.30259 5.34895,16.27494 -4.09065,10.27957 -7.6743,11.9056 -39.88023,18.0951 -12.62736,2.42679 -26.03919,5.55411 -29.99036,6.99305 l -3.49036,1.27111 -1.19338,10.3651 c -0.65635,5.70081 -1.22319,10.7026 -1.25963,11.1151 -0.0365,0.4125 -0.91002,0.75 -1.94127,0.75 -1.26099,0 -2.06148,-0.93242 -2.44446,-2.84732 z"
         id="path3155"
         inkscape:connector-curvature="0" />
      <path
         style="fill:#525252"
         d="m 376.02494,674.11221 c -0.53939,-2.0625 -1.28675,-6.98075 -1.6608,-10.92945 l -0.68009,-7.17945 -4.62774,-1.97818 c -4.06358,-1.73702 -22.28274,-6.38069 -42.10761,-10.7323 -13.92407,-3.05638 -17.24663,-4.42565 -21.1798,-8.72847 -4.31227,-4.71755 -5.30995,-7.96302 -4.29487,-13.97121 0.8999,-5.32649 6.40666,-11.10873 11.99079,-12.59063 2.18006,-0.57855 14.31375,-2.02681 26.96375,-3.21836 12.65,-1.19155 24.0125,-2.55031 25.25,-3.01945 1.78116,-0.67526 2.25289,-1.63956 2.26388,-4.62775 0.0124,-3.38299 -2.12904,-25.0301 -5.07245,-51.27475 -0.586,-5.225 -1.47183,-22.69646 -1.96852,-38.82546 -0.82139,-26.67312 -1.08419,-29.61853 -2.9057,-32.56579 -3.75273,-6.07205 -5.00836,-6.61549 -21.22654,-9.18682 -8.43737,-1.33771 -22.54067,-3.60738 -31.34067,-5.04372 -8.8,-1.43633 -19.93459,-3.22058 -24.74354,-3.96501 -4.80895,-0.74442 -12.45895,-2.05887 -17,-2.92098 -4.54105,-0.86211 -9.38146,-1.72824 -10.75646,-1.92473 -15.35733,-2.19457 -24.26393,-3.61057 -24.8224,-3.94634 -1.8668,-1.12238 -23.70023,-3.61373 -26.71428,-3.04829 -2.41098,0.4523 -4.22208,0.16 -5.92594,-0.95641 -2.51155,-1.64563 -10.01958,-3.27078 -28.51792,-6.17283 -14.21495,-2.23006 -20.05996,-4.57936 -25.88434,-10.40374 -6.69065,-6.69065 -8.50061,-10.92507 -8.56585,-20.03988 -0.0711,-9.94198 1.54598,-14.79964 6.91475,-20.771 8.11094,-9.02132 14.76466,-10.62999 50.51598,-12.21325 12.925,-0.57239 30.925,-1.47574 40,-2.00745 9.075,-0.53171 30.225,-1.64405 47,-2.47187 16.775,-0.82781 41.075,-2.03115 54,-2.67408 12.925,-0.64293 24.0625,-1.60508 24.75,-2.13811 0.75914,-0.58857 1.25,-3.38114 1.25,-7.11149 0,-4.01816 0.63328,-7.34765 1.83121,-9.62756 1.00716,-1.91685 2.63508,-7.26797 3.61759,-11.89136 3.05075,-14.35589 12.14126,-31.09383 16.88731,-31.09383 6.28839,0 12.81743,8.76359 17.60349,23.62824 1.68322,5.22779 3.0604,10.16363 3.0604,10.96855 0,0.80491 1.125,4.13636 2.5,7.40321 1.71427,4.07291 2.5,7.79649 2.5,11.84742 0,3.543 0.50034,6.29532 1.25,6.8761 0.6875,0.53262 9.575,1.50306 19.75,2.15653 10.175,0.65346 23.45,1.62112 29.5,2.15034 12.75272,1.11555 22.37066,1.90115 73.5,6.00354 20.625,1.65486 38.175,3.20098 39,3.43582 0.825,0.23485 8.475,0.91386 17,1.50892 19.92095,1.39053 23.68607,2.6311 31.62016,10.41853 5.16378,5.06834 6.50638,7.10713 7.92062,12.02782 3.94126,13.71314 -1.74499,27.8163 -14.14524,35.08333 -4.14011,2.42627 -17.47601,5.23534 -35.30965,7.43763 -4.62776,0.57148 -9.53417,1.77295 -10.90313,2.66993 -1.76771,1.15824 -4.50327,1.58946 -9.43953,1.488 -6.92494,-0.14235 -23.13899,1.61424 -40.24323,4.35986 -4.95,0.79458 -16.425,2.39861 -25.5,3.5645 -9.075,1.16589 -27.3,3.63391 -40.5,5.48449 -13.2,1.85058 -26.925,3.65298 -30.5,4.00534 -10.51219,1.03612 -13.22276,2.08538 -16.10244,6.23331 -2.38817,3.43994 -2.69922,5.10714 -3.77781,20.24859 -0.64644,9.075 -1.59905,20.36426 -2.1169,25.08724 -0.51785,4.72298 -1.39464,15.33564 -1.94842,23.58369 -0.97004,14.44791 -4.47581,48.46753 -5.6671,54.99297 -0.44465,2.43563 -0.15289,3.39019 1.26753,4.14699 1.01483,0.54069 12.19514,2.17266 24.84514,3.62659 30.40708,3.49484 31.23989,3.70286 36.57076,9.13462 4.14008,4.21844 4.3611,4.73942 4.39429,10.3584 0.0389,6.58994 -1.74034,9.92949 -7.31129,13.72274 -2.80539,1.91018 -18.59441,6.12739 -29.65376,7.92044 -4.6605,0.75561 -32.79915,7.22015 -34.84523,8.0053 -0.92863,0.35635 -1.61444,3.08334 -2.06903,8.22703 -0.78906,8.92843 -2.26772,15.19399 -3.58574,15.19399 -0.5076,0 -1.36423,-1.6875 -1.90363,-3.75 z"
         id="path3153"
         inkscape:connector-curvature="0" />
      <path
         style="fill:#2b2b2b"
         d="m 376.59128,674.61221 c -0.30476,-1.2375 -0.86987,-5.78445 -1.2558,-10.10433 -0.96422,-10.7931 -0.85085,-10.7282 -30.90691,-17.69175 -22.04021,-5.1064 -32.19261,-7.71803 -34.17037,-8.79006 -3.06654,-1.66221 -6.99481,-6.47619 -8.18011,-10.02448 -2.33884,-7.00151 2.78586,-16.67992 10.06897,-19.01606 1.80483,-0.57891 13.40651,-1.97041 25.78151,-3.0922 26.36593,-2.39007 29.73149,-3.11312 30.60012,-6.57402 0.34075,-1.35764 -0.3285,-10.90339 -1.48722,-21.21277 -3.79391,-33.75539 -4.1389,-38.41253 -5.11333,-69.02671 -1.01138,-31.77502 -1.02283,-31.84549 -6.23444,-38.34964 l -2.91024,-3.63203 -17.17745,-2.6867 c -9.44759,-1.47769 -23.92744,-3.79801 -32.17744,-5.15626 -8.25,-1.35826 -19.275,-3.14112 -24.5,-3.96191 -5.225,-0.8208 -11.975,-1.89802 -15,-2.39384 -15.31184,-2.50969 -25.94642,-4.29043 -30,-5.02342 -17.81476,-3.22139 -25.32235,-4.22729 -30.94256,-4.14579 -4.16677,0.0604 -6.99271,-0.39283 -8,-1.28312 -0.85759,-0.75797 -10.24186,-2.80208 -20.88362,-4.54892 -10.6294,-1.7448 -21.4294,-4.06957 -24,-5.16615 -5.3427,-2.2791 -10.22087,-6.58449 -14.01552,-12.36984 -2.38584,-3.63746 -2.6252,-4.90635 -2.64097,-14 -0.0151,-8.68672 0.30751,-10.63598 2.45621,-14.84268 3.19546,-6.25605 7.44789,-9.91811 14.6945,-12.65447 6.56746,-2.47991 6.2767,-2.45085 45.33196,-4.53091 15.675,-0.83484 32.775,-1.7888 38,-2.11991 5.225,-0.3311 10.4,-0.60343 11.5,-0.60516 1.1,-0.002 19.1,-0.83837 40,-1.8592 20.9,-1.02083 44.975,-2.14932 53.5,-2.50776 8.525,-0.35843 16.01721,-1.05806 16.64936,-1.55473 0.63216,-0.49667 1.46638,-4.48422 1.85383,-8.86124 0.48446,-5.47287 1.29664,-8.71104 2.60064,-10.36881 1.04289,-1.32582 1.89617,-3.32419 1.89617,-4.44081 0,-7.17866 6.39274,-24.61955 11.86956,-32.38297 2.18002,-3.09017 3.22977,-3.72968 6.13044,-3.73469 1.925,-0.003 4.00521,0.32458 4.62269,0.72865 2.31605,1.51562 9.12074,13.25262 10.37978,17.90347 0.71933,2.65717 1.64575,5.28122 2.0587,5.83122 0.41296,0.55 1.32138,3.925 2.01871,7.5 0.69733,3.575 2.08794,7.85 3.09026,9.5 1.31703,2.1681 1.82342,5.00404 1.82612,10.22695 0.003,6.41686 0.25595,7.38166 2.25374,8.60717 1.48772,0.91262 8.68706,1.77505 21.25,2.54559 10.45,0.64095 23.725,1.59358 29.5,2.11696 14.7506,1.33684 38.56142,3.26806 44.5,3.60926 13.72434,0.78854 51.75903,4.07774 69,5.96706 7.15,0.78352 16.30574,1.42513 20.34609,1.4258 20.72673,0.003 34.69614,12.46331 34.32845,30.61895 -0.13545,6.68869 -3.52055,15.57442 -7.41795,19.47183 -7.53218,7.53217 -13.06762,9.35592 -37.75659,12.43954 -9.16247,1.14438 -14.09807,2.21382 -15.36142,3.32851 -1.3976,1.23314 -3.51559,1.58397 -8.5,1.40797 -6.61417,-0.23356 -22.53448,1.45259 -39.63858,4.19818 -4.95,0.79458 -16.425,2.39124 -25.5,3.54813 -9.075,1.15689 -25.5,3.4157 -36.5,5.01957 -11,1.60387 -26.3,3.61206 -34,4.46265 l -14,1.54654 -3.77432,4.22967 c -2.07588,2.32632 -3.96289,5.12967 -4.19336,6.22967 -0.23046,1.1 -0.90895,9.2 -1.50774,18 -0.5988,8.8 -1.51205,19.87961 -2.02946,24.62135 -0.5174,4.74174 -1.4083,15.54174 -1.97976,24 -0.57147,8.45826 -1.92881,23.25365 -3.01632,32.87865 -2.57569,22.79623 -2.56518,23.83898 0.25096,24.88617 1.2375,0.46017 12.825,2.0499 25.75,3.53273 12.925,1.48283 25.03083,2.95809 26.90183,3.27836 5.23666,0.89636 10.68877,6.4277 12.08905,12.26472 1.07332,4.47411 0.96826,5.30948 -1.22195,9.71649 -3.70993,7.4649 -7.87794,9.10037 -37.76893,14.82009 -19.09207,3.65332 -32.52275,7.18768 -33.88197,8.91622 -0.46934,0.59687 -1.16233,4.68522 -1.53998,9.08522 -0.78988,9.20274 -1.46992,12.5 -2.57805,12.5 -0.43075,0 -1.03253,-1.0125 -1.33729,-2.25 z"
         id="path3151"
         inkscape:connector-curvature="0" />
      <path
         style="fill:#000000"
         d="m 376.46105,666.61221 c -0.37163,-4.5375 -0.88321,-8.98843 -1.13686,-9.89096 -0.69568,-2.47535 -8.87831,-5.56325 -23.59632,-8.9046 -7.27912,-1.65255 -14.82429,-3.42374 -16.76703,-3.936 -1.94275,-0.51226 -7.58227,-1.91328 -12.53227,-3.11338 -10.21143,-2.47571 -13.08032,-3.72727 -16.18339,-7.06005 -6.67029,-7.16406 -4.42698,-18.63421 4.55251,-23.27718 1.52269,-0.78733 12.319,-2.25211 25.63088,-3.47744 26.35851,-2.42625 31.2371,-3.41927 32.71305,-6.65864 0.74116,-1.62667 0.43707,-7.51489 -1.08937,-21.09416 -3.80534,-33.85236 -4.1491,-38.4875 -5.12272,-69.07366 -1.04722,-32.89826 -1.25648,-34.0814 -7.13659,-40.35134 -3.34814,-3.57009 -3.44881,-3.60058 -20.86437,-6.31872 -9.625,-1.50223 -24.25,-3.84263 -32.5,-5.20088 -8.25,-1.35826 -19.275,-3.14112 -24.5,-3.96191 -5.225,-0.8208 -12.2,-1.9464 -15.5,-2.50135 -3.3,-0.55495 -10.05,-1.66854 -15,-2.47465 -4.95,-0.80611 -11.25,-1.86825 -14,-2.36032 -15.28371,-2.73477 -25.47943,-4.09476 -30.69805,-4.09476 -3.33013,0 -6.83113,-0.60893 -8.08713,-1.4066 -1.21815,-0.77363 -10.69284,-2.79549 -21.05485,-4.49303 -19.54031,-3.20115 -26.14425,-5.30941 -31.02332,-9.90398 -5.48111,-5.16149 -7.89966,-10.14002 -8.41328,-17.31852 -0.67935,-9.49481 0.36944,-14.77526 4.05971,-20.43986 2.54507,-3.90671 4.63571,-5.65032 10.01032,-8.34863 l 6.79339,-3.41063 23.70661,-1.28783 c 13.03863,-0.7083 31.3566,-1.77032 40.7066,-2.36004 9.35,-0.58972 24.875,-1.29895 34.5,-1.57606 9.625,-0.27711 18.4,-0.69811 19.5,-0.93555 1.1,-0.23744 9.65,-0.7018 19,-1.0319 9.35,-0.33012 23.075,-1.02087 30.5,-1.53501 7.425,-0.51414 17.33737,-0.93875 22.02749,-0.94358 11.57694,-0.0119 12.49074,-0.73648 13.38579,-10.61374 0.38681,-4.26864 1.529,-9.29299 2.56716,-11.29261 1.02866,-1.98134 2.42069,-6.73037 3.09341,-10.55342 1.32119,-7.50828 6.55839,-20.03463 10.60033,-25.35385 2.15402,-2.83471 3.03152,-3.26147 6.16854,-3 3.23904,0.26998 4.12579,1.00369 7.75414,6.41584 3.98945,5.95078 8.55851,17.8116 9.97305,25.889 0.38527,2.2 1.53965,5.66957 2.56529,7.71016 1.24163,2.47032 1.8648,5.85859 1.8648,10.13922 0,9.03456 1.66169,10.89781 10.10127,11.32653 7.81988,0.39724 29.48722,2.07932 70.39873,5.46521 7.7,0.63726 16.25,1.26957 19,1.40512 4.71453,0.2324 14.18339,0.99222 43.5,3.49064 6.875,0.58589 16.325,1.52618 21,2.08952 4.675,0.56335 14.60462,1.34478 22.06583,1.73652 12.22683,0.64196 14.13398,0.99972 19.32194,3.62459 10.54208,5.3338 16.03049,14.22097 15.88364,25.71974 -0.0992,7.76965 -3.25153,15.82393 -7.89308,20.16716 -7.17354,6.71247 -13.86414,8.69916 -39.37833,11.69289 -6.18299,0.72549 -10.65675,1.8233 -12.81297,3.14417 -2.6723,1.63702 -4.26665,1.90297 -8.24455,1.37529 -4.82018,-0.63942 -19.54632,0.85349 -38.94248,3.94792 -14.65312,2.33773 -21.64201,3.31774 -32.5,4.55727 -5.5,0.62788 -18.775,2.42806 -29.5,4.0004 -10.725,1.57235 -25.76962,3.57292 -33.43248,4.44571 -7.66287,0.87279 -14.7065,2.00114 -15.65252,2.50743 -0.94602,0.50629 -3.20063,2.78995 -5.01026,5.07478 -3.28003,4.14138 -3.29408,4.20728 -4.53581,21.26699 -0.68508,9.41201 -1.70789,21.38774 -2.27292,26.61274 -0.56502,5.225 -1.4981,16.475 -2.0735,25 -0.5754,8.525 -1.93596,23.375 -3.02347,33 -2.65184,23.47022 -2.685,22.82271 1.25096,24.42554 1.7875,0.72793 13.825,2.51304 26.75,3.96693 12.925,1.45388 25.14576,3.09091 27.15726,3.63783 4.77307,1.2978 9.44918,6.68076 10.32941,11.89083 0.9668,5.7224 -2.35291,12.45982 -7.41067,15.0401 -3.7098,1.8926 -14.04588,4.48467 -30.076,7.54244 -23.07638,4.40186 -35.72298,7.97677 -36.36478,10.27951 -0.26318,0.94425 -0.77916,5.65432 -1.14663,10.46682 -0.36747,4.8125 -1.0309,8.75 -1.47428,8.75 -0.44338,0 -1.11021,-3.7125 -1.48183,-8.25 z"
         id="path3149"
         inkscape:connector-curvature="0" />
    </g>
  </g>
</svg>
