<?xml version="1.0" encoding="UTF-8" standalone="no"?>
<!-- Created with Inkscape (http://www.inkscape.org/) -->

<svg
   xmlns:dc="http://purl.org/dc/elements/1.1/"
   xmlns:cc="http://creativecommons.org/ns#"
   xmlns:rdf="http://www.w3.org/1999/02/22-rdf-syntax-ns#"
   xmlns:svg="http://www.w3.org/2000/svg"
   xmlns="http://www.w3.org/2000/svg"
   xmlns:sodipodi="http://sodipodi.sourceforge.net/DTD/sodipodi-0.dtd"
   xmlns:inkscape="http://www.inkscape.org/namespaces/inkscape"
   width="501.74399"
   height="400.25125"
   id="svg2"
   version="1.1"
   inkscape:version="0.48.4 r9939"
   sodipodi:docname="Ki-21.svg">
  <defs
     id="defs4" />
  <sodipodi:namedview
     id="base"
     pagecolor="#ffffff"
     bordercolor="#666666"
     borderopacity="1.0"
     inkscape:pageopacity="0.0"
     inkscape:pageshadow="2"
     inkscape:zoom="0.35"
     inkscape:cx="257.65659"
     inkscape:cy="45.73832"
     inkscape:document-units="px"
     inkscape:current-layer="layer1"
     showgrid="false"
     inkscape:window-width="759"
     inkscape:window-height="594"
     inkscape:window-x="0"
     inkscape:window-y="25"
     inkscape:window-maximized="0"
     fit-margin-top="0"
     fit-margin-left="0"
     fit-margin-right="0"
     fit-margin-bottom="0" />
  <metadata
     id="metadata7">
    <rdf:RDF>
      <cc:Work
         rdf:about="">
        <dc:format>image/svg+xml</dc:format>
        <dc:type
           rdf:resource="http://purl.org/dc/dcmitype/StillImage" />
        <dc:title></dc:title>
      </cc:Work>
    </rdf:RDF>
  </metadata>
  <g
     inkscape:label="Layer 1"
     inkscape:groupmode="layer"
     id="layer1"
     transform="translate(-112.61655,-211.44566)">
    <g
       id="g3545"
       transform="translate(-14.285711,-39.999999)">
      <path
         style="fill:#d4d4d4"
         d="m 364.28572,650.82398 c -1.65,-0.45871 -7.275,-1.57787 -12.5,-2.48701 -5.225,-0.90914 -11.075,-2.04587 -13,-2.52605 -1.925,-0.48019 -9.8,-2.03739 -17.5,-3.46044 -7.7,-1.42305 -18.05,-3.41758 -23,-4.4323 -4.95,-1.01471 -12.81472,-2.4401 -17.47716,-3.16753 -6.6572,-1.03865 -9.12614,-1.90206 -11.5,-4.02161 -2.94518,-2.62967 -3.03149,-2.96689 -3.35937,-13.12657 -0.3143,-9.73877 -0.18219,-10.607 2,-13.14391 2.76288,-3.212 4.45811,-3.45618 59.83653,-8.61892 13.93467,-1.29908 26.87536,-2.88875 29.25,-3.59313 2.41699,-0.71696 2.30233,-6.1144 -0.71185,-33.50936 -1.35401,-12.30623 -2.95058,-26.87497 -3.54792,-32.37497 -1.39448,-12.8396 -2.86897,-37.09619 -3.66243,-60.25 l -0.62541,-18.25 -31.10119,-0.0201 c -17.10566,-0.0111 -33.89568,-0.42433 -37.31116,-0.91839 -5.32604,-0.77041 -26.10323,-6.99722 -51.79004,-15.52118 -3.85,-1.27759 -13.075,-4.19754 -20.5,-6.48878 -7.425,-2.29124 -15.975,-5.07313 -19,-6.18198 -3.025,-1.10886 -7.3,-2.45182 -9.5,-2.98438 -10.87578,-2.63269 -45.25906,-14.32974 -47.10239,-16.02405 -4.60859,-4.23599 -6.93198,-21.55492 -3.94198,-29.38413 3.15843,-8.27021 0.18068,-7.90338 55.85335,-6.88065 27.05506,0.49701 61.56602,0.90365 76.69102,0.90365 l 27.5,0 15.5,-4.3899 c 8.525,-2.41445 19.4382,-5.43921 24.25155,-6.72169 4.81336,-1.28248 11.90086,-3.28836 15.75,-4.4575 l 6.99845,-2.12571 0,-28.35338 c 0,-16.62957 0.4492,-30.44791 1.08635,-33.41887 1.59402,-7.43262 6.52038,-14.31221 11.05036,-15.43164 3.37005,-0.83279 3.67261,-1.21728 4.12644,-5.24362 0.562,-4.98603 4.64408,-10.99172 8.45625,-12.44111 5.30683,-2.01765 12.2806,5.47414 12.2806,13.19282 0,3.29195 0.30495,3.70159 3.18438,4.27748 4.83427,0.96685 6.60037,3.20716 9.32326,11.82664 2.42114,7.66427 2.49236,8.73014 2.49236,37.29956 l 0,29.40983 4.25,1.10781 c 7.06396,1.84129 17.74097,4.96665 27.25,7.97659 4.95,1.56684 15.23349,4.68118 22.85219,6.92075 l 13.8522,4.07194 74.1478,0.0147 c 57.06842,0.0113 74.72367,0.30109 76.64781,1.25789 5.50322,2.73654 8.31505,15.28084 6.10307,27.22737 -1.4894,8.04396 -3.57823,10.64082 -10.17921,12.65497 -18.00978,5.4953 -47.6592,13.89297 -48.97386,13.87097 -0.8525,-0.0143 -1.9775,0.39813 -2.5,0.91643 -0.8243,0.81768 -13.64107,4.54297 -24.45,7.10657 -1.925,0.45656 -5.975,1.52035 -9,2.36398 -3.025,0.84364 -11.35,2.92019 -18.5,4.61456 -12.56282,2.97708 -25.75766,6.47645 -35.86483,9.51162 -3.8751,1.16368 -12.16559,1.4609 -40.75,1.4609 l -35.88517,4e-5 -0.0123,11.25 c -0.0229,20.9639 -3.50921,55.5376 -10.06108,99.77486 -1.67194,11.28867 -2.9019,23.20923 -2.73326,26.49014 l 0.30662,5.96528 5,0.62804 c 2.75,0.34541 9.95,1.15979 16,1.80972 27.30305,2.93307 61.32601,7.20238 64.6763,8.11579 2.02197,0.55126 4.83447,2.37869 6.25,4.06096 2.26128,2.68737 2.5737,3.96366 2.5737,10.51405 0,8.39963 -1.67976,13.48 -5.22505,15.80296 -2.47596,1.62232 -8.56823,3.02611 -19.77495,4.5566 -3.575,0.48824 -12.575,2.01547 -20,3.39385 -18.8443,3.49827 -42.02087,7.66313 -51.5,9.25461 -8.83851,1.48394 -18.38787,1.62715 -23,0.34494 z"
         id="path3559"
         inkscape:connector-curvature="0" />
      <path
         style="fill:#aaaaaa"
         d="m 363.28572,649.82398 c -1.65,-0.45871 -7.275,-1.57787 -12.5,-2.48701 -5.225,-0.90914 -11.075,-2.04587 -13,-2.52605 -1.925,-0.48019 -9.8,-2.03739 -17.5,-3.46044 -7.7,-1.42305 -18.05,-3.41758 -23,-4.4323 -4.95,-1.01471 -12.74519,-2.42881 -17.32264,-3.14244 -7.12497,-1.11079 -8.67195,-1.71264 -10.75,-4.18226 -2.22767,-2.64743 -2.42736,-3.73626 -2.42736,-13.23545 0,-9.83137 0.1246,-10.4487 2.48354,-12.30424 1.73759,-1.36679 4.81624,-2.15179 10.25,-2.61357 4.27155,-0.36301 13.84146,-1.2904 21.26646,-2.06085 7.425,-0.77046 16.65,-1.67724 20.5,-2.01507 15.50214,-1.36027 33.76475,-3.65228 36.06272,-4.52597 3.18177,-1.2097 3.17972,-3.97841 -0.0246,-33.10118 -1.35398,-12.30623 -2.95055,-26.87497 -3.54789,-32.37497 -1.42668,-13.13614 -2.8946,-37.47335 -3.66526,-60.76809 -0.59592,-18.01282 -0.7055,-18.78647 -2.72294,-19.22501 -1.15612,-0.2513 -17.62703,-0.60539 -36.60203,-0.78686 -36.30617,-0.34721 -37.26025,-0.45532 -50.5,-5.72253 -3.17429,-1.26284 -7.34791,-2.61582 -17,-5.51098 -15.45451,-4.63559 -33.78642,-10.532 -39.01933,-12.55046 -2.76063,-1.06484 -5.5574,-1.93607 -6.21505,-1.93607 -1.55351,0 -9.88391,-2.73401 -13.91675,-4.56743 -1.73312,-0.78791 -3.84739,-1.43257 -4.69838,-1.43257 -1.5846,0 -16.55279,-4.42004 -20.15049,-5.95034 -1.1,-0.4679 -7.37076,-2.58298 -13.93502,-4.70019 -13.6804,-4.41242 -14.95018,-5.54428 -16.65886,-14.84947 -1.68947,-9.20055 -0.85543,-18.35807 2.04268,-22.42809 l 2.40914,-3.38333 41.57103,0.65716 c 22.86407,0.36144 56.87103,0.94204 75.57103,1.29023 25.13912,0.46808 35.04246,0.32067 38,-0.56562 3.58139,-1.07323 13.59684,-3.83374 42,-11.57625 4.95,-1.34934 11.7,-3.27622 15,-4.28196 l 6,-1.82861 0.5,-31.94177 c 0.48663,-31.08787 0.56252,-32.05896 2.83883,-36.32605 3.33393,-6.24966 6.51439,-9.11571 10.11572,-9.11571 2.92719,0 3.04545,-0.16891 3.04545,-4.34996 0,-5.16015 4.51666,-12.23964 8.43645,-13.22345 5.08333,-1.27583 10.54661,5.36035 10.55696,12.82341 0.006,4.58963 0.106,4.75 2.95083,4.75 3.97091,0 7.46467,3.43404 9.66521,9.5 1.55855,4.29626 1.88962,9.4994 2.3522,36.96769 l 0.53835,31.96769 5,1.34446 c 5.14005,1.38212 9.35639,2.63071 27.5,8.14366 20.94231,6.36334 26.59679,8.05484 31.9315,9.55209 4.64394,1.30337 16.18808,1.52441 79.61514,1.52441 72.57957,0 74.23842,0.0431 76.71702,1.99276 3.52793,2.77507 5.15618,10.26754 4.4392,20.42724 -0.31462,4.45813 -1.04025,9.33721 -1.61252,10.84239 -1.27506,3.35367 -6.05503,6.38805 -11.50654,7.3045 -2.24609,0.37758 -8.3588,1.99304 -13.5838,3.5899 -5.225,1.59686 -11.3,3.39999 -13.5,4.00695 -2.2,0.60696 -6.37938,1.94342 -9.28751,2.96991 -2.90813,1.02649 -6.30049,1.86635 -7.53856,1.86635 -1.23808,0 -4.01634,0.9 -6.17393,2 -2.15759,1.1 -4.61523,1.99857 -5.46144,1.99683 -1.44666,-0.003 -7.87564,1.6637 -23.03856,5.97259 -3.575,1.01592 -10.1,2.60988 -14.5,3.54214 -4.4,0.93225 -9.35,2.08604 -11,2.56397 -12.06598,3.49497 -25.5097,6.92447 -27.14408,6.92447 -1.07576,0 -2.51788,0.5625 -3.20471,1.25 -0.94416,0.94507 -10.20187,1.31156 -37.95,1.50237 -20.18567,0.1388 -37.71371,0.48487 -38.95121,0.76905 -2.17198,0.49877 -2.25,0.91307 -2.25,11.9476 0,15.25395 -2.34759,42.14047 -6.98788,80.03098 -0.53885,4.4 -2.11085,15.2 -3.49334,24 -3.05688,19.45812 -3.26215,27.03198 -0.76878,28.36576 0.9625,0.51487 6.475,1.42979 12.25,2.03314 22.06634,2.30543 30.19373,3.24054 52.33485,6.02146 21.81738,2.74025 22.96475,2.99249 25.75,5.66093 2.76515,2.64919 2.91515,3.22318 2.91515,11.15546 0,13.53253 -2.25799,16.02046 -16.5,18.18028 -4.4,0.66726 -13.85,2.29567 -21,3.61867 -7.15,1.32301 -15.925,2.86167 -19.5,3.41924 -3.575,0.55758 -11.45,1.94319 -17.5,3.07913 -27.11691,5.09147 -37.54122,6.00133 -45,3.92773 z"
         id="path3557"
         inkscape:connector-curvature="0" />
      <path
         style="fill:#929292"
         d="m 364.67358,649.41671 c -0.24501,-0.24502 -3.58251,-0.9279 -7.41667,-1.51753 -3.83415,-0.58964 -11.02119,-1.93534 -15.97119,-2.99046 -4.95,-1.05513 -14.175,-2.88117 -20.5,-4.05789 -6.325,-1.17671 -16.9,-3.1978 -23.5,-4.49131 -6.6,-1.29351 -15.07383,-2.89238 -18.83073,-3.55305 -9.96358,-1.75214 -10.66927,-2.80895 -10.66927,-15.97786 0,-12.91502 0.4186,-13.49044 10.5,-14.43383 3.85,-0.36027 13.3,-1.29535 21,-2.07796 7.7,-0.78261 21.2,-2.12092 30,-2.97402 20.33083,-1.97093 28.19949,-3.32297 30.03781,-5.16129 1.95113,-1.95112 1.87275,-4.3379 -0.99966,-30.44436 -1.35401,-12.30623 -2.95167,-26.87497 -3.55033,-32.37497 -1.44949,-13.3165 -2.84312,-36.58334 -3.63895,-60.75268 -0.51899,-15.76152 -0.9536,-20.00472 -2.1509,-21 -1.11061,-0.92322 -10.8802,-1.38262 -37.59923,-1.76804 l -36.09874,-0.52073 -15.5,-5.10276 c -8.525,-2.80652 -22.925,-7.43764 -32,-10.29138 -22.57938,-7.10034 -31.53999,-9.99803 -38,-12.28849 -3.025,-1.07254 -7.76427,-2.52247 -10.53171,-3.22206 -12.82141,-3.24115 -44.19161,-13.96216 -46.16133,-15.77599 -4.57926,-4.21685 -6.04223,-24.41922 -2.22211,-30.68543 l 2.07738,-3.40755 43.16889,0.65712 c 23.74288,0.36142 57.34388,0.94284 74.66888,1.29203 l 31.5,0.63491 11,-3.09593 c 6.05,-1.70277 18.65,-5.16458 28,-7.69293 23.59256,-6.3797 29.80086,-8.35424 30.69588,-9.76279 0.42542,-0.66951 0.80014,-14.7173 0.8327,-31.2173 0.0637,-32.2678 0.33958,-34.3607 5.40517,-41.00203 1.90838,-2.50202 3.45076,-3.49797 5.41714,-3.49797 3.79429,0 5.14911,-1.70294 5.14911,-6.47216 0,-3.07061 0.75576,-4.98902 3.0728,-7.8 3.88035,-4.70753 7.04293,-4.88596 11.02599,-0.62209 2.34852,2.5141 2.90121,4.00003 2.90121,7.8 0,5.3379 1.24902,7.09425 5.04501,7.09425 3.49603,0 5.5147,2.40719 7.94683,9.47627 1.83551,5.335 2.00948,8.42416 2.02347,35.93028 0.008,16.5514 0.36202,30.63902 0.78577,31.30583 0.42375,0.66681 6.82936,2.99405 14.23469,5.17166 20.33366,5.9793 35.47384,10.55627 45.46423,13.74413 l 9,2.87183 75.89248,0.5 75.89248,0.5 2.10752,2.82892 c 1.87686,2.51931 2.10752,4.18045 2.10752,15.17783 0,14.24186 -1.17652,17.03897 -8.09059,19.23488 -9.5965,3.04784 -43.33089,12.5886 -47.30284,13.37819 -2.41639,0.48035 -4.9002,1.29395 -5.51959,1.808 -0.61939,0.51404 -7.19235,2.52452 -14.60657,4.46772 -7.41423,1.9432 -15.28041,4.0099 -17.48041,4.59266 -2.2,0.58276 -10.525,2.6352 -18.5,4.56098 -16.23244,3.91975 -27.24053,6.81928 -34.13421,8.99094 -3.69386,1.16365 -11.81048,1.46287 -40,1.47462 -26.46124,0.011 -35.99525,0.33252 -37.86579,1.27683 -2.48771,1.25589 -2.50319,1.35047 -3.14778,19.23526 -0.59385,16.47674 -2.49747,39.61636 -4.8104,58.47317 -0.50596,4.125 -1.39103,11.325 -1.96683,16 -0.5758,4.675 -2.17706,15.7 -3.55836,24.5 -2.81913,17.96015 -3.08461,23.36315 -1.26663,25.77842 1.28829,1.71156 5.92556,2.56365 25.25,4.63964 28.81338,3.09537 61.33163,7.31067 63.78822,8.26879 4.02269,1.56892 4.71178,3.59069 4.71178,13.82433 0,8.64227 -0.15051,9.29278 -2.75,11.88531 -2.20738,2.20147 -4.32854,2.98841 -10.75,3.98819 -4.4,0.68506 -13.85,2.32802 -21,3.65102 -7.15,1.32301 -15.925,2.86167 -19.5,3.41924 -3.575,0.55758 -11.45,1.94319 -17.5,3.07913 -21.51415,4.03949 -28.10662,4.93123 -36.58333,4.94847 -4.72084,0.01 -8.7838,-0.183 -9.02881,-0.42801 z"
         id="path3555"
         inkscape:connector-curvature="0" />
      <path
         style="fill:#6b6b6b"
         d="m 363.28572,648.82398 c -1.65,-0.45871 -7.275,-1.57787 -12.5,-2.48701 -5.225,-0.90914 -11.075,-2.04587 -13,-2.52605 -1.925,-0.48019 -9.8,-2.03739 -17.5,-3.46044 -7.7,-1.42305 -18.05,-3.41758 -23,-4.4323 -4.95,-1.01471 -12.74817,-2.4293 -17.32927,-3.14352 -11.42881,-1.78182 -12.17073,-2.78913 -12.17073,-16.52429 0,-12.39567 0.38907,-12.84462 12,-13.84673 4.125,-0.35602 13.8,-1.29237 21.5,-2.08077 7.7,-0.7884 21.425,-2.15333 30.5,-3.03318 18.8699,-1.8295 25.7307,-2.95912 27.65081,-4.55267 1.90515,-1.58113 1.71113,-7.33532 -1.11266,-32.99987 -1.35401,-12.30623 -2.95058,-26.87497 -3.54792,-32.37497 -1.4273,-13.14181 -2.89474,-37.4768 -3.66601,-60.79441 -0.52513,-15.87626 -0.87297,-18.9289 -2.24028,-19.66066 -0.89024,-0.47645 -17.58582,-1.04257 -37.10128,-1.25806 -37.36778,-0.41261 -38.20391,-0.50664 -51.48266,-5.78936 -3.17429,-1.26284 -7.34791,-2.61582 -17,-5.51098 -15.45451,-4.63559 -33.78642,-10.532 -39.01933,-12.55046 -2.76063,-1.06484 -5.5574,-1.93607 -6.21505,-1.93607 -1.55351,0 -9.88391,-2.73401 -13.91675,-4.56743 -1.73312,-0.78791 -3.84739,-1.43257 -4.69838,-1.43257 -1.5846,0 -16.55279,-4.42004 -20.15049,-5.95034 -1.1,-0.4679 -7.4,-2.58298 -14,-4.70019 -11.68752,-3.74923 -12.05102,-3.95363 -13.95942,-7.84947 -2.86693,-5.85262 -2.91422,-23.70947 -0.0739,-27.90518 l 1.96669,-2.90517 41.53331,0.65662 c 22.84332,0.36115 56.83332,0.94151 75.53332,1.2897 25.13912,0.46808 35.04246,0.32067 38,-0.56562 2.2,-0.65927 10.525,-2.98163 18.5,-5.16079 22.18704,-6.0626 31.89061,-8.74043 39,-10.76259 l 6.5,-1.84883 0.5,-32.39907 c 0.47616,-30.85405 0.60356,-32.58982 2.67172,-36.39907 3.56275,-6.56209 4.80189,-7.72943 8.90997,-8.39375 3.85949,-0.62412 3.92588,-0.70849 4.42255,-5.62043 0.58959,-5.83092 3.97923,-11.19258 7.65997,-12.11639 1.98769,-0.49888 3.20605,0.0393 5.67233,2.50557 2.58793,2.58793 3.23093,4.14955 3.65219,8.86981 l 0.51127,5.72889 3.81791,0.61677 c 4.67692,0.75554 5.91216,2.01211 8.26679,8.40953 1.5966,4.3379 1.91147,9.29005 2.37779,37.3974 l 0.53751,32.39739 10.5,2.90826 c 13.64517,3.77939 14.9328,4.15311 25,7.25584 16.04321,4.94456 24.50776,7.49446 29.9315,9.0167 4.64368,1.3033 16.17896,1.52441 79.52749,1.52441 63.89375,0 74.38776,0.20436 76.21497,1.48419 3.08524,2.16098 4.71439,10.22232 4.0289,19.93581 -0.93327,13.22445 -2.38744,15.10594 -13.49162,17.45614 -2.90882,0.61566 -8.98382,2.26311 -13.5,3.661 -4.51618,1.3979 -10.01124,3.03405 -12.21124,3.6359 -2.2,0.60185 -6.37938,1.93412 -9.28751,2.96061 -2.90813,1.02649 -6.30049,1.86635 -7.53856,1.86635 -1.23808,0 -4.01634,0.9 -6.17393,2 -2.15759,1.1 -4.61523,1.99857 -5.46144,1.99683 -1.44666,-0.003 -7.87564,1.6637 -23.03856,5.97259 -3.575,1.01592 -10.1,2.60988 -14.5,3.54214 -4.4,0.93225 -9.35,2.08604 -11,2.56397 -12.06598,3.49497 -25.5097,6.92447 -27.14408,6.92447 -1.07576,0 -2.51777,0.5625 -3.20448,1.25 -0.93707,0.93815 -10.77916,1.37474 -39.45,1.75 -21.01079,0.275 -38.76394,0.86406 -39.45144,1.30902 -0.87949,0.56922 -1.25,4.18535 -1.25,12.19997 0,15.21544 -2.35123,42.13027 -6.98788,79.99101 -0.53885,4.4 -2.11085,15.2 -3.49334,24 -1.38248,8.8 -2.51477,18.82364 -2.51619,22.27475 -0.003,7.57588 -0.044,7.55113 15.07038,9.13115 22.04656,2.30469 30.15221,3.23749 52.24813,6.01274 28.20213,3.54219 27.6789,3.24341 27.6789,15.80533 0,13.34319 -1.63095,15.10539 -16,17.28761 -4.125,0.62646 -13.35,2.2169 -20.5,3.53431 -7.15,1.3174 -15.925,2.85148 -19.5,3.40905 -3.575,0.55758 -11.45,1.94319 -17.5,3.07913 -27.11691,5.09147 -37.54122,6.00133 -45,3.92773 z"
         id="path3553"
         inkscape:connector-curvature="0" />
      <path
         style="fill:#535353"
         d="m 364.78572,648.80183 c -1.925,-0.4695 -15.425,-3.14684 -30,-5.94963 -14.575,-2.8028 -30.55,-5.92467 -35.5,-6.93748 -4.95,-1.01281 -12.79776,-2.43389 -17.43948,-3.15795 -12.33235,-1.92374 -13.46776,-3.15607 -13.89953,-15.08613 -0.28755,-7.94517 -0.0585,-9.71342 1.50871,-11.64889 2.2429,-2.76986 0.19405,-2.49239 64.81376,-8.77753 9.34091,-0.90853 19.01591,-2.15366 21.5,-2.76696 l 4.51654,-1.11508 0.30758,-6 c 0.26377,-5.14521 -1.59861,-24.98583 -5.81975,-62 -1.30183,-11.41544 -2.84847,-36.82433 -3.65221,-60 -0.39431,-11.36998 -1.0315,-18.27061 -1.72993,-18.73469 -0.60813,-0.40408 -14.83069,-0.75049 -31.60569,-0.76981 -16.775,-0.0193 -33.45186,-0.46224 -37.05969,-0.98429 -3.60783,-0.52204 -14.18283,-3.39951 -23.5,-6.39436 -9.31717,-2.99486 -24.36531,-7.76622 -33.44031,-10.60303 -9.075,-2.83681 -18.075,-5.75291 -20,-6.48022 -1.925,-0.72731 -8.9,-2.96455 -15.5,-4.97165 -6.6,-2.0071 -19.2,-5.90777 -28,-8.66817 -29.77322,-9.33931 -28.74498,-8.63683 -30.6338,-20.92852 -1.48428,-9.65902 -0.51986,-16.40251 2.82402,-19.74639 l 2.53003,-2.53002 38.63987,0.65113 c 21.25193,0.35813 55.28988,0.93667 75.63988,1.28564 35.51217,0.60899 37.28148,0.5512 44,-1.43713 3.85,-1.13939 13.075,-3.72562 20.5,-5.74718 23.51778,-6.40301 37.46667,-10.50762 38.18334,-11.23584 0.38185,-0.38801 0.83431,-14.65547 1.00547,-31.70547 0.29963,-29.84793 0.39623,-31.18446 2.59938,-35.96346 3.09849,-6.72111 4.87438,-8.45895 9.38052,-9.17951 3.57146,-0.5711 3.83129,-0.84352 3.83129,-4.01696 0,-1.87237 0.61289,-4.85235 1.36198,-6.62219 4.5731,-10.80459 14.38134,-7.85826 15.41706,4.63119 0.44695,5.38965 0.47945,5.43665 4.16701,6.02631 4.64749,0.74317 6.38228,2.67049 8.66315,9.62462 1.52626,4.65341 1.88758,10.34866 2.34737,37 l 0.54343,31.5 4,1.16563 c 8.00272,2.33205 52.13311,15.63447 57,17.18177 4.32379,1.37462 15.3657,1.66149 81.64563,2.1211 87.62374,0.60763 79.64236,-0.39195 81.9023,10.25735 1.66695,7.85502 0.0369,21.1338 -2.96256,24.13322 -1.05976,1.05976 -5.675,2.9304 -10.2561,4.15698 -4.5811,1.22658 -13.95427,3.91946 -20.82927,5.98418 -6.875,2.06473 -15.425,4.58397 -19,5.59832 -3.575,1.01435 -8.525,2.49028 -11,3.27985 -4.26692,1.36123 -8.95737,2.64761 -27.5,7.54206 -4.4,1.16141 -14.525,3.68283 -22.5,5.60316 -7.975,1.92033 -20.125,5.05559 -27,6.96725 l -12.5,3.47575 -34.66821,0.0167 c -19.06752,0.009 -35.38002,0.28983 -36.25,0.62368 -1.30781,0.50185 -1.58179,2.48508 -1.58179,11.44997 0,14.68803 -2.40238,41.99991 -6.98788,79.44304 -0.53885,4.4 -2.11085,15.2 -3.49334,24 -3.10741,19.77977 -3.33045,29.99524 -0.68581,31.41061 1.00814,0.53954 6.29564,1.45499 11.75,2.03434 23.19472,2.46368 29.10919,3.14658 51.91703,5.99443 23.91565,2.98618 24.00967,3.00743 26.75,6.04444 2.40685,2.66743 2.75,3.86085 2.75,9.56408 0,12.59305 -2.54773,15.1228 -17.5,17.37652 -4.4,0.6632 -13.85,2.28828 -21,3.61128 -7.15,1.32301 -15.925,2.86167 -19.5,3.41924 -3.575,0.55758 -11.45,1.94319 -17.5,3.07913 -27.42678,5.14965 -33.90106,5.75894 -41.5,3.90558 z"
         id="path3551"
         inkscape:connector-curvature="0" />
      <path
         style="fill:#2a2a2a"
         d="m 363.28572,647.82398 c -1.65,-0.45871 -7.275,-1.57787 -12.5,-2.48701 -5.225,-0.90914 -11.075,-2.04587 -13,-2.52605 -1.925,-0.48019 -9.8,-2.03739 -17.5,-3.46044 -7.7,-1.42305 -18.05,-3.41758 -23,-4.4323 -4.95,-1.01471 -12.74779,-2.42923 -17.32842,-3.14338 -10.79372,-1.6828 -11.17158,-2.21044 -11.17158,-15.59994 0,-12.02326 -0.23273,-11.75354 11,-12.74828 4.125,-0.3653 13.575,-1.29055 21,-2.05611 7.425,-0.76556 16.65,-1.66834 20.5,-2.00617 16.01688,-1.40544 33.80098,-3.66605 36.29237,-4.61328 1.46681,-0.55768 3.00669,-1.54831 3.42197,-2.2014 1.27205,-2.00054 0.88906,-9.49772 -1.67619,-32.81247 -1.35401,-12.30623 -2.95058,-26.87497 -3.54792,-32.37497 -1.42801,-13.14838 -2.89491,-37.48079 -3.66687,-60.82496 -0.58444,-17.67336 -0.75101,-18.90768 -2.72294,-20.17727 -1.6343,-1.05221 -9.97856,-1.43558 -37.60042,-1.72751 -37.39869,-0.39525 -38.21225,-0.48645 -51.5,-5.77275 -3.17429,-1.26284 -7.34791,-2.61582 -17,-5.51098 -15.45451,-4.63559 -33.78642,-10.532 -39.01933,-12.55046 -2.76063,-1.06484 -5.5574,-1.93607 -6.21505,-1.93607 -1.55351,0 -9.88391,-2.73401 -13.91675,-4.56743 -1.73312,-0.78791 -3.84739,-1.43257 -4.69838,-1.43257 -1.61024,0 -16.65895,-4.45451 -20.15049,-5.96467 -1.1,-0.47577 -7.32372,-2.51008 -13.83049,-4.52069 -11.41006,-3.52575 -11.88418,-3.78416 -13.34126,-7.27145 -0.83092,-1.98868 -1.75579,-7.72271 -2.05527,-12.74228 -0.44992,-7.54135 -0.22777,-9.79392 1.27904,-12.96928 l 1.82352,-3.8428 41.56223,0.65704 c 22.85923,0.36137 56.86223,0.94191 75.56223,1.2901 25.13912,0.46808 35.04246,0.32067 38,-0.56562 2.2,-0.65927 10.525,-2.98163 18.5,-5.16079 42.06462,-11.49414 44.78143,-12.28918 45.91757,-13.43718 0.56264,-0.5685 1.09112,-14.26345 1.27239,-32.97238 0.29864,-30.82345 0.39156,-32.15242 2.52714,-36.14567 3.00679,-5.62228 4.92725,-7.35433 8.15433,-7.35433 3.74708,0 5.12857,-1.70565 5.12857,-6.33197 0,-4.91141 3.30743,-10.4561 6.75294,-11.32087 2.08594,-0.52354 3.13646,-0.0354 5.4174,2.51745 2.27061,2.54125 2.82966,4.11216 2.82966,7.95117 0,5.412 1.2356,7.18422 5.00887,7.18422 4.02978,0 5.65645,1.92359 7.91123,9.35533 1.90976,6.29456 2.0799,9.33168 2.0799,37.12756 0,23.02232 0.29936,30.50967 1.25,31.26371 0.6875,0.54531 3.725,1.56714 6.75,2.27072 3.025,0.70357 7.975,2.05451 11,3.00207 5.17965,1.6225 16.13702,4.96153 34.5,10.51316 19.32765,5.84328 12.95231,5.46745 92.74724,5.46745 46.29362,0 74.56744,0.36563 75.71375,0.97912 2.77104,1.48302 4.40871,9.99157 3.74187,19.44088 -0.92208,13.06591 -1.77249,14.14017 -13.14387,16.60366 -2.71755,0.58873 -8.56755,2.19198 -13,3.56277 -4.43244,1.37079 -9.85899,2.98476 -12.05899,3.58661 -2.2,0.60185 -6.37938,1.93412 -9.28751,2.96061 -2.90813,1.02649 -6.30049,1.86635 -7.53856,1.86635 -1.23808,0 -4.01634,0.9 -6.17393,2 -2.15759,1.1 -4.61523,1.99857 -5.46144,1.99683 -1.44666,-0.003 -7.87564,1.6637 -23.03856,5.97259 -3.575,1.01592 -10.1,2.60988 -14.5,3.54214 -4.4,0.93225 -9.35,2.08604 -11,2.56397 -12.06598,3.49497 -25.5097,6.92447 -27.14408,6.92447 -1.07576,0 -2.51777,0.5625 -3.20448,1.25 -0.93723,0.93831 -10.79877,1.37468 -39.5484,1.75 -30.4262,0.39721 -38.63938,0.78215 -39.95144,1.87244 -1.35749,1.12805 -1.6516,3.38961 -1.6516,12.69997 0,15.15436 -2.35704,42.11428 -6.98788,79.92759 -0.53885,4.4 -2.11085,15.2 -3.49334,24 -2.87658,18.31043 -3.22697,27.66736 -1.10212,29.43083 1.50751,1.25113 7.37588,2.2116 25.08334,4.10537 39.46912,4.22112 64.6909,7.82659 66.55567,9.51418 1.6282,1.4735 1.94433,3.10878 1.94433,10.05755 0,13.11993 -1.06793,14.2878 -15,16.40365 -4.125,0.62646 -13.35,2.2169 -20.5,3.53431 -7.15,1.3174 -15.925,2.85148 -19.5,3.40905 -3.575,0.55758 -11.45,1.94319 -17.5,3.07913 -27.11691,5.09147 -37.54122,6.00133 -45,3.92773 z"
         id="path3549"
         inkscape:connector-curvature="0" />
      <path
         style="fill:#000000"
         d="m 362.28572,646.82398 c -1.65,-0.45871 -7.275,-1.57787 -12.5,-2.48701 -5.225,-0.90914 -11.075,-2.04587 -13,-2.52605 -1.925,-0.48019 -9.8,-2.0323 -17.5,-3.44913 -7.7,-1.41683 -16.925,-3.20362 -20.5,-3.97064 -3.575,-0.76702 -11,-2.13555 -16.5,-3.04118 -6.45362,-1.06265 -10.4433,-2.21817 -11.25,-3.25832 -0.81372,-1.04919 -1.25,-5.18628 -1.25,-11.85321 0,-8.88156 0.23238,-10.31314 1.75,-10.78111 0.9625,-0.2968 6.925,-1.00154 13.25,-1.5661 6.325,-0.56457 13.075,-1.25077 15,-1.52491 1.925,-0.27414 11.15,-1.18646 20.5,-2.02737 30.87267,-2.77662 38.79581,-4.1746 41.25,-7.27824 1.76054,-2.22644 1.58527,-6.90139 -1.21185,-32.32356 -1.35401,-12.30623 -2.95058,-26.87497 -3.54792,-32.37497 -1.44359,-13.29175 -2.90567,-37.87186 -3.56896,-60 -0.62188,-20.74705 -0.79205,-21.9905 -3.16264,-23.10963 -0.96725,-0.45662 -17.95863,-1.07259 -37.75863,-1.36881 l -36,-0.53859 -17.5,-5.66717 c -9.625,-3.11695 -24.925,-7.99268 -34,-10.83496 -9.075,-2.84229 -18.75,-5.96592 -21.5,-6.94141 -2.75,-0.9755 -9.5,-3.15217 -15,-4.83706 -10.52212,-3.22338 -39.84424,-12.35823 -47.5,-14.79789 -2.475,-0.78871 -4.99513,-1.76487 -5.6003,-2.16925 -2.49936,-1.6701 -3.65875,-6.08955 -4.15662,-15.84456 -0.44706,-8.75958 -0.26048,-10.71517 1.24094,-13.00663 l 1.76712,-2.69696 41.62443,0.6532 c 22.89344,0.35927 56.47443,0.9473 74.62443,1.30674 l 33,0.65354 9,-2.59483 c 4.95,-1.42715 15.075,-4.233 22.5,-6.23522 27.54806,-7.42859 37.53141,-10.56918 38.75,-12.19008 0.934,-1.24236 1.25141,-9.13522 1.25558,-31.22156 0.003,-16.71575 0.44219,-31.13071 1.01045,-33.1765 1.7736,-6.38508 5.10293,-10.28651 9.37002,-10.9801 4.52995,-0.73633 5.57811,-2.09327 5.59864,-7.24798 0.008,-2.11514 0.79828,-5.17116 1.75523,-6.79116 4.17513,-7.06792 11.26008,-3.2164 11.26008,6.1212 0,5.44808 1.75845,8.01567 5.48964,8.01567 4.33826,0 5.48514,1.17852 7.50227,7.70922 1.82296,5.90207 2.00809,9.28595 2.00809,36.70498 0,22.715 0.31245,30.63084 1.26021,31.92699 0.69312,0.94789 3.95562,2.42108 7.25,3.27376 3.29439,0.85267 16.33979,4.70765 28.98979,8.56662 39.36636,12.00898 26.65976,10.76589 110.5,10.81021 40.425,0.0214 74.07072,0.40109 74.76827,0.84384 4.19796,2.66453 4.2756,28.58267 0.0937,31.28949 -0.74911,0.48488 -3.16201,1.37327 -5.36201,1.9742 -9.9377,2.7145 -25.78092,7.35123 -34.17806,10.00267 -5.04789,1.59391 -10.09835,2.89802 -11.22321,2.89802 -1.12485,0 -3.96973,0.85431 -6.32194,1.89846 -2.35221,1.04416 -8.10175,2.86705 -12.77675,4.05086 -4.675,1.18382 -11.65,3.02201 -15.5,4.08487 -3.85,1.06286 -10.375,2.67557 -14.5,3.58381 -4.125,0.90823 -12.45,3.00526 -18.5,4.66005 -6.05,1.65479 -13.475,3.56982 -16.5,4.25562 -3.025,0.6858 -6.76679,1.74628 -8.3151,2.35662 -1.87461,0.73897 -14.63173,1.10971 -38.1849,1.10971 -34.68873,0 -39.86963,0.41142 -41.71434,3.31256 -0.41527,0.65309 -0.76193,6.45243 -0.77035,12.88741 -0.0204,15.57573 -2.35503,42.34527 -7.00319,80.30003 -0.53885,4.4 -2.11085,15.2 -3.49334,24 -2.6963,17.16291 -3.10571,24.53479 -1.52646,27.48566 1.21014,2.26115 5.55546,3.70802 13.50768,4.49768 3.3,0.32769 9.6,1.01345 14,1.52391 50.20251,5.82422 62.28915,7.45277 64.25,8.65702 2.06498,1.2682 2.25,2.12377 2.25,10.40424 0,11.70182 -1.12905,13.0375 -12.52452,14.81658 -4.38651,0.68483 -13.82548,2.32761 -20.97548,3.65061 -7.15,1.32301 -15.925,2.86167 -19.5,3.41924 -3.575,0.55758 -11.45,1.94319 -17.5,3.07913 -27.03029,5.0752 -39.21101,6.09313 -47,3.92773 z"
         id="path3547"
         inkscape:connector-curvature="0" />
    </g>
  </g>
</svg>
